<svg width="12" height="12" viewBox="0 0 12 12" fill="none" xmlns="http://www.w3.org/2000/svg">
<path d="M2.00005 0.0995905C2.21973 -0.120082 10.8881 0.0612713 11.1719 0.116192L11.1817 0.118145C11.2813 0.138585 11.3744 0.176166 11.459 0.226544C11.5222 0.264068 11.5825 0.308956 11.6368 0.363262C11.6908 0.417266 11.7351 0.477267 11.7725 0.54002C11.7944 0.576679 11.8145 0.614494 11.8311 0.654278C11.8769 0.764701 11.9004 0.882264 11.9004 0.999981V9.99998C11.9004 10.497 11.497 10.9003 11.0001 10.9004C10.503 10.9004 10.0997 10.497 10.0997 9.99998V3.17381L1.63677 11.6367C1.28532 11.9881 0.714813 11.9881 0.363335 11.6367C0.0118635 11.2852 0.0118635 10.7147 0.363335 10.3633L8.82623 1.90037H2.00005C1.503 1.90037 1.09966 1.49704 1.09966 0.999981C1.09966 0.502925 1.503 0.0995905 2.00005 0.0995905Z" fill="white"/>
</svg>
