<svg width="52" height="52" viewBox="0 0 52 52" fill="none" xmlns="http://www.w3.org/2000/svg">
<rect width="52" height="52" rx="16" fill="url(#paint0_linear_4001_921)"/>
<rect x="0.5" y="0.5" width="51" height="51" rx="15.5" stroke="black" stroke-opacity="0.08"/>
<path fill-rule="evenodd" clip-rule="evenodd" d="M29.25 13C31.07 13 31.98 13.0001 32.6752 13.3542C33.2867 13.6658 33.7842 14.1633 34.0958 14.7748C34.4499 15.47 34.45 16.38 34.45 18.2V25.595C33.8268 25.4346 33.1733 25.35 32.5 25.35C28.1922 25.35 24.7 28.8422 24.7 33.15C24.7 34.3102 24.9553 35.4104 25.4097 36.4H18.85C17.0301 36.4 16.12 36.3999 15.4248 36.0458C14.8133 35.7342 14.3158 35.2367 14.0042 34.6252C13.6501 33.93 13.65 33.02 13.65 31.2V20.362C13.65 20.044 13.6497 19.8845 13.6856 19.7349C13.7174 19.6022 13.7705 19.4754 13.8417 19.3591C13.9221 19.228 14.0347 19.1154 14.2594 18.8906L19.5406 13.6094C19.7654 13.3846 19.878 13.2721 20.0091 13.1917C20.1254 13.1204 20.2523 13.0674 20.3849 13.0355C20.5345 12.9996 20.6941 13 21.012 13H29.25ZM17.55 28.925C17.0115 28.925 16.575 29.3615 16.575 29.9C16.575 30.4385 17.0115 30.875 17.55 30.875H21.45C21.9885 30.875 22.425 30.4385 22.425 29.9C22.425 29.3615 21.9885 28.925 21.45 28.925H17.55ZM17.55 24.375C17.0115 24.375 16.575 24.8115 16.575 25.35C16.575 25.8885 17.0115 26.325 17.55 26.325H24.05C24.5885 26.325 25.025 25.8885 25.025 25.35C25.025 24.8115 24.5885 24.375 24.05 24.375H17.55ZM21.45 15.8691C21.4499 15.2901 20.7499 15.0002 20.3405 15.4096L16.0596 19.6904C15.6502 20.0999 15.9402 20.7999 16.5192 20.8H20.8C21.159 20.8 21.45 20.509 21.45 20.15V15.8691Z" fill="white"/>
<path d="M30.875 33.4077L30.7671 33.15H30.9829L30.875 33.4077Z" fill="white"/>
<path d="M34.125 33.4077L34.0171 33.15H34.2329L34.125 33.4077Z" fill="white"/>
<path fill-rule="evenodd" clip-rule="evenodd" d="M32.5 27.3C35.7309 27.3 38.35 29.9191 38.35 33.15C38.35 36.3809 35.7309 39 32.5 39C29.2692 39 26.65 36.3809 26.65 33.15C26.65 29.9191 29.2692 27.3 32.5 27.3ZM36.0001 30.5995C35.6688 30.4615 35.2876 30.6186 35.1495 30.9499L34.7738 31.85H33.4763L33.1005 30.9499C32.9996 30.7077 32.7624 30.55 32.5 30.55C32.2703 30.55 32.0604 30.671 31.944 30.8636L31.8995 30.9499L31.5238 31.85H30.2263L29.8505 30.9499C29.7125 30.6186 29.3313 30.4615 28.9999 30.5995C28.6686 30.7376 28.5115 31.1187 28.6495 31.4501L28.8158 31.85H28.6C28.241 31.85 27.95 32.141 27.95 32.5C27.95 32.859 28.241 33.15 28.6 33.15H29.3579L30.2745 35.3501C30.3755 35.5923 30.6126 35.75 30.875 35.75C31.1374 35.75 31.3746 35.5923 31.4755 35.3501L32.3921 33.15H32.6079L33.5245 35.3501C33.6255 35.5923 33.8626 35.75 34.125 35.75C34.3874 35.75 34.6246 35.5923 34.7255 35.3501L35.6421 33.15H36.4C36.759 33.15 37.05 32.859 37.05 32.5C37.05 32.141 36.759 31.85 36.4 31.85H36.1842L36.3505 31.4501C36.4885 31.1187 36.3315 30.7376 36.0001 30.5995Z" fill="white"/>
<defs>
<linearGradient id="paint0_linear_4001_921" x1="11.9659" y1="0.904348" x2="28.0987" y2="56.9704" gradientUnits="userSpaceOnUse">
<stop stop-color="#6159FD"/>
<stop offset="1" stop-color="#B1ADFC"/>
</linearGradient>
</defs>
</svg>
