<svg width="52" height="52" viewBox="0 0 52 52" fill="none" xmlns="http://www.w3.org/2000/svg">
<rect width="52" height="52" rx="16" fill="url(#paint0_linear_4001_942)"/>
<rect x="0.5" y="0.5" width="51" height="51" rx="15.5" stroke="black" stroke-opacity="0.08"/>
<path fill-rule="evenodd" clip-rule="evenodd" d="M32.6667 14C34.5333 14 35.4667 14.0001 36.1797 14.3633C36.8069 14.6829 37.3171 15.1931 37.6367 15.8203C37.9999 16.5333 38 17.4667 38 19.3333V32.6667C38 34.5333 37.9999 35.4667 37.6367 36.1797C37.3171 36.8069 36.8069 37.3171 36.1797 37.6367C35.4667 37.9999 34.5333 38 32.6667 38H19.3333C17.4667 38 16.5333 37.9999 15.8203 37.6367C15.1931 37.3171 14.6829 36.8069 14.3633 36.1797C14.0001 35.4667 14 34.5333 14 32.6667V19.3333C14 17.4667 14.0001 16.5333 14.3633 15.8203C14.6829 15.1931 15.1931 14.6829 15.8203 14.3633C16.5333 14.0001 17.4667 14 19.3333 14H32.6667ZM28.6667 32C28.1144 32 27.6667 32.4477 27.6667 33C27.6667 33.5523 28.1144 34 28.6667 34H34C34.5523 34 35 33.5523 35 33C35 32.4477 34.5523 32 34 32H28.6667ZM23.2591 28.293C22.8686 27.9025 22.2355 27.9025 21.8451 28.293L20.6667 29.4714L19.4883 28.293C19.0978 27.9025 18.4648 27.9025 18.0742 28.293C17.6837 28.6835 17.6837 29.3165 18.0742 29.707L19.2526 30.8854L18.0742 32.0638C17.6837 32.4543 17.6838 33.0873 18.0742 33.4779C18.4647 33.8684 19.0978 33.8684 19.4883 33.4779L20.6667 32.2995L21.8451 33.4779C22.2356 33.8684 22.8686 33.8684 23.2591 33.4779C23.6495 33.0873 23.6496 32.4543 23.2591 32.0638L22.0807 30.8854L23.2591 29.707C23.6496 29.3165 23.6496 28.6835 23.2591 28.293ZM28.6667 28C28.1144 28 27.6667 28.4477 27.6667 29C27.6667 29.5523 28.1144 30 28.6667 30H34C34.5523 30 35 29.5523 35 29C35 28.4477 34.5523 28 34 28H28.6667ZM20.6667 17.6667C20.1144 17.6667 19.6667 18.1144 19.6667 18.6667V20.3333H18C17.4477 20.3333 17 20.781 17 21.3333C17 21.8856 17.4477 22.3333 18 22.3333H19.6667V24C19.6667 24.5523 20.1144 25 20.6667 25C21.219 25 21.6667 24.5523 21.6667 24V22.3333H23.3333C23.8856 22.3333 24.3333 21.8856 24.3333 21.3333C24.3333 20.781 23.8856 20.3333 23.3333 20.3333H21.6667V18.6667C21.6667 18.1144 21.219 17.6667 20.6667 17.6667ZM28.6667 20.3333C28.1144 20.3333 27.6667 20.781 27.6667 21.3333C27.6667 21.8856 28.1144 22.3333 28.6667 22.3333H34C34.5523 22.3333 35 21.8856 35 21.3333C35 20.781 34.5523 20.3333 34 20.3333H28.6667Z" fill="white"/>
<defs>
<linearGradient id="paint0_linear_4001_942" x1="11.9659" y1="0.904348" x2="28.0987" y2="56.9704" gradientUnits="userSpaceOnUse">
<stop stop-color="#A059FD"/>
<stop offset="1" stop-color="#CAADFC"/>
</linearGradient>
</defs>
</svg>
