<svg width="52" height="52" viewBox="0 0 52 52" fill="none" xmlns="http://www.w3.org/2000/svg">
<rect width="52" height="52" rx="16" fill="url(#paint0_linear_4001_897)"/>
<rect x="0.5" y="0.5" width="51" height="51" rx="15.5" stroke="black" stroke-opacity="0.08"/>
<path fill-rule="evenodd" clip-rule="evenodd" d="M23.4147 13C24.0579 13 24.6122 12.9989 25.0662 13.0357C25.5338 13.0736 25.9994 13.1573 26.4469 13.3833C27.1145 13.7208 27.6575 14.2598 27.9979 14.9218C28.226 15.3658 28.3118 15.8283 28.3501 16.2922C28.3871 16.7424 28.3857 17.2922 28.3857 17.93V27.0373C26.5496 28.4691 25.3675 30.7028 25.3675 33.2142C25.3675 34.3781 25.6232 35.4817 26.0782 36.4745H14.1836C13.53 36.4745 13 35.9485 13 35.3003C13.0003 34.6523 13.5302 34.1273 14.1836 34.1273V17.93C14.1836 17.2922 14.1821 16.7425 14.2192 16.2922C14.2574 15.8283 14.342 15.3658 14.5701 14.9218C14.9104 14.2597 15.4535 13.7209 16.1211 13.3833C16.5688 13.1571 17.0353 13.0736 17.5031 13.0357C17.9571 12.9989 18.5113 13 19.1545 13H23.4147ZM19.5092 27.087C18.8558 27.087 18.3259 27.612 18.3256 28.26C18.3256 28.9082 18.8556 29.4342 19.5092 29.4342H23.06C23.7135 29.4339 24.2437 28.908 24.2437 28.26C24.2433 27.6122 23.7133 27.0872 23.06 27.087H19.5092ZM19.5092 22.3913C18.8556 22.3913 18.3256 22.9174 18.3256 23.5656C18.3256 24.2138 18.8556 24.7398 19.5092 24.7398H23.06C23.7135 24.7396 24.2437 24.2137 24.2437 23.5656C24.2436 22.9175 23.7134 22.3916 23.06 22.3913H19.5092ZM19.5092 17.6969C18.8556 17.6969 18.3256 18.2229 18.3256 18.8712C18.3259 19.5192 18.8558 20.0441 19.5092 20.0441H23.06C23.7133 20.0439 24.2434 19.519 24.2437 18.8712C24.2437 18.2231 23.7135 17.6972 23.06 17.6969H19.5092Z" fill="white"/>
<path d="M32.8824 22.3901C33.5255 22.3901 34.0798 22.3889 34.5338 22.4257C35.0016 22.4636 35.468 22.5472 35.9157 22.7734C36.5834 23.111 37.1265 23.6497 37.4668 24.3119C37.6948 24.7559 37.7794 25.2184 37.8177 25.6822C37.8472 26.0412 37.8499 26.4635 37.8507 26.9431C36.5477 25.9673 34.9306 25.3893 33.1786 25.3893C31.8762 25.3893 30.649 25.7098 29.5693 26.2745V22.3901H32.8824Z" fill="white"/>
<path d="M34.469 33.8662C34.4131 35.4624 34.1553 36.851 33.7964 37.8398C33.591 38.4057 33.3772 38.7728 33.2053 38.9733C33.1966 38.9834 33.1865 38.9913 33.1786 39C33.1707 38.9913 33.1606 38.9834 33.1519 38.9733C32.9799 38.7728 32.7661 38.4057 32.5607 37.8398C32.2019 36.851 31.9441 35.4624 31.8882 33.8662H34.469Z" fill="white"/>
<path d="M30.5876 33.8662C30.6538 35.8899 31.0254 37.6702 31.5742 38.8574C29.3207 38.2157 27.6212 36.2589 27.3571 33.8662H30.5876Z" fill="white"/>
<path d="M39 33.8662C38.7359 36.2593 37.0357 38.216 34.7817 38.8574C35.3306 37.6702 35.7033 35.8902 35.7695 33.8662H39Z" fill="white"/>
<path d="M31.5742 27.5697C31.0252 28.7569 30.6538 30.5378 30.5876 32.5621H27.3571C27.6212 30.1693 29.3206 28.2113 31.5742 27.5697Z" fill="white"/>
<path d="M33.2053 27.4551C33.3772 27.6555 33.591 28.0226 33.7964 28.5885C34.1553 29.5774 34.4131 30.9659 34.469 32.5621H31.8882C31.9441 30.9659 32.2019 29.5774 32.5607 28.5885C32.7661 28.0226 32.9799 27.6555 33.1519 27.4551C33.1608 27.4447 33.1705 27.4359 33.1786 27.427C33.1867 27.4359 33.1963 27.4447 33.2053 27.4551Z" fill="white"/>
<path d="M34.7817 27.5697C37.0359 28.2109 38.7359 30.1689 39 32.5621H35.7695C35.7033 30.5375 35.3308 28.7568 34.7817 27.5697Z" fill="white"/>
<defs>
<linearGradient id="paint0_linear_4001_897" x1="11.9659" y1="0.904348" x2="28.0987" y2="56.9704" gradientUnits="userSpaceOnUse">
<stop stop-color="#346AFF"/>
<stop offset="1" stop-color="#97B3FF"/>
</linearGradient>
</defs>
</svg>
