<svg width="52" height="52" viewBox="0 0 52 52" fill="none" xmlns="http://www.w3.org/2000/svg">
<rect width="52" height="52" rx="16" fill="url(#paint0_linear_4001_966)"/>
<rect x="0.5" y="0.5" width="51" height="51" rx="15.5" stroke="black" stroke-opacity="0.08"/>
<path d="M26 22.8573C26.4734 22.8573 26.8571 23.241 26.8571 23.7144V26.2859H31.7143C33.45 26.2859 34.8571 27.693 34.8571 29.4287V30.5716L34.856 30.5727C35.8036 30.5771 36.3335 30.6071 36.7522 30.8205C37.1822 31.0396 37.532 31.3893 37.7511 31.8193C38.0002 32.3083 38 32.9488 38 34.2289V34.9142C38 36.1943 38.0002 36.8349 37.7511 37.3238C37.532 37.7538 37.1822 38.1036 36.7522 38.3227C36.2633 38.5718 35.6228 38.5716 34.3426 38.5716H33.6574C32.3772 38.5716 31.7367 38.5718 31.2478 38.3227C30.8178 38.1036 30.468 37.7538 30.2489 37.3238C29.9998 36.8349 30 36.1943 30 34.9142V34.2289C30 32.9488 29.9998 32.3083 30.2489 31.8193C30.468 31.3893 30.8178 31.0396 31.2478 30.8205C31.6664 30.6072 32.196 30.5771 33.1429 30.5727V29.4287C33.1429 28.6397 32.5033 28.0001 31.7143 28.0001H20.2857C19.4967 28.0001 18.8571 28.6397 18.8571 29.4287V30.5727C19.804 30.5771 20.3336 30.6072 20.7522 30.8205C21.1822 31.0396 21.532 31.3893 21.7511 31.8193C22.0002 32.3083 22 32.9488 22 34.2289V34.9142C22 36.1943 22.0002 36.8349 21.7511 37.3238C21.532 37.7538 21.1822 38.1036 20.7522 38.3227C20.2633 38.5718 19.6228 38.5716 18.3426 38.5716H17.6574C16.3772 38.5716 15.7367 38.5718 15.2478 38.3227C14.8178 38.1036 14.468 37.7538 14.2489 37.3238C13.9998 36.8349 14 36.1943 14 34.9142V34.2289C14 32.9488 13.9998 32.3083 14.2489 31.8193C14.468 31.3893 14.8178 31.0396 15.2478 30.8205C15.6664 30.6072 16.196 30.5771 17.1429 30.5727V29.4287C17.1429 27.693 18.55 26.2859 20.2857 26.2859H25.1429V23.7144C25.1429 23.241 25.5266 22.8573 26 22.8573Z" fill="white"/>
<path d="M26 13.4287C27.2624 13.4287 28.2857 14.4521 28.2857 15.7144C28.2857 16.201 28.1319 16.6507 27.8728 17.0213C29.4348 17.4967 30.5713 18.949 30.5714 20.6664C30.5714 21.0872 30.2299 21.4287 29.8092 21.4287H22.1908C21.7701 21.4287 21.4286 21.0872 21.4286 20.6664C21.4287 18.9494 22.5646 17.497 24.1261 17.0213C23.8672 16.6508 23.7143 16.2007 23.7143 15.7144C23.7143 14.4521 24.7376 13.4287 26 13.4287Z" fill="white"/>
<defs>
<linearGradient id="paint0_linear_4001_966" x1="11.9659" y1="0.904348" x2="28.0987" y2="56.9704" gradientUnits="userSpaceOnUse">
<stop stop-color="#4C9DAC"/>
<stop offset="1" stop-color="#B7EAF3"/>
</linearGradient>
</defs>
</svg>
