<svg width="100" height="30" viewBox="0 0 100 30" fill="none" xmlns="http://www.w3.org/2000/svg">
<path fill-rule="evenodd" clip-rule="evenodd" d="M67.0858 10.1166C67.9587 10.1166 68.6664 9.40666 68.6664 8.53094C68.6664 7.65522 67.9587 6.94531 67.0858 6.94531C66.2129 6.94531 65.5052 7.65522 65.5052 8.53094C65.5052 9.40666 66.2129 10.1166 67.0858 10.1166ZM61.1003 11.5918L57.9644 19.2392L54.8285 11.5918H51.9908L56.5811 22.7878H59.3477L63.938 11.5918H61.1003ZM96.5891 11.5918L94.4488 18.7605L92.3085 11.5918H91.9758H89.5694H89.2345L87.0942 18.7605L84.9539 11.5918H82.2149L85.5572 22.7878H88.6312L90.7715 15.6215L92.9118 22.7878H95.9857L99.3304 11.5918H96.5891ZM65.7735 11.5918H68.3978V22.7878H65.7735V11.5918ZM81.8314 17.1034C81.8314 17.4279 81.8038 17.7432 81.7534 18.0516H81.7511H73.1624C73.5615 19.3035 74.7292 20.2103 76.1101 20.2103C76.9635 20.2103 77.7389 19.8628 78.2986 19.3012L80.1545 21.163C79.1199 22.2009 77.6907 22.843 76.1101 22.843C72.949 22.843 70.3889 20.2747 70.3889 17.1034C70.3889 13.9322 72.949 11.3639 76.1101 11.3639C79.2713 11.3639 81.8314 13.9345 81.8314 17.1034ZM79.0166 16.0356C78.5831 14.8481 77.4475 13.9966 76.1124 13.9966C74.7773 13.9966 73.6418 14.8458 73.2082 16.0356H79.0166Z" fill="black"/>
<path d="M5.93262 11.1523C7.57269 11.1524 9.05441 11.8176 10.1279 12.8945L8.27246 14.7559C7.6738 14.1553 6.84549 13.7852 5.93262 13.7852C4.1066 13.7852 2.62402 15.2716 2.62402 17.1035C2.62406 18.9354 4.10662 20.4219 5.93262 20.4219C6.84777 20.4218 7.6738 20.0517 8.27246 19.4512L10.1279 21.3125C9.05441 22.3895 7.5704 23.0546 5.93262 23.0547C2.65681 23.0547 4.06647e-05 20.3898 0 17.1035C0 13.8172 2.65679 11.1523 5.93262 11.1523ZM26.1328 11.3643C29.2939 11.3643 31.8545 13.9346 31.8545 17.1035C31.8545 17.428 31.8268 17.7434 31.7764 18.0518H23.1855C23.5848 19.3035 24.752 20.2099 26.1328 20.21C26.9862 20.21 27.7616 19.8623 28.3213 19.3008L30.1777 21.1631C29.1431 22.201 27.7134 22.8428 26.1328 22.8428C22.9718 22.8427 20.4121 20.2747 20.4121 17.1035C20.4121 13.9323 22.9718 11.3644 26.1328 11.3643ZM42.249 7.11523H44.873V17.1055C44.873 20.2675 42.3033 22.8428 39.1514 22.8428C35.9996 22.8426 33.4326 20.2697 33.4326 17.1055C33.4327 13.9413 35.9974 11.3664 39.1514 11.3662C40.2914 11.3662 41.3537 11.7023 42.2461 12.2822V7.11328L42.249 7.11523ZM17.4111 11.5938H19.4043V14.2266H17.4111C15.7046 14.2266 14.3166 15.619 14.3164 17.3311V22.79H11.6924V17.3311C11.6925 14.167 14.2592 11.5921 17.4131 11.5918L17.4111 11.5938ZM50.1582 22.7881H47.5342V11.5918H50.1582V22.7881ZM39.1494 13.999C37.4427 13.999 36.0547 15.3913 36.0547 17.1035C36.0548 18.8157 37.4427 20.208 39.1494 20.208C40.8561 20.208 42.2441 18.8157 42.2441 17.1035C42.2441 15.3913 40.8561 13.999 39.1494 13.999ZM26.1357 13.9971C24.8008 13.9971 23.6652 14.8456 23.2314 16.0352H29.0391C28.6054 14.8481 27.4705 13.9973 26.1357 13.9971ZM48.8457 6.94531C49.7186 6.94531 50.4268 7.65553 50.4268 8.53125C50.4266 9.40683 49.7185 10.1162 48.8457 10.1162C47.9731 10.116 47.2658 9.4067 47.2656 8.53125C47.2656 7.65565 47.9729 6.94551 48.8457 6.94531Z" fill="#0046FF"/>
</svg>
