<?xml version="1.0" encoding="utf-8"?>
<!-- Generator: Adobe Illustrator 27.0.0, SVG Export Plug-In . SVG Version: 6.00 Build 0)  -->
<svg version="1.1" id="Layer_1" xmlns="http://www.w3.org/2000/svg" xmlns:xlink="http://www.w3.org/1999/xlink" x="0px" y="0px"
	 viewBox="0 0 113.95 18.43" style="enable-background:new 0 0 113.95 18.43;" xml:space="preserve">
<style type="text/css">
	.st0{fill:#FFFFFF;}
</style>
<g>
	<rect x="54.54" y="5.33" class="st0" width="3" height="12.74"/>
	<path class="st0" d="M20.16,5.33c-3.6,0-6.53,2.93-6.53,6.53l0,6.21h3l0-6.21c0-1.95,1.59-3.53,3.53-3.53h2.28v-3H20.16z"/>
	<path class="st0" d="M48.51,0.24v5.88c-1.02-0.66-2.23-1.04-3.53-1.04c-3.6,0-6.53,2.93-6.53,6.53s2.93,6.53,6.53,6.53
		s6.53-2.93,6.53-6.53V0.24H48.51z M44.97,15.14c-1.95,0-3.53-1.59-3.53-3.53s1.59-3.53,3.53-3.53c1.95,0,3.53,1.59,3.53,3.53
		S46.92,15.14,44.97,15.14z"/>
	<polygon class="st0" points="70.03,5.33 66.45,14.04 62.87,5.33 59.63,5.33 64.87,18.07 68.03,18.07 73.27,5.33 	"/>
	<polygon class="st0" points="110.54,5.33 108.1,13.49 105.65,5.33 105.27,5.33 102.53,5.33 102.15,5.33 99.7,13.49 97.26,5.33 
		94.13,5.33 97.95,18.07 101.46,18.07 103.9,9.92 106.34,18.07 109.85,18.07 113.67,5.33 	"/>
	<rect x="75.36" y="5.33" class="st0" width="3" height="12.74"/>
	<circle class="st0" cx="56.04" cy="1.85" r="1.8"/>
	<circle class="st0" cx="76.86" cy="1.85" r="1.8"/>
	<path class="st0" d="M36.56,12.68c0.06-0.35,0.09-0.71,0.09-1.08c0-3.61-2.92-6.53-6.53-6.53c-3.61,0-6.53,2.92-6.53,6.53
		c0,3.61,2.92,6.53,6.53,6.53c1.8,0,3.44-0.73,4.62-1.91l-2.12-2.12c-0.64,0.64-1.52,1.04-2.5,1.04c-1.58,0-2.91-1.03-3.36-2.46
		H36.56z M30.12,8.07c1.52,0,2.82,0.97,3.32,2.32H26.8C27.3,9.04,28.59,8.07,30.12,8.07z"/>
	<path class="st0" d="M93.61,12.68c0.06-0.35,0.09-0.71,0.09-1.08c0-3.61-2.92-6.53-6.53-6.53c-3.61,0-6.53,2.92-6.53,6.53
		c0,3.61,2.92,6.53,6.53,6.53c1.8,0,3.44-0.73,4.62-1.91l-2.12-2.12c-0.64,0.64-1.52,1.04-2.5,1.04c-1.58,0-2.91-1.03-3.36-2.46
		H93.61z M87.17,8.07c1.52,0,2.82,0.97,3.32,2.32h-6.63C84.35,9.04,85.64,8.07,87.17,8.07z"/>
	<path class="st0" d="M7.06,15.38c-2.09,0-3.78-1.69-3.78-3.78c0-2.09,1.69-3.78,3.78-3.78c1.04,0,1.99,0.42,2.67,1.11l2.12-2.12
		c-1.23-1.23-2.92-1.98-4.79-1.98c-3.74,0-6.77,3.03-6.77,6.77c0,3.74,3.03,6.77,6.77,6.77c1.87,0,3.56-0.76,4.79-1.98l-2.12-2.12
		C9.04,14.96,8.1,15.38,7.06,15.38z"/>
</g>
</svg>
