<svg width="187" height="16" viewBox="0 0 187 16" fill="none" xmlns="http://www.w3.org/2000/svg">
<g clip-path="url(#clip0_3377_19158)">
<path d="M49.4067 4.56128H46.8213V15.5546H49.4067V4.56128Z" fill="#0046FF"/>
<path d="M17.1536 4.56128C14.0461 4.56128 11.5186 7.08883 11.5186 10.1963V15.5546H14.1039V10.1963C14.1039 8.51439 15.4717 7.14666 17.1536 7.14666H19.1168V4.56128H17.1536Z" fill="#0046FF"/>
<path d="M41.6129 0.164307V5.23973C40.7328 4.67075 39.6871 4.33938 38.5632 4.33938C35.4558 4.33938 32.9282 6.86692 32.9282 9.97439C32.9282 13.0819 35.4558 15.6094 38.5632 15.6094C41.6707 15.6094 44.1983 13.0819 44.1983 9.97439V0.164307H41.6129ZM38.5632 13.0225C36.8813 13.0225 35.5136 11.6547 35.5136 9.97283C35.5136 8.29092 36.8813 6.9232 38.5632 6.9232C40.2451 6.9232 41.6129 8.29092 41.6129 9.97283C41.6129 11.6547 40.2451 13.0225 38.5632 13.0225Z" fill="#0046FF"/>
<path d="M60.1857 4.56128L57.097 12.072L54.0068 4.56128H51.2119L55.734 15.5546H58.4585L62.9806 4.56128H60.1857Z" fill="black"/>
<path d="M95.1417 4.56128L93.033 11.6L90.9244 4.56128H90.5961H88.2265H87.8982L85.7896 11.6L83.6809 4.56128H80.9814L84.2749 15.5546H87.3027L89.4113 8.51908L91.5199 15.5546H94.5477L97.8412 4.56128H95.1417Z" fill="black"/>
<path d="M67.373 4.56128H64.7876V15.5546H67.373V4.56128Z" fill="black"/>
<path d="M48.114 3.11372C48.9738 3.11372 49.6708 2.41669 49.6708 1.55686C49.6708 0.697029 48.9738 0 48.114 0C47.2542 0 46.5571 0.697029 46.5571 1.55686C46.5571 2.41669 47.2542 3.11372 48.114 3.11372Z" fill="#0046FF"/>
<path d="M66.0783 3.11372C66.9382 3.11372 67.6352 2.41669 67.6352 1.55686C67.6352 0.697029 66.9382 0 66.0783 0C65.2185 0 64.5215 0.697029 64.5215 1.55686C64.5215 2.41669 65.2185 3.11372 66.0783 3.11372Z" fill="black"/>
<path d="M31.3012 10.9044C31.3513 10.6012 31.3794 10.2917 31.3794 9.97437C31.3794 6.86222 28.8565 4.33936 25.7444 4.33936C22.6322 4.33936 20.1094 6.86222 20.1094 9.97437C20.1094 13.0865 22.6322 15.6094 25.7444 15.6094C27.2997 15.6094 28.7096 14.9794 29.7288 13.9587L27.9015 12.1315C27.3497 12.6832 26.5869 13.024 25.746 13.024C24.386 13.024 23.2356 12.1346 22.8417 10.9044H31.3012ZM25.7444 6.92474C27.0605 6.92474 28.1782 7.75944 28.6049 8.92708H22.8823C23.3091 7.75944 24.4283 6.92474 25.7428 6.92474H25.7444Z" fill="#0046FF"/>
<path d="M80.5298 10.9044C80.5798 10.6012 80.6079 10.2917 80.6079 9.97437C80.6079 6.86222 78.0851 4.33936 74.9729 4.33936C71.8608 4.33936 69.3379 6.86222 69.3379 9.97437C69.3379 13.0865 71.8608 15.6094 74.9729 15.6094C76.5282 15.6094 77.9381 14.9794 78.9573 13.9587L77.13 12.1315C76.5782 12.6832 75.8154 13.024 74.9745 13.024C73.6146 13.024 72.4641 12.1346 72.0702 10.9044H80.5298ZM74.9729 6.92474C76.289 6.92474 77.4067 7.75944 77.8334 8.92708H72.1108C72.5376 7.75944 73.6568 6.92474 74.9713 6.92474H74.9729Z" fill="black"/>
<path d="M5.84291 13.2316C4.04377 13.2316 2.58382 11.7732 2.58382 9.97255C2.58382 8.17184 4.0422 6.71346 5.84291 6.71346C6.74326 6.71346 7.55764 7.07767 8.14693 7.66852L9.97421 5.84124C8.91598 4.78458 7.45604 4.12964 5.84291 4.12964C2.61665 4.12964 0 6.74629 0 9.97411C0 13.2019 2.61665 15.817 5.84291 15.817C7.45604 15.817 8.91755 15.1636 9.97421 14.1054L8.14693 12.2781C7.55764 12.8674 6.74326 13.2332 5.84291 13.2332V13.2316Z" fill="#0046FF"/>
<path d="M105.275 11.0824C109.901 8.33133 110.193 7.54821 110.193 5.27388V4.21409H105.537V2.53844H112.144V5.36611C112.144 8.47044 111.406 9.50053 106.304 12.6189L105.274 11.0824H105.275ZM116.678 15.5545H114.726V1.26294H116.678V15.5545Z" fill="black"/>
<path d="M118.921 5.28951V4.85966C118.921 3.2309 120.151 1.72406 122.579 1.72406C124.684 1.72406 125.899 2.87607 126.174 4.24379H128.556V1.26294H130.493V8.62363H128.556V5.85692H126.189C125.928 7.25591 124.714 8.42355 122.579 8.42355C120.151 8.42355 118.921 6.91827 118.921 5.28795V5.28951ZM120.765 4.90499V5.24262C120.765 5.99604 121.334 6.77916 122.579 6.77916C123.823 6.77916 124.392 5.99604 124.392 5.24262V4.90499C124.392 4.15157 123.823 3.36845 122.579 3.36845C121.334 3.36845 120.765 4.15157 120.765 4.90499ZM130.493 9.26919V15.5701H121.395V9.26919H123.316V10.8823H128.572V9.26919H130.493ZM128.572 13.9726V12.4814H123.316V13.9726H128.572Z" fill="black"/>
<path d="M140.128 9.40855V12.1127H145.707V13.7571H132.614V12.1127H138.193V9.40855H134.398V2.3855H143.925V9.40855H140.13H140.128ZM136.333 7.77979H141.988V4.01426H136.333V7.77979Z" fill="black"/>
<path d="M149.672 10.1148H150.687C152.147 10.1148 153.96 10.007 155.404 9.8069L155.62 11.4826C154.176 11.7139 152.102 11.8061 150.226 11.8061H147.706V2.40088H149.672V10.1148ZM158.631 15.5545H156.678V1.26294H158.631V15.5545Z" fill="black"/>
<path d="M161.366 2.36962H168.051V4.01401H163.302V6.3196H167.559V7.964H163.302V10.3915H164.362C165.822 10.3915 167.635 10.3305 169.08 10.1305L169.28 11.7592C167.851 11.989 165.775 12.0359 163.901 12.0359H161.366V2.36962ZM168.343 6.25708H170.694V1.26294H172.647V15.5545H170.694V7.9171H168.343V6.25708Z" fill="black"/>
<path d="M177.302 7.79518C179.453 7.79518 181.313 7.76392 183.25 7.57947L183.418 9.17697C181.59 9.37705 179.315 9.40674 175.396 9.40674V4.90342H180.037V3.56696H175.396V1.95383H181.943V6.45716H177.302V7.79361V7.79518ZM177.518 13.3724V12.7581C177.518 11.1449 179.315 10.1305 182.005 10.1305C184.695 10.1305 186.493 11.1449 186.493 12.7581V13.3724C186.493 14.9855 184.695 15.9999 182.005 15.9999C179.315 15.9999 177.518 14.9855 177.518 13.3724ZM179.407 12.8972V13.2348C179.407 13.8194 180.406 14.4181 182.004 14.4181C183.601 14.4181 184.602 13.8194 184.602 13.2348V12.8972C184.602 12.3282 183.603 11.7139 182.004 11.7139C180.405 11.7139 179.407 12.3282 179.407 12.8972ZM186.446 9.96165H184.509V1.26294H186.446V9.96009V9.96165Z" fill="black"/>
</g>
<defs>
<clipPath id="clip0_3377_19158">
<rect width="186.492" height="16" fill="white"/>
</clipPath>
</defs>
</svg>
