<svg width="82" height="15" viewBox="0 0 82 15" fill="none" xmlns="http://www.w3.org/2000/svg">
<path d="M0.00156464 9.81946C4.62681 7.06839 4.91911 6.28527 4.91911 4.01094V2.95115H0.262601V1.2755H6.86987V4.10317C6.86987 7.2075 6.13209 8.23759 1.03009 11.356L0 9.81946H0.00156464ZM11.4045 14.2915H9.45214V0H11.4045V14.2915Z" fill="black"/>
<path d="M13.647 4.02657V3.59672C13.647 1.96796 14.8771 0.461118 17.3047 0.461118C19.4102 0.461118 20.6247 1.61313 20.8998 2.98085H23.282V0H25.2187V7.36069H23.282V4.59398H20.9154C20.6544 5.99297 19.4399 7.16061 17.3047 7.16061C14.8771 7.16061 13.647 5.65533 13.647 4.02501V4.02657ZM15.4914 3.64205V3.97968C15.4914 4.7331 16.0604 5.51622 17.3047 5.51622C18.5489 5.51622 19.1179 4.7331 19.1179 3.97968V3.64205C19.1179 2.88863 18.5489 2.10551 17.3047 2.10551C16.0604 2.10551 15.4914 2.88863 15.4914 3.64205ZM25.2187 8.00625V14.3071H16.1214V8.00625H18.0424V9.61938H23.2976V8.00625H25.2187ZM23.2976 12.7097V11.2184H18.0424V12.7097H23.2976Z" fill="black"/>
<path d="M34.8542 8.14561V10.8498H40.4329V12.4942H27.3403V10.8498H32.9191V8.14561H29.1238V1.12256H38.651V8.14561H34.8558H34.8542ZM31.059 6.51685H36.7143V2.75132H31.059V6.51685Z" fill="black"/>
<path d="M44.3985 8.8519H45.413C46.8729 8.8519 48.6861 8.74404 50.1304 8.54396L50.3462 10.2196C48.9018 10.451 46.8276 10.5432 44.9519 10.5432H42.4321V1.13794H44.3985V8.8519ZM53.3567 14.2915H51.4044V0H53.3567V14.2915Z" fill="black"/>
<path d="M56.0918 1.10668H62.7772V2.75107H58.0285V5.05666H62.2848V6.70106H58.0285V9.12857H59.0883C60.5482 9.12857 62.3614 9.0676 63.8057 8.86753L64.0058 10.4963C62.5771 10.7261 60.5013 10.773 58.6272 10.773H56.0918V1.10668ZM63.0695 4.99414H65.4204V0H67.3728V14.2915H65.4204V6.65416H63.0695V4.99414Z" fill="black"/>
<path d="M72.028 6.53224C74.1788 6.53224 76.0389 6.50098 77.9756 6.31653L78.1445 7.91403C76.3156 8.11411 74.0413 8.14381 70.1226 8.14381V3.64048H74.7634V2.30402H70.1226V0.690895H76.6689V5.19422H72.028V6.53068V6.53224ZM72.2437 12.1094V11.4951C72.2437 9.88198 74.0413 8.86753 76.7314 8.86753C79.4215 8.86753 81.2191 9.88198 81.2191 11.4951V12.1094C81.2191 13.7225 79.4215 14.737 76.7314 14.737C74.0413 14.737 72.2437 13.7225 72.2437 12.1094ZM74.1335 11.6342V11.9719C74.1335 12.5565 75.1323 13.1551 76.7298 13.1551C78.3273 13.1551 79.3277 12.5565 79.3277 11.9719V11.6342C79.3277 11.0653 78.3289 10.451 76.7298 10.451C75.1308 10.451 74.1335 11.0653 74.1335 11.6342ZM81.1722 8.69871H79.2355V0H81.1722V8.69715V8.69871Z" fill="black"/>
</svg>
