<svg width="196" height="103" viewBox="0 0 196 103" fill="none" xmlns="http://www.w3.org/2000/svg">
<g filter="url(#filter0_d_1062_9815)">
<path d="M134.311 10.0215H41.3105C24.1897 10.0215 10.3105 23.9007 10.3105 41.0215C10.3105 58.1423 24.1897 72.0215 41.3105 72.0215H134.311C151.431 72.0215 165.311 58.1423 165.311 41.0215C165.311 23.9007 151.431 10.0215 134.311 10.0215Z" fill="#A6B5DD"/>
</g>
<path d="M70.4385 31.0449V48.8184H67.958V31.0449H70.4385ZM55.5752 43.7988C56.9326 43.7891 58.4854 43.7891 60.1064 43.75V42.2461C58.1631 41.8945 56.8936 40.6836 56.9033 39.0137C56.8936 37.0312 58.7002 35.6738 61.3174 35.6738C63.9541 35.6738 65.79 37.0312 65.79 39.0137C65.79 40.6738 64.5205 41.8848 62.5674 42.2461V43.6621C64.0615 43.5938 65.5557 43.4766 66.9814 43.291L67.1572 45.127C63.2607 45.8008 59.0713 45.8398 55.9072 45.8301L55.5752 43.7988ZM55.9268 34.9707V33.0176H60.1064V31.123H62.5869V33.0176H66.7275V34.9707H55.9268ZM59.2666 39.0137C59.2568 39.9512 60.1064 40.459 61.3174 40.459C62.5674 40.459 63.4072 39.9512 63.4072 39.0137C63.4072 38.0957 62.5674 37.5781 61.3174 37.5684C60.1064 37.5781 59.2568 38.0957 59.2666 39.0137ZM87.8408 31.0645V44.4824H85.3408V43.0762H81.9424V41.377H85.3408V31.0645H87.8408ZM72.7236 38.9355C75.9756 38.916 80.3701 38.8672 84.1299 38.4082L84.2666 40.1855C82.8604 40.4199 81.4053 40.5859 79.9697 40.6934V44.0723H77.4697V46.5137H88.2314V48.5059H74.9893V43.1934H77.4697V40.8398C75.8779 40.8984 74.3643 40.9082 73.0166 40.9082L72.7236 38.9355ZM74.0322 34.8535C74.0322 32.959 75.8584 31.6602 78.5049 31.6699C81.083 31.6602 82.9287 32.959 82.9385 34.8535C82.9287 36.7578 81.083 37.9883 78.5049 37.9785C75.8584 37.9883 74.0322 36.7578 74.0322 34.8535ZM76.3955 34.8535C76.3857 35.7129 77.2354 36.1914 78.5049 36.1816C79.6963 36.1914 80.5557 35.7129 80.5752 34.8535C80.5557 33.9746 79.6963 33.4863 78.5049 33.4863C77.2354 33.4863 76.3857 33.9746 76.3955 34.8535ZM104.091 31.0449V37.8613H106.61V39.9121H104.091V48.7793H101.591V31.0449H104.091ZM89.8721 43.7988C94.0811 41.6895 96.3467 38.8574 96.8154 34.8926H90.8877V32.8613H99.3447C99.3252 38.1738 97.2549 42.7734 91.2783 45.7129L89.8721 43.7988ZM122.235 31.0449V40.5957H119.735V31.0449H122.235ZM107.626 36.0059C107.626 33.5059 109.716 31.7676 112.489 31.7871C115.253 31.7676 117.343 33.5059 117.353 36.0059C117.343 38.4277 115.253 40.166 112.489 40.166C109.716 40.166 107.626 38.4277 107.626 36.0059ZM110.067 36.0059C110.048 37.3242 111.063 38.1152 112.489 38.1152C113.876 38.1152 114.882 37.3242 114.892 36.0059C114.882 34.668 113.876 33.8477 112.489 33.8574C111.063 33.8477 110.048 34.668 110.067 36.0059ZM110.341 48.623V41.377H112.802V43.0371H119.755V41.377H122.235V48.623H110.341ZM112.802 46.6113H119.755V44.9707H112.802V46.6113Z" fill="white"/>
<defs>
<filter id="filter0_d_1062_9815" x="0.310547" y="0.0214844" width="195" height="102" filterUnits="userSpaceOnUse" color-interpolation-filters="sRGB">
<feFlood flood-opacity="0" result="BackgroundImageFix"/>
<feColorMatrix in="SourceAlpha" type="matrix" values="0 0 0 0 0 0 0 0 0 0 0 0 0 0 0 0 0 0 127 0" result="hardAlpha"/>
<feOffset dx="10" dy="10"/>
<feGaussianBlur stdDeviation="10"/>
<feColorMatrix type="matrix" values="0 0 0 0 0.333333 0 0 0 0 0.482353 0 0 0 0 0.686275 0 0 0 0.161 0"/>
<feBlend mode="normal" in2="BackgroundImageFix" result="effect1_dropShadow_1062_9815"/>
<feBlend mode="normal" in="SourceGraphic" in2="effect1_dropShadow_1062_9815" result="shape"/>
</filter>
</defs>
</svg>
