<svg width="61" height="53" viewBox="0 0 61 53" fill="none" xmlns="http://www.w3.org/2000/svg">
<path d="M51.6405 50.2885H49.4815C48.852 50.2224 48.2734 49.9122 47.87 49.4245C47.4665 48.9367 47.2704 48.3102 47.3235 47.6795V22.6735H40.8455V47.6795C40.8987 48.3106 40.7022 48.9373 40.2984 49.4251C39.8945 49.9129 39.3154 50.2229 38.6855 50.2885H36.5265C35.8968 50.2227 35.318 49.9126 34.9144 49.4248C34.5107 48.937 34.3144 48.3104 34.3675 47.6795V22.6735H25.7355V47.6795C25.7887 48.3104 25.5924 48.937 25.1887 49.4248C24.7851 49.9126 24.2063 50.2227 23.5765 50.2885H21.4145C20.7846 50.2229 20.2054 49.913 19.8014 49.4252C19.3974 48.9374 19.2007 48.3107 19.2535 47.6795V22.6735H12.7775V47.6795C12.8307 48.3104 12.6344 48.937 12.2307 49.4248C11.8271 49.9126 11.2483 50.2227 10.6185 50.2885H8.45954C7.82982 50.2227 7.25101 49.9126 6.84736 49.4248C6.4437 48.937 6.24738 48.3104 6.30054 47.6795V22.6735H6.23554C6.23304 19.6981 6.81725 16.7514 7.95473 14.002C9.09222 11.2526 10.7607 8.75447 12.8646 6.65054C14.9685 4.54661 17.4666 2.87817 20.216 1.74068C22.9654 0.603199 25.9121 0.0189935 28.8875 0.0214924H30.9475C36.5209 0.0215395 41.8986 2.07598 46.0523 5.79193C50.2061 9.50788 52.8443 14.6246 53.4625 20.1635C53.6869 20.5959 53.8029 21.0763 53.8005 21.5635V47.6795C53.8537 48.3106 53.6572 48.9373 53.2534 49.4251C52.8495 49.9129 52.2704 50.2229 51.6405 50.2885ZM30.0495 6.42149C28.9231 6.40437 27.8358 6.8347 27.0261 7.61811C26.2164 8.40152 25.7505 9.47405 25.7305 10.6005C25.7647 11.7232 26.2347 12.7885 27.041 13.5706C27.8472 14.3526 28.9263 14.79 30.0495 14.79C31.1728 14.79 32.2519 14.3526 33.0581 13.5706C33.8644 12.7885 34.3344 11.7232 34.3685 10.6005C34.3485 9.47405 33.8826 8.40152 33.073 7.61811C32.2633 6.8347 31.176 6.40437 30.0495 6.42149Z" fill="white"/>
<path d="M57.4255 19.0985H3.19555C1.60221 19.0985 0.310547 20.3901 0.310547 21.9835V21.9845C0.310547 23.5778 1.60221 24.8695 3.19555 24.8695H57.4255C59.0189 24.8695 60.3105 23.5778 60.3105 21.9845V21.9835C60.3105 20.3901 59.0189 19.0985 57.4255 19.0985Z" fill="white"/>
<path d="M4.92755 46.2505H55.6935C56.9181 46.2505 58.0924 46.7369 58.9583 47.6028C59.8241 48.4686 60.3105 49.643 60.3105 50.8675C60.3105 51.1735 60.189 51.4671 59.9725 51.6835C59.7561 51.8999 59.4626 52.0215 59.1565 52.0215H1.46455C1.15849 52.0215 0.864963 51.8999 0.648546 51.6835C0.432129 51.4671 0.310547 51.1735 0.310547 50.8675C0.310547 49.643 0.796979 48.4686 1.66283 47.6028C2.52869 46.7369 3.70304 46.2505 4.92755 46.2505Z" fill="white"/>
</svg>
