<svg width="37" height="27" viewBox="0 0 37 27" fill="none" xmlns="http://www.w3.org/2000/svg">
<path d="M25.9066 26.019C25.2437 26.0491 24.5913 25.8452 24.0635 25.443C23.6355 25.1047 23.3024 24.6613 23.0966 24.156C22.9176 23.679 18.3605 7.00402 18.3135 6.83502C18.3135 6.87402 18.0506 7.79403 17.6666 9.18503C16.3556 13.912 13.6295 23.749 13.4875 24.122C13.28 24.6372 12.944 25.0906 12.5115 25.439C11.9851 25.8437 11.333 26.0501 10.6696 26.022C10.1361 26.0407 9.60684 25.9219 9.13257 25.677C8.72741 25.4401 8.39101 25.1016 8.15656 24.695C7.88748 24.224 7.68141 23.7197 7.54358 23.195C7.36858 22.542 7.23658 22.038 7.12158 21.575L5.27856 14.19H2.41058C1.81995 14.1944 1.25173 13.964 0.830994 13.5494C0.410256 13.1349 0.171429 12.5702 0.167053 11.9795C0.162677 11.3889 0.393129 10.8207 0.807678 10.4C1.22223 9.97922 1.78693 9.7404 2.37756 9.73602H4.16956L2.96954 4.89102C2.76009 4.17018 2.63426 3.42763 2.59454 2.67802C2.58984 2.37475 2.64885 2.07386 2.7677 1.79481C2.88656 1.51576 3.06261 1.26477 3.28455 1.05803C3.50607 0.841639 3.76864 0.671774 4.05682 0.558425C4.34501 0.445076 4.653 0.390532 4.96259 0.398024C5.32152 0.355853 5.68504 0.416116 6.01117 0.571837C6.3373 0.727559 6.61268 0.972388 6.80554 1.27803C7.19628 2.08561 7.47582 2.9424 7.63654 3.82503L8.96857 9.73503H9.05853C9.03953 9.80003 9.02358 9.86503 9.00958 9.92503L10.8936 18.294L14.5386 4.75803C14.7377 3.95629 14.9817 3.16638 15.2695 2.39203C15.4924 1.84063 15.8545 1.35651 16.3206 0.987029C16.8943 0.566407 17.5962 0.357886 18.3066 0.397033C19.0195 0.352426 19.7239 0.571685 20.2856 1.01303C20.717 1.37266 21.0518 1.83428 21.2596 2.35603C21.4426 2.84703 21.6886 3.65603 21.9916 4.75603L25.6755 18.294C25.6755 18.257 25.8906 17.336 26.2056 15.94C27.2056 11.54 29.2785 2.37603 29.3835 2.05003C29.5302 1.61069 29.781 1.21336 30.1146 0.892028C30.3186 0.712432 30.5562 0.57513 30.8137 0.488097C31.0712 0.401065 31.3434 0.36603 31.6146 0.385024C31.9222 0.378674 32.228 0.433081 32.5146 0.545134C32.8012 0.657188 33.0628 0.824685 33.2845 1.03802C33.5079 1.24329 33.6852 1.4937 33.8045 1.77264C33.9238 2.05159 33.9824 2.35269 33.9766 2.65602C33.9766 3.01502 32.9886 7.23703 32.3986 9.72203H34.5845C35.1752 9.71779 35.7433 9.94835 36.1639 10.363C36.5846 10.7776 36.8233 11.3424 36.8276 11.933C36.8318 12.5237 36.6012 13.0918 36.1866 13.5124C35.7719 13.9331 35.2072 14.1718 34.6166 14.176H31.2975L31.2535 14.347C29.7055 20.475 28.8676 23.732 28.7606 24.028C28.5681 24.5611 28.2412 25.0354 27.8116 25.405C27.2727 25.8374 26.5922 26.0538 25.9025 26.012L25.9066 26.019Z" fill="#ffffff"/>
</svg>
