<svg width="45" height="59" viewBox="0 0 45 59" fill="none" xmlns="http://www.w3.org/2000/svg">
<path d="M16.9316 58.0205H4.30859C3.24773 58.0205 2.23031 57.5991 1.48017 56.8489C0.730021 56.0988 0.308594 55.0814 0.308594 54.0205V4.02051C0.308594 2.95964 0.730021 1.94223 1.48017 1.19208C2.23031 0.441935 3.24773 0.0205078 4.30859 0.0205078L40.3086 0.0205078C41.3695 0.0205078 42.3869 0.441935 43.137 1.19208C43.8872 1.94223 44.3086 2.95964 44.3086 4.02051V54.0205C44.3086 55.0814 43.8872 56.0988 43.137 56.8489C42.3869 57.5991 41.3695 58.0205 40.3086 58.0205H27.6876V45.0205H16.9316V58.0205ZM11.0656 28.0205V32.0205H33.5536V28.0205H11.0656ZM11.0656 20.0205V24.0205H33.5536V20.0205H11.0656ZM11.0656 12.0205V16.0205H33.5536V12.0205H11.0656Z" fill="white"/>
</svg>
