<svg width="47" height="50" viewBox="0 0 47 50" fill="none" xmlns="http://www.w3.org/2000/svg">
<g opacity="0.297">
<path d="M34.4075 49.037V15.337C34.4075 14.5413 34.7236 13.7783 35.2862 13.2157C35.8488 12.6531 36.6119 12.337 37.4075 12.337H43.0865C43.8822 12.337 44.6452 12.6531 45.2079 13.2157C45.7705 13.7783 46.0865 14.5413 46.0865 15.337V49.037H34.4075ZM17.3385 49.037V24.323C17.3385 23.5273 17.6546 22.7643 18.2172 22.2017C18.7798 21.6391 19.5429 21.323 20.3385 21.323H26.0175C26.8132 21.323 27.5762 21.6391 28.1389 22.2017C28.7015 22.7643 29.0175 23.5273 29.0175 24.323V49.037H17.3385ZM0.269531 49.037V33.306C0.269531 32.5103 0.585602 31.7473 1.14821 31.1847C1.71082 30.6221 2.47388 30.306 3.26953 30.306H8.94853C9.74418 30.306 10.5072 30.6221 11.0699 31.1847C11.6325 31.7473 11.9485 32.5103 11.9485 33.306V49.037H0.269531ZM18.9385 13.943C18.8558 13.7849 18.8256 13.6044 18.8525 13.428L19.5105 9.78599C19.533 9.65678 19.5228 9.52398 19.4807 9.39977C19.4386 9.27555 19.366 9.16388 19.2695 9.07499L16.6025 6.48799C16.45 6.34095 16.362 6.13939 16.3578 5.92754C16.3537 5.71569 16.4338 5.51086 16.5805 5.35799L16.6025 5.33599C16.7295 5.20747 16.8962 5.1257 17.0755 5.10399L20.7625 4.56499C20.8936 4.54637 21.0182 4.49637 21.1258 4.41924C21.2334 4.34211 21.3208 4.24014 21.3805 4.12199L22.9635 0.81799C23.0322 0.678903 23.1391 0.56235 23.2719 0.482084C23.4046 0.401818 23.5575 0.361189 23.7125 0.36499H23.8125C23.9481 0.381345 24.0774 0.431241 24.1888 0.510164C24.3002 0.589086 24.3902 0.694544 24.4505 0.81699L26.0915 4.11699C26.1514 4.23495 26.2388 4.33673 26.3464 4.41368C26.454 4.49063 26.5786 4.54048 26.7095 4.55899L30.3955 5.09499C30.6115 5.12498 30.8067 5.23933 30.9385 5.41299C31.003 5.49767 31.0499 5.59435 31.0765 5.69737C31.1031 5.8004 31.1089 5.9077 31.0935 6.01299C31.0676 6.19004 30.9843 6.35372 30.8565 6.47899L28.1845 9.06499C28.0886 9.15392 28.0166 9.26557 27.9752 9.38966C27.9337 9.51375 27.9242 9.64626 27.9475 9.77499L28.6055 13.416C28.6395 13.6272 28.5898 13.8434 28.4669 14.0185C28.344 14.1937 28.1577 14.314 27.9475 14.354C27.7677 14.3819 27.5837 14.3526 27.4215 14.27L24.1335 12.565C24.0131 12.5042 23.88 12.4725 23.745 12.4725C23.6101 12.4725 23.477 12.5042 23.3565 12.565L20.0695 14.274C19.8755 14.3772 19.6488 14.4005 19.4379 14.3388C19.2269 14.2772 19.0484 14.1355 18.9405 13.944L18.9385 13.943Z" fill="#0046FF"/>
</g>
</svg>
