<svg width="248" height="137" viewBox="0 0 248 137" fill="none" xmlns="http://www.w3.org/2000/svg">
<line x1="0.5" y1="0.5" x2="247.5" y2="0.5" stroke="#E8E8EB" stroke-linecap="round"/>
<line x1="0.5" y1="38.5" x2="247.5" y2="38.5" stroke="#E8E8EB" stroke-linecap="round"/>
<line x1="0.5" y1="76.5" x2="247.5" y2="76.5" stroke="#E8E8EB" stroke-linecap="round"/>
<line x1="0.5" y1="114.5" x2="247.5" y2="114.5" stroke="#D4D4D9" stroke-linecap="round"/>
<path d="M19.629 131V129.906L23.0606 126.447C24.1407 125.312 24.6876 124.684 24.6876 123.822C24.6876 122.852 23.8946 122.223 22.8555 122.223C21.7618 122.223 21.0508 122.92 21.0508 123.973H19.629C19.6153 122.168 20.9961 120.965 22.8829 120.965C24.7969 120.965 26.1094 122.168 26.1231 123.781C26.1094 124.889 25.5899 125.764 23.7305 127.596L21.7208 129.633V129.715H26.2872V131H19.629ZM31.2604 131.137C28.9636 131.137 27.6237 129.291 27.6237 126.051C27.6237 122.838 28.9909 120.965 31.2604 120.965C33.53 120.965 34.8972 122.838 34.8972 126.051C34.8972 129.291 33.5436 131.137 31.2604 131.137ZM31.2604 129.838C32.6003 129.838 33.3933 128.525 33.3933 126.051C33.3933 123.59 32.5866 122.236 31.2604 122.236C29.9343 122.236 29.1276 123.59 29.1276 126.051C29.1276 128.525 29.9206 129.838 31.2604 129.838ZM36.3158 131V129.906L39.7474 126.447C40.8275 125.312 41.3743 124.684 41.3743 123.822C41.3743 122.852 40.5814 122.223 39.5423 122.223C38.4486 122.223 37.7376 122.92 37.7376 123.973H36.3158C36.3021 122.168 37.6829 120.965 39.5697 120.965C41.4837 120.965 42.7962 122.168 42.8099 123.781C42.7962 124.889 42.2767 125.764 40.4173 127.596L38.4076 129.633V129.715H42.974V131H36.3158ZM44.5019 131V129.906L47.9336 126.447C49.0136 125.312 49.5605 124.684 49.5605 123.822C49.5605 122.852 48.7676 122.223 47.7285 122.223C46.6347 122.223 45.9238 122.92 45.9238 123.973H44.5019C44.4883 122.168 45.8691 120.965 47.7558 120.965C49.6699 120.965 50.9824 122.168 50.9961 123.781C50.9824 124.889 50.4629 125.764 48.6035 127.596L46.5937 129.633V129.715H51.1601V131H44.5019ZM62.4772 119.926V128.977H61.1783V124.807H57.815V123.768H61.1783V122.482H57.815V121.443H61.1783V119.926H62.4772ZM62.7916 130.85V131.902H54.4928V128.184H55.8053V130.85H62.7916ZM54.274 120.773V126.133C55.901 126.133 57.4459 126.03 59.1959 125.709L59.3326 126.775C57.3912 127.145 55.7369 127.213 53.9322 127.227H52.9889V120.773H54.274Z" fill="#4F4F55"/>
<path d="M102.125 131V129.906L105.556 126.447C106.636 125.312 107.183 124.684 107.183 123.822C107.183 122.852 106.39 122.223 105.351 122.223C104.257 122.223 103.546 122.92 103.546 123.973H102.125C102.111 122.168 103.492 120.965 105.378 120.965C107.293 120.965 108.605 122.168 108.619 123.781C108.605 124.889 108.086 125.764 106.226 127.596L104.216 129.633V129.715H108.783V131H102.125ZM113.756 131.137C111.459 131.137 110.119 129.291 110.119 126.051C110.119 122.838 111.487 120.965 113.756 120.965C116.026 120.965 117.393 122.838 117.393 126.051C117.393 129.291 116.039 131.137 113.756 131.137ZM113.756 129.838C115.096 129.838 115.889 128.525 115.889 126.051C115.889 123.59 115.082 122.236 113.756 122.236C112.43 122.236 111.623 123.59 111.623 126.051C111.623 128.525 112.416 129.838 113.756 129.838ZM118.811 131V129.906L122.243 126.447C123.323 125.312 123.87 124.684 123.87 123.822C123.87 122.852 123.077 122.223 122.038 122.223C120.944 122.223 120.233 122.92 120.233 123.973H118.811C118.798 122.168 120.179 120.965 122.065 120.965C123.979 120.965 125.292 122.168 125.306 123.781C125.292 124.889 124.772 125.764 122.913 127.596L120.903 129.633V129.715H125.47V131H118.811ZM126.56 129.072V127.855L130.935 121.102H132.794V127.801H134.148V129.072H132.794V131H131.373V129.072H126.56ZM128.146 127.801H131.373V122.893H131.263L128.146 127.719V127.801ZM145.315 119.926V128.977H144.016V124.807H140.652V123.768H144.016V122.482H140.652V121.443H144.016V119.926H145.315ZM145.629 130.85V131.902H137.33V128.184H138.643V130.85H145.629ZM137.111 120.773V126.133C138.738 126.133 140.283 126.03 142.033 125.709L142.17 126.775C140.229 127.145 138.574 127.213 136.77 127.227H135.826V120.773H137.111Z" fill="#4F4F55"/>
<path d="M184.88 131V129.906L188.312 126.447C189.392 125.312 189.939 124.684 189.939 123.822C189.939 122.852 189.146 122.223 188.107 122.223C187.013 122.223 186.302 122.92 186.302 123.973H184.88C184.867 122.168 186.248 120.965 188.134 120.965C190.048 120.965 191.361 122.168 191.375 123.781C191.361 124.889 190.841 125.764 188.982 127.596L186.972 129.633V129.715H191.539V131H184.88ZM196.512 131.137C194.215 131.137 192.875 129.291 192.875 126.051C192.875 122.838 194.242 120.965 196.512 120.965C198.781 120.965 200.149 122.838 200.149 126.051C200.149 129.291 198.795 131.137 196.512 131.137ZM196.512 129.838C197.852 129.838 198.645 128.525 198.645 126.051C198.645 123.59 197.838 122.236 196.512 122.236C195.186 122.236 194.379 123.59 194.379 126.051C194.379 128.525 195.172 129.838 196.512 129.838ZM201.567 131V129.906L204.999 126.447C206.079 125.312 206.626 124.684 206.626 123.822C206.626 122.852 205.833 122.223 204.794 122.223C203.7 122.223 202.989 122.92 202.989 123.973H201.567C201.554 122.168 202.934 120.965 204.821 120.965C206.735 120.965 208.048 122.168 208.061 123.781C208.048 124.889 207.528 125.764 205.669 127.596L203.659 129.633V129.715H208.225V131H201.567ZM213.117 131.137C211.244 131.137 209.835 129.988 209.767 128.416H211.23C211.312 129.264 212.119 129.879 213.117 129.879C214.32 129.879 215.181 129.004 215.181 127.828C215.181 126.625 214.292 125.75 213.048 125.736C212.255 125.736 211.654 125.996 211.312 126.611H209.89L210.533 121.102H216.138V122.387H211.777L211.449 125.162H211.544C211.955 124.766 212.652 124.492 213.404 124.492C215.263 124.492 216.644 125.873 216.644 127.787C216.644 129.742 215.181 131.137 213.117 131.137ZM227.893 119.926V128.977H226.594V124.807H223.231V123.768H226.594V122.482H223.231V121.443H226.594V119.926H227.893ZM228.207 130.85V131.902H219.908V128.184H221.221V130.85H228.207ZM219.69 120.773V126.133C221.317 126.133 222.861 126.03 224.611 125.709L224.748 126.775C222.807 127.145 221.152 127.213 219.348 127.227H218.404V120.773H219.69Z" fill="#4F4F55"/>
<path d="M57 66C57 63.2386 54.7614 61 52 61L30 61C27.2386 61 25 63.2386 25 66L25 115L57 115L57 66Z" fill="#E8E8EB"/>
<path d="M30.1811 51V49.9062L33.6127 46.4473C34.6928 45.3125 35.2396 44.6836 35.2396 43.8223C35.2396 42.8516 34.4467 42.2227 33.4076 42.2227C32.3139 42.2227 31.6029 42.9199 31.6029 43.9727H30.1811C30.1674 42.168 31.5482 40.9648 33.435 40.9648C35.349 40.9648 36.6615 42.168 36.6752 43.7812C36.6615 44.8887 36.142 45.7637 34.2826 47.5957L32.2729 49.6328V49.7148H36.8393V51H30.1811ZM41.8809 51.1367C39.8301 51.1367 38.3672 50.0293 38.3125 48.416H39.8438C39.8985 49.291 40.7598 49.8379 41.8672 49.8379C43.0567 49.8379 43.9317 49.1816 43.9317 48.2246C43.9317 47.2539 43.1114 46.543 41.7032 46.543H40.8555V45.3125H41.7032C42.8243 45.3125 43.6172 44.6836 43.6172 43.7402C43.6172 42.8379 42.9473 42.2227 41.8946 42.2227C40.8965 42.2227 40.0215 42.7695 39.9805 43.6719H38.5313C38.5723 42.0586 40.0625 40.9648 41.9082 40.9648C43.8496 40.9648 45.0801 42.1953 45.0664 43.6582C45.0801 44.7793 44.3829 45.5996 43.3164 45.8594V45.9277C44.67 46.1191 45.4493 47.0215 45.4493 48.2793C45.4493 49.9336 43.9317 51.1367 41.8809 51.1367ZM50.7233 41.1016V51H49.2057V42.6055H49.1511L46.7858 44.1504V42.7148L49.2468 41.1016H50.7233Z" fill="#4F4F55"/>
<path d="M139.667 48C139.667 45.2386 137.428 43 134.667 43L112.666 43C109.905 43 107.667 45.2386 107.667 48L107.667 115L139.667 115L139.667 48Z" fill="#E8E8EB"/>
<path d="M116.163 33.1367C114.112 33.1367 112.649 32.0293 112.595 30.416H114.126C114.181 31.291 115.042 31.8379 116.149 31.8379C117.339 31.8379 118.214 31.1816 118.214 30.2246C118.214 29.2539 117.393 28.543 115.985 28.543H115.138V27.3125H115.985C117.106 27.3125 117.899 26.6836 117.899 25.7402C117.899 24.8379 117.229 24.2227 116.177 24.2227C115.179 24.2227 114.304 24.7695 114.263 25.6719H112.813C112.854 24.0586 114.345 22.9648 116.19 22.9648C118.132 22.9648 119.362 24.1953 119.349 25.6582C119.362 26.7793 118.665 27.5996 117.599 27.8594V27.9277C118.952 28.1191 119.731 29.0215 119.731 30.2793C119.731 31.9336 118.214 33.1367 116.163 33.1367ZM124.65 22.9648C126.468 22.9785 128.382 24.0723 128.382 27.6953C128.382 31.168 126.892 33.1367 124.513 33.1367C122.695 33.1367 121.41 32.0156 121.177 30.4023H122.668C122.873 31.2363 123.515 31.8242 124.513 31.8242C126.044 31.8242 126.933 30.4844 126.947 28.2285H126.824C126.291 29.0625 125.361 29.5684 124.294 29.5684C122.517 29.5684 121.095 28.2148 121.095 26.3145C121.095 24.4277 122.503 22.9512 124.65 22.9648ZM124.65 24.2227C123.447 24.2227 122.558 25.1523 122.558 26.2871C122.558 27.4355 123.419 28.3379 124.623 28.3379C125.812 28.3379 126.742 27.3672 126.742 26.2734C126.742 25.207 125.867 24.2227 124.65 24.2227ZM133.588 23.1016V33H132.07V24.6055H132.016L129.651 26.1504V24.7148L132.112 23.1016H133.588Z" fill="#4F4F55"/>
<path d="M222.333 32C222.333 29.2386 220.095 27 217.333 27L195.333 27C192.572 27 190.333 29.2386 190.333 32L190.333 115L222.334 115L222.333 32Z" fill="#3B5DFB"/>
<path d="M193.826 15.25V13.623L198.01 7.10156H200.594V13.5957H201.851V15.25H200.594V17H198.639V15.25H193.826ZM195.904 13.5957H198.666V9.35742H198.57L195.904 13.5137V13.5957ZM206.715 17.1367C204.542 17.1367 202.983 15.9336 202.942 14.2109H205.02C205.061 14.9492 205.772 15.4414 206.729 15.4414C207.713 15.4414 208.424 14.8809 208.411 14.0879C208.424 13.2812 207.7 12.707 206.538 12.707H205.622V11.1895H206.538C207.508 11.1895 208.192 10.6562 208.192 9.87695C208.192 9.125 207.618 8.60547 206.743 8.60547C205.868 8.60547 205.143 9.09766 205.116 9.84961H203.147C203.174 8.14062 204.719 6.96484 206.743 6.96484C208.807 6.96484 210.188 8.18164 210.174 9.75391C210.188 10.8613 209.409 11.6543 208.301 11.8457V11.9277C209.751 12.1055 210.557 12.9941 210.543 14.2246C210.557 15.9199 208.944 17.1367 206.715 17.1367ZM212.236 17L216.405 8.85156V8.7832H211.552V7.10156H218.538V8.81055L214.368 17H212.236Z" fill="#3B5DFB"/>
</svg>
