<svg width="468" height="137" viewBox="0 0 468 137" fill="none" xmlns="http://www.w3.org/2000/svg">
<line x1="0.5" y1="0.5" x2="467.5" y2="0.5" stroke="#E8E8EB" stroke-linecap="round"/>
<line x1="0.5" y1="38.5" x2="467.5" y2="38.5" stroke="#E8E8EB" stroke-linecap="round"/>
<line x1="0.5" y1="76.5" x2="467.5" y2="76.5" stroke="#E8E8EB" stroke-linecap="round"/>
<line x1="0.5" y1="114.5" x2="467.5" y2="114.5" stroke="#D4D4D9" stroke-linecap="round"/>
<path d="M56.2956 131V129.906L59.7273 126.447C60.8073 125.312 61.3542 124.684 61.3542 123.822C61.3542 122.852 60.5612 122.223 59.5222 122.223C58.4284 122.223 57.7175 122.92 57.7175 123.973H56.2956C56.282 122.168 57.6628 120.965 59.5495 120.965C61.4636 120.965 62.7761 122.168 62.7898 123.781C62.7761 124.889 62.2566 125.764 60.3972 127.596L58.3874 129.633V129.715H62.9538V131H56.2956ZM67.9271 131.137C65.6302 131.137 64.2904 129.291 64.2904 126.051C64.2904 122.838 65.6576 120.965 67.9271 120.965C70.1966 120.965 71.5638 122.838 71.5638 126.051C71.5638 129.291 70.2103 131.137 67.9271 131.137ZM67.9271 129.838C69.267 129.838 70.0599 128.525 70.0599 126.051C70.0599 123.59 69.2533 122.236 67.9271 122.236C66.6009 122.236 65.7943 123.59 65.7943 126.051C65.7943 128.525 66.5873 129.838 67.9271 129.838ZM72.9824 131V129.906L76.4141 126.447C77.4941 125.312 78.041 124.684 78.041 123.822C78.041 122.852 77.248 122.223 76.209 122.223C75.1152 122.223 74.4043 122.92 74.4043 123.973H72.9824C72.9688 122.168 74.3496 120.965 76.2363 120.965C78.1504 120.965 79.4629 122.168 79.4766 123.781C79.4629 124.889 78.9434 125.764 77.084 127.596L75.0742 129.633V129.715H79.6406V131H72.9824ZM81.1686 131V129.906L84.6002 126.447C85.6803 125.312 86.2272 124.684 86.2272 123.822C86.2272 122.852 85.4342 122.223 84.3952 122.223C83.3014 122.223 82.5905 122.92 82.5905 123.973H81.1686C81.1549 122.168 82.5358 120.965 84.4225 120.965C86.3366 120.965 87.6491 122.168 87.6627 123.781C87.6491 124.889 87.1295 125.764 85.2702 127.596L83.2604 129.633V129.715H87.8268V131H81.1686ZM99.1438 119.926V128.977H97.845V124.807H94.4817V123.768H97.845V122.482H94.4817V121.443H97.845V119.926H99.1438ZM99.4583 130.85V131.902H91.1595V128.184H92.472V130.85H99.4583ZM90.9407 120.773V126.133C92.5677 126.133 94.1126 126.03 95.8626 125.709L95.9993 126.775C94.0579 127.145 92.4036 127.213 90.5989 127.227H89.6555V120.773H90.9407Z" fill="#4F4F55"/>
<path d="M212.125 131V129.906L215.556 126.447C216.636 125.312 217.183 124.684 217.183 123.822C217.183 122.852 216.39 122.223 215.351 122.223C214.258 122.223 213.547 122.92 213.547 123.973H212.125C212.111 122.168 213.492 120.965 215.379 120.965C217.293 120.965 218.605 122.168 218.619 123.781C218.605 124.889 218.086 125.764 216.226 127.596L214.217 129.633V129.715H218.783V131H212.125ZM223.756 131.137C221.459 131.137 220.119 129.291 220.119 126.051C220.119 122.838 221.487 120.965 223.756 120.965C226.026 120.965 227.393 122.838 227.393 126.051C227.393 129.291 226.039 131.137 223.756 131.137ZM223.756 129.838C225.096 129.838 225.889 128.525 225.889 126.051C225.889 123.59 225.082 122.236 223.756 122.236C222.43 122.236 221.623 123.59 221.623 126.051C221.623 128.525 222.416 129.838 223.756 129.838ZM228.812 131V129.906L232.243 126.447C233.323 125.312 233.87 124.684 233.87 123.822C233.87 122.852 233.077 122.223 232.038 122.223C230.944 122.223 230.233 122.92 230.233 123.973H228.812C228.798 122.168 230.179 120.965 232.065 120.965C233.979 120.965 235.292 122.168 235.306 123.781C235.292 124.889 234.772 125.764 232.913 127.596L230.903 129.633V129.715H235.47V131H228.812ZM236.56 129.072V127.855L240.935 121.102H242.795V127.801H244.148V129.072H242.795V131H241.373V129.072H236.56ZM238.146 127.801H241.373V122.893H241.263L238.146 127.719V127.801ZM255.315 119.926V128.977H254.016V124.807H250.653V123.768H254.016V122.482H250.653V121.443H254.016V119.926H255.315ZM255.629 130.85V131.902H247.33V128.184H248.643V130.85H255.629ZM247.112 120.773V126.133C248.739 126.133 250.283 126.03 252.033 125.709L252.17 126.775C250.229 127.145 248.574 127.213 246.77 127.227H245.826V120.773H247.112Z" fill="#4F4F55"/>
<path d="M368.214 131V129.906L371.645 126.447C372.725 125.312 373.272 124.684 373.272 123.822C373.272 122.852 372.479 122.223 371.44 122.223C370.346 122.223 369.635 122.92 369.635 123.973H368.214C368.2 122.168 369.581 120.965 371.467 120.965C373.382 120.965 374.694 122.168 374.708 123.781C374.694 124.889 374.175 125.764 372.315 127.596L370.305 129.633V129.715H374.872V131H368.214ZM379.845 131.137C377.548 131.137 376.208 129.291 376.208 126.051C376.208 122.838 377.576 120.965 379.845 120.965C382.115 120.965 383.482 122.838 383.482 126.051C383.482 129.291 382.128 131.137 379.845 131.137ZM379.845 129.838C381.185 129.838 381.978 128.525 381.978 126.051C381.978 123.59 381.171 122.236 379.845 122.236C378.519 122.236 377.712 123.59 377.712 126.051C377.712 128.525 378.505 129.838 379.845 129.838ZM384.9 131V129.906L388.332 126.447C389.412 125.312 389.959 124.684 389.959 123.822C389.959 122.852 389.166 122.223 388.127 122.223C387.033 122.223 386.322 122.92 386.322 123.973H384.9C384.887 122.168 386.268 120.965 388.154 120.965C390.068 120.965 391.381 122.168 391.395 123.781C391.381 124.889 390.861 125.764 389.002 127.596L386.992 129.633V129.715H391.559V131H384.9ZM396.45 131.137C394.577 131.137 393.169 129.988 393.1 128.416H394.563C394.645 129.264 395.452 129.879 396.45 129.879C397.653 129.879 398.514 129.004 398.514 127.828C398.514 126.625 397.626 125.75 396.381 125.736C395.589 125.736 394.987 125.996 394.645 126.611H393.223L393.866 121.102H399.471V122.387H395.11L394.782 125.162H394.878C395.288 124.766 395.985 124.492 396.737 124.492C398.596 124.492 399.977 125.873 399.977 127.787C399.977 129.742 398.514 131.137 396.45 131.137ZM411.226 119.926V128.977H409.927V124.807H406.564V123.768H409.927V122.482H406.564V121.443H409.927V119.926H411.226ZM411.54 130.85V131.902H403.241V128.184H404.554V130.85H411.54ZM403.023 120.773V126.133C404.65 126.133 406.195 126.03 407.945 125.709L408.081 126.775C406.14 127.145 404.486 127.213 402.681 127.227H401.738V120.773H403.023Z" fill="#4F4F55"/>
<path d="M94 66C94 63.2386 91.7614 61 89 61L67 61C64.2386 61 62 63.2386 62 66L62 115L94 115L94 66Z" fill="#E8E8EB"/>
<path d="M67.1811 51V49.9062L70.6127 46.4473C71.6928 45.3125 72.2396 44.6836 72.2396 43.8223C72.2396 42.8516 71.4467 42.2227 70.4076 42.2227C69.3139 42.2227 68.6029 42.9199 68.6029 43.9727H67.1811C67.1674 42.168 68.5482 40.9648 70.435 40.9648C72.349 40.9648 73.6615 42.168 73.6752 43.7812C73.6615 44.8887 73.142 45.7637 71.2826 47.5957L69.2729 49.6328V49.7148H73.8393V51H67.1811ZM78.8809 51.1367C76.8301 51.1367 75.3672 50.0293 75.3125 48.416H76.8438C76.8985 49.291 77.7598 49.8379 78.8672 49.8379C80.0567 49.8379 80.9317 49.1816 80.9317 48.2246C80.9317 47.2539 80.1114 46.543 78.7032 46.543H77.8555V45.3125H78.7032C79.8243 45.3125 80.6172 44.6836 80.6172 43.7402C80.6172 42.8379 79.9473 42.2227 78.8946 42.2227C77.8965 42.2227 77.0215 42.7695 76.9805 43.6719H75.5313C75.5723 42.0586 77.0625 40.9648 78.9082 40.9648C80.8496 40.9648 82.0801 42.1953 82.0664 43.6582C82.0801 44.7793 81.3829 45.5996 80.3164 45.8594V45.9277C81.67 46.1191 82.4493 47.0215 82.4493 48.2793C82.4493 49.9336 80.9317 51.1367 78.8809 51.1367ZM87.7233 41.1016V51H86.2057V42.6055H86.1511L83.7858 44.1504V42.7148L86.2468 41.1016H87.7233Z" fill="#4F4F55"/>
<path d="M250 48C250 45.2386 247.761 43 245 43L223 43C220.239 43 218 45.2386 218 48L218 115L250 115L250 48Z" fill="#E8E8EB"/>
<path d="M226.496 33.1367C224.446 33.1367 222.983 32.0293 222.928 30.416H224.459C224.514 31.291 225.375 31.8379 226.483 31.8379C227.672 31.8379 228.547 31.1816 228.547 30.2246C228.547 29.2539 227.727 28.543 226.319 28.543H225.471V27.3125H226.319C227.44 27.3125 228.233 26.6836 228.233 25.7402C228.233 24.8379 227.563 24.2227 226.51 24.2227C225.512 24.2227 224.637 24.7695 224.596 25.6719H223.147C223.188 24.0586 224.678 22.9648 226.524 22.9648C228.465 22.9648 229.696 24.1953 229.682 25.6582C229.696 26.7793 228.998 27.5996 227.932 27.8594V27.9277C229.286 28.1191 230.065 29.0215 230.065 30.2793C230.065 31.9336 228.547 33.1367 226.496 33.1367ZM234.983 22.9648C236.802 22.9785 238.716 24.0723 238.716 27.6953C238.716 31.168 237.226 33.1367 234.847 33.1367C233.028 33.1367 231.743 32.0156 231.511 30.4023H233.001C233.206 31.2363 233.849 31.8242 234.847 31.8242C236.378 31.8242 237.267 30.4844 237.28 28.2285H237.157C236.624 29.0625 235.694 29.5684 234.628 29.5684C232.851 29.5684 231.429 28.2148 231.429 26.3145C231.429 24.4277 232.837 22.9512 234.983 22.9648ZM234.983 24.2227C233.78 24.2227 232.892 25.1523 232.892 26.2871C232.892 27.4355 233.753 28.3379 234.956 28.3379C236.146 28.3379 237.075 27.3672 237.075 26.2734C237.075 25.207 236.2 24.2227 234.983 24.2227ZM243.922 23.1016V33H242.404V24.6055H242.349L239.984 26.1504V24.7148L242.445 23.1016H243.922Z" fill="#4F4F55"/>
<path d="M406 32C406 29.2386 403.761 27 401 27L379 27C376.239 27 374 29.2386 374 32L374 115L406 115L406 32Z" fill="#3B5DFB"/>
<path d="M377.493 15.25V13.623L381.676 7.10156H384.26V13.5957H385.518V15.25H384.26V17H382.305V15.25H377.493ZM379.571 13.5957H382.332V9.35742H382.237L379.571 13.5137V13.5957ZM390.382 17.1367C388.208 17.1367 386.649 15.9336 386.608 14.2109H388.687C388.728 14.9492 389.439 15.4414 390.396 15.4414C391.38 15.4414 392.091 14.8809 392.077 14.0879C392.091 13.2812 391.366 12.707 390.204 12.707H389.288V11.1895H390.204C391.175 11.1895 391.858 10.6562 391.858 9.87695C391.858 9.125 391.284 8.60547 390.409 8.60547C389.534 8.60547 388.81 9.09766 388.782 9.84961H386.814C386.841 8.14062 388.386 6.96484 390.409 6.96484C392.474 6.96484 393.855 8.18164 393.841 9.75391C393.855 10.8613 393.075 11.6543 391.968 11.8457V11.9277C393.417 12.1055 394.224 12.9941 394.21 14.2246C394.224 15.9199 392.61 17.1367 390.382 17.1367ZM395.902 17L400.072 8.85156V8.7832H395.218V7.10156H402.205V8.81055L398.035 17H395.902Z" fill="#3B5DFB"/>
</svg>
