<svg width="468" height="137" viewBox="0 0 468 137" fill="none" xmlns="http://www.w3.org/2000/svg">
<line x1="0.5" y1="0.5" x2="467.5" y2="0.5" stroke="#E8E8EB" stroke-linecap="round"/>
<line x1="0.5" y1="38.5" x2="467.5" y2="38.5" stroke="#E8E8EB" stroke-linecap="round"/>
<line x1="0.5" y1="76.5" x2="467.5" y2="76.5" stroke="#E8E8EB" stroke-linecap="round"/>
<line x1="0.5" y1="114.5" x2="467.5" y2="114.5" stroke="#D4D4D9" stroke-linecap="round"/>
<path d="M78.2461 58L234.004 77" stroke="#3B5DFB" stroke-width="2"/>
<path d="M389.273 39L234.002 77" stroke="#3B5DFB" stroke-width="2"/>
<path d="M57.1228 131V129.906L60.5544 126.447C61.6345 125.312 62.1814 124.684 62.1814 123.822C62.1814 122.852 61.3884 122.223 60.3493 122.223C59.2556 122.223 58.5446 122.92 58.5446 123.973H57.1228C57.1091 122.168 58.49 120.965 60.3767 120.965C62.2907 120.965 63.6032 122.168 63.6169 123.781C63.6032 124.889 63.0837 125.764 61.2243 127.596L59.2146 129.633V129.715H63.781V131H57.1228ZM68.7543 131.137C66.4574 131.137 65.1175 129.291 65.1175 126.051C65.1175 122.838 66.4847 120.965 68.7543 120.965C71.0238 120.965 72.391 122.838 72.391 126.051C72.391 129.291 71.0375 131.137 68.7543 131.137ZM68.7543 129.838C70.0941 129.838 70.8871 128.525 70.8871 126.051C70.8871 123.59 70.0804 122.236 68.7543 122.236C67.4281 122.236 66.6214 123.59 66.6214 126.051C66.6214 128.525 67.4144 129.838 68.7543 129.838ZM77.5693 121.102V131H76.0518V122.605H75.9971L73.6318 124.15V122.715L76.0928 121.102H77.5693ZM83.3493 120.965C85.1676 120.979 87.0817 122.072 87.0817 125.695C87.0817 129.168 85.5914 131.137 83.2125 131.137C81.3942 131.137 80.109 130.016 79.8766 128.402H81.3668C81.5719 129.236 82.2145 129.824 83.2125 129.824C84.7438 129.824 85.6325 128.484 85.6461 126.229H85.5231C84.9899 127.062 84.0602 127.568 82.9938 127.568C81.2164 127.568 79.7946 126.215 79.7946 124.314C79.7946 122.428 81.2028 120.951 83.3493 120.965ZM83.3493 122.223C82.1461 122.223 81.2575 123.152 81.2575 124.287C81.2575 125.436 82.1188 126.338 83.3219 126.338C84.5114 126.338 85.4411 125.367 85.4411 124.273C85.4411 123.207 84.5661 122.223 83.3493 122.223ZM98.3167 119.926V128.977H97.0179V124.807H93.6546V123.768H97.0179V122.482H93.6546V121.443H97.0179V119.926H98.3167ZM98.6311 130.85V131.902H90.3323V128.184H91.6448V130.85H98.6311ZM90.1136 120.773V126.133C91.7405 126.133 93.2854 126.03 95.0354 125.709L95.1721 126.775C93.2307 127.145 91.5764 127.213 89.7718 127.227H88.8284V120.773H90.1136Z" fill="#4F4F55"/>
<path d="M212.296 131V129.906L215.727 126.447C216.807 125.312 217.354 124.684 217.354 123.822C217.354 122.852 216.561 122.223 215.522 122.223C214.428 122.223 213.717 122.92 213.717 123.973H212.296C212.282 122.168 213.663 120.965 215.55 120.965C217.464 120.965 218.776 122.168 218.79 123.781C218.776 124.889 218.257 125.764 216.397 127.596L214.387 129.633V129.715H218.954V131H212.296ZM223.927 131.137C221.63 131.137 220.29 129.291 220.29 126.051C220.29 122.838 221.658 120.965 223.927 120.965C226.197 120.965 227.564 122.838 227.564 126.051C227.564 129.291 226.21 131.137 223.927 131.137ZM223.927 129.838C225.267 129.838 226.06 128.525 226.06 126.051C226.06 123.59 225.253 122.236 223.927 122.236C222.601 122.236 221.794 123.59 221.794 126.051C221.794 128.525 222.587 129.838 223.927 129.838ZM228.982 131V129.906L232.414 126.447C233.494 125.312 234.041 124.684 234.041 123.822C234.041 122.852 233.248 122.223 232.209 122.223C231.115 122.223 230.404 122.92 230.404 123.973H228.982C228.969 122.168 230.35 120.965 232.236 120.965C234.15 120.965 235.463 122.168 235.477 123.781C235.463 124.889 234.943 125.764 233.084 127.596L231.074 129.633V129.715H235.641V131H228.982ZM237.169 131V129.906L240.6 126.447C241.68 125.312 242.227 124.684 242.227 123.822C242.227 122.852 241.434 122.223 240.395 122.223C239.301 122.223 238.59 122.92 238.59 123.973H237.169C237.155 122.168 238.536 120.965 240.423 120.965C242.337 120.965 243.649 122.168 243.663 123.781C243.649 124.889 243.13 125.764 241.27 127.596L239.26 129.633V129.715H243.827V131H237.169ZM255.144 119.926V128.977H253.845V124.807H250.482V123.768H253.845V122.482H250.482V121.443H253.845V119.926H255.144ZM255.458 130.85V131.902H247.159V128.184H248.472V130.85H255.458ZM246.941 120.773V126.133C248.568 126.133 250.113 126.03 251.863 125.709L251.999 126.775C250.058 127.145 248.404 127.213 246.599 127.227H245.656V120.773H246.941Z" fill="#4F4F55"/>
<path d="M368.214 131V129.906L371.645 126.447C372.725 125.312 373.272 124.684 373.272 123.822C373.272 122.852 372.479 122.223 371.44 122.223C370.346 122.223 369.635 122.92 369.635 123.973H368.214C368.2 122.168 369.581 120.965 371.467 120.965C373.382 120.965 374.694 122.168 374.708 123.781C374.694 124.889 374.175 125.764 372.315 127.596L370.305 129.633V129.715H374.872V131H368.214ZM379.845 131.137C377.548 131.137 376.208 129.291 376.208 126.051C376.208 122.838 377.576 120.965 379.845 120.965C382.115 120.965 383.482 122.838 383.482 126.051C383.482 129.291 382.128 131.137 379.845 131.137ZM379.845 129.838C381.185 129.838 381.978 128.525 381.978 126.051C381.978 123.59 381.171 122.236 379.845 122.236C378.519 122.236 377.712 123.59 377.712 126.051C377.712 128.525 378.505 129.838 379.845 129.838ZM384.9 131V129.906L388.332 126.447C389.412 125.312 389.959 124.684 389.959 123.822C389.959 122.852 389.166 122.223 388.127 122.223C387.033 122.223 386.322 122.92 386.322 123.973H384.9C384.887 122.168 386.268 120.965 388.154 120.965C390.068 120.965 391.381 122.168 391.395 123.781C391.381 124.889 390.861 125.764 389.002 127.596L386.992 129.633V129.715H391.559V131H384.9ZM396.45 131.137C394.577 131.137 393.169 129.988 393.1 128.416H394.563C394.645 129.264 395.452 129.879 396.45 129.879C397.653 129.879 398.514 129.004 398.514 127.828C398.514 126.625 397.626 125.75 396.381 125.736C395.589 125.736 394.987 125.996 394.645 126.611H393.223L393.866 121.102H399.471V122.387H395.11L394.782 125.162H394.878C395.288 124.766 395.985 124.492 396.737 124.492C398.596 124.492 399.977 125.873 399.977 127.787C399.977 129.742 398.514 131.137 396.45 131.137ZM411.226 119.926V128.977H409.927V124.807H406.564V123.768H409.927V122.482H406.564V121.443H409.927V119.926H411.226ZM411.54 130.85V131.902H403.241V128.184H404.554V130.85H411.54ZM403.023 120.773V126.133C404.65 126.133 406.195 126.03 407.945 125.709L408.081 126.775C406.14 127.145 404.486 127.213 402.681 127.227H401.738V120.773H403.023Z" fill="#4F4F55"/>
<circle cx="78" cy="58" r="4" fill="white" stroke="#3B5DFB" stroke-width="2"/>
<path d="M67.5792 47.1367C65.2823 47.1367 63.9425 45.291 63.9425 42.0508C63.9425 38.8379 65.3096 36.9648 67.5792 36.9648C69.8487 36.9648 71.2159 38.8379 71.2159 42.0508C71.2159 45.291 69.8624 47.1367 67.5792 47.1367ZM67.5792 45.8379C68.919 45.8379 69.712 44.5254 69.712 42.0508C69.712 39.5898 68.9053 38.2363 67.5792 38.2363C66.253 38.2363 65.4464 39.5898 65.4464 42.0508C65.4464 44.5254 66.2393 45.8379 67.5792 45.8379ZM73.236 47.0957C72.7028 47.0957 72.2517 46.6582 72.2653 46.125C72.2517 45.5918 72.7028 45.1543 73.236 45.1543C73.7556 45.1543 74.2067 45.5918 74.2067 46.125C74.2067 46.6582 73.7556 47.0957 73.236 47.0957ZM75.598 45.0723V43.8555L79.973 37.1016H81.8324V43.8008H83.1859V45.0723H81.8324V47H80.4105V45.0723H75.598ZM77.1839 43.8008H80.4105V38.8926H80.3011L77.1839 43.7188V43.8008ZM88.1455 47.1367C86.3135 47.123 84.3994 46.043 84.3994 42.3789C84.3994 38.9336 85.8896 36.9648 88.2685 36.9648C90.0869 36.9648 91.3584 38.0996 91.5908 39.6719H90.1006C89.9092 38.8652 89.2666 38.2773 88.2685 38.2773C86.7373 38.2773 85.8486 39.6172 85.8486 41.8457H85.958C86.4912 41.0117 87.4209 40.5059 88.501 40.5059C90.2646 40.5059 91.6865 41.8594 91.6865 43.7598C91.6865 45.6738 90.2783 47.1504 88.1455 47.1367ZM88.1318 45.8789C89.335 45.8789 90.2236 44.9492 90.2236 43.7871C90.2236 42.6523 89.3623 41.7363 88.1728 41.7363C86.956 41.7363 86.04 42.6934 86.0264 43.8008C86.04 44.8945 86.915 45.8789 88.1318 45.8789Z" fill="#4F4F55"/>
<circle cx="234" cy="76.5" r="4" fill="white" stroke="#3B5DFB" stroke-width="2"/>
<path d="M223.859 65.1367C221.563 65.1367 220.223 63.291 220.223 60.0508C220.223 56.8379 221.59 54.9648 223.859 54.9648C226.129 54.9648 227.496 56.8379 227.496 60.0508C227.496 63.291 226.143 65.1367 223.859 65.1367ZM223.859 63.8379C225.199 63.8379 225.992 62.5254 225.992 60.0508C225.992 57.5898 225.186 56.2363 223.859 56.2363C222.533 56.2363 221.727 57.5898 221.727 60.0508C221.727 62.5254 222.52 63.8379 223.859 63.8379ZM229.516 65.0957C228.983 65.0957 228.532 64.6582 228.546 64.125C228.532 63.5918 228.983 63.1543 229.516 63.1543C230.036 63.1543 230.487 63.5918 230.487 64.125C230.487 64.6582 230.036 65.0957 229.516 65.0957ZM232.097 65V63.9062L235.529 60.4473C236.609 59.3125 237.156 58.6836 237.156 57.8223C237.156 56.8516 236.363 56.2227 235.324 56.2227C234.23 56.2227 233.519 56.9199 233.519 57.9727H232.097C232.083 56.168 233.464 54.9648 235.351 54.9648C237.265 54.9648 238.577 56.168 238.591 57.7812C238.577 58.8887 238.058 59.7637 236.199 61.5957L234.189 63.6328V63.7148H238.755V65H232.097ZM243.865 65.1367C242.033 65.123 240.119 64.043 240.119 60.3789C240.119 56.9336 241.609 54.9648 243.988 54.9648C245.807 54.9648 247.078 56.0996 247.311 57.6719H245.82C245.629 56.8652 244.986 56.2773 243.988 56.2773C242.457 56.2773 241.568 57.6172 241.568 59.8457H241.678C242.211 59.0117 243.141 58.5059 244.221 58.5059C245.984 58.5059 247.406 59.8594 247.406 61.7598C247.406 63.6738 245.998 65.1504 243.865 65.1367ZM243.852 63.8789C245.055 63.8789 245.943 62.9492 245.943 61.7871C245.943 60.6523 245.082 59.7363 243.893 59.7363C242.676 59.7363 241.76 60.6934 241.746 61.8008C241.76 62.8945 242.635 63.8789 243.852 63.8789Z" fill="#4F4F55"/>
<circle cx="390" cy="38.5" r="4" fill="white" stroke="#3B5DFB" stroke-width="2"/>
<path d="M379.422 27.1367C376.947 27.1367 375.443 25.291 375.443 22.0508C375.443 18.8105 376.947 16.9648 379.422 16.9648C381.897 16.9648 383.4 18.8242 383.4 22.0508C383.4 25.3047 381.897 27.1367 379.422 27.1367ZM379.422 25.4414C380.57 25.4414 381.309 24.334 381.295 22.0508C381.295 19.7949 380.57 18.6465 379.422 18.6465C378.274 18.6465 377.549 19.7949 377.549 22.0508C377.535 24.334 378.274 25.4414 379.422 25.4414ZM385.475 27.123C384.833 27.123 384.313 26.6035 384.327 25.9746C384.313 25.3457 384.833 24.8398 385.475 24.8398C386.077 24.8398 386.61 25.3457 386.61 25.9746C386.61 26.6035 386.077 27.123 385.475 27.123ZM391.638 27.1367C389.574 27.1367 388.07 25.9199 388.029 24.2109H390.025C390.066 24.9902 390.777 25.5098 391.638 25.5098C392.663 25.5098 393.388 24.7852 393.388 23.7598C393.388 22.707 392.65 21.9824 391.611 21.9688C390.872 21.9688 390.353 22.2422 390.052 22.8027H388.193L388.726 17.1016H394.824V18.7832H390.421L390.148 21.2852H390.23C390.599 20.793 391.337 20.4512 392.212 20.4512C394.031 20.4512 395.384 21.8047 395.384 23.7051C395.384 25.7012 393.867 27.1367 391.638 27.1367ZM400.357 27.1367C398.102 27.1367 396.475 25.9473 396.475 24.334C396.475 23.0898 397.432 22.0781 398.662 21.8867V21.8184C397.596 21.6133 396.857 20.7109 396.857 19.6309C396.857 18.0859 398.334 16.9648 400.357 16.9648C402.381 16.9648 403.857 18.0859 403.871 19.6309C403.857 20.7246 403.105 21.6133 402.066 21.8184V21.8867C403.27 22.0781 404.24 23.0898 404.24 24.334C404.24 25.9473 402.613 27.1367 400.357 27.1367ZM400.357 25.5645C401.396 25.5645 402.094 24.9766 402.094 24.1289C402.094 23.2676 401.369 22.6387 400.357 22.6387C399.346 22.6387 398.607 23.2676 398.621 24.1289C398.607 24.9766 399.305 25.5645 400.357 25.5645ZM400.357 21.1895C401.232 21.1895 401.861 20.6289 401.861 19.8359C401.861 19.0703 401.246 18.5234 400.357 18.5234C399.469 18.5234 398.867 19.0566 398.867 19.8359C398.867 20.6289 399.482 21.1895 400.357 21.1895Z" fill="#3B5DFB"/>
</svg>
