<svg width="41" height="41" viewBox="0 0 41 41" fill="none" xmlns="http://www.w3.org/2000/svg">
<rect width="41" height="41" rx="12" fill="url(#paint0_linear_2060_56)"/>
<rect width="41" height="41" rx="12" fill="url(#paint1_linear_2060_56)"/>
<rect x="0.5" y="0.5" width="40" height="40" rx="11.5" stroke="black" stroke-opacity="0.08"/>
<path d="M16.5 11.5C12.634 11.5 9.5 14.634 9.5 18.5C9.5 22.366 12.634 25.5 16.5 25.5H17.5709C17.5242 25.1734 17.5 24.8395 17.5 24.5C17.5 24.1605 17.5242 23.8266 17.5709 23.5H16.5C13.7386 23.5 11.5 21.2614 11.5 18.5C11.5 15.7386 13.7386 13.5 16.5 13.5H24.5C27.2614 13.5 29.5 15.7386 29.5 18.5C29.5 18.8428 29.4655 19.1775 29.3998 19.5008C29.9853 20.0748 30.4704 20.7508 30.8264 21.5C31.2583 20.5907 31.5 19.5736 31.5 18.5C31.5 14.634 28.366 11.5 24.5 11.5H16.5ZM24.5 21.5C22.8431 21.5 21.5 22.8431 21.5 24.5C21.5 26.1569 22.8431 27.5 24.5 27.5C26.1569 27.5 27.5 26.1569 27.5 24.5C27.5 22.8431 26.1569 21.5 24.5 21.5ZM19.5 24.5C19.5 21.7386 21.7386 19.5 24.5 19.5C27.2614 19.5 29.5 21.7386 29.5 24.5C29.5 25.5191 29.1951 26.467 28.6716 27.2574L31.2071 29.7929L29.7929 31.2071L27.2574 28.6716C26.467 29.1951 25.5191 29.5 24.5 29.5C21.7386 29.5 19.5 27.2614 19.5 24.5Z" fill="white"/>
<defs>
<linearGradient id="paint0_linear_2060_56" x1="9.43466" y1="0.713043" x2="22.1547" y2="44.919" gradientUnits="userSpaceOnUse">
<stop stop-color="#348CFF"/>
<stop offset="1" stop-color="#97C4FF"/>
</linearGradient>
<linearGradient id="paint1_linear_2060_56" x1="9.43466" y1="0.713043" x2="22.1547" y2="44.919" gradientUnits="userSpaceOnUse">
<stop stop-color="#346AFF"/>
<stop offset="1" stop-color="#97B3FF"/>
</linearGradient>
</defs>
</svg>
