<svg width="52" height="52" viewBox="0 0 52 52" fill="none" xmlns="http://www.w3.org/2000/svg">
<rect width="52" height="52" rx="16" fill="url(#paint0_linear_2051_639)"/>
<rect x="0.5" y="0.5" width="51" height="51" rx="15.5" stroke="black" stroke-opacity="0.08"/>
<path d="M15.7288 14.5325L26 12.25L36.2711 14.5325C36.8431 14.6596 37.25 15.1668 37.25 15.7527V28.2361C37.25 30.7437 35.9967 33.0855 33.9102 34.4765L26 39.75L18.0898 34.4765C16.0033 33.0855 14.75 30.7437 14.75 28.2361V15.7527C14.75 15.1668 15.1569 14.6596 15.7288 14.5325ZM17.25 16.7554V28.2361C17.25 29.9079 18.0855 31.469 19.4765 32.3964L26 36.7454L32.5235 32.3964C33.9145 31.469 34.75 29.9079 34.75 28.2361V16.7554L26 14.811L17.25 16.7554ZM26 24.75C24.2741 24.75 22.875 23.3509 22.875 21.625C22.875 19.8991 24.2741 18.5 26 18.5C27.7259 18.5 29.125 19.8991 29.125 21.625C29.125 23.3509 27.7259 24.75 26 24.75ZM20.4093 31C20.7202 28.1875 23.1047 26 26 26C28.8954 26 31.2797 28.1875 31.5906 31H20.4093Z" fill="white"/>
<defs>
<linearGradient id="paint0_linear_2051_639" x1="11.9659" y1="0.904348" x2="28.0987" y2="56.9704" gradientUnits="userSpaceOnUse">
<stop stop-color="#6159FD"/>
<stop offset="1" stop-color="#B1ADFC"/>
</linearGradient>
</defs>
</svg>
