<svg width="56" height="56" viewBox="0 0 56 56" fill="none" xmlns="http://www.w3.org/2000/svg">
<rect width="56" height="56" rx="16" fill="url(#paint0_linear_3377_18498)"/>
<rect x="0.5" y="0.5" width="55" height="55" rx="15.5" stroke="black" stroke-opacity="0.08"/>
<path d="M38.8918 23.1601L38.5835 23.8672C38.358 24.3849 37.642 24.3849 37.4164 23.8672L37.1082 23.1601C36.5589 21.8993 35.5694 20.8955 34.3346 20.3464L33.385 19.924C32.8716 19.6957 32.8716 18.9485 33.385 18.7202L34.2815 18.3214C35.548 17.7581 36.5553 16.7172 37.0951 15.4135L37.4116 14.6494C37.6323 14.1169 38.3678 14.1169 38.5882 14.6494L38.9048 15.4135C39.4448 16.7172 40.452 17.7581 41.7185 18.3214L42.6149 18.7202C43.1284 18.9485 43.1284 19.6957 42.6149 19.924L41.6654 20.3464C40.4306 20.8955 39.4411 21.8993 38.8918 23.1601ZM15.5 18C15.5 17.3097 16.0597 16.75 16.75 16.75H30.5V19.25H18V36.75H38V26.75H40.5V38C40.5 38.6904 39.9404 39.25 39.25 39.25H16.75C16.0597 39.25 15.5 38.6904 15.5 38V18ZM21.75 29.25H24.25V34.25H21.75V29.25ZM26.75 21.75H29.25V34.25H26.75V21.75ZM31.75 25.5H34.25V34.25H31.75V25.5Z" fill="white"/>
<defs>
<linearGradient id="paint0_linear_3377_18498" x1="12.8864" y1="0.973913" x2="30.2601" y2="61.3527" gradientUnits="userSpaceOnUse">
<stop stop-color="#6159FD"/>
<stop offset="1" stop-color="#B1ADFC"/>
</linearGradient>
</defs>
</svg>
