<svg width="52" height="52" viewBox="0 0 52 52" fill="none" xmlns="http://www.w3.org/2000/svg">
<rect width="52" height="52" rx="16" fill="url(#paint0_linear_3377_18518)"/>
<rect x="0.5" y="0.5" width="51" height="51" rx="15.5" stroke="black" stroke-opacity="0.08"/>
<path d="M26 12.25L36.2711 14.5325C36.8431 14.6596 37.25 15.1668 37.25 15.7527V28.2361C37.25 30.7437 35.9967 33.0855 33.9102 34.4765L26 39.75L18.0898 34.4765C16.0033 33.0855 14.75 30.7437 14.75 28.2361V15.7527C14.75 15.1668 15.1569 14.6596 15.7288 14.5325L26 12.25ZM26 14.811L17.25 16.7554V28.2361C17.25 29.9079 18.0855 31.469 19.4765 32.3964L26 36.7454L32.5235 32.3964C33.9145 31.469 34.75 29.9079 34.75 28.2361V16.7554L26 14.811ZM26 19.75C27.3807 19.75 28.5 20.8693 28.5 22.25C28.5 23.1748 27.9979 23.9823 27.2514 24.4148L27.25 29.75H24.75L24.7499 24.4155C24.0027 23.9832 23.5 23.1753 23.5 22.25C23.5 20.8693 24.6193 19.75 26 19.75Z" fill="white"/>
<defs>
<linearGradient id="paint0_linear_3377_18518" x1="11.9659" y1="0.904348" x2="28.0987" y2="56.9704" gradientUnits="userSpaceOnUse">
<stop stop-color="#A059FD"/>
<stop offset="1" stop-color="#CAADFC"/>
</linearGradient>
</defs>
</svg>
