<svg width="57" height="56" viewBox="0 0 57 56" fill="none" xmlns="http://www.w3.org/2000/svg">
<rect x="10.5" y="9" width="36" height="40" rx="3" fill="url(#paint0_linear_1596_25136)"/>
<mask id="mask0_1596_25136" style="mask-type:alpha" maskUnits="userSpaceOnUse" x="10" y="9" width="37" height="40">
<rect x="10.5" y="9" width="36" height="40" rx="3" fill="url(#paint1_linear_1596_25136)"/>
</mask>
<g mask="url(#mask0_1596_25136)">
<path d="M10.4279 8.86348C9.52505 6.87718 10.9771 4.62207 13.159 4.62207H43.841C46.0229 4.62207 47.4749 6.87718 46.5721 8.86348L44.2994 13.8635C43.8125 14.9345 42.7447 15.6221 41.5683 15.6221H15.4317C14.2553 15.6221 13.1875 14.9345 12.7006 13.8635L10.4279 8.86348Z" fill="#B3CEFB"/>
<path d="M10.4279 49.6336C9.52505 51.6199 10.9771 53.875 13.159 53.875H43.841C46.0229 53.875 47.4749 51.6199 46.5721 49.6336L44.2994 44.6336C43.8125 43.5626 42.7447 42.875 41.5683 42.875H15.4317C14.2553 42.875 13.1875 43.5626 12.7006 44.6336L10.4279 49.6336Z" fill="#B3CEFB"/>
<path d="M29.25 15.3721V44.8721" stroke="#B3CEFB" stroke-opacity="0.5"/>
</g>
<g filter="url(#filter0_d_1596_25136)">
<circle cx="28.5" cy="15" r="10" fill="#4E7AD9"/>
</g>
<path fill-rule="evenodd" clip-rule="evenodd" d="M24.1963 14.2204C24.5772 14.6394 25.2257 14.6704 25.6447 14.2895L27.4733 12.6275L27.4733 19.3891C27.4733 19.9554 27.9324 20.4145 28.4987 20.4145C29.065 20.4145 29.5241 19.9554 29.5241 19.3891L29.5241 12.6249L31.3554 14.2894C31.7744 14.6703 32.4229 14.6394 32.8038 14.2203C33.1847 13.8013 33.1538 13.1528 32.7347 12.7719L29.1976 9.55691C28.9682 9.34358 28.6621 9.25375 28.3681 9.29165C28.1603 9.31851 27.9597 9.40884 27.798 9.56113L24.2654 12.7719C23.8463 13.1528 23.8154 13.8013 24.1963 14.2204Z" fill="white"/>
<defs>
<filter id="filter0_d_1596_25136" x="15.5" y="4" width="26" height="26" filterUnits="userSpaceOnUse" color-interpolation-filters="sRGB">
<feFlood flood-opacity="0" result="BackgroundImageFix"/>
<feColorMatrix in="SourceAlpha" type="matrix" values="0 0 0 0 0 0 0 0 0 0 0 0 0 0 0 0 0 0 127 0" result="hardAlpha"/>
<feOffset dy="2"/>
<feGaussianBlur stdDeviation="1.5"/>
<feComposite in2="hardAlpha" operator="out"/>
<feColorMatrix type="matrix" values="0 0 0 0 0.113725 0 0 0 0 0.313726 0 0 0 0 0.631373 0 0 0 0.25 0"/>
<feBlend mode="normal" in2="BackgroundImageFix" result="effect1_dropShadow_1596_25136"/>
<feBlend mode="normal" in="SourceGraphic" in2="effect1_dropShadow_1596_25136" result="shape"/>
</filter>
<linearGradient id="paint0_linear_1596_25136" x1="10.5" y1="9" x2="40.1875" y2="48.5916" gradientUnits="userSpaceOnUse">
<stop stop-color="#EEF4FF"/>
<stop offset="1" stop-color="#D7E5FF"/>
</linearGradient>
<linearGradient id="paint1_linear_1596_25136" x1="10.5" y1="9" x2="40.1875" y2="48.5916" gradientUnits="userSpaceOnUse">
<stop stop-color="#EEF4FF"/>
<stop offset="1" stop-color="#D7E5FF"/>
</linearGradient>
</defs>
</svg>
