<svg width="24" height="26" viewBox="0 0 24 26" fill="none" xmlns="http://www.w3.org/2000/svg">
<g opacity="0.995">
<path d="M8 4C8 1.79086 9.79086 0 12 0H20C22.2091 0 24 1.79086 24 4V22C24 24.2091 22.2091 26 20 26H12C9.79086 26 8 24.2091 8 22V4Z" fill="#BEC6FA"/>
<path d="M3.33096e-05 16.1999V24.159C-0.00142707 24.4001 0.0451465 24.6392 0.137077 24.8624C0.229007 25.0856 0.36448 25.2886 0.535708 25.4597C0.706937 25.6308 0.910543 25.7666 1.13482 25.8593C1.3591 25.952 1.59963 25.9998 1.84258 26C3.7365 25.9909 7.54248 25.975 15.1564 25.974C15.6466 25.9716 16.1158 25.7765 16.4613 25.4314C16.8068 25.0864 17.0005 24.6195 17 24.133V16.2509C17.0002 15.981 16.9409 15.7142 16.8262 15.4694C16.7115 15.2247 16.5442 15.0078 16.3361 14.834L9.1372 8.85495C8.85435 8.61818 8.49414 8.4921 8.12424 8.50038C7.75435 8.50867 7.40023 8.65076 7.12843 8.89995L0.604477 14.839C0.414191 15.0118 0.262195 15.2221 0.15814 15.4564C0.0540841 15.6907 0.000242556 15.9439 3.33096e-05 16.1999Z" fill="url(#paint0_linear_9616_10084)"/>
<g filter="url(#filter0_i_9616_10084)">
<path d="M6.5 20H10.5C10.7652 20 11.0196 20.1054 11.2071 20.2929C11.3946 20.4804 11.5 20.7348 11.5 21V26H5.5V21C5.5 20.7348 5.60536 20.4804 5.79289 20.2929C5.98043 20.1054 6.23478 20 6.5 20Z" fill="#5B68D3"/>
</g>
<rect x="5.5" y="16" width="6" height="2" rx="1" fill="white"/>
<path d="M17.499 11.004C17.3664 11.004 17.2393 10.9513 17.1455 10.8575C17.0517 10.7638 16.999 10.6366 16.999 10.504V9.50403C16.999 9.37142 17.0517 9.24428 17.1455 9.15051C17.2393 9.05674 17.3664 9.00403 17.499 9.00403H19.504C19.6366 9.00403 19.7638 9.05674 19.8575 9.15051C19.9513 9.24428 20.004 9.37142 20.004 9.50403V10.504C20.004 10.6366 19.9513 10.7638 19.8575 10.8575C19.7638 10.9513 19.6366 11.004 19.504 11.004H17.499ZM17.499 7.00403C17.3664 7.00403 17.2393 6.95131 17.1455 6.85754C17.0517 6.76378 16.999 6.63664 16.999 6.50403V5.50403C16.999 5.37142 17.0517 5.24428 17.1455 5.15051C17.2393 5.05674 17.3664 5.00403 17.499 5.00403H19.504C19.6366 5.00403 19.7638 5.05674 19.8575 5.15051C19.9513 5.24428 20.004 5.37142 20.004 5.50403V6.50403C20.004 6.63664 19.9513 6.76378 19.8575 6.85754C19.7638 6.95131 19.6366 7.00403 19.504 7.00403H17.499ZM12.499 7.00403C12.3664 7.00403 12.2393 6.95131 12.1455 6.85754C12.0517 6.76378 11.999 6.63664 11.999 6.50403V5.50403C11.999 5.37142 12.0517 5.24428 12.1455 5.15051C12.2393 5.05674 12.3664 5.00403 12.499 5.00403H14.499C14.6316 5.00403 14.7588 5.05674 14.8525 5.15051C14.9463 5.24428 14.999 5.37142 14.999 5.50403V6.50403C14.999 6.63664 14.9463 6.76378 14.8525 6.85754C14.7588 6.95131 14.6316 7.00403 14.499 7.00403H12.499Z" fill="white" fill-opacity="0.7"/>
</g>
<defs>
<filter id="filter0_i_9616_10084" x="5.5" y="20" width="6.2" height="6.2" filterUnits="userSpaceOnUse" color-interpolation-filters="sRGB">
<feFlood flood-opacity="0" result="BackgroundImageFix"/>
<feBlend mode="normal" in="SourceGraphic" in2="BackgroundImageFix" result="shape"/>
<feColorMatrix in="SourceAlpha" type="matrix" values="0 0 0 0 0 0 0 0 0 0 0 0 0 0 0 0 0 0 127 0" result="hardAlpha"/>
<feOffset dx="0.2" dy="0.2"/>
<feGaussianBlur stdDeviation="0.5"/>
<feComposite in2="hardAlpha" operator="arithmetic" k2="-1" k3="1"/>
<feColorMatrix type="matrix" values="0 0 0 0 0 0 0 0 0 0 0 0 0 0 0 0 0 0 0.16 0"/>
<feBlend mode="normal" in2="shape" result="effect1_innerShadow_9616_10084"/>
</filter>
<linearGradient id="paint0_linear_9616_10084" x1="3.63445" y1="11.4548" x2="11.6276" y2="30.3506" gradientUnits="userSpaceOnUse">
<stop stop-color="#B4BDFF"/>
<stop offset="1" stop-color="#576AF8"/>
</linearGradient>
</defs>
</svg>
