<svg width="40" height="41" viewBox="0 0 40 41" fill="none" xmlns="http://www.w3.org/2000/svg">
<rect x="7.14343" y="6.42859" width="25.7143" height="28.5714" rx="2.14286" fill="url(#paint0_linear_1_16919)"/>
<mask id="mask0_1_16919" style="mask-type:alpha" maskUnits="userSpaceOnUse" x="7" y="6" width="26" height="29">
<rect x="7.14374" y="6.42859" width="25.7143" height="28.5714" rx="2.14286" fill="url(#paint1_linear_1_16919)"/>
</mask>
<g mask="url(#mask0_1_16919)">
<path d="M7.09223 6.33121C6.44733 4.91243 7.48454 3.30164 9.04301 3.30164H30.9587C32.5172 3.30164 33.5544 4.91243 32.9095 6.33121L31.2861 9.90264C30.9384 10.6676 30.1756 11.1588 29.3353 11.1588H10.6664C9.82608 11.1588 9.06333 10.6676 8.71561 9.90264L7.09223 6.33121Z" fill="#B3CEFB"/>
<path d="M7.09223 35.4526C6.44733 36.8714 7.48454 38.4822 9.04301 38.4822H30.9587C32.5172 38.4822 33.5544 36.8714 32.9095 35.4526L31.2861 31.8812C30.9384 31.1162 30.1756 30.625 29.3353 30.625H10.6664C9.82608 30.625 9.06333 31.1162 8.71561 31.8812L7.09223 35.4526Z" fill="#B3CEFB"/>
<path d="M20.5366 10.9802V32.0517" stroke="#B3CEFB" stroke-opacity="0.5" stroke-width="0.714286"/>
</g>
<g filter="url(#filter0_d_1_16919)">
<circle cx="29.1428" cy="30.1429" r="7.14286" transform="rotate(90 29.1428 30.1429)" fill="#4E7AD9"/>
</g>
<path fill-rule="evenodd" clip-rule="evenodd" d="M29.6998 27.0687C29.4004 27.3408 29.3783 27.804 29.6504 28.1033L30.8376 29.4095L26.0078 29.4095C25.6033 29.4095 25.2754 29.7374 25.2754 30.1419C25.2754 30.5464 25.6033 30.8743 26.0078 30.8743L30.8394 30.8743L29.6504 32.1824C29.3784 32.4817 29.4005 32.9449 29.6998 33.217C29.9991 33.489 30.4623 33.4669 30.7344 33.1676L33.0308 30.6411C33.1832 30.4772 33.2474 30.2586 33.2203 30.0486C33.2011 29.9002 33.1366 29.7569 33.0278 29.6413L30.7344 27.1181C30.4623 26.8188 29.9991 26.7967 29.6998 27.0687Z" fill="white"/>
<defs>
<filter id="filter0_d_1_16919" x="19.8571" y="22.2857" width="18.5714" height="18.5715" filterUnits="userSpaceOnUse" color-interpolation-filters="sRGB">
<feFlood flood-opacity="0" result="BackgroundImageFix"/>
<feColorMatrix in="SourceAlpha" type="matrix" values="0 0 0 0 0 0 0 0 0 0 0 0 0 0 0 0 0 0 127 0" result="hardAlpha"/>
<feOffset dy="1.42857"/>
<feGaussianBlur stdDeviation="1.07143"/>
<feComposite in2="hardAlpha" operator="out"/>
<feColorMatrix type="matrix" values="0 0 0 0 0.113725 0 0 0 0 0.313726 0 0 0 0 0.631373 0 0 0 0.25 0"/>
<feBlend mode="normal" in2="BackgroundImageFix" result="effect1_dropShadow_1_16919"/>
<feBlend mode="normal" in="SourceGraphic" in2="effect1_dropShadow_1_16919" result="shape"/>
</filter>
<linearGradient id="paint0_linear_1_16919" x1="7.14343" y1="6.42859" x2="28.3488" y2="34.7083" gradientUnits="userSpaceOnUse">
<stop stop-color="#EEF4FF"/>
<stop offset="1" stop-color="#D7E5FF"/>
</linearGradient>
<linearGradient id="paint1_linear_1_16919" x1="7.14374" y1="6.42859" x2="28.3491" y2="34.7083" gradientUnits="userSpaceOnUse">
<stop stop-color="#EEF4FF"/>
<stop offset="1" stop-color="#D7E5FF"/>
</linearGradient>
</defs>
</svg>
