<svg width="59" height="62" viewBox="0 0 59 62" fill="none" xmlns="http://www.w3.org/2000/svg">
<g filter="url(#filter0_d_366_37541)">
<rect x="4" y="2" width="50.1453" height="54" rx="4" fill="#FDFDFD"/>
</g>
<mask id="path-2-outside-1_366_37541" maskUnits="userSpaceOnUse" x="10.332" y="8.78125" width="38" height="24" fill="black">
<rect fill="white" x="10.332" y="8.78125" width="38" height="24"/>
<path d="M44.143 30.5635C44.6787 30.6853 45.2156 30.3524 45.3082 29.8109C45.6662 27.716 45.6055 25.5692 45.1257 23.4914C44.5713 21.0907 43.4719 18.8443 41.9097 16.9204C40.3475 14.9966 38.363 13.445 36.1047 12.3819C33.8464 11.3188 31.3728 10.7716 28.869 10.7814C26.3652 10.7911 23.8961 11.3576 21.6465 12.4383C19.3968 13.519 17.4249 15.086 15.8783 17.022C14.3316 18.958 13.2504 21.2128 12.7154 23.6178C12.2524 25.6993 12.209 27.8466 12.584 29.9388C12.6809 30.4795 13.2203 30.808 13.755 30.682L19.422 29.3469C19.9624 29.2196 20.2894 28.6762 20.2227 28.1249C20.1074 27.1721 20.1543 26.2046 20.3639 25.2625C20.6466 23.9917 21.218 22.8001 22.0352 21.777C22.8525 20.754 23.8946 19.9259 25.0834 19.3548C26.2722 18.7838 27.577 18.4844 28.9001 18.4793C30.2232 18.4741 31.5303 18.7632 32.7237 19.325C33.9171 19.8868 34.9658 20.7067 35.7913 21.7234C36.6168 22.74 37.1978 23.9271 37.4907 25.1957C37.7079 26.1362 37.7626 27.1033 37.655 28.0571C37.5927 28.6088 37.9239 29.1495 38.4653 29.2726L44.143 30.5635Z"/>
</mask>
<path d="M44.143 30.5635C44.6787 30.6853 45.2156 30.3524 45.3082 29.8109C45.6662 27.716 45.6055 25.5692 45.1257 23.4914C44.5713 21.0907 43.4719 18.8443 41.9097 16.9204C40.3475 14.9966 38.363 13.445 36.1047 12.3819C33.8464 11.3188 31.3728 10.7716 28.869 10.7814C26.3652 10.7911 23.8961 11.3576 21.6465 12.4383C19.3968 13.519 17.4249 15.086 15.8783 17.022C14.3316 18.958 13.2504 21.2128 12.7154 23.6178C12.2524 25.6993 12.209 27.8466 12.584 29.9388C12.6809 30.4795 13.2203 30.808 13.755 30.682L19.422 29.3469C19.9624 29.2196 20.2894 28.6762 20.2227 28.1249C20.1074 27.1721 20.1543 26.2046 20.3639 25.2625C20.6466 23.9917 21.218 22.8001 22.0352 21.777C22.8525 20.754 23.8946 19.9259 25.0834 19.3548C26.2722 18.7838 27.577 18.4844 28.9001 18.4793C30.2232 18.4741 31.5303 18.7632 32.7237 19.325C33.9171 19.8868 34.9658 20.7067 35.7913 21.7234C36.6168 22.74 37.1978 23.9271 37.4907 25.1957C37.7079 26.1362 37.7626 27.1033 37.655 28.0571C37.5927 28.6088 37.9239 29.1495 38.4653 29.2726L44.143 30.5635Z" fill="url(#paint0_linear_366_37541)"/>
<path d="M44.143 30.5635C44.6787 30.6853 45.2156 30.3524 45.3082 29.8109C45.6662 27.716 45.6055 25.5692 45.1257 23.4914C44.5713 21.0907 43.4719 18.8443 41.9097 16.9204C40.3475 14.9966 38.363 13.445 36.1047 12.3819C33.8464 11.3188 31.3728 10.7716 28.869 10.7814C26.3652 10.7911 23.8961 11.3576 21.6465 12.4383C19.3968 13.519 17.4249 15.086 15.8783 17.022C14.3316 18.958 13.2504 21.2128 12.7154 23.6178C12.2524 25.6993 12.209 27.8466 12.584 29.9388C12.6809 30.4795 13.2203 30.808 13.755 30.682L19.422 29.3469C19.9624 29.2196 20.2894 28.6762 20.2227 28.1249C20.1074 27.1721 20.1543 26.2046 20.3639 25.2625C20.6466 23.9917 21.218 22.8001 22.0352 21.777C22.8525 20.754 23.8946 19.9259 25.0834 19.3548C26.2722 18.7838 27.577 18.4844 28.9001 18.4793C30.2232 18.4741 31.5303 18.7632 32.7237 19.325C33.9171 19.8868 34.9658 20.7067 35.7913 21.7234C36.6168 22.74 37.1978 23.9271 37.4907 25.1957C37.7079 26.1362 37.7626 27.1033 37.655 28.0571C37.5927 28.6088 37.9239 29.1495 38.4653 29.2726L44.143 30.5635Z" stroke="white" stroke-width="4" mask="url(#path-2-outside-1_366_37541)"/>
<g filter="url(#filter1_d_366_37541)">
<ellipse cx="3.18698" cy="3.16015" rx="3.18698" ry="3.16015" transform="matrix(0.869648 0.493672 -0.506355 0.862325 28.125 22.8291)" fill="white"/>
</g>
<path fill-rule="evenodd" clip-rule="evenodd" d="M34.6868 17.7531C34.7602 17.669 34.8976 17.747 34.8602 17.8515L31.1181 27.7562C31.116 27.7622 31.112 27.7716 31.1064 27.7834C31.0643 27.916 31.0067 28.046 30.9332 28.1713C30.3955 29.0869 29.2047 29.4006 28.2735 28.872C27.3422 28.3434 27.0232 27.1725 27.5608 26.2569C27.6346 26.1313 27.7206 26.017 27.8166 25.9147L34.6868 17.7531ZM28.7855 28C29.2753 28.278 29.9017 28.113 30.1844 27.6314C30.4672 27.1498 30.2994 26.534 29.8096 26.2559C29.3198 25.9779 28.6935 26.1429 28.4107 26.6245C28.1279 27.1061 28.2957 27.7219 28.7855 28Z" fill="#343434"/>
<rect x="11.0234" y="37.5596" width="32.5977" height="2.34783" rx="1" fill="#D6DEEC"/>
<rect x="11.0234" y="43.8809" width="32.5977" height="2.34783" rx="1" fill="#D6DEEC"/>
<defs>
<filter id="filter0_d_366_37541" x="0" y="0" width="58.1445" height="62" filterUnits="userSpaceOnUse" color-interpolation-filters="sRGB">
<feFlood flood-opacity="0" result="BackgroundImageFix"/>
<feColorMatrix in="SourceAlpha" type="matrix" values="0 0 0 0 0 0 0 0 0 0 0 0 0 0 0 0 0 0 127 0" result="hardAlpha"/>
<feOffset dy="2"/>
<feGaussianBlur stdDeviation="2"/>
<feComposite in2="hardAlpha" operator="out"/>
<feColorMatrix type="matrix" values="0 0 0 0 0 0 0 0 0 0 0 0 0 0 0 0 0 0 0.1 0"/>
<feBlend mode="normal" in2="BackgroundImageFix" result="effect1_dropShadow_366_37541"/>
<feBlend mode="normal" in="SourceGraphic" in2="effect1_dropShadow_366_37541" result="shape"/>
</filter>
<filter id="filter1_d_366_37541" x="14.0938" y="14.9805" width="30.4023" height="30.2939" filterUnits="userSpaceOnUse" color-interpolation-filters="sRGB">
<feFlood flood-opacity="0" result="BackgroundImageFix"/>
<feColorMatrix in="SourceAlpha" type="matrix" values="0 0 0 0 0 0 0 0 0 0 0 0 0 0 0 0 0 0 127 0" result="hardAlpha"/>
<feOffset dy="3"/>
<feGaussianBlur stdDeviation="6"/>
<feComposite in2="hardAlpha" operator="out"/>
<feColorMatrix type="matrix" values="0 0 0 0 0.215686 0 0 0 0 0.113725 0 0 0 0 0.431373 0 0 0 0.07 0"/>
<feBlend mode="normal" in2="BackgroundImageFix" result="effect1_dropShadow_366_37541"/>
<feBlend mode="normal" in="SourceGraphic" in2="effect1_dropShadow_366_37541" result="shape"/>
</filter>
<linearGradient id="paint0_linear_366_37541" x1="12.332" y1="27.1057" x2="42.0641" y2="28.9583" gradientUnits="userSpaceOnUse">
<stop stop-color="#0ACFA0"/>
<stop offset="0.5" stop-color="#1794FA"/>
<stop offset="1" stop-color="#8D62F2"/>
</linearGradient>
</defs>
</svg>
