<svg width="456" height="140" viewBox="0 0 456 140" fill="none" xmlns="http://www.w3.org/2000/svg">
<g filter="url(#filter0_d_25_76)">
<rect x="195" y="43" width="66" height="72.2857" rx="4" fill="#FDFDFD"/>
</g>
<mask id="path-3-outside-1_25_76" maskUnits="userSpaceOnUse" x="203.963" y="52.7544" width="48" height="31" fill="black">
<rect fill="white" x="203.963" y="52.7544" width="48" height="31"/>
<path d="M248.132 81.3047C248.67 81.4291 249.209 81.094 249.309 80.5508C249.842 77.6446 249.781 74.6567 249.126 71.7685C248.396 68.5548 246.949 65.5478 244.893 62.9725C242.837 60.3971 240.225 58.3202 237.252 56.8971C234.28 55.4739 231.024 54.7415 227.729 54.7546C224.434 54.7676 221.184 55.5259 218.223 56.9725C215.262 58.4192 212.666 60.5168 210.631 63.1084C208.595 65.6999 207.172 68.7183 206.468 71.9377C205.835 74.831 205.798 77.8193 206.354 80.7212C206.458 81.2636 207 81.5944 207.537 81.4657L215.613 79.5305C216.151 79.4018 216.477 78.8623 216.395 78.3161C216.188 76.9298 216.234 75.5143 216.535 74.1394C216.907 72.4382 217.659 70.8431 218.735 69.4736C219.81 68.1041 221.182 66.9957 222.746 66.2312C224.311 65.4667 226.028 65.0661 227.77 65.0592C229.511 65.0522 231.232 65.4393 232.802 66.1913C234.373 66.9434 235.753 68.0409 236.84 69.4018C237.926 70.7627 238.691 72.3518 239.077 74.05C239.388 75.4225 239.446 76.8375 239.249 78.2255C239.172 78.7723 239.503 79.3092 240.041 79.4336L248.132 81.3047Z"/>
</mask>
<path d="M248.132 81.3047C248.67 81.4291 249.209 81.094 249.309 80.5508C249.842 77.6446 249.781 74.6567 249.126 71.7685C248.396 68.5548 246.949 65.5478 244.893 62.9725C242.837 60.3971 240.225 58.3202 237.252 56.8971C234.28 55.4739 231.024 54.7415 227.729 54.7546C224.434 54.7676 221.184 55.5259 218.223 56.9725C215.262 58.4192 212.666 60.5168 210.631 63.1084C208.595 65.6999 207.172 68.7183 206.468 71.9377C205.835 74.831 205.798 77.8193 206.354 80.7212C206.458 81.2636 207 81.5944 207.537 81.4657L215.613 79.5305C216.151 79.4018 216.477 78.8623 216.395 78.3161C216.188 76.9298 216.234 75.5143 216.535 74.1394C216.907 72.4382 217.659 70.8431 218.735 69.4736C219.81 68.1041 221.182 66.9957 222.746 66.2312C224.311 65.4667 226.028 65.0661 227.77 65.0592C229.511 65.0522 231.232 65.4393 232.802 66.1913C234.373 66.9434 235.753 68.0409 236.84 69.4018C237.926 70.7627 238.691 72.3518 239.077 74.05C239.388 75.4225 239.446 76.8375 239.249 78.2255C239.172 78.7723 239.503 79.3092 240.041 79.4336L248.132 81.3047Z" fill="url(#paint0_linear_25_76)"/>
<path d="M248.132 81.3047C248.67 81.4291 249.209 81.094 249.309 80.5508C249.842 77.6446 249.781 74.6567 249.126 71.7685C248.396 68.5548 246.949 65.5478 244.893 62.9725C242.837 60.3971 240.225 58.3202 237.252 56.8971C234.28 55.4739 231.024 54.7415 227.729 54.7546C224.434 54.7676 221.184 55.5259 218.223 56.9725C215.262 58.4192 212.666 60.5168 210.631 63.1084C208.595 65.6999 207.172 68.7183 206.468 71.9377C205.835 74.831 205.798 77.8193 206.354 80.7212C206.458 81.2636 207 81.5944 207.537 81.4657L215.613 79.5305C216.151 79.4018 216.477 78.8623 216.395 78.3161C216.188 76.9298 216.234 75.5143 216.535 74.1394C216.907 72.4382 217.659 70.8431 218.735 69.4736C219.81 68.1041 221.182 66.9957 222.746 66.2312C224.311 65.4667 226.028 65.0661 227.77 65.0592C229.511 65.0522 231.232 65.4393 232.802 66.1913C234.373 66.9434 235.753 68.0409 236.84 69.4018C237.926 70.7627 238.691 72.3518 239.077 74.05C239.388 75.4225 239.446 76.8375 239.249 78.2255C239.172 78.7723 239.503 79.3092 240.041 79.4336L248.132 81.3047Z" stroke="white" stroke-width="4" mask="url(#path-3-outside-1_25_76)"/>
<g filter="url(#filter1_d_25_76)">
<circle cx="228.294" cy="76.6363" r="4.21218" transform="rotate(30 228.294 76.6363)" fill="white"/>
</g>
<path fill-rule="evenodd" clip-rule="evenodd" d="M235.386 64.087C235.482 63.9744 235.663 64.0788 235.614 64.2187L230.689 77.4773C230.686 77.4854 230.681 77.4979 230.673 77.5138C230.618 77.6912 230.542 77.8653 230.445 78.033C229.738 79.2587 228.171 79.6786 226.945 78.971C225.719 78.2633 225.299 76.696 226.007 75.4704C226.104 75.3022 226.217 75.1492 226.344 75.0122L235.386 64.087ZM227.619 77.8036C228.263 78.1759 229.088 77.955 229.46 77.3103C229.832 76.6656 229.611 75.8412 228.967 75.469C228.322 75.0968 227.498 75.3177 227.125 75.9624C226.753 76.6071 226.974 77.4314 227.619 77.8036Z" fill="#343434"/>
<rect x="204.244" y="90.6018" width="42.9043" height="3.14286" rx="1" fill="#D6DEEC"/>
<rect x="204.244" y="99.0627" width="42.9043" height="3.14286" rx="1" fill="#D6DEEC"/>
<defs>
<filter id="filter0_d_25_76" x="191" y="41" width="74" height="80.2856" filterUnits="userSpaceOnUse" color-interpolation-filters="sRGB">
<feFlood flood-opacity="0" result="BackgroundImageFix"/>
<feColorMatrix in="SourceAlpha" type="matrix" values="0 0 0 0 0 0 0 0 0 0 0 0 0 0 0 0 0 0 127 0" result="hardAlpha"/>
<feOffset dy="2"/>
<feGaussianBlur stdDeviation="2"/>
<feComposite in2="hardAlpha" operator="out"/>
<feColorMatrix type="matrix" values="0 0 0 0 0 0 0 0 0 0 0 0 0 0 0 0 0 0 0.1 0"/>
<feBlend mode="normal" in2="BackgroundImageFix" result="effect1_dropShadow_25_76"/>
<feBlend mode="normal" in="SourceGraphic" in2="effect1_dropShadow_25_76" result="shape"/>
</filter>
<filter id="filter1_d_25_76" x="212.081" y="63.4233" width="32.4258" height="32.4258" filterUnits="userSpaceOnUse" color-interpolation-filters="sRGB">
<feFlood flood-opacity="0" result="BackgroundImageFix"/>
<feColorMatrix in="SourceAlpha" type="matrix" values="0 0 0 0 0 0 0 0 0 0 0 0 0 0 0 0 0 0 127 0" result="hardAlpha"/>
<feOffset dy="3"/>
<feGaussianBlur stdDeviation="6"/>
<feComposite in2="hardAlpha" operator="out"/>
<feColorMatrix type="matrix" values="0 0 0 0 0.215686 0 0 0 0 0.113725 0 0 0 0 0.431373 0 0 0 0.07 0"/>
<feBlend mode="normal" in2="BackgroundImageFix" result="effect1_dropShadow_25_76"/>
<feBlend mode="normal" in="SourceGraphic" in2="effect1_dropShadow_25_76" result="shape"/>
</filter>
<linearGradient id="paint0_linear_25_76" x1="205.963" y1="76.6067" x2="245.101" y2="79.0045" gradientUnits="userSpaceOnUse">
<stop stop-color="#0ACFA0"/>
<stop offset="0.5" stop-color="#1794FA"/>
<stop offset="1" stop-color="#8D62F2"/>
</linearGradient>
</defs>
</svg>
