<svg width="80" height="80" viewBox="0 0 80 80" fill="none" xmlns="http://www.w3.org/2000/svg">
<g clip-path="url(#clip0_905_2922)">
<g filter="url(#filter0_d_905_2922)">
<path d="M37.3787 7.27425C38.8827 5.9694 41.1173 5.96941 42.6213 7.27425L46.1393 10.3264C47.0673 11.1315 48.3138 11.4655 49.52 11.2323L54.0927 10.348C56.0476 9.96997 57.9829 11.0873 58.633 12.9693L60.1536 17.3715C60.5547 18.5328 61.4672 19.4453 62.6285 19.8464L67.0307 21.367C68.9127 22.017 70.03 23.9524 69.652 25.9073L68.7677 30.48C68.5345 31.6862 68.8685 32.9327 69.6736 33.8607L72.7257 37.3787C74.0306 38.8827 74.0306 41.1173 72.7257 42.6213L69.6736 46.1393C68.8685 47.0673 68.5345 48.3138 68.7677 49.52L69.652 54.0927C70.03 56.0476 68.9127 57.9829 67.0307 58.633L62.6285 60.1536C61.4672 60.5547 60.5547 61.4672 60.1536 62.6285L58.633 67.0307C57.9829 68.9127 56.0476 70.03 54.0927 69.652L49.52 68.7677C48.3138 68.5345 47.0673 68.8685 46.1393 69.6736L42.6213 72.7257C41.1173 74.0306 38.8827 74.0306 37.3787 72.7257L33.8607 69.6736C32.9327 68.8685 31.6862 68.5345 30.48 68.7677L25.9073 69.652C23.9524 70.03 22.0171 68.9127 21.367 67.0307L19.8464 62.6285C19.4453 61.4672 18.5328 60.5547 17.3715 60.1536L12.9693 58.633C11.0873 57.9829 9.96997 56.0476 10.348 54.0927L11.2323 49.52C11.4655 48.3138 11.1315 47.0673 10.3264 46.1393L7.27425 42.6213C5.9694 41.1173 5.96941 38.8827 7.27425 37.3787L10.3264 33.8607C11.1315 32.9327 11.4655 31.6862 11.2323 30.48L10.348 25.9073C9.96997 23.9524 11.0873 22.0171 12.9693 21.367L17.3715 19.8464C18.5328 19.4453 19.4453 18.5328 19.8464 17.3715L21.367 12.9693C22.017 11.0873 23.9524 9.96997 25.9073 10.348L30.48 11.2323C31.6862 11.4655 32.9327 11.1315 33.8607 10.3264L37.3787 7.27425Z" fill="url(#paint0_linear_905_2922)"/>
</g>
<g filter="url(#filter1_d_905_2922)">
<path d="M48.0785 28.032C49.1524 26.9581 50.8932 26.9581 51.9671 28.032C53.0411 29.1059 53.0411 30.8467 51.9671 31.9207L43.888 39.9988L51.9681 48.0789C53.0417 49.1527 53.0417 50.8937 51.9681 51.9675C50.8942 53.0414 49.1524 53.0413 48.0785 51.9675L39.9994 43.8884L31.9203 51.9675C30.8463 53.0411 29.1044 53.0414 28.0306 51.9675C26.9572 50.8937 26.9572 49.1527 28.0306 48.0789L36.1097 39.9988L28.0316 31.9207C26.9577 30.8467 26.9577 29.1059 28.0316 28.032C29.1055 26.958 30.8463 26.9581 31.9203 28.032L39.9994 36.1101L48.0785 28.032Z" fill="white"/>
</g>
</g>
<defs>
<filter id="filter0_d_905_2922" x="2.29562" y="6.29559" width="75.4088" height="75.4088" filterUnits="userSpaceOnUse" color-interpolation-filters="sRGB">
<feFlood flood-opacity="0" result="BackgroundImageFix"/>
<feColorMatrix in="SourceAlpha" type="matrix" values="0 0 0 0 0 0 0 0 0 0 0 0 0 0 0 0 0 0 127 0" result="hardAlpha"/>
<feOffset dy="4"/>
<feGaussianBlur stdDeviation="2"/>
<feComposite in2="hardAlpha" operator="out"/>
<feColorMatrix type="matrix" values="0 0 0 0 0.984314 0 0 0 0 0.482353 0 0 0 0 0.596078 0 0 0 0.13 0"/>
<feBlend mode="normal" in2="BackgroundImageFix" result="effect1_dropShadow_905_2922"/>
<feBlend mode="normal" in="SourceGraphic" in2="effect1_dropShadow_905_2922" result="shape"/>
</filter>
<filter id="filter1_d_905_2922" x="23.2256" y="27.2266" width="33.5477" height="33.5463" filterUnits="userSpaceOnUse" color-interpolation-filters="sRGB">
<feFlood flood-opacity="0" result="BackgroundImageFix"/>
<feColorMatrix in="SourceAlpha" type="matrix" values="0 0 0 0 0 0 0 0 0 0 0 0 0 0 0 0 0 0 127 0" result="hardAlpha"/>
<feOffset dy="4"/>
<feGaussianBlur stdDeviation="2"/>
<feComposite in2="hardAlpha" operator="out"/>
<feColorMatrix type="matrix" values="0 0 0 0 0 0 0 0 0 0 0 0 0 0 0 0 0 0 0.05 0"/>
<feBlend mode="normal" in2="BackgroundImageFix" result="effect1_dropShadow_905_2922"/>
<feBlend mode="normal" in="SourceGraphic" in2="effect1_dropShadow_905_2922" result="shape"/>
</filter>
<linearGradient id="paint0_linear_905_2922" x1="20" y1="7.5" x2="60" y2="75" gradientUnits="userSpaceOnUse">
<stop stop-color="#FFB7A7"/>
<stop offset="1" stop-color="#FF6467"/>
</linearGradient>
<clipPath id="clip0_905_2922">
<rect width="80" height="80" rx="16" fill="white"/>
</clipPath>
</defs>
</svg>
