<svg width="47" height="70" viewBox="0 0 47 70" fill="none" xmlns="http://www.w3.org/2000/svg">
<path d="M15.3116 10.8893L28.2445 13.3255L17.6025 69.8586L12.3506 62.174L4.66602 67.4259L15.3116 10.8893Z" fill="url(#paint0_linear_554_1793)"/>
<path d="M15.9254 11.6765L27.3866 13.8326L17.1878 68.0039L12.5352 61.1917L5.72656 65.8478L15.9254 11.6765Z" fill="url(#paint1_linear_554_1793)"/>
<path d="M26.3576 14.446L16.6943 65.7769L12.758 60.0144L6.99902 63.9541L16.6623 12.6198L26.3576 14.446Z" fill="url(#paint2_linear_554_1793)"/>
<path d="M29.8298 11.0983L16.8438 13.2331L26.1808 70.0002L31.6065 62.4362L39.1669 67.8654L29.8298 11.0983Z" fill="url(#paint3_linear_554_1793)"/>
<path d="M29.1987 11.8715L17.6914 13.7616L26.6349 68.1528L31.4435 61.4505L38.1422 66.2627L29.1987 11.8715Z" fill="url(#paint4_linear_554_1793)"/>
<path d="M18.7051 14.3963L27.1804 65.9399L31.2479 60.2696L36.9147 64.3406L28.4393 12.797L18.7051 14.3963Z" fill="url(#paint5_linear_554_1793)"/>
<path d="M23.3333 46.6667C36.22 46.6667 46.6667 36.22 46.6667 23.3333C46.6667 10.4467 36.22 0 23.3333 0C10.4467 0 0 10.4467 0 23.3333C0 36.22 10.4467 46.6667 23.3333 46.6667Z" fill="url(#paint6_linear_554_1793)"/>
<path d="M23.3337 45.7558C35.7173 45.7558 45.7563 35.7168 45.7563 23.3332C45.7563 10.9496 35.7173 0.910645 23.3337 0.910645C10.9501 0.910645 0.911133 10.9496 0.911133 23.3332C0.911133 35.7168 10.9501 45.7558 23.3337 45.7558Z" fill="url(#paint7_linear_554_1793)"/>
<path d="M23.3331 44.4947C35.0201 44.4947 44.4943 35.0206 44.4943 23.3336C44.4943 11.6466 35.0201 2.17236 23.3331 2.17236C11.6461 2.17236 2.17188 11.6466 2.17188 23.3336C2.17188 35.0206 11.6461 44.4947 23.3331 44.4947Z" fill="url(#paint8_linear_554_1793)"/>
<path d="M23.333 42.433C33.8814 42.433 42.4325 33.8819 42.4325 23.3335C42.4325 12.7851 33.8814 4.23389 23.333 4.23389C12.7846 4.23389 4.2334 12.7851 4.2334 23.3335C4.2334 33.8819 12.7846 42.433 23.333 42.433Z" fill="url(#paint9_linear_554_1793)"/>
<path d="M23.3053 40.9012C33.0203 40.9012 40.8959 33.0257 40.8959 23.3107C40.8959 13.5958 33.0203 5.72021 23.3053 5.72021C13.5904 5.72021 5.71484 13.5958 5.71484 23.3107C5.71484 33.0257 13.5904 40.9012 23.3053 40.9012Z" fill="url(#paint10_linear_554_1793)"/>
<path opacity="0.7" d="M10.5667 24.5822C10.1778 24.3609 9.7727 23.958 9.73817 23.4735C9.92459 23.965 10.2905 24.2608 10.5736 24.4168C10.7853 23.5131 9.98904 22.9051 8.76465 22.3974C9.02472 23.5713 9.64842 24.6218 10.5644 24.5822H10.5667ZM10.4056 21.652C10.1133 21.3655 9.86245 20.9206 9.94301 20.5037C9.99134 20.9718 10.2353 21.3166 10.4378 21.5146C10.836 20.7925 10.2928 20.0704 9.35153 19.346C9.30319 20.4128 9.60239 21.4726 10.4056 21.652ZM11.4919 27.6359C11.0615 27.4892 10.592 27.1514 10.4769 26.6925C10.7439 27.1444 11.1582 27.375 11.4666 27.4798C11.5241 26.5435 10.6311 26.0753 9.32391 25.7888C9.78651 26.9045 10.5805 27.8409 11.4896 27.6359H11.4919ZM13.317 24.4518C12.3435 25.3718 11.8072 26.2407 12.3342 27.0047C12.546 26.7578 12.7807 26.3478 12.7807 25.8214C12.9188 26.2803 12.6841 26.8067 12.3918 27.1584C13.2756 26.8626 13.4873 25.649 13.317 24.4495V24.4518ZM13.1237 30.1981C12.6542 30.1981 12.0765 30.0514 11.8095 29.6321C12.2238 29.9768 12.7025 30.0583 13.0431 30.0514C12.7761 29.1243 11.7382 28.9846 10.3734 29.1732C11.1996 30.0933 12.3112 30.7245 13.1237 30.2004V30.1981ZM17.0891 33.9506C17.6645 34.1718 18.2168 34.081 18.5828 33.9436C17.9499 33.0328 16.7738 33.2774 15.363 33.9925C16.6035 34.682 18.0327 34.9452 18.7209 34.074C18.2099 34.2534 17.5356 34.3046 17.0914 33.9506H17.0891ZM15.508 32.3154C15.0385 32.4459 14.4125 32.4459 14.0327 32.1011C14.5437 32.3387 15.0546 32.2898 15.3952 32.192C14.8751 31.3208 13.7888 31.4606 12.4516 32.0196C13.5379 32.7347 14.829 33.0701 15.5103 32.3154H15.508ZM12.2468 16.2085C12.0765 15.8637 11.9867 15.3886 12.1893 15.0438C12.0834 15.4701 12.1962 15.8474 12.3181 16.0943C12.8935 15.5772 12.6265 14.7643 12.0097 13.828C11.6438 14.7643 11.5794 15.7985 12.2445 16.2085H12.2468ZM11.363 21.5355C12.1662 21.7172 12.8728 20.8787 13.2686 19.8934C12.1156 20.1473 11.3216 20.5666 11.3791 21.3958C11.6553 21.2979 12.0189 21.093 12.256 20.69C12.1501 21.1 11.7382 21.3958 11.363 21.5355ZM11.5656 24.2957C12.4815 24.2305 12.9856 23.1124 13.1075 21.9152C11.9476 22.5627 11.2249 23.2615 11.5425 24.1327C11.8095 23.9533 12.134 23.6063 12.2652 23.0985C12.2905 23.583 11.9338 24.0255 11.5679 24.2981L11.5656 24.2957ZM15.264 15.5097C14.1685 15.363 13.3262 15.4771 13.1144 16.2248C13.3814 16.2341 13.7727 16.1666 14.1133 15.8894C13.8946 16.2248 13.4321 16.3482 13.05 16.3412C13.7082 16.7675 14.5989 16.2597 15.264 15.512V15.5097ZM14.1294 17.4057C12.8958 17.5525 12.0212 17.8972 11.9867 18.7777C12.2859 18.7031 12.6841 18.5308 12.9764 18.1301C12.8222 18.5564 12.3596 18.8196 11.9453 18.9174C12.7738 19.1969 13.6001 18.4003 14.1271 17.4057H14.1294ZM10.9649 18.8429C10.7462 18.4819 10.5989 17.9648 10.7946 17.5548C10.7209 18.0463 10.8751 18.4586 11.0385 18.7218C11.63 18.0812 11.2572 17.2101 10.4862 16.2271C10.1616 17.3032 10.187 18.4609 10.9649 18.8452V18.8429ZM23.6598 35.6742C24.3572 35.97 25.0384 36.2659 25.7035 36.585L26.4101 35.6975C25.8992 35.5252 25.379 35.3528 24.852 35.1804C24.4538 35.3435 24.058 35.5089 23.6598 35.6719V35.6742ZM18.9142 32.7999C18.882 32.4132 18.737 31.8729 18.2974 31.428C18.8014 31.6912 19.0362 32.3387 19.0845 32.8814C19.5885 31.8798 18.7439 30.6803 17.6092 29.8277C17.5609 31.428 17.8371 32.6112 18.9142 32.7999ZM15.6046 28.351C15.1835 29.7555 15.1513 30.8643 16.058 31.2905C16.1225 30.9365 16.1156 30.4194 15.8302 29.9279C16.2122 30.2889 16.2767 30.9132 16.1961 31.3977C16.8613 30.643 16.4079 29.3782 15.6046 28.351ZM11.0707 25.1808C12.5299 30.8713 17.0822 32.956 21.6483 34.845C21.9982 34.7309 22.3457 34.6144 22.6955 34.5096C17.7957 32.9653 12.8889 31.1345 11.3469 25.1086C10.3826 21.3329 11.5748 17.6456 13.8049 14.6409C13.9016 14.5104 14.0074 14.3777 14.1041 14.2472C14.3872 13.9444 14.7531 13.7138 15.1513 13.7045C14.5667 13.9025 14.1938 14.3194 13.9913 14.6572C15.0454 14.9693 15.8095 14.0329 16.4723 12.5795C15.1904 12.8101 14.0051 13.418 13.8279 14.3777C11.4021 17.5059 10.0236 21.1023 11.0707 25.1808ZM13.943 29.6158C14.8037 29.1243 14.7531 27.8013 14.3158 26.6017C13.5057 27.7757 13.1398 28.7936 13.8532 29.476C14.0143 29.1732 14.1685 28.6887 14.0558 28.139C14.2997 28.5909 14.1685 29.1895 13.943 29.6158ZM35.6989 17.5548C35.8853 17.9648 35.7403 18.4819 35.5194 18.8429C36.2973 18.4562 36.3226 17.2986 36.005 16.2248C35.234 17.2101 34.8611 18.0812 35.4457 18.7194C35.6068 18.4562 35.7702 18.0463 35.6966 17.5525L35.6989 17.5548ZM36.0464 21.5122C36.2581 21.3142 36.4929 20.9695 36.5412 20.5013C36.6218 20.9206 36.3709 21.3632 36.0878 21.652C36.891 21.4726 37.1833 20.4128 37.135 19.346C36.1937 20.0681 35.6505 20.7902 36.0487 21.5122H36.0464ZM35.9175 24.5822C36.8427 24.6241 37.4664 23.5713 37.7265 22.3974C36.5021 22.9075 35.6989 23.5131 35.9175 24.4168C36.2006 24.2608 36.5573 23.965 36.746 23.4735C36.7138 23.958 36.3088 24.3609 35.9175 24.5822ZM28.1868 31.4303C27.7496 31.8729 27.6023 32.4156 27.57 32.8022C28.6494 32.6136 28.9256 31.4303 28.875 29.8301C27.7404 30.6849 26.9026 31.8822 27.3997 32.8838C27.4481 32.341 27.692 31.6935 28.1868 31.4303ZM30.4262 31.2905C31.3353 30.8643 31.303 29.7555 30.8888 28.351C30.0856 29.3782 29.623 30.6407 30.2973 31.3977C30.2167 30.9132 30.272 30.2889 30.654 29.9279C30.3709 30.4194 30.3709 30.9365 30.4262 31.2905ZM34.1661 16.0943C34.2881 15.8474 34.4008 15.4701 34.3042 15.0438C34.4998 15.3886 34.41 15.8637 34.2397 16.2085C34.9049 15.7985 34.8404 14.7643 34.4745 13.828C33.8577 14.7643 33.5907 15.5772 34.1661 16.0943ZM35.0245 27.4798C35.3329 27.3727 35.738 27.1444 36.0073 26.6925C35.8945 27.1514 35.4227 27.4892 35.0015 27.6359C35.9014 27.8409 36.7046 26.9045 37.1603 25.7888C35.8623 26.0753 34.9624 26.5435 35.0268 27.4798H35.0245ZM32.6333 29.476C33.3468 28.7936 32.9831 27.7757 32.1707 26.6017C31.7334 27.8013 31.692 29.122 32.5435 29.6158C32.3157 29.1895 32.1868 28.5886 32.4308 28.139C32.318 28.6887 32.4722 29.1732 32.6333 29.476ZM27.9107 33.9412C28.2674 34.081 28.8197 34.1718 29.4043 33.9506C28.9509 34.3046 28.2766 34.2534 27.7749 34.074C28.4561 34.9452 29.883 34.682 31.1327 33.9925C29.7127 33.2774 28.5367 33.0328 27.913 33.9436L27.9107 33.9412ZM34.1569 27.0047C34.677 26.2407 34.1408 25.3718 33.1672 24.4518C32.9969 25.6514 33.2156 26.8649 34.0924 27.1607C33.8094 26.8067 33.5654 26.2826 33.7035 25.8237C33.7127 26.3501 33.9382 26.7601 34.1569 27.007V27.0047ZM33.4526 30.049C33.784 30.056 34.2628 29.9745 34.6862 29.6298C34.41 30.049 33.8347 30.1958 33.3721 30.1958C34.1822 30.7222 35.2869 30.0886 36.1223 29.1686C34.7507 28.9799 33.7127 29.1196 33.4526 30.0467V30.049ZM31.0982 32.192C31.4388 32.2898 31.9429 32.3387 32.4607 32.1011C32.0717 32.4459 31.4457 32.4459 30.9762 32.3154C31.6575 33.0701 32.9486 32.7347 34.0349 32.0196C32.6954 31.4606 31.6091 31.3208 31.0982 32.192ZM34.944 24.1303C35.2593 23.2592 34.5389 22.5627 33.379 21.9129C33.501 23.1124 34.0027 24.2282 34.9279 24.2934C34.5619 24.0232 34.2052 23.5783 34.2305 23.0938C34.3525 23.6039 34.677 23.9487 34.944 24.128V24.1303ZM34.4975 18.7777C34.4722 17.8995 33.5976 17.5548 32.364 17.4057C32.8842 18.4003 33.7196 19.1946 34.5389 18.9174C34.1247 18.8196 33.6621 18.5564 33.5171 18.1301C33.8002 18.5331 34.2075 18.7055 34.4998 18.7777H34.4975ZM33.3698 16.2248C33.158 15.4771 32.3226 15.363 31.2202 15.5097C31.8945 16.2574 32.7852 16.7652 33.4342 16.3389C33.0614 16.3459 32.5988 16.2248 32.3801 15.887C32.7116 16.1666 33.1028 16.2318 33.3698 16.2225V16.2248ZM35.4135 25.1808C36.4607 21.1 35.089 17.5036 32.6632 14.3777C32.4768 13.418 31.2915 12.8101 30.0096 12.5795C30.6747 14.0329 31.4457 14.9693 32.4906 14.6572C32.295 14.3218 31.9221 13.9025 31.3307 13.7045C31.7357 13.7138 32.1017 13.9421 32.3778 14.2472C32.4837 14.3777 32.5804 14.5104 32.677 14.6409H32.6862C34.9164 17.6456 36.1085 21.3329 35.135 25.1086C33.1972 32.6788 25.9452 33.6384 20.0718 35.6999L20.7853 36.5873C26.3756 33.8947 33.5125 32.5973 35.4112 25.1832L35.4135 25.1808ZM35.1074 21.3958C35.1649 20.5666 34.3686 20.1473 33.2179 19.8934C33.6229 20.8787 34.3295 21.7149 35.1327 21.5355C34.7507 21.3958 34.3387 21.1 34.2397 20.69C34.4745 21.093 34.8312 21.2979 35.1074 21.3958Z" fill="url(#paint11_linear_554_1793)"/>
<path d="M28.9607 17.5336H25.0234V21.4709H28.9607V17.5336Z" fill="url(#paint12_linear_554_1793)"/>
<path d="M25.0234 25.4095L21.085 29.347V21.4711L25.0234 17.5336V25.4095ZM21.085 17.5336V21.4711H17.1475V17.5336H21.085Z" fill="url(#paint13_linear_554_1793)"/>
<defs>
<linearGradient id="paint0_linear_554_1793" x1="20.4525" y1="14.3764" x2="14.5993" y2="45.4728" gradientUnits="userSpaceOnUse">
<stop stop-color="#541715"/>
<stop offset="0.08" stop-color="#8C5027"/>
<stop offset="0.38" stop-color="#C99351"/>
<stop offset="0.56" stop-color="#FFF1DB"/>
<stop offset="0.8" stop-color="#D5AF88"/>
<stop offset="0.94" stop-color="#9E5C2C"/>
<stop offset="0.96" stop-color="#9A5524"/>
</linearGradient>
<linearGradient id="paint1_linear_554_1793" x1="18.6219" y1="24.103" x2="12.158" y2="58.4439" gradientUnits="userSpaceOnUse">
<stop stop-color="#541715"/>
<stop offset="0.08" stop-color="#8C5027"/>
<stop offset="0.38" stop-color="#C99351"/>
<stop offset="0.56" stop-color="#FFF1DB"/>
<stop offset="0.8" stop-color="#D5AF88"/>
<stop offset="0.94" stop-color="#9E5C2C"/>
<stop offset="0.96" stop-color="#9A5524"/>
</linearGradient>
<linearGradient id="paint2_linear_554_1793" x1="20.7696" y1="12.6896" x2="10.9051" y2="65.0967" gradientUnits="userSpaceOnUse">
<stop stop-color="#541715"/>
<stop offset="0.08" stop-color="#8C5027"/>
<stop offset="0.38" stop-color="#C99351"/>
<stop offset="0.56" stop-color="#FFF1DB"/>
<stop offset="0.8" stop-color="#D5AF88"/>
<stop offset="0.94" stop-color="#9E5C2C"/>
<stop offset="0.96" stop-color="#9A5524"/>
</linearGradient>
<linearGradient id="paint3_linear_554_1793" x1="24.4129" y1="14.493" x2="29.5482" y2="45.716" gradientUnits="userSpaceOnUse">
<stop stop-color="#541715"/>
<stop offset="0.08" stop-color="#8C5027"/>
<stop offset="0.38" stop-color="#C99351"/>
<stop offset="0.56" stop-color="#FFF1DB"/>
<stop offset="0.8" stop-color="#D5AF88"/>
<stop offset="0.94" stop-color="#9E5C2C"/>
<stop offset="0.96" stop-color="#9A5524"/>
</linearGradient>
<linearGradient id="paint4_linear_554_1793" x1="26.0193" y1="24.2593" x2="31.6899" y2="58.7365" gradientUnits="userSpaceOnUse">
<stop stop-color="#541715"/>
<stop offset="0.08" stop-color="#8C5027"/>
<stop offset="0.38" stop-color="#C99351"/>
<stop offset="0.56" stop-color="#FFF1DB"/>
<stop offset="0.8" stop-color="#D5AF88"/>
<stop offset="0.94" stop-color="#9E5C2C"/>
<stop offset="0.96" stop-color="#9A5524"/>
</linearGradient>
<linearGradient id="paint5_linear_554_1793" x1="24.1339" y1="12.7995" x2="32.7886" y2="65.4199" gradientUnits="userSpaceOnUse">
<stop stop-color="#541715"/>
<stop offset="0.08" stop-color="#8C5027"/>
<stop offset="0.38" stop-color="#C99351"/>
<stop offset="0.56" stop-color="#FFF1DB"/>
<stop offset="0.8" stop-color="#D5AF88"/>
<stop offset="0.94" stop-color="#9E5C2C"/>
<stop offset="0.96" stop-color="#9A5524"/>
</linearGradient>
<linearGradient id="paint6_linear_554_1793" x1="23.6777" y1="-6.61749" x2="23.3223" y2="24.2286" gradientUnits="userSpaceOnUse">
<stop stop-color="#541715"/>
<stop offset="0.08" stop-color="#8C5027"/>
<stop offset="0.38" stop-color="#C99351"/>
<stop offset="0.56" stop-color="#FFF1DB"/>
<stop offset="0.8" stop-color="#D5AF88"/>
<stop offset="0.94" stop-color="#9E5C2C"/>
<stop offset="0.96" stop-color="#9A5524"/>
</linearGradient>
<linearGradient id="paint7_linear_554_1793" x1="23.613" y1="-0.974245" x2="23.0417" y2="48.6196" gradientUnits="userSpaceOnUse">
<stop stop-color="#541715"/>
<stop offset="0.08" stop-color="#8C5027"/>
<stop offset="0.38" stop-color="#C99351"/>
<stop offset="0.56" stop-color="#FFF1DB"/>
<stop offset="0.8" stop-color="#D5AF88"/>
<stop offset="0.94" stop-color="#9E5C2C"/>
<stop offset="0.96" stop-color="#9A5524"/>
</linearGradient>
<linearGradient id="paint8_linear_554_1793" x1="23.6337" y1="-2.8258" x2="23.2001" y2="34.8183" gradientUnits="userSpaceOnUse">
<stop stop-color="#541715"/>
<stop offset="0.08" stop-color="#8C5027"/>
<stop offset="0.38" stop-color="#C99351"/>
<stop offset="0.56" stop-color="#FFF1DB"/>
<stop offset="0.8" stop-color="#D5AF88"/>
<stop offset="0.94" stop-color="#9E5C2C"/>
<stop offset="0.96" stop-color="#9A5524"/>
</linearGradient>
<linearGradient id="paint9_linear_554_1793" x1="-4.7893" y1="23.0093" x2="54.4261" y2="23.6915" gradientUnits="userSpaceOnUse">
<stop stop-color="#541715"/>
<stop offset="0.08" stop-color="#8C5027"/>
<stop offset="0.38" stop-color="#C99351"/>
<stop offset="0.56" stop-color="#FFF1DB"/>
<stop offset="0.8" stop-color="#D5AF88"/>
<stop offset="0.94" stop-color="#9E5C2C"/>
<stop offset="0.96" stop-color="#9A5524"/>
</linearGradient>
<linearGradient id="paint10_linear_554_1793" x1="68.1087" y1="23.8267" x2="-16.9953" y2="22.8463" gradientUnits="userSpaceOnUse">
<stop stop-color="#541715"/>
<stop offset="0.08" stop-color="#8C5027"/>
<stop offset="0.38" stop-color="#E3AE6C"/>
<stop offset="0.56" stop-color="#FFF6E7"/>
<stop offset="0.8" stop-color="#D5AF88"/>
<stop offset="0.94" stop-color="#9E5C2C"/>
<stop offset="0.96" stop-color="#9A5524"/>
</linearGradient>
<linearGradient id="paint11_linear_554_1793" x1="23.2479" y1="36.585" x2="23.2479" y2="12.5795" gradientUnits="userSpaceOnUse">
<stop stop-color="#8C551D"/>
<stop offset="1" stop-color="#DB9035"/>
</linearGradient>
<linearGradient id="paint12_linear_554_1793" x1="25.0234" y1="19.503" x2="28.9607" y2="19.503" gradientUnits="userSpaceOnUse">
<stop stop-color="#EBBB83" stop-opacity="0"/>
<stop offset="1" stop-color="#CD802A"/>
</linearGradient>
<linearGradient id="paint13_linear_554_1793" x1="21.0862" y1="29.347" x2="21.0862" y2="17.5336" gradientUnits="userSpaceOnUse">
<stop stop-color="#BE6500"/>
<stop offset="1" stop-color="#FFE3C0"/>
</linearGradient>
</defs>
</svg>
