<svg width="88" height="88" viewBox="0 0 88 88" fill="none" xmlns="http://www.w3.org/2000/svg">
<g clip-path="url(#clip0_1596_26645)">
<circle cx="44" cy="44" r="44" fill="url(#paint0_linear_1596_26645)"/>
<mask id="mask0_1596_26645" style="mask-type:alpha" maskUnits="userSpaceOnUse" x="0" y="0" width="88" height="88">
<circle cx="44" cy="44" r="44" fill="black"/>
</mask>
<g mask="url(#mask0_1596_26645)">
<path d="M22.6412 28.0154V26.9452C22.6412 26.8075 22.6959 26.6755 22.7933 26.5781C22.8906 26.4807 23.0227 26.426 23.1604 26.426C23.2981 26.426 23.4302 26.4807 23.5276 26.5781C23.625 26.6755 23.6797 26.8075 23.6797 26.9452V28.0164C23.6797 28.1541 23.625 28.2862 23.5276 28.3836C23.4302 28.481 23.2981 28.5356 23.1604 28.5356C23.0227 28.5356 22.8906 28.481 22.7933 28.3836C22.6959 28.2862 22.6412 28.1531 22.6412 28.0154ZM25.6203 27.4956L25.0847 26.5681C25.0186 26.4489 25.0019 26.3085 25.0383 26.1772C25.0747 26.0458 25.1613 25.934 25.2793 25.8658C25.3973 25.7977 25.5374 25.7787 25.6693 25.8128C25.8013 25.8469 25.9146 25.9315 25.9848 26.0483L26.5204 26.9758C26.582 27.0946 26.5955 27.2325 26.558 27.3609C26.5206 27.4893 26.435 27.5984 26.3192 27.6653C26.2034 27.7323 26.0663 27.752 25.9363 27.7204C25.8063 27.6888 25.6925 27.6083 25.6203 27.4956ZM19.9917 27.6858C19.8727 27.6168 19.7858 27.5035 19.7501 27.3706C19.7145 27.2378 19.733 27.0962 19.8015 26.9769L20.3372 26.0494C20.4059 25.9301 20.5193 25.8432 20.6522 25.8075C20.7851 25.7718 20.9268 25.7904 21.046 25.8592C21.1652 25.928 21.2522 26.0413 21.2879 26.1742C21.3236 26.3072 21.305 26.4489 21.2362 26.5681L20.7006 27.4956C20.6665 27.5547 20.6212 27.6064 20.5671 27.648C20.5131 27.6895 20.4514 27.7199 20.3856 27.7376C20.3197 27.7553 20.2511 27.7598 20.1835 27.7509C20.1159 27.742 20.0508 27.7198 19.9917 27.6858ZM27.9412 25.556L27.0137 25.0204C26.9514 24.988 26.8962 24.9434 26.8516 24.8891C26.807 24.8349 26.7739 24.7721 26.7542 24.7047C26.7346 24.6373 26.7287 24.5666 26.7372 24.4968C26.7456 24.4271 26.768 24.3598 26.8032 24.299C26.8383 24.2381 26.8855 24.1851 26.9418 24.143C26.998 24.101 27.0622 24.0707 27.1304 24.0541C27.1987 24.0375 27.2695 24.0349 27.3388 24.0465C27.4081 24.058 27.4743 24.0836 27.5335 24.1214L28.461 24.657C28.52 24.6911 28.5718 24.7364 28.6133 24.7905C28.6548 24.8445 28.6853 24.9062 28.7029 24.972C28.7206 25.0379 28.7251 25.1066 28.7162 25.1741C28.7073 25.2417 28.6852 25.3069 28.6511 25.3659C28.6171 25.4249 28.5717 25.4767 28.5177 25.5182C28.4636 25.5597 28.4019 25.5901 28.3361 25.6077C28.2703 25.6254 28.2017 25.63 28.1341 25.6211C28.0665 25.6122 28.0014 25.5901 27.9423 25.556H27.9412ZM17.6718 25.3659C17.6032 25.2466 17.5848 25.1051 17.6204 24.9722C17.6561 24.8393 17.7429 24.7259 17.862 24.657L18.7895 24.1214C18.9088 24.0527 19.0504 24.034 19.1833 24.0697C19.3162 24.1053 19.4296 24.1924 19.4984 24.3116C19.5671 24.4308 19.5858 24.5724 19.5501 24.7054C19.5145 24.8383 19.4274 24.9516 19.3082 25.0204L18.3807 25.556C18.2613 25.6249 18.1195 25.6436 17.9863 25.6079C17.8532 25.5723 17.7407 25.4852 17.6718 25.3659ZM27.9096 22.7153C27.7719 22.7153 27.6398 22.6606 27.5424 22.5633C27.4451 22.4659 27.3903 22.3338 27.3903 22.1961C27.3903 22.0584 27.4451 21.9264 27.5424 21.829C27.6398 21.7316 27.7719 21.6769 27.9096 21.6769H28.9808C29.1185 21.6769 29.2505 21.7316 29.3479 21.829C29.4453 21.9264 29.5 22.0584 29.5 22.1961C29.5 22.3338 29.4453 22.4659 29.3479 22.5633C29.2505 22.6606 29.1185 22.7153 28.9808 22.7153H27.9096ZM17.3454 22.7153C17.2077 22.7153 17.0757 22.6606 16.9783 22.5633C16.8809 22.4659 16.8262 22.3338 16.8262 22.1961C16.8262 22.0584 16.8809 21.9264 16.9783 21.829C17.0757 21.7316 17.2077 21.6769 17.3454 21.6769H18.4166C18.5543 21.6769 18.6864 21.7316 18.7837 21.829C18.8811 21.9264 18.9358 22.0584 18.9358 22.1961C18.9358 22.3338 18.8811 22.4659 18.7837 22.5633C18.6864 22.6606 18.5543 22.7153 18.4166 22.7153H17.3454ZM26.8225 20.0785C26.7884 20.0195 26.7663 19.9543 26.7574 19.8868C26.7485 19.8192 26.753 19.7505 26.7707 19.6847C26.7884 19.6188 26.8188 19.5572 26.8603 19.5031C26.9018 19.4491 26.9536 19.4037 27.0127 19.3696L27.9402 18.8341C27.9992 18.8 28.0644 18.7779 28.132 18.769C28.1995 18.7601 28.2681 18.7646 28.334 18.7823C28.3998 18.8 28.4616 18.8304 28.5156 18.8719C28.5697 18.9134 28.615 18.9652 28.649 19.0242C28.6831 19.0833 28.7052 19.1484 28.7141 19.216C28.7229 19.2836 28.7184 19.3522 28.7008 19.418C28.6831 19.4838 28.6527 19.5456 28.6112 19.5996C28.5697 19.6537 28.5179 19.699 28.4589 19.733L27.5313 20.2687C27.4723 20.3028 27.4072 20.3249 27.3396 20.3338C27.272 20.3427 27.2033 20.3382 27.1375 20.3205C27.0717 20.3028 27.01 20.2724 26.9559 20.2309C26.9019 20.1894 26.8566 20.1376 26.8225 20.0785ZM18.7937 20.2687L17.8662 19.733C17.8072 19.6989 17.7555 19.6535 17.714 19.5994C17.6725 19.5453 17.6421 19.4835 17.6245 19.4177C17.6069 19.3518 17.6024 19.2831 17.6113 19.2155C17.6203 19.1479 17.6425 19.0827 17.6766 19.0237C17.7107 18.9647 17.7561 18.913 17.8102 18.8715C17.8644 18.83 17.9261 18.7996 17.992 18.782C18.0579 18.7644 18.1266 18.7599 18.1941 18.7688C18.2617 18.7778 18.3269 18.8 18.386 18.8341L19.3135 19.3696C19.4327 19.4384 19.5198 19.5517 19.5554 19.6847C19.5911 19.8176 19.5724 19.9593 19.5036 20.0785C19.4349 20.1977 19.3215 20.2847 19.1886 20.3204C19.0557 20.356 18.914 20.3374 18.7948 20.2687H18.7937ZM20.6573 18.5784C20.5911 18.561 20.529 18.5306 20.4746 18.4891C20.4202 18.4476 20.3746 18.3957 20.3403 18.3365L19.8048 17.409C19.7431 17.2903 19.7296 17.1523 19.7671 17.0239C19.8046 16.8955 19.8901 16.7865 20.0059 16.7195C20.1217 16.6526 20.2589 16.6328 20.3889 16.6644C20.5188 16.696 20.6316 16.7766 20.7037 16.8892L21.2393 17.8167C21.291 17.9056 21.3152 18.0077 21.3087 18.1103C21.3022 18.2129 21.2653 18.3112 21.2028 18.3929C21.1404 18.4745 21.055 18.5356 20.9577 18.5687C20.8604 18.6017 20.7554 18.6051 20.6562 18.5784H20.6573ZM25.2791 18.5266C25.2201 18.4926 25.1683 18.4473 25.1267 18.3932C25.0852 18.3392 25.0548 18.2774 25.0371 18.2116C25.0195 18.1458 25.0149 18.0771 25.0238 18.0095C25.0327 17.942 25.0548 17.8768 25.0889 17.8178L25.6245 16.8902C25.6967 16.7776 25.8095 16.6971 25.9394 16.6655C26.0694 16.6339 26.2066 16.6536 26.3224 16.7205C26.4382 16.7875 26.5237 16.8965 26.5612 17.0249C26.5987 17.1534 26.5852 17.2913 26.5235 17.41L25.9879 18.3375C25.919 18.4569 25.8055 18.544 25.6724 18.5796C25.5392 18.6153 25.3974 18.5966 25.278 18.5277L25.2791 18.5266ZM22.7976 17.8083C22.7494 17.76 22.7113 17.7026 22.6853 17.6396C22.6594 17.5765 22.6462 17.5088 22.6465 17.4406V16.3811C22.6465 16.2434 22.7012 16.1113 22.7986 16.0139C22.8959 15.9165 23.028 15.8618 23.1657 15.8618C23.3034 15.8618 23.4355 15.9165 23.5328 16.0139C23.6302 16.1113 23.6849 16.2434 23.6849 16.3811V17.4522C23.6848 17.5549 23.6542 17.6552 23.5972 17.7405C23.5401 17.8257 23.4591 17.8922 23.3644 17.9315C23.2696 17.9708 23.1653 17.9812 23.0646 17.9614C22.9639 17.9415 22.8714 17.8923 22.7986 17.8199L22.7976 17.8083Z" fill="#D3E1FE"/>
<g filter="url(#filter0_d_1596_26645)">
<rect x="23" y="21" width="40" height="45" rx="4" fill="url(#paint1_linear_1596_26645)"/>
</g>
<path d="M29.7039 44L32.827 34.8086H35.6961L38.8065 44H36.4832L35.8612 42.0322H32.662L32.0399 44H29.7039ZM35.3407 40.3818L34.2996 37.0811H34.2235L33.1825 40.3818H35.3407ZM38.4424 44L41.5654 34.8086H44.4346L47.5449 44H45.2217L44.5996 42.0322H41.4004L40.7783 44H38.4424ZM44.0791 40.3818L43.0381 37.0811H42.9619L41.9209 40.3818H44.0791ZM47.1808 44L50.3039 34.8086H53.173L56.2834 44H53.9601L53.338 42.0322H50.1388L49.5168 44H47.1808ZM52.8175 40.3818L51.7765 37.0811H51.7004L50.6593 40.3818H52.8175Z" fill="white"/>
<path d="M48.9989 19.7054H46.3153C46.1584 18.9414 45.7428 18.2549 45.1386 17.762C44.5344 17.2692 43.7787 17 42.9991 17C42.2195 17 41.4638 17.2692 40.8596 17.762C40.2554 18.2549 39.8398 18.9414 39.6829 19.7054H36.9993C36.1855 19.7261 35.413 20.0687 34.851 20.6579C34.289 21.2472 33.9833 22.0352 34.0007 22.8494V24.2H51.9993V22.8494C52.0167 22.0349 51.7107 21.2466 51.1483 20.6573C50.586 20.068 49.813 19.7257 48.9989 19.7054ZM43 21.5061C42.8204 21.5147 42.6424 21.4694 42.4888 21.3758C42.3353 21.2823 42.2132 21.1449 42.1384 20.9813C42.0637 20.8177 42.0395 20.6355 42.0692 20.4581C42.0989 20.2807 42.181 20.1162 42.305 19.986C42.429 19.8557 42.5891 19.7655 42.7647 19.7272C42.9404 19.6888 43.1235 19.7039 43.2905 19.7706C43.4574 19.8373 43.6006 19.9525 43.7015 20.1013C43.8025 20.2502 43.8565 20.4259 43.8567 20.6057C43.8621 20.8387 43.7749 21.0642 43.6143 21.233C43.4537 21.4018 43.2328 21.5 43 21.5061Z" fill="#4E7AD9"/>
<path d="M30.4111 51.3237H44.5" stroke="white" stroke-opacity="0.6" stroke-width="2" stroke-linecap="round"/>
<path d="M30.4111 57.5737H44.5" stroke="white" stroke-opacity="0.6" stroke-width="2" stroke-linecap="round"/>
<g filter="url(#filter1_d_1596_26645)">
<circle cx="60" cy="59" r="10" fill="url(#paint2_linear_1596_26645)"/>
</g>
<path d="M57.1716 61.8284L62.8284 56.1716M57.1716 56.1716L62.8284 61.8284L57.1716 56.1716Z" stroke="white" stroke-width="2" stroke-linecap="round" stroke-linejoin="round"/>
</g>
<g opacity="0.2" filter="url(#filter2_i_1596_26645)">
<path d="M76 27.25C76.8284 27.25 77.5 26.5784 77.5 25.75C77.5 24.9216 76.8284 24.25 76 24.25C75.1716 24.25 74.5 24.9216 74.5 25.75C74.5 26.5784 75.1716 27.25 76 27.25Z" fill="#6695FA"/>
</g>
<g opacity="0.2" filter="url(#filter3_i_1596_26645)">
<path d="M81.5 9.5C83.7091 9.5 85.5 7.70914 85.5 5.5C85.5 3.29086 83.7091 1.5 81.5 1.5C79.2909 1.5 77.5 3.29086 77.5 5.5C77.5 7.70914 79.2909 9.5 81.5 9.5Z" fill="#6695FA"/>
</g>
<path opacity="0.5" d="M5.16309 83C6.5438 83 7.66309 81.8807 7.66309 80.5C7.66309 79.1193 6.5438 78 5.16309 78C3.78237 78 2.66309 79.1193 2.66309 80.5C2.66309 81.8807 3.78237 83 5.16309 83Z" fill="#D1DBFA"/>
</g>
<defs>
<filter id="filter0_d_1596_26645" x="-17" y="5" width="120" height="125" filterUnits="userSpaceOnUse" color-interpolation-filters="sRGB">
<feFlood flood-opacity="0" result="BackgroundImageFix"/>
<feColorMatrix in="SourceAlpha" type="matrix" values="0 0 0 0 0 0 0 0 0 0 0 0 0 0 0 0 0 0 127 0" result="hardAlpha"/>
<feOffset dy="24"/>
<feGaussianBlur stdDeviation="20"/>
<feComposite in2="hardAlpha" operator="out"/>
<feColorMatrix type="matrix" values="0 0 0 0 0.162629 0 0 0 0 0.322219 0 0 0 0 0.960579 0 0 0 0.2 0"/>
<feBlend mode="normal" in2="BackgroundImageFix" result="effect1_dropShadow_1596_26645"/>
<feBlend mode="normal" in="SourceGraphic" in2="effect1_dropShadow_1596_26645" result="shape"/>
</filter>
<filter id="filter1_d_1596_26645" x="46" y="49" width="28" height="28" filterUnits="userSpaceOnUse" color-interpolation-filters="sRGB">
<feFlood flood-opacity="0" result="BackgroundImageFix"/>
<feColorMatrix in="SourceAlpha" type="matrix" values="0 0 0 0 0 0 0 0 0 0 0 0 0 0 0 0 0 0 127 0" result="hardAlpha"/>
<feOffset dy="4"/>
<feGaussianBlur stdDeviation="2"/>
<feComposite in2="hardAlpha" operator="out"/>
<feColorMatrix type="matrix" values="0 0 0 0 0.289401 0 0 0 0 0.068138 0 0 0 0 0.59917 0 0 0 0.15 0"/>
<feBlend mode="normal" in2="BackgroundImageFix" result="effect1_dropShadow_1596_26645"/>
<feBlend mode="normal" in="SourceGraphic" in2="effect1_dropShadow_1596_26645" result="shape"/>
</filter>
<filter id="filter2_i_1596_26645" x="74.5" y="23.25" width="3" height="4" filterUnits="userSpaceOnUse" color-interpolation-filters="sRGB">
<feFlood flood-opacity="0" result="BackgroundImageFix"/>
<feBlend mode="normal" in="SourceGraphic" in2="BackgroundImageFix" result="shape"/>
<feColorMatrix in="SourceAlpha" type="matrix" values="0 0 0 0 0 0 0 0 0 0 0 0 0 0 0 0 0 0 127 0" result="hardAlpha"/>
<feOffset dy="-1"/>
<feGaussianBlur stdDeviation="2"/>
<feComposite in2="hardAlpha" operator="arithmetic" k2="-1" k3="1"/>
<feColorMatrix type="matrix" values="0 0 0 0 0.340564 0 0 0 0 0.123427 0 0 0 0 0.774837 0 0 0 0.25 0"/>
<feBlend mode="normal" in2="shape" result="effect1_innerShadow_1596_26645"/>
</filter>
<filter id="filter3_i_1596_26645" x="77.5" y="0.5" width="8" height="9" filterUnits="userSpaceOnUse" color-interpolation-filters="sRGB">
<feFlood flood-opacity="0" result="BackgroundImageFix"/>
<feBlend mode="normal" in="SourceGraphic" in2="BackgroundImageFix" result="shape"/>
<feColorMatrix in="SourceAlpha" type="matrix" values="0 0 0 0 0 0 0 0 0 0 0 0 0 0 0 0 0 0 127 0" result="hardAlpha"/>
<feOffset dy="-1"/>
<feGaussianBlur stdDeviation="2"/>
<feComposite in2="hardAlpha" operator="arithmetic" k2="-1" k3="1"/>
<feColorMatrix type="matrix" values="0 0 0 0 0.340564 0 0 0 0 0.123427 0 0 0 0 0.774837 0 0 0 0.25 0"/>
<feBlend mode="normal" in2="shape" result="effect1_innerShadow_1596_26645"/>
</filter>
<linearGradient id="paint0_linear_1596_26645" x1="72" y1="88" x2="22.5" y2="12.998" gradientUnits="userSpaceOnUse">
<stop stop-color="#F1F5FC"/>
<stop offset="1" stop-color="#F4F6FA"/>
</linearGradient>
<linearGradient id="paint1_linear_1596_26645" x1="34.75" y1="18.4487" x2="62.1865" y2="52.1585" gradientUnits="userSpaceOnUse">
<stop stop-color="#B3CBFF"/>
<stop offset="1" stop-color="#6091F9"/>
</linearGradient>
<linearGradient id="paint2_linear_1596_26645" x1="54.8" y1="47.2353" x2="72.3775" y2="66.2711" gradientUnits="userSpaceOnUse">
<stop stop-color="#D0B8FF"/>
<stop offset="1" stop-color="#9B7AFF"/>
</linearGradient>
<clipPath id="clip0_1596_26645">
<rect width="88" height="88" fill="white"/>
</clipPath>
</defs>
</svg>
