<svg width="61" height="61" viewBox="0 0 61 61" fill="none" xmlns="http://www.w3.org/2000/svg">
<rect x="0.5" y="0.5" width="60" height="60" rx="30" fill="#F2F5FF"/>
<path d="M37.498 41.4963V25.4963H40.498V41.4963H37.498ZM28.498 41.4963V25.4963H32.498V41.4963H28.498ZM20.498 41.4963V25.4963H23.498V41.4963H20.498Z" fill="#CDD2ED"/>
<path d="M30.5 16.4998C33.4174 16.4998 36.2153 17.6587 38.2782 19.7216C40.3411 21.7845 41.5 24.5824 41.5 27.4998H19.5C19.5 24.5824 20.6589 21.7845 22.7218 19.7216C24.7847 17.6587 27.5826 16.4998 30.5 16.4998Z" fill="#CDD2ED"/>
<path d="M18.5 42.5004C18.2348 42.5004 17.9803 42.3949 17.7927 42.2074C17.6052 42.0199 17.5 41.7656 17.5 41.5004V40.5004C17.5 40.2351 17.6052 39.9809 17.7927 39.7933C17.9803 39.6058 18.2348 39.5004 18.5 39.5004H42.5C42.7652 39.5004 43.0195 39.6058 43.207 39.7933C43.3946 39.9809 43.5 40.2351 43.5 40.5004V41.5004C43.5 41.7656 43.3946 42.0199 43.207 42.2074C43.0195 42.3949 42.7652 42.5004 42.5 42.5004H18.5ZM18 28.5004C17.8674 28.5004 17.74 28.4476 17.6462 28.3539C17.5525 28.2601 17.5 28.133 17.5 28.0004V27.0004C17.5 26.6025 17.6579 26.2211 17.9392 25.9398C18.2205 25.6585 18.6022 25.5004 19 25.5004H42C42.3978 25.5004 42.7792 25.6585 43.0605 25.9398C43.3419 26.2211 43.5 26.6025 43.5 27.0004V28.0004C43.5 28.133 43.4473 28.2601 43.3535 28.3539C43.2597 28.4476 43.1326 28.5004 43 28.5004H18Z" fill="url(#paint0_linear_1596_25987)"/>
<g filter="url(#filter0_di_1596_25987)">
<rect x="33.5" y="33.5" width="14" height="14" rx="7" fill="white"/>
</g>
<g clip-path="url(#clip0_1596_25987)">
<path d="M43.9886 40.1806C42.8082 39.3535 41.297 39.6907 40.5043 40.9339C39.8413 41.9723 38.8424 42.1008 38.4548 42.1008C37.1929 42.1008 36.3286 41.1859 36.0731 40.2391C36.0706 40.2302 36.0681 40.2226 36.0657 40.2124C36.0632 40.2022 36.0607 40.1921 36.057 40.1806C35.957 39.7861 35.9311 39.5965 35.9311 39.1779C35.9311 36.9141 38.1856 34.3933 41.4316 34.3933C44.6775 34.3933 46.6579 37.0019 47.1481 38.4513C47.1395 38.4258 47.1321 38.4004 47.1234 38.3737C46.1801 35.5385 43.5713 33.5 40.5006 33.5C36.6348 33.5 33.5 36.7296 33.5 40.7138C33.5 44.2755 35.9928 47.3244 39.4499 47.3244C42.2069 47.3244 44.0602 45.7312 44.9109 43.5349C45.3776 42.3337 45.0467 40.9225 43.9886 40.1806Z" fill="#003863"/>
<path d="M47.1909 38.5912C46.7822 37.1775 44.866 34.3933 41.4311 34.3933C38.1852 34.3933 35.9307 36.9141 35.9307 39.1779C35.9307 39.5978 35.9554 39.7861 36.0566 40.1806C36.0146 40.0075 35.9924 39.8345 35.9924 39.6665C35.9924 37.3086 38.2827 35.6747 40.6385 35.6747C43.8264 35.6747 46.4106 38.338 46.4106 41.6223C46.4106 44.1979 44.9734 46.426 42.8831 47.4974C45.576 46.4947 47.4996 43.8352 47.4996 40.7138C47.4996 39.9744 47.4033 39.3242 47.1909 38.5912Z" fill="#E4032E"/>
</g>
<defs>
<filter id="filter0_di_1596_25987" x="32" y="32.5" width="16" height="16" filterUnits="userSpaceOnUse" color-interpolation-filters="sRGB">
<feFlood flood-opacity="0" result="BackgroundImageFix"/>
<feColorMatrix in="SourceAlpha" type="matrix" values="0 0 0 0 0 0 0 0 0 0 0 0 0 0 0 0 0 0 127 0" result="hardAlpha"/>
<feOffset dx="-0.5"/>
<feGaussianBlur stdDeviation="0.5"/>
<feComposite in2="hardAlpha" operator="out"/>
<feColorMatrix type="matrix" values="0 0 0 0 0.0784314 0 0 0 0 0.168627 0 0 0 0 0.313726 0 0 0 0.16 0"/>
<feBlend mode="normal" in2="BackgroundImageFix" result="effect1_dropShadow_1596_25987"/>
<feBlend mode="normal" in="SourceGraphic" in2="effect1_dropShadow_1596_25987" result="shape"/>
<feColorMatrix in="SourceAlpha" type="matrix" values="0 0 0 0 0 0 0 0 0 0 0 0 0 0 0 0 0 0 127 0" result="hardAlpha"/>
<feOffset dx="0.2" dy="0.2"/>
<feGaussianBlur stdDeviation="0.5"/>
<feComposite in2="hardAlpha" operator="arithmetic" k2="-1" k3="1"/>
<feColorMatrix type="matrix" values="0 0 0 0 1 0 0 0 0 1 0 0 0 0 1 0 0 0 0.5 0"/>
<feBlend mode="normal" in2="shape" result="effect2_innerShadow_1596_25987"/>
</filter>
<linearGradient id="paint0_linear_1596_25987" x1="17.5" y1="21.4999" x2="43.5" y2="45.9999" gradientUnits="userSpaceOnUse">
<stop stop-color="#C6CBE3"/>
<stop offset="1" stop-color="#888FC2"/>
</linearGradient>
<clipPath id="clip0_1596_25987">
<rect width="14" height="14" fill="white" transform="translate(33.5 33.5)"/>
</clipPath>
</defs>
</svg>
