<svg width="80" height="80" viewBox="0 0 80 80" fill="none" xmlns="http://www.w3.org/2000/svg">
<rect width="80" height="80" rx="16" fill="#F2F5FF"/>
<path d="M55.2308 18H24.7692C21.0307 18 18 21.0307 18 24.7692V55.2308C18 58.9693 21.0307 62 24.7692 62H55.2308C58.9693 62 62 58.9693 62 55.2308V24.7692C62 21.0307 58.9693 18 55.2308 18Z" fill="url(#paint0_linear_404_2346)"/>
<path d="M29 51.5879V49.6723C29 44.9671 32.3288 41.15 36.4401 41.15H44.5575C48.6655 41.15 52 44.9671 52 49.6723V51.5879H29ZM35.5728 33.5164C35.5728 32.5417 35.8616 31.5883 36.4032 30.7778C36.9449 29.9673 37.7153 29.3363 38.6161 28.9633C39.5169 28.5902 40.5082 28.4923 41.4644 28.6825C42.4207 28.8727 43.2984 29.3425 43.9878 30.0318C44.6772 30.7211 45.1471 31.5994 45.3373 32.5554C45.5275 33.5115 45.4296 34.5026 45.0565 35.4032C44.6834 36.3037 44.0515 37.0724 43.2408 37.614C42.4301 38.1555 41.4774 38.445 40.5024 38.445C39.195 38.445 37.9415 37.9254 37.017 37.0011C36.0925 36.0768 35.5728 34.8236 35.5728 33.5164Z" fill="white"/>
<g filter="url(#filter0_d_404_2346)">
<circle cx="55" cy="54" r="10" fill="url(#paint1_linear_404_2346)"/>
</g>
<path fill-rule="evenodd" clip-rule="evenodd" d="M59.7659 50.7538C60.1614 51.1492 60.1614 51.7903 59.7659 52.1857L54.3659 57.5857C53.9705 57.9811 53.3295 57.9811 52.9341 57.5857L50.2341 54.8857C49.8386 54.4903 49.8386 53.8492 50.2341 53.4538C50.6295 53.0584 51.2705 53.0584 51.6659 53.4538L53.65 55.4379L58.3341 50.7538C58.7295 50.3584 59.3705 50.3584 59.7659 50.7538Z" fill="white"/>
<defs>
<filter id="filter0_d_404_2346" x="41" y="44" width="28" height="28" filterUnits="userSpaceOnUse" color-interpolation-filters="sRGB">
<feFlood flood-opacity="0" result="BackgroundImageFix"/>
<feColorMatrix in="SourceAlpha" type="matrix" values="0 0 0 0 0 0 0 0 0 0 0 0 0 0 0 0 0 0 127 0" result="hardAlpha"/>
<feOffset dy="4"/>
<feGaussianBlur stdDeviation="2"/>
<feComposite in2="hardAlpha" operator="out"/>
<feColorMatrix type="matrix" values="0 0 0 0 0.068138 0 0 0 0 0.59917 0 0 0 0 0.492964 0 0 0 0.15 0"/>
<feBlend mode="normal" in2="BackgroundImageFix" result="effect1_dropShadow_404_2346"/>
<feBlend mode="normal" in="SourceGraphic" in2="effect1_dropShadow_404_2346" result="shape"/>
</filter>
<linearGradient id="paint0_linear_404_2346" x1="30.925" y1="15.5054" x2="56.9472" y2="51.4742" gradientUnits="userSpaceOnUse">
<stop stop-color="#B3CBFF"/>
<stop offset="1" stop-color="#6091F9"/>
</linearGradient>
<linearGradient id="paint1_linear_404_2346" x1="48.8218" y1="39.9958" x2="67.9751" y2="60.7101" gradientUnits="userSpaceOnUse">
<stop stop-color="#83EBF8"/>
<stop offset="1" stop-color="#33ACBD"/>
</linearGradient>
</defs>
</svg>
