<svg width="80" height="80" viewBox="0 0 80 80" fill="none" xmlns="http://www.w3.org/2000/svg">
<rect width="80" height="80" rx="16" fill="#F2F5FF"/>
<rect x="29" y="16" width="22" height="31" rx="11" stroke="#CDD2ED" stroke-width="4"/>
<rect x="21" y="31" width="38" height="30" rx="5" fill="url(#paint0_linear_404_2358)"/>
<circle cx="40" cy="43" r="3" fill="white"/>
<rect x="39" y="44" width="2" height="7" rx="1" fill="white"/>
<g filter="url(#filter0_d_404_2358)">
<circle cx="55" cy="54" r="10" fill="url(#paint1_linear_404_2358)"/>
</g>
<path fill-rule="evenodd" clip-rule="evenodd" d="M59.7659 50.7538C60.1614 51.1492 60.1614 51.7903 59.7659 52.1857L54.3659 57.5857C53.9705 57.9811 53.3295 57.9811 52.9341 57.5857L50.2341 54.8857C49.8386 54.4903 49.8386 53.8492 50.2341 53.4538C50.6295 53.0584 51.2705 53.0584 51.6659 53.4538L53.65 55.4379L58.3341 50.7538C58.7295 50.3584 59.3705 50.3584 59.7659 50.7538Z" fill="white"/>
<defs>
<filter id="filter0_d_404_2358" x="41" y="44" width="28" height="28" filterUnits="userSpaceOnUse" color-interpolation-filters="sRGB">
<feFlood flood-opacity="0" result="BackgroundImageFix"/>
<feColorMatrix in="SourceAlpha" type="matrix" values="0 0 0 0 0 0 0 0 0 0 0 0 0 0 0 0 0 0 127 0" result="hardAlpha"/>
<feOffset dy="4"/>
<feGaussianBlur stdDeviation="2"/>
<feComposite in2="hardAlpha" operator="out"/>
<feColorMatrix type="matrix" values="0 0 0 0 0.068138 0 0 0 0 0.59917 0 0 0 0 0.492964 0 0 0 0.15 0"/>
<feBlend mode="normal" in2="BackgroundImageFix" result="effect1_dropShadow_404_2358"/>
<feBlend mode="normal" in="SourceGraphic" in2="effect1_dropShadow_404_2358" result="shape"/>
</filter>
<linearGradient id="paint0_linear_404_2358" x1="32.1625" y1="29.2992" x2="48.2523" y2="57.4696" gradientUnits="userSpaceOnUse">
<stop stop-color="#B3CBFF"/>
<stop offset="1" stop-color="#6091F9"/>
</linearGradient>
<linearGradient id="paint1_linear_404_2358" x1="48.8218" y1="39.9958" x2="67.9751" y2="60.7101" gradientUnits="userSpaceOnUse">
<stop stop-color="#83EBF8"/>
<stop offset="1" stop-color="#33ACBD"/>
</linearGradient>
</defs>
</svg>
