<svg width="30" height="26" viewBox="0 0 30 26" fill="none" xmlns="http://www.w3.org/2000/svg">
<rect x="17" y="10" width="13" height="16" rx="2" fill="#C0D4FF"/>
<rect width="13" height="16" rx="2" transform="matrix(-1 0 0 1 13 10)" fill="#C0D4FF"/>
<path d="M6.00098 3C6.00098 1.34315 7.34412 0 9.00098 0H21.001C22.6578 0 24.001 1.34315 24.001 3V26H6.00098V3Z" fill="url(#paint0_linear_9508_41453)"/>
<path d="M11.75 13.5C11.5511 13.5 11.3603 13.421 11.2197 13.2803C11.079 13.1397 11 12.9489 11 12.75C11 12.5511 11.079 12.3603 11.2197 12.2197C11.3603 12.079 11.5511 12 11.75 12H18.25C18.4489 12 18.6397 12.079 18.7803 12.2197C18.921 12.3603 19 12.5511 19 12.75C19 12.9489 18.921 13.1397 18.7803 13.2803C18.6397 13.421 18.4489 13.5 18.25 13.5H11.75ZM11.75 10.5C11.5511 10.5 11.3603 10.421 11.2197 10.2803C11.079 10.1397 11 9.94891 11 9.75C11 9.55109 11.079 9.36032 11.2197 9.21967C11.3603 9.07902 11.5511 9 11.75 9H18.25C18.4489 9 18.6397 9.07902 18.7803 9.21967C18.921 9.36032 19 9.55109 19 9.75C19 9.94891 18.921 10.1397 18.7803 10.2803C18.6397 10.421 18.4489 10.5 18.25 10.5H11.75ZM11.75 7.5C11.5511 7.5 11.3603 7.42098 11.2197 7.28033C11.079 7.13968 11 6.94891 11 6.75C11 6.55109 11.079 6.36032 11.2197 6.21967C11.3603 6.07902 11.5511 6 11.75 6H18.25C18.4489 6 18.6397 6.07902 18.7803 6.21967C18.921 6.36032 19 6.55109 19 6.75C19 6.94891 18.921 7.13968 18.7803 7.28033C18.6397 7.42098 18.4489 7.5 18.25 7.5H11.75Z" fill="white"/>
<g filter="url(#filter0_i_9508_41453)">
<path d="M13.001 18H17.001C17.2662 18 17.5205 18.1054 17.7081 18.2929C17.8956 18.4804 18.001 18.7348 18.001 19V26H12.001V19C12.001 18.7348 12.1063 18.4804 12.2939 18.2929C12.4814 18.1054 12.7358 18 13.001 18Z" fill="#4E7AD9"/>
</g>
<path d="M26.5039 20.0029C26.3713 20.0029 26.2441 19.9503 26.1504 19.8565C26.0566 19.7627 26.0039 19.6355 26.0039 19.5029V18.5029C26.0039 18.3703 26.0566 18.2431 26.1504 18.1494C26.2441 18.0556 26.3713 18.0029 26.5039 18.0029H27.5039C27.6365 18.0029 27.7637 18.0556 27.8575 18.1494C27.9512 18.2431 28.0039 18.3703 28.0039 18.5029V19.5029C28.0039 19.6355 27.9512 19.7627 27.8575 19.8565C27.7637 19.9503 27.6365 20.0029 27.5039 20.0029H26.5039ZM26.5039 16.0029C26.3713 16.0029 26.2441 15.9503 26.1504 15.8565C26.0566 15.7627 26.0039 15.6355 26.0039 15.5029V14.5029C26.0039 14.3703 26.0566 14.2431 26.1504 14.1494C26.2441 14.0556 26.3713 14.0029 26.5039 14.0029H27.5039C27.6365 14.0029 27.7637 14.0556 27.8575 14.1494C27.9512 14.2431 28.0039 14.3703 28.0039 14.5029V15.5029C28.0039 15.6355 27.9512 15.7627 27.8575 15.8565C27.7637 15.9503 27.6365 16.0029 27.5039 16.0029H26.5039Z" fill="white" fill-opacity="0.7"/>
<path d="M2.50391 20.0029C2.3713 20.0029 2.24412 19.9503 2.15035 19.8565C2.05658 19.7627 2.00391 19.6355 2.00391 19.5029V18.5029C2.00391 18.3703 2.05658 18.2431 2.15035 18.1494C2.24412 18.0556 2.3713 18.0029 2.50391 18.0029H3.50391C3.63651 18.0029 3.76369 18.0556 3.85746 18.1494C3.95123 18.2431 4.00391 18.3703 4.00391 18.5029V19.5029C4.00391 19.6355 3.95123 19.7627 3.85746 19.8565C3.76369 19.9503 3.63651 20.0029 3.50391 20.0029H2.50391ZM2.50391 16.0029C2.3713 16.0029 2.24412 15.9503 2.15035 15.8565C2.05658 15.7627 2.00391 15.6355 2.00391 15.5029V14.5029C2.00391 14.3703 2.05658 14.2431 2.15035 14.1494C2.24412 14.0556 2.3713 14.0029 2.50391 14.0029H3.50391C3.63651 14.0029 3.76369 14.0556 3.85746 14.1494C3.95123 14.2431 4.00391 14.3703 4.00391 14.5029V15.5029C4.00391 15.6355 3.95123 15.7627 3.85746 15.8565C3.76369 15.9503 3.63651 16.0029 3.50391 16.0029H2.50391Z" fill="white" fill-opacity="0.7"/>
<defs>
<filter id="filter0_i_9508_41453" x="12.001" y="18" width="6.2" height="8.2" filterUnits="userSpaceOnUse" color-interpolation-filters="sRGB">
<feFlood flood-opacity="0" result="BackgroundImageFix"/>
<feBlend mode="normal" in="SourceGraphic" in2="BackgroundImageFix" result="shape"/>
<feColorMatrix in="SourceAlpha" type="matrix" values="0 0 0 0 0 0 0 0 0 0 0 0 0 0 0 0 0 0 127 0" result="hardAlpha"/>
<feOffset dx="0.2" dy="0.2"/>
<feGaussianBlur stdDeviation="0.5"/>
<feComposite in2="hardAlpha" operator="arithmetic" k2="-1" k3="1"/>
<feColorMatrix type="matrix" values="0 0 0 0 0 0 0 0 0 0 0 0 0 0 0 0 0 0 0.16 0"/>
<feBlend mode="normal" in2="shape" result="effect1_innerShadow_9508_41453"/>
</filter>
<linearGradient id="paint0_linear_9508_41453" x1="10.7667" y1="-4.29648e-07" x2="30.5049" y2="11.5424" gradientUnits="userSpaceOnUse">
<stop stop-color="#A8C4FF"/>
<stop offset="1" stop-color="#4A81F7"/>
</linearGradient>
</defs>
</svg>
