<svg width="80" height="80" viewBox="0 0 80 80" fill="none" xmlns="http://www.w3.org/2000/svg">
<rect width="80" height="80" rx="24" fill="#ECF3FF"/>
<path d="M44.625 36H60C62.2091 36 64 37.7909 64 40V59.0875H44.625V36Z" fill="#9EC2FE"/>
<path opacity="0.9" d="M57.75 48C57.5511 48 57.3604 48.0791 57.2197 48.2197C57.0791 48.3604 57 48.5511 57 48.75V50.25C57 50.4489 57.0791 50.6396 57.2197 50.7803C57.3604 50.9209 57.5511 51 57.75 51H59.25C59.4489 51 59.6396 50.9209 59.7803 50.7803C59.9209 50.6396 60 50.4489 60 50.25V48.75C60 48.5511 59.9209 48.3604 59.7803 48.2197C59.6396 48.0791 59.4489 48 59.25 48H57.75ZM57.75 42C57.5511 42 57.3604 42.0791 57.2197 42.2197C57.0791 42.3604 57 42.5511 57 42.75V44.25C57 44.4489 57.0791 44.6396 57.2197 44.7803C57.3604 44.9209 57.5511 45 57.75 45H59.25C59.4489 45 59.6396 44.9209 59.7803 44.7803C59.9209 44.6396 60 44.4489 60 44.25V42.75C60 42.5511 59.9209 42.3604 59.7803 42.2197C59.6396 42.0791 59.4489 42 59.25 42H57.75Z" fill="#F2F5FF"/>
<path d="M35.5 36H20C17.7909 36 16 37.7909 16 40V58.9995H35.5V36Z" fill="#9EC2FE"/>
<path opacity="0.9" d="M20.75 48C20.5511 48 20.3604 48.0791 20.2197 48.2197C20.0791 48.3604 20 48.5511 20 48.75V50.25C20 50.4489 20.0791 50.6396 20.2197 50.7803C20.3604 50.9209 20.5511 51 20.75 51H22.25C22.4489 51 22.6396 50.9209 22.7803 50.7803C22.9209 50.6396 23 50.4489 23 50.25V48.75C23 48.5511 22.9209 48.3604 22.7803 48.2197C22.6396 48.0791 22.4489 48 22.25 48H20.75ZM20.75 42C20.5511 42 20.3604 42.0791 20.2197 42.2197C20.0791 42.3604 20 42.5511 20 42.75V44.25C20 44.4489 20.0791 44.6396 20.2197 44.7803C20.3604 44.9209 20.5511 45 20.75 45H22.25C22.4489 45 22.6396 44.9209 22.7803 44.7803C22.9209 44.6396 23 44.4489 23 44.25V42.75C23 42.5511 22.9209 42.3604 22.7803 42.2197C22.6396 42.0791 22.4489 42 22.25 42H20.75Z" fill="#F2F5FF"/>
<path d="M26 25C26 22.7909 27.7909 21 30 21H50C52.2091 21 54 22.7909 54 25V60H26V25Z" fill="url(#paint0_linear_13806_2674)"/>
<path d="M34 50C34 48.8954 34.8954 48 36 48H44C45.1046 48 46 48.8954 46 50V59H34V50Z" fill="#406CCB"/>
<path d="M34 37C34.5523 37 35 37.4477 35 38V40C35 40.5523 34.5523 41 34 41H32C31.4477 41 31 40.5523 31 40V38C31 37.4477 31.4477 37 32 37H34ZM41 37C41.5523 37 42 37.4477 42 38V40C42 40.5523 41.5523 41 41 41H39C38.4477 41 38 40.5523 38 40V38C38 37.4477 38.4477 37 39 37H41ZM48 37C48.5523 37 49 37.4477 49 38V40C49 40.5523 48.5523 41 48 41H46C45.4477 41 45 40.5523 45 40V38C45 37.4477 45.4477 37 46 37H48ZM34 29C34.5523 29 35 29.4477 35 30V32C35 32.5522 34.5523 33 34 33H32C31.4477 33 31 32.5522 31 32V30C31 29.4477 31.4477 29 32 29H34ZM40.999 29C41.5513 29 41.999 29.4477 41.999 30V32C41.999 32.5523 41.5513 33 40.999 33H38.999C38.4469 32.9999 37.999 32.5522 37.999 32V30C37.999 29.4478 38.4469 29.0001 38.999 29H40.999ZM48.001 29C48.5531 29.0002 49.001 29.4479 49.001 30V32C49.001 32.5521 48.5531 32.9998 48.001 33H46.001C45.4487 33 45.001 32.5523 45.001 32V30C45.001 29.4477 45.4487 29 46.001 29H48.001Z" fill="white"/>
<path d="M14 58.75C14 57.7835 14.7835 57 15.75 57H64.25C65.2165 57 66 57.7835 66 58.75V59.125C66 59.6082 65.6082 60 65.125 60H14.875C14.3918 60 14 59.6082 14 59.125V58.75Z" fill="#4774D4"/>
<defs>
<linearGradient id="paint0_linear_13806_2674" x1="29.3478" y1="21" x2="48.3199" y2="60.6786" gradientUnits="userSpaceOnUse">
<stop stop-color="#A8C4FF"/>
<stop offset="1" stop-color="#4A81F7"/>
</linearGradient>
</defs>
</svg>
