<svg width="88" height="88" viewBox="0 0 88 88" fill="none" xmlns="http://www.w3.org/2000/svg">
<g clip-path="url(#clip0_2062_17169)">
<circle cx="44" cy="44" r="44" fill="url(#paint0_linear_2062_17169)"/>
<mask id="mask0_2062_17169" style="mask-type:alpha" maskUnits="userSpaceOnUse" x="0" y="0" width="88" height="88">
<circle cx="44" cy="44" r="44" fill="black"/>
</mask>
<g mask="url(#mask0_2062_17169)">
<path d="M22.6412 28.0149V26.9447C22.6412 26.807 22.6959 26.675 22.7933 26.5776C22.8906 26.4802 23.0227 26.4255 23.1604 26.4255C23.2981 26.4255 23.4302 26.4802 23.5276 26.5776C23.625 26.675 23.6797 26.807 23.6797 26.9447V28.0159C23.6797 28.1536 23.625 28.2857 23.5276 28.3831C23.4302 28.4805 23.2981 28.5352 23.1604 28.5352C23.0227 28.5352 22.8906 28.4805 22.7933 28.3831C22.6959 28.2857 22.6412 28.1526 22.6412 28.0149ZM25.6203 27.4951L25.0847 26.5676C25.0186 26.4484 25.0019 26.308 25.0383 26.1767C25.0747 26.0453 25.1613 25.9335 25.2793 25.8654C25.3973 25.7972 25.5374 25.7782 25.6693 25.8123C25.8013 25.8464 25.9146 25.931 25.9848 26.0478L26.5204 26.9754C26.582 27.0941 26.5955 27.232 26.558 27.3604C26.5206 27.4888 26.435 27.5979 26.3192 27.6648C26.2034 27.7318 26.0663 27.7515 25.9363 27.7199C25.8063 27.6883 25.6925 27.6078 25.6203 27.4951ZM19.9917 27.6853C19.8727 27.6163 19.7858 27.503 19.7501 27.3702C19.7145 27.2373 19.733 27.0957 19.8015 26.9765L20.3372 26.0489C20.4059 25.9297 20.5193 25.8427 20.6522 25.807C20.7851 25.7713 20.9268 25.7899 21.046 25.8587C21.1652 25.9275 21.2522 26.0408 21.2879 26.1738C21.3236 26.3067 21.305 26.4484 21.2362 26.5676L20.7006 27.4951C20.6665 27.5542 20.6212 27.606 20.5671 27.6475C20.5131 27.689 20.4514 27.7194 20.3856 27.7371C20.3197 27.7548 20.2511 27.7593 20.1835 27.7504C20.1159 27.7415 20.0508 27.7194 19.9917 27.6853ZM27.9412 25.5555L27.0137 25.0199C26.9514 24.9876 26.8962 24.9429 26.8516 24.8886C26.807 24.8344 26.7739 24.7717 26.7542 24.7042C26.7346 24.6368 26.7287 24.5661 26.7372 24.4964C26.7456 24.4266 26.768 24.3593 26.8032 24.2985C26.8383 24.2377 26.8855 24.1847 26.9418 24.1426C26.998 24.1005 27.0622 24.0702 27.1304 24.0536C27.1987 24.037 27.2695 24.0344 27.3388 24.046C27.4081 24.0575 27.4743 24.0831 27.5335 24.121L28.461 24.6565C28.52 24.6906 28.5718 24.7359 28.6133 24.79C28.6548 24.844 28.6853 24.9057 28.7029 24.9716C28.7206 25.0374 28.7251 25.1061 28.7162 25.1736C28.7073 25.2412 28.6852 25.3064 28.6511 25.3654C28.6171 25.4244 28.5717 25.4762 28.5177 25.5177C28.4636 25.5592 28.4019 25.5896 28.3361 25.6073C28.2703 25.6249 28.2017 25.6295 28.1341 25.6206C28.0665 25.6117 28.0014 25.5896 27.9423 25.5555H27.9412ZM17.6718 25.3654C17.6032 25.2461 17.5848 25.1046 17.6204 24.9717C17.6561 24.8388 17.7429 24.7255 17.862 24.6565L18.7895 24.121C18.9088 24.0522 19.0504 24.0335 19.1833 24.0692C19.3162 24.1048 19.4296 24.1919 19.4984 24.3111C19.5671 24.4303 19.5858 24.5719 19.5501 24.7049C19.5145 24.8378 19.4274 24.9511 19.3082 25.0199L18.3807 25.5555C18.2613 25.6244 18.1195 25.6431 17.9863 25.6074C17.8532 25.5718 17.7407 25.4847 17.6718 25.3654ZM27.9096 22.7148C27.7719 22.7148 27.6398 22.6601 27.5424 22.5628C27.4451 22.4654 27.3903 22.3333 27.3903 22.1956C27.3903 22.0579 27.4451 21.9259 27.5424 21.8285C27.6398 21.7311 27.7719 21.6764 27.9096 21.6764H28.9808C29.1185 21.6764 29.2505 21.7311 29.3479 21.8285C29.4453 21.9259 29.5 22.0579 29.5 22.1956C29.5 22.3333 29.4453 22.4654 29.3479 22.5628C29.2505 22.6601 29.1185 22.7148 28.9808 22.7148H27.9096ZM17.3454 22.7148C17.2077 22.7148 17.0757 22.6601 16.9783 22.5628C16.8809 22.4654 16.8262 22.3333 16.8262 22.1956C16.8262 22.0579 16.8809 21.9259 16.9783 21.8285C17.0757 21.7311 17.2077 21.6764 17.3454 21.6764H18.4166C18.5543 21.6764 18.6864 21.7311 18.7837 21.8285C18.8811 21.9259 18.9358 22.0579 18.9358 22.1956C18.9358 22.3333 18.8811 22.4654 18.7837 22.5628C18.6864 22.6601 18.5543 22.7148 18.4166 22.7148H17.3454ZM26.8225 20.078C26.7884 20.019 26.7663 19.9538 26.7574 19.8863C26.7485 19.8187 26.753 19.75 26.7707 19.6842C26.7884 19.6184 26.8188 19.5567 26.8603 19.5026C26.9018 19.4486 26.9536 19.4032 27.0127 19.3692L27.9402 18.8336C27.9992 18.7995 28.0644 18.7774 28.132 18.7685C28.1995 18.7597 28.2681 18.7642 28.334 18.7818C28.3998 18.7995 28.4616 18.8299 28.5156 18.8714C28.5697 18.9129 28.615 18.9647 28.649 19.0237C28.6831 19.0828 28.7052 19.1479 28.7141 19.2155C28.7229 19.2831 28.7184 19.3517 28.7008 19.4175C28.6831 19.4833 28.6527 19.5451 28.6112 19.5991C28.5697 19.6532 28.5179 19.6985 28.4589 19.7326L27.5313 20.2682C27.4723 20.3023 27.4072 20.3244 27.3396 20.3333C27.272 20.3422 27.2033 20.3377 27.1375 20.32C27.0717 20.3024 27.01 20.2719 26.9559 20.2304C26.9019 20.1889 26.8566 20.1371 26.8225 20.078ZM18.7937 20.2682L17.8662 19.7326C17.8072 19.6984 17.7555 19.653 17.714 19.5989C17.6725 19.5448 17.6421 19.4831 17.6245 19.4172C17.6069 19.3513 17.6024 19.2826 17.6113 19.215C17.6203 19.1474 17.6425 19.0823 17.6766 19.0232C17.7107 18.9642 17.7561 18.9125 17.8102 18.871C17.8644 18.8295 17.9261 18.7991 17.992 18.7815C18.0579 18.7639 18.1266 18.7594 18.1941 18.7683C18.2617 18.7773 18.3269 18.7995 18.386 18.8336L19.3135 19.3692C19.4327 19.4379 19.5198 19.5513 19.5554 19.6842C19.5911 19.8171 19.5724 19.9588 19.5036 20.078C19.4349 20.1972 19.3215 20.2842 19.1886 20.3199C19.0557 20.3555 18.914 20.337 18.7948 20.2682H18.7937ZM20.6573 18.5779C20.5911 18.5605 20.529 18.5302 20.4746 18.4886C20.4202 18.4471 20.3746 18.3952 20.3403 18.336L19.8048 17.4085C19.7431 17.2898 19.7296 17.1518 19.7671 17.0234C19.8046 16.895 19.8901 16.786 20.0059 16.719C20.1217 16.6521 20.2589 16.6324 20.3889 16.664C20.5188 16.6956 20.6316 16.7761 20.7037 16.8887L21.2393 17.8163C21.291 17.9051 21.3152 18.0073 21.3087 18.1098C21.3022 18.2124 21.2653 18.3108 21.2028 18.3924C21.1404 18.474 21.055 18.5352 20.9577 18.5682C20.8604 18.6012 20.7554 18.6046 20.6562 18.5779H20.6573ZM25.2791 18.5262C25.2201 18.4921 25.1683 18.4468 25.1267 18.3928C25.0852 18.3387 25.0548 18.277 25.0371 18.2111C25.0195 18.1453 25.0149 18.0766 25.0238 18.009C25.0327 17.9415 25.0548 17.8763 25.0889 17.8173L25.6245 16.8898C25.6967 16.7771 25.8095 16.6966 25.9394 16.665C26.0694 16.6334 26.2066 16.6531 26.3224 16.7201C26.4382 16.787 26.5237 16.896 26.5612 17.0245C26.5987 17.1529 26.5852 17.2908 26.5235 17.4095L25.9879 18.337C25.919 18.4564 25.8055 18.5435 25.6724 18.5792C25.5392 18.6148 25.3974 18.5961 25.278 18.5272L25.2791 18.5262ZM22.7976 17.8078C22.7494 17.7595 22.7113 17.7022 22.6853 17.6391C22.6594 17.576 22.6462 17.5084 22.6465 17.4401V16.3806C22.6465 16.2429 22.7012 16.1108 22.7986 16.0134C22.8959 15.9161 23.028 15.8613 23.1657 15.8613C23.3034 15.8613 23.4355 15.9161 23.5328 16.0134C23.6302 16.1108 23.6849 16.2429 23.6849 16.3806V17.4518C23.6848 17.5544 23.6542 17.6547 23.5972 17.74C23.5401 17.8253 23.4591 17.8917 23.3644 17.931C23.2696 17.9703 23.1653 17.9807 23.0646 17.9609C22.9639 17.941 22.8714 17.8918 22.7986 17.8194L22.7976 17.8078Z" fill="#D3E1FE"/>
<g filter="url(#filter0_d_2062_17169)">
<rect x="23" y="21" width="40" height="45" rx="4" fill="url(#paint1_linear_2062_17169)"/>
</g>
<path d="M30.4111 51.3242H44.5" stroke="white" stroke-opacity="0.6" stroke-width="2" stroke-linecap="round"/>
<path d="M30.4111 57.5742H44.5" stroke="white" stroke-opacity="0.6" stroke-width="2" stroke-linecap="round"/>
<path d="M35.8631 31.0478C38.7899 28.1213 43.5076 28.0941 46.4006 30.987C48.9712 33.5576 49.2337 37.5671 47.2079 40.4826L49.8837 43.1584C50.5513 43.826 50.5453 44.915 49.8699 45.5905C49.1944 46.2657 48.1054 46.2719 47.4378 45.6043L44.637 42.8035C41.7994 44.3677 38.183 43.9674 35.8016 41.586C32.9086 38.6929 32.9363 33.9746 35.8631 31.0478ZM38.2806 33.4654C36.7047 35.0413 36.6898 37.5823 38.2475 39.1402C39.8053 40.698 42.3463 40.683 43.9223 39.107C45.498 37.531 45.5125 34.9907 43.9548 33.4329C42.397 31.8753 39.8566 31.8897 38.2806 33.4654Z" fill="white"/>
<g filter="url(#filter1_d_2062_17169)">
<circle cx="60" cy="59" r="10" fill="url(#paint2_linear_2062_17169)"/>
</g>
<path d="M60 62.5C60.8284 62.5 61.5 63.1716 61.5 64C61.5 64.8284 60.8284 65.5 60 65.5C59.1716 65.5 58.5 64.8284 58.5 64C58.5 63.1716 59.1716 62.5 60 62.5ZM60 52.5C60.8284 52.5 61.5 53.1716 61.5 54V59C61.5 59.8284 60.8284 60.5 60 60.5C59.1716 60.5 58.5 59.8284 58.5 59V54C58.5 53.1716 59.1716 52.5 60 52.5Z" fill="white"/>
</g>
<g opacity="0.2" filter="url(#filter2_i_2062_17169)">
<path d="M76 27.25C76.8284 27.25 77.5 26.5784 77.5 25.75C77.5 24.9216 76.8284 24.25 76 24.25C75.1716 24.25 74.5 24.9216 74.5 25.75C74.5 26.5784 75.1716 27.25 76 27.25Z" fill="#6695FA"/>
</g>
<g opacity="0.2" filter="url(#filter3_i_2062_17169)">
<path d="M81.5 9.5C83.7091 9.5 85.5 7.70914 85.5 5.5C85.5 3.29086 83.7091 1.5 81.5 1.5C79.2909 1.5 77.5 3.29086 77.5 5.5C77.5 7.70914 79.2909 9.5 81.5 9.5Z" fill="#6695FA"/>
</g>
<path opacity="0.5" d="M5.16309 83C6.5438 83 7.66309 81.8807 7.66309 80.5C7.66309 79.1193 6.5438 78 5.16309 78C3.78237 78 2.66309 79.1193 2.66309 80.5C2.66309 81.8807 3.78237 83 5.16309 83Z" fill="#D1DBFA"/>
</g>
<defs>
<filter id="filter0_d_2062_17169" x="-17" y="5" width="120" height="125" filterUnits="userSpaceOnUse" color-interpolation-filters="sRGB">
<feFlood flood-opacity="0" result="BackgroundImageFix"/>
<feColorMatrix in="SourceAlpha" type="matrix" values="0 0 0 0 0 0 0 0 0 0 0 0 0 0 0 0 0 0 127 0" result="hardAlpha"/>
<feOffset dy="24"/>
<feGaussianBlur stdDeviation="20"/>
<feComposite in2="hardAlpha" operator="out"/>
<feColorMatrix type="matrix" values="0 0 0 0 0.162629 0 0 0 0 0.322219 0 0 0 0 0.960579 0 0 0 0.2 0"/>
<feBlend mode="normal" in2="BackgroundImageFix" result="effect1_dropShadow_2062_17169"/>
<feBlend mode="normal" in="SourceGraphic" in2="effect1_dropShadow_2062_17169" result="shape"/>
</filter>
<filter id="filter1_d_2062_17169" x="46" y="49" width="28" height="28" filterUnits="userSpaceOnUse" color-interpolation-filters="sRGB">
<feFlood flood-opacity="0" result="BackgroundImageFix"/>
<feColorMatrix in="SourceAlpha" type="matrix" values="0 0 0 0 0 0 0 0 0 0 0 0 0 0 0 0 0 0 127 0" result="hardAlpha"/>
<feOffset dy="4"/>
<feGaussianBlur stdDeviation="2"/>
<feComposite in2="hardAlpha" operator="out"/>
<feColorMatrix type="matrix" values="0 0 0 0 0.289401 0 0 0 0 0.068138 0 0 0 0 0.59917 0 0 0 0.15 0"/>
<feBlend mode="normal" in2="BackgroundImageFix" result="effect1_dropShadow_2062_17169"/>
<feBlend mode="normal" in="SourceGraphic" in2="effect1_dropShadow_2062_17169" result="shape"/>
</filter>
<filter id="filter2_i_2062_17169" x="74.5" y="23.25" width="3" height="4" filterUnits="userSpaceOnUse" color-interpolation-filters="sRGB">
<feFlood flood-opacity="0" result="BackgroundImageFix"/>
<feBlend mode="normal" in="SourceGraphic" in2="BackgroundImageFix" result="shape"/>
<feColorMatrix in="SourceAlpha" type="matrix" values="0 0 0 0 0 0 0 0 0 0 0 0 0 0 0 0 0 0 127 0" result="hardAlpha"/>
<feOffset dy="-1"/>
<feGaussianBlur stdDeviation="2"/>
<feComposite in2="hardAlpha" operator="arithmetic" k2="-1" k3="1"/>
<feColorMatrix type="matrix" values="0 0 0 0 0.340564 0 0 0 0 0.123427 0 0 0 0 0.774837 0 0 0 0.25 0"/>
<feBlend mode="normal" in2="shape" result="effect1_innerShadow_2062_17169"/>
</filter>
<filter id="filter3_i_2062_17169" x="77.5" y="0.5" width="8" height="9" filterUnits="userSpaceOnUse" color-interpolation-filters="sRGB">
<feFlood flood-opacity="0" result="BackgroundImageFix"/>
<feBlend mode="normal" in="SourceGraphic" in2="BackgroundImageFix" result="shape"/>
<feColorMatrix in="SourceAlpha" type="matrix" values="0 0 0 0 0 0 0 0 0 0 0 0 0 0 0 0 0 0 127 0" result="hardAlpha"/>
<feOffset dy="-1"/>
<feGaussianBlur stdDeviation="2"/>
<feComposite in2="hardAlpha" operator="arithmetic" k2="-1" k3="1"/>
<feColorMatrix type="matrix" values="0 0 0 0 0.340564 0 0 0 0 0.123427 0 0 0 0 0.774837 0 0 0 0.25 0"/>
<feBlend mode="normal" in2="shape" result="effect1_innerShadow_2062_17169"/>
</filter>
<linearGradient id="paint0_linear_2062_17169" x1="72" y1="88" x2="22.5" y2="12.998" gradientUnits="userSpaceOnUse">
<stop stop-color="#F1F5FC"/>
<stop offset="1" stop-color="#F4F6FA"/>
</linearGradient>
<linearGradient id="paint1_linear_2062_17169" x1="34.75" y1="18.4487" x2="62.1865" y2="52.1585" gradientUnits="userSpaceOnUse">
<stop stop-color="#B3CBFF"/>
<stop offset="1" stop-color="#6091F9"/>
</linearGradient>
<linearGradient id="paint2_linear_2062_17169" x1="54.8" y1="47.2353" x2="72.3775" y2="66.2711" gradientUnits="userSpaceOnUse">
<stop stop-color="#D0B8FF"/>
<stop offset="1" stop-color="#9B7AFF"/>
</linearGradient>
<clipPath id="clip0_2062_17169">
<rect width="88" height="88" fill="white"/>
</clipPath>
</defs>
</svg>
