<svg width="80" height="80" viewBox="0 0 80 80" fill="none" xmlns="http://www.w3.org/2000/svg">
<rect width="80" height="80" rx="24" fill="#F2F5FF"/>
<path d="M25.0616 60.5565C24.1706 60.5569 23.2956 60.315 22.5307 59.8536C21.7659 59.3922 21.1396 58.7283 20.7178 57.9359L20.1346 58.5449V23.0523C20.0698 21.6447 20.5589 20.2711 21.4959 19.2267C22.4329 18.1823 23.7415 17.5546 25.1354 17.4808L59.5027 17.4419L56.2715 20.8172V55.5875C56.2715 56.9071 55.7518 58.1722 54.8275 59.1053C53.9032 60.0384 52.65 60.563 51.3428 60.563L25.0616 60.5565Z" fill="url(#paint0_linear_13740_25225)"/>
<path d="M27.6066 35.7539H25.4504L28.3332 27.2695H30.9816L33.8527 35.7539H31.7082L31.1339 33.9375H28.1808L27.6066 35.7539ZM28.6613 32.4141H30.6535L29.6925 29.3672H29.6222L28.6613 32.4141ZM35.6729 35.7539H33.5166L36.3994 27.2695H39.0479L41.9189 35.7539H39.7744L39.2002 33.9375H36.2471L35.6729 35.7539ZM36.7275 32.4141H38.7197L37.7588 29.3672H37.6885L36.7275 32.4141ZM43.7391 35.7539H41.5829L44.4657 27.2695H47.1141L49.9852 35.7539H47.8407L47.2664 33.9375H44.3133L43.7391 35.7539ZM44.7938 32.4141H46.786L45.825 29.3672H45.7547L44.7938 32.4141Z" fill="white"/>
<path d="M56.2144 21.4169C56.2144 19.2045 57.2362 17.4365 59.5001 17.4365C61.764 17.4365 62.7859 19.2045 62.7859 21.4169V23.4071C62.7896 23.4953 62.7751 23.5832 62.7434 23.6654C62.7117 23.7476 62.6634 23.8222 62.6017 23.8846C62.5399 23.9469 62.4659 23.9957 62.3845 24.0277C62.3031 24.0597 62.216 24.0743 62.1287 24.0705H56.2144V21.4169Z" fill="#4E7AD9"/>
<path d="M51.2865 60.5578H23.7552C18.9005 60.5578 16.7861 59.6722 16.7861 55.997V54.9604C16.7861 54.2472 17.0966 53.9238 17.7817 53.9238H44.3174C44.5837 53.9257 44.8469 53.9811 45.0917 54.0868C45.3365 54.1924 45.558 54.3462 45.7434 54.5392C45.9287 54.7321 46.0741 54.9604 46.1712 55.2107C46.2682 55.461 46.3149 55.7283 46.3086 55.997C46.5977 59.2941 47.8578 60.5578 51.2865 60.5578Z" fill="url(#paint1_linear_13740_25225)"/>
<path d="M25.9111 42.125H49.9111" stroke="white" stroke-opacity="0.6" stroke-width="2" stroke-linecap="round"/>
<path d="M25.9111 47.375H49.9111" stroke="white" stroke-opacity="0.6" stroke-width="2" stroke-linecap="round"/>
<g filter="url(#filter0_d_13740_25225)">
<circle cx="55.2144" cy="53.7539" r="10" fill="url(#paint2_linear_13740_25225)"/>
</g>
<path fill-rule="evenodd" clip-rule="evenodd" d="M59.9803 50.5075C60.3757 50.9029 60.3757 51.544 59.9803 51.9394L54.5803 57.3394C54.1849 57.7348 53.5438 57.7348 53.1484 57.3394L50.4484 54.6394C50.053 54.244 50.053 53.6029 50.4484 53.2075C50.8438 52.8121 51.4849 52.8121 51.8803 53.2075L53.8644 55.1915L58.5484 50.5075C58.9438 50.1121 59.5849 50.1121 59.9803 50.5075Z" fill="white"/>
<defs>
<filter id="filter0_d_13740_25225" x="41.2144" y="43.7539" width="28" height="28" filterUnits="userSpaceOnUse" color-interpolation-filters="sRGB">
<feFlood flood-opacity="0" result="BackgroundImageFix"/>
<feColorMatrix in="SourceAlpha" type="matrix" values="0 0 0 0 0 0 0 0 0 0 0 0 0 0 0 0 0 0 127 0" result="hardAlpha"/>
<feOffset dy="4"/>
<feGaussianBlur stdDeviation="2"/>
<feComposite in2="hardAlpha" operator="out"/>
<feColorMatrix type="matrix" values="0 0 0 0 0.068138 0 0 0 0 0.59917 0 0 0 0 0.492964 0 0 0 0.15 0"/>
<feBlend mode="normal" in2="BackgroundImageFix" result="effect1_dropShadow_13740_25225"/>
<feBlend mode="normal" in="SourceGraphic" in2="effect1_dropShadow_13740_25225" result="shape"/>
</filter>
<linearGradient id="paint0_linear_13740_25225" x1="27.8071" y1="17.4419" x2="50.6691" y2="42.161" gradientUnits="userSpaceOnUse">
<stop stop-color="#B3CBFF"/>
<stop offset="1" stop-color="#6091F9"/>
</linearGradient>
<linearGradient id="paint1_linear_13740_25225" x1="29.392" y1="52.9762" x2="30.0515" y2="71.9616" gradientUnits="userSpaceOnUse">
<stop stop-color="#A8C4FF"/>
<stop offset="1" stop-color="#4A81F7"/>
</linearGradient>
<linearGradient id="paint2_linear_13740_25225" x1="49.0361" y1="39.7498" x2="68.1895" y2="60.464" gradientUnits="userSpaceOnUse">
<stop stop-color="#83EBF8"/>
<stop offset="1" stop-color="#33ACBD"/>
</linearGradient>
</defs>
</svg>
