<svg width="184" height="131" viewBox="0 0 184 131" fill="none" xmlns="http://www.w3.org/2000/svg">
<g clip-path="url(#clip0_1596_26041)">
<g clip-path="url(#clip1_1596_26041)">
<ellipse cx="91.5" cy="116.684" rx="91.5" ry="11.3156" fill="url(#paint0_radial_1596_26041)"/>
<ellipse cx="91.5" cy="116.684" rx="91.5" ry="11.3156" fill="url(#paint1_radial_1596_26041)"/>
<g opacity="0.3">
<path d="M30.5723 108.491L50.1379 106.491V94.3683L48.0736 95.5288V65.1495L39.7522 51.5197C39.9756 51.4489 40.1693 51.3086 40.3036 51.1201C40.438 50.9317 40.5057 50.7054 40.4965 50.4757C40.5128 50.2089 40.4209 49.9464 40.2407 49.7455C40.0604 49.5446 39.8064 49.4214 39.5338 49.4026H39.3205V49.6288H38.0402V49.4026H37.9311C37.6594 49.4226 37.4067 49.5463 37.2274 49.7471C37.0482 49.9479 36.957 50.2096 36.9734 50.4757C36.962 50.7111 37.0323 50.9433 37.1728 51.1346C37.3133 51.3259 37.5159 51.465 37.7475 51.5294L30.5723 65.1495V108.491Z" fill="url(#paint2_linear_1596_26041)"/>
<path d="M30.5727 119.257V78.3179H16.9842L10.1927 81.3789V78.3179H0V119.257H30.5727Z" fill="url(#paint3_linear_1596_26041)"/>
<path d="M48.1382 109.257V73.3179H61.7267L68.5183 76.3789V73.3179H78.7109V109.257H48.1382Z" fill="url(#paint4_linear_1596_26041)"/>
<path d="M36.9722 63.0008H35.5859V65.7552H36.9722V63.0008Z" fill="white"/>
<path d="M36.9722 67.5919H35.5859V70.8054H36.9722V67.5919Z" fill="white"/>
<path d="M24.9722 83.0008H23.5859V85.7552H24.9722V83.0008Z" fill="white"/>
<path d="M24.9722 87.5919H23.5859V90.8054H24.9722V87.5919Z" fill="white"/>
<path d="M58.1382 82.5919H56.752V85.8054H58.1382V82.5919Z" fill="white"/>
<path d="M20.9722 83.0008H19.5859V85.7552H20.9722V83.0008Z" fill="white"/>
<path d="M54.1382 78.0008H52.752V80.7552H54.1382V78.0008Z" fill="white"/>
<path d="M20.9722 87.5919H19.5859V90.8054H20.9722V87.5919Z" fill="white"/>
<path d="M54.1382 82.5919H52.752V85.8054H54.1382V82.5919Z" fill="white"/>
</g>
<g opacity="0.3">
<path d="M89.3491 101.529V79.8594H88.001V78.3153H129.162V55.2211L151.91 61.6641L151.944 75.8193H154.717V53.2666H157.491V42.3943H160.473V36.2659H161.437V42.3943H163.365V38.9988H164.329V42.3943H166.544V53.2666H169.679V75.8193H187.537V112.529L89.3491 101.529Z" fill="url(#paint5_linear_1596_26041)"/>
<path d="M163.408 57.9117H164.916V60.9085H163.408V57.9117Z" fill="white"/>
<path d="M158.883 57.9117H160.392V60.9085H158.883V57.9117Z" fill="white"/>
<path d="M134.251 62.4067H135.759V70.8975H134.251V62.4067Z" fill="white"/>
</g>
<path d="M145.467 116.542C147.586 116.542 149.304 116.13 149.304 115.623C149.304 115.115 147.586 114.704 145.467 114.704C143.348 114.704 141.63 115.115 141.63 115.623C141.63 116.13 143.348 116.542 145.467 116.542Z" fill="url(#paint6_linear_1596_26041)"/>
<path d="M145.354 87.0334C143.592 88.6653 142.183 90.6356 141.212 92.8248C140.241 95.014 139.727 97.3765 139.702 99.7689C139.702 105.55 142.453 108.307 145.377 108.307C148.302 108.307 151.047 105.526 151.047 99.7689C151.017 97.3756 150.5 95.0131 149.525 92.8241C148.551 90.6352 147.14 88.6653 145.377 87.0334H145.354Z" fill="#DBE3F5"/>
<path d="M149.042 97.5631L146.004 102.217L145.885 99.2529L147.884 95.3694L145.855 98.4584L145.664 93.6381H145.449L145.133 100.86L142.817 97.3022L145.109 101.767L144.99 104.619L141.636 99.5078L144.918 105.941L144.53 115.101H146.535L146.052 103.421L149.036 97.569L149.042 97.5631Z" fill="#C6D2ED"/>
<g opacity="0.8">
<path d="M157.396 109.688C158.534 109.688 159.456 109.467 159.456 109.194C159.456 108.922 158.534 108.701 157.396 108.701C156.259 108.701 155.337 108.922 155.337 109.194C155.337 109.467 156.259 109.688 157.396 109.688Z" fill="url(#paint7_linear_1596_26041)"/>
<path d="M157.336 93.8499C156.391 94.7257 155.634 95.7832 155.113 96.9582C154.592 98.1332 154.316 99.4012 154.303 100.685C154.303 103.788 155.779 105.268 157.349 105.268C158.918 105.268 160.392 103.775 160.392 100.685C160.376 99.4007 160.098 98.1327 159.575 96.9578C159.052 95.783 158.295 94.7257 157.349 93.8499H157.336Z" fill="#DBE3F5"/>
<path d="M159.316 99.5014L157.685 101.999L157.621 100.408L158.694 98.324L157.605 99.9819L157.503 97.3948H157.388L157.218 101.271L155.975 99.3614L157.205 101.758L157.141 103.288L155.341 100.545L157.102 103.998L156.894 108.914H157.97L157.711 102.645L159.313 99.5046L159.316 99.5014Z" fill="#C6D2ED"/>
</g>
<g opacity="0.6">
<path d="M37.1892 111.812C38.9478 111.812 40.3735 111.47 40.3735 111.049C40.3735 110.627 38.9478 110.286 37.1892 110.286C35.4305 110.286 34.0049 110.627 34.0049 111.049C34.0049 111.47 35.4305 111.812 37.1892 111.812Z" fill="url(#paint8_linear_1596_26041)"/>
<path d="M36.9725 87.5918C35.5199 88.9353 34.3568 90.5577 33.5538 92.3608C32.7508 94.1639 32.3245 96.1102 32.3008 98.0818C32.3008 102.834 34.5703 105.11 36.9725 105.11C39.3747 105.11 41.6442 102.813 41.6442 98.0818C41.6205 96.1102 41.1942 94.1639 40.3912 92.3608C39.5882 90.5577 38.4251 88.9353 36.9725 87.5918Z" fill="#DBE3F5"/>
<path d="M40.0166 96.2641L37.5097 100.094L37.4119 97.6448L39.0599 94.4464L37.391 96.9926L37.2304 93.0242H37.0558L36.8114 98.9699L34.898 96.0421L36.7904 99.7192L36.6927 102.064L33.8994 97.8598L36.6019 103.153L36.2807 110.695H37.9357L37.5376 101.079L40.0027 96.2641H40.0166Z" fill="#C6D2ED"/>
</g>
</g>
<rect x="64" y="50.5" width="56" height="62" rx="6" fill="url(#paint9_linear_1596_26041)"/>
<path d="M102.607 70.5312C102.181 70.5312 101.772 70.3731 101.471 70.0918C101.169 69.8105 101 69.4291 101 69.0312C101 68.6334 101.169 68.252 101.471 67.9707C101.772 67.6894 102.181 67.5312 102.607 67.5312H109.393C109.819 67.5312 110.228 67.6894 110.529 67.9707C110.831 68.252 111 68.6334 111 69.0312C111 69.4291 110.831 69.8105 110.529 70.0918C110.228 70.3731 109.819 70.5312 109.393 70.5312H102.607Z" fill="white" fill-opacity="0.5"/>
<path d="M102.607 79.5312C102.181 79.5312 101.772 79.3731 101.471 79.0918C101.169 78.8105 101 78.4291 101 78.0312C101 77.6334 101.169 77.252 101.471 76.9707C101.772 76.6894 102.181 76.5312 102.607 76.5312H109.393C109.819 76.5312 110.228 76.6894 110.529 76.9707C110.831 77.252 111 77.6334 111 78.0312C111 78.4291 110.831 78.8105 110.529 79.0918C110.228 79.3731 109.819 79.5312 109.393 79.5312H102.607Z" fill="white" fill-opacity="0.5"/>
<path d="M74.71 92.7812C74.2565 92.7812 73.8217 92.6231 73.501 92.3418C73.1803 92.0605 73 91.6791 73 91.2812C73 90.8834 73.1803 90.502 73.501 90.2207C73.8217 89.9394 74.2565 89.7812 74.71 89.7812H109.29C109.744 89.7812 110.178 89.9394 110.499 90.2207C110.82 90.502 111 90.8834 111 91.2812C111 91.6791 110.82 92.0605 110.499 92.3418C110.178 92.6231 109.744 92.7812 109.29 92.7812H74.71Z" fill="white" fill-opacity="0.5"/>
<path d="M74.71 101.781C74.2565 101.781 73.8217 101.623 73.501 101.342C73.1803 101.06 73 100.679 73 100.281C73 99.8834 73.1803 99.502 73.501 99.2207C73.8217 98.9394 74.2565 98.7812 74.71 98.7812H109.29C109.744 98.7812 110.178 98.9394 110.499 99.2207C110.82 99.502 111 99.8834 111 100.281C111 100.679 110.82 101.06 110.499 101.342C110.178 101.623 109.744 101.781 109.29 101.781H74.71Z" fill="white" fill-opacity="0.5"/>
<path d="M83.7313 82.5558C80.9424 82.5558 78.2678 81.4504 76.2957 79.4794C74.3237 77.5085 73.2158 74.8336 73.2158 72.0463C73.2158 69.2591 74.3237 66.5867 76.2957 64.6158C78.2678 62.6449 80.9424 61.5369 83.7313 61.5369V72.0463H94.2467C94.2419 74.8321 93.1324 77.5045 91.1615 79.4743C89.1905 81.4442 86.5187 82.551 83.7313 82.5558Z" fill="white" fill-opacity="0.5"/>
<path d="M96.2157 70.0651H85.7002V59.5557C88.4876 59.5605 91.1594 60.6699 93.1304 62.6397C95.1014 64.6096 96.2108 67.2794 96.2157 70.0651Z" fill="white"/>
<path d="M99.8335 47.8817H96.106C95.888 46.9267 95.3107 46.0687 94.4714 45.4526C93.6322 44.8364 92.5826 44.5 91.4997 44.5C90.4169 44.5 89.3672 44.8364 88.528 45.4526C87.6888 46.0687 87.1114 46.9267 86.8935 47.8817H83.166C82.0356 47.9077 80.9627 48.3358 80.1821 49.0724C79.4015 49.809 78.9768 50.794 79.001 51.8118V53.5H104.001V51.8118C104.025 50.7936 103.6 49.8082 102.819 49.0716C102.038 48.335 100.964 47.9071 99.8335 47.8817ZM91.501 50.1326C91.2515 50.1434 91.0042 50.0867 90.7909 49.9698C90.5777 49.8529 90.4081 49.6811 90.3043 49.4766C90.2004 49.2721 90.1669 49.0444 90.2081 48.8226C90.2494 48.6009 90.3634 48.3953 90.5356 48.2324C90.7078 48.0696 90.9302 47.9569 91.1742 47.9089C91.4182 47.861 91.6725 47.8799 91.9044 47.9632C92.1363 48.0466 92.3352 48.1906 92.4754 48.3767C92.6156 48.5627 92.6907 48.7823 92.691 49.0072C92.6984 49.2983 92.5773 49.5803 92.3542 49.7913C92.1312 50.0022 91.8244 50.125 91.501 50.1326Z" fill="#4188D0"/>
</g>
<defs>
<radialGradient id="paint0_radial_1596_26041" cx="0" cy="0" r="1" gradientUnits="userSpaceOnUse" gradientTransform="translate(91.5 105.369) rotate(90) scale(22.6311 127.08)">
<stop stop-color="#B9C6E7"/>
<stop offset="1" stop-color="white" stop-opacity="0"/>
</radialGradient>
<radialGradient id="paint1_radial_1596_26041" cx="0" cy="0" r="1" gradientUnits="userSpaceOnUse" gradientTransform="translate(91.5 105.369) rotate(90) scale(22.6311 127.08)">
<stop stop-color="#C5D3FF"/>
<stop offset="1" stop-color="white" stop-opacity="0"/>
</radialGradient>
<linearGradient id="paint2_linear_1596_26041" x1="40.3551" y1="40.188" x2="40.3551" y2="114.491" gradientUnits="userSpaceOnUse">
<stop stop-color="#C5D2EC"/>
<stop offset="0.9964" stop-color="#F1F7FE"/>
</linearGradient>
<linearGradient id="paint3_linear_1596_26041" x1="26.0005" y1="78.3179" x2="8.00049" y2="98.7877" gradientUnits="userSpaceOnUse">
<stop stop-color="#C5D2EC"/>
<stop offset="0.9964" stop-color="#F1F7FE"/>
</linearGradient>
<linearGradient id="paint4_linear_1596_26041" x1="52.7105" y1="78.3179" x2="70.7104" y2="98.7877" gradientUnits="userSpaceOnUse">
<stop stop-color="#C5D2EC"/>
<stop offset="0.9964" stop-color="#F1F7FE"/>
</linearGradient>
<linearGradient id="paint5_linear_1596_26041" x1="130.229" y1="76.2146" x2="152.99" y2="116.958" gradientUnits="userSpaceOnUse">
<stop stop-color="#C5D2EC"/>
<stop offset="0.9964" stop-color="#F1F7FE" stop-opacity="0"/>
</linearGradient>
<linearGradient id="paint6_linear_1596_26041" x1="146.18" y1="114.704" x2="146.18" y2="116.542" gradientUnits="userSpaceOnUse">
<stop stop-color="#C5D2EC"/>
<stop offset="0.9964" stop-color="#F1F7FE" stop-opacity="0"/>
</linearGradient>
<linearGradient id="paint7_linear_1596_26041" x1="157.779" y1="108.701" x2="157.779" y2="109.688" gradientUnits="userSpaceOnUse">
<stop stop-color="#C5D2EC"/>
<stop offset="0.9964" stop-color="#F1F7FE" stop-opacity="0"/>
</linearGradient>
<linearGradient id="paint8_linear_1596_26041" x1="37.1892" y1="110.286" x2="37.1928" y2="112.612" gradientUnits="userSpaceOnUse">
<stop stop-color="#C5D2EC"/>
<stop offset="0.9964" stop-color="#F1F7FE" stop-opacity="0"/>
</linearGradient>
<linearGradient id="paint9_linear_1596_26041" x1="70.6957" y1="50.5" x2="96.4329" y2="118.218" gradientUnits="userSpaceOnUse">
<stop stop-color="#95C9FD"/>
<stop offset="1" stop-color="#4EA6FF"/>
</linearGradient>
<clipPath id="clip0_1596_26041">
<rect width="184" height="130" fill="white" transform="translate(0.000976562 0.5)"/>
</clipPath>
<clipPath id="clip1_1596_26041">
<rect width="183" height="131" fill="white" transform="translate(0 -1.5)"/>
</clipPath>
</defs>
</svg>
