<svg width="320" height="127" viewBox="0 0 320 127" fill="none" xmlns="http://www.w3.org/2000/svg">
<path d="M10.1831 122.942C6.3314 123.072 2.92882 122.942 0 122.942H10.1831C22.2655 122.535 38.7675 119.569 58.9286 102.009C83.3647 79.8378 88.7239 78.5863 127.942 21.4326C142.712 2.46352 152.134 0 159.774 0C181.349 0 193.606 21.4326 214.068 52.5076C249.539 112.427 298.203 122.789 319.062 122.942H320C319.694 122.945 319.381 122.945 319.062 122.942H300.01H10.1831Z" fill="#F2F5FA"/>
<path d="M128 123L128 23" stroke="black" stroke-opacity="0.16" stroke-dasharray="2 2"/>
<path d="M63.8604 121.234L64.0011 96.8784" stroke="black" stroke-opacity="0.16" stroke-dasharray="2 2"/>
<path d="M192 122L192 23" stroke="black" stroke-opacity="0.16" stroke-dasharray="2 2"/>
<path d="M255.965 126.117V98.7517" stroke="black" stroke-opacity="0.16" stroke-dasharray="2 2"/>
</svg>
