<svg width="938" height="144" viewBox="0 0 938 144" fill="none" xmlns="http://www.w3.org/2000/svg">
<path d="M29.8494 143.777C18.559 143.923 8.58517 143.777 0 143.777H29.8494C65.2661 143.319 113.637 139.991 172.734 120.282C244.363 95.3958 260.072 88.2066 375.029 24.0563C418.324 2.7651 445.944 0 468.338 0C531.579 0 567.506 24.0563 627.486 58.9354C731.991 126.533 875.561 143.606 936.179 143.777H938C937.402 143.779 936.795 143.779 936.179 143.777H879.404H29.8494Z" fill="#E1DBD8"/>
<path d="M375.2 143.842L375.2 27.8891" stroke="black" stroke-opacity="0.2" stroke-dasharray="4 4"/>
<path d="M187.6 136.843L187.6 117.864" stroke="black" stroke-opacity="0.2" stroke-dasharray="4 4"/>
<path d="M562.8 143.842L562.8 29.9671" stroke="black" stroke-opacity="0.2" stroke-dasharray="4 4"/>
<path d="M750 136.843L750 118.863" stroke="black" stroke-opacity="0.2" stroke-dasharray="4 4"/>
</svg>
