<svg width="49" height="49" viewBox="0 0 49 49" fill="none" xmlns="http://www.w3.org/2000/svg">
<path d="M1.31055 48.0194C1.04533 48.0194 0.790976 47.9141 0.60344 47.7266C0.415904 47.539 0.310547 47.2847 0.310547 47.0194C0.310547 41.4499 2.52304 36.1085 6.4613 32.1702C10.3996 28.2319 15.741 26.0194 21.3105 26.0194H27.3105C32.8801 26.0194 38.2215 28.2319 42.1598 32.1702C46.0981 36.1085 48.3105 41.4499 48.3105 47.0194C48.3105 47.2847 48.2052 47.539 48.0177 47.7266C47.8301 47.9141 47.5758 48.0194 47.3105 48.0194H1.31055ZM13.0455 10.7994C13.0455 8.66815 13.6775 6.58472 14.8616 4.81262C16.0457 3.04051 17.7287 1.65933 19.6978 0.843717C21.6668 0.0281066 23.8335 -0.185294 25.9238 0.2305C28.0142 0.646294 29.9343 1.67261 31.4413 3.17966C32.9484 4.68671 33.9747 6.60681 34.3905 8.69715C34.8063 10.7875 34.5929 12.9542 33.7773 14.9232C32.9617 16.8923 31.5805 18.5753 29.8084 19.7594C28.0363 20.9434 25.9528 21.5754 23.8215 21.5754C20.9636 21.5754 18.2227 20.4401 16.2018 18.4192C14.1809 16.3983 13.0455 13.6574 13.0455 10.7994Z" fill="white"/>
</svg>
