<svg width="174" height="201" viewBox="0 0 174 201" fill="none" xmlns="http://www.w3.org/2000/svg">
<g filter="url(#filter0_d_1062_9852)">
<path d="M77.7735 170.021C76.7952 170.024 75.831 169.788 74.9645 169.333L46.8175 154.473C39.6181 150.851 33.1409 145.943 27.7045 139.993C17.0341 127.951 11.0956 112.445 10.9915 96.3555L10.6605 43.4535C10.6504 40.4643 11.5686 37.5457 13.2882 35.1007C15.0078 32.6556 17.444 30.8047 20.2605 29.8035L71.9425 11.4245C75.0485 10.3089 78.4429 10.2909 81.5605 11.3735L133.437 29.1235C136.265 30.0851 138.725 31.9028 140.475 34.3247C142.224 36.7466 143.177 39.6528 143.202 42.6405L143.532 95.5815C143.623 111.657 137.887 127.221 127.385 139.391C122.026 145.405 115.613 150.387 108.461 154.091L80.5655 169.291C79.7094 169.762 78.7495 170.012 77.7725 170.018" fill="#A6B5DD"/>
</g>
<path d="M71.4405 110.216C69.828 110.233 68.2729 109.618 67.1075 108.503L51.6005 93.5875C51.0322 93.046 50.5789 92.3955 50.2677 91.6749C49.9564 90.9543 49.7937 90.1783 49.7891 89.3934C49.7845 88.6084 49.9382 87.8306 50.2411 87.1064C50.5439 86.3822 50.9896 85.7265 51.5515 85.1785C52.7046 84.0526 54.2492 83.4178 55.8607 83.4073C57.4722 83.3969 59.025 84.0117 60.1925 85.1225L71.3505 95.8485L98.5895 68.9875C99.7426 67.8616 101.287 67.2268 102.899 67.2163C104.51 67.2059 106.063 67.8207 107.231 68.9315C107.8 69.472 108.255 70.1219 108.567 70.8422C108.88 71.5626 109.043 72.3387 109.049 73.1238C109.054 73.909 108.901 74.6872 108.598 75.4118C108.295 76.1363 107.85 76.7923 107.288 77.3405L75.7445 108.44C74.5981 109.574 73.0525 110.212 71.4405 110.216Z" fill="white"/>
<defs>
<filter id="filter0_d_1062_9852" x="0.660461" y="0.574463" width="172.872" height="199.447" filterUnits="userSpaceOnUse" color-interpolation-filters="sRGB">
<feFlood flood-opacity="0" result="BackgroundImageFix"/>
<feColorMatrix in="SourceAlpha" type="matrix" values="0 0 0 0 0 0 0 0 0 0 0 0 0 0 0 0 0 0 127 0" result="hardAlpha"/>
<feOffset dx="10" dy="10"/>
<feGaussianBlur stdDeviation="10"/>
<feColorMatrix type="matrix" values="0 0 0 0 0.333333 0 0 0 0 0.482353 0 0 0 0 0.686275 0 0 0 0.161 0"/>
<feBlend mode="normal" in2="BackgroundImageFix" result="effect1_dropShadow_1062_9852"/>
<feBlend mode="normal" in="SourceGraphic" in2="effect1_dropShadow_1062_9852" result="shape"/>
</filter>
</defs>
</svg>
