<svg width="162" height="79" viewBox="0 0 162 79" fill="none" xmlns="http://www.w3.org/2000/svg">
<path d="M12.1459 66.8009H8.67586C8.21571 66.8009 7.7744 66.6181 7.44903 66.2927C7.12365 65.9674 6.94086 65.5261 6.94086 65.0659L6.94086 27.7659C6.94086 27.3058 7.12365 26.8644 7.44903 26.5391C7.7744 26.2137 8.21571 26.0309 8.67586 26.0309H12.1459C12.6051 26.0309 13.0457 26.213 13.3709 26.5373C13.6962 26.8616 13.8795 27.3016 13.8809 27.7609L13.8809 65.0659C13.8809 65.5261 13.6981 65.9674 13.3727 66.2927C13.0473 66.6181 12.606 66.8009 12.1459 66.8009Z" fill="#D6E1F9"/>
<path d="M58.1263 52.5759H55.5263C54.5613 52.5759 53.7883 52.0699 53.7883 51.4459V27.1559C53.7883 26.5319 54.5653 26.0259 55.5233 26.0259H58.1233C59.0843 26.0259 59.8613 26.5319 59.8613 27.1559V51.4459C59.8613 52.0699 59.0843 52.5759 58.1263 52.5759Z" fill="#D6E1F9"/>
<path d="M35.5697 66.8009H32.0997C31.6395 66.8009 31.1982 66.6181 30.8729 66.2927C30.5475 65.9674 30.3647 65.5261 30.3647 65.0659L30.3647 27.7659C30.3647 27.3058 30.5475 26.8644 30.8729 26.5391C31.1982 26.2137 31.6395 26.0309 32.0997 26.0309H35.5697C36.029 26.0309 36.4695 26.213 36.7948 26.5373C37.12 26.8616 37.3034 27.3016 37.3047 27.7609L37.3047 65.0659C37.3047 65.5261 37.1219 65.9674 36.7965 66.2927C36.4711 66.6181 36.0298 66.8009 35.5697 66.8009Z" fill="#D6E1F9"/>
<path d="M2 66.9999H48C49.1046 66.9999 50 66.1044 50 64.9999V61.9999C50 60.8953 49.1046 59.9999 48 59.9999L2 59.9999C0.895432 59.9999 0 60.8953 0 61.9999V64.9999C0 66.1044 0.895432 66.9999 2 66.9999Z" fill="#D6E1F9"/>
<path d="M65.9341 29.4999H0V21.7379L32.967 -0.00012207L65.9341 21.7339V29.4999Z" fill="#D6E1F9"/>
<path d="M32.9683 24.2919C35.6038 24.2919 37.7403 22.1554 37.7403 19.5199C37.7403 16.8844 35.6038 14.7479 32.9683 14.7479C30.3328 14.7479 28.1963 16.8844 28.1963 19.5199C28.1963 22.1554 30.3328 24.2919 32.9683 24.2919Z" fill="white"/>
<path d="M32.9683 24.1669C35.5348 24.1669 37.6153 22.0864 37.6153 19.5199C37.6153 16.9535 35.5348 14.8729 32.9683 14.8729C30.4018 14.8729 28.3213 16.9535 28.3213 19.5199C28.3213 22.0864 30.4018 24.1669 32.9683 24.1669Z" stroke="white" stroke-width="0.25"/>
<path opacity="0.995" d="M60.4469 78.0689C59.1338 78.0733 57.8719 77.559 56.9359 76.6379L55.7359 75.4319C55.5069 75.2021 55.2346 75.0199 54.9348 74.896C54.6349 74.7721 54.3134 74.7088 53.9889 74.7099H52.2889C50.9734 74.7086 49.712 74.1854 48.7817 73.2551C47.8515 72.3249 47.3283 71.0635 47.3269 69.7479V68.0539C47.3245 67.3936 47.0644 66.7603 46.6019 66.2889L45.4159 65.1189C44.487 64.1886 43.9639 62.9285 43.961 61.6137C43.958 60.299 44.4753 59.0365 45.3999 58.1019L46.5999 56.8959C46.8313 56.6646 47.0145 56.3897 47.139 56.087C47.2634 55.7844 47.3266 55.4601 47.3249 55.1329V53.4529C47.3271 52.1379 47.8508 50.8774 48.7813 49.948C49.7117 49.0187 50.9729 48.4965 52.2879 48.4959H53.9879C54.6433 48.493 55.271 48.2318 55.7349 47.7689L56.9209 46.5829C57.851 45.6517 59.1123 45.1272 60.4283 45.1244C61.7444 45.1216 63.008 45.6407 63.9419 46.5679L65.1419 47.7679C65.3706 47.9986 65.6427 48.1817 65.9426 48.3064C66.2425 48.4312 66.5641 48.4953 66.8889 48.4949H68.5889C69.9036 48.496 71.1641 49.0185 72.094 49.9478C73.0238 50.8771 73.5471 52.1373 73.5489 53.4519V55.1519C73.5485 55.4763 73.6125 55.7975 73.7373 56.0969C73.8621 56.3963 74.0452 56.6679 74.2759 56.8959L75.4599 58.0829C76.3822 59.0124 76.9024 60.2669 76.9086 61.5762C76.9147 62.8855 76.4064 64.1449 75.4929 65.0829L75.4599 65.1239L75.4439 65.1399L74.2739 66.3099C74.043 66.5386 73.8598 66.8109 73.7349 67.111C73.6101 67.411 73.5462 67.7329 73.5469 68.0579V69.7529C73.5456 71.0682 73.0227 72.3292 72.0929 73.2594C71.163 74.1897 69.9022 74.7131 68.5869 74.7149H66.8869C66.5625 74.7138 66.241 74.7771 65.9411 74.901C65.6413 75.0249 65.369 75.2071 65.1399 75.4369L63.9599 76.6189C63.4998 77.0815 62.9522 77.4479 62.3491 77.6968C61.746 77.9458 61.0994 78.0723 60.4469 78.0689ZM64.6839 64.3939C64.3982 64.3926 64.1185 64.4762 63.8803 64.6342C63.6422 64.7922 63.4564 65.0174 63.3466 65.2812C63.2368 65.545 63.2079 65.8355 63.2636 66.1158C63.3193 66.3961 63.4571 66.6535 63.6595 66.8553C63.8618 67.0571 64.1196 67.1941 64.4 67.2491C64.6805 67.304 64.9709 67.2743 65.2344 67.1637C65.498 67.0532 65.7227 66.8668 65.88 66.6282C66.0373 66.3897 66.1201 66.1097 66.1179 65.8239C66.114 65.4452 65.9616 65.0832 65.6934 64.8157C65.4252 64.5483 65.0627 64.3968 64.6839 64.3939ZM64.6749 55.9179C64.4866 55.9174 64.3001 55.9542 64.1261 56.0261C63.952 56.098 63.794 56.2037 63.6609 56.3369L55.1889 64.8059C54.9196 65.0775 54.7685 65.4445 54.7685 65.8269C54.7685 66.2094 54.9196 66.5764 55.1889 66.8479C55.3179 66.9848 55.4737 67.0936 55.6466 67.1674C55.8196 67.2412 56.0059 67.2785 56.1939 67.2769C56.3847 67.28 56.574 67.2434 56.7499 67.1696C56.9258 67.0957 57.0845 66.9862 57.2159 66.8479L65.6889 58.3809C65.8912 58.1799 66.0293 57.9233 66.0857 57.6437C66.142 57.3641 66.1141 57.0741 66.0056 56.8104C65.897 56.5466 65.7126 56.321 65.4757 56.1622C65.2388 56.0033 64.9602 55.9183 64.6749 55.9179ZM56.2109 55.9249C55.9253 55.9236 55.6456 56.0071 55.4075 56.165C55.1695 56.3229 54.9837 56.548 54.8738 56.8117C54.7639 57.0754 54.7349 57.3659 54.7905 57.6461C54.846 57.9263 54.9836 58.1837 55.1857 58.3856C55.3879 58.5874 55.6455 58.7247 55.9258 58.7798C56.2061 58.835 56.4965 58.8056 56.76 58.6953C57.0236 58.5851 57.2484 58.399 57.406 58.1607C57.5636 57.9224 57.6467 57.6426 57.6449 57.3569C57.6423 56.9775 57.4904 56.6144 57.222 56.3462C56.9536 56.078 56.5904 55.9273 56.2109 55.9249Z" fill="#B4C9F8"/>
<path d="M138 39H97V45H138V39Z" fill="#D6E1F9"/>
<path d="M130 23H97V29H130V23Z" fill="#D6E1F9"/>
<path d="M162 7H97V13H162V7Z" fill="#D6E1F9"/>
</svg>
