<svg width="16" height="16" viewBox="0 0 16 16" fill="none" xmlns="http://www.w3.org/2000/svg">
<g clip-path="url(#clip0_3419_1627)">
<path d="M1 0.99707C1 0.444786 1.44772 -0.00292969 2 -0.00292969H11.5801C11.8487 -0.00292969 12.106 0.10511 12.294 0.296862L13.5938 1.62207L14.6991 2.70287C14.8915 2.89102 15 3.14877 15 3.41788V14.9971C15 15.5494 14.5523 15.9971 14 15.9971H2C1.44772 15.9971 1 15.5494 1 14.9971V0.99707Z" fill="#EF5959"/>
<path d="M13.2989 9.54404C12.5144 8.71006 10.3446 9.0493 9.83572 9.13412C9.26835 8.56677 8.78091 7.92478 8.38685 7.22585C8.67662 6.42149 8.84341 5.57802 8.88159 4.7239C8.88159 3.96059 8.57768 3.14075 7.72956 3.14075C7.58511 3.14464 7.44398 3.18489 7.31921 3.25777C7.19444 3.33066 7.09006 3.43383 7.01573 3.55774C6.65528 4.17969 6.79663 5.466 7.37618 6.76645C7.03693 7.72059 6.54926 9.09878 5.90611 10.2155C5.03679 10.5618 3.19213 11.4099 3.01544 12.3499C2.98862 12.4861 2.998 12.627 3.04265 12.7585C3.08729 12.8899 3.16564 13.0074 3.26987 13.0991C3.47608 13.2811 3.74417 13.3772 4.01904 13.3676C5.12866 13.3676 6.23829 11.8269 6.98746 10.5052C7.85064 10.2107 8.73406 9.97924 9.63076 9.81261C10.804 10.8374 11.85 10.9929 12.3801 10.9929C13.101 10.9929 13.3695 10.6819 13.4685 10.4204C13.5207 10.2725 13.5324 10.1133 13.5026 9.95922C13.4728 9.80518 13.4025 9.66187 13.2989 9.54404ZM12.5356 10.0812C12.5002 10.2861 12.2387 10.4911 11.7511 10.3851C11.1862 10.2434 10.6599 9.97788 10.2103 9.60765C10.592 9.54404 11.4825 9.45923 12.1115 9.57938C12.3377 9.62179 12.5992 9.749 12.5356 10.0812ZM7.47513 3.82631C7.49829 3.78032 7.53357 3.74153 7.57717 3.71413C7.62076 3.68673 7.67101 3.67175 7.72249 3.67082C7.99106 3.67082 8.04761 3.99593 8.04761 4.2645C8.00362 4.90513 7.88502 5.53843 7.69422 6.15157C7.24189 4.95007 7.3055 4.11608 7.47513 3.82631ZM7.41152 9.69953C7.67338 9.15117 7.90692 8.58973 8.11121 8.01743C8.39363 8.46448 8.7153 8.88549 9.07242 9.27547C8.51156 9.38686 7.95712 9.52842 7.41152 9.69953ZM5.63754 10.9152C4.9237 12.0601 4.224 12.781 3.81408 12.781C3.74734 12.7816 3.68245 12.7591 3.63032 12.7174C3.59224 12.6867 3.56347 12.6459 3.54724 12.5997C3.53101 12.5535 3.52797 12.5037 3.53844 12.4559C3.61619 12.046 4.42897 11.4523 5.63754 10.9152Z" fill="white"/>
</g>
<defs>
<clipPath id="clip0_3419_1627">
<rect width="16" height="16" fill="white"/>
</clipPath>
</defs>
</svg>
