<svg width="16" height="16" viewBox="0 0 16 16" fill="none" xmlns="http://www.w3.org/2000/svg">
<g clip-path="url(#clip0_3824_16559)">
<path d="M1 0.99707C1 0.444786 1.44772 -0.00292969 2 -0.00292969H11.5801C11.8487 -0.00292969 12.106 0.10511 12.294 0.296862L13.5938 1.62207L14.6991 2.70287C14.8915 2.89102 15 3.14877 15 3.41788V14.9971C15 15.5494 14.5523 15.9971 14 15.9971H2C1.44772 15.9971 1 15.5494 1 14.9971V0.99707Z" fill="#E9923A"/>
<path d="M7.91656 10.102H5.4537L4.95054 11.6579C4.94492 11.6862 4.9289 11.7115 4.90562 11.7286C4.88235 11.7458 4.8535 11.7536 4.82475 11.7506H3.58008C3.50725 11.7506 3.48739 11.7108 3.50725 11.6314L5.63908 5.4941C5.65894 5.4279 5.6788 5.35507 5.70529 5.27562C5.73193 5.13373 5.74523 4.98966 5.74501 4.84529C5.74303 4.82871 5.74738 4.81199 5.7572 4.79848C5.76703 4.78498 5.78159 4.77568 5.79797 4.77246H7.5127C7.56567 4.77246 7.59215 4.79232 7.59877 4.82543L10.0153 11.6446C10.0351 11.7174 10.0153 11.7506 9.94908 11.7506H8.56538C8.54198 11.7528 8.51853 11.7467 8.49916 11.7334C8.47978 11.7201 8.46572 11.7004 8.45945 11.6777L7.91656 10.102ZM5.8377 8.75805H7.51933C7.4796 8.61902 7.42664 8.4535 7.36705 8.28137C7.30747 8.10923 7.24788 7.91062 7.1883 7.712C7.12871 7.51338 7.06251 7.30814 6.9963 7.10291C6.93009 6.89767 6.87051 6.70567 6.81754 6.51367C6.76458 6.32168 6.71824 6.15616 6.67189 5.99727H6.65865C6.59915 6.28582 6.52401 6.57093 6.43355 6.85132C6.33424 7.16911 6.23493 7.50014 6.129 7.83117C6.03632 8.16882 5.93701 8.47999 5.8377 8.75805Z" fill="white"/>
<path d="M11.4584 5.90447C11.3497 5.90685 11.2416 5.88758 11.1405 5.8478C11.0393 5.80802 10.9471 5.74851 10.8692 5.67275C10.7175 5.5069 10.6367 5.28829 10.6441 5.06365C10.6401 4.9542 10.6593 4.84516 10.7004 4.74363C10.7415 4.6421 10.8035 4.55037 10.8824 4.47442C11.0415 4.32401 11.2527 4.24098 11.4716 4.2427C11.7298 4.2427 11.9284 4.32215 12.0741 4.47442C12.2208 4.63495 12.2991 4.84631 12.2926 5.06365C12.2966 5.17551 12.2782 5.28705 12.2384 5.39166C12.1986 5.49628 12.1382 5.59186 12.0609 5.67275C11.9828 5.75221 11.8887 5.81401 11.7848 5.85399C11.6808 5.89396 11.5695 5.91117 11.4584 5.90447ZM10.7169 11.6511V6.55329C10.7169 6.48708 10.7434 6.4606 10.8029 6.4606H12.1138C12.1734 6.4606 12.1999 6.4937 12.1999 6.55329V11.6511C12.1999 11.724 12.1734 11.7571 12.1138 11.7571H10.8162C10.8023 11.7582 10.7883 11.7562 10.7753 11.7512C10.7622 11.7462 10.7505 11.7383 10.7409 11.7281C10.7314 11.7179 10.7243 11.7057 10.7201 11.6924C10.7159 11.679 10.7148 11.6649 10.7169 11.6511Z" fill="white"/>
</g>
<defs>
<clipPath id="clip0_3824_16559">
<rect width="16" height="16" fill="white"/>
</clipPath>
</defs>
</svg>
