<svg width="16" height="16" viewBox="0 0 16 16" fill="none" xmlns="http://www.w3.org/2000/svg">
<g clip-path="url(#clip0_3824_16558)">
<path d="M1 0.99707C1 0.444786 1.44772 -0.00292969 2 -0.00292969H11.5801C11.8487 -0.00292969 12.106 0.10511 12.294 0.296862L13.5938 1.62207L14.6991 2.70287C14.8915 2.89102 15 3.14877 15 3.41788V14.9971C15 15.5494 14.5523 15.9971 14 15.9971H2C1.44772 15.9971 1 15.5494 1 14.9971V0.99707Z" fill="#3F9BF9"/>
<path d="M3.375 11.4673V4.41653C3.375 4.36857 3.39422 4.34116 3.43905 4.34116C3.54795 4.34116 3.65043 4.34116 3.79776 4.33431C3.94509 4.32746 4.11163 4.32746 4.28458 4.3206C4.45752 4.31375 4.64328 4.31375 4.84185 4.3069C5.04042 4.30005 5.23258 4.30005 5.42475 4.30005C5.95 4.30005 6.38557 4.36857 6.74427 4.51246C7.06583 4.62927 7.35903 4.82121 7.6026 5.07433C7.80901 5.29585 7.96848 5.56224 8.0702 5.85546C8.16717 6.14102 8.21702 6.44242 8.21753 6.74623C8.21753 7.33551 8.08942 7.822 7.8332 8.20572C7.57579 8.58891 7.21641 8.88022 6.80192 9.04167C6.36635 9.21297 5.88594 9.27464 5.36069 9.27464C5.20696 9.27464 5.10447 9.27464 5.04042 9.26779C4.97637 9.26093 4.88669 9.26093 4.76498 9.26093V11.4604C4.76641 11.4717 4.76571 11.4832 4.76292 11.4942C4.76013 11.5051 4.75531 11.5154 4.74873 11.5244C4.74216 11.5333 4.73398 11.5408 4.72467 11.5462C4.71535 11.5517 4.7051 11.5552 4.69452 11.5564H3.45187C3.40062 11.5564 3.375 11.529 3.375 11.4673ZM4.77139 5.66361V7.9659C4.86107 7.97275 4.94434 7.9796 5.0212 7.9796H5.36069C5.61075 7.97992 5.85931 7.9383 6.09732 7.85626C6.30152 7.79203 6.48395 7.66589 6.62257 7.49311C6.75708 7.3218 6.82114 7.08883 6.82114 6.78734C6.82717 6.57323 6.77606 6.3617 6.67381 6.17751C6.56701 5.9996 6.40993 5.86278 6.22543 5.78694C5.98496 5.6862 5.72766 5.63954 5.46959 5.6499C5.30304 5.6499 5.15572 5.6499 5.03401 5.65676C4.94646 5.65063 4.85856 5.65293 4.77139 5.66361Z" fill="white"/>
<path d="M12.2147 7.54759C12.0213 7.43862 11.8141 7.36015 11.5997 7.31462C11.3643 7.25757 11.1237 7.22771 10.8823 7.22554C10.7527 7.22076 10.6231 7.23693 10.498 7.2735C10.4182 7.29126 10.3474 7.34011 10.2994 7.41055C10.2671 7.46614 10.2494 7.53007 10.2482 7.59555C10.2512 7.66074 10.2736 7.72318 10.3122 7.7737C10.3729 7.84988 10.4469 7.91271 10.53 7.95871C10.6773 8.04093 10.8311 8.11631 10.9848 8.18483C11.3309 8.30945 11.662 8.47735 11.9712 8.68503C12.1816 8.82652 12.3556 9.02202 12.4773 9.25375C12.5802 9.47234 12.6308 9.71484 12.6246 9.95951C12.6298 10.2834 12.5427 10.6013 12.3748 10.8708C12.1961 11.1444 11.9468 11.3563 11.6574 11.4807C11.3435 11.6246 10.9592 11.6999 10.498 11.6999C10.2056 11.7012 9.91376 11.6714 9.62685 11.6109C9.40094 11.5691 9.18122 11.4954 8.97349 11.3916C8.95116 11.3796 8.93259 11.3609 8.92007 11.3378C8.90755 11.3146 8.90163 11.2881 8.90303 11.2614V10.0691C8.90248 10.0574 8.90451 10.0457 8.90896 10.035C8.91341 10.0243 8.92016 10.0149 8.92866 10.0075C8.93768 10.0018 8.94816 9.99948 8.95854 10.0007C8.96892 10.0019 8.97865 10.0067 8.98631 10.0143C9.23305 10.1699 9.50106 10.2832 9.78058 10.3501C10.0274 10.4188 10.2814 10.4533 10.5364 10.4529C10.7798 10.4529 10.9528 10.4186 11.0681 10.3569C11.1195 10.3315 11.1631 10.2909 11.1937 10.24C11.2244 10.189 11.2408 10.1297 11.241 10.0691C11.241 9.97321 11.1898 9.88414 11.0873 9.79506C10.9848 9.70598 10.7734 9.6032 10.4596 9.47301C10.1376 9.35165 9.83179 9.18579 9.54999 8.97967C9.34927 8.82664 9.18297 8.62767 9.06317 8.39724C8.96095 8.18083 8.91033 7.94073 8.91585 7.69833C8.91679 7.40595 8.99207 7.11935 9.13363 6.86923C9.29635 6.59417 9.52991 6.37526 9.8062 6.23885C10.1073 6.0744 10.4852 5.99902 10.94 5.99902C11.2058 5.9991 11.4712 6.01971 11.7342 6.06069C11.9234 6.08807 12.1085 6.14102 12.2851 6.21829C12.3133 6.22896 12.3363 6.25114 12.3492 6.27996C12.3566 6.30671 12.3609 6.33432 12.362 6.36218V7.47907C12.3621 7.49238 12.3592 7.50553 12.3537 7.51744C12.3481 7.52935 12.34 7.53968 12.33 7.54759C12.2927 7.56192 12.2519 7.56192 12.2147 7.54759Z" fill="white"/>
</g>
<defs>
<clipPath id="clip0_3824_16558">
<rect width="16" height="16" fill="white"/>
</clipPath>
</defs>
</svg>
