<svg width="162" height="24" viewBox="0 0 162 24" fill="none" xmlns="http://www.w3.org/2000/svg">
<g clip-path="url(#clip0_5116_4046)">
<g clip-path="url(#clip1_5116_4046)">
<path d="M7.94105 0H0V8H7.94105V0Z" fill="white"/>
<path d="M23.8233 0H15.8823V8H23.8233V0Z" fill="url(#paint0_linear_5116_4046)"/>
<path d="M7.94113 8V24L15.8822 16V0L7.94113 8Z" fill="white"/>
</g>
<g clip-path="url(#clip2_5116_4046)">
<g clip-path="url(#clip3_5116_4046)">
<path d="M35.2404 16.8016V6.46921H31.5368V4.00049H41.7746V6.46921H37.9634V16.8016H35.2404Z" fill="white"/>
<path d="M50.5778 11.7355C50.6019 11.052 50.5055 10.4152 50.2868 9.8251C50.0681 9.235 49.7567 8.72146 49.3526 8.28822C48.9466 7.85498 48.4665 7.51698 47.9104 7.27422C47.3543 7.02958 46.7482 6.9082 46.0957 6.9082C45.3932 6.9082 44.7425 7.03332 44.1438 7.28355C43.5451 7.53379 43.0279 7.88673 42.5923 8.34424C42.1567 8.80176 41.8175 9.34144 41.5765 9.96329C41.3337 10.5851 41.2132 11.2742 41.2132 12.0305C41.2132 12.9941 41.4282 13.8475 41.8582 14.5907C42.2883 15.334 42.8926 15.9203 43.673 16.3461C44.4534 16.7737 45.3635 16.9866 46.4052 16.9866C46.8409 16.9866 47.282 16.9325 47.7306 16.8223C48.1773 16.7121 48.6129 16.5515 49.0374 16.3386C49.4601 16.1258 49.8475 15.8606 50.1997 15.5431L48.9651 13.8064C48.5666 14.1351 48.1903 14.3667 47.84 14.5011C47.4896 14.6356 47.1022 14.7028 46.6777 14.7028C46.0605 14.7028 45.5248 14.5833 45.0706 14.3461C44.6165 14.1089 44.2661 13.7766 44.0177 13.3489C43.8769 13.108 43.7805 12.8372 43.7193 12.5441H50.5611L50.5797 11.7392L50.5778 11.7355ZM44.7777 9.44975C45.1466 9.24247 45.5971 9.13976 46.1309 9.13976C46.4942 9.13976 46.8205 9.21633 47.1115 9.36759C47.4025 9.52071 47.6398 9.728 47.8289 9.98944C48.0161 10.2509 48.1217 10.5478 48.1458 10.8765V10.9493H43.7378C43.786 10.7383 43.8491 10.5422 43.9343 10.3648C44.1271 9.96329 44.4089 9.65704 44.7777 9.44975Z" fill="white"/>
<path d="M56.6573 16.9835C55.7379 16.9835 54.9149 16.7631 54.1883 16.3243C53.4616 15.8855 52.8907 15.2879 52.4736 14.5316C52.0566 13.7753 51.8471 12.9163 51.8471 11.9527C51.8471 10.9891 52.0566 10.1301 52.4736 9.37379C52.8907 8.61749 53.4635 8.01991 54.1883 7.58107C54.9149 7.14223 55.7379 6.92188 56.6573 6.92188C57.5156 6.92188 58.3034 7.08061 59.017 7.39807C59.7307 7.71553 60.2868 8.15437 60.6872 8.71459L59.271 10.4326C59.1004 10.2011 58.8891 9.99004 58.6352 9.80143C58.3812 9.61282 58.105 9.46343 57.8084 9.35325C57.5119 9.24307 57.206 9.18892 56.8909 9.18892C56.3941 9.18892 55.9566 9.30843 55.5748 9.54559C55.1929 9.78275 54.8945 10.1095 54.6758 10.5241C54.4589 10.9387 54.3495 11.4149 54.3495 11.9508C54.3495 12.4868 54.4607 12.9256 54.685 13.3402C54.9093 13.7547 55.2152 14.0834 55.6007 14.328C55.9882 14.5727 56.4238 14.6941 56.9076 14.6941C57.2227 14.6941 57.5193 14.6511 57.7973 14.5671C58.0754 14.4812 58.3386 14.3467 58.587 14.1656C58.8354 13.9826 59.0615 13.7641 59.2673 13.5064L60.6649 15.2263C60.2664 15.751 59.6992 16.1749 58.967 16.498C58.2348 16.821 57.4637 16.9816 56.6518 16.9816L56.6573 16.9835Z" fill="white"/>
<path d="M76.588 6.63269C76.588 6.40113 76.625 6.20879 76.6973 6.05566C76.7696 5.90253 76.8808 5.78675 77.0328 5.70832C77.1848 5.62989 77.3739 5.58881 77.6056 5.58881C77.7391 5.58881 77.8874 5.62242 78.0505 5.68965C78.2136 5.75687 78.3749 5.83904 78.5306 5.93615L79.2925 4.01644C79.0255 3.78489 78.7048 3.59814 78.3304 3.45809C77.956 3.31803 77.5556 3.24707 77.1329 3.24707C76.5046 3.24707 75.9559 3.38713 75.4906 3.66724C75.0253 3.94735 74.6583 4.33204 74.3932 4.81943C74.1263 5.30683 73.9947 5.85024 73.9947 6.44782V7.36285H72.56V9.55706H73.9947V16.7989H76.5898V9.55706H78.6585V7.36285H76.5898V6.63082L76.588 6.63269Z" fill="white"/>
<path d="M82.0486 5.15269C82.5324 5.15269 82.9161 5.01824 83.2016 4.7512C83.4852 4.48229 83.6279 4.14242 83.6279 3.72785C83.6279 3.28901 83.4889 2.94541 83.2109 2.69517C82.9328 2.44494 82.5454 2.31982 82.0486 2.31982C81.5518 2.31982 81.1811 2.45054 80.8956 2.71198C80.612 2.97342 80.4693 3.31329 80.4693 3.72599C80.4693 4.1779 80.6083 4.52711 80.8864 4.77734C81.1644 5.02757 81.5518 5.15269 82.0486 5.15269ZM80.7789 16.8016H83.3573V7.12841H80.7789V16.8016Z" fill="white"/>
<path d="M70.7711 8.69161C70.5227 8.09964 70.1538 7.65893 69.6645 7.36575C69.1751 7.07256 68.5671 6.9269 67.8405 6.9269C67.3085 6.9269 66.8006 7.03708 66.3149 7.25557C65.8311 7.47592 65.4159 7.76537 65.0711 8.12392C64.9951 8.20235 64.9284 8.28451 64.8617 8.36668V3.27051H62.3203V16.8018H64.8987V10.9867C64.8987 10.7308 64.9506 10.4937 65.0526 10.2733C65.1545 10.0548 65.2936 9.85874 65.4697 9.68881C65.6458 9.51887 65.8571 9.38629 66.1055 9.29478C66.3539 9.20328 66.6226 9.15846 66.9137 9.15846C67.277 9.14726 67.5828 9.20702 67.8312 9.34147C68.0796 9.47592 68.2631 9.68881 68.3855 9.98199C68.506 10.2752 68.5671 10.6393 68.5671 11.0782V16.8018H71.1456V10.8765C71.1456 10.0119 71.0214 9.28358 70.773 8.69161H70.7711Z" fill="white"/>
<path d="M94.1291 8.69146C93.8807 8.09949 93.5118 7.65878 93.0225 7.3656C92.5331 7.07242 91.9251 6.92676 91.1985 6.92676C90.6665 6.92676 90.1586 7.03693 89.6729 7.25542C89.1891 7.47578 88.7739 7.76523 88.4291 8.12377C88.3438 8.21154 88.266 8.30304 88.1937 8.39641L88.1474 7.12844H85.6783V16.8016H88.2567V10.9865C88.2567 10.7307 88.3086 10.4935 88.4106 10.2732C88.5125 10.0547 88.6516 9.8586 88.8277 9.68866C89.0037 9.51873 89.2151 9.38614 89.4635 9.29464C89.7118 9.20314 89.9806 9.15832 90.2716 9.15832C90.635 9.14711 90.9408 9.20687 91.1892 9.34132C91.4376 9.47578 91.6211 9.68866 91.7434 9.98185C91.8639 10.275 91.9251 10.6392 91.9251 11.078V16.8016H94.5035V10.8763C94.5035 10.0117 94.3793 9.28343 94.1309 8.69146H94.1291Z" fill="white"/>
</g>
<g clip-path="url(#clip4_5116_4046)">
<path d="M124.909 7.1268H122.931V4.67676H120.353V7.1268H118.556V9.44987H120.353V16.8019H122.931V9.44987H124.909V7.1268Z" fill="white"/>
<path d="M128.068 5.15269C128.551 5.15269 128.935 5.01824 129.221 4.7512C129.504 4.48229 129.647 4.14242 129.647 3.72785C129.647 3.28901 129.508 2.94541 129.23 2.69517C128.952 2.44494 128.564 2.31982 128.068 2.31982C127.571 2.31982 127.198 2.45054 126.915 2.71198C126.631 2.97342 126.488 3.31329 126.488 3.72599C126.488 4.1779 126.627 4.52711 126.905 4.77734C127.183 5.02757 127.571 5.15269 128.068 5.15269ZM126.796 16.8016H129.374V7.12841H126.796V16.8016Z" fill="white"/>
<path d="M157.958 16.9835C157.063 16.9835 156.267 16.8341 155.57 16.5353C154.875 16.2365 154.315 15.8257 153.891 15.301L155.507 13.9116C155.871 14.3131 156.282 14.6044 156.742 14.78C157.202 14.9574 157.661 15.0451 158.121 15.0451C158.303 15.0451 158.469 15.0246 158.62 14.9816C158.772 14.9387 158.901 14.8789 159.011 14.7986C159.12 14.7202 159.202 14.6212 159.255 14.5054C159.309 14.3897 159.337 14.2645 159.337 14.1301C159.337 13.8612 159.228 13.6539 159.011 13.5082C158.89 13.4354 158.703 13.3532 158.447 13.2617C158.193 13.1702 157.867 13.0694 157.467 12.9592C156.849 12.8005 156.327 12.6156 155.897 12.4009C155.467 12.188 155.125 11.9471 154.872 11.6782C154.653 11.4223 154.488 11.1441 154.373 10.8453C154.258 10.5465 154.2 10.2141 154.2 9.84811C154.2 9.40927 154.297 9.00964 154.492 8.6511C154.684 8.29256 154.955 7.98443 155.3 7.72673C155.644 7.47089 156.041 7.27295 156.488 7.13289C156.935 6.99284 157.407 6.92188 157.904 6.92188C158.401 6.92188 158.885 6.9835 159.355 7.10488C159.828 7.22626 160.266 7.39993 160.672 7.62589C161.078 7.85185 161.432 8.11702 161.734 8.42141L160.355 9.95829C160.136 9.75101 159.891 9.5624 159.619 9.3906C159.346 9.22066 159.064 9.08621 158.775 8.9891C158.484 8.892 158.225 8.84344 157.995 8.84344C157.789 8.84344 157.606 8.86212 157.441 8.8976C157.278 8.93495 157.14 8.99284 157.033 9.07127C156.923 9.15157 156.842 9.24494 156.788 9.35511C156.734 9.46529 156.707 9.58667 156.707 9.72113C156.707 9.85558 156.74 9.98257 156.807 10.1058C156.873 10.2272 156.966 10.3318 157.088 10.4158C157.222 10.4886 157.418 10.5745 157.678 10.6716C157.937 10.7687 158.291 10.8789 158.74 11.0003C159.32 11.159 159.813 11.3364 160.219 11.5307C160.625 11.7267 160.948 11.9508 161.191 12.2067C161.396 12.4251 161.547 12.6754 161.645 12.9555C161.741 13.2356 161.789 13.5475 161.789 13.8873C161.789 14.4849 161.623 15.0152 161.291 15.4784C160.957 15.9415 160.501 16.3075 159.921 16.5745C159.341 16.8434 158.686 16.976 157.96 16.976L157.958 16.9835Z" fill="white"/>
<path d="M106.05 6.98091C105.857 6.94356 105.657 6.92676 105.451 6.92676C104.967 6.92676 104.504 7.04254 104.063 7.2741C103.622 7.50566 103.236 7.82498 102.91 8.23395C102.791 8.38334 102.687 8.5402 102.593 8.7008L102.547 7.12657H100.061V16.7998H102.656V11.7895C102.656 11.4851 102.708 11.205 102.81 10.9492C102.912 10.6933 103.054 10.4711 103.236 10.2825C103.418 10.0939 103.633 9.94823 103.881 9.84366C104.13 9.74095 104.398 9.68866 104.689 9.68866C104.908 9.68866 105.121 9.71667 105.334 9.77083C105.546 9.82498 105.718 9.89034 105.852 9.96317L106.541 7.10976C106.408 7.06121 106.245 7.01826 106.052 6.98091H106.05Z" fill="white"/>
<path d="M114.291 7.12697V8.41175C114.106 8.15592 113.896 7.91876 113.646 7.71334C113.35 7.46871 113.005 7.27823 112.612 7.13631C112.219 6.99625 111.785 6.92529 111.314 6.92529C110.48 6.92529 109.735 7.13818 109.082 7.56582C108.428 7.99345 107.911 8.58356 107.531 9.33986C107.149 10.0962 106.958 10.9608 106.958 11.9374C106.958 12.9141 107.145 13.7787 107.522 14.535C107.896 15.2913 108.404 15.8889 109.047 16.3277C109.689 16.7666 110.408 16.9869 111.207 16.9869C111.653 16.9869 112.078 16.916 112.478 16.7759C112.877 16.6358 113.238 16.4472 113.559 16.2082C113.832 16.0065 114.06 15.775 114.258 15.5229V16.802H116.853V7.12884H114.293L114.291 7.12697ZM114.028 13.409C113.828 13.8291 113.546 14.1559 113.185 14.3875C112.821 14.619 112.399 14.7348 111.913 14.7348C111.427 14.7348 111.027 14.619 110.669 14.3875C110.311 14.1559 110.032 13.8291 109.826 13.409C109.62 12.9888 109.518 12.4977 109.518 11.9374C109.518 11.3772 109.62 10.9066 109.826 10.4921C110.032 10.0775 110.313 9.75069 110.669 9.51353C111.025 9.27637 111.44 9.15685 111.913 9.15685C112.386 9.15685 112.821 9.27637 113.185 9.51353C113.548 9.75069 113.83 10.0775 114.028 10.4921C114.228 10.9066 114.328 11.3884 114.328 11.9374C114.328 12.4865 114.228 12.9888 114.028 13.409Z" fill="white"/>
<path d="M140.176 8.69146C139.927 8.09949 139.558 7.65878 139.069 7.3656C138.58 7.07242 137.972 6.92676 137.245 6.92676C136.713 6.92676 136.205 7.03693 135.72 7.25542C135.236 7.47578 134.82 7.76523 134.476 8.12377C134.39 8.21154 134.313 8.30304 134.24 8.39641L134.194 7.12844H131.725V16.8016H134.303V10.9865C134.303 10.7307 134.355 10.4935 134.457 10.2732C134.559 10.0547 134.698 9.8586 134.874 9.68866C135.05 9.51873 135.262 9.38614 135.51 9.29464C135.758 9.20314 136.027 9.15832 136.318 9.15832C136.682 9.14711 136.987 9.20687 137.236 9.34132C137.484 9.47578 137.668 9.68866 137.79 9.98185C137.911 10.275 137.972 10.6392 137.972 11.078V16.8016H140.55V10.8763C140.55 10.0117 140.426 9.28343 140.178 8.69146H140.176Z" fill="white"/>
<path d="M149.956 7.12697L149.919 8.25489C149.819 8.13911 149.709 8.02893 149.583 7.92249C149.359 7.73388 149.105 7.56395 148.821 7.41082C148.538 7.25956 148.228 7.14005 147.896 7.05414C147.563 6.96824 147.216 6.92529 146.853 6.92529C145.982 6.92529 145.203 7.14191 144.521 7.57515C143.837 8.00839 143.299 8.5985 142.906 9.3492C142.513 10.098 142.317 10.9552 142.317 11.9188C142.317 12.8823 142.517 13.7283 142.916 14.4603C143.314 15.1923 143.859 15.7656 144.549 16.1783C145.238 16.5929 146.024 16.8002 146.908 16.8002C147.44 16.8002 147.952 16.6993 148.441 16.4977C148.931 16.296 149.342 16.0289 149.676 15.6928C149.739 15.6293 149.795 15.5621 149.848 15.4949V16.1765C149.848 16.761 149.745 17.2484 149.539 17.6386C149.333 18.0289 149.027 18.3221 148.623 18.5163C148.217 18.7105 147.7 18.8095 147.072 18.8095C146.708 18.8095 146.354 18.7722 146.009 18.6993C145.665 18.6265 145.335 18.5219 145.02 18.3893C144.704 18.2549 144.426 18.1036 144.185 17.9318L143.26 19.7787C143.733 20.1447 144.337 20.4398 145.075 20.6657C145.813 20.8917 146.564 21.0037 147.326 21.0037C148.087 21.0037 148.823 20.8935 149.459 20.6751C150.095 20.4547 150.632 20.1354 151.075 19.7152C151.517 19.295 151.852 18.7796 152.082 18.1709C152.312 17.5602 152.427 16.8599 152.427 16.0681V7.12697H149.958H149.956ZM149.611 13.3996C149.405 13.8142 149.112 14.1372 148.731 14.3688C148.349 14.6004 147.904 14.7161 147.396 14.7161C146.888 14.7161 146.464 14.6004 146.089 14.3688C145.715 14.1372 145.42 13.8104 145.209 13.3903C144.997 12.9701 144.892 12.4846 144.892 11.9374C144.892 11.3903 144.997 10.9234 145.209 10.5014C145.42 10.0812 145.715 9.75069 146.089 9.51353C146.464 9.27637 146.899 9.15685 147.396 9.15685C147.893 9.15685 148.349 9.27263 148.731 9.50419C149.112 9.73575 149.405 10.0625 149.611 10.4827C149.817 10.9029 149.921 11.3884 149.921 11.9356C149.921 12.4827 149.817 12.985 149.611 13.3977V13.3996Z" fill="white"/>
</g>
</g>
</g>
<defs>
<linearGradient id="paint0_linear_5116_4046" x1="15.8823" y1="4" x2="23.8233" y2="4" gradientUnits="userSpaceOnUse">
<stop stop-color="white" stop-opacity="0"/>
<stop offset="1" stop-color="white"/>
</linearGradient>
<clipPath id="clip0_5116_4046">
<rect width="162" height="24" fill="white"/>
</clipPath>
<clipPath id="clip1_5116_4046">
<rect width="23.8233" height="24" fill="white"/>
</clipPath>
<clipPath id="clip2_5116_4046">
<rect width="130.252" height="18.6831" fill="white" transform="translate(31.5377 2.31885)"/>
</clipPath>
<clipPath id="clip3_5116_4046">
<rect width="62.9667" height="14.6663" fill="white" transform="translate(31.5372 2.31934)"/>
</clipPath>
<clipPath id="clip4_5116_4046">
<rect width="61.7285" height="18.6831" fill="white" transform="translate(100.061 2.31934)"/>
</clipPath>
</defs>
</svg>
