<svg width="100" height="22" viewBox="0 0 100 22" fill="none" xmlns="http://www.w3.org/2000/svg">
<path d="M5.98719 4.53858H0.165864C0.14362 4.53834 0.121551 4.54245 0.10098 4.55066C0.0804097 4.55888 0.0617615 4.57103 0.0461433 4.5864C0.016451 4.61808 0 4.65936 0 4.70217C0 4.74499 0.016451 4.78627 0.0461433 4.81795L0.697571 5.6294C0.753825 5.69019 0.796456 5.76164 0.822762 5.83924C0.849068 5.91684 0.858477 5.99889 0.850395 6.0802V17.2977C0.850302 17.3193 0.854609 17.3406 0.86307 17.3606C0.871531 17.3805 0.883979 17.3986 0.899692 17.4138C0.915406 17.4291 0.934077 17.4412 0.954626 17.4494C0.975174 17.4576 0.997191 17.4617 1.01941 17.4616H5.91254C10.7092 17.4616 13.5072 14.6926 13.5072 10.9626V10.9257C13.5058 7.19696 10.7472 4.53858 5.98719 4.53858ZM9.71972 11.0179C9.71972 13.1974 8.25347 14.4331 6.04564 14.4331H4.54207V7.56717H6.04564C8.25417 7.56717 9.71972 8.82054 9.71972 10.9824V11.0179Z" fill="black"/>
<path d="M22.0483 4C20.6591 4 19.3011 4.41056 18.146 5.17976C16.991 5.94896 16.0907 7.04225 15.5591 8.32137C15.0275 9.6005 14.8885 11.008 15.1595 12.3659C15.4306 13.7238 16.0996 14.971 17.082 15.95C18.0643 16.9289 19.3159 17.5956 20.6784 17.8656C22.0409 18.1356 23.4532 17.9969 24.7366 17.467C26.02 16.937 27.1169 16.0397 27.8886 14.8885C28.6603 13.7373 29.0721 12.3838 29.072 10.9993C29.0718 9.14292 28.3317 7.36261 27.0145 6.05001C25.6974 4.7374 23.911 4 22.0483 4ZM22.0483 14.5C21.3537 14.5 20.6747 14.2947 20.0972 13.9101C19.5197 13.5256 19.0695 12.9789 18.8037 12.3394C18.5379 11.6998 18.4684 10.9961 18.6039 10.3172C18.7394 9.63825 19.0739 9.01461 19.565 8.52513C20.0562 8.03564 20.6819 7.7023 21.3631 7.56725C22.0444 7.4322 22.7505 7.50151 23.3922 7.76642C24.0339 8.03133 24.5824 8.47993 24.9683 9.0555C25.3542 9.63108 25.5601 10.3078 25.5601 11C25.5601 11.9283 25.1901 12.8185 24.5315 13.4749C23.8729 14.1312 22.9797 14.5 22.0483 14.5Z" fill="#00AAF0"/>
<path d="M43.5557 4.43599C43.5557 4.414 43.5515 4.39224 43.5431 4.37194C43.5348 4.35164 43.5226 4.33321 43.5073 4.3177C43.4919 4.30218 43.4737 4.2899 43.4536 4.28155C43.4336 4.2732 43.4121 4.26895 43.3904 4.26905H39.2186C39.197 4.26893 39.1756 4.27319 39.1556 4.28159C39.1356 4.28999 39.1175 4.30235 39.1022 4.31794C39.074 4.35076 39.0585 4.39281 39.0585 4.43634C39.0585 4.47986 39.074 4.52192 39.1022 4.55474L39.74 5.38455C39.7951 5.44665 39.8369 5.51972 39.8626 5.59909C39.8884 5.67847 39.8975 5.76241 39.8895 5.84557V11.7074C39.8895 13.557 38.9404 14.4267 37.4885 14.4267C36.0366 14.4267 35.0868 13.5186 35.0868 11.6131V4.43599C35.0868 4.41406 35.0825 4.39236 35.0742 4.3721C35.066 4.35185 35.0538 4.33344 35.0386 4.31794C35.0233 4.30244 35.0051 4.29015 34.9852 4.28176C34.9652 4.27337 34.9438 4.26905 34.9222 4.26905H30.7504C30.7286 4.26891 30.7071 4.27317 30.687 4.28156C30.6669 4.28996 30.6486 4.30232 30.6333 4.31794C30.6051 4.35076 30.5895 4.39281 30.5895 4.43634C30.5895 4.47986 30.6051 4.52192 30.6333 4.55474L31.2704 5.38455C31.3255 5.44665 31.3673 5.51972 31.393 5.59909C31.4187 5.67847 31.4279 5.76241 31.4198 5.84557V11.6885C31.4198 15.823 33.7471 17.7306 37.452 17.7306C41.1568 17.7306 43.5564 15.8614 43.5564 11.5949L43.5557 4.43599Z" fill="black"/>
<path d="M56.4167 14.6C56.4167 14.5566 56.3996 14.515 56.3693 14.4843C56.3389 14.4535 56.2977 14.4362 56.2547 14.436H49.989L56.2696 7.30941C56.3239 7.24871 56.3651 7.17728 56.3906 7.09965C56.416 7.02203 56.4251 6.93992 56.4174 6.85854V4.70185C56.4174 4.65854 56.4003 4.61701 56.3699 4.58639C56.3395 4.55577 56.2983 4.53857 56.2554 4.53857H45.4591C45.4161 4.53857 45.3748 4.55575 45.3443 4.58635C45.3138 4.61695 45.2966 4.65848 45.2964 4.70185V7.40164C45.2966 7.44501 45.3138 7.48653 45.3443 7.51713C45.3748 7.54773 45.4161 7.56491 45.4591 7.56491H51.5079L45.2246 14.6915C45.1701 14.7521 45.1288 14.8235 45.1034 14.9012C45.0779 14.9788 45.0689 15.061 45.0768 15.1424V17.2977C45.0767 17.3193 45.0809 17.3406 45.089 17.3605C45.0972 17.3805 45.1091 17.3986 45.1243 17.4138C45.1394 17.4291 45.1574 17.4411 45.1771 17.4494C45.1969 17.4576 45.2181 17.4617 45.2395 17.4616H56.2547C56.276 17.4616 56.2972 17.4574 56.3168 17.4492C56.3365 17.4409 56.3544 17.4288 56.3695 17.4136C56.3845 17.3984 56.3965 17.3803 56.4046 17.3604C56.4127 17.3405 56.4168 17.3192 56.4167 17.2977V14.6Z" fill="black"/>
<path d="M64.9609 4C63.5717 4 62.2137 4.41056 61.0586 5.17976C59.9036 5.94896 59.0033 7.04225 58.4717 8.32137C57.9401 9.6005 57.8011 11.008 58.0721 12.3659C58.3432 13.7238 59.0122 14.971 59.9946 15.95C60.9769 16.9289 62.2285 17.5956 63.591 17.8656C64.9535 18.1356 66.3658 17.9969 67.6492 17.467C68.9326 16.937 70.0295 16.0397 70.8012 14.8885C71.5729 13.7373 71.9847 12.3838 71.9846 10.9993C71.9846 10.0801 71.8029 9.16987 71.4499 8.32063C71.0969 7.47139 70.5796 6.69976 69.9273 6.04981C69.2751 5.39985 68.5008 4.8843 67.6487 4.53259C66.7965 4.18089 65.8832 3.99991 64.9609 4ZM64.9609 14.5C64.2663 14.4997 63.5875 14.2942 63.0101 13.9095C62.4328 13.5247 61.9829 12.978 61.7173 12.3384C61.4517 11.6989 61.3824 10.9952 61.518 10.3163C61.6537 9.63749 61.9883 9.01398 62.4795 8.52464C62.9707 8.03529 63.5964 7.70209 64.2776 7.56715C64.9588 7.43221 65.6649 7.50161 66.3065 7.76655C66.9481 8.0315 67.4965 8.4801 67.8823 9.05565C68.2682 9.63119 68.4741 10.3078 68.4741 11C68.4741 11.4597 68.3832 11.915 68.2066 12.3397C68.0301 12.7644 67.7713 13.1503 67.445 13.4754C67.1188 13.8004 66.7315 14.0582 66.3052 14.234C65.879 14.4098 65.4222 14.5002 64.9609 14.5Z" fill="#00AAF0"/>
<path d="M86.3079 4.53858H82.1809C82.1593 4.53847 82.138 4.54264 82.118 4.55084C82.0981 4.55905 82.0799 4.57112 82.0646 4.58638C82.0347 4.61745 82.0181 4.65896 82.0181 4.70215C82.0181 4.74534 82.0347 4.78684 82.0646 4.81791C82.1272 4.89645 82.7948 5.75904 82.7948 5.75904C82.849 5.81991 82.8901 5.89138 82.9155 5.96894C82.9409 6.04651 82.95 6.1285 82.9424 6.20979V11.3682L77.8186 4.75644C77.7743 4.69171 77.7155 4.63835 77.6468 4.60062C77.5782 4.5629 77.5018 4.54188 77.4236 4.53926H73.6637C73.6423 4.53902 73.621 4.54312 73.6011 4.55134C73.5812 4.55955 73.5632 4.5717 73.5482 4.58707C73.5186 4.6183 73.5021 4.65974 73.5021 4.70283C73.5021 4.74592 73.5186 4.78737 73.5482 4.81859L74.1764 5.62927C74.2306 5.6901 74.2717 5.76156 74.2971 5.83914C74.3225 5.91672 74.3317 5.99874 74.3239 6.08003V17.2971C74.3239 17.3185 74.328 17.3398 74.3361 17.3597C74.3442 17.3796 74.3562 17.3977 74.3713 17.4129C74.3864 17.4281 74.4043 17.4402 74.4241 17.4485C74.4439 17.4567 74.465 17.461 74.4864 17.461H77.6888C77.7102 17.461 77.7314 17.4567 77.7511 17.4485C77.7709 17.4402 77.7888 17.4281 77.8039 17.4129C77.819 17.3977 77.831 17.3796 77.8391 17.3597C77.8472 17.3398 77.8514 17.3185 77.8513 17.2971V10.3718L83.1708 17.2356C83.3265 17.435 83.5026 17.4617 83.8344 17.4617H86.3065C86.3279 17.4617 86.3491 17.4574 86.3689 17.4492C86.3886 17.4409 86.4066 17.4288 86.4217 17.4136C86.4368 17.3984 86.4487 17.3803 86.4569 17.3604C86.465 17.3405 86.4691 17.3192 86.469 17.2977V4.7018C86.469 4.65875 86.4521 4.61744 86.4219 4.58687C86.3917 4.5563 86.3507 4.53894 86.3079 4.53858Z" fill="black"/>
<path d="M99.1659 4.53858H88.1532C88.1202 4.53844 88.088 4.54792 88.0605 4.5658C88.0331 4.58369 88.0117 4.60918 87.999 4.63904C87.9863 4.66889 87.983 4.70177 87.9894 4.7335C87.9958 4.76524 88.0116 4.79439 88.0349 4.81726L88.6784 5.6287C88.7343 5.68932 88.7766 5.76074 88.8028 5.83838C88.8289 5.91601 88.8382 5.99814 88.8301 6.07951V17.2977C88.83 17.3193 88.8342 17.3406 88.8426 17.3606C88.851 17.3805 88.8633 17.3986 88.8788 17.4138C88.8943 17.4291 88.9127 17.4412 88.933 17.4494C88.9533 17.4576 88.9751 17.4617 88.997 17.4616H99.1659C99.1878 17.4616 99.2095 17.4574 99.2297 17.4492C99.25 17.4409 99.2683 17.4288 99.2838 17.4136C99.2992 17.3984 99.3114 17.3803 99.3198 17.3604C99.3281 17.3405 99.3323 17.3192 99.3322 17.2977V14.5984C99.3322 14.555 99.3147 14.5134 99.2836 14.4827C99.2524 14.452 99.2101 14.4346 99.1659 14.4344H92.4762V12.3525H98.4772C98.4992 12.3525 98.5209 12.3483 98.5412 12.34C98.5614 12.3317 98.5798 12.3195 98.5953 12.3042C98.6107 12.2889 98.6229 12.2708 98.6312 12.2508C98.6395 12.2308 98.6437 12.2095 98.6435 12.1879V9.81163C98.6435 9.76833 98.626 9.72681 98.5948 9.6962C98.5636 9.66558 98.5213 9.64838 98.4772 9.64838H92.4762V7.56716H99.1659C99.21 7.56716 99.2523 7.54997 99.2835 7.51935C99.3147 7.48874 99.3322 7.44721 99.3322 7.40392V4.70182C99.3322 4.65853 99.3147 4.617 99.2835 4.58639C99.2523 4.55577 99.21 4.53858 99.1659 4.53858Z" fill="black"/>
</svg>
