<svg width="100" height="22" viewBox="0 0 100 22" fill="none" xmlns="http://www.w3.org/2000/svg">
<g clip-path="url(#clip0_4193_12895)">
<path d="M0 12.9759C0.783848 13.5972 2.58379 14.4072 4.61019 14.8233C8.08234 15.539 12.1177 15.306 12.1351 12.471V10.2185H9.3423V12.6707C7.53655 12.8261 5.92821 11.9218 5.8237 10.2074C5.75983 9.15886 6.31142 8.31557 7.15914 7.83844C8.61652 7.01179 11.2468 7.08392 13.2906 8.16577C17.564 10.4238 17.2388 15.7221 13.4706 17.8026C8.89522 20.3325 1.6606 18.5183 0 17.8026L0 12.9759Z" fill="#13549C"/>
<path d="M15.6354 6.14709C11.1994 3.97228 6.46726 4.57146 4.5628 6.05832C2.44351 7.71717 2.40286 10.4634 3.94153 11.8005C-0.407376 10.3525 -0.442214 6.54654 0.742267 4.70462C2.67576 1.70316 9.27169 0.277331 15.6354 2.68515V6.14709Z" fill="#E53412"/>
<path d="M24.8002 0.160156H24.2022C24.2022 0.160156 23.3602 1.50277 23.2093 1.74133C23.0583 1.50277 22.2222 0.160156 22.2222 0.160156H21.4151C21.4151 0.160156 22.8203 2.39599 22.8493 2.44592V4.11031H23.5693V2.39599C23.5983 2.34606 24.9918 0.160156 24.9918 0.160156H24.8002Z" fill="#13549C"/>
<path d="M24.9942 1.45935C24.7387 1.7423 24.6109 2.13066 24.6109 2.60778C24.6109 3.08491 24.7387 3.47327 24.9942 3.75621C25.2496 4.04471 25.6038 4.18896 26.0335 4.18896C26.4631 4.18896 26.8115 4.04471 27.067 3.75621C27.3225 3.47327 27.4502 3.09046 27.4502 2.60778C27.4502 2.12511 27.3225 1.7423 27.067 1.45935C26.8115 1.17086 26.4631 1.02661 26.0335 1.02661C25.6038 1.02661 25.2496 1.17086 24.9942 1.45935ZM25.5109 3.34012C25.3832 3.17923 25.3193 2.93511 25.3193 2.60778C25.3193 2.28045 25.3832 2.02525 25.5109 1.8699C25.6328 1.72011 25.8012 1.64798 26.0335 1.64798C26.2657 1.64798 26.4283 1.72011 26.5502 1.8699C26.678 2.02525 26.7418 2.27491 26.7418 2.60778C26.7418 2.94066 26.678 3.17923 26.5502 3.34012C26.4225 3.49546 26.2541 3.56758 26.0335 3.56758C25.8128 3.56758 25.6387 3.48991 25.5109 3.33457V3.34012Z" fill="#13549C"/>
<path d="M30.4664 1.10376H29.88V3.23973C29.7697 3.32295 29.6535 3.39507 29.5258 3.44501C29.3923 3.50048 29.2703 3.53377 29.16 3.53377C29.0032 3.53377 28.922 3.51158 28.8813 3.49494C28.8233 3.47275 28.7826 3.43391 28.7478 3.37288C28.7129 3.3174 28.6897 3.23973 28.6781 3.15651L28.6607 2.80699V1.10376H27.9697V3.02336C27.9697 3.39507 28.0626 3.68357 28.2484 3.8833C28.4342 4.08302 28.7013 4.18843 29.0323 4.18843C29.2239 4.18843 29.4097 4.1496 29.5665 4.07747C29.671 4.02754 29.7813 3.94987 29.8858 3.87775V4.10521H30.5767V1.10376H30.4722H30.4664Z" fill="#13549C"/>
<path d="M32.2434 1.20356C32.1389 1.24794 32.0112 1.32561 31.8834 1.41438V1.09814H31.1983V4.10515H31.8834V2.06904C31.9938 1.98582 32.1099 1.9137 32.226 1.85822C32.3538 1.79719 32.4815 1.775 32.615 1.775L32.8415 1.78609L33.0389 1.81938L33.1608 1.84157L33.1899 1.71952V1.14253L32.9286 1.10369H32.737C32.5686 1.09814 32.406 1.13143 32.2434 1.19801V1.20356Z" fill="#13549C"/>
<path d="M35.2995 0.160089H35.195V4.11025H36.6523C36.9252 4.11025 37.1517 4.08251 37.3317 4.03812C37.5175 3.98819 37.6858 3.90497 37.8426 3.78292C37.9762 3.68305 38.0807 3.5499 38.162 3.39456C38.2433 3.23921 38.2781 3.05613 38.2781 2.8564C38.2781 2.57346 38.1968 2.3349 38.0284 2.14626C37.9065 2.00756 37.7381 1.91325 37.5523 1.84667C37.6452 1.7801 37.7323 1.70797 37.7962 1.61921C37.9007 1.47496 37.9529 1.30297 37.9529 1.10324C37.9529 0.931257 37.9181 0.775914 37.8426 0.648311C37.7729 0.520707 37.6568 0.409748 37.4942 0.326528C37.3549 0.259953 37.2097 0.210021 37.0646 0.187829L36.4259 0.154541H35.2995V0.160089ZM36.4085 0.803654L36.8207 0.820298C36.9194 0.831394 37.0007 0.853586 37.0704 0.892422C37.1168 0.920162 37.1517 0.953449 37.1749 0.997833C37.1981 1.04776 37.2097 1.10879 37.2097 1.18092C37.2097 1.27523 37.1981 1.35845 37.1691 1.41948C37.1459 1.48051 37.0994 1.52489 37.0414 1.56373C36.9717 1.60811 36.8962 1.63585 36.8149 1.64695L36.4549 1.66914H35.9033V0.803654C36.0485 0.803654 36.4027 0.803654 36.4027 0.803654H36.4085ZM36.6001 2.30716L37.0181 2.3238C37.1226 2.3349 37.2097 2.35709 37.2794 2.39037C37.3781 2.44031 37.4478 2.50133 37.4826 2.56791C37.5233 2.64003 37.5407 2.74545 37.5407 2.87305C37.5407 2.98401 37.5233 3.07832 37.4884 3.1449C37.4536 3.21147 37.3955 3.2725 37.3142 3.32798C37.2388 3.37791 37.1343 3.41675 37.0065 3.43339L36.4781 3.46668H35.9149V2.30161H36.6059L36.6001 2.30716Z" fill="#13549C"/>
<path d="M39.0881 1.4649C38.8152 1.7534 38.6759 2.14175 38.6759 2.62443C38.6759 3.1071 38.821 3.50101 39.1055 3.77286C39.39 4.04471 39.7907 4.17786 40.2842 4.17786C40.4758 4.17786 40.6616 4.15567 40.8416 4.10574L41.4222 3.91156V3.83943V3.09601L41.219 3.25135C41.1493 3.31792 41.0158 3.3845 40.8358 3.45662C40.6558 3.52875 40.47 3.56204 40.29 3.56204C40.1565 3.56204 40.0345 3.54539 39.9242 3.50656C39.8197 3.47327 39.7268 3.41779 39.6513 3.35121C39.57 3.27909 39.5062 3.19032 39.4597 3.07381C39.4249 2.99059 39.4191 2.87963 39.4075 2.76868H41.4803V2.40806C41.4803 1.97532 41.3642 1.63134 41.1377 1.39278C40.9113 1.14867 40.5861 1.02661 40.1739 1.02661C39.7268 1.02661 39.3668 1.17641 39.0939 1.4649H39.0881ZM40.1449 1.6147C40.3713 1.6147 40.5281 1.67018 40.6326 1.78668C40.7197 1.881 40.7661 2.02525 40.7777 2.19723H39.4075C39.4423 2.05299 39.5004 1.91984 39.6049 1.81442C39.7384 1.68127 39.9126 1.62024 40.1391 1.62024L40.1449 1.6147Z" fill="#13549C"/>
<path d="M42.7395 1.09873C42.5769 1.14867 42.4434 1.22079 42.3388 1.30401C42.2285 1.39278 42.1472 1.49819 42.0892 1.6147C42.0369 1.7312 42.0079 1.85326 42.0079 1.98641C42.0079 2.19723 42.066 2.37477 42.1879 2.51902C42.304 2.66326 42.5014 2.77422 42.7743 2.8408L43.0821 2.90737L43.3433 2.95731C43.564 3.00724 43.6395 3.05717 43.6685 3.07936C43.7091 3.1182 43.7324 3.17368 43.7324 3.2569C43.7324 3.36786 43.6917 3.43998 43.6046 3.48991C43.5001 3.54539 43.3549 3.57868 43.1633 3.57868C43.0066 3.57868 42.8382 3.54539 42.6698 3.48436C42.4956 3.42334 42.333 3.33457 42.1937 3.22916L42.0253 3.10155L42.0021 3.31238V3.91156L42.0601 3.93375L42.5188 4.10574C42.7046 4.15567 42.9079 4.18341 43.1285 4.18341C43.5233 4.18341 43.8427 4.09464 44.0749 3.91711C44.3188 3.73402 44.4349 3.49546 44.4349 3.20697C44.4349 2.97395 44.3652 2.78532 44.2259 2.64107C44.0923 2.50237 43.9007 2.40806 43.6569 2.35258L43.0879 2.23607C42.9427 2.20278 42.844 2.16395 42.7859 2.11401C42.7395 2.07518 42.7163 2.01415 42.7163 1.93093C42.7163 1.83662 42.7569 1.77004 42.844 1.72011C42.9485 1.65908 43.0821 1.63134 43.233 1.63134C43.384 1.63134 43.5466 1.65908 43.7091 1.72011C43.8775 1.78114 44.0169 1.85326 44.1272 1.93648L44.2956 2.06408L44.3188 1.85326V1.28182L44.2607 1.25408C44.1388 1.19305 43.982 1.13757 43.802 1.09319C43.622 1.0488 43.4362 1.02661 43.262 1.02661C43.0704 1.02661 42.8904 1.05435 42.7337 1.09873H42.7395Z" fill="#13549C"/>
<path d="M45.6756 0.299072H45.0891V1.10353H44.764V1.70271H45.0891V3.09525C45.0891 3.46142 45.1762 3.73882 45.3504 3.9108C45.5246 4.08279 45.7743 4.17156 46.0936 4.17156L46.3955 4.14937L46.7904 4.0717V3.98848V3.43368L46.622 3.47251L46.442 3.52245L46.2213 3.55019C46.0762 3.55019 46.0007 3.52799 45.9601 3.51135C45.9136 3.48916 45.8788 3.45587 45.8497 3.40594C45.8149 3.34491 45.7975 3.27833 45.7917 3.21176L45.7801 2.87333V1.69161H46.7846V1.09243H45.7801V0.299072H45.6756Z" fill="#13549C"/>
<path d="M50.0008 0.221463C49.7569 0.315779 49.5479 0.44893 49.3795 0.620917C49.2053 0.798452 49.0659 1.02037 48.973 1.27558C48.8801 1.53078 48.8337 1.81928 48.8337 2.14106C48.8337 2.47949 48.8801 2.77908 48.9789 3.03429C49.0776 3.29504 49.2111 3.51141 49.3853 3.67785C49.5595 3.84984 49.7743 3.98299 50.0124 4.06066C50.2504 4.13833 50.5117 4.18272 50.7962 4.18272L51.2201 4.14388L51.5685 4.06066L51.8762 3.94415L52.1897 3.80545V3.05093H52.0097L51.9807 3.07867C51.8065 3.23401 51.6149 3.35052 51.4117 3.42819C51.2143 3.50586 50.9936 3.5447 50.7672 3.5447C50.6046 3.5447 50.4478 3.51696 50.2969 3.46148C50.1517 3.406 50.0298 3.32278 49.9195 3.21182C49.815 3.10641 49.7279 2.96216 49.664 2.78463C49.5943 2.60709 49.5653 2.39072 49.5653 2.14106C49.5653 1.8914 49.5943 1.68613 49.6582 1.50859C49.7162 1.33106 49.8033 1.18126 49.9079 1.0703C50.0182 0.953796 50.1459 0.865028 50.2853 0.809548C50.4246 0.754069 50.5872 0.726329 50.7672 0.726329C50.9878 0.726329 51.1969 0.765164 51.3885 0.837288C51.5801 0.909412 51.7833 1.03147 51.9807 1.19236L52.0097 1.21455H52.1897V0.454478L52.1317 0.426738C51.8762 0.299135 51.6381 0.210367 51.4349 0.160435C51.2201 0.110504 51.0111 0.0827637 50.7962 0.0827637C50.5059 0.0827637 50.233 0.127147 49.995 0.215915L50.0008 0.221463Z" fill="#13549C"/>
<path d="M53.7401 1.20356C53.6298 1.24794 53.5079 1.32561 53.3801 1.41438V1.09814H52.6892V4.10515H53.3801V2.06904C53.4904 1.98582 53.6008 1.9137 53.7169 1.85822C53.8446 1.80274 53.9724 1.775 54.1059 1.775L54.3323 1.78609L54.5298 1.81938L54.6517 1.84157L54.6807 1.71952V1.14253L54.4194 1.10369H54.222C54.0536 1.09814 53.8911 1.13143 53.7285 1.19801L53.7401 1.20356Z" fill="#13549C"/>
<path d="M55.3126 1.4649C55.0455 1.7534 54.9004 2.14175 54.9004 2.62443C54.9004 3.1071 55.0455 3.50101 55.33 3.77286C55.6145 4.04471 56.0094 4.17786 56.5087 4.17786C56.7003 4.17786 56.8861 4.15567 57.0661 4.10574L57.6409 3.91156V3.83943L57.6351 3.09601L57.4319 3.25135C57.3622 3.31792 57.2287 3.3845 57.0487 3.45662C56.8687 3.52875 56.6829 3.56204 56.5029 3.56204C56.3693 3.56204 56.2474 3.54539 56.1371 3.50656C56.0326 3.47327 55.9397 3.41779 55.8584 3.35121C55.7771 3.27909 55.7132 3.18477 55.6668 3.07381C55.632 2.99059 55.6261 2.87963 55.6145 2.76868H57.6874V2.40806C57.6874 1.97532 57.5712 1.63134 57.3448 1.39278C57.1184 1.14867 56.7932 1.02661 56.381 1.02661C55.9339 1.02661 55.5739 1.17641 55.2952 1.4649H55.3126ZM56.3752 1.6147C56.6016 1.6147 56.7584 1.67018 56.8629 1.78668C56.95 1.881 56.9906 2.02525 57.008 2.19723H55.6378C55.6726 2.05299 55.7307 1.91984 55.8352 1.81442C55.9687 1.68127 56.1429 1.62024 56.3693 1.62024L56.3752 1.6147Z" fill="#13549C"/>
<path d="M60.8211 0H60.2405V1.17062C60.1301 1.12624 60.0024 1.07631 60.0024 1.07631C59.8805 1.04302 59.7353 1.02638 59.5727 1.02638C59.3927 1.02638 59.2186 1.06521 59.0502 1.13733C58.8818 1.20946 58.7308 1.32042 58.6089 1.45357C58.4812 1.59227 58.3825 1.76426 58.307 1.95843C58.2315 2.15261 58.1967 2.38008 58.1967 2.62974C58.1967 3.10687 58.307 3.48968 58.5218 3.76153C58.7424 4.04447 59.0444 4.18872 59.4218 4.18872C59.6134 4.18872 59.7876 4.14988 59.9501 4.08331C60.0489 4.03893 60.1418 3.9668 60.2405 3.90023V4.11105H60.9256V0H60.8211ZM59.0618 3.31769C58.9573 3.16235 58.905 2.92933 58.905 2.61864C58.905 2.30796 58.9747 2.06939 59.1082 1.9085C59.2418 1.74761 59.4218 1.67549 59.6598 1.67549L59.9734 1.70323C59.9734 1.70323 60.1476 1.75871 60.2405 1.792V3.25666C60.136 3.32878 60.0314 3.39536 59.9095 3.45084C59.7876 3.50077 59.654 3.52851 59.5379 3.52851C59.3173 3.52851 59.1605 3.46194 59.0618 3.31769Z" fill="#13549C"/>
<path d="M62.3249 0.144531H61.6804V0.838028H62.4294V0.144531H62.3249ZM62.2959 1.10433H61.7153V4.11133H62.4004V1.10433H62.2959Z" fill="#13549C"/>
<path d="M63.8209 0.299072H63.2403V1.10353H62.9151V1.70271H63.2403V3.09525C63.2403 3.46697 63.3273 3.73882 63.5015 3.9108C63.6757 4.08279 63.9254 4.17156 64.2505 4.17156L64.5525 4.14937L64.9473 4.0717V3.98848V3.43368L64.7789 3.47251L64.6047 3.52245L64.3783 3.55019C64.2331 3.55019 64.1518 3.52799 64.117 3.51135C64.0705 3.48916 64.0357 3.45587 64.0067 3.40594C63.9718 3.34491 63.9544 3.27833 63.9486 3.21176L63.937 2.87333V1.69161H64.9415V1.09243H63.937V0.299072H63.8325H63.8209Z" fill="#13549C"/>
<path d="M67.2329 0.160089H67.1284V4.11025H67.8425V2.71771H68.2432C68.5219 2.71771 68.7658 2.68442 68.9574 2.61229C69.1548 2.54572 69.3232 2.43476 69.4625 2.29606C69.5786 2.1851 69.6715 2.0464 69.7296 1.89106C69.7935 1.73571 69.8225 1.56927 69.8225 1.39174C69.8225 1.15872 69.7818 0.958997 69.6948 0.798106C69.6077 0.642763 69.4799 0.509611 69.3232 0.4042C69.1896 0.315432 69.0328 0.254405 68.8703 0.215569C68.7019 0.176733 68.4987 0.154541 68.2664 0.154541H67.2329V0.160089ZM68.2432 0.803654L68.6148 0.836942C68.7019 0.859134 68.789 0.892422 68.8586 0.936805C68.9399 0.986737 68.9922 1.04776 69.0328 1.12544C69.0735 1.20866 69.0909 1.30297 69.0909 1.41948C69.0909 1.51379 69.0793 1.60256 69.0503 1.68023C69.027 1.75236 68.9748 1.82448 68.9051 1.89661C68.8354 1.96318 68.7483 2.00756 68.638 2.04085C68.5161 2.07414 68.3593 2.09078 68.1677 2.09078H67.8425V0.798106C67.9761 0.798106 68.2432 0.798106 68.2432 0.798106V0.803654Z" fill="#13549C"/>
<path d="M70.8614 1.0696L70.3621 1.16946V1.25268L70.3679 1.86851L70.5363 1.82412L71.0008 1.68542L71.3956 1.64104L71.6801 1.66323L71.8891 1.72981C71.9414 1.76309 71.982 1.80193 72.0169 1.85741C72.0401 1.90734 72.0517 1.97392 72.0575 2.05159C71.9008 2.06269 71.3724 2.10707 71.3724 2.10707C71.1227 2.13481 70.9021 2.19029 70.7163 2.26796C70.5247 2.35118 70.3795 2.46769 70.275 2.61748C70.1705 2.76728 70.1182 2.96146 70.1182 3.19447C70.1182 3.48297 70.2169 3.72708 70.4201 3.91016C70.6176 4.09324 70.8614 4.19311 71.1459 4.19311L71.535 4.14872L71.8311 4.04331L72.0575 3.91016C72.0575 3.91016 72.0575 3.91016 72.0633 3.91016V4.11544H72.7485V2.10152C72.7485 1.90734 72.7194 1.7409 72.6556 1.6022C72.5917 1.4635 72.4988 1.347 72.3769 1.26378C72.2549 1.17501 72.1098 1.11398 71.953 1.08069C71.7962 1.04741 71.6162 1.03076 71.4072 1.03076L70.8614 1.07515V1.0696ZM70.9369 3.44413C70.8614 3.3831 70.8266 3.28879 70.8266 3.16118C70.8266 3.04468 70.8556 2.96146 70.9195 2.90043C70.9892 2.83385 71.0879 2.77837 71.2098 2.74509L71.6569 2.67851C71.6569 2.67851 71.9066 2.66187 72.0575 2.65077V3.2666C71.9937 3.30543 71.7324 3.46077 71.7324 3.46077C71.6046 3.51625 71.4653 3.54954 71.3143 3.54954C71.1401 3.54954 71.0066 3.51625 70.9311 3.44968L70.9369 3.44413Z" fill="#13549C"/>
<path d="M74.4251 1.20356C74.3147 1.24794 74.1928 1.32561 74.0593 1.41438V1.09814H73.3741V4.10515H74.0593V2.06904C74.1696 1.98582 74.2857 1.9137 74.4018 1.85822C74.5296 1.80274 74.6573 1.775 74.7909 1.775L75.0173 1.78609L75.3367 1.84157L75.3657 1.71952V1.14253L75.1044 1.10369H74.9128C74.7444 1.09814 74.5818 1.13143 74.4193 1.19801L74.4251 1.20356Z" fill="#13549C"/>
<path d="M76.5891 0.299072H76.0027V1.10353H75.6775V1.70271H76.0027V3.09525C76.0027 3.46697 76.0898 3.73882 76.264 3.9108C76.4382 4.08279 76.6878 4.17156 77.0072 4.17156L77.3091 4.14937L77.7039 4.0717V3.98848V3.43368L77.5355 3.47251L77.3614 3.52245L77.1349 3.55019C76.984 3.55019 76.9143 3.52799 76.8736 3.51135C76.8272 3.48916 76.7865 3.45587 76.7633 3.40594C76.7285 3.34491 76.7052 3.28388 76.7052 3.21176L76.6936 2.87333V1.69161H77.7039V1.09243H76.6936V0.299072H76.5891Z" fill="#13549C"/>
<path d="M79.3299 1.13617C79.2196 1.1861 79.1151 1.26378 79.0105 1.33035V1.10289H78.3254V4.10989H79.0105V1.97392C79.1209 1.89625 79.2428 1.81857 79.3647 1.76864C79.4983 1.71316 79.6202 1.67987 79.7363 1.67987C79.8525 1.67987 79.9396 1.69652 80.0092 1.72426C80.0673 1.752 80.1137 1.78529 80.1486 1.84077C80.1834 1.89625 80.2066 1.96837 80.2183 2.06823L80.2415 2.41776V4.11544H80.9266V2.19584C80.9266 1.82967 80.8395 1.54118 80.6595 1.34145C80.4795 1.13617 80.2124 1.03076 79.8699 1.03076C79.6899 1.03076 79.5041 1.0696 79.3299 1.14172V1.13617Z" fill="#13549C"/>
<path d="M81.8307 1.4649C81.5578 1.7534 81.4184 2.14175 81.4184 2.62443C81.4184 3.1071 81.5636 3.50101 81.8481 3.77286C82.1326 4.04471 82.5274 4.17786 83.0268 4.17786C83.2184 4.17786 83.4042 4.15567 83.5842 4.10574L84.1648 3.91156V3.83943L84.159 3.09601L83.9558 3.25135C83.8803 3.31792 83.7525 3.3845 83.5725 3.45662C83.3867 3.52875 83.2067 3.56204 83.0268 3.56204C82.8932 3.56204 82.7655 3.54539 82.661 3.50656C82.5564 3.47327 82.4635 3.41779 82.3823 3.35121C82.3068 3.27909 82.2371 3.19032 82.1965 3.07381C82.1616 2.99059 82.15 2.87963 82.1442 2.76868H84.217V2.40806C84.217 1.97532 84.1009 1.63134 83.8745 1.39278C83.648 1.14867 83.3229 1.02661 82.9106 1.02661C82.4693 1.02661 82.1035 1.17641 81.8307 1.4649ZM82.8874 1.6147C83.1138 1.6147 83.2706 1.67018 83.3751 1.78668C83.4622 1.881 83.5087 2.02525 83.5261 2.19723H82.1558C82.1906 2.05299 82.2487 1.91984 82.3532 1.81442C82.4868 1.68127 82.661 1.62024 82.8874 1.62024V1.6147Z" fill="#13549C"/>
<path d="M85.7412 1.20356C85.6309 1.24794 85.5089 1.32561 85.3812 1.41438V1.09814H84.696V4.10515H85.3812V2.06904C85.4915 1.98582 85.6076 1.9137 85.7238 1.85822C85.8457 1.80274 85.9792 1.775 86.1128 1.775L86.345 1.78609L86.5424 1.81938L86.6644 1.84157L86.6934 1.71952V1.14253L86.4321 1.10369H86.2347C86.0663 1.09814 85.9038 1.13143 85.7412 1.19801V1.20356Z" fill="#13549C"/>
<path d="M47.7458 7.15625H45.7136V18.5407H47.7458V7.15625Z" fill="#21366B"/>
<path d="M38.8949 13.687H41.0026V16.6995L40.9736 16.7162C40.4452 16.9936 39.3188 17.1656 38.6627 17.1711C38.6569 17.1711 38.6511 17.1711 38.6511 17.1711C36.166 17.1711 34.8712 15.2016 34.8654 12.7827C34.8654 9.87554 36.9092 8.51628 39.4233 8.51628C40.4336 8.51628 41.5658 8.68827 42.5935 9.01005V7.52874C41.531 7.17922 40.2072 6.98504 38.9937 6.97949C34.8015 6.97949 32.3977 9.47053 32.3919 12.8548C32.3919 16.289 34.8131 18.6968 38.3956 18.6968C39.9633 18.6968 41.7574 18.425 43.0232 18.1254V12.4165H38.8891V13.6814L38.8949 13.687Z" fill="#21366B"/>
<path d="M27.2606 11.7177C25.362 11.0575 24.0091 10.7025 24.0091 9.80923C24.0091 8.916 25.5536 8.49991 26.8484 8.49991C27.8877 8.49991 29.2173 8.74957 30.0941 8.97703V7.45134C28.9909 7.17394 27.7251 7.00195 26.5174 7.00195C23.7827 7.00195 21.5124 8.13929 21.5124 10.2087C21.5124 11.7899 22.9001 12.5111 25.2226 13.2823C27.1445 13.9203 28.747 14.3697 28.747 15.4737C28.747 16.4945 27.1619 17.1492 25.6116 17.1492C24.3343 17.1492 22.7433 16.7719 21.8201 16.4557V18.1534C23.022 18.4363 24.671 18.6749 26.0877 18.6749C29.2173 18.6749 31.1624 17.0882 31.1624 15.1408C31.1624 13.2323 29.6354 12.5444 27.249 11.7122L27.2606 11.7177Z" fill="#21366B"/>
<path d="M61.3801 18.5351V7.15625H59.5627V9.80263H57.1009V11.0565H59.5627V18.5351H61.3801Z" fill="#21366B"/>
<path d="M52.7041 12.4117C52.4893 12.7557 52.2222 13.1218 51.8215 13.4159C51.4035 13.7266 51.0377 13.9651 50.1551 14.0872V15.3799C50.4745 15.3577 52.1467 15.1968 53.2267 14.1593C53.5983 13.8042 53.8712 13.4325 54.086 13.0886L54.1266 13.022L54.1673 13.0886C54.3821 13.4381 54.6492 13.8042 55.0208 14.1593C56.1008 15.1968 57.773 15.3577 58.0923 15.3799V14.0816C57.204 13.9651 56.844 13.721 56.4201 13.4103C56.0253 13.1163 55.7582 12.7501 55.5434 12.4062C55.3285 12.0622 55.1718 11.696 55.0789 11.3188C54.986 10.9415 54.9395 10.5476 54.9395 10.1426V7.26318H53.3138V10.1426C53.3138 10.5476 53.2673 10.9415 53.1744 11.3188C53.0815 11.696 52.9247 12.0622 52.7041 12.4062V12.4117Z" fill="#21366B"/>
<path d="M98.708 12.5195H88.0303V13.7789H98.708V12.5195Z" fill="#21366B"/>
<path d="M93.332 10.3298L93.3669 10.3021L93.4017 10.3298C94.7778 11.5781 97.4661 11.6558 98.0351 11.6558H98.0932V10.5462C97.1061 10.4241 94.8649 10.2466 94.1914 8.6044L94.1565 8.52672H98.1164V7.26733H88.6057V8.52672H92.5656L92.5366 8.6044C91.863 10.2466 89.6218 10.4297 88.6347 10.5462V11.6558H88.6928C89.2676 11.6558 91.9559 11.5781 93.3262 10.3298H93.332Z" fill="#21366B"/>
<path d="M76.8644 7.34595V12.9716C76.8644 13.8759 77.3521 14.353 78.3218 14.353H80.441V17.127H76.0167V18.3864H86.6944V17.127H82.2062V14.353H85.7712V7.34595H84.0119V9.84808H78.6295V7.34595H76.8702H76.8644ZM78.6295 11.0853H84.0119V13.1103H79.2159C79.0069 13.1103 78.8559 13.077 78.7572 12.9716C78.6585 12.8606 78.6295 12.6997 78.6295 12.4667V11.0853Z" fill="#21366B"/>
<path d="M74.176 12.9321V11.6782H63.4983V12.9321H67.9285V13.5701H64.1602V14.8128H71.691V15.4453H64.1602V17.1596C64.1602 18.0639 64.6479 18.5411 65.6176 18.5411H73.5025V17.3039H66.2679C66.1634 17.3039 66.0879 17.2872 66.0414 17.2373C65.9892 17.1818 65.9776 17.1041 65.9776 16.9876V16.688H73.5083V13.5756H69.74V12.9376H74.1702L74.176 12.9321Z" fill="#21366B"/>
<path d="M68.8473 6.49072C66.1416 6.49072 64.5564 7.57258 64.5564 8.92628C64.5564 10.28 66.1416 11.3618 68.8473 11.3618C71.553 11.3618 73.1381 10.28 73.1381 8.92628C73.1381 7.57258 71.5472 6.49072 68.8473 6.49072ZM68.8473 10.2079C67.2854 10.2079 66.368 9.63643 66.368 8.93183C66.368 8.22724 67.2854 7.6558 68.8473 7.6558C70.4092 7.6558 71.3324 8.22724 71.3324 8.93183C71.3324 9.63643 70.415 10.2079 68.8473 10.2079Z" fill="#21366B"/>
<path d="M93.363 14.3984C90.6631 14.3984 89.0722 15.5136 89.0722 16.9061C89.0722 18.2987 90.6631 19.4138 93.363 19.4138C96.063 19.4138 97.6597 18.2987 97.6597 16.9061C97.6597 15.5136 96.0688 14.3984 93.363 14.3984ZM93.363 18.2598C91.8012 18.2598 90.8838 17.6551 90.8838 16.9117C90.8838 16.1682 91.8012 15.558 93.363 15.558C94.9249 15.558 95.8481 16.1627 95.8481 16.9117C95.8481 17.6606 94.9307 18.2598 93.363 18.2598Z" fill="#21366B"/>
</g>
<defs>
<clipPath id="clip0_4193_12895">
<rect width="98.708" height="19.4138" fill="white"/>
</clipPath>
</defs>
</svg>
