<svg width="168" height="24" viewBox="0 0 168 24" fill="none" xmlns="http://www.w3.org/2000/svg">
<g clip-path="url(#clip0_5165_113)">
<g clip-path="url(#clip1_5165_113)">
<path d="M7.99875 0.000701904H0V7.99945H7.99875V0.000701904Z" fill="#231815"/>
<path d="M23.9994 0.000762939H16.0007V7.99951H23.9994V0.000762939Z" fill="url(#paint0_linear_5165_113)"/>
<path d="M7.99894 7.99951V24L16.0007 16.0013V0.000762939L7.99894 7.99951Z" fill="#0046FF"/>
</g>
<g clip-path="url(#clip2_5165_113)">
<g clip-path="url(#clip3_5165_113)">
<path d="M35.9807 17.4824V7.15208H32.249V4.68442H42.5612V7.15208H38.7206V17.4824H35.9777H35.9807Z" fill="#0046FF"/>
<path d="M51.4311 12.4171C51.4553 11.7337 51.3585 11.0986 51.1377 10.5059C50.917 9.9162 50.6055 9.40211 50.1972 8.96966C49.789 8.53721 49.3051 8.19852 48.7426 7.95356C48.1832 7.70861 47.5723 7.58765 46.9131 7.58765C46.2054 7.58765 45.5522 7.71163 44.9474 7.96263C44.3426 8.21364 43.8224 8.56746 43.3839 9.02409C42.9454 9.48073 42.6037 10.019 42.3588 10.642C42.1138 11.265 41.9929 11.9514 41.9929 12.7074C41.9929 13.6691 42.2076 14.5249 42.643 15.2658C43.0755 16.0098 43.6863 16.5934 44.4726 17.0228C45.2589 17.4492 46.1752 17.664 47.2245 17.664C47.663 17.664 48.1076 17.6095 48.5582 17.5007C49.0088 17.3918 49.4473 17.2285 49.8737 17.0168C50.3001 16.8051 50.6902 16.539 51.044 16.2215L49.8011 14.4856C49.3989 14.8152 49.0209 15.0481 48.667 15.1812C48.3132 15.3142 47.9231 15.3808 47.4967 15.3808C46.8737 15.3808 46.3355 15.2628 45.8788 15.0239C45.4222 14.785 45.0684 14.4554 44.8174 14.026C44.6752 13.784 44.5785 13.5149 44.518 13.2215H51.4099L51.428 12.4171H51.4311ZM45.5885 10.1339C45.9605 9.9283 46.4141 9.82246 46.9494 9.82246C47.3153 9.82246 47.6449 9.89806 47.9382 10.0523C48.2316 10.2035 48.4705 10.4122 48.661 10.6753C48.8485 10.9384 48.9574 11.2317 48.9815 11.5613V11.6339H44.5422C44.5906 11.4222 44.6541 11.2256 44.7387 11.0472C44.9323 10.645 45.2165 10.3396 45.5885 10.1339Z" fill="#0046FF"/>
<path d="M57.558 17.6665C56.6326 17.6665 55.804 17.4457 55.0721 17.0072C54.3403 16.5688 53.7657 15.97 53.3454 15.214C52.925 14.4579 52.7133 13.5991 52.7133 12.6344C52.7133 11.6697 52.922 10.8109 53.3454 10.0548C53.7657 9.29882 54.3403 8.70307 55.0721 8.26155C55.804 7.82305 56.6326 7.60229 57.558 7.60229C58.4228 7.60229 59.2152 7.75955 59.9349 8.07708C60.6546 8.39461 61.2141 8.8331 61.6163 9.39256L60.1889 11.1103C60.0165 10.8774 59.8049 10.6687 59.5478 10.4782C59.2908 10.2907 59.0156 10.1395 58.7162 10.0306C58.4168 9.92178 58.1083 9.86735 57.7938 9.86735C57.2949 9.86735 56.8533 9.98529 56.4693 10.2242C56.0852 10.4631 55.7828 10.7897 55.5651 11.201C55.3443 11.6153 55.2354 12.0901 55.2354 12.6284C55.2354 13.1666 55.3473 13.6051 55.5741 14.0194C55.801 14.4337 56.1064 14.7634 56.4965 15.0083C56.8866 15.2533 57.3251 15.3742 57.812 15.3742C58.1295 15.3742 58.4259 15.3319 58.7071 15.2472C58.9884 15.1625 59.2515 15.0265 59.5025 14.845C59.7535 14.6636 59.9803 14.4428 60.1889 14.1858L61.5982 15.9035C61.1959 16.4266 60.6244 16.85 59.8895 17.1736C59.1517 17.4972 58.3745 17.6574 57.558 17.6574V17.6665Z" fill="#0046FF"/>
<path d="M77.6349 7.3153C77.6349 7.08244 77.6712 6.89193 77.7438 6.74072C77.8164 6.58951 77.9283 6.47157 78.0825 6.39295C78.2337 6.31432 78.4272 6.27501 78.6571 6.27501C78.7901 6.27501 78.9413 6.30827 79.1046 6.3748C79.2679 6.44133 79.4312 6.52298 79.5885 6.62278L80.3566 4.70248C80.0875 4.46962 79.7639 4.28515 79.3889 4.14604C79.0109 4.00693 78.6087 3.93738 78.1823 3.93738C77.5472 3.93738 76.9968 4.07649 76.5281 4.35773C76.0594 4.63897 75.6904 5.02303 75.4213 5.50991C75.1521 5.99679 75.0191 6.54113 75.0191 7.13688V8.05016H73.5735V10.2457H75.0191V17.4854H77.6349V10.2457H79.7185V8.05016H77.6349V7.31832V7.3153Z" fill="#0046FF"/>
<path d="M83.1357 5.83652C83.6225 5.83652 84.0096 5.70345 84.2969 5.43431C84.5842 5.16516 84.7263 4.82647 84.7263 4.40914C84.7263 3.97064 84.5872 3.6259 84.306 3.3749C84.0247 3.1239 83.6346 2.99991 83.1357 2.99991C82.6367 2.99991 82.2617 3.12994 81.9744 3.39304C81.6871 3.65614 81.545 3.99484 81.545 4.40914C81.545 4.85973 81.6841 5.21053 81.9653 5.46153C82.2466 5.71253 82.6367 5.83652 83.1357 5.83652ZM81.8565 17.4823H84.4542V7.80823H81.8565V17.4823Z" fill="#0046FF"/>
<path d="M71.7742 9.37497C71.5232 8.78527 71.1512 8.34073 70.6583 8.05042C70.1654 7.75708 69.5515 7.61192 68.8197 7.61192C68.2844 7.61192 67.7703 7.72079 67.2834 7.94155C66.7965 8.16231 66.3792 8.4496 66.0314 8.80947C65.9558 8.88809 65.8863 8.96974 65.8228 9.05139V3.95276H63.2614V17.4826H65.8591V11.6672C65.8591 11.4102 65.9105 11.1743 66.0133 10.9536C66.1161 10.7328 66.2583 10.5393 66.4337 10.3699C66.609 10.2006 66.8238 10.0675 67.0748 9.97677C67.3258 9.88605 67.5949 9.84068 67.8882 9.84068C68.2542 9.82859 68.5626 9.88907 68.8106 10.0221C69.0616 10.1552 69.2461 10.3699 69.367 10.6632C69.488 10.9566 69.5485 11.3225 69.5485 11.761V17.4856H72.1462V11.5614C72.1462 10.6965 72.0222 9.9677 71.7712 9.37497H71.7742Z" fill="#0046FF"/>
<path d="M95.3047 9.37487C95.0537 8.78517 94.6818 8.34062 94.1888 8.05031C93.6959 7.75697 93.082 7.61182 92.3502 7.61182C91.8149 7.61182 91.3008 7.72068 90.814 7.94144C90.3271 8.1622 89.9097 8.44949 89.562 8.80936C89.4773 8.89706 89.3987 8.98778 89.3261 9.08153L89.2777 7.81141H86.7919V17.4855H89.3896V11.6702C89.3896 11.4131 89.441 11.1772 89.5438 10.9565C89.6466 10.7357 89.7888 10.5422 89.9642 10.3728C90.1396 10.2035 90.3543 10.0704 90.6053 9.97969C90.8563 9.88896 91.1254 9.8436 91.4188 9.8436C91.7847 9.83151 92.0931 9.89199 92.3411 10.025C92.5921 10.1581 92.7766 10.3728 92.8976 10.6662C93.0185 10.9595 93.079 11.3254 93.079 11.7639V17.4885H95.6767V11.5643C95.6767 10.6994 95.5527 9.97062 95.3017 9.37789L95.3047 9.37487Z" fill="#0046FF"/>
</g>
<g clip-path="url(#clip4_5165_113)">
<path d="M126.311 7.81137H124.318V5.35883H121.724V7.81137H119.912V10.1339H121.724V17.4824H124.318V10.1339H126.311V7.81137Z" fill="#231815"/>
<path d="M129.492 5.83661C129.979 5.83661 130.366 5.70355 130.654 5.4344C130.941 5.16526 131.083 4.82656 131.083 4.40923C131.083 3.97074 130.944 3.62599 130.663 3.37499C130.382 3.12399 129.991 3 129.492 3C128.994 3 128.619 3.13004 128.331 3.39313C128.044 3.65623 127.902 3.99493 127.902 4.40923C127.902 4.85982 128.041 5.21062 128.322 5.46162C128.603 5.71262 128.994 5.83661 129.492 5.83661ZM128.213 17.4824H130.811V7.80832H128.213V17.4824Z" fill="#231815"/>
<path d="M159.606 17.6671C158.705 17.6671 157.904 17.519 157.202 17.2196C156.501 16.9202 155.938 16.5089 155.512 15.9857L157.139 14.5947C157.505 14.9969 157.919 15.2872 158.382 15.4626C158.844 15.638 159.307 15.7287 159.773 15.7287C159.954 15.7287 160.124 15.7075 160.275 15.6652C160.426 15.6228 160.559 15.5624 160.668 15.4837C160.777 15.4051 160.858 15.3083 160.916 15.1904C160.97 15.0755 160.998 14.9485 160.998 14.8154C160.998 14.5463 160.889 14.3406 160.668 14.1924C160.547 14.1199 160.356 14.0382 160.102 13.9445C159.845 13.8537 159.516 13.754 159.114 13.6421C158.491 13.4848 157.964 13.2973 157.532 13.0856C157.099 12.8709 156.755 12.632 156.498 12.3629C156.277 12.1058 156.111 11.8306 155.996 11.5312C155.881 11.2319 155.823 10.8992 155.823 10.5333C155.823 10.0948 155.92 9.69561 156.117 9.33574C156.31 8.97588 156.582 8.66742 156.93 8.41339C157.278 8.15634 157.677 7.95978 158.128 7.81764C158.578 7.67854 159.053 7.60596 159.555 7.60596C160.057 7.60596 160.544 7.66644 161.019 7.7874C161.494 7.90837 161.935 8.08376 162.343 8.30755C162.752 8.53436 163.108 8.79745 163.414 9.10289L162.023 10.6391C161.802 10.4335 161.557 10.243 161.282 10.0736C161.007 9.90427 160.725 9.76819 160.432 9.67142C160.139 9.57465 159.876 9.52626 159.646 9.52626C159.437 9.52626 159.253 9.54441 159.089 9.5807C158.926 9.61698 158.787 9.67444 158.678 9.75307C158.569 9.8317 158.488 9.92544 158.43 10.0373C158.376 10.1462 158.348 10.2702 158.348 10.4033C158.348 10.5363 158.382 10.6663 158.448 10.7873C158.515 10.9083 158.609 11.0141 158.733 11.0988C158.866 11.1714 159.065 11.256 159.328 11.3558C159.591 11.4526 159.948 11.5645 160.399 11.6855C160.982 11.8427 161.481 12.0211 161.89 12.2147C162.298 12.4113 162.625 12.635 162.866 12.8921C163.072 13.1128 163.226 13.3608 163.323 13.6421C163.42 13.9233 163.468 14.2348 163.468 14.5735C163.468 15.1723 163.302 15.7015 162.966 16.1642C162.631 16.6269 162.171 16.9928 161.584 17.2619C160.998 17.5311 160.341 17.6641 159.609 17.6641L159.606 17.6671Z" fill="#231815"/>
<path d="M107.314 7.66317C107.117 7.62688 106.918 7.60873 106.709 7.60873C106.222 7.60873 105.756 7.72365 105.309 7.95651C104.864 8.18936 104.477 8.50689 104.147 8.91515C104.027 9.06333 103.924 9.22058 103.827 9.38388L103.782 7.81135H101.278V17.4855H103.893V12.4745C103.893 12.1691 103.945 11.8909 104.048 11.6338C104.151 11.3768 104.296 11.156 104.477 10.9655C104.659 10.778 104.876 10.6298 105.127 10.527C105.378 10.4242 105.647 10.3728 105.941 10.3728C106.162 10.3728 106.376 10.4 106.591 10.4544C106.803 10.5088 106.978 10.5724 107.111 10.6449L107.807 7.7932C107.674 7.74482 107.507 7.70248 107.314 7.66619V7.66317Z" fill="#231815"/>
<path d="M115.615 7.81135V9.09659C115.428 8.83954 115.216 8.60366 114.965 8.39802C114.665 8.15307 114.318 7.96255 113.922 7.82344C113.525 7.68433 113.09 7.61176 112.615 7.61176C111.774 7.61176 111.024 7.82647 110.365 8.25287C109.706 8.67926 109.186 9.27199 108.802 10.025C108.418 10.781 108.227 11.6459 108.227 12.6227C108.227 13.5995 108.415 14.4644 108.793 15.2204C109.171 15.9764 109.682 16.5722 110.329 17.0137C110.976 17.4522 111.702 17.6729 112.506 17.6729C112.957 17.6729 113.383 17.6034 113.785 17.4613C114.188 17.3221 114.551 17.1316 114.874 16.8957C115.149 16.6931 115.379 16.4603 115.579 16.2123V17.4915H118.195V7.81739H115.615V7.81135ZM115.352 14.0924C115.149 14.5128 114.868 14.8394 114.502 15.0692C114.136 15.302 113.71 15.417 113.223 15.417C112.736 15.417 112.331 15.302 111.971 15.0692C111.611 14.8363 111.327 14.5128 111.121 14.0924C110.913 13.6721 110.81 13.1822 110.81 12.6197C110.81 12.0572 110.913 11.5884 111.121 11.1741C111.327 10.7598 111.611 10.4332 111.971 10.1974C112.331 9.95846 112.748 9.84052 113.223 9.84052C113.698 9.84052 114.136 9.95846 114.502 10.1974C114.868 10.4363 115.152 10.7629 115.352 11.1741C115.552 11.5884 115.654 12.0693 115.654 12.6197C115.654 13.1701 115.555 13.6721 115.352 14.0924Z" fill="#231815"/>
<path d="M141.692 9.37481C141.441 8.78511 141.069 8.34056 140.576 8.05025C140.083 7.75691 139.469 7.61176 138.737 7.61176C138.202 7.61176 137.688 7.72062 137.201 7.94138C136.714 8.16214 136.297 8.44943 135.949 8.8093C135.864 8.897 135.786 8.98772 135.713 9.08147L135.665 7.81135H133.179V17.4854H135.777V11.6701C135.777 11.4131 135.828 11.1772 135.931 10.9564C136.034 10.7357 136.176 10.5421 136.351 10.3728C136.527 10.2034 136.741 10.0703 136.992 9.97963C137.243 9.8889 137.512 9.84354 137.806 9.84354C138.172 9.83145 138.48 9.89193 138.728 10.025C138.979 10.158 139.164 10.3728 139.285 10.6661C139.406 10.9594 139.466 11.3254 139.466 11.7638V17.4885H142.064V11.5643C142.064 10.6994 141.94 9.97055 141.689 9.37783L141.692 9.37481Z" fill="#231815"/>
<path d="M151.544 7.81135L151.508 8.93934C151.408 8.82442 151.296 8.71253 151.169 8.60668C150.942 8.41919 150.688 8.24682 150.401 8.09561C150.114 7.94441 149.802 7.82344 149.47 7.73877C149.134 7.65409 148.783 7.61176 148.417 7.61176C147.54 7.61176 146.757 7.82949 146.068 8.26194C145.378 8.69438 144.837 9.28711 144.441 10.0371C144.044 10.7871 143.845 11.6429 143.845 12.6076C143.845 13.5723 144.044 14.419 144.45 15.1478C144.852 15.8796 145.399 16.4512 146.095 16.8655C146.79 17.2798 147.583 17.4885 148.472 17.4885C149.007 17.4885 149.524 17.3887 150.017 17.1861C150.51 16.9834 150.924 16.7173 151.26 16.3816C151.323 16.3181 151.378 16.2516 151.432 16.1851V16.8685C151.432 17.4552 151.329 17.9421 151.121 18.3322C150.912 18.7223 150.607 19.0156 150.198 19.2092C149.79 19.4027 149.27 19.5025 148.635 19.5025C148.269 19.5025 147.912 19.4662 147.564 19.3937C147.217 19.3211 146.884 19.2183 146.566 19.0822C146.249 18.9491 145.968 18.7949 145.726 18.6255L144.794 20.4733C145.269 20.8392 145.88 21.1355 146.624 21.3593C147.368 21.5861 148.124 21.698 148.892 21.698C149.66 21.698 150.401 21.5892 151.039 21.3684C151.68 21.1476 152.222 20.8301 152.666 20.4098C153.111 19.9894 153.449 19.4753 153.682 18.8644C153.915 18.2536 154.03 17.555 154.03 16.7627V7.82042H151.544V7.81135ZM151.196 14.0833C150.988 14.4976 150.694 14.8212 150.31 15.051C149.926 15.2839 149.479 15.3988 148.968 15.3988C148.457 15.3988 148.03 15.2839 147.652 15.051C147.274 14.8182 146.978 14.4946 146.766 14.0712C146.551 13.6509 146.446 13.167 146.446 12.6166C146.446 12.0663 146.551 11.6005 146.766 11.1802C146.981 10.7598 147.274 10.4302 147.652 10.1913C148.03 9.95241 148.469 9.83447 148.968 9.83447C149.467 9.83447 149.926 9.94939 150.31 10.1822C150.694 10.4151 150.991 10.7387 151.196 11.159C151.405 11.5794 151.508 12.0632 151.508 12.6136C151.508 13.164 151.405 13.663 151.196 14.0773V14.0833Z" fill="#231815"/>
</g>
</g>
</g>
<defs>
<linearGradient id="paint0_linear_5165_113" x1="16.0007" y1="4.00165" x2="23.9995" y2="4.00165" gradientUnits="userSpaceOnUse">
<stop stop-color="#004098" stop-opacity="0"/>
<stop offset="1" stop-color="#004098"/>
</linearGradient>
<clipPath id="clip0_5165_113">
<rect width="168" height="24" fill="white"/>
</clipPath>
<clipPath id="clip1_5165_113">
<rect width="23.9995" height="23.9993" fill="white" transform="translate(0 0.000701904)"/>
</clipPath>
<clipPath id="clip2_5165_113">
<rect width="131.996" height="19.4994" fill="white" transform="translate(32.249 2.99991)"/>
</clipPath>
<clipPath id="clip3_5165_113">
<rect width="63.4277" height="14.6666" fill="white" transform="translate(32.249 2.99991)"/>
</clipPath>
<clipPath id="clip4_5165_113">
<rect width="62.1906" height="18.6982" fill="white" transform="translate(101.278 2.99991)"/>
</clipPath>
</defs>
</svg>
