<svg width="139" height="37" viewBox="0 0 139 37" fill="none" xmlns="http://www.w3.org/2000/svg">
<g clip-path="url(#clip0_5316_29757)">
<path d="M36.3882 17.4344C36.4016 17.702 36.4089 17.9672 36.4101 18.2312V18.2458C36.4101 26.6882 30.6917 33.7913 22.9249 35.8751C21.6506 36.2145 20.3436 36.4152 19.0257 36.4748C18.6288 36.4931 18.2344 36.498 17.8412 36.4907C8.63021 36.3106 1.09514 29.2696 0.110938 20.253C0.0684627 19.8625 0.0405505 19.4708 0.0247741 19.0779C0.0114248 18.8139 0.00414339 18.5487 0.00292982 18.2835V18.2446C0.00171625 8.17088 8.15085 -0.000244141 18.2053 -0.000244141C26.7804 -0.000244141 33.9684 5.94107 35.9004 13.9382C36.1746 15.0854 36.3385 16.2556 36.3882 17.4344ZM27.8143 9.08933C26.7488 8.79373 25.9612 8.5407 25.7294 8.05045C25.6202 7.8181 25.687 7.58454 25.8387 7.47506C26.0025 7.35462 26.2246 7.39477 26.4818 7.52128C26.8629 7.70619 27.3301 7.98111 27.6881 8.02491C28.7318 8.15142 28.5413 6.55053 26.6651 5.62235C25.562 5.0725 24.4819 4.84745 23.0195 4.90219C22.4783 4.92409 21.9674 4.90462 21.5147 4.83285C20.8315 4.72702 19.9929 4.43628 19.4286 4.31828C18.9965 4.22704 18.7502 4.23921 18.6482 4.38275C18.5524 4.519 18.5839 4.72093 18.8461 5.05425C19.374 5.72088 20.2053 6.46294 19.7805 8.19886C18.7271 12.5028 20.1701 14.4723 21.6397 14.7959C22.4625 14.9795 23.221 14.7861 23.6846 14.3032C24.1251 13.8421 24.3144 13.0612 23.8909 12.4006C23.2416 11.3885 23.0135 10.5078 23.5923 10.1416C24.1214 9.80706 24.8751 10.1148 25.4467 11.3982C26.3617 13.4541 27.5534 13.9991 28.7439 12.5368C29.7197 11.3386 29.6808 9.60512 27.8143 9.08811V9.08933ZM24.5001 20.3224C19.5633 17.3566 17.1143 16.1839 15.1167 14.7545C11.8061 12.3884 11.2819 10.6245 11.1811 9.39832C11.0003 7.20256 12.6581 5.22577 14.3461 4.29395C14.476 4.21488 14.6993 4.0324 14.6022 3.78181C14.5039 3.52878 14.2017 3.57744 14.0889 3.60298C10.3146 4.40586 6.64723 7.7366 7.2164 12.1841C7.44334 13.9455 8.56104 16.9198 14.3498 20.3369C16.3243 21.5011 18.0281 22.3843 20.704 23.9195C24.3278 25.996 25.9952 28.6711 23.7513 31.5894C23.5814 31.7938 23.4346 32.0055 23.4965 32.1892C23.5656 32.402 23.846 32.4385 24.1069 32.3218C25.8289 31.5262 27.2512 30.3328 27.9296 29.227C29.1226 27.2782 29.7172 23.4572 24.5013 20.3224H24.5001ZM18.7247 32.1624C18.2866 32.0359 17.6228 31.8303 17.0694 31.587C16.3716 31.2817 15.7405 30.9459 15.4614 30.6698C15.2794 30.4861 15.2515 30.2793 15.3971 30.0664C16.232 28.8645 16.4662 28.3889 16.6992 27.8232C17.1944 26.625 16.7053 26.5094 15.9359 26.7308C15.0998 26.9704 14.4384 27.215 13.9262 27.4084C13.2078 27.6772 12.7636 27.8414 12.5015 27.7137C12.2284 27.5811 12.1787 27.1067 12.0804 26.3208C12.0112 25.7613 11.8935 25.1226 11.7442 24.501C11.4348 23.2529 10.902 23.4925 10.4615 24.0022C9.91295 24.6689 9.61077 25.4948 9.38384 25.9279C9.26248 26.1603 9.12292 26.2369 8.95181 26.2004C8.57196 26.1189 8.07075 25.5301 7.52343 24.8294C6.72369 23.8051 6.3669 23.0169 5.95064 22.9694C5.06595 22.866 5.45915 24.9632 6.28923 26.6919C7.09868 28.384 8.35473 30.0494 10.4578 31.3814C12.8583 32.9045 16.4043 33.4567 18.5839 33.1502C19.272 33.0529 19.4079 32.3619 18.7223 32.1636L18.7247 32.1624Z" fill="#0046FF"/>
<path d="M43.0943 19.7638C43.3516 19.7382 43.6598 19.6567 44.0263 19.5156C44.3904 19.3733 44.7751 19.1908 45.1816 18.9682C45.5833 18.7456 45.9765 18.5083 46.3612 18.2577C47.7022 17.3612 48.8284 16.2664 49.7374 14.9708C50.1197 15.5036 50.5869 16.0048 51.1439 16.478C51.6937 16.9488 52.2786 17.377 52.8914 17.7614C53.9703 18.4244 54.8089 18.8222 55.4133 18.9548C56.0188 19.0874 56.4023 19.0047 56.5674 18.7042L57.6377 16.6897C56.9096 16.4403 56.1827 16.135 55.4606 15.7664C54.7421 15.4027 54.0977 14.9708 53.5237 14.4733C52.9546 13.9745 52.4873 13.3979 52.1233 12.7422C51.7568 12.0853 51.5747 11.353 51.5747 10.5391V7.22788H47.2787C47.0966 7.22788 46.9717 7.30451 46.9061 7.45171C46.8394 7.60134 46.8818 7.76799 47.0287 7.94803C47.2629 8.21566 47.4061 8.47599 47.4644 8.73388C47.5238 8.99056 47.5505 9.32874 47.5505 9.74235V10.7861C47.5505 11.5829 47.3903 12.314 47.0675 12.9794C46.7435 13.6424 46.3018 14.2482 45.7387 14.7956C45.1744 15.3443 44.5263 15.8382 43.7885 16.2749C43.053 16.7165 42.2691 17.0936 41.4414 17.4099L42.5834 19.5752C42.6671 19.7248 42.8346 19.7869 43.0931 19.7625M49.8381 26.7354C49.5881 26.5444 49.4643 26.1588 49.4643 25.5773V21.0459H45.2435C45.0591 21.0459 44.9365 21.1201 44.8722 21.2698C44.8042 21.4194 44.8455 21.5836 44.9972 21.7649C45.229 22.052 45.3734 22.3111 45.4304 22.5507C45.4875 22.794 45.519 23.1273 45.519 23.5604V25.9508C45.519 26.7123 45.6173 27.3449 45.8163 27.8412C46.0154 28.34 46.32 28.7378 46.7362 29.037C47.1513 29.3363 47.6634 29.5431 48.2762 29.6599C48.8879 29.7754 49.6075 29.835 50.434 29.835H63.8476V27.0213H51.0565C50.491 27.0213 50.0869 26.924 49.8393 26.7342M63.4738 22.3172V6.82644H59.2275C59.0455 6.82644 58.9168 6.90064 58.8416 7.03932C58.7676 7.18165 58.804 7.34466 58.9532 7.52713C59.185 7.79232 59.3452 8.05509 59.4387 8.3215C59.5285 8.58791 59.5758 8.93704 59.5758 9.36767V22.3172H63.4738ZM70.106 27.8424C70.3038 28.3436 70.6108 28.7402 71.0234 29.0394C71.4397 29.3375 71.953 29.5431 72.5647 29.6623C73.1775 29.7791 73.8984 29.8387 74.726 29.8387H87.943V27.0225H75.3971C74.8171 27.0225 74.3984 26.9191 74.1435 26.7245C73.8862 26.525 73.7588 26.1248 73.7588 25.5275V22.041H69.5368C69.3523 22.041 69.2286 22.1189 69.1618 22.2685C69.0963 22.4157 69.1375 22.5811 69.2856 22.7648C69.4676 22.9814 69.6011 23.1882 69.6836 23.3889C69.7674 23.5872 69.8086 23.811 69.8086 24.0604V25.9289C69.8086 26.7074 69.9057 27.3461 70.106 27.8449M71.9203 12.6181C72.3814 12.0452 73.0537 11.7568 73.9324 11.7568C74.811 11.7568 75.4578 12.0452 75.9311 12.6181C76.4044 13.1923 76.641 13.9003 76.641 14.747C76.641 15.5426 76.4032 16.2274 75.9311 16.7992C75.4578 17.3746 74.794 17.6592 73.9324 17.6592C73.0707 17.6592 72.3814 17.3746 71.9203 16.7992C71.4542 16.2286 71.2249 15.5426 71.2249 14.747C71.2249 13.9003 71.4542 13.1911 71.9203 12.6181ZM67.8087 13.1023C67.6024 13.6339 67.4968 14.2239 67.4968 14.8698C67.4968 15.6508 67.6412 16.3783 67.9337 17.0486C68.2225 17.7213 68.64 18.3088 69.1824 18.8052C69.7298 19.3015 70.4021 19.692 71.197 19.9754C71.9918 20.2576 72.9008 20.4 73.9311 20.4C74.9615 20.4 75.8741 20.2589 76.6738 19.9754C77.4784 19.6932 78.1507 19.3015 78.6968 18.8052C79.2429 18.3076 79.658 17.7213 79.9395 17.0473C80.2211 16.3771 80.3606 15.6496 80.3606 14.8686C80.3606 14.2385 80.249 13.6533 80.0269 13.1132C79.8073 12.5804 79.499 12.0877 79.1167 11.6571H81.7283V8.91879H76.0901V6.13061H71.8426C71.6581 6.13061 71.5307 6.20116 71.4555 6.34227C71.3826 6.4846 71.4275 6.6464 71.5926 6.82765C71.8256 7.10988 71.9712 7.37994 72.0295 7.63783C72.0877 7.89451 72.1156 8.23756 72.1156 8.67063V8.92001H66.0818V11.6583H68.6873C68.3087 12.0914 68.0125 12.5707 67.8062 13.1023M87.6421 6.82887H83.3946C83.2125 6.82887 83.0839 6.89942 83.0087 7.04054C82.9334 7.18165 82.9783 7.34223 83.1482 7.52713C83.3788 7.80814 83.5341 8.0782 83.6191 8.33488C83.698 8.59155 83.7441 8.93704 83.7441 9.36767V22.6626H87.6409V15.3954H90.4697V12.5816H87.6409V6.83009L87.6421 6.82887ZM107.041 13.5767C106.245 14.0098 104.904 14.2251 103.018 14.2251C101.132 14.2251 99.7887 14.0086 98.9926 13.5767C98.1977 13.1449 97.7997 12.539 97.7997 11.7593C97.7997 10.9795 98.1977 10.3859 98.9926 9.92969C99.7887 9.47229 101.127 9.24359 103.018 9.24359C104.909 9.24359 106.244 9.47229 107.041 9.92969C107.835 10.3859 108.232 10.9953 108.232 11.7593C108.232 12.5232 107.835 13.1461 107.041 13.5767ZM109.909 8.01129C109.154 7.55511 108.206 7.20355 107.066 6.95295C105.925 6.70479 104.574 6.58071 103.018 6.58071C101.462 6.58071 100.112 6.70479 98.9659 6.95295C97.8264 7.20355 96.8822 7.55511 96.1346 8.01129C95.3907 8.46869 94.8337 9.01611 94.4708 9.65355C94.1068 10.2946 93.9284 10.9953 93.9284 11.7581C93.9284 12.5208 94.108 13.1935 94.4708 13.8261C94.8349 14.4562 95.3919 14.9988 96.1346 15.455C96.8822 15.9111 97.8264 16.27 98.9659 16.5267C100.112 16.7846 101.457 16.9111 103.018 16.9111C104.579 16.9111 105.925 16.7846 107.066 16.5267C108.206 16.27 109.154 15.9124 109.909 15.455C110.661 14.9976 111.224 14.455 111.586 13.8261C111.949 13.1935 112.132 12.505 112.132 11.7581C112.132 11.0111 111.949 10.2946 111.586 9.65355C111.225 9.01611 110.661 8.46869 109.909 8.01129ZM112.456 27.0225H99.2426C98.83 27.0225 98.5351 26.9629 98.3603 26.8486C98.1856 26.733 98.0982 26.4483 98.0982 26.0031V22.3159H93.8762C93.6941 22.3159 93.5704 22.3901 93.5036 22.541C93.4369 22.6882 93.4769 22.8561 93.6262 23.0373C93.8106 23.2538 93.9417 23.4631 94.0255 23.6602C94.1092 23.8597 94.148 24.0847 94.148 24.3304V26.6722C94.148 27.3035 94.2318 27.823 94.4077 28.2281C94.5837 28.6331 94.847 28.9592 95.2038 29.2C95.5582 29.4409 96.0169 29.6063 96.5703 29.7C97.1249 29.7924 97.773 29.8362 98.5181 29.8362H112.454V27.0237L112.456 27.0225ZM114.841 18.1081H91.1687V20.8209H114.841V18.1081ZM120.552 13.241C120.637 12.9162 120.77 12.6254 120.963 12.3687C121.154 12.1133 121.399 11.904 121.683 11.7593C121.974 11.6097 122.314 11.5367 122.714 11.5367C123.115 11.5367 123.455 11.6097 123.745 11.7593C124.032 11.9089 124.274 12.1121 124.465 12.3687C124.658 12.6291 124.797 12.9259 124.873 13.241C124.957 13.5706 124.998 13.91 124.998 14.2494C124.998 14.5803 124.956 14.9051 124.873 15.219C124.796 15.5255 124.657 15.8138 124.465 16.0644C124.274 16.315 124.032 16.5145 123.745 16.6629C123.455 16.8113 123.111 16.888 122.714 16.888C122.317 16.888 121.974 16.8113 121.683 16.6629C121.394 16.5145 121.154 16.315 120.963 16.0644C120.77 15.8163 120.638 15.5328 120.552 15.219C120.468 14.9027 120.427 14.5767 120.427 14.2494C120.427 13.8979 120.468 13.5645 120.552 13.241ZM117.162 12.7313C117.006 13.1972 116.926 13.6923 116.926 14.2251C116.926 15.0207 117.054 15.7506 117.311 16.4136C117.568 17.079 117.941 17.6434 118.43 18.1081C118.917 18.5728 119.52 18.9329 120.242 19.1908C120.963 19.4475 121.788 19.5776 122.714 19.5776C123.64 19.5776 124.465 19.4487 125.184 19.1908C125.905 18.9341 126.512 18.5728 126.999 18.1081C127.486 17.6422 127.861 17.079 128.118 16.4136C128.371 15.7506 128.503 15.0207 128.503 14.2251C128.503 13.6923 128.42 13.1972 128.255 12.7313C128.087 12.2653 127.866 11.842 127.584 11.4612H129.249V8.72172H124.828V6.05762H120.729C120.548 6.05762 120.413 6.13304 120.333 6.28145C120.247 6.43351 120.287 6.60625 120.457 6.80576C120.689 7.07217 120.828 7.33249 120.882 7.58917C120.932 7.84585 120.952 8.19863 120.952 8.64873V8.72172H115.862V11.4612H117.824C117.542 11.842 117.322 12.2653 117.166 12.7313M129.916 6.97971C129.752 6.97971 129.637 7.04054 129.57 7.16583C129.503 7.29113 129.542 7.46144 129.694 7.67676C129.84 7.89208 129.961 8.10131 130.054 8.31055C130.144 8.51735 130.187 8.84702 130.187 9.29347V19.1275H133.741V14.4988H135.405V19.8027H138.958V6.82887H135.405V11.5586H133.741V6.9785H129.914L129.916 6.97971ZM125.235 24.4205C125.408 24.1139 125.694 23.8584 126.09 23.6614C126.487 23.4619 127.004 23.311 127.644 23.1991C128.282 23.0908 129.062 23.041 129.993 23.041C130.924 23.041 131.7 23.0908 132.339 23.1991C132.973 23.311 133.487 23.4619 133.879 23.6614C134.269 23.8597 134.548 24.1139 134.72 24.4205C134.897 24.7282 134.985 25.0786 134.985 25.4788C134.985 25.879 134.897 26.2063 134.72 26.5128C134.548 26.8206 134.267 27.076 133.879 27.2828C133.488 27.4909 132.974 27.649 132.339 27.7585C131.7 27.8655 130.917 27.9191 129.993 27.9191C129.07 27.9191 128.282 27.8655 127.644 27.7585C127.004 27.649 126.487 27.4896 126.09 27.2828C125.692 27.076 125.408 26.8206 125.235 26.5128C125.06 26.2063 124.973 25.8608 124.973 25.4788C124.973 25.0968 125.059 24.7282 125.235 24.4205ZM121.025 25.4776C121.025 26.2586 121.214 26.9714 121.597 27.6186C121.978 28.2633 122.548 28.8193 123.309 29.2742C124.075 29.7304 125.004 30.0844 126.115 30.3338C127.228 30.5819 128.52 30.7097 129.995 30.7097C131.469 30.7097 132.71 30.5832 133.829 30.3338C134.95 30.0844 135.882 29.7304 136.638 29.2742C137.39 28.8205 137.968 28.2645 138.362 27.6186C138.761 26.9726 138.96 26.2598 138.96 25.4776C138.96 23.8694 138.19 22.5945 136.649 21.6542C135.111 20.7199 132.89 20.2503 129.996 20.2503C127.101 20.2503 124.792 20.7199 123.285 21.6542C121.782 22.5945 121.027 23.8694 121.027 25.4776" fill="#0046FF"/>
</g>
<defs>
<clipPath id="clip0_5316_29757">
<rect width="138.96" height="36.4945" fill="white"/>
</clipPath>
</defs>
</svg>
