<svg width="16" height="16" viewBox="0 0 16 16" fill="none" xmlns="http://www.w3.org/2000/svg">
<g clip-path="url(#clip0_3824_16549)">
<path d="M1 0.99707C1 0.444786 1.44772 -0.00292969 2 -0.00292969H11.5801C11.8487 -0.00292969 12.106 0.10511 12.294 0.296862L13.5938 1.62207L14.6991 2.70287C14.8915 2.89102 15 3.14877 15 3.41788V14.9971C15 15.5494 14.5523 15.9971 14 15.9971H2C1.44772 15.9971 1 15.5494 1 14.9971V0.99707Z" fill="#2EA465"/>
<path d="M10.0801 12.514L3.91699 3.50098H6.34106L12.5032 12.514H10.0801ZM3.49707 12.514L6.68213 7.87299L7.93018 9.62195L7.03003 10.901H8.27612V12.514H3.49707ZM8.13696 5.78699L9.66113 3.5H12.085L9.38501 7.53595L8.13696 5.78699Z" fill="white"/>
</g>
<defs>
<clipPath id="clip0_3824_16549">
<rect width="16" height="16" fill="white"/>
</clipPath>
</defs>
</svg>
