<svg width="16" height="16" viewBox="0 0 16 16" fill="none" xmlns="http://www.w3.org/2000/svg">
<path d="M1 1C1 0.447715 1.44772 0 2 0H11.5801C11.8487 0 12.106 0.108015 12.294 0.299726L13.5938 1.6247L14.6991 2.70524C14.8915 2.89339 15 3.15117 15 3.42032V14.9971C15 15.5494 14.5523 15.9971 14 15.9971H2C1.44772 15.9971 1 15.5494 1 14.9971V1Z" fill="#BC3AB7"/>
<path d="M3.5 11.5792V4.44741C3.5 4.3989 3.52079 4.37117 3.56931 4.37117C3.68713 4.37117 3.79802 4.37117 3.95743 4.36424C4.11684 4.35731 4.29704 4.35731 4.48417 4.35038C4.67131 4.34345 4.8723 4.34345 5.08715 4.33652C5.30201 4.32959 5.50993 4.32959 5.71786 4.32959C6.28618 4.32959 6.75748 4.3989 7.1456 4.54444C7.49353 4.6626 7.81078 4.85674 8.07433 5.11277C8.29767 5.33683 8.47021 5.60629 8.58028 5.90288C8.6852 6.19172 8.73913 6.49659 8.73969 6.80389C8.73969 7.39994 8.60107 7.89202 8.32384 8.28015C8.04532 8.66774 7.65646 8.96241 7.20798 9.12571C6.73669 9.29898 6.21688 9.36135 5.64855 9.36135C5.48221 9.36135 5.37132 9.36135 5.30201 9.35442C5.2327 9.34749 5.13567 9.34749 5.00398 9.34749V11.5723C5.00553 11.5837 5.00477 11.5953 5.00175 11.6064C4.99873 11.6175 4.99351 11.6279 4.9864 11.6369C4.97929 11.646 4.97043 11.6535 4.96036 11.6591C4.95028 11.6646 4.93919 11.6681 4.92775 11.6693H3.58317C3.52772 11.6693 3.5 11.6416 3.5 11.5792ZM5.01092 5.70882V8.03757C5.10795 8.0445 5.19805 8.05143 5.28122 8.05143H5.64855C5.91912 8.05176 6.18806 8.00966 6.44559 7.92668C6.66654 7.8617 6.86394 7.73412 7.01392 7.55934C7.15946 7.38607 7.22877 7.15043 7.22877 6.84547C7.23529 6.62889 7.18 6.41493 7.06936 6.22863C6.9538 6.04868 6.78384 5.91028 6.58421 5.83357C6.32402 5.73167 6.04561 5.68448 5.76637 5.69496C5.58617 5.69496 5.42676 5.69496 5.29508 5.70189C5.20034 5.6957 5.10524 5.69802 5.01092 5.70882Z" fill="white"/>
<path d="M9.71002 6.11079H10.9229C10.9558 6.11158 10.9875 6.12273 11.0137 6.14265C11.0398 6.16256 11.059 6.19022 11.0685 6.22168C11.0896 6.27745 11.1036 6.33567 11.11 6.39495C11.1239 6.46426 11.1378 6.5405 11.1447 6.60981C11.1516 6.67912 11.1586 6.76922 11.1586 6.85932C11.3667 6.61637 11.6181 6.41425 11.9002 6.26327C12.2223 6.08431 12.5851 5.99123 12.9536 5.99297C12.965 5.99142 12.9766 5.99218 12.9877 5.9952C12.9988 5.99822 13.0092 6.00344 13.0183 6.01055C13.0273 6.01766 13.0349 6.02652 13.0404 6.03659C13.046 6.04667 13.0495 6.05776 13.0507 6.06921V7.44844C13.0507 7.50388 13.016 7.52468 12.9398 7.52468C12.6883 7.51645 12.4369 7.53973 12.1912 7.59398C11.991 7.63532 11.7959 7.69805 11.6091 7.78112C11.475 7.84158 11.3547 7.92885 11.2556 8.03756V11.5723C11.2556 11.6416 11.2279 11.6693 11.1655 11.6693H9.80012C9.78733 11.6715 9.77424 11.671 9.76165 11.6679C9.74905 11.6649 9.7372 11.6593 9.72683 11.6515C9.71646 11.6437 9.70778 11.6339 9.70131 11.6227C9.69485 11.6114 9.69073 11.599 9.68922 11.5861V7.71874C9.68922 7.5524 9.68922 7.37913 9.68229 7.19893C9.67536 7.01873 9.67536 6.83853 9.66843 6.65832C9.66843 6.49892 9.65457 6.34644 9.64071 6.18703C9.63887 6.17884 9.63867 6.17036 9.64011 6.16209C9.64156 6.15382 9.64462 6.14592 9.64913 6.13883C9.65364 6.13175 9.6595 6.12563 9.66638 6.12081C9.67326 6.116 9.68102 6.1126 9.68922 6.11079C9.68922 6.10386 9.70309 6.10386 9.71002 6.11079Z" fill="white"/>
</svg>
