<svg width="56" height="56" viewBox="0 0 56 56" fill="none" xmlns="http://www.w3.org/2000/svg">
<rect x="12" y="8" width="34" height="38" rx="3" fill="#B3CEFB"/>
<rect x="9" y="11" width="34" height="38" rx="3" fill="url(#paint0_linear_2268_13595)"/>
<path d="M19.1609 27.7017H17.617L17.7532 25.6885L16.0882 26.8389L15.3162 25.4917L17.1326 24.6289L15.3162 23.751L16.0882 22.4038L17.7532 23.5391L17.617 21.541H19.1609L19.0096 23.5391L20.6746 22.4038L21.4466 23.751L19.6302 24.6289L21.4466 25.4917L20.6746 26.8389L19.0096 25.6885L19.1609 27.7017ZM26.7795 27.7017H25.2356L25.3718 25.6885L23.7068 26.8389L22.9348 25.4917L24.7512 24.6289L22.9348 23.751L23.7068 22.4038L25.3718 23.5391L25.2356 21.541H26.7795L26.6282 23.5391L28.2932 22.4038L29.0652 23.751L27.2488 24.6289L29.0652 25.4917L28.2932 26.8389L26.6282 25.6885L26.7795 27.7017ZM34.3982 27.7017H32.8542L32.9904 25.6885L31.3254 26.8389L30.5534 25.4917L32.3698 24.6289L30.5534 23.751L31.3254 22.4038L32.9904 23.5391L32.8542 21.541H34.3982L34.2468 23.5391L35.9118 22.4038L36.6838 23.751L34.8674 24.6289L36.6838 25.4917L35.9118 26.8389L34.2468 25.6885L34.3982 27.7017Z" fill="#4E7AD9"/>
<rect x="14" y="35" width="24" height="2" rx="1" fill="#ACCBFF"/>
<rect x="14" y="41" width="24" height="2" rx="1" fill="#ACCBFF"/>
<g filter="url(#filter0_d_2268_13595)">
<path d="M49.7906 28.2405L45.7511 24.199L47.107 22.8631C47.3358 22.6344 47.646 22.5059 47.9696 22.5059C48.2931 22.5059 48.6034 22.6344 48.8322 22.8631L51.1465 25.1774C51.3752 25.4062 51.5037 25.7165 51.5037 26.04C51.5037 26.3635 51.3752 26.6738 51.1465 26.9026L49.7906 28.2405ZM50.2192 27.8119L41.3885 36.6506C41.3316 36.7082 41.2585 36.7472 41.1789 36.7624L37.4768 36.992C37.4125 37.0047 37.346 37.0014 37.2832 36.9823C37.2205 36.9633 37.1634 36.929 37.117 36.8826C37.0706 36.8362 37.0363 36.7791 37.0173 36.7164C36.9982 36.6536 36.9949 36.5871 37.0076 36.5228L37.2372 32.8167C37.2542 32.7407 37.2931 32.6713 37.349 32.617L46.1777 23.7724L50.2192 27.8119Z" fill="#81A9FC"/>
</g>
<path d="M50.2192 27.8119L41.3885 36.6506C41.3316 36.7082 41.2585 36.7472 41.1789 36.7624L37.4768 36.992C37.4125 37.0047 37.346 37.0014 37.2832 36.9823C37.2205 36.9633 37.1634 36.929 37.117 36.8826C37.0706 36.8362 37.0363 36.7791 37.0173 36.7164C36.9982 36.6536 36.9949 36.5871 37.0076 36.5228L37.2372 32.8167C37.2542 32.7407 37.2931 32.6713 37.349 32.617L46.1777 23.7724L50.2192 27.8119Z" fill="#4E7AD9"/>
<defs>
<filter id="filter0_d_2268_13595" x="34" y="21.5059" width="20.5037" height="20.4937" filterUnits="userSpaceOnUse" color-interpolation-filters="sRGB">
<feFlood flood-opacity="0" result="BackgroundImageFix"/>
<feColorMatrix in="SourceAlpha" type="matrix" values="0 0 0 0 0 0 0 0 0 0 0 0 0 0 0 0 0 0 127 0" result="hardAlpha"/>
<feOffset dy="2"/>
<feGaussianBlur stdDeviation="1.5"/>
<feComposite in2="hardAlpha" operator="out"/>
<feColorMatrix type="matrix" values="0 0 0 0 0.115214 0 0 0 0 0.313827 0 0 0 0 0.633333 0 0 0 0.39 0"/>
<feBlend mode="normal" in2="BackgroundImageFix" result="effect1_dropShadow_2268_13595"/>
<feBlend mode="normal" in="SourceGraphic" in2="effect1_dropShadow_2268_13595" result="shape"/>
</filter>
<linearGradient id="paint0_linear_2268_13595" x1="26" y1="15.1223" x2="26.9098" y2="62.1047" gradientUnits="userSpaceOnUse">
<stop stop-color="#EEF4FF"/>
<stop offset="1" stop-color="#D7E5FF"/>
</linearGradient>
</defs>
</svg>
