<svg width="18" height="18" viewBox="0 0 18 18" fill="none" xmlns="http://www.w3.org/2000/svg">
<path opacity="0.8" d="M8.99994 12C12.4514 12.0001 15.5305 13.6162 17.5947 16.1406L17.7919 16.3877L17.8505 16.4717C18.1185 16.9018 18.0216 17.4742 17.6122 17.791C17.2027 18.1076 16.6253 18.0569 16.2763 17.6895L16.2099 17.6123L15.8779 17.2061C14.1698 15.2279 11.7156 14.0001 8.99994 14C6.10295 14 3.50356 15.3976 1.78998 17.6123C1.45203 18.0489 0.823395 18.1288 0.386659 17.791C-0.0499934 17.453 -0.129961 16.8244 0.207948 16.3877C2.27053 13.722 5.43698 12 8.99994 12ZM9.25775 0.00683594C11.8998 0.140853 14.0009 2.32495 14.0009 5L13.9941 5.25684C13.8604 7.89864 11.6762 9.99964 9.00092 10L8.7431 9.99316C6.18609 9.86352 4.13619 7.81361 4.00678 5.25684L3.99994 5C3.99994 2.23859 6.23918 0 9.00092 0L9.25775 0.00683594ZM9.00092 2C7.34353 2 5.99994 3.34338 5.99994 5C5.99995 6.65661 7.34354 8 9.00092 8C10.658 7.99963 12.0009 6.65638 12.0009 5C12.0009 3.34361 10.658 2.00037 9.00092 2Z" fill="#333333"/>
</svg>
