<svg width="16" height="18" viewBox="0 0 16 18" fill="none" xmlns="http://www.w3.org/2000/svg">
<path fill-rule="evenodd" clip-rule="evenodd" d="M8.50098 0.5C8.50098 0.223858 8.27712 0 8.00098 0C7.72483 0 7.50098 0.223858 7.50098 0.5V1.10611C6.0446 1.23449 4.67257 1.87056 3.63057 2.91255C2.45847 4.08466 1.79999 5.67437 1.79999 7.33197V14.5H1C0.723858 14.5 0.5 14.7239 0.5 15C0.5 15.2761 0.723858 15.5 1 15.5H5.2604C5.31859 16.1377 5.59801 16.7381 6.05448 17.1945C6.5702 17.7103 7.26968 18 7.99902 18C8.72837 18 9.42784 17.7103 9.94357 17.1945C10.4 16.7381 10.6795 16.1377 10.7376 15.5H15C15.2761 15.5 15.5 15.2761 15.5 15C15.5 14.7239 15.2761 14.5 15 14.5H14.3V7.33197C14.3 5.67437 13.6415 4.08466 12.4694 2.91255C11.4041 1.84721 9.99372 1.20619 8.50098 1.09825V0.5Z" fill="white" fill-opacity="0.5"/>
</svg>
