<svg width="16" height="16" viewBox="0 0 16 16" fill="none" xmlns="http://www.w3.org/2000/svg">
<g clip-path="url(#clip0_4562_67780)">
<path d="M7.07627 11.8638L7.66133 10.5237C8.18207 9.33115 9.11927 8.38182 10.2883 7.86288L11.8988 7.14802C12.4108 6.92075 12.4108 6.17587 11.8988 5.9486L10.3386 5.25604C9.13947 4.72376 8.18547 3.73929 7.67367 2.50604L7.081 1.0779C6.86107 0.547925 6.12879 0.547927 5.90887 1.0779L5.31618 2.50603C4.80438 3.73929 3.85035 4.72376 2.65123 5.25604L1.09105 5.9486C0.579024 6.17587 0.579024 6.92075 1.09105 7.14802L2.70153 7.86288C3.87059 8.38182 4.80781 9.33115 5.3285 10.5237L5.9136 11.8638C6.13851 12.3789 6.85133 12.3789 7.07627 11.8638ZM12.9343 15.1267L13.0988 14.7495C13.3921 14.0771 13.9205 13.5417 14.5797 13.2489L15.0866 13.0236C15.3608 12.9018 15.3608 12.5033 15.0866 12.3815L14.6081 12.1689C13.9319 11.8685 13.3941 11.3133 13.1057 10.618L12.9368 10.2105C12.819 9.92648 12.4263 9.92648 12.3085 10.2105L12.1396 10.618C11.8513 11.3133 11.3135 11.8685 10.6373 12.1689L10.1587 12.3815C9.8846 12.5033 9.8846 12.9018 10.1587 13.0236L10.6657 13.2489C11.3249 13.5417 11.8532 14.0771 12.1465 14.7495L12.3111 15.1267C12.4315 15.4027 12.8138 15.4027 12.9343 15.1267Z" fill="url(#paint0_linear_4562_67780)"/>
</g>
<defs>
<linearGradient id="paint0_linear_4562_67780" x1="27.5" y1="37.0002" x2="-15.5" y2="-12.9998" gradientUnits="userSpaceOnUse">
<stop stop-color="#DC62FB"/>
<stop offset="1" stop-color="#5990FF"/>
</linearGradient>
<clipPath id="clip0_4562_67780">
<rect width="16" height="16" fill="white"/>
</clipPath>
</defs>
</svg>
