<svg width="48" height="48" viewBox="0 0 48 48" fill="none" xmlns="http://www.w3.org/2000/svg">
<path d="M22.0312 6.63379C22.6522 5.54802 24.0511 5.18681 25.127 5.79395L25.1338 5.79688V5.79785C25.4703 5.99482 25.767 6.27144 25.9756 6.63184L44.2012 38.1357L44.2021 38.1377C44.8203 39.2187 44.4474 40.597 43.3506 41.209L43.3467 41.2109C43.0043 41.3987 42.6212 41.5 42.2246 41.5H5.77441C4.52189 41.5 3.50025 40.5001 3.5 39.248C3.5 38.854 3.60297 38.4691 3.79883 38.1338L22.0312 6.63379Z" fill="#F2C14F" stroke="#D9A636" stroke-miterlimit="10"/>
<path d="M24 32.5C24.9665 32.5 25.75 33.2835 25.75 34.25C25.75 35.2165 24.9665 36 24 36C23.0335 36 22.25 35.2165 22.25 34.25C22.25 33.2835 23.0335 32.5 24 32.5ZM24 17C24.8284 17 25.5 17.6716 25.5 18.5V29.5C25.5 30.3284 24.8284 31 24 31C23.1716 31 22.5 30.3284 22.5 29.5V18.5C22.5 17.6716 23.1716 17 24 17Z" fill="white"/>
</svg>
