<svg width="24" height="24" viewBox="0 0 24 24" fill="none" xmlns="http://www.w3.org/2000/svg">
<path d="M7.87113 20.6262C7.63361 20.3848 7.5 20.0562 7.5 19.7134C7.5 19.3706 7.63361 19.042 7.87113 18.8007L13.6176 12.9128C13.8551 12.6714 13.9887 12.3428 13.9887 12C13.9887 11.6572 13.8551 11.3286 13.6176 11.0872L7.87113 5.19934C7.63361 4.95795 7.5 4.62937 7.5 4.28659C7.5 3.94381 7.63361 3.61522 7.87113 3.37383C8.3605 2.87539 9.15086 2.87539 9.64023 3.37383L15.3992 9.27459C16.8669 10.7803 16.8669 13.2197 15.3992 14.7254L9.64023 20.6262C9.15086 21.1246 8.3605 21.1246 7.87113 20.6262Z" fill="white"/>
</svg>
