<svg width="18" height="18" viewBox="0 0 18 18" fill="none" xmlns="http://www.w3.org/2000/svg">
<g clip-path="url(#clip0_4001_1235)">
<path d="M11 7H14C15.1046 7 16 7.89543 16 9V15H11V7Z" fill="#D8E0FF"/>
<path d="M9 1C10.1046 1 11 1.89543 11 3V14H16.25C16.6642 14 17 14.3358 17 14.75C17 15.1642 16.6642 15.5 16.25 15.5H1.75C1.33579 15.5 1 15.1642 1 14.75C1 14.3358 1.33579 14 1.75 14H2V3C2 1.89543 2.89543 1 4 1H9ZM5 10C4.72386 10 4.5 10.2239 4.5 10.5C4.5 10.7761 4.72386 11 5 11H8C8.27614 11 8.5 10.7761 8.5 10.5C8.5 10.2239 8.27614 10 8 10H5ZM5 7.5C4.72386 7.5 4.5 7.72386 4.5 8C4.5 8.27614 4.72386 8.5 5 8.5H8C8.27614 8.5 8.5 8.27614 8.5 8C8.5 7.72386 8.27614 7.5 8 7.5H5ZM5 5C4.72386 5 4.5 5.22386 4.5 5.5C4.5 5.77614 4.72386 6 5 6H8C8.27614 6 8.5 5.77614 8.5 5.5C8.5 5.22386 8.27614 5 8 5H5Z" fill="#3B5DFB"/>
</g>
<defs>
<clipPath id="clip0_4001_1235">
<rect width="18" height="18" fill="white"/>
</clipPath>
</defs>
</svg>
