<svg width="36" height="34" viewBox="0 0 36 34" fill="none" xmlns="http://www.w3.org/2000/svg">
<path d="M17.5645 7.00293C18.111 6.98869 18.6489 7.0304 19.1719 7.12109C18.8319 7.63085 18.5582 8.18815 18.3604 8.78027C18.1128 8.75769 17.8618 8.74924 17.6084 8.75586C14.6722 8.83281 12.1648 10.8993 11.5273 13.7676L9.76855 21.6836C9.71123 21.9423 9.77472 22.2131 9.94043 22.4199C10.1063 22.6268 10.357 22.7479 10.6221 22.748H25.374C25.6485 22.75 25.9079 22.6216 26.0732 22.4023C26.2382 22.1845 26.291 21.9014 26.2158 21.6387L25.2051 17.9941C25.8083 17.9768 26.3916 17.8833 26.9473 17.7227L27.9043 21.1729H27.9053C28.1236 21.9624 27.9604 22.8088 27.4648 23.4609C26.9691 24.1131 26.1969 24.4967 25.3779 24.4971H22.3447C21.931 26.5352 20.1394 27.9998 18.0605 28C15.9816 28 14.1902 26.5352 13.7764 24.4971H10.6221C9.82681 24.4968 9.07478 24.1352 8.57715 23.5146C8.07955 22.8941 7.89027 22.0814 8.0625 21.3047L9.82031 13.3887C10.63 9.73393 13.8238 7.10058 17.5645 7.00293ZM15.5977 24.4971C15.9668 25.5417 16.953 26.2415 18.0605 26.2461C19.168 26.2413 20.1533 25.5416 20.5225 24.4971H15.5977ZM22.1025 8.24316C23.784 9.29716 25.0719 10.9577 25.6309 12.9766L26.1455 14.832C25.7825 14.9404 25.3983 15 25 15C24.7819 15 24.568 14.9818 24.3594 14.9482L23.9424 13.4424C23.5056 11.8705 22.5055 10.5766 21.2002 9.74902C21.3875 9.17988 21.6988 8.66735 22.1025 8.24316Z" fill="white"/>
<circle cx="25" cy="11" r="4" fill="#FF3B30"/>
</svg>
