<svg width="18" height="18" viewBox="0 0 18 18" fill="none" xmlns="http://www.w3.org/2000/svg">
<g clip-path="url(#clip0_4082_22115)">
<path d="M9 4.5C9.27614 4.5 9.5 4.72386 9.5 5V8.5H13C13.2761 8.5 13.5 8.72386 13.5 9C13.5 9.27614 13.2761 9.5 13 9.5H9C8.72386 9.5 8.5 9.27614 8.5 9V5C8.5 4.72386 8.72386 4.5 9 4.5Z" fill="#353C49"/>
<path fill-rule="evenodd" clip-rule="evenodd" d="M9 1.5C13.1421 1.5 16.5 4.85786 16.5 9C16.5 13.1421 13.1421 16.5 9 16.5C4.85786 16.5 1.5 13.1421 1.5 9C1.5 4.85786 4.85786 1.5 9 1.5ZM9 2.5C5.41015 2.5 2.5 5.41015 2.5 9C2.5 12.5899 5.41015 15.5 9 15.5C12.5899 15.5 15.5 12.5899 15.5 9C15.5 5.41015 12.5899 2.5 9 2.5Z" fill="#353C49"/>
</g>
<defs>
<clipPath id="clip0_4082_22115">
<rect width="18" height="18" fill="white"/>
</clipPath>
</defs>
</svg>
