<svg width="16" height="16" viewBox="0 0 16 16" fill="none" xmlns="http://www.w3.org/2000/svg">
<path d="M3.51855 10.1998V3.12756C3.51855 2.85238 3.73266 2.62854 3.99703 2.62854C4.2614 2.62854 4.4755 2.85238 4.4755 3.12756V10.1998C4.4755 12.1338 5.98188 13.7018 7.83983 13.7018C9.69778 13.7018 11.2042 12.1338 11.2042 10.1998V4.46936C11.204 3.26954 10.2694 2.29671 9.1167 2.29651C7.96387 2.29651 7.0285 3.26942 7.0283 4.46936V9.9635C7.0283 10.4298 7.39187 10.8082 7.83983 10.8082C8.2878 10.8082 8.65136 10.4298 8.65136 9.9635V4.91272C8.65136 4.63753 8.86547 4.41467 9.12984 4.41467C9.39412 4.41479 9.60831 4.6376 9.60831 4.91272V9.9635C9.60831 10.9802 8.81654 11.8043 7.83983 11.8043C6.86313 11.8043 6.07136 10.9802 6.07136 9.9635V4.46936C6.07155 2.71904 7.43512 1.30042 9.1167 1.30042C10.7981 1.30062 12.1609 2.71917 12.1611 4.46936V10.1998C12.1611 12.6842 10.2265 14.6979 7.83983 14.6979C5.45314 14.6979 3.51855 12.6842 3.51855 10.1998Z" fill="#212126"/>
</svg>
