<svg width="18" height="18" viewBox="0 0 18 18" fill="none" xmlns="http://www.w3.org/2000/svg">
<path d="M12 1.75C12.2761 1.75 12.5 1.97386 12.5 2.25V3.25H13.5C14.0304 3.25 14.539 3.46086 14.9141 3.83594C15.2891 4.21101 15.5 4.71957 15.5 5.25V14.25C15.5 14.7804 15.2891 15.289 14.9141 15.6641C14.539 16.0391 14.0304 16.25 13.5 16.25H4.5C3.96957 16.25 3.46101 16.0391 3.08594 15.6641C2.71086 15.289 2.5 14.7804 2.5 14.25V5.25C2.5 4.71957 2.71086 4.21101 3.08594 3.83594C3.46101 3.46086 3.96957 3.25 4.5 3.25H5.5V2.25C5.5 1.97386 5.72386 1.75 6 1.75C6.27614 1.75 6.5 1.97386 6.5 2.25V3.25H11.5V2.25C11.5 1.97386 11.7239 1.75 12 1.75ZM3.5 14.25C3.5 14.5152 3.60543 14.7695 3.79297 14.957C3.98051 15.1446 4.23478 15.25 4.5 15.25H13.5C13.7652 15.25 14.0195 15.1446 14.207 14.957C14.3946 14.7695 14.5 14.5152 14.5 14.25V8.75H3.5V14.25ZM5.26074 12.25C5.53677 12.2501 5.76074 12.4739 5.76074 12.75C5.76074 13.0261 5.53677 13.2499 5.26074 13.25H5.25781C4.98167 13.25 4.75781 13.0261 4.75781 12.75C4.75781 12.4739 4.98167 12.25 5.25781 12.25H5.26074ZM7.51074 12.25C7.78677 12.2501 8.01074 12.4739 8.01074 12.75C8.01074 13.0261 7.78677 13.2499 7.51074 13.25H7.50781C7.23167 13.25 7.00781 13.0261 7.00781 12.75C7.00781 12.4739 7.23167 12.25 7.50781 12.25H7.51074ZM9.76465 12.25C10.0406 12.2503 10.2646 12.474 10.2646 12.75C10.2646 13.026 10.0406 13.2497 9.76465 13.25H9.76172C9.48558 13.25 9.26172 13.0261 9.26172 12.75C9.26172 12.4739 9.48558 12.25 9.76172 12.25H9.76465ZM5.25977 10C5.5359 10 5.75977 10.2239 5.75977 10.5C5.75977 10.7761 5.5359 11 5.25977 11H5.25C4.97386 11 4.75 10.7761 4.75 10.5C4.75 10.2239 4.97386 10 5.25 10H5.25977ZM7.51074 10C7.78677 10.0001 8.01074 10.2239 8.01074 10.5C8.01074 10.7761 7.78677 10.9999 7.51074 11H7.50781C7.23167 11 7.00781 10.7761 7.00781 10.5C7.00781 10.2239 7.23167 10 7.50781 10H7.51074ZM9.76074 10C10.0368 10.0001 10.2607 10.2239 10.2607 10.5C10.2607 10.7761 10.0368 10.9999 9.76074 11H9.75781C9.48167 11 9.25781 10.7761 9.25781 10.5C9.25781 10.2239 9.48167 10 9.75781 10H9.76074ZM12.0146 10C12.2906 10.0003 12.5146 10.224 12.5146 10.5C12.5146 10.776 12.2906 10.9997 12.0146 11H12.0117C11.7356 11 11.5117 10.7761 11.5117 10.5C11.5117 10.2239 11.7356 10 12.0117 10H12.0146ZM4.5 4.25C4.23478 4.25 3.9805 4.35543 3.79297 4.54297C3.60543 4.7305 3.5 4.98478 3.5 5.25V7.75H14.5V5.25C14.5 4.98478 14.3946 4.73051 14.207 4.54297C14.0195 4.35543 13.7652 4.25 13.5 4.25H12.5V5.25C12.5 5.52614 12.2761 5.75 12 5.75C11.7239 5.75 11.5 5.52614 11.5 5.25V4.25H6.5V5.25C6.5 5.52614 6.27614 5.75 6 5.75C5.72386 5.75 5.5 5.52614 5.5 5.25V4.25H4.5Z" fill="#4F4F55"/>
</svg>
