<svg width="18" height="18" viewBox="0 0 18 18" fill="none" xmlns="http://www.w3.org/2000/svg">
<g clip-path="url(#clip0_4001_797)">
<path d="M5 5C5.55228 5 6 5.44772 6 6V14C6 14.5523 5.55228 15 5 15H4C3.44772 15 3 14.5523 3 14V6C3 5.44772 3.44772 5 4 5H5ZM9.5 8C10.0523 8 10.5 8.44772 10.5 9V14C10.5 14.5523 10.0523 15 9.5 15H8.5C7.94772 15 7.5 14.5523 7.5 14V9C7.5 8.44772 7.94772 8 8.5 8H9.5ZM14 3C14.5523 3 15 3.44772 15 4V14C15 14.5523 14.5523 15 14 15H13C12.4477 15 12 14.5523 12 14V4C12 3.44772 12.4477 3 13 3H14Z" fill="#8B8B8F"/>
<rect x="3" y="5" width="3" height="10" rx="1" fill="#8B8B8F"/>
<rect x="7.5" y="8" width="3" height="7" rx="1" fill="#8B8B8F"/>
<rect x="12" y="3" width="3" height="12" rx="1" fill="#8B8B8F"/>
</g>
<defs>
<clipPath id="clip0_4001_797">
<rect width="18" height="18" fill="white"/>
</clipPath>
</defs>
</svg>
