<svg width="48" height="48" viewBox="0 0 48 48" fill="none" xmlns="http://www.w3.org/2000/svg">
<path d="M24 0.299805C37.0891 0.299805 47.7002 10.9109 47.7002 24C47.7002 37.0891 37.0891 47.7002 24 47.7002C10.9109 47.7002 0.299805 37.0891 0.299805 24C0.299805 10.9109 10.9109 0.299805 24 0.299805Z" fill="url(#paint0_linear_4325_3287)"/>
<path d="M24 0.299805C37.0891 0.299805 47.7002 10.9109 47.7002 24C47.7002 37.0891 37.0891 47.7002 24 47.7002C10.9109 47.7002 0.299805 37.0891 0.299805 24C0.299805 10.9109 10.9109 0.299805 24 0.299805Z" stroke="url(#paint1_linear_4325_3287)" stroke-width="0.6"/>
<path opacity="0.5" d="M20.4005 17.9984C20.4005 17.0436 20.7798 16.128 21.4549 15.4528C22.13 14.7777 23.0457 14.3984 24.0005 14.3984C24.9553 14.3984 25.8709 14.7777 26.5461 15.4528C27.2212 16.128 27.6005 17.0436 27.6005 17.9984V20.3984H30.0005V17.9984C30.0005 16.4071 29.3683 14.881 28.2431 13.7558C27.1179 12.6306 25.5918 11.9984 24.0005 11.9984C22.4092 11.9984 20.8831 12.6306 19.7578 13.7558C18.6326 14.881 18.0005 16.4071 18.0005 17.9984V20.3984H20.4005V17.9984ZM24.0005 31.1984C23.6822 31.1984 23.377 31.072 23.152 30.8469C22.9269 30.6219 22.8005 30.3167 22.8005 29.9984V26.3984C22.8005 26.0802 22.9269 25.7749 23.152 25.5499C23.377 25.3248 23.6822 25.1984 24.0005 25.1984C24.3187 25.1984 24.624 25.3248 24.849 25.5499C25.0741 25.7749 25.2005 26.0802 25.2005 26.3984V29.9984C25.2005 30.3167 25.0741 30.6219 24.849 30.8469C24.624 31.072 24.3187 31.1984 24.0005 31.1984Z" fill="white"/>
<path d="M30.0004 20.3984H18.0004C17.0456 20.3984 16.1299 20.7777 15.4548 21.4529C14.7797 22.128 14.4004 23.0437 14.4004 23.9984V32.3984C14.4004 33.3532 14.7797 34.2689 15.4548 34.944C16.1299 35.6192 17.0456 35.9984 18.0004 35.9984H30.0004C30.9552 35.9984 31.8708 35.6192 32.546 34.944C33.2211 34.2689 33.6004 33.3532 33.6004 32.3984V23.9984C33.6004 23.0437 33.2211 22.128 32.546 21.4529C31.8708 20.7777 30.9552 20.3984 30.0004 20.3984ZM25.2004 29.9984C25.2004 30.3167 25.074 30.6219 24.8489 30.847C24.6239 31.072 24.3187 31.1984 24.0004 31.1984C23.6821 31.1984 23.3769 31.072 23.1519 30.847C22.9268 30.6219 22.8004 30.3167 22.8004 29.9984V26.3984C22.8004 26.0802 22.9268 25.775 23.1519 25.5499C23.3769 25.3249 23.6821 25.1984 24.0004 25.1984C24.3187 25.1984 24.6239 25.3249 24.8489 25.5499C25.074 25.775 25.2004 26.0802 25.2004 26.3984V29.9984Z" fill="white"/>
<defs>
<linearGradient id="paint0_linear_4325_3287" x1="20.8889" y1="-1.52337e-06" x2="44.3608" y2="66.0692" gradientUnits="userSpaceOnUse">
<stop stop-color="#A8C4FF"/>
<stop offset="1" stop-color="#4A81F7"/>
</linearGradient>
<linearGradient id="paint1_linear_4325_3287" x1="12.8889" y1="-4.5" x2="60.5515" y2="31.6883" gradientUnits="userSpaceOnUse">
<stop stop-color="#B0D0FA"/>
<stop offset="1" stop-color="#99C4FB"/>
</linearGradient>
</defs>
</svg>
