<svg width="58" height="62" viewBox="0 0 58 62" fill="none" xmlns="http://www.w3.org/2000/svg">
<g filter="url(#filter0_d_4325_3296)">
<rect x="10" y="8" width="36" height="40" rx="4" fill="url(#paint0_linear_4325_3296)"/>
<rect x="10" y="8" width="36" height="40" rx="4" fill="url(#paint1_radial_4325_3296)" fill-opacity="0.5"/>
<rect x="10" y="8" width="36" height="40" rx="4" fill="url(#paint2_linear_4325_3296)"/>
<rect x="10.25" y="8.25" width="35.5" height="39.5" rx="3.75" stroke="url(#paint3_linear_4325_3296)" stroke-width="0.5"/>
</g>
<path d="M16 34H30" stroke="white" stroke-opacity="0.6" stroke-width="2" stroke-linecap="round"/>
<path d="M16 40H30" stroke="white" stroke-opacity="0.6" stroke-width="2" stroke-linecap="round"/>
<path d="M31.0042 16.0779C29.5838 16.3219 28.4985 17.952 28.4985 17.952C28.4985 17.952 27.4081 16.3219 25.9927 16.0779C22.4866 15.4776 21.0412 18.4743 21.6264 20.7047C22.4916 23.9991 26.6529 26.9519 28.0433 27.8645C28.3184 28.0452 28.6785 28.0452 28.9586 27.8645C30.354 26.9519 34.5152 23.9991 35.3755 20.7047C35.9557 18.4743 34.5102 15.4776 31.0042 16.0779Z" fill="white"/>
<g filter="url(#filter1_d_4325_3296)">
<circle cx="44" cy="44" r="10" fill="url(#paint4_linear_4325_3296)"/>
</g>
<path d="M40.5 40.5L47.5 47.5M40.5 47.5L47.5 40.5" stroke="white" stroke-width="2" stroke-linecap="round" stroke-linejoin="round"/>
<defs>
<filter id="filter0_d_4325_3296" x="2" y="0" width="52" height="56" filterUnits="userSpaceOnUse" color-interpolation-filters="sRGB">
<feFlood flood-opacity="0" result="BackgroundImageFix"/>
<feColorMatrix in="SourceAlpha" type="matrix" values="0 0 0 0 0 0 0 0 0 0 0 0 0 0 0 0 0 0 127 0" result="hardAlpha"/>
<feOffset/>
<feGaussianBlur stdDeviation="4"/>
<feComposite in2="hardAlpha" operator="out"/>
<feColorMatrix type="matrix" values="0 0 0 0 0.478431 0 0 0 0 0.701961 0 0 0 0 0.976471 0 0 0 0.16 0"/>
<feBlend mode="normal" in2="BackgroundImageFix" result="effect1_dropShadow_4325_3296"/>
<feBlend mode="normal" in="SourceGraphic" in2="effect1_dropShadow_4325_3296" result="shape"/>
</filter>
<filter id="filter1_d_4325_3296" x="30" y="34" width="28" height="28" filterUnits="userSpaceOnUse" color-interpolation-filters="sRGB">
<feFlood flood-opacity="0" result="BackgroundImageFix"/>
<feColorMatrix in="SourceAlpha" type="matrix" values="0 0 0 0 0 0 0 0 0 0 0 0 0 0 0 0 0 0 127 0" result="hardAlpha"/>
<feOffset dy="4"/>
<feGaussianBlur stdDeviation="2"/>
<feComposite in2="hardAlpha" operator="out"/>
<feColorMatrix type="matrix" values="0 0 0 0 0.289401 0 0 0 0 0.068138 0 0 0 0 0.59917 0 0 0 0.15 0"/>
<feBlend mode="normal" in2="BackgroundImageFix" result="effect1_dropShadow_4325_3296"/>
<feBlend mode="normal" in="SourceGraphic" in2="effect1_dropShadow_4325_3296" result="shape"/>
</filter>
<linearGradient id="paint0_linear_4325_3296" x1="10" y1="43.2174" x2="51.0789" y2="30.5259" gradientUnits="userSpaceOnUse">
<stop stop-color="#CFE4FE"/>
<stop offset="1" stop-color="#85BDFC"/>
</linearGradient>
<radialGradient id="paint1_radial_4325_3296" cx="0" cy="0" r="1" gradientTransform="matrix(3.39623 25.625 -23.0625 10.3516 24.2641 -1.375)" gradientUnits="userSpaceOnUse">
<stop stop-color="white"/>
<stop offset="1" stop-color="white"/>
</radialGradient>
<linearGradient id="paint2_linear_4325_3296" x1="25.6667" y1="8" x2="57.8" y2="72.2667" gradientUnits="userSpaceOnUse">
<stop stop-color="#A8C4FF"/>
<stop offset="1" stop-color="#4A81F7"/>
</linearGradient>
<linearGradient id="paint3_linear_4325_3296" x1="19.6667" y1="4.25" x2="58.0827" y2="30.5009" gradientUnits="userSpaceOnUse">
<stop stop-color="#B0D0FA"/>
<stop offset="1" stop-color="#99C4FB"/>
</linearGradient>
<linearGradient id="paint4_linear_4325_3296" x1="38.8" y1="32.2353" x2="55.5197" y2="50.5471" gradientUnits="userSpaceOnUse">
<stop stop-color="#D0B8FF"/>
<stop offset="1" stop-color="#9B7AFF"/>
</linearGradient>
</defs>
</svg>
