<svg width="12" height="14" viewBox="0 0 12 14" fill="none" xmlns="http://www.w3.org/2000/svg">
<path d="M3.03394 7.50098L8.04642 7.50098" stroke="white" stroke-linecap="round"/>
<path d="M3.53516 10.0078L6.54265 10.0078" stroke="white" stroke-linecap="round"/>
<path d="M0.52771 3.38535C0.52771 2.54527 0.52771 2.12523 0.6912 1.80437C0.83501 1.52212 1.06448 1.29265 1.34672 1.14884C1.66759 0.985352 2.08763 0.985352 2.92771 0.985352H5.76262C6.10803 0.985352 6.28074 0.985352 6.44435 1.02241C6.58944 1.05527 6.72884 1.10954 6.85796 1.18343C7.00356 1.26674 7.13081 1.38351 7.38531 1.61705L9.77536 3.81027C10.0617 4.07304 10.2049 4.20442 10.3075 4.36114C10.3985 4.50005 10.4658 4.65309 10.5066 4.81403C10.5527 4.99562 10.5527 5.18994 10.5527 5.57858V10.6153C10.5527 11.4554 10.5527 11.8754 10.3892 12.1963C10.2454 12.4785 10.0159 12.708 9.73367 12.8518C9.4128 13.0153 8.99276 13.0153 8.15268 13.0153H2.92771C2.08763 13.0153 1.66759 13.0153 1.34672 12.8518C1.06448 12.708 0.83501 12.4785 0.6912 12.1963C0.52771 11.8754 0.52771 11.4554 0.52771 10.6153V3.38535Z" stroke="white"/>
<path d="M6.54272 0.985352V2.59534C6.54272 3.43542 6.54272 3.85546 6.70621 4.17632C6.85002 4.45857 7.0795 4.68804 7.36174 4.83185C7.68261 4.99534 8.10265 4.99534 8.94272 4.99534H10.5527" stroke="white"/>
</svg>
