<svg width="80" height="80" viewBox="0 0 80 80" fill="none" xmlns="http://www.w3.org/2000/svg">
<path d="M20 30C20 27.7909 21.7909 26 24 26H56C58.2091 26 60 27.7909 60 30V56C60 57.1046 59.1046 58 58 58H22C20.8954 58 20 57.1046 20 56V30Z" fill="url(#paint0_linear_4562_75229)"/>
<path d="M23 30.5C23 29.6716 23.6716 29 24.5 29H55.5C56.3284 29 57 29.6716 57 30.5V53H23V30.5Z" fill="white" fill-opacity="0.4"/>
<path d="M29.883 41H27.7267L30.6095 32.5156H33.258L36.1291 41H33.9845L33.4103 39.1836H30.4572L29.883 41ZM30.9377 37.6602H32.9298L31.9689 34.6133H31.8986L30.9377 37.6602ZM37.9492 41H35.793L38.6758 32.5156H41.3242L44.1953 41H42.0508L41.4766 39.1836H38.5234L37.9492 41ZM39.0039 37.6602H40.9961L40.0352 34.6133H39.9648L39.0039 37.6602ZM46.0155 41H43.8592L46.742 32.5156H49.3905L52.2616 41H50.117L49.5428 39.1836H46.5897L46.0155 41ZM47.0702 37.6602H49.0623L48.1014 34.6133H48.0311L47.0702 37.6602Z" fill="white"/>
<path d="M28 45H52" stroke="white" stroke-opacity="0.6" stroke-width="2" stroke-linecap="round"/>
<path d="M28 49H52" stroke="white" stroke-opacity="0.6" stroke-width="2" stroke-linecap="round"/>
<path d="M60.5714 58H19.4286C18.5193 58 17.647 57.6502 17.004 57.0251C16.3611 56.3999 16 55.5507 16 54.6667V53.8333C16 53.6123 16.0904 53.4004 16.2511 53.2441C16.4119 53.0879 16.6298 53 16.8571 53H33.1429C33.1429 53.442 33.3236 53.8658 33.6451 54.1784C33.9666 54.4909 34.4025 54.6667 34.8571 54.6667H45.1429C45.5975 54.6667 46.0334 54.4909 46.3549 54.1784C46.6764 53.8658 46.8571 53.442 46.8571 53H63.1429C63.3702 53 63.5881 53.0879 63.7489 53.2441C63.9096 53.4004 64 53.6123 64 53.8333V54.6667C64 55.5507 63.6389 56.3999 62.996 57.0251C62.353 57.6502 61.4807 58 60.5714 58Z" fill="url(#paint1_linear_4562_75229)"/>
<g clip-path="url(#clip0_4562_75229)">
<circle cx="56" cy="56" r="10" fill="url(#paint2_linear_4562_75229)"/>
<path d="M51.9126 51.5874C53.7974 49.7026 56.8354 49.6851 58.6985 51.548C60.3539 53.2034 60.5231 55.7852 59.2185 57.6627L60.942 59.3863C61.3717 59.8162 61.3678 60.5168 60.9331 60.9517C60.4982 61.3866 59.7969 61.3911 59.3669 60.9614L57.5633 59.1577C55.7359 60.165 53.4068 59.9068 51.8733 58.3733C50.0104 56.5102 50.028 53.4721 51.9126 51.5874ZM53.4698 53.1445C52.4551 54.1594 52.4454 55.795 53.4484 56.7982C54.4515 57.8013 56.0878 57.7922 57.1027 56.7774C58.1176 55.7625 58.1266 54.1263 57.1234 53.1231C56.1201 52.1201 54.4846 52.1297 53.4698 53.1445Z" fill="white"/>
</g>
<defs>
<linearGradient id="paint0_linear_4562_75229" x1="31.75" y1="24.1858" x2="46.8655" y2="61.4239" gradientUnits="userSpaceOnUse">
<stop stop-color="#B3CBFF"/>
<stop offset="1" stop-color="#497BE7"/>
</linearGradient>
<linearGradient id="paint1_linear_4562_75229" x1="38.6659" y1="47.8206" x2="39.1621" y2="64.4753" gradientUnits="userSpaceOnUse">
<stop stop-color="#ACC7FF"/>
<stop offset="1" stop-color="#457EF8"/>
</linearGradient>
<linearGradient id="paint2_linear_4562_75229" x1="50.8" y1="44.2353" x2="68.3775" y2="63.2711" gradientUnits="userSpaceOnUse">
<stop stop-color="#D0B8FF"/>
<stop offset="1" stop-color="#9B7AFF"/>
</linearGradient>
<clipPath id="clip0_4562_75229">
<rect width="20" height="20" fill="white" transform="translate(46 46)"/>
</clipPath>
</defs>
</svg>
