<svg width="80" height="80" viewBox="0 0 80 80" fill="none" xmlns="http://www.w3.org/2000/svg">
<path d="M40 16.2998C53.0891 16.2998 63.7002 26.9109 63.7002 40C63.7002 53.0891 53.0891 63.7002 40 63.7002C26.9109 63.7002 16.2998 53.0891 16.2998 40C16.2998 26.9109 26.9109 16.2998 40 16.2998Z" fill="url(#paint0_linear_4562_74514)"/>
<path d="M40 16.2998C53.0891 16.2998 63.7002 26.9109 63.7002 40C63.7002 53.0891 53.0891 63.7002 40 63.7002C26.9109 63.7002 16.2998 53.0891 16.2998 40C16.2998 26.9109 26.9109 16.2998 40 16.2998Z" stroke="url(#paint1_linear_4562_74514)" stroke-width="0.6"/>
<path opacity="0.5" d="M36.4005 33.9984C36.4005 33.0437 36.7798 32.128 37.4549 31.4529C38.13 30.7777 39.0457 30.3984 40.0005 30.3984C40.9553 30.3984 41.8709 30.7777 42.5461 31.4529C43.2212 32.128 43.6005 33.0437 43.6005 33.9984V36.3984H46.0005V33.9984C46.0005 32.4071 45.3683 30.881 44.2431 29.7558C43.1179 28.6306 41.5918 27.9984 40.0005 27.9984C38.4092 27.9984 36.8831 28.6306 35.7578 29.7558C34.6326 30.881 34.0005 32.4071 34.0005 33.9984V36.3984H36.4005V33.9984ZM40.0005 47.1984C39.6822 47.1984 39.377 47.072 39.152 46.847C38.9269 46.6219 38.8005 46.3167 38.8005 45.9984V42.3984C38.8005 42.0802 38.9269 41.775 39.152 41.5499C39.377 41.3249 39.6822 41.1984 40.0005 41.1984C40.3187 41.1984 40.624 41.3249 40.849 41.5499C41.0741 41.775 41.2005 42.0802 41.2005 42.3984V45.9984C41.2005 46.3167 41.0741 46.6219 40.849 46.847C40.624 47.072 40.3187 47.1984 40.0005 47.1984Z" fill="white"/>
<path d="M46.0004 36.3984H34.0004C33.0456 36.3984 32.1299 36.7777 31.4548 37.4529C30.7797 38.128 30.4004 39.0437 30.4004 39.9984V48.3984C30.4004 49.3532 30.7797 50.2689 31.4548 50.944C32.1299 51.6192 33.0456 51.9984 34.0004 51.9984H46.0004C46.9552 51.9984 47.8708 51.6192 48.546 50.944C49.2211 50.2689 49.6004 49.3532 49.6004 48.3984V39.9984C49.6004 39.0437 49.2211 38.128 48.546 37.4529C47.8708 36.7777 46.9552 36.3984 46.0004 36.3984ZM41.2004 45.9984C41.2004 46.3167 41.074 46.6219 40.8489 46.847C40.6239 47.072 40.3187 47.1984 40.0004 47.1984C39.6821 47.1984 39.3769 47.072 39.1519 46.847C38.9268 46.6219 38.8004 46.3167 38.8004 45.9984V42.3984C38.8004 42.0802 38.9268 41.775 39.1519 41.5499C39.3769 41.3249 39.6821 41.1984 40.0004 41.1984C40.3187 41.1984 40.6239 41.3249 40.8489 41.5499C41.074 41.775 41.2004 42.0802 41.2004 42.3984V45.9984Z" fill="white"/>
<defs>
<linearGradient id="paint0_linear_4562_74514" x1="36.8889" y1="16" x2="60.3608" y2="82.0692" gradientUnits="userSpaceOnUse">
<stop stop-color="#A8C4FF"/>
<stop offset="1" stop-color="#4A81F7"/>
</linearGradient>
<linearGradient id="paint1_linear_4562_74514" x1="28.8889" y1="11.5" x2="76.5515" y2="47.6883" gradientUnits="userSpaceOnUse">
<stop stop-color="#B0D0FA"/>
<stop offset="1" stop-color="#99C4FB"/>
</linearGradient>
</defs>
</svg>
