<svg width="80" height="80" viewBox="0 0 80 80" fill="none" xmlns="http://www.w3.org/2000/svg">
<g filter="url(#filter0_d_5061_66269)">
<rect x="22" y="20" width="36" height="40" rx="4" fill="url(#paint0_linear_5061_66269)"/>
<rect x="22" y="20" width="36" height="40" rx="4" fill="url(#paint1_radial_5061_66269)" fill-opacity="0.5"/>
<rect x="22" y="20" width="36" height="40" rx="4" fill="url(#paint2_linear_5061_66269)"/>
<rect x="22.25" y="20.25" width="35.5" height="39.5" rx="3.75" stroke="url(#paint3_linear_5061_66269)" stroke-width="0.5"/>
</g>
<path d="M28 46H42" stroke="white" stroke-opacity="0.6" stroke-width="2" stroke-linecap="round"/>
<path d="M28 52H42" stroke="white" stroke-opacity="0.6" stroke-width="2" stroke-linecap="round"/>
<path d="M43.0042 28.0779C41.5838 28.3219 40.4985 29.952 40.4985 29.952C40.4985 29.952 39.4081 28.3219 37.9927 28.0779C34.4866 27.4776 33.0412 30.4743 33.6264 32.7047C34.4916 35.9991 38.6529 38.9519 40.0433 39.8645C40.3184 40.0452 40.6785 40.0452 40.9586 39.8645C42.354 38.9519 46.5152 35.9991 47.3755 32.7047C47.9557 30.4743 46.5102 27.4776 43.0042 28.0779Z" fill="white"/>
<circle cx="56" cy="56" r="10" fill="url(#paint4_linear_5061_66269)"/>
<path d="M52.5 52.5L59.5 59.5M52.5 59.5L59.5 52.5" stroke="white" stroke-width="2" stroke-linecap="round" stroke-linejoin="round"/>
<defs>
<filter id="filter0_d_5061_66269" x="14" y="12" width="52" height="56" filterUnits="userSpaceOnUse" color-interpolation-filters="sRGB">
<feFlood flood-opacity="0" result="BackgroundImageFix"/>
<feColorMatrix in="SourceAlpha" type="matrix" values="0 0 0 0 0 0 0 0 0 0 0 0 0 0 0 0 0 0 127 0" result="hardAlpha"/>
<feOffset/>
<feGaussianBlur stdDeviation="4"/>
<feComposite in2="hardAlpha" operator="out"/>
<feColorMatrix type="matrix" values="0 0 0 0 0.478431 0 0 0 0 0.701961 0 0 0 0 0.976471 0 0 0 0.16 0"/>
<feBlend mode="normal" in2="BackgroundImageFix" result="effect1_dropShadow_5061_66269"/>
<feBlend mode="normal" in="SourceGraphic" in2="effect1_dropShadow_5061_66269" result="shape"/>
</filter>
<linearGradient id="paint0_linear_5061_66269" x1="22" y1="55.2174" x2="63.0789" y2="42.5259" gradientUnits="userSpaceOnUse">
<stop stop-color="#CFE4FE"/>
<stop offset="1" stop-color="#85BDFC"/>
</linearGradient>
<radialGradient id="paint1_radial_5061_66269" cx="0" cy="0" r="1" gradientTransform="matrix(3.39623 25.625 -23.0625 10.3516 36.2641 10.625)" gradientUnits="userSpaceOnUse">
<stop stop-color="white"/>
<stop offset="1" stop-color="white"/>
</radialGradient>
<linearGradient id="paint2_linear_5061_66269" x1="37.6667" y1="20" x2="69.8" y2="84.2667" gradientUnits="userSpaceOnUse">
<stop stop-color="#A8C4FF"/>
<stop offset="1" stop-color="#4A81F7"/>
</linearGradient>
<linearGradient id="paint3_linear_5061_66269" x1="31.6667" y1="16.25" x2="70.0827" y2="42.5009" gradientUnits="userSpaceOnUse">
<stop stop-color="#B0D0FA"/>
<stop offset="1" stop-color="#99C4FB"/>
</linearGradient>
<linearGradient id="paint4_linear_5061_66269" x1="50.8" y1="44.2353" x2="67.5197" y2="62.5471" gradientUnits="userSpaceOnUse">
<stop stop-color="#D0B8FF"/>
<stop offset="1" stop-color="#9B7AFF"/>
</linearGradient>
</defs>
</svg>
