<svg width="80" height="80" viewBox="0 0 80 80" fill="none" xmlns="http://www.w3.org/2000/svg">
<path d="M39.5 16.5C33.701 16.5 29 21.201 29 27V28.5C29 29.6046 29.8954 30.5 31 30.5C32.1046 30.5 33 29.6046 33 28.5V27C33 23.4101 35.9101 20.5 39.5 20.5C43.0899 20.5 46 23.4101 46 27V40.5H50V27C50 21.201 45.299 16.5 39.5 16.5Z" fill="#4E7AD9"/>
<path d="M51 35C54.3137 35 57 37.6863 57 41V57C57 60.3137 54.3137 63 51 63H28C24.6863 63 22 60.3137 22 57V41C22 37.6863 24.6863 35 28 35H51ZM39 44C37.8954 44 37 44.8954 37 46V53C37 54.1046 37.8954 55 39 55C40.1046 55 41 54.1046 41 53V46C41 44.8954 40.1046 44 39 44Z" fill="url(#paint0_linear_5041_55581)"/>
<g clip-path="url(#clip0_5041_55581)">
<circle cx="55" cy="56" r="10" fill="url(#paint1_linear_5041_55581)"/>
<path d="M50.5 55.5L54 59L60 53" stroke="white" stroke-width="2" stroke-linecap="round" stroke-linejoin="round"/>
</g>
<defs>
<linearGradient id="paint0_linear_5041_55581" x1="29" y1="35" x2="50.9115" y2="70.6764" gradientUnits="userSpaceOnUse">
<stop stop-color="#A8C4FF"/>
<stop offset="1" stop-color="#4A81F7"/>
</linearGradient>
<linearGradient id="paint1_linear_5041_55581" x1="49.8" y1="44.2353" x2="67.3775" y2="63.2711" gradientUnits="userSpaceOnUse">
<stop stop-color="#D0B8FF"/>
<stop offset="1" stop-color="#9B7AFF"/>
</linearGradient>
<clipPath id="clip0_5041_55581">
<rect width="20" height="20" fill="white" transform="translate(45 46)"/>
</clipPath>
</defs>
</svg>
