<svg width="80" height="80" viewBox="0 0 80 80" fill="none" xmlns="http://www.w3.org/2000/svg">
<g filter="url(#filter0_d_5061_119028)">
<rect x="22" y="20" width="36" height="40" rx="4" fill="url(#paint0_linear_5061_119028)"/>
<rect x="22" y="20" width="36" height="40" rx="4" fill="url(#paint1_radial_5061_119028)" fill-opacity="0.5"/>
<rect x="22" y="20" width="36" height="40" rx="4" fill="url(#paint2_linear_5061_119028)"/>
<rect x="22.25" y="20.25" width="35.5" height="39.5" rx="3.75" stroke="url(#paint3_linear_5061_119028)" stroke-width="0.5"/>
</g>
<path d="M28 46H42" stroke="white" stroke-opacity="0.6" stroke-width="2" stroke-linecap="round"/>
<path d="M28 52H42" stroke="white" stroke-opacity="0.6" stroke-width="2" stroke-linecap="round"/>
<path fill-rule="evenodd" clip-rule="evenodd" d="M47.0607 28.4393C47.6464 29.0251 47.6464 29.9749 47.0607 30.5607L39.0607 38.5607C38.4749 39.1464 37.5251 39.1464 36.9393 38.5607L32.9393 34.5607C32.3536 33.9749 32.3536 33.0251 32.9393 32.4393C33.5251 31.8536 34.4749 31.8536 35.0607 32.4393L38 35.3787L44.9393 28.4393C45.5251 27.8536 46.4749 27.8536 47.0607 28.4393Z" fill="white"/>
<circle cx="56" cy="56" r="10" fill="url(#paint4_linear_5061_119028)"/>
<path d="M52.5 52.5L59.5 59.5M52.5 59.5L59.5 52.5" stroke="white" stroke-width="2" stroke-linecap="round" stroke-linejoin="round"/>
<defs>
<filter id="filter0_d_5061_119028" x="14" y="12" width="52" height="56" filterUnits="userSpaceOnUse" color-interpolation-filters="sRGB">
<feFlood flood-opacity="0" result="BackgroundImageFix"/>
<feColorMatrix in="SourceAlpha" type="matrix" values="0 0 0 0 0 0 0 0 0 0 0 0 0 0 0 0 0 0 127 0" result="hardAlpha"/>
<feOffset/>
<feGaussianBlur stdDeviation="4"/>
<feComposite in2="hardAlpha" operator="out"/>
<feColorMatrix type="matrix" values="0 0 0 0 0.478431 0 0 0 0 0.701961 0 0 0 0 0.976471 0 0 0 0.16 0"/>
<feBlend mode="normal" in2="BackgroundImageFix" result="effect1_dropShadow_5061_119028"/>
<feBlend mode="normal" in="SourceGraphic" in2="effect1_dropShadow_5061_119028" result="shape"/>
</filter>
<linearGradient id="paint0_linear_5061_119028" x1="22" y1="55.2174" x2="63.0789" y2="42.5259" gradientUnits="userSpaceOnUse">
<stop stop-color="#CFE4FE"/>
<stop offset="1" stop-color="#85BDFC"/>
</linearGradient>
<radialGradient id="paint1_radial_5061_119028" cx="0" cy="0" r="1" gradientTransform="matrix(3.39623 25.625 -23.0625 10.3516 36.2641 10.625)" gradientUnits="userSpaceOnUse">
<stop stop-color="white"/>
<stop offset="1" stop-color="white"/>
</radialGradient>
<linearGradient id="paint2_linear_5061_119028" x1="37.6667" y1="20" x2="69.8" y2="84.2667" gradientUnits="userSpaceOnUse">
<stop stop-color="#A8C4FF"/>
<stop offset="1" stop-color="#4A81F7"/>
</linearGradient>
<linearGradient id="paint3_linear_5061_119028" x1="31.6667" y1="16.25" x2="70.0827" y2="42.5009" gradientUnits="userSpaceOnUse">
<stop stop-color="#B0D0FA"/>
<stop offset="1" stop-color="#99C4FB"/>
</linearGradient>
<linearGradient id="paint4_linear_5061_119028" x1="50.8" y1="44.2353" x2="67.5197" y2="62.5471" gradientUnits="userSpaceOnUse">
<stop stop-color="#D0B8FF"/>
<stop offset="1" stop-color="#9B7AFF"/>
</linearGradient>
</defs>
</svg>
