<svg width="80" height="80" viewBox="0 0 80 80" fill="none" xmlns="http://www.w3.org/2000/svg">
<g filter="url(#filter0_d_5061_112639)">
<rect x="24" y="20" width="32" height="40" rx="4" fill="url(#paint0_linear_5061_112639)"/>
<rect x="24" y="20" width="32" height="40" rx="4" fill="url(#paint1_radial_5061_112639)" fill-opacity="0.5"/>
<rect x="24" y="20" width="32" height="40" rx="4" fill="url(#paint2_linear_5061_112639)"/>
<rect x="24.25" y="20.25" width="31.5" height="39.5" rx="3.75" stroke="url(#paint3_linear_5061_112639)" stroke-width="0.5"/>
</g>
<g filter="url(#filter1_i_5061_112639)">
<path d="M36.4286 50H43.5714C43.9503 50 44.3137 50.1505 44.5816 50.4184C44.8495 50.6863 45 51.0497 45 51.4286V60H35V51.4286C35 51.0497 35.1505 50.6863 35.4184 50.4184C35.6863 50.1505 36.0497 50 36.4286 50Z" fill="#4E7AD9"/>
</g>
<rect x="33" y="30" width="14" height="4" rx="1" fill="white"/>
<rect x="33" y="38" width="14" height="4" rx="1" fill="white"/>
<circle cx="56" cy="56" r="10" fill="url(#paint4_linear_5061_112639)"/>
<path d="M52.5 52.5L59.5 59.5M52.5 59.5L59.5 52.5" stroke="white" stroke-width="2" stroke-linecap="round" stroke-linejoin="round"/>
<defs>
<filter id="filter0_d_5061_112639" x="16" y="12" width="48" height="56" filterUnits="userSpaceOnUse" color-interpolation-filters="sRGB">
<feFlood flood-opacity="0" result="BackgroundImageFix"/>
<feColorMatrix in="SourceAlpha" type="matrix" values="0 0 0 0 0 0 0 0 0 0 0 0 0 0 0 0 0 0 127 0" result="hardAlpha"/>
<feOffset/>
<feGaussianBlur stdDeviation="4"/>
<feComposite in2="hardAlpha" operator="out"/>
<feColorMatrix type="matrix" values="0 0 0 0 0.478431 0 0 0 0 0.701961 0 0 0 0 0.976471 0 0 0 0.16 0"/>
<feBlend mode="normal" in2="BackgroundImageFix" result="effect1_dropShadow_5061_112639"/>
<feBlend mode="normal" in="SourceGraphic" in2="effect1_dropShadow_5061_112639" result="shape"/>
</filter>
<filter id="filter1_i_5061_112639" x="35" y="50" width="10.2" height="10.2" filterUnits="userSpaceOnUse" color-interpolation-filters="sRGB">
<feFlood flood-opacity="0" result="BackgroundImageFix"/>
<feBlend mode="normal" in="SourceGraphic" in2="BackgroundImageFix" result="shape"/>
<feColorMatrix in="SourceAlpha" type="matrix" values="0 0 0 0 0 0 0 0 0 0 0 0 0 0 0 0 0 0 127 0" result="hardAlpha"/>
<feOffset dx="0.2" dy="0.2"/>
<feGaussianBlur stdDeviation="0.5"/>
<feComposite in2="hardAlpha" operator="arithmetic" k2="-1" k3="1"/>
<feColorMatrix type="matrix" values="0 0 0 0 0 0 0 0 0 0 0 0 0 0 0 0 0 0 0.16 0"/>
<feBlend mode="normal" in2="shape" result="effect1_innerShadow_5061_112639"/>
</filter>
<linearGradient id="paint0_linear_5061_112639" x1="24" y1="55.2174" x2="61.1948" y2="45.0027" gradientUnits="userSpaceOnUse">
<stop stop-color="#CFE4FE"/>
<stop offset="1" stop-color="#85BDFC"/>
</linearGradient>
<radialGradient id="paint1_radial_5061_112639" cx="0" cy="0" r="1" gradientTransform="matrix(3.01887 25.625 -20.5 10.3516 36.6792 10.625)" gradientUnits="userSpaceOnUse">
<stop stop-color="white"/>
<stop offset="1" stop-color="white"/>
</radialGradient>
<linearGradient id="paint2_linear_5061_112639" x1="37.9259" y1="20" x2="72.2523" y2="81.0247" gradientUnits="userSpaceOnUse">
<stop stop-color="#A8C4FF"/>
<stop offset="1" stop-color="#4A81F7"/>
</linearGradient>
<linearGradient id="paint3_linear_5061_112639" x1="32.5926" y1="16.25" x2="69.1847" y2="38.4763" gradientUnits="userSpaceOnUse">
<stop stop-color="#B0D0FA"/>
<stop offset="1" stop-color="#99C4FB"/>
</linearGradient>
<linearGradient id="paint4_linear_5061_112639" x1="50.8" y1="44.2353" x2="67.5197" y2="62.5471" gradientUnits="userSpaceOnUse">
<stop stop-color="#D0B8FF"/>
<stop offset="1" stop-color="#9B7AFF"/>
</linearGradient>
</defs>
</svg>
