<svg width="48" height="48" viewBox="0 0 48 48" fill="none" xmlns="http://www.w3.org/2000/svg">
<g clip-path="url(#clip0_2506_23469)">
<g clip-path="url(#clip1_2506_23469)">
<rect x="24" y="18.0018" width="18" height="26" rx="5" fill="#D8E0FF"/>
<rect x="34" y="23.0018" width="4" height="4" fill="white"/>
</g>
<g clip-path="url(#clip2_2506_23469)">
<path d="M4 9.00085C4 6.23943 6.23858 4.00085 9 4.00085H27C29.7614 4.00085 32 6.23943 32 9.00085V44.0009H9C6.23858 44.0009 4 41.7623 4 39.0009V9.00085Z" fill="url(#paint0_linear_2506_23469)"/>
<path d="M14 37.0009C14 34.7917 15.7909 33.0009 18 33.0009C20.2091 33.0009 22 34.7917 22 37.0009V44.0009H14V37.0009Z" fill="#F0F4FF"/>
<path d="M12 14.0009H24V16.0009H12V14.0009Z" fill="white"/>
<rect x="12" y="19.0009" width="12" height="2" fill="white"/>
<rect x="12" y="24.0009" width="12" height="2" fill="white"/>
</g>
</g>
<path d="M39 48C43.9706 48 48 43.9706 48 39C48 34.0294 43.9706 30 39 30C34.0294 30 30 34.0294 30 39C30 43.9706 34.0294 48 39 48Z" fill="#75757A"/>
<path d="M38.9998 40.671L40.9823 42.6531C41.0921 42.7629 41.2224 42.85 41.3658 42.9094C41.5092 42.9688 41.6628 42.9993 41.8181 42.9993C41.9733 42.9993 42.127 42.9688 42.2704 42.9094C42.4138 42.85 42.5441 42.7629 42.6538 42.6531C42.7636 42.5434 42.8506 42.4131 42.91 42.2697C42.9694 42.1263 43 41.9726 43 41.8174C43 41.6622 42.9694 41.5085 42.91 41.3651C42.8506 41.2217 42.7636 41.0914 42.6538 40.9816L40.6717 38.9995L42.6538 37.017C42.8755 36.7954 43 36.4947 43 36.1813C43 35.8678 42.8755 35.5672 42.6538 35.3455C42.4322 35.1239 42.1315 34.9993 41.8181 34.9993C41.5046 34.9993 41.204 35.1239 40.9823 35.3455L38.9998 37.3276L37.0177 35.3455C36.9079 35.2358 36.7776 35.1487 36.6342 35.0893C36.4908 35.0299 36.3372 34.9993 36.1819 34.9993C36.0267 34.9993 35.873 35.0299 35.7296 35.0893C35.5862 35.1487 35.4559 35.2358 35.3462 35.3455C35.2364 35.4553 35.1494 35.5856 35.09 35.729C35.0306 35.8724 35 36.0261 35 36.1813C35 36.3365 35.0306 36.4902 35.09 36.6336C35.1494 36.777 35.2364 36.9073 35.3462 37.017L37.3283 38.9995L35.3462 40.9816C35.1245 41.2033 35 41.5039 35 41.8174C35 42.1309 35.1245 42.4315 35.3462 42.6531C35.5678 42.8748 35.8685 42.9993 36.1819 42.9993C36.4954 42.9993 36.796 42.8748 37.0177 42.6531L38.9998 40.671Z" fill="white"/>
<defs>
<linearGradient id="paint0_linear_2506_23469" x1="9.5" y1="11.7281" x2="18.2017" y2="54.3923" gradientUnits="userSpaceOnUse">
<stop stop-color="#BAC7FF"/>
<stop offset="1" stop-color="#7D98FF"/>
</linearGradient>
<clipPath id="clip0_2506_23469">
<rect width="38" height="40" fill="white" transform="translate(4 4)"/>
</clipPath>
<clipPath id="clip1_2506_23469">
<rect width="18" height="26" fill="white" transform="translate(24 18.0018)"/>
</clipPath>
<clipPath id="clip2_2506_23469">
<rect width="28" height="40" fill="white" transform="translate(4 4.00085)"/>
</clipPath>
</defs>
</svg>
