<svg width="80" height="80" viewBox="0 0 80 80" fill="none" xmlns="http://www.w3.org/2000/svg">
<g filter="url(#filter0_d_4562_74523)">
<rect x="24" y="20" width="32" height="40" rx="4" fill="url(#paint0_linear_4562_74523)"/>
<rect x="24" y="20" width="32" height="40" rx="4" fill="url(#paint1_radial_4562_74523)" fill-opacity="0.5"/>
<rect x="24" y="20" width="32" height="40" rx="4" fill="url(#paint2_linear_4562_74523)"/>
<rect x="24.25" y="20.25" width="31.5" height="39.5" rx="3.75" stroke="url(#paint3_linear_4562_74523)" stroke-width="0.5"/>
</g>
<g clip-path="url(#clip0_4562_74523)">
<circle cx="56" cy="56" r="10" fill="url(#paint4_linear_4562_74523)"/>
<path d="M51.9126 51.5874C53.7974 49.7026 56.8354 49.6851 58.6985 51.548C60.3539 53.2034 60.5231 55.7852 59.2185 57.6627L60.942 59.3863C61.3717 59.8162 61.3678 60.5168 60.9331 60.9517C60.4982 61.3866 59.7969 61.3911 59.3669 60.9614L57.5633 59.1577C55.7359 60.165 53.4068 59.9068 51.8733 58.3733C50.0104 56.5102 50.028 53.4721 51.9126 51.5874ZM53.4698 53.1445C52.4551 54.1594 52.4454 55.795 53.4484 56.7982C54.4515 57.8013 56.0878 57.7922 57.1027 56.7774C58.1176 55.7625 58.1266 54.1263 57.1234 53.1231C56.1201 52.1201 54.4846 52.1297 53.4698 53.1445Z" fill="white"/>
</g>
<g filter="url(#filter1_i_4562_74523)">
<path d="M36.4286 50H43.5714C43.9503 50 44.3137 50.1505 44.5816 50.4184C44.8495 50.6863 45 51.0497 45 51.4286V60H35V51.4286C35 51.0497 35.1505 50.6863 35.4184 50.4184C35.6863 50.1505 36.0497 50 36.4286 50Z" fill="#4E7AD9"/>
</g>
<rect x="33" y="30" width="14" height="4" rx="1" fill="white"/>
<rect x="33" y="38" width="14" height="4" rx="1" fill="white"/>
<defs>
<filter id="filter0_d_4562_74523" x="16" y="12" width="48" height="56" filterUnits="userSpaceOnUse" color-interpolation-filters="sRGB">
<feFlood flood-opacity="0" result="BackgroundImageFix"/>
<feColorMatrix in="SourceAlpha" type="matrix" values="0 0 0 0 0 0 0 0 0 0 0 0 0 0 0 0 0 0 127 0" result="hardAlpha"/>
<feOffset/>
<feGaussianBlur stdDeviation="4"/>
<feComposite in2="hardAlpha" operator="out"/>
<feColorMatrix type="matrix" values="0 0 0 0 0.478431 0 0 0 0 0.701961 0 0 0 0 0.976471 0 0 0 0.16 0"/>
<feBlend mode="normal" in2="BackgroundImageFix" result="effect1_dropShadow_4562_74523"/>
<feBlend mode="normal" in="SourceGraphic" in2="effect1_dropShadow_4562_74523" result="shape"/>
</filter>
<filter id="filter1_i_4562_74523" x="35" y="50" width="10.2" height="10.2" filterUnits="userSpaceOnUse" color-interpolation-filters="sRGB">
<feFlood flood-opacity="0" result="BackgroundImageFix"/>
<feBlend mode="normal" in="SourceGraphic" in2="BackgroundImageFix" result="shape"/>
<feColorMatrix in="SourceAlpha" type="matrix" values="0 0 0 0 0 0 0 0 0 0 0 0 0 0 0 0 0 0 127 0" result="hardAlpha"/>
<feOffset dx="0.2" dy="0.2"/>
<feGaussianBlur stdDeviation="0.5"/>
<feComposite in2="hardAlpha" operator="arithmetic" k2="-1" k3="1"/>
<feColorMatrix type="matrix" values="0 0 0 0 0 0 0 0 0 0 0 0 0 0 0 0 0 0 0.16 0"/>
<feBlend mode="normal" in2="shape" result="effect1_innerShadow_4562_74523"/>
</filter>
<linearGradient id="paint0_linear_4562_74523" x1="24" y1="55.2174" x2="61.1948" y2="45.0027" gradientUnits="userSpaceOnUse">
<stop stop-color="#CFE4FE"/>
<stop offset="1" stop-color="#85BDFC"/>
</linearGradient>
<radialGradient id="paint1_radial_4562_74523" cx="0" cy="0" r="1" gradientTransform="matrix(3.01887 25.625 -20.5 10.3516 36.6792 10.625)" gradientUnits="userSpaceOnUse">
<stop stop-color="white"/>
<stop offset="1" stop-color="white"/>
</radialGradient>
<linearGradient id="paint2_linear_4562_74523" x1="37.9259" y1="20" x2="72.2523" y2="81.0247" gradientUnits="userSpaceOnUse">
<stop stop-color="#A8C4FF"/>
<stop offset="1" stop-color="#4A81F7"/>
</linearGradient>
<linearGradient id="paint3_linear_4562_74523" x1="32.5926" y1="16.25" x2="69.1847" y2="38.4763" gradientUnits="userSpaceOnUse">
<stop stop-color="#B0D0FA"/>
<stop offset="1" stop-color="#99C4FB"/>
</linearGradient>
<linearGradient id="paint4_linear_4562_74523" x1="50.8" y1="44.2353" x2="68.3775" y2="63.2711" gradientUnits="userSpaceOnUse">
<stop stop-color="#D0B8FF"/>
<stop offset="1" stop-color="#9B7AFF"/>
</linearGradient>
<clipPath id="clip0_4562_74523">
<rect width="20" height="20" fill="white" transform="translate(46 46)"/>
</clipPath>
</defs>
</svg>
