<svg width="80" height="80" viewBox="0 0 80 80" fill="none" xmlns="http://www.w3.org/2000/svg">
<rect width="80" height="80" rx="40" fill="#F7F7F7"/>
<rect x="25" y="25.0012" width="30" height="32.5" rx="3" fill="#DADDE0"/>
<path d="M44.1667 24.3767H42.303C42.194 23.8464 41.9053 23.3699 41.4857 23.0278C41.0661 22.6856 40.5413 22.4988 39.9999 22.4988C39.4584 22.4988 38.9336 22.6856 38.514 23.0278C38.0944 23.3699 37.8057 23.8464 37.6967 24.3767H35.833C35.2678 24.3912 34.7313 24.6289 34.341 25.038C33.9507 25.447 33.7384 25.994 33.7505 26.5592V27.4967H46.2505V26.5592C46.2626 25.9938 46.0501 25.4466 45.6595 25.0375C45.2689 24.6284 44.7321 24.3908 44.1667 24.3767ZM40.0005 25.6267C39.8758 25.6327 39.7521 25.6012 39.6455 25.5363C39.5388 25.4714 39.4541 25.376 39.4021 25.2624C39.3502 25.1489 39.3334 25.0224 39.3541 24.8993C39.3747 24.7761 39.4317 24.6619 39.5178 24.5715C39.6039 24.4811 39.7151 24.4185 39.8371 24.3919C39.9591 24.3652 40.0862 24.3757 40.2022 24.422C40.3182 24.4683 40.4176 24.5483 40.4877 24.6516C40.5578 24.7549 40.5953 24.8769 40.5955 25.0017C40.5992 25.1634 40.5386 25.32 40.4271 25.4372C40.3156 25.5543 40.1622 25.6225 40.0005 25.6267Z" fill="#C2C6CB"/>
<path d="M33.4363 51.2488C33.1876 51.2488 32.9492 51.1499 32.7734 50.9741C32.5975 50.7983 32.4988 50.5599 32.4988 50.3113C32.4988 50.0626 32.5975 49.8243 32.7734 49.6484C32.9492 49.4726 33.1876 49.3738 33.4363 49.3738H46.5613C46.8099 49.3738 47.0484 49.4726 47.2242 49.6484C47.4 49.8243 47.4988 50.0626 47.4988 50.3113C47.4988 50.5599 47.4 50.7983 47.2242 50.9741C47.0484 51.1499 46.8099 51.2488 46.5613 51.2488H33.4363ZM33.4363 46.8738C33.1876 46.8738 32.9492 46.7749 32.7734 46.5991C32.5975 46.4233 32.4988 46.1849 32.4988 45.9363C32.4988 45.6876 32.5975 45.4493 32.7734 45.2734C32.9492 45.0976 33.1876 44.9988 33.4363 44.9988H46.5613C46.8099 44.9988 47.0484 45.0976 47.2242 45.2734C47.4 45.4493 47.4988 45.6876 47.4988 45.9363C47.4988 46.1849 47.4 46.4233 47.2242 46.5991C47.0484 46.7749 46.8099 46.8738 46.5613 46.8738H33.4363Z" fill="white" fill-opacity="0.7"/>
<path d="M40.0012 42.5037C38.6751 42.5037 37.4034 41.9777 36.4657 41.04C35.528 40.1024 35.0012 38.8297 35.0012 37.5037C35.0012 36.1776 35.528 34.9062 36.4657 33.9685C37.4034 33.0308 38.6751 32.5037 40.0012 32.5037V37.5037H45.0012C44.9989 38.829 44.4714 40.1004 43.5342 41.0376C42.597 41.9748 41.3266 42.5013 40.0012 42.5037Z" fill="white" fill-opacity="0.7"/>
<path d="M45.9375 36.5613H40.9375V31.5613C42.2629 31.5636 43.5333 32.0914 44.4705 33.0286C45.4077 33.9657 45.9352 35.2359 45.9375 36.5613Z" fill="white"/>
</svg>
