<svg width="24" height="24" viewBox="0 0 24 24" fill="none" xmlns="http://www.w3.org/2000/svg">
<path fill-rule="evenodd" clip-rule="evenodd" d="M9.5 13.375C11.0118 13.375 12.273 14.4486 12.5625 15.875H20C20.3452 15.875 20.625 16.1548 20.625 16.5C20.625 16.8452 20.3452 17.125 20 17.125H12.5625C12.273 18.5514 11.0118 19.625 9.5 19.625C7.98815 19.625 6.72704 18.5514 6.4375 17.125H4C3.65482 17.125 3.375 16.8452 3.375 16.5C3.375 16.1548 3.65482 15.875 4 15.875H6.4375C6.72704 14.4486 7.98815 13.375 9.5 13.375ZM9.5 14.625C8.46447 14.625 7.625 15.4645 7.625 16.5C7.625 17.5355 8.46447 18.375 9.5 18.375C10.5355 18.375 11.375 17.5355 11.375 16.5C11.375 15.4645 10.5355 14.625 9.5 14.625Z" fill="#4F4F55"/>
<path fill-rule="evenodd" clip-rule="evenodd" d="M14.5 4.375C16.0118 4.375 17.273 5.4486 17.5625 6.875H20C20.3452 6.875 20.625 7.15482 20.625 7.5C20.625 7.84518 20.3452 8.125 20 8.125H17.5625C17.273 9.5514 16.0118 10.625 14.5 10.625C12.9882 10.625 11.727 9.5514 11.4375 8.125H4C3.65482 8.125 3.375 7.84518 3.375 7.5C3.375 7.15482 3.65482 6.875 4 6.875H11.4375C11.727 5.4486 12.9882 4.375 14.5 4.375ZM14.5 5.625C13.4645 5.625 12.625 6.46447 12.625 7.5C12.625 8.53553 13.4645 9.375 14.5 9.375C15.5355 9.375 16.375 8.53553 16.375 7.5C16.375 6.46447 15.5355 5.625 14.5 5.625Z" fill="#4F4F55"/>
</svg>
