<svg width="15" height="15" viewBox="0 0 15 15" fill="none" xmlns="http://www.w3.org/2000/svg">
<path fill-rule="evenodd" clip-rule="evenodd" d="M7.74305 1.33942C7.60296 1.22019 7.39706 1.22019 7.25696 1.33942L1.38196 6.33942C1.22424 6.47365 1.2052 6.71032 1.33943 6.86804C1.47366 7.02576 1.71033 7.04481 1.86805 6.91058L1.875 6.90466V11.25C1.875 12.2855 2.71439 13.125 3.74994 13.125H5.3125C5.86478 13.125 6.3125 12.6773 6.3125 12.125V10.0624C6.3125 9.4066 6.84416 8.87494 7.5 8.87494C8.15584 8.87494 8.6875 9.4066 8.6875 10.0624V12.125C8.6875 12.6773 9.13522 13.125 9.6875 13.125H11.25C12.2855 13.125 13.125 12.2855 13.125 11.25V6.90465L13.132 6.91058C13.2897 7.04481 13.5264 7.02576 13.6606 6.86804C13.7948 6.71032 13.7758 6.47365 13.6181 6.33942L7.74305 1.33942ZM12.375 6.26635L7.50001 2.11742L2.625 6.26637V11.25C2.625 11.8713 3.12864 12.375 3.74994 12.375H5.3125C5.45057 12.375 5.5625 12.2631 5.5625 12.125V10.0624C5.5625 8.99239 6.42995 8.12494 7.5 8.12494C8.57005 8.12494 9.4375 8.99239 9.4375 10.0624V12.125C9.4375 12.2631 9.54943 12.375 9.6875 12.375H11.25C11.8713 12.375 12.375 11.8713 12.375 11.25V6.26635Z" fill="#5B5C5B"/>
</svg>
