<svg width="14" height="14" viewBox="0 0 14 14" fill="none" xmlns="http://www.w3.org/2000/svg">
<g id="icon/info">
<g id="comment-info (1)">
<path id="Shape" fill-rule="evenodd" clip-rule="evenodd" d="M13.9995 7.1984V11.083C13.9975 12.6929 12.693 13.9975 11.0831 13.9994H7.63187C3.54838 13.9994 0.275628 11.2044 0.0178211 7.49821C-0.126729 5.47519 0.613336 3.48894 2.0464 2.05375C3.47946 0.61855 5.46459 -0.124464 7.4878 0.0170887C11.2041 0.336076 14.0446 3.46867 13.9995 7.1984ZM7.00019 4.66698C7.48339 4.66698 7.8751 4.27526 7.8751 3.79206C7.8751 3.30886 7.48339 2.91714 7.00019 2.91714C6.51699 2.91714 6.12528 3.30886 6.12528 3.79206C6.12528 4.27526 6.51699 4.66698 7.00019 4.66698ZM7.40848 1.18131C10.5138 1.45602 12.8805 4.08127 12.8329 7.1984V11.083C12.8329 12.0494 12.0495 12.8329 11.0831 12.8329H7.63187C4.1124 12.8329 1.40076 10.5581 1.18203 7.41771C1.06596 5.80068 1.62811 4.20829 2.73364 3.02253C3.83918 1.83676 5.38834 1.16461 7.00952 1.16731C7.14192 1.16731 7.27549 1.17256 7.40848 1.18131ZM8.16673 7.00009V10.4998C8.16673 10.8219 7.90559 11.083 7.58346 11.083C7.26133 11.083 7.00019 10.8219 7.00019 10.4998V7.00009H6.41691C6.09478 7.00009 5.83364 6.73895 5.83364 6.41681C5.83364 6.09467 6.09478 5.83353 6.41691 5.83353H7.00019C7.64445 5.83353 8.16673 6.35582 8.16673 7.00009Z" fill="#333333"/>
</g>
</g>
</svg>
