<svg width="20" height="20" viewBox="0 0 20 20" fill="none" xmlns="http://www.w3.org/2000/svg">
<path d="M0 19.0007V11.5079C0 11.1879 0.153191 10.8887 0.412086 10.7005L6.86972 6.00718C7.27066 5.71579 7.82456 5.76205 8.1716 6.11592L10.3333 8.3202C10.7067 8.70091 11.3131 8.72169 11.7116 8.36742L18.3356 2.47943C18.9805 1.90619 20 2.364 20 3.22684V19C20 19.5523 19.558 20 19.0057 20H0.995817C0.443533 20 0 19.5529 0 19.0007Z" fill="#D8E0FF"/>
<path d="M18.9116 0H15.0658C14.5215 0 14.0499 0.423529 14.0499 0.988235C14.0499 1.55294 14.4853 1.97647 15.0658 1.97647H16.4807L11.0023 7.27059L7.91837 4.27059C7.55556 3.91765 6.86621 3.91765 6.5034 4.27059L0.29932 10.3412C-0.0997732 10.7294 -0.0997732 11.3294 0.29932 11.7176C0.480726 11.8941 0.770975 12 1.02494 12C1.27891 12 1.53288 11.8941 1.75057 11.7176L7.26531 6.35294L10.3492 9.35294C10.7483 9.74118 11.3651 9.74118 11.7642 9.35294L17.9683 3.31765V4.69412C17.9683 5.22353 18.4036 5.68235 18.9841 5.68235C19.5283 5.68235 20 5.25882 20 4.69412V0.952941C19.9274 0.423529 19.4558 0 18.9116 0Z" fill="#3B5DFB"/>
</svg>
