<svg width="20" height="20" viewBox="0 0 20 20" fill="none" xmlns="http://www.w3.org/2000/svg">
<path d="M17.7582 5.00018H14.5533C14.0998 5.00018 13.7068 5.35312 13.7068 5.82371C13.7068 6.2943 14.0696 6.64724 14.5533 6.64724H15.7325L11.1671 11.059L8.59717 8.55901C8.29483 8.26489 7.72038 8.26489 7.41804 8.55901L2.24797 13.6178C1.91539 13.9414 1.91539 14.4414 2.24797 14.7649C2.39914 14.9119 2.64101 15.0002 2.85265 15.0002C3.06429 15.0002 3.27593 14.9119 3.45734 14.7649L8.05296 10.2943L10.6229 12.7943C10.9555 13.1178 11.4694 13.1178 11.802 12.7943L16.9721 7.76489V8.91195C16.9721 9.35312 17.3349 9.73548 17.8186 9.73548C18.2722 9.73548 18.6652 9.38254 18.6652 8.91195V5.7943C18.6047 5.35312 18.2117 5.00018 17.7582 5.00018Z" fill="#3B5DFB"/>
</svg>
