<svg width="32" height="32" viewBox="0 0 32 32" fill="none" xmlns="http://www.w3.org/2000/svg">
<path d="M12.4 8.71429C12.4 7.80497 12.7793 6.9329 13.4544 6.28992C14.1295 5.64694 15.0452 5.28571 16 5.28571C16.9548 5.28571 17.8705 5.64694 18.5456 6.28992C19.2207 6.9329 19.6 7.80497 19.6 8.71429V11H22V8.71429C22 7.19876 21.3679 5.74531 20.2426 4.67368C19.1174 3.60204 17.5913 3 16 3C14.4087 3 12.8826 3.60204 11.7574 4.67368C10.6321 5.74531 10 7.19876 10 8.71429V11H12.4V8.71429Z" fill="#E8E8EB"/>
<path d="M22.25 11H9.75C8.75544 11 7.80161 11.4133 7.09835 12.149C6.39509 12.8848 6 13.8826 6 14.9231V24.0769C6 25.1174 6.39509 26.1152 7.09835 26.851C7.80161 27.5867 8.75544 28 9.75 28H22.25C23.2446 28 24.1984 27.5867 24.9017 26.851C25.6049 26.1152 26 25.1174 26 24.0769V14.9231C26 13.8826 25.6049 12.8848 24.9017 12.149C24.1984 11.4133 23.2446 11 22.25 11ZM17.25 21.4615C17.25 21.8084 17.1183 22.141 16.8839 22.3862C16.6495 22.6315 16.3315 22.7692 16 22.7692C15.6685 22.7692 15.3505 22.6315 15.1161 22.3862C14.8817 22.141 14.75 21.8084 14.75 21.4615V17.5385C14.75 17.1916 14.8817 16.859 15.1161 16.6138C15.3505 16.3685 15.6685 16.2308 16 16.2308C16.3315 16.2308 16.6495 16.3685 16.8839 16.6138C17.1183 16.859 17.25 17.1916 17.25 17.5385V21.4615Z" fill="url(#paint0_linear_4562_95232)"/>
<defs>
<linearGradient id="paint0_linear_4562_95232" x1="23.5" y1="34.5" x2="6" y2="3" gradientUnits="userSpaceOnUse">
<stop stop-color="#B1B1B4"/>
<stop offset="1" stop-color="#D4D4D9"/>
</linearGradient>
</defs>
</svg>
