<svg width="18" height="18" viewBox="0 0 18 18" fill="none" xmlns="http://www.w3.org/2000/svg">
<path d="M17.1245 6.87906L14.2153 3.96981C13.921 3.68558 13.4533 3.68965 13.164 3.97895C12.8747 4.26825 12.8706 4.73603 13.1548 5.03031L16.0641 7.93956C16.1505 8.02771 16.226 8.12591 16.2891 8.23206C16.2778 8.23206 16.2688 8.22606 16.2576 8.22606L4.49462 8.25006C4.08041 8.25006 3.74463 8.58585 3.74463 9.00006C3.74463 9.41427 4.08041 9.75006 4.49462 9.75006L16.2531 9.72606C16.2741 9.72606 16.2913 9.71556 16.3116 9.71406C16.245 9.84093 16.1607 9.95762 16.0611 10.0606L13.1518 12.9698C12.9569 13.1581 12.8787 13.437 12.9473 13.6992C13.0159 13.9614 13.2207 14.1662 13.4829 14.2348C13.7452 14.3035 14.024 14.2253 14.2123 14.0303L17.1215 11.1211C18.2927 9.94956 18.2927 8.05056 17.1215 6.87906H17.1245Z" fill="white"/>
<path d="M5.2529 16.5H3.75291C2.51027 16.5 1.50292 15.4926 1.50292 14.25V3.75C1.50292 2.50736 2.51027 1.5 3.75291 1.5H5.2529C5.66711 1.5 6.00289 1.16421 6.00289 0.75C6.00289 0.335786 5.66711 8.7289e-09 5.2529 0H3.75291C1.68288 0.00247959 0.00540926 1.67996 0.00292969 3.75V14.25C0.00540926 16.32 1.68288 17.9975 3.75291 18H5.2529C5.66711 18 6.00289 17.6642 6.00289 17.25C6.00289 16.8358 5.66711 16.5 5.2529 16.5Z" fill="white"/>
</svg>
