<svg width="15" height="16" viewBox="0 0 15 16" fill="none" xmlns="http://www.w3.org/2000/svg">
<path d="M5.03369 8.50098L10.0462 8.50098" stroke="white" stroke-linecap="round"/>
<path d="M5.53516 11.0073L8.54265 11.0073" stroke="white" stroke-linecap="round"/>
<path d="M2.52734 4.38486C2.52734 3.54478 2.52734 3.12475 2.69083 2.80388C2.83464 2.52163 3.06411 2.29216 3.34636 2.14835C3.66723 1.98486 4.08727 1.98486 4.92734 1.98486H7.76226C8.10767 1.98486 8.28037 1.98486 8.44398 2.02192C8.58907 2.05478 8.72847 2.10905 8.8576 2.18294C9.0032 2.26625 9.13044 2.38302 9.38494 2.61656L11.775 4.80978C12.0613 5.07255 12.2045 5.20393 12.3072 5.36065C12.3981 5.49956 12.4654 5.6526 12.5062 5.81355C12.5523 5.99513 12.5523 6.18945 12.5523 6.57809V11.6148C12.5523 12.4549 12.5523 12.8749 12.3888 13.1958C12.245 13.4781 12.0155 13.7075 11.7333 13.8513C11.4124 14.0148 10.9924 14.0148 10.1523 14.0148H4.92734C4.08727 14.0148 3.66723 14.0148 3.34636 13.8513C3.06411 13.7075 2.83464 13.4781 2.69083 13.1958C2.52734 12.8749 2.52734 12.4549 2.52734 11.6148V4.38486Z" stroke="white"/>
<path d="M8.54248 1.98486V3.59485C8.54248 4.43493 8.54248 4.85497 8.70597 5.17584C8.84978 5.45808 9.07925 5.68755 9.36149 5.83136C9.68236 5.99485 10.1024 5.99485 10.9425 5.99485H12.5525" stroke="white"/>
</svg>
