<svg width="18" height="18" viewBox="0 0 18 18" fill="none" xmlns="http://www.w3.org/2000/svg">
<path d="M12.5625 6.6V5C12.5625 2.76 10.775 1 8.5 1C6.225 1 4.4375 2.76 4.4375 5V6.6C3.05625 6.6 2 7.64 2 9V14.6C2 15.96 3.05625 17 4.4375 17H12.5625C13.9438 17 15 15.96 15 14.6V9C15 7.64 13.9438 6.6 12.5625 6.6ZM6.0625 5C6.0625 3.64 7.11875 2.6 8.5 2.6C9.88125 2.6 10.9375 3.64 10.9375 5V6.6H6.0625V5ZM9.3125 13C9.3125 13.48 8.9875 13.8 8.5 13.8C8.0125 13.8 7.6875 13.48 7.6875 13V10.6C7.6875 10.12 8.0125 9.8 8.5 9.8C8.9875 9.8 9.3125 10.12 9.3125 10.6V13Z" fill="#3B5DFB"/>
</svg>
