<svg width="24" height="24" viewBox="0 0 24 24" fill="none" xmlns="http://www.w3.org/2000/svg">
<path d="M19 4.375C19.6962 4.375 20.3642 4.65127 20.8564 5.14355C21.3487 5.63584 21.625 6.30381 21.625 7V17C21.625 17.6962 21.3487 18.3642 20.8564 18.8564C20.3642 19.3487 19.6962 19.625 19 19.625H5C4.30381 19.625 3.63584 19.3487 3.14355 18.8564C2.65127 18.3642 2.375 17.6962 2.375 17V7C2.375 6.30381 2.65127 5.63584 3.14355 5.14355C3.63584 4.65127 4.30381 4.375 5 4.375H19ZM12.3467 13.5205C12.1368 13.6603 11.8632 13.6603 11.6533 13.5205L3.625 8.16797V17C3.625 17.3647 3.76948 17.7148 4.02734 17.9727C4.28521 18.2305 4.63533 18.375 5 18.375H19C19.3647 18.375 19.7148 18.2305 19.9727 17.9727C20.2305 17.7148 20.375 17.3647 20.375 17V8.16797L12.3467 13.5205ZM5 5.625C4.63533 5.625 4.28521 5.76948 4.02734 6.02734C3.84402 6.21067 3.71867 6.44079 3.66113 6.68945L12 12.248L20.3379 6.68945C20.2803 6.44087 20.1559 6.21062 19.9727 6.02734C19.747 5.80168 19.4506 5.66306 19.1357 5.63184L19 5.625H5Z" fill="#4F4F55"/>
</svg>
