<svg width="28" height="28" viewBox="0 0 28 28" fill="none" xmlns="http://www.w3.org/2000/svg">
<path d="M15 6.00002H8C7.44773 6.00002 7.00003 6.44776 7 7.00002V17.337C7.45462 17.121 7.96321 17.0001 8.5 17.0001H21V12H23V23.0001C23 23.5524 22.5523 24.0001 22 24.0001H8.5C6.567 24.0001 5 22.4331 5 20.5001V7.00002C5.00003 5.34319 6.34316 4.00002 8 4.00002H15V6.00002ZM8.5 19.0001C7.67159 19.0001 7.00003 19.6717 7 20.5001C7 21.3285 7.67157 22.0001 8.5 22.0001H21V19.0001H8.5ZM20.5293 2.32935C20.7059 1.90357 21.2942 1.90356 21.4707 2.32935L21.7236 2.94068C22.1556 3.98348 22.9616 4.81619 23.9746 5.26686L24.6924 5.58619C25.1026 5.76902 25.1026 6.36621 24.6924 6.54909L23.9326 6.88698C22.9449 7.32626 22.1534 8.12948 21.7139 9.13796L21.4668 9.70339C21.2864 10.1175 20.7137 10.1175 20.5332 9.70339L20.2871 9.13796C19.8476 8.12932 19.0552 7.32631 18.0674 6.88698L17.3076 6.54909C16.8974 6.36623 16.8974 5.769 17.3076 5.58619L18.0254 5.26686C19.0385 4.8162 19.8445 3.98349 20.2764 2.94068L20.5293 2.32935Z" fill="#4F4F55"/>
</svg>
