<svg width="56" height="56" viewBox="0 0 56 56" fill="none" xmlns="http://www.w3.org/2000/svg">
<g clip-path="url(#clip0_3390_176)">
<path d="M28 49C31.3137 49 34 46.3137 34 43H22C22 46.3137 24.6863 49 28 49Z" fill="#4E7AD9"/>
<path d="M28 7V11" stroke="#4E7AD9" stroke-width="3" stroke-linecap="round" stroke-linejoin="round"/>
<path d="M45.8947 43H10.1053C9.25135 43 8.48193 42.4945 8.15761 41.7205C7.83354 40.9465 8.01857 40.0572 8.62661 39.4695L13.5927 34.6683V23.4064C13.5927 19.9714 14.6923 16.8031 16.6891 14.4851C19.8822 10.7782 24.6029 10 28.0005 10C31.3982 10 36.1188 10.7782 39.3119 14.4851C41.3084 16.8031 42.4081 19.9714 42.4081 23.4064V34.669L47.3734 39.4695C47.9814 40.0572 48.1665 40.9465 47.8424 41.7205C47.5181 42.4945 46.7487 43 45.8947 43Z" fill="url(#paint0_linear_3390_176)"/>
<g filter="url(#filter0_d_3390_176)">
<circle cx="44" cy="44" r="10" fill="url(#paint1_linear_3390_176)"/>
</g>
<path d="M40.5 40.5L47.5 47.5M40.5 47.5L47.5 40.5" stroke="white" stroke-width="2" stroke-linecap="round" stroke-linejoin="round"/>
</g>
<defs>
<filter id="filter0_d_3390_176" x="30" y="34" width="28" height="28" filterUnits="userSpaceOnUse" color-interpolation-filters="sRGB">
<feFlood flood-opacity="0" result="BackgroundImageFix"/>
<feColorMatrix in="SourceAlpha" type="matrix" values="0 0 0 0 0 0 0 0 0 0 0 0 0 0 0 0 0 0 127 0" result="hardAlpha"/>
<feOffset dy="4"/>
<feGaussianBlur stdDeviation="2"/>
<feComposite in2="hardAlpha" operator="out"/>
<feColorMatrix type="matrix" values="0 0 0 0 0.289401 0 0 0 0 0.068138 0 0 0 0 0.59917 0 0 0 0.15 0"/>
<feBlend mode="normal" in2="BackgroundImageFix" result="effect1_dropShadow_3390_176"/>
<feBlend mode="normal" in="SourceGraphic" in2="effect1_dropShadow_3390_176" result="shape"/>
</filter>
<linearGradient id="paint0_linear_3390_176" x1="25.4074" y1="10" x2="47.0316" y2="68.247" gradientUnits="userSpaceOnUse">
<stop stop-color="#A8C4FF"/>
<stop offset="1" stop-color="#4A81F7"/>
</linearGradient>
<linearGradient id="paint1_linear_3390_176" x1="38.8" y1="32.2353" x2="55.5197" y2="50.5471" gradientUnits="userSpaceOnUse">
<stop stop-color="#D0B8FF"/>
<stop offset="1" stop-color="#9B7AFF"/>
</linearGradient>
<clipPath id="clip0_3390_176">
<rect width="56" height="56" fill="white"/>
</clipPath>
</defs>
</svg>
