<svg width="16" height="16" viewBox="0 0 16 16" fill="none" xmlns="http://www.w3.org/2000/svg">
<path d="M10.6465 9.64646C10.8417 9.4512 11.1582 9.4512 11.3535 9.64646C11.5487 9.84172 11.5487 10.1582 11.3535 10.3535L8.35349 13.3535C8.15824 13.5487 7.84172 13.5487 7.64645 13.3535L4.64645 10.3535C4.45118 10.1582 4.45118 9.84172 4.64645 9.64646C4.84171 9.4512 5.15822 9.4512 5.35348 9.64646L7.99997 12.2929L10.6465 9.64646ZM7.64645 2.64645C7.84172 2.45118 8.15823 2.45118 8.35349 2.64645L11.3535 5.64645C11.5487 5.84172 11.5487 6.15823 11.3535 6.35348C11.1582 6.54873 10.8417 6.54871 10.6465 6.35348L7.99997 3.707L5.35348 6.35348C5.15823 6.54873 4.84171 6.54871 4.64645 6.35348C4.45118 6.15822 4.45118 5.84171 4.64645 5.64645L7.64645 2.64645Z" fill="#4F4F55"/>
</svg>
