<svg width="48" height="48" viewBox="0 0 48 48" fill="none" xmlns="http://www.w3.org/2000/svg">
<rect width="48" height="48" rx="8" fill="#F9F9F9"/>
<path d="M11.834 36.8946C11.5874 36.7929 11.3765 36.6201 11.228 36.3986C11.0796 36.177 11.0002 35.9164 11 35.6497V14.4992C11 13.5712 11.3686 12.6814 12.025 12.0252C12.6814 11.3689 13.5717 11 14.5 11H33.5C34.4283 11 35.3185 11.3689 35.9749 12.0252C36.6312 12.6814 37 13.5712 37 14.4992V29.4958C37 30.4239 36.6312 31.3137 35.9749 31.9699C35.3185 32.6261 34.4283 32.995 33.5 32.995H16.9089L13.309 36.6007C13.0558 36.854 12.7131 36.997 12.355 37C12.176 36.9993 11.999 36.9638 11.834 36.8946Z" fill="url(#paint0_linear_5041_54542)"/>
<path d="M11.834 36.8946C11.5874 36.7929 11.3765 36.6201 11.228 36.3986C11.0796 36.177 11.0002 35.9164 11 35.6497V14.4992C11 13.5712 11.3686 12.6814 12.025 12.0252C12.6814 11.3689 13.5717 11 14.5 11H33.5C34.4283 11 35.3185 11.3689 35.9749 12.0252C36.6312 12.6814 37 13.5712 37 14.4992V29.4958C37 30.4239 36.6312 31.3137 35.9749 31.9699C35.3185 32.6261 34.4283 32.995 33.5 32.995H16.9089L13.309 36.6007C13.0558 36.854 12.7131 36.997 12.355 37C12.176 36.9993 11.999 36.9638 11.834 36.8946Z" fill="url(#paint1_linear_5041_54542)"/>
<path d="M11.834 36.8946C11.5874 36.7929 11.3765 36.6201 11.228 36.3986C11.0796 36.177 11.0002 35.9164 11 35.6497V14.4992C11 13.5712 11.3686 12.6814 12.025 12.0252C12.6814 11.3689 13.5717 11 14.5 11H33.5C34.4283 11 35.3185 11.3689 35.9749 12.0252C36.6312 12.6814 37 13.5712 37 14.4992V29.4958C37 30.4239 36.6312 31.3137 35.9749 31.9699C35.3185 32.6261 34.4283 32.995 33.5 32.995H16.9089L13.309 36.6007C13.0558 36.854 12.7131 36.997 12.355 37C12.176 36.9993 11.999 36.9638 11.834 36.8946Z" fill="url(#paint2_linear_5041_54542)"/>
<path d="M11.834 36.8946C11.5874 36.7929 11.3765 36.6201 11.228 36.3986C11.0796 36.177 11.0002 35.9164 11 35.6497V14.4992C11 13.5712 11.3686 12.6814 12.025 12.0252C12.6814 11.3689 13.5717 11 14.5 11H33.5C34.4283 11 35.3185 11.3689 35.9749 12.0252C36.6312 12.6814 37 13.5712 37 14.4992V29.4958C37 30.4239 36.6312 31.3137 35.9749 31.9699C35.3185 32.6261 34.4283 32.995 33.5 32.995H16.9089L13.309 36.6007C13.0558 36.854 12.7131 36.997 12.355 37C12.176 36.9993 11.999 36.9638 11.834 36.8946Z" fill="url(#paint3_linear_5041_54542)"/>
<path d="M23.9941 26.2168C24.5885 26.2168 25.0703 26.6777 25.0703 27.2461C25.0702 27.8144 24.5885 28.2754 23.9941 28.2754C23.3998 28.2754 22.918 27.8144 22.918 27.2461C22.918 26.6777 23.3998 26.2168 23.9941 26.2168ZM24 15.7061C25.0608 15.7061 26.078 16.1091 26.8281 16.8262C27.5783 17.5433 28 18.5161 28 19.5303C27.9944 20.2229 27.7695 20.898 27.3545 21.4658C26.9887 21.9616 26.5483 22.4032 26.0488 22.7773C25.6293 23.0658 25.2642 23.4205 24.9678 23.8252C24.8838 24.0293 24.855 24.2503 24.8848 24.4678V24.6143C24.8848 24.8381 24.7915 25.0527 24.626 25.2109C24.4604 25.3692 24.2361 25.458 24.002 25.458C23.7678 25.458 23.5435 25.3692 23.3779 25.2109C23.2124 25.0527 23.1191 24.8381 23.1191 24.6143L23.1172 24.6162V24.4697C23.0799 23.9799 23.1783 23.4893 23.4033 23.0479C23.7983 22.4372 24.3158 21.9064 24.9248 21.4863C25.8424 20.7641 26.2344 20.1793 26.2344 19.5312C26.2345 19.252 26.1763 18.9754 26.0635 18.7178C25.9506 18.4601 25.7854 18.2262 25.5771 18.0303C25.1588 17.6304 24.5906 17.4062 23.999 17.4062C23.4076 17.4063 22.8401 17.6305 22.4219 18.0303C22.2136 18.2262 22.0484 18.4601 21.9355 18.7178C21.8227 18.9754 21.7645 19.2519 21.7646 19.5312C21.7575 19.7504 21.6618 19.9587 21.4971 20.1113C21.3322 20.2639 21.1113 20.3488 20.8818 20.3486C20.6524 20.3485 20.4322 20.2631 20.2676 20.1104C20.103 19.9575 20.0069 19.7495 20 19.5303C20 18.5161 20.4217 17.5433 21.1719 16.8262C21.922 16.1091 22.9392 15.7061 24 15.7061Z" fill="white"/>
<defs>
<linearGradient id="paint0_linear_5041_54542" x1="10.5" y1="10.9998" x2="34" y2="35.9998" gradientUnits="userSpaceOnUse">
<stop stop-color="#BAC7FF"/>
<stop offset="1" stop-color="#7D98FF"/>
</linearGradient>
<linearGradient id="paint1_linear_5041_54542" x1="10.5" y1="10.9998" x2="34" y2="35.9998" gradientUnits="userSpaceOnUse">
<stop stop-color="#BAC7FF"/>
<stop offset="1" stop-color="#7D98FF"/>
</linearGradient>
<linearGradient id="paint2_linear_5041_54542" x1="19" y1="11" x2="31" y2="37" gradientUnits="userSpaceOnUse">
<stop stop-color="#81DAE5"/>
<stop offset="1" stop-color="#2BB0C4"/>
</linearGradient>
<linearGradient id="paint3_linear_5041_54542" x1="18.5833" y1="10" x2="30.8853" y2="40.7135" gradientUnits="userSpaceOnUse">
<stop stop-color="#C0B2FF"/>
<stop offset="1" stop-color="#7C5CFF"/>
</linearGradient>
</defs>
</svg>
