<svg width="16" height="16" viewBox="0 0 16 16" fill="none" xmlns="http://www.w3.org/2000/svg">
<path d="M10.667 9.5C11.2415 9.50009 11.793 9.72851 12.1992 10.1348C12.6053 10.5411 12.833 11.0925 12.833 11.667C12.8329 12.0715 12.7173 12.4628 12.5088 12.8018L14.0205 14.3135C14.2154 14.5088 14.2157 14.8254 14.0205 15.0205C13.8254 15.2157 13.5088 15.2154 13.3135 15.0205L11.8018 13.5088C11.4628 13.7173 11.0715 13.8329 10.667 13.833C10.0925 13.833 9.54106 13.6053 9.13477 13.1992C8.72851 12.793 8.50009 12.2415 8.5 11.667C8.5 11.0924 8.72844 10.5411 9.13477 10.1348C9.54109 9.72844 10.0924 9.5 10.667 9.5ZM9.2041 1.50977C9.29913 1.52856 9.38791 1.57469 9.45801 1.64355L12.8506 4.97656C12.9462 5.07049 12.9999 5.199 13 5.33301V8.33301C13 8.60915 12.7761 8.83301 12.5 8.83301C12.2239 8.83301 12 8.60915 12 8.33301V5.83301H9.66699C9.35757 5.83301 9.06059 5.71 8.8418 5.49121C8.62318 5.27251 8.50009 4.97622 8.5 4.66699V2.5H4.35742C4.12733 2.5 3.90813 2.58987 3.74805 2.74707C3.58833 2.90398 3.50009 3.11499 3.5 3.33301V12.667C3.50009 12.885 3.58833 13.096 3.74805 13.2529C3.90813 13.4101 4.12733 13.5 4.35742 13.5H7.75C8.02614 13.5 8.25 13.7239 8.25 14C8.25 14.2761 8.02614 14.5 7.75 14.5H4.35742C3.8677 14.5 3.39581 14.3086 3.04688 13.9658C2.69789 13.6228 2.50009 13.1559 2.5 12.667V3.33301C2.50009 2.84414 2.69789 2.37719 3.04688 2.03418C3.39581 1.69137 3.8677 1.5 4.35742 1.5H9.10742L9.2041 1.50977ZM10.667 10.5C10.3576 10.5 10.0606 10.623 9.8418 10.8418C9.623 11.0606 9.5 11.3576 9.5 11.667C9.50009 11.9762 9.62318 12.2725 9.8418 12.4912C10.0606 12.71 10.3576 12.833 10.667 12.833C10.9763 12.8329 11.2725 12.7099 11.4912 12.4912C11.7099 12.2725 11.8329 11.9763 11.833 11.667C11.833 11.3576 11.71 11.0606 11.4912 10.8418C11.2725 10.6232 10.9762 10.5001 10.667 10.5ZM9.5 4.66699C9.50009 4.711 9.51775 4.75302 9.54883 4.78418C9.58008 4.81544 9.62279 4.83301 9.66699 4.83301H11.2773L9.5 3.08594V4.66699Z" fill="#4F4F55"/>
</svg>
