<svg width="16" height="16" viewBox="0 0 16 16" fill="none" xmlns="http://www.w3.org/2000/svg">
<path d="M13.333 1.375C13.6756 1.375 14.0048 1.51069 14.2471 1.75293C14.4893 1.99517 14.625 2.32442 14.625 2.66699V14C14.625 14.3452 14.3452 14.625 14 14.625H2C1.65482 14.625 1.375 14.3452 1.375 14V9.33301C1.37509 9.16752 1.44069 9.0087 1.55762 8.8916L4.8916 5.55762L4.98926 5.47754C5.1053 5.40094 5.24135 5.37 5.375 5.37891V2.66699C5.375 2.32442 5.5107 1.99516 5.75293 1.75293C5.99516 1.5107 6.32442 1.375 6.66699 1.375H13.333ZM2.625 9.59277V13.375H4.70801V11.333C4.70818 10.9881 4.98809 10.7082 5.33301 10.708C5.67808 10.708 5.95783 10.988 5.95801 11.333V13.375H8.04199V9.59277L5.33301 6.88379L2.625 9.59277ZM6.63672 2.63672C6.6289 2.64453 6.625 2.65594 6.625 2.66699V6.40723L9.1084 8.8916C9.22553 9.00874 9.29191 9.16737 9.29199 9.33301V13.375H13.375V2.66699C13.375 2.65594 13.3711 2.64453 13.3633 2.63672C13.3555 2.62891 13.3441 2.625 13.333 2.625H6.66699C6.65594 2.625 6.64453 2.6289 6.63672 2.63672ZM11.333 9.375C11.6782 9.375 11.958 9.65482 11.958 10V10.0068C11.9579 10.3519 11.6781 10.6318 11.333 10.6318C10.988 10.6317 10.7081 10.3518 10.708 10.0068V10C10.708 9.65492 10.988 9.37516 11.333 9.375ZM11.333 6.70801C11.6781 6.70801 11.9578 6.98797 11.958 7.33301V7.33984C11.9579 7.68494 11.6781 7.96484 11.333 7.96484C10.988 7.96468 10.7081 7.68484 10.708 7.33984V7.33301C10.7082 6.98807 10.9881 6.70817 11.333 6.70801ZM8.66699 4.04199C9.01203 4.04216 9.29199 4.32192 9.29199 4.66699V4.67383C9.29174 5.01869 9.01187 5.29866 8.66699 5.29883C8.32197 5.29883 8.04225 5.01879 8.04199 4.67383V4.66699C8.04199 4.32181 8.32181 4.04199 8.66699 4.04199ZM11.333 4.04199C11.6782 4.04199 11.958 4.32181 11.958 4.66699V4.67383C11.9578 5.01879 11.678 5.29883 11.333 5.29883C10.9881 5.29866 10.7083 5.01869 10.708 4.67383V4.66699C10.708 4.32192 10.988 4.04216 11.333 4.04199Z" fill="#212126"/>
</svg>
