<svg width="16" height="16" viewBox="0 0 16 16" fill="none" xmlns="http://www.w3.org/2000/svg">
<path d="M7.33301 9.375C8.20601 9.375 9.04383 9.72156 9.66113 10.3389C10.2784 10.9562 10.625 11.794 10.625 12.667V14C10.625 14.3452 10.3452 14.625 10 14.625C9.65482 14.625 9.375 14.3452 9.375 14V12.667C9.375 12.1255 9.16023 11.6055 8.77734 11.2227C8.39446 10.8398 7.87449 10.625 7.33301 10.625H4.66699C4.12551 10.625 3.60554 10.8398 3.22266 11.2227C2.83977 11.6055 2.625 12.1255 2.625 12.667V14C2.625 14.3452 2.34518 14.625 2 14.625C1.65482 14.625 1.375 14.3452 1.375 14V12.667C1.375 11.794 1.72156 10.9562 2.33887 10.3389C2.95617 9.72156 3.79399 9.375 4.66699 9.375H7.33301ZM12.1562 9.49414C12.8595 9.67571 13.4832 10.0853 13.9297 10.6582C14.3762 11.2312 14.6207 11.9367 14.625 12.6631V14C14.6248 14.345 14.345 14.625 14 14.625C13.655 14.625 13.3752 14.345 13.375 14V12.6699L13.3672 12.502C13.3326 12.1116 13.1857 11.7378 12.9434 11.4268C12.6664 11.0715 12.2799 10.8177 11.8438 10.7051C11.5096 10.6188 11.3083 10.2775 11.3945 9.94336C11.481 9.6094 11.8222 9.40798 12.1562 9.49414ZM6 1.375C6.87274 1.37509 7.70995 1.72183 8.32715 2.33887C8.94446 2.95617 9.29102 3.79399 9.29102 4.66699C9.29093 5.53988 8.94438 6.37691 8.32715 6.99414C7.70993 7.61128 6.87282 7.95792 6 7.95801C5.12711 7.95793 4.28911 7.61138 3.67188 6.99414C3.05484 6.37694 2.70809 5.53973 2.70801 4.66699C2.70801 3.79406 3.05466 2.95616 3.67188 2.33887C4.28911 1.72163 5.12711 1.37508 6 1.375ZM10.8223 1.48145C11.5301 1.66281 12.1574 2.07514 12.6055 2.65234C13.0534 3.22955 13.2968 3.93932 13.2969 4.66992C13.2968 5.40073 13.0536 6.11118 12.6055 6.68848C12.1574 7.26569 11.5301 7.67804 10.8223 7.85938C10.488 7.94497 10.1473 7.74241 10.0615 7.4082C9.97618 7.07404 10.1776 6.73415 10.5117 6.64844C10.9508 6.53596 11.3402 6.27992 11.6182 5.92188C11.8961 5.56384 12.0468 5.12314 12.0469 4.66992C12.0468 4.21683 11.8959 3.77594 11.6182 3.41797C11.3403 3.06013 10.9506 2.80484 10.5117 2.69238C10.1775 2.60668 9.97603 2.2659 10.0615 1.93164C10.1472 1.59739 10.488 1.39585 10.8223 1.48145ZM6 2.625C5.45863 2.62508 4.93848 2.83984 4.55566 3.22266C4.17287 3.60553 3.95801 4.12558 3.95801 4.66699C3.95809 5.20821 4.17305 5.72757 4.55566 6.11035C4.93848 6.49317 5.45863 6.70793 6 6.70801C6.54129 6.70792 7.06056 6.49307 7.44336 6.11035C7.82617 5.72754 8.04093 5.20836 8.04102 4.66699C8.04102 4.12551 7.82625 3.60554 7.44336 3.22266C7.06058 2.84004 6.54122 2.62509 6 2.625Z" fill="#212126"/>
</svg>
