<svg width="48" height="48" viewBox="0 0 48 48" fill="none" xmlns="http://www.w3.org/2000/svg">
<rect width="48" height="48" rx="8" fill="#F9F9F9"/>
<foreignObject x="-1.64019" y="-1.64068" width="46.878" height="48.9996"><div xmlns="http://www.w3.org/1999/xhtml" style="backdrop-filter:blur(6.54px);clip-path:url(#bgblur_0_5041_54528_clip_path);height:100%;width:100%"></div></foreignObject><g data-figma-bg-blur-radius="13.0894">
<rect x="11" y="15.3999" width="17" height="20" rx="2" transform="rotate(-15 11 15.3999)" fill="#D8E0FF"/>
<rect x="11" y="15.3999" width="17" height="20" rx="2" transform="rotate(-15 11 15.3999)" fill="#DED6FF"/>
</g>
<rect x="19" y="16" width="17" height="20" rx="2" fill="url(#paint0_linear_5041_54528)"/>
<rect x="19" y="16" width="17" height="20" rx="2" fill="url(#paint1_linear_5041_54528)"/>
<path d="M22.5 25H28.5" stroke="white" stroke-opacity="0.6" stroke-width="1.5" stroke-linecap="round"/>
<path d="M29 30.5L30.4545 32L33 29" stroke="white" stroke-width="1.5" stroke-linecap="round" stroke-linejoin="round"/>
<path d="M22.5 21.5H32.5" stroke="white" stroke-opacity="0.6" stroke-width="1.5" stroke-linecap="round"/>
<defs>
<clipPath id="bgblur_0_5041_54528_clip_path" transform="translate(1.64019 1.64068)"><rect x="11" y="15.3999" width="17" height="20" rx="2" transform="rotate(-15 11 15.3999)"/>
</clipPath><linearGradient id="paint0_linear_5041_54528" x1="18.6731" y1="15.9998" x2="36.6933" y2="32.2947" gradientUnits="userSpaceOnUse">
<stop stop-color="#BAC7FF"/>
<stop offset="1" stop-color="#7D98FF"/>
</linearGradient>
<linearGradient id="paint1_linear_5041_54528" x1="23.9583" y1="15.2308" x2="34.53" y2="37.6653" gradientUnits="userSpaceOnUse">
<stop stop-color="#C0B2FF"/>
<stop offset="1" stop-color="#7C5CFF"/>
</linearGradient>
</defs>
</svg>
