<svg width="16" height="16" viewBox="0 0 16 16" fill="none" xmlns="http://www.w3.org/2000/svg">
<path d="M12 2.16699C12.4861 2.16706 12.9531 2.36034 13.2969 2.7041C13.6403 3.0478 13.8339 3.51411 13.834 4V12C13.8339 12.4861 13.6406 12.9531 13.2969 13.2969C12.9531 13.6406 12.4861 13.8339 12 13.834H4C3.51411 13.8339 3.0478 13.6403 2.7041 13.2969C2.36037 12.9531 2.16709 12.4861 2.16699 12V4C2.16708 3.51392 2.3604 3.04784 2.7041 2.7041C3.04784 2.36036 3.51389 2.16708 4 2.16699H12ZM4 3.16699C3.7791 3.16708 3.56734 3.25493 3.41113 3.41113C3.25497 3.56733 3.16708 3.77913 3.16699 4V12C3.16709 12.2209 3.25494 12.4337 3.41113 12.5898C3.56729 12.7458 3.77932 12.8339 4 12.834H5.5V3.16699H4ZM6.5 12.834H12C12.2209 12.8339 12.4336 12.746 12.5898 12.5898C12.746 12.4336 12.8339 12.2209 12.834 12V4C12.8339 3.77932 12.7458 3.56729 12.5898 3.41113C12.4336 3.25491 12.2209 3.16706 12 3.16699H6.5V12.834ZM9.64648 6.31348C9.84169 6.11827 10.1582 6.11838 10.3535 6.31348C10.5485 6.50876 10.5487 6.82535 10.3535 7.02051L9.37305 8L10.3535 8.98047C10.5485 9.17576 10.5487 9.49234 10.3535 9.6875C10.1583 9.88227 9.84164 9.88233 9.64648 9.6875L8.31348 8.35352C8.1184 8.15826 8.11833 7.8417 8.31348 7.64648L9.64648 6.31348Z" fill="#4F4F55"/>
</svg>
