<svg width="16" height="16" viewBox="0 0 16 16" fill="none" xmlns="http://www.w3.org/2000/svg">
<path d="M12 9.5C12.663 9.5 13.2987 9.76358 13.7676 10.2324C14.2364 10.7013 14.5 11.337 14.5 12C14.5 12.4938 14.3533 12.9721 14.085 13.3779L15.0205 14.3135C15.2155 14.5088 15.2157 14.8254 15.0205 15.0205C14.8254 15.2157 14.5088 15.2155 14.3135 15.0205L13.3779 14.085C12.9721 14.3533 12.4938 14.5 12 14.5C11.337 14.5 10.7013 14.2364 10.2324 13.7676C9.76358 13.2987 9.5 12.663 9.5 12C9.5 11.337 9.76358 10.7013 10.2324 10.2324C10.7013 9.76358 11.337 9.5 12 9.5ZM8 9.5C8.27614 9.5 8.5 9.72386 8.5 10C8.5 10.2761 8.27614 10.5 8 10.5H6.90918C6.25689 10.5 5.63858 10.7377 5.18945 11.1494C4.74188 11.5598 4.5 12.1072 4.5 12.667V14C4.5 14.2761 4.27614 14.5 4 14.5C3.72386 14.5 3.5 14.2761 3.5 14V12.667C3.5 11.8124 3.87119 11.0019 4.51465 10.4121C5.1566 9.82386 6.01859 9.5 6.90918 9.5H8ZM12 10.5C11.6022 10.5 11.2208 10.6581 10.9395 10.9395C10.6581 11.2208 10.5 11.6022 10.5 12C10.5 12.3978 10.6581 12.7792 10.9395 13.0605C11.2208 13.3419 11.6022 13.5 12 13.5C12.3978 13.5 12.7792 13.3419 13.0605 13.0605C13.3419 12.7792 13.5 12.3978 13.5 12C13.5 11.6022 13.3419 11.2208 13.0605 10.9395C12.7792 10.6581 12.3978 10.5 12 10.5ZM8 1.5C8.86195 1.5 9.68836 1.84266 10.2979 2.45215C10.9073 3.06164 11.25 3.88805 11.25 4.75C11.25 5.61195 10.9073 6.43836 10.2979 7.04785C9.68836 7.65734 8.86195 8 8 8C7.13805 8 6.31164 7.65734 5.70215 7.04785C5.09266 6.43836 4.75 5.61195 4.75 4.75C4.75 3.88805 5.09266 3.06164 5.70215 2.45215C6.31164 1.84266 7.13805 1.5 8 1.5ZM8 2.5C7.40326 2.5 6.83114 2.73722 6.40918 3.15918C5.98722 3.58114 5.75 4.15326 5.75 4.75C5.75 5.34674 5.98722 5.91886 6.40918 6.34082C6.83114 6.76278 7.40326 7 8 7C8.59674 7 9.16886 6.76278 9.59082 6.34082C10.0128 5.91886 10.25 5.34674 10.25 4.75C10.25 4.15326 10.0128 3.58114 9.59082 3.15918C9.16886 2.73722 8.59674 2.5 8 2.5Z" fill="#4F4F55"/>
</svg>
