<svg width="16" height="16" viewBox="0 0 16 16" fill="none" xmlns="http://www.w3.org/2000/svg">
<path d="M10.083 6.83301C10.9448 6.83301 11.7714 7.17586 12.3809 7.78516C12.9903 8.39458 13.3329 9.22116 13.333 10.083C13.333 10.7764 13.1101 11.446 12.7061 11.999L14.3535 13.6465C14.5485 13.8418 14.5487 14.1584 14.3535 14.3535C14.1584 14.5487 13.8418 14.5484 13.6465 14.3535L11.999 12.7061C11.446 13.1101 10.7764 13.333 10.083 13.333C9.22117 13.3329 8.39457 12.9903 7.78516 12.3809C7.17586 11.7714 6.83301 10.9448 6.83301 10.083C6.83309 9.22117 7.17574 8.39458 7.78516 7.78516C8.39457 7.17574 9.22117 6.83309 10.083 6.83301ZM5 11.5C5.27614 11.5 5.5 11.7239 5.5 12C5.5 12.2761 5.27614 12.5 5 12.5H2C1.72386 12.5 1.5 12.2761 1.5 12C1.5 11.7239 1.72386 11.5 2 11.5H5ZM10.083 7.83301C9.48639 7.83309 8.91407 8.07031 8.49219 8.49219C8.07031 8.91407 7.83309 9.48638 7.83301 10.083C7.83301 10.6796 8.07043 11.2519 8.49219 11.6738C8.91407 12.0957 9.48639 12.3329 10.083 12.333C10.6797 12.333 11.2519 12.0958 11.6738 11.6738C12.0958 11.2519 12.333 10.6797 12.333 10.083C12.3329 9.48638 12.0957 8.91407 11.6738 8.49219C11.2519 8.07043 10.6796 7.83301 10.083 7.83301ZM5 7.5C5.27614 7.5 5.5 7.72386 5.5 8C5.5 8.27614 5.27614 8.5 5 8.5H2C1.72386 8.5 1.5 8.27614 1.5 8C1.5 7.72386 1.72386 7.5 2 7.5H5ZM14 3.5C14.2761 3.5 14.5 3.72386 14.5 4C14.5 4.27614 14.2761 4.5 14 4.5H2C1.72386 4.5 1.5 4.27614 1.5 4C1.5 3.72386 1.72386 3.5 2 3.5H14Z" fill="#4F4F55"/>
</svg>
