<svg width="16" height="16" viewBox="0 0 16 16" fill="none" xmlns="http://www.w3.org/2000/svg">
<path d="M8.91699 2C9.19298 2.00018 9.41699 2.22397 9.41699 2.5C9.41696 2.77601 9.19296 2.99982 8.91699 3H3V13H13V6.90039C13 6.62425 13.2239 6.40039 13.5 6.40039C13.7761 6.40039 14 6.62425 14 6.90039V13.5C14 13.7761 13.7761 14 13.5 14H2.5C2.22388 14 2.00003 13.7761 2 13.5V2.5C2 2.22386 2.22386 2 2.5 2H8.91699ZM5.5 8C5.77614 8 6 8.22386 6 8.5V11C5.99997 11.2761 5.77612 11.5 5.5 11.5C5.22388 11.5 5.00003 11.2761 5 11V8.5C5 8.22386 5.22386 8 5.5 8ZM8 4.5C8.27614 4.5 8.5 4.72386 8.5 5V11C8.49997 11.2761 8.27612 11.5 8 11.5C7.72388 11.5 7.50003 11.2761 7.5 11V5C7.5 4.72386 7.72386 4.5 8 4.5ZM10.5 6.5C10.7761 6.5 11 6.72386 11 7V11C11 11.2761 10.7761 11.5 10.5 11.5C10.2239 11.5 10 11.2761 10 11V7C10 6.72386 10.2239 6.5 10.5 6.5ZM11.7646 2.16211C11.853 1.94969 12.147 1.94969 12.2354 2.16211L12.3623 2.46777C12.5783 2.98894 12.9807 3.40567 13.4873 3.63086L13.8457 3.79004C14.0511 3.88133 14.0511 4.18019 13.8457 4.27148L13.4658 4.44043C12.9721 4.66001 12.5761 5.06153 12.3564 5.56543L12.2334 5.84766C12.1432 6.0546 11.8569 6.05459 11.7666 5.84766L11.6436 5.56543C11.4239 5.06152 11.0279 4.66001 10.5342 4.44043L10.1543 4.27148C9.94895 4.18019 9.94895 3.88133 10.1543 3.79004L10.5127 3.63086C11.0193 3.40567 11.4217 2.98894 11.6377 2.46777L11.7646 2.16211Z" fill="#4F4F55"/>
</svg>
