<svg width="18" height="18" viewBox="0 0 18 18" fill="none" xmlns="http://www.w3.org/2000/svg">
<path d="M9 2C12.866 2 16 5.13401 16 9C16 12.866 12.866 16 9 16C5.13401 16 2 12.866 2 9C2 5.13401 5.13401 2 9 2ZM9 3C5.68629 3 3 5.68629 3 9C3 12.3137 5.68629 15 9 15C12.3137 15 15 12.3137 15 9C15 5.68629 12.3137 3 9 3ZM8.55957 11.3125C8.72059 11.253 8.89511 11.2418 9.0625 11.2803C9.22989 11.3188 9.38264 11.4055 9.50098 11.5293C9.61922 11.6531 9.69842 11.8085 9.72852 11.9766C9.75857 12.1446 9.73794 12.3179 9.66992 12.4746C9.6018 12.6313 9.48843 12.7649 9.34473 12.8584C9.20093 12.9519 9.03314 13.0017 8.86133 13.001C8.74319 13 8.62597 12.9754 8.51758 12.9287C8.40914 12.882 8.31095 12.8136 8.22949 12.7285C8.14808 12.6434 8.08547 12.5426 8.04395 12.4326C8.00252 12.3228 7.98432 12.206 7.98926 12.0889C7.99729 11.9182 8.05589 11.7532 8.15723 11.6152C8.25855 11.4774 8.39861 11.3721 8.55957 11.3125ZM9.01172 5.51562C9.2665 5.48167 9.52618 5.5037 9.77148 5.58008C10.0168 5.65646 10.2419 5.78566 10.4316 5.95801C10.6212 6.13026 10.7707 6.3414 10.8691 6.57715C10.9677 6.81311 11.0132 7.06801 11.002 7.32324C11.0019 8.67185 9.33845 9.13105 9.48145 10.4697H8.25098C8.02201 8.93844 9.65096 8.33112 9.65137 7.41699C9.65742 7.31056 9.6397 7.20376 9.60059 7.10449C9.5615 7.0053 9.50189 6.91581 9.4248 6.8418C9.34767 6.76778 9.25447 6.71115 9.15332 6.67578C9.05213 6.64041 8.94471 6.62697 8.83789 6.63672C8.63362 6.64774 8.43358 6.70033 8.25098 6.79199C8.0684 6.88366 7.90748 7.01211 7.77734 7.16895L7 6.46582C7.24602 6.17197 7.55395 5.93456 7.90137 5.77051C8.24878 5.60645 8.6271 5.51957 9.01172 5.51562Z" fill="#4F4F55"/>
</svg>
