<svg width="14" height="14" viewBox="0 0 14 14" fill="none" xmlns="http://www.w3.org/2000/svg">
<path d="M7 1.16691C8.56894 1.17204 10.0706 1.80216 11.1704 2.91684H9.34225C9.01885 2.91684 8.75669 3.17799 8.75669 3.50015C8.75669 3.8223 9.01885 4.08346 9.34225 4.08346H11.7682C12.3687 4.08313 12.8553 3.59836 12.8556 3.00025V0.583602C12.8556 0.26145 12.5935 0.000293435 12.2701 0.000293435C11.9467 0.000293435 11.6845 0.26145 11.6845 0.583602V1.79572C9.71056 0.0248184 6.90183 -0.483579 4.42867 0.482368C1.9555 1.44831 0.242145 3.72291 0.00252245 6.35836C-0.0127705 6.5226 0.0419654 6.68568 0.15335 6.80773C0.264734 6.92978 0.422501 6.99956 0.588085 7C0.884887 7.00377 1.1358 6.78188 1.16721 6.48785C1.43738 3.47841 3.96688 1.17089 7 1.16691Z" fill="white"/>
<path d="M13.4125 7.00005C13.1157 6.99628 12.8648 7.21817 12.8334 7.51219C12.6358 9.77921 11.1309 11.724 8.9805 12.4916C6.83006 13.2593 4.42776 12.7092 2.82966 11.0832H4.65779C4.98118 11.0832 5.24335 10.8221 5.24335 10.4999C5.24335 10.1777 4.98118 9.91659 4.65779 9.91659H2.2318C1.94336 9.91644 1.66669 10.0305 1.46273 10.2337C1.25877 10.4369 1.14425 10.7125 1.14441 10.9998V13.4164C1.14441 13.7386 1.40657 13.9998 1.72997 13.9998C2.05337 13.9998 2.31554 13.7386 2.31554 13.4164V12.2043C4.28948 13.9752 7.09821 14.4836 9.57137 13.5177C12.0445 12.5517 13.7579 10.2771 13.9975 7.64169C14.0128 7.47744 13.9581 7.31437 13.8467 7.19231C13.7353 7.07026 13.5775 7.00049 13.412 7.00005H13.4125Z" fill="white"/>
</svg>
