<svg width="78" height="91" viewBox="0 0 78 91" fill="none" xmlns="http://www.w3.org/2000/svg">
<path d="M73.8798 60.7692C71.4179 67.3981 67.6946 73.162 62.812 77.899C57.2544 83.2908 49.9769 87.5751 41.1817 90.6313C40.8931 90.7313 40.5919 90.8132 40.2893 90.8736C39.8896 90.9521 39.4829 90.9944 39.0797 91H39.0007C38.5709 91 38.1391 90.957 37.7107 90.8736C37.4081 90.8132 37.1111 90.7313 36.8239 90.6334C28.0182 87.5821 20.7316 83.2998 15.1684 77.9081C10.2837 73.171 6.56113 67.4106 4.1027 60.7817C-0.367601 48.7291 -0.113233 35.4517 0.0915191 24.7821L0.0950131 24.6183C0.136243 23.7372 0.162798 22.8118 0.177473 21.7898C0.252246 16.7723 4.26762 12.6212 9.31864 12.3414C19.8497 11.7575 27.9965 8.34514 34.9574 1.60442L35.0182 1.54888C36.174 0.495664 37.6303 -0.0208769 39.0797 0.000645693C40.4773 0.0186969 41.8693 0.534543 42.9839 1.54888L43.0433 1.60442C50.0056 8.34514 58.1524 11.7575 68.6835 12.3414C73.7345 12.6212 77.7498 16.7723 77.8246 21.7898C77.8393 22.8187 77.8659 23.7428 77.9071 24.6183L77.9092 24.6877C78.1132 35.3774 78.3662 48.6811 73.8798 60.7692Z" fill="#E5E5E5"/>
</svg>
