<svg width="24" height="24" viewBox="0 0 24 24" fill="none" xmlns="http://www.w3.org/2000/svg">
<path fill-rule="evenodd" clip-rule="evenodd" d="M17 3C18.4 3 19.1 3.00007 19.6348 3.27246C20.1052 3.51214 20.4879 3.89483 20.7275 4.36523C20.9999 4.89999 21 5.60002 21 7V17C21 18.4 20.9999 19.1 20.7275 19.6348C20.4879 20.1052 20.1052 20.4879 19.6348 20.7275C19.1 20.9999 18.4 21 17 21H7C5.60002 21 4.89999 20.9999 4.36523 20.7275C3.89483 20.4879 3.51214 20.1052 3.27246 19.6348C3.00007 19.1 3 18.4 3 17V7C3 5.60002 3.00007 4.89999 3.27246 4.36523C3.51214 3.89483 3.89483 3.51214 4.36523 3.27246C4.89999 3.00007 5.60002 3 7 3H17ZM14 16.5C13.5858 16.5 13.25 16.8358 13.25 17.25C13.25 17.6642 13.5858 18 14 18H18C18.4142 18 18.75 17.6642 18.75 17.25C18.75 16.8358 18.4142 16.5 18 16.5H14ZM9.94434 13.7197C9.65144 13.4269 9.17666 13.4269 8.88379 13.7197L8 14.6035L7.11621 13.7197C6.82334 13.4269 6.34856 13.4269 6.05566 13.7197C5.76277 14.0126 5.76277 14.4874 6.05566 14.7803L6.93945 15.6641L6.05566 16.5479C5.7628 16.8407 5.76285 17.3155 6.05566 17.6084C6.34856 17.9013 6.82332 17.9013 7.11621 17.6084L8 16.7246L8.88379 17.6084C9.17668 17.9013 9.65144 17.9013 9.94434 17.6084C10.2372 17.3155 10.2372 16.8407 9.94434 16.5479L9.06055 15.6641L9.94434 14.7803C10.2372 14.4874 10.2372 14.0126 9.94434 13.7197ZM14 13.5C13.5858 13.5 13.25 13.8358 13.25 14.25C13.25 14.6642 13.5858 15 14 15H18C18.4142 15 18.75 14.6642 18.75 14.25C18.75 13.8358 18.4142 13.5 18 13.5H14ZM8 5.75C7.58579 5.75 7.25 6.08579 7.25 6.5V7.75H6C5.58579 7.75 5.25 8.08579 5.25 8.5C5.25 8.91421 5.58579 9.25 6 9.25H7.25V10.5C7.25 10.9142 7.58579 11.25 8 11.25C8.41421 11.25 8.75 10.9142 8.75 10.5V9.25H10C10.4142 9.25 10.75 8.91421 10.75 8.5C10.75 8.08579 10.4142 7.75 10 7.75H8.75V6.5C8.75 6.08579 8.41421 5.75 8 5.75ZM14 7.75C13.5858 7.75 13.25 8.08579 13.25 8.5C13.25 8.91421 13.5858 9.25 14 9.25H18C18.4142 9.25 18.75 8.91421 18.75 8.5C18.75 8.08579 18.4142 7.75 18 7.75H14Z" fill="white"/>
</svg>
