<svg width="24" height="24" viewBox="0 0 24 24" fill="none" xmlns="http://www.w3.org/2000/svg">
<path d="M8 8.375C8.34518 8.375 8.625 8.65482 8.625 9C8.625 9.34518 8.34518 9.625 8 9.625H7C6.63533 9.625 6.28521 9.76948 6.02734 10.0273C5.76948 10.2852 5.625 10.6353 5.625 11V19L5.63184 19.1357C5.66306 19.4506 5.80168 19.747 6.02734 19.9727C6.28521 20.2305 6.63533 20.375 7 20.375H17C17.3647 20.375 17.7148 20.2305 17.9727 19.9727C18.2305 19.7148 18.375 19.3647 18.375 19V11C18.375 10.6353 18.2305 10.2852 17.9727 10.0273C17.7148 9.76948 17.3647 9.625 17 9.625H16C15.6548 9.625 15.375 9.34518 15.375 9C15.375 8.65482 15.6548 8.375 16 8.375H17C17.6962 8.375 18.3642 8.65127 18.8564 9.14355C19.3487 9.63584 19.625 10.3038 19.625 11V19C19.625 19.6962 19.3487 20.3642 18.8564 20.8564C18.3642 21.3487 17.6962 21.625 17 21.625H7C6.30381 21.625 5.63584 21.3487 5.14355 20.8564C4.65127 20.3642 4.375 19.6962 4.375 19V11C4.375 10.3038 4.65127 9.63584 5.14355 9.14355C5.63584 8.65127 6.30381 8.375 7 8.375H8ZM12.0215 2.37793C12.0481 2.37883 12.0743 2.38147 12.1006 2.38574C12.1141 2.38793 12.1275 2.38954 12.1406 2.39258C12.1669 2.39862 12.1923 2.40751 12.2178 2.41699C12.2285 2.42102 12.2395 2.42412 12.25 2.42871C12.2796 2.44165 12.3082 2.45686 12.3359 2.47461C12.3407 2.47769 12.3459 2.4802 12.3506 2.4834C12.3827 2.5052 12.4139 2.52918 12.4424 2.55762L15.4424 5.55762C15.6865 5.80169 15.6865 6.19831 15.4424 6.44238C15.1983 6.68646 14.8017 6.68646 14.5576 6.44238L12.625 4.50977V14C12.625 14.3452 12.3452 14.625 12 14.625C11.6548 14.625 11.375 14.3452 11.375 14V4.50977L9.44238 6.44238C9.19831 6.68646 8.80169 6.68646 8.55762 6.44238C8.31354 6.19831 8.31354 5.80169 8.55762 5.55762L11.5576 2.55762C11.5866 2.52864 11.6191 2.50333 11.6533 2.48047L11.6562 2.47754C11.6868 2.4574 11.719 2.44098 11.752 2.42676C11.763 2.42198 11.7748 2.41919 11.7861 2.41504C11.8123 2.40551 11.8383 2.39656 11.8652 2.39062C11.8752 2.38843 11.8854 2.38745 11.8955 2.38574C11.925 2.38074 11.9545 2.37771 11.9844 2.37695C11.9896 2.37682 11.9948 2.375 12 2.375C12.0072 2.375 12.0143 2.37769 12.0215 2.37793Z" fill="#4F4F55"/>
</svg>
