<svg width="14" height="15" viewBox="0 0 14 15" fill="none" xmlns="http://www.w3.org/2000/svg">
<path fill-rule="evenodd" clip-rule="evenodd" d="M10.352 9.62498L14 13.2729L13.1763 14.0967L9.5283 10.4487C7.1213 12.4168 3.59387 12.1517 1.50797 9.84611C-0.577928 7.54047 -0.48951 4.0042 1.70901 1.80569C3.90752 -0.392831 7.44379 -0.481248 9.74943 1.60465C12.0551 3.69055 12.3201 7.21798 10.352 9.62498ZM1.18377 5.94089C1.18377 8.51479 3.27032 10.6013 5.84421 10.6013C8.41691 10.5985 10.5018 8.51359 10.5047 5.94089C10.5047 3.367 8.41811 1.28045 5.84421 1.28045C3.27032 1.28045 1.18377 3.367 1.18377 5.94089Z" fill="white"/>
</svg>
