<svg width="24" height="24" viewBox="0 0 24 24" fill="none" xmlns="http://www.w3.org/2000/svg">
<path d="M16.1006 3C17.5004 3 18.2006 3.00001 18.7354 3.27246C19.2057 3.51215 19.5875 3.89491 19.8271 4.36523C20.0996 4.90001 20.0996 5.59987 20.0996 7V17C20.0996 18.4001 20.0996 19.1 19.8271 19.6348C19.5875 20.1051 19.2057 20.4879 18.7354 20.7275C18.2006 21 17.4997 21 16.0996 21H7.90039C6.50026 21 5.79943 21 5.26465 20.7275C4.79441 20.4878 4.41247 20.105 4.17285 19.6348C3.9004 19.1 3.90039 18.4001 3.90039 17V7C3.90039 5.59992 3.9004 4.90001 4.17285 4.36523C4.41247 3.89495 4.79441 3.51216 5.26465 3.27246C5.79943 2.99998 6.50026 3 7.90039 3H16.1006ZM7.9502 14.8496C7.5362 14.8497 7.20041 15.1856 7.2002 15.5996C7.2002 16.0138 7.53607 16.3495 7.9502 16.3496H16.0498C16.4639 16.3495 16.7998 16.0138 16.7998 15.5996C16.7996 15.1856 16.4638 14.8497 16.0498 14.8496H7.9502ZM7.94922 11.25C7.53536 11.2504 7.19922 11.586 7.19922 12C7.19922 12.414 7.53536 12.7496 7.94922 12.75H13.3496C13.7637 12.7499 14.0996 12.4141 14.0996 12C14.0996 11.5859 13.7637 11.2501 13.3496 11.25H7.94922ZM7.9502 7.65039C7.53607 7.6505 7.2002 7.98624 7.2002 8.40039C7.20041 8.81436 7.5362 9.15029 7.9502 9.15039H16.0498C16.4638 9.15028 16.7996 8.81436 16.7998 8.40039C16.7998 7.98624 16.4639 7.6505 16.0498 7.65039H7.9502Z" fill="white"/>
</svg>
