<svg width="24" height="24" viewBox="0 0 24 24" fill="none" xmlns="http://www.w3.org/2000/svg">
<path d="M19.875 18C20.3582 18 20.75 18.3918 20.75 18.875C20.75 19.3582 20.3582 19.75 19.875 19.75H3.875C3.39175 19.75 3 19.3582 3 18.875C3 18.3918 3.39175 18 3.875 18H19.875Z" fill="white"/>
<path d="M19.875 11.5C20.3582 11.5 20.75 11.8918 20.75 12.375C20.75 12.8582 20.3582 13.25 19.875 13.25H3.875C3.39175 13.25 3 12.8582 3 12.375C3 11.8918 3.39175 11.5 3.875 11.5H19.875Z" fill="white"/>
<path d="M19.875 5C20.3582 5 20.75 5.39175 20.75 5.875C20.75 6.35825 20.3582 6.75 19.875 6.75H3.875C3.39175 6.75 3 6.35825 3 5.875C3 5.39175 3.39175 5 3.875 5H19.875Z" fill="white"/>
</svg>
