<svg width="24" height="24" viewBox="0 0 24 24" fill="none" xmlns="http://www.w3.org/2000/svg">
<path fill-rule="evenodd" clip-rule="evenodd" d="M11.0156 2.57361C11.6506 2.33061 12.3504 2.33061 12.9854 2.57361L18.9854 4.87537L18.9863 4.87439C20.042 5.27848 20.7509 6.31001 20.751 7.44079V10.2767C20.751 15.2467 17.6247 19.7593 12.9707 21.5043C12.6568 21.6222 12.3269 21.681 12 21.681C11.6731 21.681 11.3461 21.6232 11.0352 21.5062C6.37716 19.7592 3.25098 15.2477 3.25098 10.2777V7.44177C3.25106 6.31202 3.95994 5.28047 5.01562 4.87537L11.0156 2.57361ZM15.4941 9.43591C15.1825 9.16319 14.7083 9.19463 14.4355 9.50622L11.4629 12.9027L9.53027 10.9701C9.23738 10.6772 8.76262 10.6772 8.46973 10.9701C8.17702 11.263 8.17689 11.7378 8.46973 12.0306L10.9697 14.5306C11.1165 14.6773 11.318 14.7573 11.5254 14.7504C11.7325 14.7434 11.9279 14.6504 12.0645 14.4945L15.5645 10.4945C15.8371 10.1829 15.8056 9.70872 15.4941 9.43591Z" fill="white"/>
</svg>
