<svg width="18" height="18" viewBox="0 0 18 18" fill="none" xmlns="http://www.w3.org/2000/svg">
<path d="M7.66699 2.5C8.34532 2.50004 9.01685 2.63399 9.64355 2.89355C10.2704 3.1532 10.8405 3.5339 11.3203 4.01367C11.7999 4.49337 12.1808 5.06275 12.4404 5.68945C12.7 6.31627 12.833 6.98854 12.833 7.66699C12.833 8.34523 12.6999 9.01692 12.4404 9.64355C12.2448 10.1159 11.98 10.5557 11.6562 10.9492L15.3535 14.6465C15.5488 14.8417 15.5488 15.1583 15.3535 15.3535C15.1583 15.5488 14.8417 15.5488 14.6465 15.3535L10.9492 11.6562C10.5557 11.98 10.1159 12.2448 9.64355 12.4404C9.01692 12.6999 8.34523 12.833 7.66699 12.833C6.98854 12.833 6.31627 12.7 5.68945 12.4404C5.06275 12.1808 4.49337 11.7999 4.01367 11.3203C3.5339 10.8405 3.1532 10.2704 2.89355 9.64355C2.63399 9.01685 2.50004 8.34532 2.5 7.66699C2.5 6.9885 2.63391 6.3163 2.89355 5.68945C3.1532 5.06265 3.53393 4.49341 4.01367 4.01367C4.49341 3.53393 5.06265 3.1532 5.68945 2.89355C6.3163 2.63391 6.9885 2.5 7.66699 2.5ZM7.66699 3.5C7.11983 3.5 6.57778 3.60799 6.07227 3.81738C5.56674 4.02678 5.10761 4.33379 4.7207 4.7207C4.33379 5.10761 4.02678 5.56674 3.81738 6.07227C3.60799 6.57778 3.5 7.11983 3.5 7.66699C3.50004 8.21395 3.60811 8.7554 3.81738 9.26074C4.02678 9.76627 4.33379 10.2264 4.7207 10.6133C5.10755 11 5.56688 11.3073 6.07227 11.5166C6.57772 11.7259 7.11991 11.833 7.66699 11.833C8.21387 11.833 8.75547 11.7258 9.26074 11.5166C9.76626 11.3072 10.2264 11.0002 10.6133 10.6133C11.0002 10.2264 11.3072 9.76626 11.5166 9.26074C11.7258 8.75547 11.833 8.21387 11.833 7.66699C11.833 7.11991 11.7259 6.57772 11.5166 6.07227C11.3073 5.56688 11 5.10755 10.6133 4.7207C10.2264 4.33379 9.76627 4.02678 9.26074 3.81738C8.7554 3.60811 8.21395 3.50004 7.66699 3.5Z" fill="#212126"/>
</svg>
