<svg width="18" height="18" viewBox="0 0 18 18" fill="none" xmlns="http://www.w3.org/2000/svg">
<path d="M10.333 2.5C10.6424 2.5 10.9394 2.623 11.1582 2.8418C11.377 3.06059 11.5 3.35757 11.5 3.66699V5.16699H14.334C14.6099 5.1673 14.834 5.39104 14.834 5.66699C14.8338 5.94278 14.6097 6.16669 14.334 6.16699H14.127L13.498 13.709C13.4872 14.1797 13.2965 14.6291 12.9629 14.9629C12.6191 15.3065 12.1521 15.5 11.666 15.5H6.33301C5.84689 15.4999 5.38086 15.3066 5.03711 14.9629C4.70307 14.6288 4.51259 14.1792 4.50195 13.708L4.50098 13.709L3.87305 6.16699H3.66699C3.39097 6.16699 3.16719 5.94297 3.16699 5.66699C3.16699 5.39085 3.39085 5.16699 3.66699 5.16699H6.5V3.66699C6.5 3.35757 6.623 3.06059 6.8418 2.8418C7.06059 2.623 7.35757 2.5 7.66699 2.5H10.333ZM5.49805 13.625C5.49918 13.6387 5.5 13.6532 5.5 13.667C5.5001 13.8879 5.58795 14.0997 5.74414 14.2559C5.90036 14.412 6.11211 14.4999 6.33301 14.5H11.666C11.8869 14.5 12.0996 14.4119 12.2559 14.2559C12.4118 14.0997 12.4999 13.8877 12.5 13.667C12.5 13.6533 12.4999 13.6387 12.501 13.625L13.123 6.16699H4.87598L5.49805 13.625ZM7.66699 7.83301C7.9429 7.83314 8.16679 8.05712 8.16699 8.33301V12.333C8.16699 12.6091 7.94302 12.8329 7.66699 12.833C7.39085 12.833 7.16699 12.6091 7.16699 12.333V8.33301C7.16719 8.05703 7.39097 7.83301 7.66699 7.83301ZM10.333 7.83301C10.609 7.83301 10.8328 8.05703 10.833 8.33301V12.333C10.833 12.6091 10.6092 12.833 10.333 12.833C10.057 12.8329 9.83301 12.6091 9.83301 12.333V8.33301C9.83321 8.05712 10.0571 7.83314 10.333 7.83301ZM7.66699 3.5C7.62279 3.5 7.58008 3.51757 7.54883 3.54883C7.51757 3.58008 7.5 3.62279 7.5 3.66699V5.16699H10.5V3.66699C10.5 3.62279 10.4824 3.58008 10.4512 3.54883C10.4199 3.51757 10.3772 3.5 10.333 3.5H7.66699Z" fill="#212126"/>
</svg>
