<svg width="24" height="24" viewBox="0 0 24 24" fill="none" xmlns="http://www.w3.org/2000/svg">
<path d="M13.5 14.25C17.2279 14.25 20.25 17.2721 20.25 21C20.25 21.4142 19.9142 21.75 19.5 21.75C19.0858 21.75 18.75 21.4142 18.75 21C18.75 18.1005 16.3995 15.75 13.5 15.75H10.5C7.60051 15.75 5.25 18.1005 5.25 21C5.25 21.4142 4.91421 21.75 4.5 21.75C4.08579 21.75 3.75 21.4142 3.75 21C3.75 17.2721 6.77208 14.25 10.5 14.25H13.5ZM12 3C14.4853 3 16.5 5.01472 16.5 7.5C16.5 9.98528 14.4853 12 12 12C9.51472 12 7.5 9.98528 7.5 7.5C7.5 5.01472 9.51472 3 12 3ZM12 4.5C10.3431 4.5 9 5.84315 9 7.5C9 9.15685 10.3431 10.5 12 10.5C13.6569 10.5 15 9.15685 15 7.5C15 5.84315 13.6569 4.5 12 4.5Z" fill="#4F4F55"/>
</svg>
