<svg width="24" height="24" viewBox="0 0 24 24" fill="none" xmlns="http://www.w3.org/2000/svg">
<path fill-rule="evenodd" clip-rule="evenodd" d="M12 0.75C18.2132 0.75 23.25 5.7868 23.25 12C23.25 18.2132 18.2132 23.25 12 23.25C5.7868 23.25 0.75 18.2132 0.75 12C0.75 5.7868 5.7868 0.75 12 0.75ZM12 2.73895C6.88526 2.73895 2.73895 6.88526 2.73895 12C2.73895 17.1147 6.88526 21.261 12 21.261C17.1147 21.261 21.261 17.1147 21.261 12C21.261 6.88526 17.1147 2.73895 12 2.73895Z" fill="white"/>
<path d="M12.0009 12.3496C15.7261 12.3496 19.0485 14.5276 20.5749 17.8352L20.7215 18.1697L18.7843 18.9746C17.6549 16.2562 14.9953 14.4473 12.0009 14.4473C9.05324 14.4473 6.43367 16.2004 5.27561 18.8385L5.15301 19.1352L3.19727 18.3766C4.59492 14.7734 8.07111 12.3496 12.0009 12.3496Z" fill="white"/>
<path d="M12 5.00781C14.317 5.00781 16.1952 6.88611 16.1953 9.20312C16.1953 11.5202 14.3171 13.3984 12 13.3984C9.68298 13.3984 7.80469 11.5202 7.80469 9.20312C7.80476 6.88615 9.68302 5.00788 12 5.00781ZM12 7.10547C10.8416 7.10554 9.90241 8.04469 9.90234 9.20312C9.90234 10.3616 10.8415 11.3007 12 11.3008C13.1585 11.3008 14.0977 10.3617 14.0977 9.20312C14.0976 8.04465 13.1585 7.10547 12 7.10547Z" fill="white"/>
</svg>
