<svg width="32" height="32" viewBox="0 0 32 32" fill="none" xmlns="http://www.w3.org/2000/svg">
<path d="M8.5 25.9996C7.39543 25.9996 6.47321 25.0887 6.7594 24.0219C7.63098 20.7728 10.5984 18.3805 14.125 18.3805C17.6516 18.3805 20.619 20.7728 21.4906 24.0219C21.7768 25.0887 20.8546 25.9996 19.75 25.9996H8.5ZM14.125 16.2139C11.6388 16.2139 9.625 14.2001 9.625 11.7139C9.625 9.22762 11.6388 7.21387 14.125 7.21387C16.6113 7.21387 18.625 9.22762 18.625 11.7139C18.625 14.2001 16.6113 16.2139 14.125 16.2139Z" fill="url(#paint0_linear_4562_95204)"/>
<path d="M21.1427 19.5555C23.744 20.2198 25.7742 22.3098 26.3506 24.9433C26.4742 25.5081 26.0101 26.0001 25.4319 26.0001H24.6563C24.104 26.0001 23.6618 25.5511 23.6045 25.0017C23.3865 22.911 22.4916 21.0214 21.1427 19.5555ZM18.4121 16.6781C19.8544 15.4949 20.7619 13.7773 20.7619 11.8659C20.7619 10.721 20.4362 9.64556 19.8651 8.71289C21.8885 9.08215 23.4121 10.7145 23.4121 12.6738C23.4121 14.9054 21.4355 16.7129 18.995 16.7129C18.7974 16.7129 18.6028 16.701 18.4121 16.6781Z" fill="url(#paint1_linear_4562_95204)"/>
<defs>
<linearGradient id="paint0_linear_4562_95204" x1="4" y1="-3.00098" x2="25.8857" y2="40.0571" gradientUnits="userSpaceOnUse">
<stop stop-color="#A8C4FF"/>
<stop offset="1" stop-color="#4A81F7"/>
</linearGradient>
<linearGradient id="paint1_linear_4562_95204" x1="23.6243" y1="24.5788" x2="19.2305" y2="9.02136" gradientUnits="userSpaceOnUse">
<stop stop-color="#A8C4FF"/>
<stop offset="1" stop-color="#8BB0FD"/>
</linearGradient>
</defs>
</svg>
