<svg width="28" height="28" viewBox="0 0 28 28" fill="none" xmlns="http://www.w3.org/2000/svg">
<g clip-path="url(#clip0_3377_18213)">
<path d="M4 5.9934C4 5.44476 4.45531 5 4.9918 5H23.0082C23.556 5 24 5.44495 24 5.9934V22.0066C24 22.5552 23.5447 23 23.0082 23H4.9918C4.44405 23 4 22.5551 4 22.0066V5.9934ZM6 7V21H22V7H6ZM12.6219 10.4146L17.5008 13.6672C17.6846 13.7897 17.7343 14.0381 17.6117 14.2219C17.5824 14.2658 17.5447 14.3035 17.5008 14.3328L12.6219 17.5854C12.4381 17.708 12.1897 17.6583 12.0672 17.4745C12.0234 17.4088 12 17.3316 12 17.2526V10.7474C12 10.5265 12.1791 10.3474 12.4 10.3474C12.479 10.3474 12.5562 10.3708 12.6219 10.4146Z" fill="#4F4F55"/>
</g>
<defs>
<clipPath id="clip0_3377_18213">
<rect width="28" height="28" fill="white"/>
</clipPath>
</defs>
</svg>
