<svg width="16" height="16" viewBox="0 0 16 16" fill="none" xmlns="http://www.w3.org/2000/svg">
<path d="M15 16.002H1C0.734784 16.002 0.48043 15.8966 0.292893 15.7091C0.105357 15.5215 0 15.2672 0 15.002V14.002C0 13.182 0.52 12.002 3 11.002C4.59657 10.3829 6.28815 10.0446 8 10.002C9.71185 10.0446 11.4034 10.3829 13 11.002C15.478 11.996 16 13.181 16 14.002V15.002C16 15.2672 15.8946 15.5215 15.7071 15.7091C15.5196 15.8966 15.2652 16.002 15 16.002ZM8 8.00196C7.20887 8.00196 6.43552 7.76736 5.77772 7.32783C5.11992 6.88831 4.60723 6.26359 4.30448 5.53269C4.00173 4.80178 3.92252 3.99752 4.07686 3.22159C4.2312 2.44567 4.61216 1.73294 5.17157 1.17353C5.73098 0.614118 6.44371 0.233155 7.21964 0.0788138C7.99556 -0.0755271 8.79983 0.00368625 9.53073 0.306437C10.2616 0.609187 10.8864 1.12188 11.3259 1.77967C11.7654 2.43747 12 3.21083 12 4.00196C12 5.06282 11.5786 6.08024 10.8284 6.83038C10.0783 7.58053 9.06087 8.00196 8 8.00196Z" fill="white" fill-opacity="0.5"/>
</svg>
