<svg width="45" height="39" viewBox="0 0 45 39" fill="none" xmlns="http://www.w3.org/2000/svg">
<path d="M23.8867 1.36586L23.8799 1.3619L23.8731 1.35804C22.564 0.619288 20.8603 1.05515 20.0989 2.38349C20.0984 2.38432 20.098 2.38516 20.0975 2.38599L1.8671 33.8818C1.86672 33.8825 1.86633 33.8831 1.86595 33.8838C1.62536 34.2965 1.5 34.7673 1.5 35.2476C1.5 36.7818 2.75146 38 4.27438 38H40.7244C41.2074 38 41.6731 37.8764 42.0876 37.649L42.0937 37.6456C43.4357 36.8972 43.8915 35.2106 43.1363 33.8899L43.1338 33.8855L24.9088 2.38162L24.9088 2.38156C24.652 1.93773 24.2893 1.60149 23.8867 1.36586Z" fill="#FEBB2B" fill-opacity="0.2" stroke="#FEBB2B" stroke-width="2" stroke-miterlimit="10"/>
</svg>
