<svg width="57" height="56" viewBox="0 0 57 56" fill="none" xmlns="http://www.w3.org/2000/svg">
<path d="M14.3821 46.7742C13.5002 46.7746 12.6342 46.5348 11.8772 46.0774C11.1201 45.62 10.5003 44.962 10.0829 44.1765L9.50566 44.7802V14.5616C9.44147 13.1663 9.9256 11.8046 10.853 10.7693C11.7803 9.73397 13.0755 9.11173 14.4551 9.03853L45.5 9L42.4605 12.5653V42.0678C42.4605 43.3759 41.9462 44.6301 41.0314 45.555C40.1166 46.48 38.8762 47 37.5825 47L14.3821 46.7742Z" fill="url(#paint0_linear_1596_25122)"/>
<path d="M38.5 47H13.368C8.58372 47 6.5 46.199 6.5 42.875V41.9375C6.5 41.2925 6.80598 41 7.48112 41H31.632C31.8944 41.0017 32.1538 41.0518 32.395 41.1474C32.6363 41.2429 32.8546 41.382 33.0372 41.5565C33.2199 41.731 33.3632 41.9375 33.4589 42.1639C33.5545 42.3902 33.6005 42.632 33.5943 42.875C33.8792 45.857 35.121 47 38.5 47Z" fill="#B3CEFB"/>
<path d="M42.5 12.5997C42.5 10.5989 43.4329 9 45.4997 9C47.5666 9 48.4995 10.5989 48.4995 12.5997V14.3995C48.5029 14.4792 48.4897 14.5588 48.4607 14.6331C48.4318 14.7074 48.3877 14.7749 48.3313 14.8313C48.2749 14.8877 48.2074 14.9318 48.1331 14.9607C48.0587 14.9897 47.9792 15.0029 47.8995 14.9995H42.5V12.5997Z" fill="#B3CEFB"/>
<rect x="14.5" y="31" width="22" height="2" rx="1" fill="#ACCBFF"/>
<rect x="14.5" y="36" width="22" height="2" rx="1" fill="#ACCBFF"/>
<path d="M14.7345 25.7539L17.257 18.3301H19.5744L22.0866 25.7539H20.2101L19.7077 24.1646H17.1237L16.6212 25.7539H14.7345ZM19.2872 22.8315L18.4464 20.1655H18.3849L17.5441 22.8315H19.2872ZM21.7925 25.7539L24.3149 18.3301H26.6323L29.1445 25.7539H27.2681L26.7656 24.1646H24.1816L23.6792 25.7539H21.7925ZM26.3452 22.8315L25.5044 20.1655H25.4429L24.6021 22.8315H26.3452ZM28.8504 25.7539L31.3729 18.3301H33.6903L36.2025 25.7539H34.326L33.8236 24.1646H31.2396L30.7372 25.7539H28.8504ZM33.4032 22.8315L32.5624 20.1655H32.5008L31.66 22.8315H33.4032Z" fill="#4E7AD9"/>
<g filter="url(#filter0_d_1596_25122)">
<circle cx="41.5" cy="41" r="10" fill="#9C78F4"/>
</g>
<path fill-rule="evenodd" clip-rule="evenodd" d="M45.8037 41.4774C45.4228 41.0583 44.7743 41.0274 44.3553 41.4083L42.5267 43.0703L42.5267 36.3086C42.5267 35.7423 42.0676 35.2832 41.5013 35.2832C40.935 35.2832 40.4759 35.7423 40.4759 36.3086L40.4759 43.0728L38.6446 41.4083C38.2256 41.0274 37.5771 41.0584 37.1962 41.4774C36.8153 41.8965 36.8462 42.545 37.2653 42.9259L40.8024 46.1408C41.0318 46.3542 41.3379 46.444 41.6319 46.4061C41.8397 46.3792 42.0403 46.2889 42.202 46.1366L45.7346 42.9258C46.1537 42.5449 46.1846 41.8964 45.8037 41.4774Z" fill="white"/>
<defs>
<filter id="filter0_d_1596_25122" x="28.5" y="30" width="26" height="26" filterUnits="userSpaceOnUse" color-interpolation-filters="sRGB">
<feFlood flood-opacity="0" result="BackgroundImageFix"/>
<feColorMatrix in="SourceAlpha" type="matrix" values="0 0 0 0 0 0 0 0 0 0 0 0 0 0 0 0 0 0 127 0" result="hardAlpha"/>
<feOffset dy="2"/>
<feGaussianBlur stdDeviation="1.5"/>
<feComposite in2="hardAlpha" operator="out"/>
<feColorMatrix type="matrix" values="0 0 0 0 0.113725 0 0 0 0 0.313726 0 0 0 0 0.631373 0 0 0 0.25 0"/>
<feBlend mode="normal" in2="BackgroundImageFix" result="effect1_dropShadow_1596_25122"/>
<feBlend mode="normal" in="SourceGraphic" in2="effect1_dropShadow_1596_25122" result="shape"/>
</filter>
<linearGradient id="paint0_linear_1596_25122" x1="34.0005" y1="9" x2="25.8857" y2="81.1061" gradientUnits="userSpaceOnUse">
<stop stop-color="#EEF4FF"/>
<stop offset="1" stop-color="#D7E5FF"/>
</linearGradient>
</defs>
</svg>
