<svg width="48" height="48" viewBox="0 0 48 48" fill="none" xmlns="http://www.w3.org/2000/svg">
<path d="M0 8C0 3.58172 3.58172 0 8 0H40C44.4183 0 48 3.58172 48 8V40C48 44.4183 44.4183 48 40 48H8C3.58172 48 0 44.4183 0 40V8Z" fill="#F2F5FF"/>
<path d="M30.998 34.9963V18.9963H33.998V34.9963H30.998ZM21.998 34.9963V18.9963H25.998V34.9963H21.998ZM13.998 34.9963V18.9963H16.998V34.9963H13.998Z" fill="#CDD2ED"/>
<path d="M24 9.99976C26.9174 9.99976 29.7153 11.1587 31.7782 13.2216C33.8411 15.2845 35 18.0824 35 20.9998H13C13 18.0824 14.1589 15.2845 16.2218 13.2216C18.2847 11.1587 21.0826 9.99976 24 9.99976Z" fill="#CDD2ED"/>
<path d="M12 36.0004C11.7348 36.0004 11.4803 35.8949 11.2927 35.7074C11.1052 35.5199 11 35.2656 11 35.0004V34.0004C11 33.7351 11.1052 33.4809 11.2927 33.2933C11.4803 33.1058 11.7348 33.0004 12 33.0004H36C36.2652 33.0004 36.5195 33.1058 36.707 33.2933C36.8946 33.4809 37 33.7351 37 34.0004V35.0004C37 35.2656 36.8946 35.5199 36.707 35.7074C36.5195 35.8949 36.2652 36.0004 36 36.0004H12ZM11.5 22.0004C11.3674 22.0004 11.24 21.9476 11.1462 21.8539C11.0525 21.7601 11 21.633 11 21.5004V20.5004C11 20.1025 11.1579 19.7211 11.4392 19.4398C11.7205 19.1585 12.1022 19.0004 12.5 19.0004H35.5C35.8978 19.0004 36.2792 19.1585 36.5605 19.4398C36.8419 19.7211 37 20.1025 37 20.5004V21.5004C37 21.633 36.9473 21.7601 36.8535 21.8539C36.7597 21.9476 36.6326 22.0004 36.5 22.0004H11.5Z" fill="url(#paint0_linear_1274_14760)"/>
<g filter="url(#filter0_di_1274_14760)">
<rect x="27" y="27" width="14" height="14" rx="7" fill="white"/>
</g>
<g clip-path="url(#clip0_1274_14760)">
<path d="M37.4886 33.6806C36.3082 32.8535 34.797 33.1907 34.0043 34.4339C33.3413 35.4723 32.3424 35.6008 31.9548 35.6008C30.6929 35.6008 29.8286 34.6859 29.5731 33.7391C29.5706 33.7302 29.5681 33.7226 29.5657 33.7124C29.5632 33.7022 29.5607 33.6921 29.557 33.6806C29.457 33.2861 29.4311 33.0965 29.4311 32.6779C29.4311 30.4141 31.6856 27.8933 34.9316 27.8933C38.1775 27.8933 40.1579 30.5019 40.6481 31.9513C40.6395 31.9258 40.6321 31.9004 40.6234 31.8737C39.6801 29.0385 37.0713 27 34.0006 27C30.1348 27 27 30.2296 27 34.2138C27 37.7755 29.4928 40.8244 32.9499 40.8244C35.7069 40.8244 37.5602 39.2312 38.4109 37.0349C38.8776 35.8337 38.5467 34.4225 37.4886 33.6806Z" fill="#003863"/>
<path d="M40.6914 32.0913C40.2827 30.6775 38.3665 27.8933 34.9316 27.8933C31.6857 27.8933 29.4312 30.4141 29.4312 32.6779C29.4312 33.0978 29.4558 33.2861 29.5571 33.6806C29.5151 33.5076 29.4929 33.3345 29.4929 33.1665C29.4929 30.8086 31.7832 29.1747 34.139 29.1747C37.3269 29.1747 39.9111 31.838 39.9111 35.1224C39.9111 37.6979 38.4739 39.926 36.3836 40.9975C39.0764 39.9947 41.0001 37.3352 41.0001 34.2138C41.0001 33.4745 40.9038 32.8242 40.6914 32.0913Z" fill="#E4032E"/>
</g>
<defs>
<filter id="filter0_di_1274_14760" x="25.5" y="26" width="16" height="16" filterUnits="userSpaceOnUse" color-interpolation-filters="sRGB">
<feFlood flood-opacity="0" result="BackgroundImageFix"/>
<feColorMatrix in="SourceAlpha" type="matrix" values="0 0 0 0 0 0 0 0 0 0 0 0 0 0 0 0 0 0 127 0" result="hardAlpha"/>
<feOffset dx="-0.5"/>
<feGaussianBlur stdDeviation="0.5"/>
<feComposite in2="hardAlpha" operator="out"/>
<feColorMatrix type="matrix" values="0 0 0 0 0.0784314 0 0 0 0 0.168627 0 0 0 0 0.313726 0 0 0 0.16 0"/>
<feBlend mode="normal" in2="BackgroundImageFix" result="effect1_dropShadow_1274_14760"/>
<feBlend mode="normal" in="SourceGraphic" in2="effect1_dropShadow_1274_14760" result="shape"/>
<feColorMatrix in="SourceAlpha" type="matrix" values="0 0 0 0 0 0 0 0 0 0 0 0 0 0 0 0 0 0 127 0" result="hardAlpha"/>
<feOffset dx="0.2" dy="0.2"/>
<feGaussianBlur stdDeviation="0.5"/>
<feComposite in2="hardAlpha" operator="arithmetic" k2="-1" k3="1"/>
<feColorMatrix type="matrix" values="0 0 0 0 1 0 0 0 0 1 0 0 0 0 1 0 0 0 0.5 0"/>
<feBlend mode="normal" in2="shape" result="effect2_innerShadow_1274_14760"/>
</filter>
<linearGradient id="paint0_linear_1274_14760" x1="11" y1="14.9999" x2="37" y2="39.4999" gradientUnits="userSpaceOnUse">
<stop stop-color="#C6CBE3"/>
<stop offset="1" stop-color="#888FC2"/>
</linearGradient>
<clipPath id="clip0_1274_14760">
<rect width="14" height="14" fill="white" transform="translate(27 27)"/>
</clipPath>
</defs>
</svg>
