<svg width="36" height="42" viewBox="0 0 36 42" fill="none" xmlns="http://www.w3.org/2000/svg">
<g filter="url(#filter0_d_2518_6746)">
<rect x="4" y="2" width="28" height="34" rx="4" fill="url(#paint0_linear_2518_6746)"/>
</g>
<g filter="url(#filter1_i_2518_6746)">
<path d="M15.1429 26.9995H20.8571C21.1602 26.9995 21.4509 27.135 21.6653 27.3761C21.8796 27.6172 22 27.9442 22 28.2852V35.9995H14V28.2852C14 27.9442 14.1204 27.6172 14.3347 27.3761C14.5491 27.135 14.8398 26.9995 15.1429 26.9995Z" fill="#4E7AD9"/>
</g>
<path d="M13.333 16C13.5098 16 13.6797 16.0703 13.8047 16.1953C13.9297 16.3203 14 16.4902 14 16.667V19.333C14 19.5098 13.9297 19.6797 13.8047 19.8047C13.6797 19.9297 13.5098 20 13.333 20H10.667C10.4902 20 10.3203 19.9297 10.1953 19.8047C10.0703 19.6797 10 19.5098 10 19.333V16.667C10 16.4902 10.0703 16.3203 10.1953 16.1953C10.3203 16.0703 10.4902 16 10.667 16H13.333ZM19.333 16C19.5098 16 19.6797 16.0703 19.8047 16.1953C19.9297 16.3203 20 16.4902 20 16.667V19.333C20 19.5098 19.9297 19.6797 19.8047 19.8047C19.6797 19.9297 19.5098 20 19.333 20H16.667C16.4902 20 16.3203 19.9297 16.1953 19.8047C16.0703 19.6797 16 19.5098 16 19.333V16.667C16 16.4902 16.0703 16.3203 16.1953 16.1953C16.3203 16.0703 16.4902 16 16.667 16H19.333ZM25.333 16C25.5098 16 25.6797 16.0703 25.8047 16.1953C25.9297 16.3203 26 16.4902 26 16.667V19.333C26 19.5098 25.9297 19.6797 25.8047 19.8047C25.6797 19.9297 25.5098 20 25.333 20H22.667C22.4902 20 22.3203 19.9297 22.1953 19.8047C22.0703 19.6797 22 19.5098 22 19.333V16.667C22 16.4902 22.0703 16.3203 22.1953 16.1953C22.3203 16.0703 22.4902 16 22.667 16H25.333ZM13.333 9C13.5098 9 13.6797 9.07029 13.8047 9.19531C13.9297 9.32034 14 9.49018 14 9.66699V12.333C14 12.5098 13.9297 12.6797 13.8047 12.8047C13.6797 12.9297 13.5098 13 13.333 13H10.667C10.4902 13 10.3203 12.9297 10.1953 12.8047C10.0703 12.6797 10 12.5098 10 12.333V9.66699C10 9.49018 10.0703 9.32034 10.1953 9.19531C10.3203 9.07029 10.4902 9 10.667 9H13.333ZM19.333 9C19.5098 9 19.6797 9.07029 19.8047 9.19531C19.9297 9.32034 20 9.49018 20 9.66699V12.333C20 12.5098 19.9297 12.6797 19.8047 12.8047C19.6797 12.9297 19.5098 13 19.333 13H16.667C16.4902 13 16.3203 12.9297 16.1953 12.8047C16.0703 12.6797 16 12.5098 16 12.333V9.66699C16 9.49018 16.0703 9.32034 16.1953 9.19531C16.3203 9.07029 16.4902 9 16.667 9H19.333ZM25.333 9C25.5098 9 25.6797 9.07029 25.8047 9.19531C25.9297 9.32034 26 9.49018 26 9.66699V12.333C26 12.5098 25.9297 12.6797 25.8047 12.8047C25.6797 12.9297 25.5098 13 25.333 13H22.667C22.4902 13 22.3203 12.9297 22.1953 12.8047C22.0703 12.6797 22 12.5098 22 12.333V9.66699C22 9.49018 22.0703 9.32034 22.1953 9.19531C22.3203 9.07029 22.4902 9 22.667 9H25.333Z" fill="white"/>
<defs>
<filter id="filter0_d_2518_6746" x="0" y="0" width="36" height="42" filterUnits="userSpaceOnUse" color-interpolation-filters="sRGB">
<feFlood flood-opacity="0" result="BackgroundImageFix"/>
<feColorMatrix in="SourceAlpha" type="matrix" values="0 0 0 0 0 0 0 0 0 0 0 0 0 0 0 0 0 0 127 0" result="hardAlpha"/>
<feOffset dy="2"/>
<feGaussianBlur stdDeviation="2"/>
<feComposite in2="hardAlpha" operator="out"/>
<feColorMatrix type="matrix" values="0 0 0 0 0.068138 0 0 0 0 0.324803 0 0 0 0 0.59917 0 0 0 0.1 0"/>
<feBlend mode="normal" in2="BackgroundImageFix" result="effect1_dropShadow_2518_6746"/>
<feBlend mode="normal" in="SourceGraphic" in2="effect1_dropShadow_2518_6746" result="shape"/>
</filter>
<filter id="filter1_i_2518_6746" x="14" y="26.9995" width="8.2" height="9.2" filterUnits="userSpaceOnUse" color-interpolation-filters="sRGB">
<feFlood flood-opacity="0" result="BackgroundImageFix"/>
<feBlend mode="normal" in="SourceGraphic" in2="BackgroundImageFix" result="shape"/>
<feColorMatrix in="SourceAlpha" type="matrix" values="0 0 0 0 0 0 0 0 0 0 0 0 0 0 0 0 0 0 127 0" result="hardAlpha"/>
<feOffset dx="0.2" dy="0.2"/>
<feGaussianBlur stdDeviation="0.5"/>
<feComposite in2="hardAlpha" operator="arithmetic" k2="-1" k3="1"/>
<feColorMatrix type="matrix" values="0 0 0 0 0 0 0 0 0 0 0 0 0 0 0 0 0 0 0.16 0"/>
<feBlend mode="normal" in2="shape" result="effect1_innerShadow_2518_6746"/>
</filter>
<linearGradient id="paint0_linear_2518_6746" x1="10.65" y1="6.25" x2="28.1461" y2="30.8962" gradientUnits="userSpaceOnUse">
<stop stop-color="#B6CDFE"/>
<stop offset="1" stop-color="#6191F8"/>
</linearGradient>
</defs>
</svg>
