<svg width="48" height="48" viewBox="0 0 48 48" fill="none" xmlns="http://www.w3.org/2000/svg">
<rect width="48" height="48" rx="8" fill="#EEF1F8"/>
<g filter="url(#filter0_d_1279_36787)">
<rect x="8" y="6.5" width="32" height="35" rx="4" fill="#FDFDFD"/>
</g>
<mask id="path-3-outside-1_1279_36787" maskUnits="userSpaceOnUse" x="11.5" y="10.6753" width="26" height="17" fill="black">
<rect fill="white" x="11.5" y="10.6753" width="26" height="17"/>
<path d="M33.4437 25.4323C33.9818 25.5567 34.5239 25.2215 34.597 24.6741C34.7637 23.4268 34.7072 22.157 34.4274 20.9247C34.0737 19.3665 33.3721 17.9085 32.3752 16.6599C31.3782 15.4112 30.1118 14.4042 28.6707 13.7142C27.2295 13.0242 25.651 12.669 24.0532 12.6754C22.4554 12.6817 20.8797 13.0493 19.4441 13.7508C18.0084 14.4522 16.75 15.4692 15.763 16.7258C14.7761 17.9823 14.0861 19.4458 13.7447 21.0067C13.4747 22.2412 13.4283 23.5114 13.6048 24.7573C13.6823 25.3042 14.2271 25.6351 14.7641 25.5064L17.6779 24.8082C18.215 24.6795 18.5365 24.1385 18.5052 23.5871C18.4766 23.0812 18.5166 22.5722 18.6256 22.0742C18.806 21.2494 19.1706 20.476 19.6922 19.812C20.2137 19.148 20.8787 18.6105 21.6374 18.2399C22.396 17.8692 23.2286 17.675 24.073 17.6716C24.9173 17.6683 25.7515 17.8559 26.5131 18.2206C27.2746 18.5852 27.9439 19.1173 28.4707 19.7772C28.9975 20.437 29.3682 21.2075 29.5552 22.0309C29.668 22.528 29.7121 23.0366 29.6875 23.5427C29.6606 24.0944 29.9864 24.6328 30.5245 24.7572L33.4437 25.4323Z"/>
</mask>
<path d="M33.4437 25.4323C33.9818 25.5567 34.5239 25.2215 34.597 24.6741C34.7637 23.4268 34.7072 22.157 34.4274 20.9247C34.0737 19.3665 33.3721 17.9085 32.3752 16.6599C31.3782 15.4112 30.1118 14.4042 28.6707 13.7142C27.2295 13.0242 25.651 12.669 24.0532 12.6754C22.4554 12.6817 20.8797 13.0493 19.4441 13.7508C18.0084 14.4522 16.75 15.4692 15.763 16.7258C14.7761 17.9823 14.0861 19.4458 13.7447 21.0067C13.4747 22.2412 13.4283 23.5114 13.6048 24.7573C13.6823 25.3042 14.2271 25.6351 14.7641 25.5064L17.6779 24.8082C18.215 24.6795 18.5365 24.1385 18.5052 23.5871C18.4766 23.0812 18.5166 22.5722 18.6256 22.0742C18.806 21.2494 19.1706 20.476 19.6922 19.812C20.2137 19.148 20.8787 18.6105 21.6374 18.2399C22.396 17.8692 23.2286 17.675 24.073 17.6716C24.9173 17.6683 25.7515 17.8559 26.5131 18.2206C27.2746 18.5852 27.9439 19.1173 28.4707 19.7772C28.9975 20.437 29.3682 21.2075 29.5552 22.0309C29.668 22.528 29.7121 23.0366 29.6875 23.5427C29.6606 24.0944 29.9864 24.6328 30.5245 24.7572L33.4437 25.4323Z" fill="url(#paint0_linear_1279_36787)"/>
<path d="M33.4437 25.4323C33.9818 25.5567 34.5239 25.2215 34.597 24.6741C34.7637 23.4268 34.7072 22.157 34.4274 20.9247C34.0737 19.3665 33.3721 17.9085 32.3752 16.6599C31.3782 15.4112 30.1118 14.4042 28.6707 13.7142C27.2295 13.0242 25.651 12.669 24.0532 12.6754C22.4554 12.6817 20.8797 13.0493 19.4441 13.7508C18.0084 14.4522 16.75 15.4692 15.763 16.7258C14.7761 17.9823 14.0861 19.4458 13.7447 21.0067C13.4747 22.2412 13.4283 23.5114 13.6048 24.7573C13.6823 25.3042 14.2271 25.6351 14.7641 25.5064L17.6779 24.8082C18.215 24.6795 18.5365 24.1385 18.5052 23.5871C18.4766 23.0812 18.5166 22.5722 18.6256 22.0742C18.806 21.2494 19.1706 20.476 19.6922 19.812C20.2137 19.148 20.8787 18.6105 21.6374 18.2399C22.396 17.8692 23.2286 17.675 24.073 17.6716C24.9173 17.6683 25.7515 17.8559 26.5131 18.2206C27.2746 18.5852 27.9439 19.1173 28.4707 19.7772C28.9975 20.437 29.3682 21.2075 29.5552 22.0309C29.668 22.528 29.7121 23.0366 29.6875 23.5427C29.6606 24.0944 29.9864 24.6328 30.5245 24.7572L33.4437 25.4323Z" stroke="white" stroke-width="4" mask="url(#path-3-outside-1_1279_36787)"/>
<g filter="url(#filter1_d_1279_36787)">
<circle cx="24.3266" cy="23.2854" r="2.0423" transform="rotate(30 24.3266 23.2854)" fill="white"/>
</g>
<path fill-rule="evenodd" clip-rule="evenodd" d="M27.7652 17.2011C27.812 17.1465 27.8997 17.1972 27.8758 17.265L25.4878 23.6935C25.4864 23.6974 25.4839 23.7035 25.4803 23.7112C25.4534 23.7972 25.4167 23.8816 25.3698 23.9629C25.0267 24.5572 24.2668 24.7608 23.6725 24.4177C23.0782 24.0746 22.8746 23.3147 23.2177 22.7204C23.2648 22.6389 23.3197 22.5647 23.3809 22.4983L27.7652 17.2011ZM23.9992 23.8517C24.3118 24.0322 24.7115 23.9251 24.892 23.6125C25.0724 23.2999 24.9653 22.9003 24.6528 22.7198C24.3402 22.5393 23.9405 22.6464 23.76 22.959C23.5796 23.2716 23.6866 23.6713 23.9992 23.8517Z" fill="#343434"/>
<rect x="13.4819" y="30.0562" width="20.8024" height="1.5" rx="0.75" fill="#D6DEEC"/>
<rect x="13.4819" y="34.1587" width="20.8024" height="1.5" rx="0.75" fill="#D6DEEC"/>
<defs>
<filter id="filter0_d_1279_36787" x="4" y="4.5" width="40" height="43" filterUnits="userSpaceOnUse" color-interpolation-filters="sRGB">
<feFlood flood-opacity="0" result="BackgroundImageFix"/>
<feColorMatrix in="SourceAlpha" type="matrix" values="0 0 0 0 0 0 0 0 0 0 0 0 0 0 0 0 0 0 127 0" result="hardAlpha"/>
<feOffset dy="2"/>
<feGaussianBlur stdDeviation="2"/>
<feComposite in2="hardAlpha" operator="out"/>
<feColorMatrix type="matrix" values="0 0 0 0 0 0 0 0 0 0 0 0 0 0 0 0 0 0 0.1 0"/>
<feBlend mode="normal" in2="BackgroundImageFix" result="effect1_dropShadow_1279_36787"/>
<feBlend mode="normal" in="SourceGraphic" in2="effect1_dropShadow_1279_36787" result="shape"/>
</filter>
<filter id="filter1_d_1279_36787" x="10.2842" y="12.2427" width="28.085" height="28.0854" filterUnits="userSpaceOnUse" color-interpolation-filters="sRGB">
<feFlood flood-opacity="0" result="BackgroundImageFix"/>
<feColorMatrix in="SourceAlpha" type="matrix" values="0 0 0 0 0 0 0 0 0 0 0 0 0 0 0 0 0 0 127 0" result="hardAlpha"/>
<feOffset dy="3"/>
<feGaussianBlur stdDeviation="6"/>
<feComposite in2="hardAlpha" operator="out"/>
<feColorMatrix type="matrix" values="0 0 0 0 0.215686 0 0 0 0 0.113725 0 0 0 0 0.431373 0 0 0 0.07 0"/>
<feBlend mode="normal" in2="BackgroundImageFix" result="effect1_dropShadow_1279_36787"/>
<feBlend mode="normal" in="SourceGraphic" in2="effect1_dropShadow_1279_36787" result="shape"/>
</filter>
<linearGradient id="paint0_linear_1279_36787" x1="13.5" y1="23.2705" x2="32.4761" y2="24.4331" gradientUnits="userSpaceOnUse">
<stop stop-color="#0ACFA0"/>
<stop offset="0.5" stop-color="#1794FA"/>
<stop offset="1" stop-color="#8D62F2"/>
</linearGradient>
</defs>
</svg>
