<svg width="204" height="126" viewBox="0 0 204 126" fill="none" xmlns="http://www.w3.org/2000/svg">
<path d="M203.814 110.481L203.183 110.481C197.353 110.481 193.696 112.1 191.504 114.774C189.319 117.441 188.622 121.121 188.622 125.175L188.622 125.814L15.3809 125.814L15.3809 125.175C15.3808 119.282 13.48 115.595 10.6865 113.388C7.9014 111.187 4.26 110.481 0.821284 110.481L0.185542 110.481L0.185546 15.5185L0.817382 15.5185C4.51819 15.5185 8.16288 14.8146 10.8838 12.6113C13.6123 10.4018 15.3779 6.71365 15.3779 0.825187L15.3779 0.185539L188.622 0.185546L188.622 0.825195C188.622 6.70443 190.125 10.395 192.727 12.6084C195.322 14.8163 198.971 15.5186 203.183 15.5186L203.814 15.5186L203.814 110.481ZM187.368 124.535L187.368 124.35C187.368 120.332 188.198 116.659 190.473 113.939C192.743 111.224 196.481 109.428 202.368 109.216L202.547 109.209L202.547 16.7881L202.361 16.7881C198.241 16.7881 194.605 15.9501 191.946 13.6562C189.292 11.3656 187.578 7.59299 187.368 1.64746L187.362 1.46777L16.6377 1.46777L16.6318 1.64745C16.4222 7.58388 14.4345 11.3587 11.6377 13.6533C8.83553 15.9524 5.19402 16.7881 1.63867 16.7881L1.45312 16.7881L1.45312 109.216L1.63867 109.216C5.19901 109.216 8.84072 110.051 11.6416 112.35C14.4371 114.644 16.4222 118.42 16.6318 124.356L16.6377 124.535L187.368 124.535Z" fill="#DEDEDE" stroke="#DEDEDE" stroke-width="0.371288"/>
<path d="M4.44315 19.2458C13.3724 18.4608 18.5839 13.3007 19.3768 4.45946L184.608 4.45947C185.326 13.6883 190.238 18.552 199.559 19.2621L199.559 106.745C190.369 107.478 185.355 112.446 184.615 121.541L19.3735 121.541C18.551 112.83 13.2441 107.575 4.44642 106.761L4.44643 19.2458L4.44315 19.2458Z" stroke="#DEDEDE" stroke-width="0.371288" stroke-miterlimit="10" stroke-linejoin="round"/>
</svg>
