<svg width="38" height="35" viewBox="0 0 38 35" fill="none" xmlns="http://www.w3.org/2000/svg">
<path d="M7.13156 34.792C6.33365 34.7924 5.55017 34.5715 4.86524 34.1502C4.18031 33.7289 3.61949 33.1228 3.24182 32.3994L2.7196 32.9554V5.12251C2.66152 3.83734 3.09955 2.58321 3.9386 1.62962C4.77765 0.676026 5.94946 0.10291 7.19765 0.0354908L35.2858 0L32.5358 3.28382V30.4571C32.5358 31.662 32.0705 32.8171 31.2428 33.6691C30.4151 34.521 29.2929 35 28.1224 35L7.13156 34.792Z" fill="url(#paint0_linear_9508_42782)"/>
<path d="M28.9523 34.9999H6.2139C1.88527 34.9999 0 34.2622 0 31.2006V30.3371C0 29.743 0.276838 29.4736 0.88768 29.4736H22.7384C22.9758 29.4752 23.2105 29.5214 23.4288 29.6094C23.6471 29.6974 23.8446 29.8255 24.0098 29.9862C24.1751 30.147 24.3048 30.3371 24.3913 30.5456C24.4778 30.7541 24.5195 30.9768 24.5138 31.2006C24.7716 33.9472 25.8952 34.9999 28.9523 34.9999Z" fill="url(#paint1_linear_9508_42782)"/>
<path d="M32.5714 3.3155C32.5714 1.47263 33.4155 0 35.2855 0C37.1554 0 37.9995 1.47263 37.9995 3.3155V4.97325C38.0026 5.04665 37.9906 5.1199 37.9644 5.18836C37.9382 5.25682 37.8984 5.31899 37.8473 5.37094C37.7963 5.42289 37.7352 5.46348 37.668 5.49014C37.6007 5.51681 37.5288 5.52896 37.4567 5.52583H32.5714V3.3155Z" fill="#4E7AD9"/>
<path d="M9.06914 14H7.27227L9.67461 6.92969H11.8816L14.2742 14H12.4871L12.0086 12.4863H9.54766L9.06914 14ZM9.94805 11.2168H11.6082L10.8074 8.67773H10.7488L9.94805 11.2168ZM15.791 14H13.9941L16.3965 6.92969H18.6035L20.9961 14H19.209L18.7305 12.4863H16.2695L15.791 14ZM16.6699 11.2168H18.3301L17.5293 8.67773H17.4707L16.6699 11.2168ZM22.5129 14H20.716L23.1184 6.92969H25.3254L27.718 14H25.9309L25.4523 12.4863H22.9914L22.5129 14ZM23.3918 11.2168H25.052L24.2512 8.67773H24.1926L23.3918 11.2168Z" fill="white"/>
<path d="M8 20H25" stroke="white" stroke-opacity="0.6" stroke-width="2" stroke-linecap="round"/>
<path d="M8 25H25" stroke="white" stroke-opacity="0.6" stroke-width="2" stroke-linecap="round"/>
<defs>
<linearGradient id="paint0_linear_9508_42782" x1="9.06616" y1="-2.04642e-09" x2="35.7971" y2="19.5664" gradientUnits="userSpaceOnUse">
<stop stop-color="#B3CBFF"/>
<stop offset="1" stop-color="#6091F9"/>
</linearGradient>
<linearGradient id="paint1_linear_9508_42782" x1="10.5787" y1="28.6842" x2="13.6724" y2="37.948" gradientUnits="userSpaceOnUse">
<stop stop-color="#C0D4FF"/>
<stop offset="1" stop-color="#92B3FC"/>
</linearGradient>
</defs>
</svg>
