<svg width="44" height="48" viewBox="0 0 44 48" fill="none" xmlns="http://www.w3.org/2000/svg">
<rect x="10.3682" y="27.3138" width="5.65854" height="19.1455" rx="2.82927" transform="rotate(-15 10.3682 27.3138)" fill="#CDD2ED"/>
<g filter="url(#filter0_d_1028_26167)">
<path d="M17.4092 18.1669L21.6451 11.9133C24.2127 8.12271 25.4965 6.2274 26.9991 6.13464C27.4667 6.10578 27.9346 6.18456 28.3669 6.36492C29.7563 6.94454 30.3488 9.15572 31.5338 13.5781L35.4058 28.0287C36.5833 32.423 37.172 34.6202 36.2628 35.8157C35.98 36.1877 35.6152 36.4904 35.1974 36.6998C33.8547 37.3728 31.8045 36.3893 27.704 34.4221C24.241 32.7608 21.2419 31.3179 21.0666 31.2199C20.2536 31.4999 16.1035 32.6051 12.5668 33.5344C10.3689 34.1119 9.26994 34.4007 8.34506 34.0426C8.04701 33.9272 7.76697 33.7646 7.51897 33.563C6.74942 32.9373 6.45444 31.8364 5.86448 29.6347L5.1854 27.1003C4.59548 24.8987 4.30053 23.7979 4.65415 22.8713C4.7681 22.5727 4.92934 22.2919 5.12975 22.0429C5.75164 21.2704 6.84751 20.971 9.03923 20.3723C12.5124 19.4236 16.5701 18.33 17.4092 18.1669Z" fill="url(#paint0_linear_1028_26167)"/>
</g>
<path d="M17.6896 20.0733C17.9386 21.7487 18.3202 23.7293 18.6312 24.8899C18.9771 26.181 19.7163 28.3987 20.4675 30.0039C20.641 30.3744 20.7277 30.5597 21.0022 30.8785C21.0669 30.9538 21.2213 31.1101 21.2957 31.1758C21.611 31.4543 21.8534 31.5715 22.3381 31.8059C23.5605 32.3971 25.5634 33.3596 27.7515 34.4093L27.7515 34.4093C31.8519 36.3764 33.9022 37.36 35.2449 36.6869C35.6627 36.4775 36.0274 36.1748 36.3103 35.8029C37.2195 34.6073 36.6308 32.4101 35.4533 28.0159L31.5813 13.5652C30.3963 9.14286 29.8038 6.93168 28.4144 6.35205C27.9821 6.1717 27.5142 6.09292 27.0466 6.12178C25.544 6.21454 24.2602 8.10985 21.6926 11.9005L18.5413 16.5527C18.0642 17.2571 17.8257 17.6092 17.691 18.0474C17.6505 18.1792 17.6106 18.3544 17.59 18.4907C17.5217 18.944 17.5777 19.3205 17.6896 20.0733Z" fill="url(#paint1_linear_1028_26167)"/>
<path d="M37.1978 15.9915C38.9684 18.6816 39.4959 20.65 39.3075 23.865" stroke="#7EA6FC" stroke-width="1.5" stroke-linecap="round" stroke-linejoin="round"/>
<defs>
<filter id="filter0_d_1028_26167" x="0.501465" y="4.12881" width="40.205" height="38.7821" filterUnits="userSpaceOnUse" color-interpolation-filters="sRGB">
<feFlood flood-opacity="0" result="BackgroundImageFix"/>
<feColorMatrix in="SourceAlpha" type="matrix" values="0 0 0 0 0 0 0 0 0 0 0 0 0 0 0 0 0 0 127 0" result="hardAlpha"/>
<feOffset dy="2"/>
<feGaussianBlur stdDeviation="2"/>
<feComposite in2="hardAlpha" operator="out"/>
<feColorMatrix type="matrix" values="0 0 0 0 0.068138 0 0 0 0 0.324803 0 0 0 0 0.59917 0 0 0 0.1 0"/>
<feBlend mode="normal" in2="BackgroundImageFix" result="effect1_dropShadow_1028_26167"/>
<feBlend mode="normal" in="SourceGraphic" in2="effect1_dropShadow_1028_26167" result="shape"/>
</filter>
<linearGradient id="paint0_linear_1028_26167" x1="23" y1="40.5" x2="9" y2="18.5" gradientUnits="userSpaceOnUse">
<stop stop-color="#5F90F9"/>
<stop offset="1" stop-color="#A3C0FF"/>
</linearGradient>
<linearGradient id="paint1_linear_1028_26167" x1="26" y1="12.5" x2="43.9834" y2="56.0069" gradientUnits="userSpaceOnUse">
<stop stop-color="#C0D4FF"/>
<stop offset="1" stop-color="#6191F9"/>
</linearGradient>
</defs>
</svg>
