<svg width="39" height="44" viewBox="0 0 39 44" fill="none" xmlns="http://www.w3.org/2000/svg">
<g filter="url(#filter0_d_1187_16247)">
<path d="M4 7.5C4 5.29086 5.79086 3.5 8 3.5H31C33.2091 3.5 35 5.29086 35 7.5V33.5C35 35.7091 33.2091 37.5 31 37.5H8C5.79086 37.5 4 35.7091 4 33.5V7.5Z" fill="url(#paint0_linear_1187_16247)"/>
</g>
<path d="M23.8326 2.37872H21.8944C21.7811 1.84817 21.4809 1.37149 21.0445 1.0292C20.6082 0.686911 20.0624 0.5 19.4993 0.5C18.9363 0.5 18.3905 0.686911 17.9542 1.0292C17.5178 1.37149 17.2176 1.84817 17.1043 2.37872H15.1661C14.5784 2.39315 14.0205 2.63101 13.6146 3.04021C13.2088 3.44942 12.9879 3.99664 13.0005 4.56212V5.5H25.9995V4.56212C26.0121 3.99643 25.7911 3.44902 25.3849 3.03977C24.9788 2.63053 24.4205 2.39282 23.8326 2.37872ZM19.5 3.62923C19.3703 3.63523 19.2417 3.60373 19.1308 3.53877C19.0199 3.47381 18.9318 3.37837 18.8778 3.26478C18.8238 3.15119 18.8063 3.02465 18.8278 2.90145C18.8492 2.77826 18.9085 2.66405 18.9981 2.57358C19.0876 2.48311 19.2032 2.42051 19.3301 2.39385C19.4569 2.3672 19.5892 2.37771 19.7098 2.42402C19.8304 2.47033 19.9338 2.55033 20.0067 2.6537C20.0796 2.75707 20.1186 2.87907 20.1187 3.00398C20.1226 3.16575 20.0596 3.32239 19.9436 3.43958C19.8277 3.55678 19.6681 3.62497 19.5 3.62923Z" fill="#4E7AD9"/>
<path d="M24.0462 12.5L23.2846 14.7846L21 15.5462V16.4538L23.2846 17.2154L24.0462 19.5H24.9538L25.7154 17.2154L28 16.4538V15.5462L25.7154 14.7846L24.9538 12.5H24.0462Z" fill="white" fill-opacity="0.8"/>
<path d="M15.4267 20.9267L16.9023 16.5H18.0977L19.5733 20.9267L24 22.4023V23.5977L19.5733 25.0733L18.0977 29.5H16.9023L15.4267 25.0733L11 23.5977V22.4023L15.4267 20.9267Z" fill="white"/>
<defs>
<filter id="filter0_d_1187_16247" x="0" y="1.5" width="39" height="42" filterUnits="userSpaceOnUse" color-interpolation-filters="sRGB">
<feFlood flood-opacity="0" result="BackgroundImageFix"/>
<feColorMatrix in="SourceAlpha" type="matrix" values="0 0 0 0 0 0 0 0 0 0 0 0 0 0 0 0 0 0 127 0" result="hardAlpha"/>
<feOffset dy="2"/>
<feGaussianBlur stdDeviation="2"/>
<feComposite in2="hardAlpha" operator="out"/>
<feColorMatrix type="matrix" values="0 0 0 0 0.162629 0 0 0 0 0.322219 0 0 0 0 0.960579 0 0 0 0.1 0"/>
<feBlend mode="normal" in2="BackgroundImageFix" result="effect1_dropShadow_1187_16247"/>
<feBlend mode="normal" in="SourceGraphic" in2="effect1_dropShadow_1187_16247" result="shape"/>
</filter>
<linearGradient id="paint0_linear_1187_16247" x1="2.54688" y1="3.5" x2="31.2038" y2="39.3718" gradientUnits="userSpaceOnUse">
<stop stop-color="#B3CBFF"/>
<stop offset="1" stop-color="#6091F9"/>
</linearGradient>
</defs>
</svg>
