<svg width="48" height="48" viewBox="0 0 48 48" fill="none" xmlns="http://www.w3.org/2000/svg">
<path d="M0 8C0 3.58172 3.58172 0 8 0H40C44.4183 0 48 3.58172 48 8V40C48 44.4183 44.4183 48 40 48H8C3.58172 48 0 44.4183 0 40V8Z" fill="#F2F5FF"/>
<rect x="12" y="11.9999" width="24" height="26" rx="3" fill="url(#paint0_linear_1274_14774)"/>
<path d="M27.3329 11.5009H25.8419C25.7547 11.0766 25.5238 10.6954 25.1881 10.4217C24.8524 10.148 24.4325 9.99854 23.9994 9.99854C23.5663 9.99854 23.1464 10.148 22.8107 10.4217C22.475 10.6954 22.2441 11.0766 22.1569 11.5009H20.6659C20.2138 11.5124 19.7846 11.7026 19.4723 12.0299C19.1601 12.3571 18.9902 12.7947 18.9999 13.2469V13.9969H28.9999V13.2469C29.0096 12.7945 28.8396 12.3568 28.5271 12.0295C28.2147 11.7023 27.7852 11.5122 27.3329 11.5009ZM23.9999 12.5009C23.9001 12.5057 23.8012 12.4805 23.7159 12.4286C23.6306 12.3766 23.5628 12.3003 23.5212 12.2095C23.4797 12.1186 23.4663 12.0174 23.4828 11.9189C23.4993 11.8204 23.5449 11.7291 23.6138 11.6567C23.6826 11.5844 23.7716 11.5343 23.8692 11.513C23.9668 11.4917 24.0685 11.5001 24.1613 11.5371C24.254 11.5742 24.3336 11.6381 24.3897 11.7208C24.4457 11.8035 24.4758 11.901 24.4759 12.0009C24.4789 12.1303 24.4304 12.2555 24.3412 12.3492C24.252 12.443 24.1293 12.4975 23.9999 12.5009Z" fill="#4188D0"/>
<path d="M18.749 32.9988C18.5501 32.9988 18.3593 32.9197 18.2187 32.7791C18.078 32.6384 17.999 32.4477 17.999 32.2488C17.999 32.0499 18.078 31.8592 18.2187 31.7185C18.3593 31.5779 18.5501 31.4988 18.749 31.4988H29.249C29.4479 31.4988 29.6387 31.5779 29.7794 31.7185C29.92 31.8592 29.999 32.0499 29.999 32.2488C29.999 32.4477 29.92 32.6384 29.7794 32.7791C29.6387 32.9197 29.4479 32.9988 29.249 32.9988H18.749ZM18.749 29.4988C18.5501 29.4988 18.3593 29.4197 18.2187 29.2791C18.078 29.1384 17.999 28.9477 17.999 28.7488C17.999 28.5499 18.078 28.3592 18.2187 28.2185C18.3593 28.0779 18.5501 27.9988 18.749 27.9988H29.249C29.4479 27.9988 29.6387 28.0779 29.7794 28.2185C29.92 28.3592 29.999 28.5499 29.999 28.7488C29.999 28.9477 29.92 29.1384 29.7794 29.2791C29.6387 29.4197 29.4479 29.4988 29.249 29.4988H18.749Z" fill="white" fill-opacity="0.5"/>
<path d="M24.001 26.0015C22.9401 26.0015 21.9227 25.5807 21.1725 24.8306C20.4224 24.0804 20.001 23.0623 20.001 22.0015C20.001 20.9406 20.4224 19.9235 21.1725 19.1733C21.9227 18.4232 22.9401 18.0015 24.001 18.0015V22.0015H28.001C27.9991 23.0618 27.5771 24.0789 26.8274 24.8286C26.0776 25.5784 25.0613 25.9996 24.001 26.0015Z" fill="white" fill-opacity="0.5"/>
<path d="M28.75 21.2476H24.75V17.2476C25.8103 17.2494 26.8266 17.6716 27.5764 18.4214C28.3261 19.1711 28.7481 20.1873 28.75 21.2476Z" fill="white"/>
<defs>
<linearGradient id="paint0_linear_1274_14774" x1="19" y1="10.9999" x2="32.0147" y2="40.9935" gradientUnits="userSpaceOnUse">
<stop stop-color="#98CAFC"/>
<stop offset="1" stop-color="#409FFF"/>
</linearGradient>
</defs>
</svg>
