<svg width="44" height="39" viewBox="0 0 44 39" fill="none" xmlns="http://www.w3.org/2000/svg">
<g filter="url(#filter0_d_748_7225)">
<rect x="4" y="2.5" width="36" height="30" rx="4" fill="url(#paint0_linear_748_7225)"/>
</g>
<path d="M9.72672 16.5L12.6095 8.01562H15.258L18.1291 16.5H15.9845L15.4103 14.6836H12.4572L11.883 16.5H9.72672ZM14.9298 13.1602L13.9689 10.1133H13.8986L12.9377 13.1602H14.9298ZM17.793 16.5L20.6758 8.01562H23.3242L26.1953 16.5H24.0508L23.4766 14.6836H20.5234L19.9492 16.5H17.793ZM22.9961 13.1602L22.0352 10.1133H21.9648L21.0039 13.1602H22.9961ZM25.8592 16.5L28.742 8.01562H31.3905L34.2616 16.5H32.117L31.5428 14.6836H28.5897L28.0155 16.5H25.8592ZM31.0623 13.1602L30.1014 10.1133H30.0311L29.0702 13.1602H31.0623Z" fill="white"/>
<path d="M11 21.5H32" stroke="white" stroke-opacity="0.6" stroke-width="2" stroke-linecap="round"/>
<path d="M11 26.5H25" stroke="white" stroke-opacity="0.6" stroke-width="2" stroke-linecap="round"/>
<defs>
<filter id="filter0_d_748_7225" x="0" y="0.5" width="44" height="38" filterUnits="userSpaceOnUse" color-interpolation-filters="sRGB">
<feFlood flood-opacity="0" result="BackgroundImageFix"/>
<feColorMatrix in="SourceAlpha" type="matrix" values="0 0 0 0 0 0 0 0 0 0 0 0 0 0 0 0 0 0 127 0" result="hardAlpha"/>
<feOffset dy="2"/>
<feGaussianBlur stdDeviation="2"/>
<feComposite in2="hardAlpha" operator="out"/>
<feColorMatrix type="matrix" values="0 0 0 0 0.162629 0 0 0 0 0.322219 0 0 0 0 0.960579 0 0 0 0.1 0"/>
<feBlend mode="normal" in2="BackgroundImageFix" result="effect1_dropShadow_748_7225"/>
<feBlend mode="normal" in="SourceGraphic" in2="effect1_dropShadow_748_7225" result="shape"/>
</filter>
<linearGradient id="paint0_linear_748_7225" x1="14.575" y1="0.799153" x2="31.0946" y2="28.1999" gradientUnits="userSpaceOnUse">
<stop stop-color="#B3CBFF"/>
<stop offset="1" stop-color="#6091F9"/>
</linearGradient>
</defs>
</svg>
