<svg width="61" height="62" viewBox="0 0 61 62" fill="none" xmlns="http://www.w3.org/2000/svg">
<path d="M9.64936 50.2729C8.61051 50.2733 7.59043 49.9913 6.69867 49.4533C5.80691 48.9154 5.07675 48.1414 4.58502 47.2176L3.9051 47.9276V6.54784C3.82949 4.90679 4.39979 3.30538 5.49221 2.08772C6.58463 0.870063 8.1103 0.138243 9.73541 0.0521547L49.8031 0.00683594L46.0359 3.94201V44.4796C46.0359 46.0181 45.4301 47.4931 44.3525 48.581C43.2749 49.6688 41.8138 50.2804 40.2898 50.2804L9.64936 50.2729Z" fill="url(#paint0_linear_366_37523)"/>
<path d="M10.0914 24.6572L13.4547 14.7588H16.5445L19.8941 24.6572H17.3922L16.7222 22.5381H13.2769L12.607 24.6572H10.0914ZM16.1617 20.7607L15.0406 17.2061H14.9586L13.8375 20.7607H16.1617ZM19.502 24.6572L22.8653 14.7588H25.9551L29.3047 24.6572H26.8028L26.1329 22.5381H22.6876L22.0176 24.6572H19.502ZM25.5723 20.7607L24.4512 17.2061H24.3692L23.2481 20.7607H25.5723ZM28.9126 24.6572L32.2759 14.7588H35.3658L38.7154 24.6572H36.2134L35.5435 22.5381H32.0982L31.4283 24.6572H28.9126ZM34.983 20.7607L33.8619 17.2061H33.7798L32.6587 20.7607H34.983Z" fill="white"/>
<path d="M45.9688 4.64064C45.9688 2.06122 47.1601 0 49.7995 0C52.4389 0 53.6303 2.06122 53.6303 4.64064V6.96096C53.6346 7.06369 53.6177 7.16622 53.5808 7.26204C53.5438 7.35786 53.4875 7.44488 53.4155 7.51759C53.3435 7.59031 53.2573 7.64712 53.1623 7.68444C53.0674 7.72176 52.9659 7.73877 52.8641 7.7344H45.9688V4.64064Z" fill="#4E7AD9"/>
<path d="M40.2229 50.2735H8.12504C2.4651 50.2735 0 49.2409 0 44.9561V43.7476C0 42.9161 0.361983 42.5391 1.1607 42.5391H32.0979C32.4083 42.5413 32.7152 42.6059 33.0006 42.729C33.286 42.8522 33.5443 43.0315 33.7604 43.2565C33.9764 43.4814 34.146 43.7476 34.2591 44.0394C34.3723 44.3312 34.4267 44.6428 34.4193 44.9561C34.7565 48.8001 36.2256 50.2735 40.2229 50.2735Z" fill="url(#paint1_linear_366_37523)"/>
<path d="M10.6367 28.7832H38.6176" stroke="white" stroke-opacity="0.6" stroke-width="2" stroke-linecap="round"/>
<path d="M10.6367 34.9043H38.6176" stroke="white" stroke-opacity="0.6" stroke-width="2" stroke-linecap="round"/>
<g filter="url(#filter0_d_366_37523)">
<circle cx="44.7993" cy="42.3413" r="11.6587" fill="url(#paint2_linear_366_37523)"/>
</g>
<path fill-rule="evenodd" clip-rule="evenodd" d="M50.361 38.5567C50.822 39.0177 50.822 39.7651 50.361 40.2261L44.0653 46.5218C43.6043 46.9828 42.8569 46.9828 42.3959 46.5218L39.2481 43.3739C38.7871 42.9129 38.7871 42.1655 39.2481 41.7045C39.7091 41.2435 40.4565 41.2435 40.9175 41.7045L43.2306 44.0177L48.6916 38.5567C49.1526 38.0957 49.9 38.0957 50.361 38.5567Z" fill="white"/>
<defs>
<filter id="filter0_d_366_37523" x="29.1406" y="30.6826" width="31.3164" height="31.3174" filterUnits="userSpaceOnUse" color-interpolation-filters="sRGB">
<feFlood flood-opacity="0" result="BackgroundImageFix"/>
<feColorMatrix in="SourceAlpha" type="matrix" values="0 0 0 0 0 0 0 0 0 0 0 0 0 0 0 0 0 0 127 0" result="hardAlpha"/>
<feOffset dy="4"/>
<feGaussianBlur stdDeviation="2"/>
<feComposite in2="hardAlpha" operator="out"/>
<feColorMatrix type="matrix" values="0 0 0 0 0.068138 0 0 0 0 0.59917 0 0 0 0 0.492964 0 0 0 0.15 0"/>
<feBlend mode="normal" in2="BackgroundImageFix" result="effect1_dropShadow_366_37523"/>
<feBlend mode="normal" in="SourceGraphic" in2="effect1_dropShadow_366_37523" result="shape"/>
</filter>
<linearGradient id="paint0_linear_366_37523" x1="12.8502" y1="0.00683619" x2="39.5043" y2="28.8261" gradientUnits="userSpaceOnUse">
<stop stop-color="#B3CBFF"/>
<stop offset="1" stop-color="#6091F9"/>
</linearGradient>
<linearGradient id="paint1_linear_366_37523" x1="14.6968" y1="41.4342" x2="15.4657" y2="63.5687" gradientUnits="userSpaceOnUse">
<stop stop-color="#A8C4FF"/>
<stop offset="1" stop-color="#4A81F7"/>
</linearGradient>
<linearGradient id="paint2_linear_366_37523" x1="37.5963" y1="26.0143" x2="59.9266" y2="50.1644" gradientUnits="userSpaceOnUse">
<stop stop-color="#83EBF8"/>
<stop offset="1" stop-color="#33ACBD"/>
</linearGradient>
</defs>
</svg>
