<svg width="37" height="40" viewBox="0 0 37 40" fill="none" xmlns="http://www.w3.org/2000/svg">
<g filter="url(#filter0_d_1002_10909)">
<path fill-rule="evenodd" clip-rule="evenodd" d="M32.3463 33.2246L32.2146 33.3546C31.3435 34.2151 29.917 34.2151 29.0455 33.3546L20 24.2591L23.3009 21.0001L32.3463 30.0955C33.2179 30.9561 33.2179 32.3641 32.3463 33.2246Z" fill="url(#paint0_linear_1002_10909)"/>
</g>
<path fill-rule="evenodd" clip-rule="evenodd" d="M24.8975 5.10065C19.4299 -0.366884 10.57 -0.366884 5.10243 5.10065C-0.364306 10.5674 -0.369062 19.4329 5.09768 24.9005C10.0738 29.875 17.8732 30.3236 23.359 26.2392C23.8948 25.8397 24.4108 25.3919 24.903 24.9005C25.3945 24.4082 25.8423 23.8922 26.241 23.3564C30.3254 17.8699 29.8728 10.076 24.8975 5.10065Z" fill="white"/>
<path fill-rule="evenodd" clip-rule="evenodd" d="M23.4881 23.4833C18.7995 28.1727 11.2012 28.1718 6.51177 23.4833C1.82839 18.8 1.82839 11.201 6.51787 6.51247C11.2012 1.82918 18.7995 1.82918 23.4829 6.51247C28.1715 11.201 28.1715 18.8 23.4881 23.4833ZM25.6044 4.39356C19.7464 -1.46452 10.2535 -1.46452 4.39547 4.39356C-1.46176 10.2508 -1.46685 19.7496 4.39037 25.6076C9.72191 30.9375 18.0785 31.4182 23.9561 27.042C24.5302 26.614 25.083 26.1342 25.6104 25.6076C26.1369 25.0803 26.6167 24.5274 27.0439 23.9533C31.42 18.0749 30.9351 9.72426 25.6044 4.39356Z" fill="#CDD2ED"/>
<path d="M13.5 19.5009C13.5 19.3041 13.5388 19.1091 13.6142 18.9273C13.6896 18.7454 13.8001 18.5801 13.9393 18.4409C14.0786 18.3017 14.244 18.1913 14.426 18.116C14.608 18.0406 14.803 18.0019 15 18.0019C15.197 18.0019 15.392 18.0406 15.574 18.116C15.756 18.1913 15.9214 18.3017 16.0607 18.4409C16.1999 18.5801 16.3104 18.7454 16.3858 18.9273C16.4612 19.1091 16.5 19.3041 16.5 19.5009C16.5 19.8985 16.342 20.2798 16.0607 20.5609C15.7794 20.8421 15.3978 21 15 21C14.6022 21 14.2206 20.8421 13.9393 20.5609C13.658 20.2798 13.5 19.8985 13.5 19.5009ZM13.647 10.4991C13.627 10.3099 13.6471 10.1187 13.7058 9.93786C13.7645 9.75697 13.8607 9.59045 13.988 9.4491C14.1153 9.30775 14.2709 9.19472 14.4447 9.11735C14.6185 9.03998 14.8067 9 14.997 9C15.1873 9 15.3755 9.03998 15.5493 9.11735C15.7231 9.19472 15.8787 9.30775 16.006 9.4491C16.1333 9.59045 16.2295 9.75697 16.2882 9.93786C16.3469 10.1187 16.367 10.3099 16.347 10.4991L15.822 15.7563C15.8007 15.9601 15.7046 16.1488 15.5522 16.286C15.3998 16.4231 15.2021 16.499 14.997 16.499C14.7919 16.499 14.5942 16.4231 14.4418 16.286C14.2894 16.1488 14.1933 15.9601 14.172 15.7563L13.647 10.4991Z" fill="#87ADFC"/>
<defs>
<filter id="filter0_d_1002_10909" x="16" y="19" width="21" height="21" filterUnits="userSpaceOnUse" color-interpolation-filters="sRGB">
<feFlood flood-opacity="0" result="BackgroundImageFix"/>
<feColorMatrix in="SourceAlpha" type="matrix" values="0 0 0 0 0 0 0 0 0 0 0 0 0 0 0 0 0 0 127 0" result="hardAlpha"/>
<feOffset dy="2"/>
<feGaussianBlur stdDeviation="2"/>
<feComposite in2="hardAlpha" operator="out"/>
<feColorMatrix type="matrix" values="0 0 0 0 0.068138 0 0 0 0 0.324803 0 0 0 0 0.59917 0 0 0 0.1 0"/>
<feBlend mode="normal" in2="BackgroundImageFix" result="effect1_dropShadow_1002_10909"/>
<feBlend mode="normal" in="SourceGraphic" in2="effect1_dropShadow_1002_10909" result="shape"/>
</filter>
<linearGradient id="paint0_linear_1002_10909" x1="26.4616" y1="21.3146" x2="22.5768" y2="34.102" gradientUnits="userSpaceOnUse">
<stop stop-color="#9DBCFE"/>
<stop offset="1" stop-color="#6695F9"/>
</linearGradient>
</defs>
</svg>
