<svg width="22" height="27" viewBox="0 0 22 27" fill="none" xmlns="http://www.w3.org/2000/svg">
<rect y="3.00146" width="22" height="24" rx="3" fill="url(#paint0_linear_9616_16969)"/>
<path d="M14.3334 1.50237H12.8424C12.7552 1.07809 12.5243 0.696907 12.1886 0.423187C11.8529 0.149467 11.433 0 10.9999 0C10.5668 0 10.1469 0.149467 9.8112 0.423187C9.47551 0.696907 9.24457 1.07809 9.15739 1.50237H7.66639C7.21424 1.5139 6.78507 1.70411 6.47283 2.03134C6.1606 2.35857 5.99072 2.79617 6.00039 3.24837V3.99837H16.0004V3.24837C16.0101 2.796 15.8401 2.35825 15.5276 2.03099C15.2151 1.70373 14.7857 1.51364 14.3334 1.50237ZM11.0004 2.50237C10.9006 2.50716 10.8017 2.48197 10.7164 2.43002C10.6311 2.37808 10.5633 2.30176 10.5217 2.21092C10.4802 2.12009 10.4668 2.0189 10.4833 1.92038C10.4998 1.82186 10.5454 1.73053 10.6143 1.65819C10.6831 1.58584 10.7721 1.53578 10.8697 1.51447C10.9673 1.49315 11.069 1.50155 11.1618 1.53859C11.2545 1.57562 11.3341 1.6396 11.3902 1.72226C11.4462 1.80492 11.4763 1.90248 11.4764 2.00237C11.4793 2.13173 11.4309 2.25699 11.3417 2.35071C11.2525 2.44443 11.1297 2.49896 11.0004 2.50237Z" fill="#4188D0"/>
<path d="M5.74951 23.0005C5.5506 23.0005 5.35983 22.9214 5.21918 22.7808C5.07852 22.6401 4.99951 22.4494 4.99951 22.2505C4.99951 22.0516 5.07852 21.8609 5.21918 21.7202C5.35983 21.5796 5.5506 21.5005 5.74951 21.5005H16.2495C16.4484 21.5005 16.6392 21.5796 16.7798 21.7202C16.9205 21.8609 16.9995 22.0516 16.9995 22.2505C16.9995 22.4494 16.9205 22.6401 16.7798 22.7808C16.6392 22.9214 16.4484 23.0005 16.2495 23.0005H5.74951ZM5.74951 19.5005C5.5506 19.5005 5.35983 19.4214 5.21918 19.2808C5.07852 19.1401 4.99951 18.9494 4.99951 18.7505C4.99951 18.5516 5.07852 18.3609 5.21918 18.2202C5.35983 18.0796 5.5506 18.0005 5.74951 18.0005H16.2495C16.4484 18.0005 16.6392 18.0796 16.7798 18.2202C16.9205 18.3609 16.9995 18.5516 16.9995 18.7505C16.9995 18.9494 16.9205 19.1401 16.7798 19.2808C16.6392 19.4214 16.4484 19.5005 16.2495 19.5005H5.74951Z" fill="white" fill-opacity="0.5"/>
<path d="M11.0015 16.0029C9.9406 16.0029 8.92318 15.5822 8.17303 14.832C7.42289 14.0819 7.00146 13.0638 7.00146 12.0029C7.00146 10.9421 7.42289 9.92495 8.17303 9.1748C8.92318 8.42466 9.9406 8.00293 11.0015 8.00293V12.0029H15.0015C14.9996 13.0632 14.5776 14.0803 13.8279 14.8301C13.0781 15.5798 12.0618 16.0011 11.0015 16.0029Z" fill="white" fill-opacity="0.5"/>
<path d="M15.7505 11.249H11.7505V7.24902C12.8108 7.25087 13.8271 7.67311 14.5769 8.42285C15.3266 9.1726 15.7486 10.1887 15.7505 11.249Z" fill="white"/>
<defs>
<linearGradient id="paint0_linear_9616_16969" x1="6.41667" y1="2.07839" x2="18.4874" y2="29.7034" gradientUnits="userSpaceOnUse">
<stop stop-color="#98CAFC"/>
<stop offset="1" stop-color="#409FFF"/>
</linearGradient>
</defs>
</svg>
