<svg width="18" height="18" viewBox="0 0 18 18" fill="none" xmlns="http://www.w3.org/2000/svg">
<g clip-path="url(#clip0_10538_9989)">
<path d="M8.99922 17.5502C13.7213 17.5502 17.5492 13.7222 17.5492 9.0002C17.5492 4.27816 13.7213 0.450195 8.99922 0.450195C4.27718 0.450195 0.449219 4.27816 0.449219 9.0002C0.449219 13.7222 4.27718 17.5502 8.99922 17.5502Z" stroke="#0A2B58" stroke-opacity="0.18"/>
<path d="M9.17391 5.02568C9.17516 5.21712 9.23307 5.40389 9.34033 5.56246C9.44759 5.72103 9.5994 5.84429 9.77662 5.91669C9.95384 5.98909 10.1485 6.00739 10.3361 5.96928C10.5237 5.93118 10.6959 5.83836 10.8308 5.70255C10.9657 5.56674 11.0574 5.39403 11.0943 5.20617C11.1312 5.01832 11.1116 4.82375 11.0381 4.647C10.9646 4.47025 10.8403 4.31924 10.6811 4.21301C10.5218 4.10678 10.3346 4.05009 10.1432 4.05008C10.0145 4.04696 9.88657 4.07011 9.76715 4.11812C9.64772 4.16612 9.53932 4.23798 9.4486 4.32929C9.35788 4.4206 9.28673 4.52944 9.2395 4.64918C9.19227 4.76892 9.16996 4.89703 9.17391 5.02568ZM7.01839 8.41328C7.00689 8.6045 7.00689 8.79625 7.01839 8.98748L7.8644 7.95697C8.039 7.76347 8.24152 7.62758 8.34502 7.66358C8.39572 7.685 8.43666 7.72446 8.45994 7.77434C8.48321 7.82421 8.48716 7.88095 8.47101 7.93357L7.07151 12.6262C7.03053 12.7654 7.02218 12.9122 7.04715 13.0552C7.07212 13.1982 7.12973 13.3335 7.21549 13.4506C7.30125 13.5677 7.41287 13.6634 7.54165 13.7304C7.67042 13.7974 7.81288 13.8337 7.958 13.8367C9.0461 13.8367 9.6923 13.0915 10.3286 12.1267C10.346 11.9298 10.3511 11.732 10.3439 11.5345L9.4979 12.565C9.3224 12.7594 9.1055 12.8953 9.0011 12.8584C8.95356 12.8389 8.91432 12.8034 8.89016 12.758C8.86601 12.7127 8.85845 12.6603 8.86879 12.61L10.2782 7.89487C10.3158 7.75654 10.3221 7.61154 10.2965 7.47048C10.2709 7.32942 10.2141 7.19586 10.1302 7.07958C10.0464 6.96329 9.93761 6.86721 9.81186 6.79837C9.68611 6.72952 9.54656 6.68966 9.40342 6.68168C8.90648 6.7864 8.43719 6.99475 8.02622 7.29312C7.61526 7.5915 7.27185 7.97319 7.01839 8.41328Z" fill="#888EA3"/>
</g>
<defs>
<clipPath id="clip0_10538_9989">
<rect width="18" height="18" fill="white"/>
</clipPath>
</defs>
</svg>
