<svg width="48" height="48" viewBox="0 0 48 48" fill="none" xmlns="http://www.w3.org/2000/svg">
<path d="M24 4.5C34.7696 4.5 43.5 13.2304 43.5 24C43.5 34.7696 34.7696 43.5 24 43.5C13.2304 43.5 4.5 34.7696 4.5 24C4.5 13.2304 13.2304 4.5 24 4.5Z" fill="#F26B7A" stroke="#E14B5F"/>
<path d="M24 30.5C24.9665 30.5 25.75 31.2835 25.75 32.25C25.75 33.2165 24.9665 34 24 34C23.0335 34 22.25 33.2165 22.25 32.25C22.25 31.2835 23.0335 30.5 24 30.5ZM24 13C24.8284 13 25.5 13.6716 25.5 14.5V27.5C25.5 28.3284 24.8284 29 24 29C23.1716 29 22.5 28.3284 22.5 27.5V14.5C22.5 13.6716 23.1716 13 24 13Z" fill="white"/>
</svg>
