<svg width="24" height="24" viewBox="0 0 24 24" fill="none" xmlns="http://www.w3.org/2000/svg">
<path d="M12.2718 2.26367C12.9014 2.32612 13.4933 2.60436 13.9447 3.05566C14.3451 3.45608 14.6063 3.96764 14.7044 4.51758C15.8104 5.11781 16.756 5.97873 17.4564 7.0293C18.2365 8.19952 18.6834 9.55996 18.7493 10.9648C18.7499 10.9766 18.7503 10.9883 18.7503 11V13.9473C18.8156 14.4388 18.9917 14.9094 19.2669 15.3223C19.5491 15.7455 19.9268 16.0969 20.3695 16.3477C20.6659 16.5155 20.8127 16.862 20.7259 17.1914C20.639 17.5207 20.3409 17.75 20.0003 17.75H15.7503V18C15.7503 18.9946 15.3549 19.9481 14.6517 20.6514C13.9923 21.3107 13.1129 21.6992 12.1859 21.7451L12.0003 21.75C11.0058 21.75 10.0522 21.3546 9.34895 20.6514C8.64572 19.9481 8.25032 18.9945 8.25032 18V17.75H4.00032C3.65981 17.75 3.36158 17.5206 3.27474 17.1914C3.18797 16.8621 3.33484 16.5155 3.63118 16.3477C4.07384 16.0969 4.45152 15.7456 4.73372 15.3223C5.00897 14.9094 5.18501 14.4388 5.25032 13.9473V11C5.25032 10.9883 5.25075 10.9766 5.2513 10.9648C5.31724 9.55998 5.76414 8.19951 6.54427 7.0293C7.24448 5.97897 8.18965 5.11779 9.29524 4.51758C9.39333 3.96759 9.65555 3.45612 10.056 3.05566C10.5717 2.53996 11.271 2.25002 12.0003 2.25L12.2718 2.26367ZM9.75032 17.75V18C9.75032 18.5967 9.98757 19.1689 10.4095 19.5908C10.8314 20.0128 11.4036 20.25 12.0003 20.25L12.223 20.2393C12.7379 20.1881 13.222 19.9599 13.5911 19.5908C14.0131 19.1689 14.2503 18.5967 14.2503 18V17.75H9.75032ZM12.0003 3.75C11.6688 3.75002 11.3509 3.88181 11.1165 4.11621C10.8821 4.35063 10.7503 4.6685 10.7503 5C10.7503 5.29002 10.5828 5.55376 10.3206 5.67773C9.29535 6.16258 8.42142 6.91766 7.79231 7.86133C7.16553 8.80151 6.80559 9.89401 6.75032 11.0225V14C6.75032 14.03 6.74806 14.06 6.74446 14.0898C6.6551 14.8281 6.39428 15.5355 5.98177 16.1543C5.96001 16.1869 5.93593 16.218 5.91341 16.25H18.0872C18.0647 16.218 18.0406 16.1869 18.0189 16.1543C17.6064 15.5355 17.3455 14.8281 17.2562 14.0898C17.2526 14.06 17.2503 14.03 17.2503 14V11.0225C17.1951 9.894 16.8351 8.80152 16.2083 7.86133C15.5792 6.91766 14.7053 6.16258 13.68 5.67773C13.4179 5.55375 13.2503 5.28999 13.2503 5C13.2503 4.66848 13.1185 4.35063 12.8841 4.11621C12.6497 3.88182 12.3318 3.75 12.0003 3.75Z" fill="#212126"/>
</svg>
