<svg width="20" height="17" viewBox="0 0 20 17" fill="none" xmlns="http://www.w3.org/2000/svg">
<path d="M9.33418 10.4303C9.28385 10.4303 9.23809 10.4212 9.18776 10.403L0.265316 7.06537C0.118896 7.01088 0.0182328 6.87919 -6.96704e-05 6.72479C-0.0137965 6.5704 0.0594133 6.42054 0.192106 6.3388L10.3728 0.0540019C10.4827 -0.0141138 10.6153 -0.0277369 10.7343 0.0176735L19.6568 3.35534C19.8032 3.40983 19.9038 3.54152 19.9221 3.69592C19.9359 3.85031 19.8627 4.00017 19.73 4.08191L9.55381 10.3667C9.48975 10.4076 9.41196 10.4303 9.33418 10.4303ZM1.33601 6.5931L9.28385 9.56748L18.5815 3.82761L10.6337 0.853225L1.33601 6.5931Z" fill="black"/>
<path d="M15.5206 4.88154C15.3833 4.88154 15.2506 4.81343 15.1682 4.69082C15.0493 4.5001 15.1087 4.2458 15.3009 4.12773L15.9644 3.71904C16.1566 3.60097 16.4128 3.66 16.5318 3.85073C16.6507 4.04145 16.5912 4.29575 16.3991 4.41382L15.7356 4.82251C15.667 4.86338 15.5938 4.88608 15.5206 4.88608V4.88154Z" fill="black"/>
<path d="M9.16948 8.79951C9.03221 8.79951 8.89952 8.7314 8.81716 8.60879C8.69819 8.41806 8.75767 8.16377 8.94985 8.0457L9.61331 7.63701C9.80549 7.51894 10.0617 7.57797 10.1807 7.7687C10.2997 7.95942 10.2402 8.21372 10.048 8.33178L9.38453 8.74048C9.3159 8.78135 9.24269 8.80405 9.16948 8.80405V8.79951Z" fill="black"/>
<path d="M3.73839 6.76533C3.60112 6.76533 3.46843 6.69722 3.39064 6.57461C3.27168 6.38388 3.33116 6.12959 3.52334 6.01152L4.1868 5.60283C4.37897 5.48476 4.63521 5.54379 4.75417 5.73452C4.87314 5.92524 4.81366 6.17954 4.62148 6.29761L3.95802 6.7063C3.88938 6.74717 3.81617 6.76987 3.74296 6.76987L3.73839 6.76533Z" fill="black"/>
<path d="M10.0846 2.84639C9.94731 2.84639 9.81462 2.77827 9.73683 2.65566C9.61787 2.46494 9.67735 2.21064 9.86953 2.09257L10.533 1.68388C10.7252 1.56581 10.9814 1.62485 11.1004 1.81557C11.2193 2.00629 11.1598 2.26059 10.9677 2.37866L10.3042 2.78735C10.2356 2.82822 10.1624 2.85093 10.0892 2.85093L10.0846 2.84639Z" fill="black"/>
<path d="M19.382 5.5512L15.2993 8.07324L15.7345 8.76718L19.8172 6.24514L19.382 5.5512Z" fill="black"/>
<path d="M9.42122 12.5966C9.37089 12.5966 9.32513 12.5875 9.2748 12.5693L0.356934 9.23165L0.645197 8.46875L9.37546 11.7338L13.0634 9.4587L13.4981 10.1535L9.63627 12.5375C9.57222 12.5784 9.49443 12.6011 9.41665 12.6011L9.42122 12.5966Z" fill="black"/>
<path d="M19.4755 7.71866L15.3035 10.2959L15.7387 10.9898L19.9107 8.4126L19.4755 7.71866Z" fill="black"/>
<path d="M9.51277 14.7626C9.46244 14.7626 9.41669 14.7535 9.36635 14.7353L0.448486 11.3977L0.73675 10.6348L9.46702 13.8998L13.0634 11.6792L13.4981 12.374L9.72783 14.7035C9.66377 14.7444 9.58598 14.7671 9.5082 14.7671L9.51277 14.7626Z" fill="black"/>
<path d="M9.65002 16.9737L0.5354 13.5634L0.82824 12.8005L9.55851 16.0655L19.5608 9.88965L20.0001 10.5844L9.65002 16.9737Z" fill="black"/>
<path d="M15.5205 13.2734C15.2917 13.2734 15.1087 13.0917 15.1087 12.8647V6.47996L6.45166 3.24674C6.24118 3.165 6.13137 2.93341 6.21373 2.71998C6.29152 2.50655 6.52945 2.40211 6.7445 2.48385L15.6669 5.82151C15.8271 5.88055 15.9323 6.03494 15.9323 6.20296V12.8692C15.9323 13.0963 15.7493 13.2779 15.5205 13.2779V13.2734Z" fill="black"/>
<path d="M13.283 14.6529C13.0543 14.6529 12.8712 14.4713 12.8712 14.2442V7.8595L4.21875 4.62174C4.00827 4.54 3.89846 4.30841 3.98082 4.09498C4.06318 3.88155 4.30111 3.77711 4.51159 3.85885L13.434 7.19651C13.5942 7.25555 13.6994 7.40994 13.6994 7.57796V14.2442C13.6994 14.4713 13.5164 14.6529 13.2876 14.6529H13.283Z" fill="black"/>
</svg>
