<svg width="18" height="18" viewBox="0 0 18 18" fill="none" xmlns="http://www.w3.org/2000/svg">
<g clip-path="url(#clip0_2518_3139)">
<path d="M13 0C13.2761 0 13.5 0.223858 13.5 0.5V1H15C16.1046 1 17 1.89543 17 3V15C17 16.1046 16.1046 17 15 17H3C1.89543 17 1 16.1046 1 15V3C1 1.89543 1.89543 1 3 1H4.5V0.5C4.5 0.223858 4.72386 0 5 0C5.27614 0 5.5 0.223858 5.5 0.5V1H12.5V0.5C12.5 0.223858 12.7239 0 13 0ZM2 15C2 15.5523 2.44772 16 3 16H15C15.5523 16 16 15.5523 16 15V6.03125H2V15ZM6 13.0156H4V12.0156H6V13.0156ZM10 13.0156H8V12.0156H10V13.0156ZM14 13.0156H12V12.0156H14V13.0156ZM6 10H4V9H6V10ZM10 10H8V9H10V10ZM14 10H12V9H14V10ZM3 2C2.44772 2 2 2.44772 2 3V5.03125H16V3C16 2.44772 15.5523 2 15 2H13.5V2.5C13.5 2.77614 13.2761 3 13 3C12.7239 3 12.5 2.77614 12.5 2.5V2H5.5V2.5C5.5 2.77614 5.27614 3 5 3C4.72386 3 4.5 2.77614 4.5 2.5V2H3Z" fill="#4F4F55"/>
</g>
<defs>
<clipPath id="clip0_2518_3139">
<rect width="18" height="18" fill="white"/>
</clipPath>
</defs>
</svg>
