<svg width="12" height="8" viewBox="0 0 12 8" fill="none" xmlns="http://www.w3.org/2000/svg">
<path d="M11 1L4.82495 6.80773C4.75907 6.86868 4.68084 6.91704 4.59472 6.95003C4.5086 6.98302 4.4163 7 4.32307 7C4.22985 7 4.13754 6.98302 4.05143 6.95003C3.96531 6.91704 3.88708 6.86868 3.8212 6.80773L1 4.20068" fill="white"/>
<path d="M11 1L4.82495 6.80773C4.75907 6.86868 4.68084 6.91704 4.59472 6.95003C4.5086 6.98302 4.4163 7 4.32307 7C4.22985 7 4.13754 6.98302 4.05143 6.95003C3.96531 6.91704 3.88708 6.86868 3.8212 6.80773L1 4.20068" stroke="#C6C6C6" stroke-width="2" stroke-linecap="round"/>
</svg>
