<svg width="14" height="14" viewBox="0 0 14 14" fill="none" xmlns="http://www.w3.org/2000/svg">
<path fill-rule="evenodd" clip-rule="evenodd" d="M11.0833 1.16667H10.5V0.583333C10.5 0.261167 10.2388 0 9.91667 0C9.5945 0 9.33333 0.261167 9.33333 0.583333V1.16667H4.66667V0.583333C4.66667 0.261167 4.4055 0 4.08333 0C3.76117 0 3.5 0.261167 3.5 0.583333V1.16667H2.91667C1.30664 1.1686 0.00192857 2.4733 0 4.08333V11.0833C0.00192857 12.6934 1.30664 13.9981 2.91667 14H11.0833C12.6934 13.9981 13.9981 12.6934 14 11.0833V4.08333C13.9981 2.4733 12.6934 1.1686 11.0833 1.16667ZM1.16667 4.08333C1.16667 3.11683 1.95017 2.33333 2.91667 2.33333H11.0833C12.0498 2.33333 12.8333 3.11683 12.8333 4.08333V4.66667H1.16667V4.08333ZM2.91667 12.8333H11.0833C12.0498 12.8333 12.8333 12.0498 12.8333 11.0833V5.83333H1.16667V11.0833C1.16667 12.0498 1.95017 12.8333 2.91667 12.8333Z" fill="black"/>
<circle cx="7" cy="8.75" r="0.875" fill="black"/>
<ellipse cx="4.08337" cy="8.75" rx="0.875" ry="0.875" fill="black"/>
<circle cx="9.91663" cy="8.75" r="0.875" fill="black"/>
</svg>
