<svg width="14" height="14" viewBox="0 0 14 14" fill="none" xmlns="http://www.w3.org/2000/svg">
<path d="M12.0319 4.88349C11.8911 4.74493 11.6994 4.66699 11.4995 4.66699C11.2995 4.66699 11.1079 4.74493 10.9671 4.88349L7.53244 8.23557C7.39163 8.37412 7.19996 8.45206 7 8.45206C6.80004 8.45206 6.60837 8.37412 6.46756 8.23557L3.03295 4.88349C2.89214 4.74493 2.70046 4.66699 2.50051 4.66699C2.30055 4.66699 2.10888 4.74493 1.96807 4.88349C1.67731 5.16895 1.67731 5.62999 1.96807 5.91546L5.41018 9.27486C6.28853 10.131 7.71147 10.131 8.58982 9.27486L12.0319 5.91546C12.3227 5.62999 12.3227 5.16895 12.0319 4.88349Z" fill="black"/>
</svg>
