<svg width="12" height="14" viewBox="0 0 12 14" fill="none" xmlns="http://www.w3.org/2000/svg">
<path d="M3.5 7.5L8.5 7.5" stroke="#222222" stroke-linecap="round"/>
<path d="M4 10L7 10" stroke="#222222" stroke-linecap="round"/>
<path d="M1 3.4C1 2.55992 1 2.13988 1.16349 1.81901C1.3073 1.53677 1.53677 1.3073 1.81901 1.16349C2.13988 1 2.55992 1 3.4 1H6.21955C6.56496 1 6.73766 1 6.90127 1.03706C7.04636 1.06992 7.18576 1.12419 7.31489 1.19807C7.46049 1.28139 7.58774 1.39816 7.84223 1.63169L10.2227 3.81611C10.509 4.07887 10.6522 4.21026 10.7548 4.36698C10.8458 4.50588 10.9131 4.65893 10.9539 4.81987C11 5.00145 11 5.19577 11 5.58441V10.6C11 11.4401 11 11.8601 10.8365 12.181C10.6927 12.4632 10.4632 12.6927 10.181 12.8365C9.86012 13 9.44008 13 8.6 13H3.4C2.55992 13 2.13988 13 1.81901 12.8365C1.53677 12.6927 1.3073 12.4632 1.16349 12.181C1 11.8601 1 11.4401 1 10.6V3.4Z" stroke="#222222"/>
<path d="M7 1V2.6C7 3.44008 7 3.86012 7.16349 4.18099C7.3073 4.46323 7.53677 4.6927 7.81901 4.83651C8.13988 5 8.55992 5 9.4 5H11" stroke="#222222"/>
</svg>
