<svg width="18" height="18" viewBox="0 0 18 18" fill="none" xmlns="http://www.w3.org/2000/svg">
<path d="M10.5 1.75C10.6044 1.75 10.7011 1.78223 10.7812 1.83691C10.8069 1.85441 10.8312 1.8742 10.8535 1.89648L14.6035 5.64648C14.694 5.73697 14.75 5.86193 14.75 6V14.25C14.75 14.7804 14.5391 15.289 14.1641 15.6641C13.789 16.0391 13.2804 16.25 12.75 16.25H5.25C4.71957 16.25 4.21101 16.0391 3.83594 15.6641C3.46086 15.289 3.25 14.7804 3.25 14.25V3.75C3.25 3.21957 3.46086 2.71101 3.83594 2.33594C4.21101 1.96086 4.71957 1.75 5.25 1.75H10.5ZM5.25 2.75C4.98478 2.75 4.7305 2.85543 4.54297 3.04297C4.35543 3.23051 4.25 3.48478 4.25 3.75V14.25C4.25 14.5152 4.35543 14.7695 4.54297 14.957C4.73051 15.1446 4.98478 15.25 5.25 15.25H12.75C13.0152 15.25 13.2695 15.1446 13.457 14.957C13.6446 14.7695 13.75 14.5152 13.75 14.25V6.5H11.25C10.9185 6.5 10.6006 6.36821 10.3662 6.13379C10.1318 5.89937 10 5.58152 10 5.25V2.75H5.25ZM9 7.75C9.27614 7.75 9.5 7.97386 9.5 8.25V11.543L10.5215 10.5215C10.7167 10.3262 11.0333 10.3262 11.2285 10.5215C11.4238 10.7167 11.4238 11.0333 11.2285 11.2285L9.35352 13.1035C9.31945 13.1376 9.2804 13.1634 9.24023 13.1855C9.19596 13.21 9.14884 13.2301 9.09766 13.2402C9.0329 13.2531 8.96611 13.2532 8.90137 13.2402C8.85024 13.23 8.80299 13.2101 8.75879 13.1855C8.71891 13.1634 8.68034 13.1374 8.64648 13.1035L6.77148 11.2285C6.57622 11.0333 6.57622 10.7167 6.77148 10.5215C6.96675 10.3262 7.28325 10.3262 7.47852 10.5215L8.5 11.543V8.25C8.5 7.97386 8.72386 7.75 9 7.75ZM11 5.25C11 5.3163 11.0264 5.37987 11.0732 5.42676C11.1201 5.47364 11.1837 5.5 11.25 5.5H13.043L11 3.45703V5.25Z" fill="#212126"/>
<path d="M10.5 1.75C10.6044 1.75 10.7011 1.78223 10.7812 1.83691C10.8069 1.85441 10.8312 1.8742 10.8535 1.89648L14.6035 5.64648C14.694 5.73697 14.75 5.86193 14.75 6V14.25C14.75 14.7804 14.5391 15.289 14.1641 15.6641C13.789 16.0391 13.2804 16.25 12.75 16.25H5.25C4.71957 16.25 4.21101 16.0391 3.83594 15.6641C3.46086 15.289 3.25 14.7804 3.25 14.25V3.75C3.25 3.21957 3.46086 2.71101 3.83594 2.33594C4.21101 1.96086 4.71957 1.75 5.25 1.75H10.5ZM5.25 2.75C4.98478 2.75 4.7305 2.85543 4.54297 3.04297C4.35543 3.23051 4.25 3.48478 4.25 3.75V14.25C4.25 14.5152 4.35543 14.7695 4.54297 14.957C4.73051 15.1446 4.98478 15.25 5.25 15.25H12.75C13.0152 15.25 13.2695 15.1446 13.457 14.957C13.6446 14.7695 13.75 14.5152 13.75 14.25V6.5H11.25C10.9185 6.5 10.6006 6.36821 10.3662 6.13379C10.1318 5.89937 10 5.58152 10 5.25V2.75H5.25ZM9 7.75C9.27614 7.75 9.5 7.97386 9.5 8.25V11.543L10.5215 10.5215C10.7167 10.3262 11.0333 10.3262 11.2285 10.5215C11.4238 10.7167 11.4238 11.0333 11.2285 11.2285L9.35352 13.1035C9.31945 13.1376 9.2804 13.1634 9.24023 13.1855C9.19596 13.21 9.14884 13.2301 9.09766 13.2402C9.0329 13.2531 8.96611 13.2532 8.90137 13.2402C8.85024 13.23 8.80299 13.2101 8.75879 13.1855C8.71891 13.1634 8.68034 13.1374 8.64648 13.1035L6.77148 11.2285C6.57622 11.0333 6.57622 10.7167 6.77148 10.5215C6.96675 10.3262 7.28325 10.3262 7.47852 10.5215L8.5 11.543V8.25C8.5 7.97386 8.72386 7.75 9 7.75ZM11 5.25C11 5.3163 11.0264 5.37987 11.0732 5.42676C11.1201 5.47364 11.1837 5.5 11.25 5.5H13.043L11 3.45703V5.25Z" fill="#3B5DFB"/>
</svg>
