<svg width="20" height="18" viewBox="0 0 20 18" fill="none" xmlns="http://www.w3.org/2000/svg">
<path d="M5 0C5.98142 0 6.47224 -0.000208124 6.89453 0.210938C7.31679 0.422069 7.61142 0.814574 8.2002 1.59961L10 4H16.7998C17.9199 4 18.4804 3.99979 18.9082 4.21777C19.2845 4.40951 19.5905 4.71554 19.7822 5.0918C20.0002 5.51962 20 6.08009 20 7.2002V14.7998C20 15.9199 20.0002 16.4804 19.7822 16.9082C19.5905 17.2845 19.2845 17.5905 18.9082 17.7822C18.4804 18.0002 17.9199 18 16.7998 18H3.2002C2.08009 18 1.51962 18.0002 1.0918 17.7822C0.715544 17.5905 0.409508 17.2845 0.217773 16.9082C-0.000213531 16.4804 0 15.9199 0 14.7998V4C0 2.11438 0.000151075 1.17172 0.585938 0.585938C1.17172 0.000151081 2.11438 0 4 0H5ZM9.5293 8.4707L11.3936 10.335H6V11.665H11.3936L9.5293 13.5293L10.4707 14.4707L13.4707 11.4707L13.9404 11L13.4707 10.5293L10.4707 7.5293L9.5293 8.4707Z" fill="white"/>
</svg>
