<svg width="20" height="20" viewBox="0 0 20 20" fill="none" xmlns="http://www.w3.org/2000/svg">
<path d="M11.667 1.75C11.7151 1.75 11.762 1.75502 11.8076 1.76367C11.8105 1.76422 11.8135 1.76406 11.8164 1.76465C11.8308 1.76756 11.8443 1.77363 11.8584 1.77734C11.8914 1.7861 11.9246 1.79447 11.9561 1.80762C11.9855 1.81994 12.0126 1.8367 12.04 1.85254C12.0546 1.8609 12.07 1.86761 12.084 1.87695C12.1089 1.89365 12.1307 1.91412 12.1533 1.93359C12.1677 1.94592 12.1838 1.95626 12.1973 1.96973L16.3643 6.13672C16.5 6.27244 16.584 6.45993 16.584 6.66699V15.833C16.584 16.4739 16.3291 17.0888 15.876 17.542C15.4228 17.9952 14.8079 18.25 14.167 18.25H5.83398C5.19304 18.25 4.57821 17.9952 4.125 17.542C3.67179 17.0888 3.41699 16.4739 3.41699 15.833V4.16699C3.41699 3.52605 3.67179 2.91122 4.125 2.45801C4.57821 2.00479 5.19304 1.75 5.83398 1.75H11.667ZM5.83398 3.25C5.59087 3.25 5.35746 3.34665 5.18555 3.51855C5.01364 3.69046 4.91699 3.92388 4.91699 4.16699V15.833C4.91699 16.0761 5.01364 16.3095 5.18555 16.4814C5.35746 16.6534 5.59087 16.75 5.83398 16.75H14.167C14.4101 16.75 14.6435 16.6534 14.8154 16.4814C14.9872 16.3096 15.084 16.076 15.084 15.833V7.41699H12.5C12.0803 7.41691 11.6777 7.24988 11.3809 6.95312C11.0839 6.65619 10.917 6.25293 10.917 5.83301V3.25H5.83398ZM7.5 9.25C7.91421 9.25 8.25 9.58579 8.25 10V14.167C8.24982 14.5811 7.9141 14.917 7.5 14.917C7.08589 14.917 6.75018 14.5811 6.75 14.167V10C6.75 9.58579 7.08579 9.25 7.5 9.25ZM12.5 10.917C12.9142 10.917 13.25 11.2528 13.25 11.667V14.167C13.2499 14.5811 12.9141 14.917 12.5 14.917C12.0859 14.917 11.7501 14.5811 11.75 14.167V11.667C11.75 11.2528 12.0858 10.917 12.5 10.917ZM10 12.583C10.4141 12.583 10.7499 12.9189 10.75 13.333V14.166C10.75 14.5802 10.4142 14.916 10 14.916C9.58579 14.916 9.25 14.5802 9.25 14.166V13.333C9.25013 12.9189 9.58587 12.583 10 12.583ZM12.417 5.83301C12.417 5.85511 12.4258 5.87695 12.4414 5.89258C12.4569 5.90803 12.4781 5.91691 12.5 5.91699H14.0234L12.417 4.31055V5.83301Z" fill="white"/>
</svg>
