<svg width="80" height="80" viewBox="0 0 80 80" fill="none" xmlns="http://www.w3.org/2000/svg">
<g filter="url(#filter0_d_2429_28734)">
<rect x="20" y="20" width="40" height="40" rx="20" fill="url(#paint0_linear_2429_28734)"/>
<rect x="20.25" y="20.25" width="39.5" height="39.5" rx="19.75" stroke="url(#paint1_linear_2429_28734)" stroke-width="0.5"/>
</g>
<path fill-rule="evenodd" clip-rule="evenodd" d="M47.5314 34.4793C48.1562 35.1183 48.1562 36.1544 47.5314 36.7934L38.998 45.5207C38.3732 46.1598 37.3601 46.1598 36.7353 45.5207L32.4686 41.1571C31.8438 40.518 31.8438 39.482 32.4686 38.8429C33.0935 38.2039 34.1065 38.2039 34.7314 38.8429L37.8667 42.0495L45.2686 34.4793C45.8935 33.8402 46.9065 33.8402 47.5314 34.4793Z" fill="white"/>
<defs>
<filter id="filter0_d_2429_28734" x="10" y="12" width="64" height="64" filterUnits="userSpaceOnUse" color-interpolation-filters="sRGB">
<feFlood flood-opacity="0" result="BackgroundImageFix"/>
<feColorMatrix in="SourceAlpha" type="matrix" values="0 0 0 0 0 0 0 0 0 0 0 0 0 0 0 0 0 0 127 0" result="hardAlpha"/>
<feOffset dx="2" dy="4"/>
<feGaussianBlur stdDeviation="6"/>
<feComposite in2="hardAlpha" operator="out"/>
<feColorMatrix type="matrix" values="0 0 0 0 0.478431 0 0 0 0 0.701961 0 0 0 0 0.976471 0 0 0 0.16 0"/>
<feBlend mode="normal" in2="BackgroundImageFix" result="effect1_dropShadow_2429_28734"/>
<feBlend mode="normal" in="SourceGraphic" in2="effect1_dropShadow_2429_28734" result="shape"/>
</filter>
<linearGradient id="paint0_linear_2429_28734" x1="37.4074" y1="20" x2="56.9674" y2="75.0577" gradientUnits="userSpaceOnUse">
<stop stop-color="#A8C4FF"/>
<stop offset="1" stop-color="#4A81F7"/>
</linearGradient>
<linearGradient id="paint1_linear_2429_28734" x1="30.7407" y1="16.25" x2="70.4596" y2="46.4069" gradientUnits="userSpaceOnUse">
<stop stop-color="#B0D0FA"/>
<stop offset="1" stop-color="#99C4FB"/>
</linearGradient>
</defs>
</svg>
