<svg width="14" height="14" viewBox="0 0 14 14" fill="none" xmlns="http://www.w3.org/2000/svg">
<path fill-rule="evenodd" clip-rule="evenodd" d="M1 2.1C1 0.940202 2.00736 0 3.25 0H7.56802C8.16476 0 8.73705 0.221249 9.15901 0.615076L12.341 3.58492C12.7629 3.97875 13 4.51289 13 5.06985V11.9C13 13.0598 11.9926 14 10.75 14H3.25C2.00736 14 1 13.0598 1 11.9V2.1ZM10.75 13.16H3.25C2.50442 13.16 1.9 12.5959 1.9 11.9V2.1C1.9 1.40412 2.50442 0.84 3.25 0.84H7.56802C7.60383 0.84 7.63949 0.841328 7.67493 0.843954V3.5C7.67493 4.31186 8.38008 4.97 9.24993 4.97H12.0958C12.0986 5.0031 12.1 5.03641 12.1 5.06985V11.9C12.1 12.5959 11.4956 13.16 10.75 13.16ZM11.6522 4.13L8.57493 1.25787V3.5C8.57493 3.84794 8.87713 4.13 9.24993 4.13H11.6522Z" fill="#999999"/>
<path d="M9.68002 8.22306C9.31424 8.21101 8.92533 8.2392 8.48365 8.29438C7.89811 7.93319 7.5039 7.43706 7.2239 6.70817L7.24968 6.60263L7.27956 6.47781C7.38318 6.04096 7.43884 5.72217 7.45547 5.40074C7.468 5.15809 7.4545 4.93424 7.41137 4.72678C7.33185 4.27884 7.01499 4.01692 6.61571 4.00078C6.24343 3.9856 5.90126 4.19354 5.81379 4.5157C5.67138 5.03665 5.75476 5.72217 6.05668 6.89129C5.67211 7.80813 5.16392 8.88304 4.82296 9.48254C4.36778 9.71723 4.01332 9.93072 3.7155 10.1673C3.32273 10.4799 3.07743 10.8011 3.00996 11.1384C2.97719 11.2948 3.02658 11.4991 3.13911 11.6666C3.26682 11.8564 3.45911 11.9798 3.68971 11.9976C4.27164 12.0427 4.98681 11.4427 5.77644 10.0878C5.85572 10.0613 5.93957 10.0334 6.04198 9.99867L6.32873 9.9018C6.51017 9.8406 6.64174 9.79675 6.77186 9.75458C7.33571 9.57097 7.76221 9.45507 8.15016 9.38905C8.82437 9.75 9.60364 9.98662 10.1285 9.98662C10.5617 9.98662 10.8545 9.76205 10.9603 9.40857C11.053 9.09821 10.9795 8.73822 10.78 8.5392C10.5738 8.33655 10.1945 8.23969 9.68002 8.22306ZM3.70441 11.3174V11.3087L3.70754 11.3006C3.7428 11.2094 3.78806 11.1225 3.84248 11.0413C3.94561 10.8827 4.08754 10.716 4.26344 10.5384C4.3579 10.4432 4.45621 10.3505 4.57163 10.2464C4.59742 10.2232 4.76223 10.0765 4.79308 10.0476L5.06223 9.79699L4.86657 10.1085C4.56971 10.5818 4.30127 10.9225 4.0714 11.1447C3.98682 11.2266 3.91236 11.2868 3.85212 11.3256C3.83223 11.3389 3.81118 11.3504 3.78923 11.3598C3.77935 11.3639 3.77068 11.3663 3.762 11.3671C3.75284 11.3682 3.74354 11.367 3.73501 11.3634C3.72594 11.3596 3.7182 11.3533 3.71275 11.3451C3.70731 11.3369 3.70441 11.3273 3.70441 11.3174ZM6.73909 6.05783L6.68463 6.15421L6.65089 6.04867C6.5762 5.81181 6.52126 5.45495 6.50608 5.13303C6.48873 4.76678 6.51788 4.54703 6.63354 4.54703C6.79595 4.54703 6.87041 4.80726 6.87619 5.19881C6.88149 5.5429 6.82752 5.90096 6.73909 6.05783ZM6.59909 7.46646L6.63595 7.36887L6.68632 7.46043C6.968 7.97222 7.33354 8.3992 7.73546 8.69678L7.82221 8.76088L7.71643 8.78256C7.32294 8.864 6.95643 8.98641 6.45523 9.18857C6.50752 9.16737 5.93427 9.40206 5.78921 9.45772L5.66271 9.50615L5.73018 9.38857C6.02777 8.87051 6.30294 8.24836 6.59909 7.46646ZM10.3971 9.30399C10.2077 9.37869 9.80002 9.31194 9.0822 9.00545L8.90003 8.92786L9.09762 8.9134C9.65906 8.87172 10.0566 8.90256 10.2885 8.98737C10.3872 9.02352 10.453 9.06906 10.4822 9.12111C10.4975 9.14575 10.5027 9.17539 10.4966 9.20376C10.4905 9.23213 10.4735 9.25702 10.4494 9.27315C10.4341 9.28664 10.4164 9.29711 10.3971 9.30399Z" fill="#999999"/>
</svg>
