<svg width="18" height="18" viewBox="0 0 18 18" fill="none" xmlns="http://www.w3.org/2000/svg">
<rect x="3" width="12" height="10" rx="2" fill="#3265FF" fill-opacity="0.25"/>
<path d="M0 7H14.8C15.9201 7 16.4802 7 16.908 7.21799C17.2843 7.40973 17.5903 7.71569 17.782 8.09202C18 8.51984 18 9.0799 18 10.2V14.8C18 15.9201 18 16.4802 17.782 16.908C17.5903 17.2843 17.2843 17.5903 16.908 17.782C16.4802 18 15.9201 18 14.8 18H3.2C2.0799 18 1.51984 18 1.09202 17.782C0.715695 17.5903 0.409734 17.2843 0.217987 16.908C0 16.4802 0 15.9201 0 14.8V7Z" fill="#3265FF"/>
<path d="M0 7C0 6.06812 0 5.60218 0.152241 5.23463C0.355229 4.74458 0.744577 4.35523 1.23463 4.15224C1.60218 4 2.06812 4 3 4H5.34315C6.16065 4 6.5694 4 6.93694 4.15224C7.30448 4.30448 7.59351 4.59351 8.17157 5.17157L10 7H0Z" fill="#3265FF"/>
</svg>
