<svg width="24" height="24" viewBox="0 0 24 24" fill="none" xmlns="http://www.w3.org/2000/svg">
<path d="M11.1093 3.74539C11.4804 3.01814 12.5196 3.01814 12.8907 3.74539L14.7665 7.42092C14.9118 7.70564 15.1844 7.90374 15.5001 7.95395L19.5754 8.60208C20.3817 8.73033 20.7029 9.71862 20.1259 10.2963L17.2099 13.2161C16.984 13.4422 16.8798 13.7628 16.9297 14.0785L17.5726 18.1546C17.6998 18.9611 16.8591 19.5719 16.1314 19.2017L12.4534 17.3307C12.1685 17.1858 11.8315 17.1858 11.5466 17.3307L7.86865 19.2017C7.14093 19.5719 6.30024 18.9611 6.42745 18.1546L7.07036 14.0785C7.12016 13.7628 7.01601 13.4422 6.79013 13.2161L3.87413 10.2963C3.29716 9.71862 3.61828 8.73033 4.42462 8.60208L8.4999 7.95395C8.81558 7.90374 9.08824 7.70564 9.23354 7.42092L11.1093 3.74539Z" fill="#D4D4D9"/>
</svg>
