<svg width="18" height="18" viewBox="0 0 18 18" fill="none" xmlns="http://www.w3.org/2000/svg">
<path d="M8.49102 2.49735C8.7031 2.08178 9.2969 2.08178 9.50898 2.49735L11.266 5.94028C11.3491 6.10298 11.5049 6.21618 11.6853 6.24487L15.5026 6.85199C15.9634 6.92527 16.1469 7.49001 15.8172 7.82013L13.0857 10.5551C12.9567 10.6843 12.8971 10.8675 12.9256 11.0479L13.5278 14.8661C13.6005 15.327 13.1201 15.676 12.7043 15.4644L9.2591 13.7118C9.09629 13.629 8.90371 13.629 8.7409 13.7118L5.29572 15.4644C4.87987 15.676 4.39948 15.327 4.47217 14.8661L5.0744 11.0479C5.10286 10.8675 5.04334 10.6843 4.91427 10.5551L2.1828 7.82013C1.8531 7.49001 2.0366 6.92527 2.49737 6.85199L6.31475 6.24487C6.49514 6.21618 6.65095 6.10298 6.73398 5.94028L8.49102 2.49735Z" fill="#D4D4D9"/>
</svg>
