<svg width="14" height="14" viewBox="0 0 14 14" fill="none" xmlns="http://www.w3.org/2000/svg">
<path fill-rule="evenodd" clip-rule="evenodd" d="M1.33203 2.1C1.33203 0.940202 2.25544 0 3.39453 0H7.35272C7.89972 0 8.42433 0.221249 8.81112 0.615076L11.7279 3.58492C12.1147 3.97875 12.332 4.51289 12.332 5.06985V11.9C12.332 13.0598 11.4086 14 10.2695 14H3.39453C2.25544 14 1.33203 13.0598 1.33203 11.9V2.1ZM10.2695 13.16H3.39453C2.71108 13.16 2.15703 12.5959 2.15703 11.9V2.1C2.15703 1.40412 2.71108 0.84 3.39453 0.84H7.35272C7.38554 0.84 7.41823 0.841328 7.45071 0.843954V3.5C7.45071 4.31186 8.0971 4.97 8.89446 4.97H11.5031C11.5057 5.0031 11.507 5.03641 11.507 5.06985V11.9C11.507 12.5959 10.953 13.16 10.2695 13.16ZM11.0966 4.13L8.27571 1.25787V3.5C8.27571 3.84794 8.55274 4.13 8.89446 4.13H11.0966Z" fill="#999999"/>
<path d="M7.69593 8.9242C7.6618 8.96995 7.6618 9.03005 7.69593 9.0758L8.97415 10.7893C9.04094 10.8789 8.97055 11 8.85173 11H7.93089C7.88187 11 7.83602 10.9779 7.80847 10.9409L7.12243 10.0211C7.06369 9.9424 6.93631 9.9424 6.87757 10.0211L6.19153 10.9409C6.16398 10.9779 6.11813 11 6.06911 11H5.14827C5.02945 11 4.95906 10.8789 5.02585 10.7893L6.30407 9.0758C6.3382 9.03005 6.3382 8.96995 6.30407 8.9242L5.02585 7.21066C4.95906 7.12112 5.02945 7 5.14827 7H6.06911C6.11813 7 6.16398 7.02212 6.19153 7.05906L6.87757 7.97886C6.93631 8.0576 7.06369 8.0576 7.12243 7.97886L7.80847 7.05906C7.83602 7.02212 7.88187 7 7.93089 7H8.85173C8.97055 7 9.04094 7.12113 8.97415 7.21066L7.69593 8.9242Z" fill="#999999"/>
</svg>
