<svg width="18" height="18" viewBox="0 0 18 18" fill="none" xmlns="http://www.w3.org/2000/svg">
<path fill-rule="evenodd" clip-rule="evenodd" d="M9 1.5C13.1421 1.5 16.5 4.85786 16.5 9C16.5 13.1421 13.1421 16.5 9 16.5C4.85786 16.5 1.5 13.1421 1.5 9C1.5 4.85786 4.85786 1.5 9 1.5ZM7.00977 9.5C7.05902 11.2696 7.36407 12.8227 7.80762 13.9316C8.05116 14.5405 8.3155 14.9666 8.55859 15.2236C8.7997 15.4786 8.94935 15.5 9 15.5C9.05065 15.5 9.2003 15.4786 9.44141 15.2236C9.6845 14.9666 9.94884 14.5405 10.1924 13.9316C10.6359 12.8227 10.941 11.2696 10.9902 9.5H7.00977ZM2.52148 9.5C2.73481 12.3032 4.72403 14.6082 7.36816 15.292C6.59772 14.0399 6.07174 11.9281 6.00781 9.5H2.52148ZM11.9922 9.5C11.9282 11.9284 11.4014 14.0399 10.6309 15.292C13.2754 14.6085 15.2652 12.3035 15.4785 9.5H11.9922ZM7.36816 2.70703C4.72389 3.39076 2.73381 5.69667 2.52051 8.5H6.00781C6.07176 6.07147 6.59749 3.95906 7.36816 2.70703ZM9 2.5C8.94935 2.5 8.7997 2.52142 8.55859 2.77637C8.3155 3.03343 8.05116 3.4595 7.80762 4.06836C7.36407 5.17727 7.05902 6.73044 7.00977 8.5H10.9902C10.941 6.73044 10.6359 5.17727 10.1924 4.06836C9.94884 3.4595 9.6845 3.03343 9.44141 2.77637C9.2003 2.52142 9.05065 2.5 9 2.5ZM10.6309 2.70703C11.4017 3.959 11.9282 6.07119 11.9922 8.5H15.4795C15.2662 5.69635 13.2756 3.39046 10.6309 2.70703Z" fill="#4F4F55"/>
</svg>
