<svg width="24" height="24" viewBox="0 0 24 24" fill="none" xmlns="http://www.w3.org/2000/svg">
<path d="M7.49063 4.07572C8.28683 3.94176 9.10332 3.98595 9.87993 4.20504C10.6565 4.42412 11.3734 4.81251 11.9778 5.34158L12.0111 5.3709L12.0417 5.34425C12.6185 4.84438 13.2966 4.47173 14.0309 4.25115C14.7651 4.03057 15.5385 3.96713 16.2995 4.06506L16.5208 4.09704C17.48 4.26059 18.3766 4.67726 19.1156 5.30291C19.8546 5.92857 20.4086 6.73993 20.7187 7.65107C21.0289 8.56221 21.0837 9.53922 20.8774 10.4786C20.6712 11.418 20.2115 12.2849 19.547 12.9874L19.3851 13.1517L19.3419 13.1881L12.6399 19.743C12.4853 19.8942 12.2804 19.9849 12.0632 19.9983C11.846 20.0117 11.6313 19.9469 11.4588 19.8159L11.3742 19.743L4.63351 13.1499C3.91943 12.4638 3.41159 11.596 3.16623 10.6424C2.92087 9.6889 2.94757 8.68691 3.24338 7.74744C3.53918 6.80796 4.09254 5.96767 4.84218 5.31961C5.59182 4.67156 6.50847 4.24104 7.49063 4.07572Z" fill="#E14B5F"/>
</svg>
