<svg width="18" height="18" viewBox="0 0 18 18" fill="none" xmlns="http://www.w3.org/2000/svg">
<path d="M9 9.75C9.59674 9.75 10.169 9.51295 10.591 9.09099C11.0129 8.66903 11.25 8.09674 11.25 7.5C11.25 6.90326 11.0129 6.33097 10.591 5.90901C10.169 5.48705 9.59674 5.25 9 5.25C8.40326 5.25 7.83097 5.48705 7.40901 5.90901C6.98705 6.33097 6.75 6.90326 6.75 7.5C6.75 8.09674 6.98705 8.66903 7.40901 9.09099C7.83097 9.51295 8.40326 9.75 9 9.75Z" stroke="#212126" stroke-linecap="round" stroke-linejoin="round"/>
<path d="M4.65039 14.058C4.84853 13.4589 5.23054 12.9375 5.74207 12.568C6.25361 12.1986 6.86862 11.9998 7.49964 12H10.4996C11.1303 11.9998 11.7449 12.1983 12.2562 12.5674C12.7676 12.9364 13.1497 13.4572 13.3481 14.0557" stroke="#212126" stroke-linecap="round" stroke-linejoin="round"/>
<path d="M14.9062 4.70268C15.4312 5.00118 15.7537 5.55993 15.75 6.16368V11.6267C15.75 12.2334 15.4177 12.7929 14.8815 13.0877L9.819 16.2902C9.56802 16.428 9.28632 16.5002 9 16.5002C8.71368 16.5002 8.43198 16.428 8.181 16.2902L3.1185 13.0877C2.85612 12.9443 2.63709 12.7331 2.48431 12.476C2.33152 12.219 2.2506 11.9257 2.25 11.6267V6.16293C2.25 5.55618 2.58225 4.99743 3.1185 4.70268L8.181 1.71768C8.4394 1.57521 8.72967 1.50049 9.02475 1.50049C9.31983 1.50049 9.6101 1.57521 9.8685 1.71768L14.931 4.70268H14.9062Z" stroke="#212126" stroke-linecap="round" stroke-linejoin="round"/>
</svg>
