<svg width="20" height="20" viewBox="0 0 20 20" fill="none" xmlns="http://www.w3.org/2000/svg">
<path d="M16.667 1.75C17.0868 1.75009 17.4893 1.91701 17.7861 2.21387C18.083 2.51072 18.2499 2.9132 18.25 3.33301V13.333C18.25 13.7529 18.0831 14.1562 17.7861 14.4531C17.4893 14.7499 17.0867 14.9169 16.667 14.917H12.5166L12.7461 16.75H13.334C13.748 16.7502 14.084 17.0859 14.084 17.5C14.084 17.9141 13.748 18.2498 13.334 18.25H6.66699C6.25278 18.25 5.91699 17.9142 5.91699 17.5C5.91699 17.0858 6.25278 16.75 6.66699 16.75H7.25488L7.48438 14.917H3.33301C2.91328 14.9169 2.51071 14.7499 2.21387 14.4531C1.91693 14.1562 1.75 13.7529 1.75 13.333V3.33301C1.75009 2.9132 1.91701 2.51072 2.21387 2.21387C2.51072 1.91701 2.9132 1.75009 3.33301 1.75H16.667ZM8.99609 14.917L8.7666 16.75H11.2344L11.0049 14.917H8.99609ZM3.25 13.333C3.25 13.3551 3.25879 13.377 3.27441 13.3926C3.28995 13.408 3.3111 13.4169 3.33301 13.417H16.667C16.6889 13.4169 16.7101 13.408 16.7256 13.3926C16.7412 13.377 16.75 13.3551 16.75 13.333V11.583H3.25V13.333ZM3.33301 3.25C3.31102 3.25009 3.28997 3.25886 3.27441 3.27441C3.25886 3.28997 3.25009 3.31102 3.25 3.33301V10.083H16.75V3.33301C16.7499 3.31102 16.7411 3.28996 16.7256 3.27441C16.71 3.25886 16.689 3.25009 16.667 3.25H3.33301Z" fill="white"/>
</svg>
