<svg width="18" height="18" viewBox="0 0 18 18" fill="none" xmlns="http://www.w3.org/2000/svg">
<path d="M6 5.25C6 6.04565 6.31607 6.80871 6.87868 7.37132C7.44129 7.93393 8.20435 8.25 9 8.25C9.79565 8.25 10.5587 7.93393 11.1213 7.37132C11.6839 6.80871 12 6.04565 12 5.25C12 4.45435 11.6839 3.69129 11.1213 3.12868C10.5587 2.56607 9.79565 2.25 9 2.25C8.20435 2.25 7.44129 2.56607 6.87868 3.12868C6.31607 3.69129 6 4.45435 6 5.25Z" stroke="#212126" stroke-linecap="round" stroke-linejoin="round"/>
<path d="M4.5 15.75V14.25C4.5 13.4544 4.81607 12.6913 5.37868 12.1287C5.94129 11.5661 6.70435 11.25 7.5 11.25H10.5C11.2956 11.25 12.0587 11.5661 12.6213 12.1287C13.1839 12.6913 13.5 13.4544 13.5 14.25V15.75" stroke="#212126" stroke-linecap="round" stroke-linejoin="round"/>
</svg>
