<svg width="36" height="36" viewBox="0 0 36 36" fill="none" xmlns="http://www.w3.org/2000/svg">
<rect width="36" height="36" rx="18" fill="#EAF4F6"/>
<path fill-rule="evenodd" clip-rule="evenodd" d="M21.7722 13.5704C21.7722 15.6138 20.0347 17.3036 17.8492 17.3036C15.6637 17.3036 13.9263 15.6138 13.9263 13.5704C13.9263 11.527 15.6637 9.83721 17.8492 9.83721C20.0347 9.83721 21.7722 11.527 21.7722 13.5704ZM17.8492 18.1408C20.488 18.1408 22.6272 16.0946 22.6272 13.5704C22.6272 11.0462 20.488 9 17.8492 9C15.2104 9 13.0713 11.0462 13.0713 13.5704C13.0713 16.0946 15.2104 18.1408 17.8492 18.1408ZM11.2656 22.1979C12.1703 21.3325 13.3995 20.8446 14.6832 20.8446H21.3168C22.6005 20.8446 23.8297 21.3325 24.7344 22.1979C25.6388 23.063 26.145 24.2343 26.145 25.4534V26.5814C26.145 26.8126 26.3364 27 26.5725 27C26.8086 27 27 26.8126 27 26.5814V25.4534C27 24.0058 26.3987 22.6196 25.3319 21.5991C24.2653 20.5788 22.8209 20.0074 21.3168 20.0074H14.6832C13.1791 20.0074 11.7347 20.5788 10.6681 21.5991C9.60126 22.6196 9 24.0058 9 25.4534V26.5814C9 26.8126 9.1914 27 9.4275 27C9.6636 27 9.855 26.8126 9.855 26.5814V25.4534C9.855 24.2343 10.3612 23.063 11.2656 22.1979Z" fill="#17BBD3"/>
</svg>
