<svg width="7" height="13" viewBox="0 0 7 13" fill="none" xmlns="http://www.w3.org/2000/svg">
<path d="M0.919457 11.8914C0.771003 11.7405 0.6875 11.5351 0.6875 11.3209C0.6875 11.1066 0.771003 10.9013 0.919457 10.7504L4.51097 7.07047C4.65943 6.9196 4.74293 6.71424 4.74293 6.5C4.74293 6.28576 4.65943 6.0804 4.51097 5.92953L0.919457 2.24959C0.771003 2.09872 0.6875 1.89336 0.6875 1.67912C0.6875 1.46488 0.771003 1.25951 0.919457 1.10865C1.22531 0.797118 1.71928 0.797118 2.02514 1.10865L5.6245 4.79662C6.54183 5.73771 6.54183 7.26229 5.6245 8.20338L2.02514 11.8914C1.71928 12.2029 1.22531 12.2029 0.919457 11.8914Z" fill="white"/>
</svg>
