<svg width="24" height="24" viewBox="0 0 24 24" fill="none" xmlns="http://www.w3.org/2000/svg">
<path d="M10.1729 3.06938C13.6871 2.34096 17.2674 3.70249 19.375 6.45903V4.00005C19.375 3.65487 19.6549 3.37505 20 3.37505C20.3452 3.37509 20.625 3.6549 20.625 4.00005V9.00005C20.625 9.34517 20.3452 9.62501 20 9.62505H15C14.6549 9.62505 14.3751 9.3452 14.375 9.00005C14.375 8.65487 14.6549 8.37505 15 8.37505H19.1133C17.5013 5.24421 13.9355 3.5657 10.4268 4.29302L10.0645 4.377C8.67327 4.73332 7.40595 5.46011 6.39847 6.47856C5.39101 7.49704 4.68097 8.76929 4.34476 10.1583C4.00863 11.5472 4.0586 13.0015 4.48929 14.3643C4.92005 15.7271 5.71604 16.948 6.79105 17.8956C7.86614 18.8432 9.18037 19.4824 10.5928 19.7432C12.0052 20.004 13.4623 19.8768 14.8077 19.376C16.153 18.8752 17.3361 18.0192 18.2295 16.9005C19.1229 15.7817 19.6933 14.4419 19.8799 13.0254C19.925 12.6832 20.2398 12.4423 20.5821 12.4874C20.924 12.5327 21.1652 12.8465 21.1202 13.1885C20.9038 14.8312 20.2423 16.3844 19.2071 17.6807C18.1719 18.977 16.8015 19.9681 15.2442 20.5479C13.6869 21.1276 11.9999 21.2736 10.3653 20.9717C8.73078 20.6698 7.20901 19.9306 5.9639 18.8331C4.71877 17.7354 3.79724 16.3204 3.29788 14.7403C2.79859 13.1602 2.7402 11.4747 3.12991 9.86431C3.51974 8.25388 4.34278 6.77947 5.5098 5.59966C6.67693 4.41982 8.1447 3.5784 9.75492 3.16606L10.1729 3.06938Z" fill="#4F4F55"/>
</svg>
