<svg width="24" height="24" viewBox="0 0 24 24" fill="none" xmlns="http://www.w3.org/2000/svg">
<path d="M11.1097 3.74536C11.4808 3.01811 12.52 3.01811 12.8911 3.74536L14.7669 7.42089C14.9122 7.70561 15.1848 7.90371 15.5005 7.95392L19.5758 8.60205C20.3821 8.7303 20.7032 9.71859 20.1263 10.2963L17.2103 13.216C16.9844 13.4422 16.8802 13.7627 16.93 14.0785L17.573 18.1546C17.7002 18.9611 16.8595 19.5719 16.1318 19.2017L12.4538 17.3307C12.1689 17.1857 11.8319 17.1857 11.547 17.3307L7.86905 19.2017C7.14132 19.5719 6.30063 18.9611 6.42784 18.1546L7.07076 14.0785C7.12056 13.7627 7.01641 13.4422 6.79053 13.216L3.87453 10.2963C3.29756 9.71859 3.61867 8.7303 4.42502 8.60205L8.50029 7.95392C8.81598 7.90371 9.08864 7.70561 9.23394 7.42089L11.1097 3.74536Z" fill="white"/>
</svg>
