<svg width="14" height="14" viewBox="0 0 14 14" fill="none" xmlns="http://www.w3.org/2000/svg">
<path d="M11.1665 3.60059V2.83398H2.8335V3.63281L2.84521 3.75586C2.86782 3.87628 2.92295 3.98915 3.00635 4.08105L5.62061 6.95605C5.70404 7.04797 5.75041 7.16785 5.75049 7.29199V11.5566L8.25049 10.7227V7.00098C8.25049 6.86837 8.3032 6.74123 8.39697 6.64746L10.9712 4.07227C11.0962 3.94727 11.1665 3.77738 11.1665 3.60059ZM12.1665 3.60156C12.1663 4.04338 11.9907 4.46692 11.6782 4.7793L9.25049 7.20703V11.084C9.25049 11.2991 9.1127 11.4905 8.90869 11.5586L5.40869 12.7246C5.25622 12.7754 5.0879 12.7502 4.95752 12.6562C4.82734 12.5623 4.75059 12.4115 4.75049 12.251V7.48535L2.26709 4.75391C2.02322 4.4856 1.87381 4.14632 1.84033 3.78809L1.8335 3.63281V2.33398C1.8335 2.05784 2.05735 1.83398 2.3335 1.83398H11.6665L11.7681 1.84375C11.9957 1.89052 12.1665 2.09249 12.1665 2.33398V3.60156Z" fill="#4F4F55"/>
</svg>
