<svg width="24" height="24" viewBox="0 0 24 24" fill="none" xmlns="http://www.w3.org/2000/svg">
<path fill-rule="evenodd" clip-rule="evenodd" d="M13.9941 1.5C14.294 1.49954 14.5857 1.60119 14.8203 1.78809C15.0548 1.97516 15.2197 2.2367 15.2861 2.5293L15.6084 4.70996C15.8833 4.83985 16.1509 4.98532 16.4091 5.14551L16.664 5.31055L18.7314 4.50391C19.0173 4.3953 19.332 4.38906 19.622 4.48633C19.9121 4.58373 20.1597 4.77879 20.3222 5.03809L22.3232 8.39844C22.479 8.66678 22.5341 8.98181 22.4785 9.28711L22.4531 9.40039C22.3814 9.6602 22.2308 9.89291 22.0205 10.0645L20.2695 11.4033C20.284 11.5969 20.2933 11.7908 20.2949 11.9844C20.2965 12.1781 20.2856 12.3753 20.2695 12.5674L22.0039 13.8936C22.2487 14.0875 22.4163 14.3632 22.4755 14.6699C22.5348 14.9767 22.4823 15.2952 22.3271 15.5664L20.33 18.9189L20.2666 19.0137C20.1089 19.228 19.8896 19.3904 19.6367 19.4785L19.5263 19.5117C19.3053 19.5677 19.0734 19.5659 18.8535 19.5059L18.7441 19.4707L16.6621 18.6631C16.3253 18.8872 15.9732 19.0882 15.6084 19.2627L15.3017 21.3818L15.2773 21.4951C15.208 21.7556 15.0604 21.9903 14.8544 22.167L14.7636 22.2383C14.5445 22.3954 14.2821 22.4828 14.0107 22.4883L10.0087 22.5C9.7458 22.5008 9.48868 22.4235 9.27144 22.2783L9.18159 22.2119C8.97619 22.0478 8.82443 21.8264 8.74605 21.5772L8.71773 21.4688L8.39448 19.29C8.02833 19.1157 7.67524 18.914 7.33882 18.6875L5.27144 19.4951L5.16304 19.5303C4.94398 19.5921 4.71247 19.5972 4.49116 19.5439L4.38179 19.5127C4.12833 19.4281 3.90702 19.2687 3.74605 19.0576L3.68062 18.9639L1.68062 15.6016C1.52252 15.3344 1.46604 15.0184 1.52144 14.7129C1.57692 14.4075 1.74062 14.1321 1.98238 13.9375L3.73335 12.5977C3.7253 12.5009 3.71923 12.4038 3.7148 12.3066L3.70796 12.0156C3.70796 11.822 3.70817 11.6227 3.73238 11.4307L1.99702 10.1045C1.78153 9.93496 1.62597 9.70208 1.55073 9.44043L1.52339 9.32715C1.47154 9.05797 1.50667 8.78017 1.62105 8.5332L1.67476 8.42871L3.68355 5.06836C3.84279 4.80664 4.08848 4.60826 4.37788 4.50781C4.66734 4.40739 4.98332 4.41169 5.27046 4.51856L7.35249 5.3252C7.68886 5.1003 8.04123 4.89928 8.4062 4.72461L8.71284 2.60547C8.76608 2.29997 8.92362 2.02203 9.15913 1.82031C9.39469 1.61864 9.69383 1.50557 10.0039 1.5H13.9941ZM9.99702 2.75488C9.98807 2.75833 9.98001 2.76417 9.97261 2.77051C9.95774 2.78329 9.94767 2.8009 9.94429 2.82031L9.64253 4.90332L9.5478 5.56445L8.94527 5.85254C8.63405 6.0015 8.33366 6.17246 8.04683 6.36426L7.50679 6.72559L6.90034 6.49024L4.83296 5.68848C4.81851 5.68347 4.80253 5.68446 4.78804 5.68945C4.77307 5.69469 4.76017 5.70517 4.75191 5.71875L2.75679 9.05371C2.7505 9.06464 2.74855 9.07841 2.75093 9.09082C2.75333 9.10279 2.76008 9.11342 2.76948 9.1211L4.49116 10.4385L5.06245 10.875L4.97261 11.5869C4.95989 11.6878 4.95796 11.8077 4.95796 12.0156C4.95797 12.1681 4.96561 12.3281 4.97945 12.4941L5.03609 13.1758L4.49312 13.5908L2.76558 14.9111C2.75801 14.9173 2.75366 14.9269 2.75191 14.9365C2.75023 14.9458 2.75127 14.9556 2.75581 14.9639L4.73628 18.2939L4.75386 18.3135C4.76082 18.319 4.76879 18.3233 4.7773 18.3262C4.79426 18.3318 4.81324 18.3315 4.83003 18.3252L6.88472 17.5234L7.49409 17.2852L8.03706 17.6504C8.25091 17.7943 8.47276 17.9266 8.70113 18.0459L8.93159 18.1611L9.53316 18.4473L9.63081 19.1064L9.94234 21.209C9.94677 21.2189 9.9533 21.2285 9.96187 21.2354C9.97394 21.2448 9.98947 21.25 10.0048 21.25L13.9892 21.2383C14.0082 21.2371 14.0264 21.2302 14.041 21.2178C14.0556 21.2052 14.0643 21.1878 14.0683 21.1689L14.371 19.083L14.4668 18.4229L15.0693 18.1348C15.381 17.9856 15.682 17.8145 15.9697 17.623L16.5097 17.2637L17.1142 17.498L19.1796 18.2979C19.1945 18.3028 19.2107 18.3039 19.2255 18.2988C19.2412 18.2934 19.254 18.2818 19.2626 18.2676L21.2421 14.9443C21.2483 14.933 21.2504 14.9199 21.248 14.9072C21.2455 14.8942 21.2387 14.8823 21.2285 14.874H21.2275L19.5097 13.5605L18.9658 13.1445L19.0234 12.4629C19.0378 12.291 19.046 12.1357 19.0449 11.9951C19.0435 11.8358 19.0354 11.6706 19.0224 11.4971L18.9716 10.8223L19.5097 10.4111L21.2314 9.09277C21.2401 9.08491 21.2468 9.07513 21.249 9.06348C21.2513 9.05077 21.2486 9.03751 21.2421 9.02637V9.02539L19.2607 5.69824C19.2517 5.68572 19.2392 5.67582 19.2246 5.6709C19.2089 5.66566 19.1913 5.66524 19.1757 5.6709L17.1181 6.47559L16.5087 6.71289L15.9648 6.34766C15.6812 6.1565 15.3834 5.98691 15.0742 5.84082L14.4697 5.55469L14.372 4.89356L14.0595 2.78906C14.0549 2.78021 14.0489 2.77192 14.041 2.76563C14.0283 2.7556 14.0122 2.74998 13.996 2.75H10.0253L9.99702 2.75488ZM12 8.25C14.071 8.25 15.75 9.92893 15.75 12C15.75 14.0711 14.071 15.75 12 15.75C9.92905 15.7498 8.24995 14.0709 8.24995 12C8.24995 9.92906 9.92905 8.2502 12 8.25ZM12 9.5C10.6194 9.5002 9.49995 10.6194 9.49995 12C9.49995 13.3806 10.6194 14.4998 12 14.5C13.3807 14.5 14.5 13.3807 14.5 12C14.5 10.6193 13.3807 9.5 12 9.5Z" fill="#292D36"/>
</svg>
