<svg width="20" height="20" viewBox="0 0 20 20" fill="none" xmlns="http://www.w3.org/2000/svg">
<path d="M18.334 4.25C18.748 4.25018 19.084 4.58589 19.084 5C19.084 5.41411 18.748 5.74982 18.334 5.75H14.917V9.16699C14.9168 9.58106 14.5811 9.91699 14.167 9.91699H10.75V13.333C10.75 13.7472 10.4142 14.083 10 14.083H6.58398V17.5C6.58398 17.9141 6.24805 18.2498 5.83398 18.25H1.66699C1.25278 18.25 0.916992 17.9142 0.916992 17.5C0.916992 17.0858 1.25278 16.75 1.66699 16.75H5.08398V13.333C5.08416 12.9189 5.41988 12.583 5.83398 12.583H9.25V9.16699C9.25 8.75289 9.58594 8.41717 10 8.41699H13.417V5C13.417 4.58579 13.7528 4.25 14.167 4.25H18.334ZM5.02539 1.75098C5.03191 1.7512 5.03841 1.75156 5.04492 1.75195C5.08392 1.75426 5.12201 1.75954 5.15918 1.76758C5.19246 1.7748 5.2246 1.78607 5.25684 1.79785C5.26932 1.80242 5.28276 1.80437 5.29492 1.80957C5.31401 1.81772 5.33112 1.83004 5.34961 1.83984C5.37341 1.85248 5.39773 1.86387 5.41992 1.87891C5.45876 1.90524 5.49587 1.93532 5.53027 1.96973L8.03027 4.46973C8.32317 4.76262 8.32317 5.23738 8.03027 5.53027C7.73738 5.82317 7.26262 5.82317 6.96973 5.53027L5.75 4.31055V8.33301L5.74609 8.41016C5.70762 8.78828 5.38828 9.08301 5 9.08301C4.61172 9.08301 4.29238 8.78828 4.25391 8.41016L4.25 8.33301V4.31055L3.03027 5.53027C2.73738 5.82317 2.26262 5.82317 1.96973 5.53027C1.67683 5.23738 1.67683 4.76262 1.96973 4.46973L4.46973 1.96973L4.52637 1.91797C4.53656 1.90965 4.54807 1.90321 4.55859 1.89551C4.57413 1.88414 4.59003 1.87345 4.60645 1.86328C4.63034 1.84849 4.65462 1.8351 4.67969 1.82324C4.69786 1.81462 4.71641 1.80697 4.73535 1.7998C4.76293 1.78942 4.79094 1.78144 4.81934 1.77441C4.8394 1.76944 4.85922 1.76309 4.87988 1.75977C4.89094 1.75799 4.90198 1.75616 4.91309 1.75488C4.9416 1.75159 4.97061 1.75 5 1.75C5.0085 1.75 5.01696 1.7507 5.02539 1.75098Z" fill="white"/>
</svg>
