<svg width="14" height="14" viewBox="0 0 14 14" fill="none" xmlns="http://www.w3.org/2000/svg">
<path fill-rule="evenodd" clip-rule="evenodd" d="M10.352 9.5283L14 13.1763L13.1763 14L9.5283 10.352C7.1213 12.3201 3.59387 12.0551 1.50797 9.74943C-0.577928 7.44379 -0.48951 3.90752 1.70901 1.70901C3.90752 -0.48951 7.44379 -0.577928 9.74943 1.50797C12.0551 3.59387 12.3201 7.1213 10.352 9.5283ZM1.18377 5.84421C1.18377 8.41811 3.27032 10.5047 5.84421 10.5047C8.41691 10.5018 10.5018 8.41691 10.5047 5.84421C10.5047 3.27032 8.41811 1.18377 5.84421 1.18377C3.27032 1.18377 1.18377 3.27032 1.18377 5.84421Z" fill="black"/>
</svg>
