<svg width="24" height="24" viewBox="0 0 24 24" fill="none" xmlns="http://www.w3.org/2000/svg">
<path d="M12 9.25C12.4142 9.25 12.75 9.58579 12.75 10V12.25H17C18.5188 12.25 19.75 13.4812 19.75 15V16L19.749 16.001C20.5782 16.0048 21.0418 16.0311 21.4082 16.2178C21.7845 16.4095 22.0905 16.7155 22.2822 17.0918C22.5002 17.5196 22.5 18.0801 22.5 19.2002V19.7998C22.5 20.9199 22.5002 21.4804 22.2822 21.9082C22.0905 22.2845 21.7845 22.5905 21.4082 22.7822C20.9804 23.0002 20.4199 23 19.2998 23H18.7002C17.5801 23 17.0196 23.0002 16.5918 22.7822C16.2155 22.5905 15.9095 22.2845 15.7178 21.9082C15.4998 21.4804 15.5 20.9199 15.5 19.7998V19.2002C15.5 18.0801 15.4998 17.5196 15.7178 17.0918C15.9095 16.7155 16.2155 16.4095 16.5918 16.2178C16.9581 16.0312 17.4215 16.0048 18.25 16.001V15C18.25 14.3096 17.6904 13.75 17 13.75H7C6.30964 13.75 5.75 14.3096 5.75 15V16.001C6.57854 16.0048 7.04194 16.0312 7.4082 16.2178C7.78446 16.4095 8.09049 16.7155 8.28223 17.0918C8.50021 17.5196 8.5 18.0801 8.5 19.2002V19.7998C8.5 20.9199 8.50021 21.4804 8.28223 21.9082C8.09049 22.2845 7.78446 22.5905 7.4082 22.7822C6.98038 23.0002 6.41991 23 5.2998 23H4.7002C3.58009 23 3.01962 23.0002 2.5918 22.7822C2.21554 22.5905 1.90951 22.2845 1.71777 21.9082C1.49979 21.4804 1.5 20.9199 1.5 19.7998V19.2002C1.5 18.0801 1.49979 17.5196 1.71777 17.0918C1.90951 16.7155 2.21554 16.4095 2.5918 16.2178C2.95806 16.0312 3.42146 16.0048 4.25 16.001V15C4.25 13.4812 5.48122 12.25 7 12.25H11.25V10C11.25 9.58579 11.5858 9.25 12 9.25Z" fill="white"/>
<path d="M12 1C13.1046 1 14 1.89543 14 3C14 3.42572 13.8654 3.81926 13.6387 4.14355C15.0054 4.55951 15.9999 5.83028 16 7.33301C16 7.7012 15.7012 8 15.333 8H8.66699C8.2988 8 8 7.7012 8 7.33301C8.00014 5.83061 8.99405 4.55979 10.3604 4.14355C10.1338 3.81935 10 3.42552 10 3C10 1.89543 10.8954 1 12 1Z" fill="white"/>
</svg>
