<svg width="24" height="24" viewBox="0 0 24 24" fill="none" xmlns="http://www.w3.org/2000/svg">
<path fill-rule="evenodd" clip-rule="evenodd" d="M10 2C10.4941 2 10.9198 1.99914 11.2686 2.02735C11.6277 2.05642 11.9853 2.12063 12.3291 2.29395C12.8419 2.55272 13.2591 2.96597 13.5205 3.47364C13.6957 3.8141 13.7616 4.16868 13.791 4.52442C13.8195 4.86967 13.8184 5.29121 13.8184 5.78028V12.7637C12.408 13.8615 11.5 15.5743 11.5 17.5C11.5 18.3925 11.6964 19.2388 12.0459 20H2.90918C2.4071 20 2 19.5967 2 19.0996C2.00026 18.6028 2.40726 18.2002 2.90918 18.2002V5.78028C2.90918 5.2912 2.90805 4.86967 2.93652 4.52442C2.9659 4.16868 3.03083 3.8141 3.20605 3.47364C3.46745 2.9659 3.88462 2.55277 4.39746 2.29395C4.74137 2.12047 5.09966 2.05643 5.45898 2.02735C5.80775 1.99915 6.23348 2 6.72754 2H10ZM7 12.8018C6.49808 12.8018 6.09108 13.2043 6.09082 13.7012C6.09082 14.1982 6.49792 14.6016 7 14.6016H9.72754C10.2295 14.6014 10.6367 14.1981 10.6367 13.7012C10.6365 13.2044 10.2293 12.802 9.72754 12.8018H7ZM7 9.20117C6.49794 9.20117 6.09085 9.60453 6.09082 10.1016C6.09082 10.5986 6.49792 11.002 7 11.002H9.72754C10.2295 11.0018 10.6367 10.5985 10.6367 10.1016C10.6367 9.60464 10.2294 9.20136 9.72754 9.20117H7ZM7 5.60157C6.49792 5.60157 6.09082 6.0049 6.09082 6.50196C6.09103 6.99884 6.49805 7.40137 7 7.40137H9.72754C10.2293 7.40118 10.6365 6.99872 10.6367 6.50196C10.6367 6.00501 10.2295 5.60176 9.72754 5.60157H7Z" fill="white"/>
<path d="M17.2725 9.2002C17.7665 9.2002 18.1923 9.19934 18.541 9.22754C18.9003 9.25662 19.2586 9.32067 19.6025 9.49414C20.1154 9.75297 20.5326 10.1661 20.7939 10.6738C20.9691 11.0143 21.0341 11.3689 21.0635 11.7246C21.0862 11.9998 21.0882 12.3236 21.0889 12.6914C20.088 11.9432 18.8458 11.5 17.5 11.5C16.4996 11.5 15.5569 11.7457 14.7275 12.1787V9.2002H17.2725Z" fill="white"/>
<path d="M18.4912 18C18.4483 19.224 18.2502 20.2887 17.9746 21.0469C17.8168 21.4808 17.6526 21.7623 17.5205 21.916C17.5138 21.9238 17.5061 21.9298 17.5 21.9365C17.4939 21.9298 17.4862 21.9238 17.4795 21.916C17.3474 21.7623 17.1832 21.4808 17.0254 21.0469C16.7498 20.2887 16.5517 19.224 16.5088 18H18.4912Z" fill="white"/>
<path d="M15.5098 18C15.5606 19.5517 15.8461 20.9168 16.2676 21.8271C14.5366 21.3351 13.2312 19.8346 13.0283 18H15.5098Z" fill="white"/>
<path d="M21.9717 18C21.7688 19.835 20.4629 21.3354 18.7314 21.8271C19.153 20.9168 19.4394 19.552 19.4902 18H21.9717Z" fill="white"/>
<path d="M16.2676 13.1719C15.8459 14.0822 15.5606 15.4478 15.5098 17H13.0283C13.2312 15.1653 14.5365 13.6638 16.2676 13.1719Z" fill="white"/>
<path d="M17.5205 13.084C17.6526 13.2377 17.8168 13.5192 17.9746 13.9531C18.2502 14.7113 18.4483 15.776 18.4912 17H16.5088C16.5517 15.776 16.7498 14.7113 17.0254 13.9531C17.1832 13.5192 17.3474 13.2377 17.4795 13.084C17.4863 13.076 17.4938 13.0693 17.5 13.0625C17.5062 13.0693 17.5137 13.076 17.5205 13.084Z" fill="white"/>
<path d="M18.7314 13.1719C20.463 13.6636 21.7688 15.1649 21.9717 17H19.4902C19.4394 15.4476 19.1532 14.0822 18.7314 13.1719Z" fill="white"/>
</svg>
