<svg width="15" height="15" viewBox="0 0 15 15" fill="none" xmlns="http://www.w3.org/2000/svg">
<path d="M9.99988 13.125V11.875C9.99988 11.212 9.73649 10.5761 9.26765 10.1072C8.7988 9.63839 8.16292 9.375 7.49988 9.375H3.12488C2.46184 9.375 1.82595 9.63839 1.35711 10.1072C0.88827 10.5761 0.624878 11.212 0.624878 11.875V13.125" stroke="#3D3D3D" stroke-width="1.2" stroke-linecap="round" stroke-linejoin="round"/>
<path d="M12.4999 5V8.75043" stroke="#3D3D3D" stroke-width="1.2" stroke-linecap="round" stroke-linejoin="round"/>
<path d="M14.3756 6.875H10.6251" stroke="#3D3D3D" stroke-width="1.2" stroke-linecap="round" stroke-linejoin="round"/>
<path d="M5.31267 6.87558C6.69354 6.87558 7.81296 5.75616 7.81296 4.37529C7.81296 2.99442 6.69354 1.875 5.31267 1.875C3.9318 1.875 2.81238 2.99442 2.81238 4.37529C2.81238 5.75616 3.9318 6.87558 5.31267 6.87558Z" stroke="#3D3D3D" stroke-width="1.2" stroke-linecap="round" stroke-linejoin="round"/>
</svg>
