<svg width="24" height="24" viewBox="0 0 24 24" fill="none" xmlns="http://www.w3.org/2000/svg">
<path fill-rule="evenodd" clip-rule="evenodd" d="M12 3C16.9706 3 21 7.02944 21 12C21 16.9706 16.9706 21 12 21C7.02944 21 3 16.9706 3 12C3 7.02944 7.02944 3 12 3ZM12.167 15.667C11.6608 15.667 11.2502 16.0769 11.25 16.583C11.25 17.0893 11.6607 17.5 12.167 17.5C12.6731 17.4998 13.083 17.0892 13.083 16.583C13.0828 16.077 12.673 15.6672 12.167 15.667ZM12.167 6.5C11.1947 6.5 10.2618 6.84074 9.57422 7.44727C8.88659 8.05395 8.5 8.87737 8.5 9.73535C8.50638 9.92068 8.59439 10.0964 8.74512 10.2256C8.89601 10.3549 9.09825 10.4276 9.30859 10.4277C9.51884 10.4278 9.72104 10.3556 9.87207 10.2266C10.023 10.0975 10.1115 9.92167 10.1182 9.73633C10.118 9.50002 10.171 9.26583 10.2744 9.04785C10.3779 8.82987 10.5298 8.63252 10.7207 8.4668C11.1042 8.12857 11.6238 7.9385 12.166 7.93848C12.7083 7.93848 13.2288 8.12852 13.6123 8.4668C13.8031 8.63244 13.9542 8.83003 14.0576 9.04785C14.1611 9.26584 14.215 9.50001 14.2148 9.73633C14.2147 10.2845 13.855 10.7797 13.0137 11.3906C12.4556 11.746 11.9821 12.1945 11.6201 12.7109C11.4138 13.0844 11.3232 13.4997 11.3574 13.9141V14.0371L11.3594 14.0361C11.3594 14.2254 11.4441 14.4072 11.5957 14.541C11.7474 14.6748 11.9535 14.7499 12.168 14.75C12.3825 14.75 12.5885 14.6748 12.7402 14.541C12.892 14.4071 12.9775 14.2255 12.9775 14.0361V13.9121C12.9502 13.728 12.9766 13.5409 13.0537 13.3682C13.3254 13.0259 13.6604 12.7264 14.0449 12.4824C14.5028 12.1659 14.9059 11.7915 15.2412 11.3721C15.6216 10.8918 15.8278 10.3212 15.833 9.73535C15.833 8.87741 15.4473 8.05394 14.7598 7.44727C14.0722 6.84065 13.1393 6.50008 12.167 6.5Z" fill="white"/>
</svg>
