<svg width="24" height="24" viewBox="0 0 24 24" fill="none" xmlns="http://www.w3.org/2000/svg">
<path fill-rule="evenodd" clip-rule="evenodd" d="M16 3C17.4 3 18.1 3.00007 18.6348 3.27246C19.1052 3.51214 19.4879 3.89483 19.7275 4.36523C19.9999 4.89999 20 5.60002 20 7V12.6885C19.5206 12.5651 19.0179 12.5 18.5 12.5C15.1863 12.5 12.5 15.1863 12.5 18.5C12.5 19.3925 12.6964 20.2388 13.0459 21H8C6.60002 21 5.89999 20.9999 5.36523 20.7275C4.89483 20.4879 4.51214 20.1052 4.27246 19.6348C4.00007 19.1 4 18.4 4 17V8.66309C4 8.4185 3.99971 8.29575 4.02734 8.18066C4.05184 8.07864 4.09264 7.98106 4.14746 7.8916C4.2093 7.79074 4.29587 7.70413 4.46875 7.53125L8.53125 3.46875C8.70413 3.29587 8.79074 3.2093 8.8916 3.14746C8.98106 3.09264 9.07864 3.05184 9.18066 3.02734C9.29575 2.99971 9.4185 3 9.66309 3H16ZM7 15.25C6.58579 15.25 6.25 15.5858 6.25 16C6.25 16.4142 6.58579 16.75 7 16.75H10C10.4142 16.75 10.75 16.4142 10.75 16C10.75 15.5858 10.4142 15.25 10 15.25H7ZM7 11.75C6.58579 11.75 6.25 12.0858 6.25 12.5C6.25 12.9142 6.58579 13.25 7 13.25H12C12.4142 13.25 12.75 12.9142 12.75 12.5C12.75 12.0858 12.4142 11.75 12 11.75H7ZM10 5.20703C9.99994 4.76165 9.46145 4.53861 9.14648 4.85352L5.85352 8.14648C5.53861 8.46145 5.76165 8.99994 6.20703 9H9.5C9.77614 9 10 8.77614 10 8.5V5.20703Z" fill="white"/>
<path d="M17.25 18.6982L17.167 18.5H17.333L17.25 18.6982Z" fill="white"/>
<path d="M19.75 18.6982L19.667 18.5H19.833L19.75 18.6982Z" fill="white"/>
<path fill-rule="evenodd" clip-rule="evenodd" d="M18.5 14C20.9853 14 23 16.0147 23 18.5C23 20.9853 20.9853 23 18.5 23C16.0147 23 14 20.9853 14 18.5C14 16.0147 16.0147 14 18.5 14ZM21.1924 16.5381C20.9375 16.4319 20.6443 16.5527 20.5381 16.8076L20.249 17.5H19.251L18.9619 16.8076C18.8843 16.6213 18.7019 16.5 18.5 16.5C18.3233 16.5 18.1619 16.593 18.0723 16.7412L18.0381 16.8076L17.749 17.5H16.751L16.4619 16.8076C16.3557 16.5527 16.0625 16.4319 15.8076 16.5381C15.5527 16.6443 15.4319 16.9375 15.5381 17.1924L15.666 17.5H15.5C15.2239 17.5 15 17.7239 15 18C15 18.2761 15.2239 18.5 15.5 18.5H16.083L16.7881 20.1924C16.8657 20.3787 17.0481 20.5 17.25 20.5C17.4519 20.5 17.6343 20.3787 17.7119 20.1924L18.417 18.5H18.583L19.2881 20.1924C19.3657 20.3787 19.5481 20.5 19.75 20.5C19.9519 20.5 20.1343 20.3787 20.2119 20.1924L20.917 18.5H21.5C21.7761 18.5 22 18.2761 22 18C22 17.7239 21.7761 17.5 21.5 17.5H21.334L21.4619 17.1924C21.5681 16.9375 21.4473 16.6443 21.1924 16.5381Z" fill="white"/>
</svg>
