<svg width="24" height="24" viewBox="0 0 24 24" fill="none" xmlns="http://www.w3.org/2000/svg">
<path d="M10 3C10.4941 3 10.9198 2.99914 11.2686 3.02735C11.6277 3.05642 11.9853 3.12063 12.3291 3.29395C12.8419 3.55272 13.2591 3.96596 13.5205 4.47364C13.6957 4.81411 13.7616 5.16868 13.791 5.52442C13.8195 5.86967 13.8184 6.29121 13.8184 6.78028V19.6494H14.7275V10.2002H17.2725C17.7665 10.2002 18.1923 10.1993 18.541 10.2275C18.9003 10.2566 19.2586 10.3207 19.6025 10.4941C20.1154 10.753 20.5326 11.1661 20.7939 11.6738C20.9691 12.0143 21.0341 12.3689 21.0635 12.7246C21.0919 13.0698 21.0908 13.4914 21.0908 13.9805V19.2002C21.5927 19.2002 21.9997 19.6028 22 20.0996C22 20.5967 21.5929 21 21.0908 21H2.90918C2.4071 21 2 20.5967 2 20.0996C2.00026 19.6028 2.40726 19.2002 2.90918 19.2002V6.78028C2.90918 6.2912 2.90805 5.86968 2.93652 5.52442C2.9659 5.16868 3.03083 4.81411 3.20605 4.47364C3.46745 3.96589 3.88462 3.55277 4.39746 3.29395C4.74137 3.12047 5.09966 3.05643 5.45898 3.02735C5.80775 2.99915 6.23348 3 6.72754 3H10ZM7 13.8018C6.49808 13.8018 6.09108 14.2043 6.09082 14.7012C6.09082 15.1982 6.49792 15.6016 7 15.6016H9.72754C10.2295 15.6014 10.6367 15.1981 10.6367 14.7012C10.6365 14.2044 10.2293 13.8019 9.72754 13.8018H7ZM7 10.2012C6.49794 10.2012 6.09084 10.6045 6.09082 11.1016C6.09082 11.5986 6.49792 12.002 7 12.002H9.72754C10.2295 12.0018 10.6367 11.5985 10.6367 11.1016C10.6367 10.6046 10.2294 10.2014 9.72754 10.2012H7ZM7 6.60156C6.49792 6.60156 6.09082 7.00489 6.09082 7.50196C6.09103 7.99884 6.49805 8.40137 7 8.40137H9.72754C10.2293 8.40118 10.6365 7.99872 10.6367 7.50196C10.6367 7.00501 10.2295 6.60175 9.72754 6.60156H7Z" fill="white"/>
</svg>
