<svg width="24" height="24" viewBox="0 0 24 24" fill="none" xmlns="http://www.w3.org/2000/svg">
<path d="M12 4C16.4183 4 20 7.58172 20 12C20 16.4183 16.4183 20 12 20C7.58172 20 4 16.4183 4 12C4 7.58172 7.58172 4 12 4ZM12 7.375C11.6548 7.375 11.375 7.65482 11.375 8V11.957C11.375 12.1638 11.4775 12.3572 11.6484 12.4736L14.6484 14.5166C14.9338 14.7108 15.3224 14.6368 15.5166 14.3516C15.7108 14.0662 15.6368 13.6776 15.3516 13.4834L12.625 11.626V8C12.625 7.65482 12.3452 7.375 12 7.375Z" fill="white"/>
</svg>
