<svg width="24" height="24" viewBox="0 0 24 24" fill="none" xmlns="http://www.w3.org/2000/svg">
<path fill-rule="evenodd" clip-rule="evenodd" d="M0 12C0 18.6274 5.37258 24 12 24C18.6244 23.9928 23.9928 18.6244 24 12C24 5.37258 18.6274 0 12 0C5.37258 0 0 5.37258 0 12ZM2 12C2 6.47715 6.47715 2 12 2C17.5203 2.00606 21.9939 6.47967 22 12C22 17.5228 17.5228 22 12 22C6.47715 22 2 17.5228 2 12Z" fill="black"/>
<path d="M13 14.9999H11V14.2569C10.9699 12.82 11.7219 11.48 12.964 10.7569C13.7219 10.3395 14.1254 9.48201 13.964 8.63193C13.8046 7.82438 13.172 7.19379 12.364 7.03693C11.7804 6.92891 11.1789 7.08568 10.7223 7.46485C10.2657 7.84402 10.0011 8.40641 10 8.99993H8C8.00069 7.04882 9.40896 5.38287 11.3327 5.0574C13.2565 4.73192 15.1344 5.84188 15.7769 7.68418C16.4194 9.52648 15.639 11.5635 13.93 12.5049C13.3291 12.8807 12.9745 13.5487 13 14.2569V14.9999Z" fill="black"/>
<rect x="11" y="17" width="2" height="2" fill="black"/>
</svg>
