<svg width="18" height="18" viewBox="0 0 18 18" fill="none" xmlns="http://www.w3.org/2000/svg">
<path fill-rule="evenodd" clip-rule="evenodd" d="M15.4286 9C15.4286 12.5504 12.5504 15.4286 9 15.4286C5.4496 15.4286 2.57143 12.5504 2.57143 9C2.57143 5.4496 5.4496 2.57143 9 2.57143C12.5504 2.57143 15.4286 5.4496 15.4286 9ZM16.5 9C16.5 13.1421 13.1421 16.5 9 16.5C4.85786 16.5 1.5 13.1421 1.5 9C1.5 4.85786 4.85786 1.5 9 1.5C13.1421 1.5 16.5 4.85786 16.5 9ZM9.21996 6.4102C9.1356 6.28914 9.08976 6.14639 9.08825 5.99993C9.08468 5.90117 9.10183 5.80275 9.13864 5.71071C9.17544 5.61867 9.23114 5.53497 9.30228 5.46475C9.37342 5.39453 9.45851 5.33927 9.55231 5.30238C9.64611 5.26549 9.74665 5.24774 9.84773 5.25023C9.99761 5.25024 10.1441 5.29358 10.2688 5.37481C10.3936 5.45603 10.4909 5.57151 10.5486 5.70669C10.6063 5.84188 10.6218 5.99072 10.5931 6.13448C10.5644 6.27825 10.4928 6.41051 10.3874 6.5146C10.2819 6.61869 10.1473 6.68996 10.0005 6.71944C9.8537 6.74892 9.70125 6.73529 9.56235 6.68026C9.42345 6.62523 9.30433 6.53127 9.21996 6.4102ZM7.39961 9.03338C7.39061 8.88701 7.39061 8.74024 7.39961 8.59386C7.50449 8.47451 7.64258 8.32609 7.81927 8.13619C7.92735 8.02003 8.04987 7.88834 8.18806 7.73829C8.49777 7.46401 8.76144 7.2966 9.26471 7.27066C9.37686 7.27674 9.48619 7.30723 9.58473 7.35991C9.68328 7.41259 9.76852 7.48612 9.83424 7.57514C9.89996 7.66416 9.94449 7.7664 9.96458 7.8744C9.98466 7.98239 9.97979 8.09342 9.95033 8.19935L8.84565 11.8101C8.83822 11.8482 8.84446 11.8876 8.86332 11.9218C8.88219 11.9559 8.91253 11.9827 8.94921 11.9975C9.03072 12.0265 9.20141 11.9225 9.33854 11.7735L10.0012 10.9845C10.007 11.1357 10.0031 11.2872 9.98963 11.438C9.49099 12.1793 8.9847 12.75 8.13223 12.75C8.01854 12.7478 7.90689 12.7199 7.806 12.6687C7.7051 12.6174 7.61769 12.5441 7.55052 12.4544C7.48335 12.3647 7.43824 12.2611 7.41872 12.1517C7.3992 12.0422 7.4058 11.9298 7.43797 11.8232L8.53496 8.23026C8.54863 8.18989 8.54637 8.14598 8.52863 8.10714C8.51089 8.06831 8.47894 8.03736 8.43906 8.02035C8.35755 7.99223 8.19935 8.09625 8.06223 8.24432L7.39961 9.03338Z" fill="#B1B1B4"/>
</svg>
