<svg width="16" height="19" viewBox="0 0 16 19" fill="none" xmlns="http://www.w3.org/2000/svg">
<g clip-path="url(#clip0_242_27738)">
<path d="M16 18.7857H0V14.2936C0 13.0878 0.717949 11.9828 1.82662 11.4735L6.09524 9.49895L6.47131 10.282L2.20269 12.2566C1.39683 12.6265 0.879121 13.4241 0.879121 14.2936V17.9209H15.1209V14.2936C15.1209 13.4241 14.6032 12.6217 13.8022 12.2566L9.558 10.2772L9.93407 9.49414L14.1783 11.4687C15.2869 11.978 16.0049 13.083 16.0049 14.2888V18.7809L16 18.7857Z" fill="black"/>
<path d="M4.61051 6.05396L4.44446 5.2036C6.23689 4.86249 7.99025 4.33402 8.65447 2.78223L9.46521 3.11853C8.63982 5.04506 6.64226 5.66481 4.61051 6.05396Z" fill="black"/>
<path d="M11.4726 5.46781C10.9353 5.46781 10.2467 5.21318 9.30408 4.66068L9.75341 3.91602C10.7253 4.48292 11.2235 4.59823 11.4726 4.59823V5.463V5.46781Z" fill="black"/>
<path d="M8.00486 10.7813C7.91695 10.7813 7.82904 10.7813 7.74113 10.7717C5.69473 10.642 4.08789 8.9028 4.08789 6.81773V4.29066C4.08789 2.36894 5.68008 0.802734 7.63368 0.802734H8.3614C10.315 0.802734 11.9072 2.36894 11.9072 4.29066V6.93303C11.9072 7.98998 11.4579 9.0133 10.6715 9.73875C9.93893 10.4162 9.0012 10.7765 7.99998 10.7765L8.00486 10.7813ZM7.63856 1.66751C6.16848 1.66751 4.9719 2.84457 4.9719 4.29066V6.81773C4.9719 8.45119 6.21243 9.81081 7.79973 9.9117C8.65444 9.96455 9.45541 9.6811 10.0757 9.11419C10.6959 8.54247 11.0329 7.77379 11.0329 6.93784V4.29547C11.0329 2.84937 9.83636 1.67231 8.36628 1.67231H7.63856V1.66751Z" fill="black"/>
<path d="M7.99998 15.7728L6.09521 13.8991L7.99998 12.0254L9.90474 13.8991L7.99998 15.7728ZM7.34064 13.8991L7.99998 14.5477L8.65932 13.8991L7.99998 13.2505L7.34064 13.8991Z" fill="black"/>
<path d="M7.60451 14.9795L6.07532 18.1689L6.87044 18.5378L8.39963 15.3484L7.60451 14.9795Z" fill="black"/>
<path d="M8.39767 14.981L7.60242 15.3496L9.13047 18.5396L9.92573 18.171L8.39767 14.981Z" fill="black"/>
</g>
<defs>
<clipPath id="clip0_242_27738">
<rect width="16" height="17.9825" fill="white" transform="translate(0 0.802734)"/>
</clipPath>
</defs>
</svg>
