<svg width="18" height="18" viewBox="0 0 18 18" fill="none" xmlns="http://www.w3.org/2000/svg">
<path fill-rule="evenodd" clip-rule="evenodd" d="M9 0C4.03725 0 0 4.03725 0 9C0 13.9628 4.03725 18 9 18C13.9628 18 18 13.9628 18 9C18 4.03725 13.9628 0 9 0ZM6 15.873V15.75C6 14.0955 7.3455 12.75 9 12.75C10.6545 12.75 12 14.0955 12 15.75V15.873C11.0805 16.2757 10.0665 16.5 9 16.5C7.9335 16.5 6.9195 16.2757 6 15.873ZM9 11.25C11.2395 11.25 13.1018 12.894 13.4438 15.0382C15.2963 13.671 16.5 11.4735 16.5 9C16.5 4.8645 13.1355 1.5 9 1.5C4.8645 1.5 1.5 4.8645 1.5 9C1.5 11.4735 2.70375 13.671 4.55625 15.0382C4.899 12.894 6.7605 11.25 9 11.25ZM9 3.75C7.3455 3.75 6 5.0955 6 6.75C6 8.4045 7.3455 9.75 9 9.75C10.6545 9.75 12 8.4045 12 6.75C12 5.0955 10.6545 3.75 9 3.75ZM7.5 6.75C7.5 7.57725 8.17275 8.25 9 8.25C9.82725 8.25 10.5 7.57725 10.5 6.75C10.5 5.92275 9.82725 5.25 9 5.25C8.17275 5.25 7.5 5.92275 7.5 6.75Z" fill="white"/>
</svg>
