<svg width="18" height="18" viewBox="0 0 18 18" fill="none" xmlns="http://www.w3.org/2000/svg">
<path d="M13.667 11.167C13.943 11.1671 14.167 11.3909 14.167 11.667V13.167H15.667C15.943 13.1671 16.167 13.3909 16.167 13.667C16.1668 13.9429 15.9429 14.1669 15.667 14.167H14.167V15.667C14.1668 15.9429 13.9429 16.1669 13.667 16.167C13.391 16.167 13.1672 15.943 13.167 15.667V14.167H11.667C11.391 14.167 11.1672 13.943 11.167 13.667C11.167 13.3909 11.3909 13.167 11.667 13.167H13.167V11.667C13.167 11.3908 13.3909 11.167 13.667 11.167ZM12 3.61426C12.3132 3.61429 12.6238 3.67608 12.9131 3.7959C13.2025 3.91579 13.466 4.09199 13.6875 4.31348C13.9088 4.53488 14.0843 4.79772 14.2041 5.08691C14.324 5.37631 14.3857 5.68676 14.3857 6C14.3857 6.31317 14.3239 6.62374 14.2041 6.91309C14.0843 7.2022 13.9087 7.46517 13.6875 7.68652L6.6875 14.6865C6.59387 14.7802 6.46639 14.8329 6.33398 14.833H3.66699C3.39085 14.833 3.16699 14.6091 3.16699 14.333V11.667L3.17676 11.5684C3.19599 11.4725 3.24336 11.3837 3.31348 11.3135L10.3135 4.31348C10.5349 4.09214 10.7977 3.91575 11.0869 3.7959C11.3762 3.67612 11.6869 3.6143 12 3.61426ZM4.16699 11.874V13.833H6.12695L11.96 8L10 6.04004L4.16699 11.874ZM12 4.61426C11.8182 4.6143 11.6377 4.6502 11.4697 4.71973C11.3018 4.78932 11.1491 4.892 11.0205 5.02051L10.707 5.33301L12.667 7.29297L12.9805 6.97949C13.1089 6.85097 13.2107 6.69811 13.2803 6.53027C13.3498 6.36226 13.3857 6.18185 13.3857 6C13.3857 5.81808 13.3499 5.63779 13.2803 5.46973C13.2107 5.30182 13.1089 5.14908 12.9805 5.02051C12.8518 4.89188 12.6983 4.78936 12.5303 4.71973C12.3623 4.6502 12.1818 4.61429 12 4.61426Z" fill="#212126"/>
</svg>
