<svg width="49" height="49" viewBox="0 0 49 49" fill="none" xmlns="http://www.w3.org/2000/svg">
<rect x="14" y="11.75" width="21" height="26" rx="3" fill="url(#paint0_linear_1849_31989)"/>
<g filter="url(#filter0_i_1849_31989)">
<path d="M22 30.75H27C27.2652 30.75 27.5196 30.8554 27.7071 31.0429C27.8946 31.2304 28 31.4848 28 31.75V37.75H21V31.75C21 31.4848 21.1054 31.2304 21.2929 31.0429C21.4804 30.8554 21.7348 30.75 22 30.75Z" fill="#4E7AD9"/>
</g>
<path d="M28.5 25.75C28.3674 25.75 28.2403 25.6973 28.1465 25.6035C28.0527 25.5097 28 25.3826 28 25.25V23.25C28 23.1174 28.0527 22.9903 28.1465 22.8965C28.2403 22.8027 28.3674 22.75 28.5 22.75H30.5C30.6326 22.75 30.7597 22.8027 30.8535 22.8965C30.9473 22.9903 31 23.1174 31 23.25V25.25C31 25.3826 30.9473 25.5097 30.8535 25.6035C30.7597 25.6973 30.6326 25.75 30.5 25.75H28.5ZM23.5 25.75C23.3674 25.75 23.2403 25.6973 23.1465 25.6035C23.0527 25.5097 23 25.3826 23 25.25V23.25C23 23.1174 23.0527 22.9903 23.1465 22.8965C23.2403 22.8027 23.3674 22.75 23.5 22.75H25.5C25.6326 22.75 25.7597 22.8027 25.8535 22.8965C25.9473 22.9903 26 23.1174 26 23.25V25.25C26 25.3826 25.9473 25.5097 25.8535 25.6035C25.7597 25.6973 25.6326 25.75 25.5 25.75H23.5ZM18.5 25.75C18.3674 25.75 18.2403 25.6973 18.1465 25.6035C18.0527 25.5097 18 25.3826 18 25.25V23.25C18 23.1174 18.0527 22.9903 18.1465 22.8965C18.2403 22.8027 18.3674 22.75 18.5 22.75H20.5C20.6326 22.75 20.7597 22.8027 20.8535 22.8965C20.9473 22.9903 21 23.1174 21 23.25V25.25C21 25.3826 20.9473 25.5097 20.8535 25.6035C20.7597 25.6973 20.6326 25.75 20.5 25.75H18.5ZM28.5 20.75C28.3674 20.75 28.2403 20.6973 28.1465 20.6035C28.0527 20.5097 28 20.3826 28 20.25V18.25C28 18.1174 28.0527 17.9903 28.1465 17.8965C28.2403 17.8027 28.3674 17.75 28.5 17.75H30.5C30.6326 17.75 30.7597 17.8027 30.8535 17.8965C30.9473 17.9903 31 18.1174 31 18.25V20.25C31 20.3826 30.9473 20.5097 30.8535 20.6035C30.7597 20.6973 30.6326 20.75 30.5 20.75H28.5ZM23.5 20.75C23.3674 20.75 23.2403 20.6973 23.1465 20.6035C23.0527 20.5097 23 20.3826 23 20.25V18.25C23 18.1174 23.0527 17.9903 23.1465 17.8965C23.2403 17.8027 23.3674 17.75 23.5 17.75H25.5C25.6326 17.75 25.7597 17.8027 25.8535 17.8965C25.9473 17.9903 26 18.1174 26 18.25V20.25C26 20.3826 25.9473 20.5097 25.8535 20.6035C25.7597 20.6973 25.6326 20.75 25.5 20.75H23.5ZM18.5 20.75C18.3674 20.75 18.2403 20.6973 18.1465 20.6035C18.0527 20.5097 18 20.3826 18 20.25V18.25C18 18.1174 18.0527 17.9903 18.1465 17.8965C18.2403 17.8027 18.3674 17.75 18.5 17.75H20.5C20.6326 17.75 20.7597 17.8027 20.8535 17.8965C20.9473 17.9903 21 18.1174 21 18.25V20.25C21 20.3826 20.9473 20.5097 20.8535 20.6035C20.7597 20.6973 20.6326 20.75 20.5 20.75H18.5Z" fill="white"/>
<defs>
<filter id="filter0_i_1849_31989" x="21" y="30.75" width="7.2" height="7.2" filterUnits="userSpaceOnUse" color-interpolation-filters="sRGB">
<feFlood flood-opacity="0" result="BackgroundImageFix"/>
<feBlend mode="normal" in="SourceGraphic" in2="BackgroundImageFix" result="shape"/>
<feColorMatrix in="SourceAlpha" type="matrix" values="0 0 0 0 0 0 0 0 0 0 0 0 0 0 0 0 0 0 127 0" result="hardAlpha"/>
<feOffset dx="0.2" dy="0.2"/>
<feGaussianBlur stdDeviation="0.5"/>
<feComposite in2="hardAlpha" operator="arithmetic" k2="-1" k3="1"/>
<feColorMatrix type="matrix" values="0 0 0 0 0 0 0 0 0 0 0 0 0 0 0 0 0 0 0.16 0"/>
<feBlend mode="normal" in2="shape" result="effect1_innerShadow_1849_31989"/>
</filter>
<linearGradient id="paint0_linear_1849_31989" x1="20.125" y1="10.75" x2="34.3109" y2="39.3561" gradientUnits="userSpaceOnUse">
<stop stop-color="#A8C4FF"/>
<stop offset="1" stop-color="#4A81F7"/>
</linearGradient>
</defs>
</svg>
