<svg width="184" height="131" viewBox="0 0 184 131" fill="none" xmlns="http://www.w3.org/2000/svg">
<g clip-path="url(#clip0_1596_26034)">
<g clip-path="url(#clip1_1596_26034)">
<ellipse cx="91.5" cy="117.684" rx="91.5" ry="11.3156" fill="url(#paint0_radial_1596_26034)"/>
<ellipse cx="91.5" cy="117.684" rx="91.5" ry="11.3156" fill="url(#paint1_radial_1596_26034)"/>
<g opacity="0.3">
<path d="M30.5723 109.491L50.1379 107.491V95.3683L48.0736 96.5288V66.1495L39.7522 52.5197C39.9756 52.4489 40.1693 52.3086 40.3036 52.1201C40.438 51.9317 40.5057 51.7054 40.4965 51.4757C40.5128 51.2089 40.4209 50.9464 40.2407 50.7455C40.0604 50.5446 39.8064 50.4214 39.5338 50.4026H39.3205V50.6288H38.0402V50.4026H37.9311C37.6594 50.4226 37.4067 50.5463 37.2274 50.7471C37.0482 50.9479 36.957 51.2096 36.9734 51.4757C36.962 51.7111 37.0323 51.9433 37.1728 52.1346C37.3133 52.3259 37.5159 52.465 37.7475 52.5294L30.5723 66.1495V109.491Z" fill="url(#paint2_linear_1596_26034)"/>
<path d="M48.1382 110.257V74.3179H61.7267L68.5183 77.3789V74.3179H78.7109V110.257H48.1382Z" fill="url(#paint3_linear_1596_26034)"/>
<path d="M58.1382 83.5919H56.752V86.8054H58.1382V83.5919Z" fill="white"/>
<path d="M54.1382 79.0008H52.752V81.7552H54.1382V79.0008Z" fill="white"/>
<path d="M54.1382 83.5919H52.752V86.8054H54.1382V83.5919Z" fill="white"/>
<path d="M30.5727 120.257V79.3179H16.9842L10.1927 82.3789V79.3179H0V120.257H30.5727Z" fill="url(#paint4_linear_1596_26034)"/>
<path d="M36.9722 64.0008H35.5859V66.7552H36.9722V64.0008Z" fill="white"/>
<path d="M36.9722 68.5919H35.5859V71.8054H36.9722V68.5919Z" fill="white"/>
<path d="M24.9722 84.0008H23.5859V86.7552H24.9722V84.0008Z" fill="white"/>
<path d="M24.9722 88.5919H23.5859V91.8054H24.9722V88.5919Z" fill="white"/>
<path d="M20.9722 84.0008H19.5859V86.7552H20.9722V84.0008Z" fill="white"/>
<path d="M20.9722 88.5919H19.5859V91.8054H20.9722V88.5919Z" fill="white"/>
</g>
<g opacity="0.3">
<path d="M89.3491 102.529V80.8594H88.001V79.3153H129.162V56.2211L151.91 62.6641L151.944 76.8193H154.717V54.2666H157.491V43.3943H160.473V37.2659H161.437V43.3943H163.365V39.9988H164.329V43.3943H166.544V54.2666H169.679V76.8193H187.537V113.529L89.3491 102.529Z" fill="url(#paint5_linear_1596_26034)"/>
<path d="M163.408 58.9117H164.916V61.9085H163.408V58.9117Z" fill="white"/>
<path d="M158.883 58.9117H160.392V61.9085H158.883V58.9117Z" fill="white"/>
<path d="M134.251 63.4067H135.759V71.8975H134.251V63.4067Z" fill="white"/>
</g>
<path d="M145.467 117.542C147.586 117.542 149.304 117.13 149.304 116.623C149.304 116.115 147.586 115.704 145.467 115.704C143.348 115.704 141.63 116.115 141.63 116.623C141.63 117.13 143.348 117.542 145.467 117.542Z" fill="url(#paint6_linear_1596_26034)"/>
<path d="M145.354 88.0334C143.592 89.6653 142.183 91.6356 141.212 93.8248C140.241 96.014 139.727 98.3765 139.702 100.769C139.702 106.55 142.453 109.307 145.377 109.307C148.302 109.307 151.047 106.526 151.047 100.769C151.017 98.3756 150.5 96.0131 149.525 93.8241C148.551 91.6352 147.14 89.6653 145.377 88.0334H145.354Z" fill="#DBE3F5"/>
<path d="M149.042 98.5631L146.004 103.217L145.885 100.253L147.884 96.3694L145.855 99.4584L145.664 94.6381H145.449L145.133 101.86L142.817 98.3022L145.109 102.767L144.99 105.619L141.636 100.508L144.918 106.941L144.53 116.101H146.535L146.052 104.421L149.036 98.569L149.042 98.5631Z" fill="#C6D2ED"/>
<g opacity="0.8">
<path d="M157.396 110.688C158.534 110.688 159.456 110.467 159.456 110.194C159.456 109.922 158.534 109.701 157.396 109.701C156.259 109.701 155.337 109.922 155.337 110.194C155.337 110.467 156.259 110.688 157.396 110.688Z" fill="url(#paint7_linear_1596_26034)"/>
<path d="M157.336 94.8499C156.391 95.7257 155.634 96.7832 155.113 97.9582C154.592 99.1332 154.316 100.401 154.303 101.685C154.303 104.788 155.779 106.268 157.349 106.268C158.918 106.268 160.392 104.775 160.392 101.685C160.376 100.401 160.098 99.1327 159.575 97.9578C159.052 96.783 158.295 95.7257 157.349 94.8499H157.336Z" fill="#DBE3F5"/>
<path d="M159.316 100.501L157.685 102.999L157.621 101.408L158.694 99.324L157.605 100.982L157.503 98.3948H157.388L157.218 102.271L155.975 100.361L157.205 102.758L157.141 104.288L155.341 101.545L157.102 104.998L156.894 109.914H157.97L157.711 103.645L159.313 100.505L159.316 100.501Z" fill="#C6D2ED"/>
</g>
<g opacity="0.6">
<path d="M37.1892 112.812C38.9478 112.812 40.3735 112.47 40.3735 112.049C40.3735 111.627 38.9478 111.286 37.1892 111.286C35.4305 111.286 34.0049 111.627 34.0049 112.049C34.0049 112.47 35.4305 112.812 37.1892 112.812Z" fill="url(#paint8_linear_1596_26034)"/>
<path d="M36.9725 88.5918C35.5199 89.9353 34.3568 91.5577 33.5538 93.3608C32.7508 95.1639 32.3245 97.1102 32.3008 99.0818C32.3008 103.834 34.5703 106.11 36.9725 106.11C39.3747 106.11 41.6442 103.813 41.6442 99.0818C41.6205 97.1102 41.1942 95.1639 40.3912 93.3608C39.5882 91.5577 38.4251 89.9353 36.9725 88.5918Z" fill="#DBE3F5"/>
<path d="M40.0166 97.2641L37.5097 101.094L37.4119 98.6448L39.0599 95.4464L37.391 97.9926L37.2304 94.0242H37.0558L36.8114 99.9699L34.898 97.0421L36.7904 100.719L36.6927 103.064L33.8994 98.8598L36.6019 104.153L36.2807 111.695H37.9357L37.5376 102.079L40.0027 97.2641H40.0166Z" fill="#C6D2ED"/>
</g>
</g>
<g opacity="0.995">
<path d="M81.999 49.5C81.999 47.2909 83.7899 45.5 85.999 45.5H125.999C128.208 45.5 129.999 47.2909 129.999 49.5V111.5C129.999 112.605 129.104 113.5 127.999 113.5H83.999C82.8945 113.5 81.999 112.605 81.999 111.5V49.5Z" fill="#B2BDFF"/>
<path d="M116.899 73.2311C116.556 73.2311 116.226 73.0919 115.984 72.8444C115.741 72.5969 115.605 72.2614 115.605 71.9114V69.2719C115.605 68.9219 115.741 68.5864 115.984 68.3389C116.226 68.0914 116.556 67.9522 116.899 67.9522H122.088C122.432 67.9522 122.761 68.0914 123.003 68.3389C123.246 68.5864 123.382 68.9219 123.382 69.2719V71.9114C123.382 72.2614 123.246 72.5969 123.003 72.8444C122.761 73.0919 122.432 73.2311 122.088 73.2311H116.899ZM116.899 61.6734C116.556 61.6734 116.226 61.5342 115.984 61.2867C115.741 61.0392 115.605 60.7037 115.605 60.3537V57.7142C115.605 57.3642 115.741 57.0287 115.984 56.7812C116.226 56.5337 116.556 56.3945 116.899 56.3945H122.088C122.432 56.3945 122.761 56.5337 123.003 56.7812C123.246 57.0287 123.382 57.3642 123.382 57.7142V60.3537C123.382 60.7037 123.246 61.0392 123.003 61.2867C122.761 61.5342 122.432 61.6734 122.088 61.6734H116.899ZM103.957 61.6734C103.614 61.6734 103.285 61.5342 103.042 61.2867C102.8 61.0392 102.663 60.7037 102.663 60.3537V57.7142C102.663 57.3642 102.8 57.0287 103.042 56.7812C103.285 56.5337 103.614 56.3945 103.957 56.3945H109.134C109.477 56.3945 109.806 56.5337 110.049 56.7812C110.292 57.0287 110.428 57.3642 110.428 57.7142V60.3537C110.428 60.7037 110.292 61.0392 110.049 61.2867C109.806 61.5342 109.477 61.6734 109.134 61.6734H103.957Z" fill="white" fill-opacity="0.8"/>
<path d="M103.042 72.2867C103.285 72.5342 103.614 72.6734 103.957 72.6734H109.134C109.477 72.6734 109.806 72.5342 110.049 72.2867C110.292 72.0392 110.428 71.7037 110.428 71.3537V68.7142C110.428 68.3642 110.292 68.0287 110.049 67.7812C109.806 67.5337 109.477 67.3945 109.134 67.3945H103.957C103.614 67.3945 103.285 67.5337 103.042 67.7812C102.8 68.0287 102.663 68.3642 102.663 68.7142V71.3537C102.663 71.7037 102.8 72.0392 103.042 72.2867Z" fill="white" fill-opacity="0.8"/>
<path d="M90.0422 61.2867C90.2849 61.5342 90.614 61.6734 90.9572 61.6734H96.1338C96.4771 61.6734 96.8061 61.5342 97.0488 61.2867C97.2915 61.0392 97.428 60.7037 97.428 60.3537V57.7142C97.428 57.3642 97.2915 57.0287 97.0488 56.7812C96.8061 56.5337 96.4771 56.3945 96.1338 56.3945H90.9572C90.614 56.3945 90.2849 56.5337 90.0422 56.7812C89.7995 57.0287 89.6631 57.3642 89.6631 57.7142V60.3537C89.6631 60.7037 89.7995 61.0392 90.0422 61.2867Z" fill="white" fill-opacity="0.8"/>
<path d="M116.899 97.2311C116.556 97.2311 116.226 97.0919 115.984 96.8444C115.741 96.5969 115.605 96.2614 115.605 95.9114V93.2719C115.605 92.9219 115.741 92.5864 115.984 92.3389C116.226 92.0914 116.556 91.9522 116.899 91.9522H122.088C122.432 91.9522 122.761 92.0914 123.003 92.3389C123.246 92.5864 123.382 92.9219 123.382 93.2719V95.9114C123.382 96.2614 123.246 96.5969 123.003 96.8444C122.761 97.0919 122.432 97.2311 122.088 97.2311H116.899ZM116.899 85.6734C116.556 85.6734 116.226 85.5342 115.984 85.2867C115.741 85.0392 115.605 84.7037 115.605 84.3537V81.7142C115.605 81.3642 115.741 81.0287 115.984 80.7812C116.226 80.5337 116.556 80.3945 116.899 80.3945H122.088C122.432 80.3945 122.761 80.5337 123.003 80.7812C123.246 81.0287 123.382 81.3642 123.382 81.7142V84.3537C123.382 84.7037 123.246 85.0392 123.003 85.2867C122.761 85.5342 122.432 85.6734 122.088 85.6734H116.899Z" fill="white" fill-opacity="0.8"/>
<path d="M53.6661 85.2029V108.184C53.662 108.881 53.7944 109.571 54.0558 110.215C54.3171 110.86 54.7023 111.446 55.1891 111.94C55.676 112.434 56.2549 112.826 56.8925 113.094C57.5302 113.362 58.2141 113.5 58.9048 113.5C64.2896 113.474 75.1108 113.428 96.7589 113.425C98.1524 113.418 99.4864 112.855 100.469 111.858C101.451 110.862 102.002 109.514 102 108.109V85.3502C102.001 84.5707 101.832 83.8005 101.506 83.0937C101.18 82.3868 100.705 81.7605 100.113 81.2587L79.6449 63.9946C78.8407 63.311 77.8166 62.9469 76.7649 62.9708C75.7132 62.9948 74.7064 63.405 73.9336 64.1246L55.3847 81.2731C54.8436 81.7723 54.4115 82.3794 54.1156 83.0559C53.8198 83.7325 53.6667 84.4636 53.6661 85.2029Z" fill="url(#paint9_linear_1596_26034)"/>
<path d="M68.8721 99C68.8721 97.8954 69.7675 97 70.8721 97H84.6755C85.78 97 86.6755 97.8954 86.6755 99V113.5H68.8721V99Z" fill="#5B68D3"/>
<rect x="68.8721" y="84.8506" width="17.5757" height="4.39393" rx="2.19697" fill="white"/>
</g>
</g>
<defs>
<radialGradient id="paint0_radial_1596_26034" cx="0" cy="0" r="1" gradientUnits="userSpaceOnUse" gradientTransform="translate(91.5 106.369) rotate(90) scale(22.6311 127.08)">
<stop stop-color="#B9C6E7"/>
<stop offset="1" stop-color="white" stop-opacity="0"/>
</radialGradient>
<radialGradient id="paint1_radial_1596_26034" cx="0" cy="0" r="1" gradientUnits="userSpaceOnUse" gradientTransform="translate(91.5 106.369) rotate(90) scale(22.6311 127.08)">
<stop stop-color="#C5D3FF"/>
<stop offset="1" stop-color="white" stop-opacity="0"/>
</radialGradient>
<linearGradient id="paint2_linear_1596_26034" x1="40.3551" y1="41.188" x2="40.3551" y2="115.491" gradientUnits="userSpaceOnUse">
<stop stop-color="#C5D2EC"/>
<stop offset="0.9964" stop-color="#F1F7FE"/>
</linearGradient>
<linearGradient id="paint3_linear_1596_26034" x1="52.7105" y1="79.3179" x2="70.7104" y2="99.7877" gradientUnits="userSpaceOnUse">
<stop stop-color="#C5D2EC"/>
<stop offset="0.9964" stop-color="#F1F7FE"/>
</linearGradient>
<linearGradient id="paint4_linear_1596_26034" x1="26.0005" y1="79.3179" x2="8.00049" y2="99.7877" gradientUnits="userSpaceOnUse">
<stop stop-color="#C5D2EC"/>
<stop offset="0.9964" stop-color="#F1F7FE"/>
</linearGradient>
<linearGradient id="paint5_linear_1596_26034" x1="130.229" y1="77.2146" x2="152.99" y2="117.958" gradientUnits="userSpaceOnUse">
<stop stop-color="#C5D2EC"/>
<stop offset="0.9964" stop-color="#F1F7FE" stop-opacity="0"/>
</linearGradient>
<linearGradient id="paint6_linear_1596_26034" x1="146.18" y1="115.704" x2="146.18" y2="117.542" gradientUnits="userSpaceOnUse">
<stop stop-color="#C5D2EC"/>
<stop offset="0.9964" stop-color="#F1F7FE" stop-opacity="0"/>
</linearGradient>
<linearGradient id="paint7_linear_1596_26034" x1="157.779" y1="109.701" x2="157.779" y2="110.688" gradientUnits="userSpaceOnUse">
<stop stop-color="#C5D2EC"/>
<stop offset="0.9964" stop-color="#F1F7FE" stop-opacity="0"/>
</linearGradient>
<linearGradient id="paint8_linear_1596_26034" x1="37.1892" y1="111.286" x2="37.1928" y2="113.612" gradientUnits="userSpaceOnUse">
<stop stop-color="#C5D2EC"/>
<stop offset="0.9964" stop-color="#F1F7FE" stop-opacity="0"/>
</linearGradient>
<linearGradient id="paint9_linear_1596_26034" x1="63.9995" y1="71.5" x2="87.3284" y2="125.803" gradientUnits="userSpaceOnUse">
<stop stop-color="#B4BDFF"/>
<stop offset="1" stop-color="#576AF8"/>
</linearGradient>
<clipPath id="clip0_1596_26034">
<rect width="184" height="130" fill="white" transform="translate(0 0.5)"/>
</clipPath>
<clipPath id="clip1_1596_26034">
<rect width="183" height="131" fill="white" transform="translate(0 -0.5)"/>
</clipPath>
</defs>
</svg>
