<svg width="86" height="86" viewBox="0 0 86 86" fill="none" xmlns="http://www.w3.org/2000/svg">
<circle cx="43" cy="43" r="43" fill="white"/>
<circle cx="43" cy="43" r="42.5" stroke="#243F64" stroke-opacity="0.05"/>
<rect x="25" y="24" width="36" height="40" rx="3" fill="url(#paint0_linear_5545_24394)"/>
<mask id="mask0_5545_24394" style="mask-type:alpha" maskUnits="userSpaceOnUse" x="25" y="24" width="36" height="40">
<rect x="25" y="24" width="36" height="40" rx="3" fill="url(#paint1_linear_5545_24394)"/>
</mask>
<g mask="url(#mask0_5545_24394)">
<path d="M24.9279 23.8635C24.0251 21.8772 25.4771 19.6221 27.659 19.6221H58.341C60.5229 19.6221 61.9749 21.8772 61.0721 23.8635L58.7994 28.8635C58.3125 29.9345 57.2447 30.6221 56.0683 30.6221H29.9317C28.7553 30.6221 27.6875 29.9345 27.2006 28.8635L24.9279 23.8635Z" fill="#B3CEFB"/>
<path d="M24.9279 64.6336C24.0251 66.6199 25.4771 68.875 27.659 68.875H58.341C60.5229 68.875 61.9749 66.6199 61.0721 64.6336L58.7994 59.6336C58.3125 58.5626 57.2447 57.875 56.0683 57.875H29.9317C28.7553 57.875 27.6875 58.5626 27.2006 59.6336L24.9279 64.6336Z" fill="#B3CEFB"/>
<path d="M43.75 30.3721V59.8721" stroke="#B3CEFB" stroke-opacity="0.5"/>
</g>
<g filter="url(#filter0_d_5545_24394)">
<circle cx="43" cy="30" r="10" fill="#4E7AD9"/>
</g>
<path fill-rule="evenodd" clip-rule="evenodd" d="M38.6958 29.2204C39.0767 29.6394 39.7252 29.6704 40.1443 29.2895L41.9728 27.6275L41.9728 34.3891C41.9728 34.9554 42.4319 35.4145 42.9982 35.4145C43.5645 35.4145 44.0236 34.9554 44.0236 34.3891L44.0236 27.6249L45.8549 29.2894C46.2739 29.6703 46.9224 29.6394 47.3033 29.2203C47.6842 28.8013 47.6533 28.1528 47.2342 27.7719L43.6971 24.5569C43.4677 24.3436 43.1616 24.2538 42.8676 24.2917C42.6598 24.3185 42.4592 24.4088 42.2975 24.5611L38.7649 27.7719C38.3458 28.1528 38.3149 28.8013 38.6958 29.2204Z" fill="white"/>
<defs>
<filter id="filter0_d_5545_24394" x="30" y="19" width="26" height="26" filterUnits="userSpaceOnUse" color-interpolation-filters="sRGB">
<feFlood flood-opacity="0" result="BackgroundImageFix"/>
<feColorMatrix in="SourceAlpha" type="matrix" values="0 0 0 0 0 0 0 0 0 0 0 0 0 0 0 0 0 0 127 0" result="hardAlpha"/>
<feOffset dy="2"/>
<feGaussianBlur stdDeviation="1.5"/>
<feComposite in2="hardAlpha" operator="out"/>
<feColorMatrix type="matrix" values="0 0 0 0 0.113725 0 0 0 0 0.313726 0 0 0 0 0.631373 0 0 0 0.25 0"/>
<feBlend mode="normal" in2="BackgroundImageFix" result="effect1_dropShadow_5545_24394"/>
<feBlend mode="normal" in="SourceGraphic" in2="effect1_dropShadow_5545_24394" result="shape"/>
</filter>
<linearGradient id="paint0_linear_5545_24394" x1="25" y1="24" x2="54.6875" y2="63.5916" gradientUnits="userSpaceOnUse">
<stop stop-color="#EEF4FF"/>
<stop offset="1" stop-color="#D7E5FF"/>
</linearGradient>
<linearGradient id="paint1_linear_5545_24394" x1="25" y1="24" x2="54.6875" y2="63.5916" gradientUnits="userSpaceOnUse">
<stop stop-color="#EEF4FF"/>
<stop offset="1" stop-color="#D7E5FF"/>
</linearGradient>
</defs>
</svg>
