<svg width="26" height="26" viewBox="0 0 26 26" fill="none" xmlns="http://www.w3.org/2000/svg">
<path d="M13 0.000976562C20.1797 0.000976562 26 5.82128 26 13.001C26 20.1807 20.1797 26.001 13 26.001C5.8203 26.001 2.06169e-06 20.1807 0 13.001C0 5.82128 5.8203 0.000977593 13 0.000976562ZM18.207 7.79395C17.8165 7.40344 17.1835 7.40348 16.793 7.79395L13 11.5869L9.20703 7.79395C8.81653 7.40344 8.1835 7.40348 7.79297 7.79395C7.40244 8.18447 7.40244 8.81748 7.79297 9.20801L11.5859 13.001L7.79297 16.7939C7.40244 17.1845 7.40244 17.8175 7.79297 18.208C8.1835 18.5984 8.81655 18.5985 9.20703 18.208L13 14.415L16.793 18.208C17.1835 18.5984 17.8166 18.5985 18.207 18.208C18.5974 17.8175 18.5974 17.1845 18.207 16.7939L14.4141 13.001L18.207 9.20801C18.5974 8.81752 18.5974 8.18446 18.207 7.79395Z" fill="#E94D65"/>
</svg>
