<svg width="26" height="26" viewBox="0 0 26 26" fill="none" xmlns="http://www.w3.org/2000/svg">
<path d="M13 0.000488281C20.1797 0.000488281 26 5.82079 26 13.0005C26 20.1802 20.1797 26.0005 13 26.0005C5.82029 26.0005 0 20.1802 0 13.0005C0 5.8208 5.82029 0.000514052 13 0.000488281ZM12.9961 17.5005C12.3057 17.5005 11.7461 18.0601 11.7461 18.7505C11.7461 19.4408 12.3057 20.0005 12.9961 20.0005C13.6865 20.0005 14.2461 19.4408 14.2461 18.7505C14.2461 18.0601 13.6865 17.5005 12.9961 17.5005ZM13.7197 6.06592C13.1427 5.96037 12.5497 5.9831 11.9824 6.13232C11.415 6.28162 10.8869 6.55419 10.4365 6.93018C9.98625 7.30612 9.6242 7.77663 9.37598 8.30811C9.12781 8.83952 8.99928 9.41887 9 10.0054C9 10.2706 9.10543 10.5258 9.29297 10.7134C9.48048 10.9008 9.73491 11.0054 10 11.0054C10.2651 11.0054 10.5195 10.9008 10.707 10.7134C10.8946 10.5258 11 10.2706 11 10.0054C11.0001 9.64311 11.0988 9.28771 11.2852 8.97705C11.4716 8.66632 11.7389 8.4123 12.0586 8.2417C12.3783 8.07109 12.7386 7.99012 13.1006 8.0083C13.4623 8.02652 13.8124 8.14263 14.1133 8.34424C14.4143 8.54599 14.6552 8.82597 14.8096 9.15381C14.9639 9.48172 15.0265 9.84594 14.9902 10.2065C14.9539 10.567 14.8201 10.9112 14.6035 11.2017C14.3869 11.4921 14.0949 11.7183 13.7598 11.856C13.2284 12.0845 12.7773 12.4664 12.4639 12.9526C12.1505 13.4388 11.9888 14.0071 12 14.5854V15.0005C12 15.2657 12.1054 15.52 12.293 15.7075C12.4805 15.8951 12.7348 16.0005 13 16.0005C13.2652 16.0005 13.5195 15.8951 13.707 15.7075C13.8946 15.52 14 15.2657 14 15.0005V14.5854C13.9915 14.4016 14.0377 14.2192 14.1318 14.061C14.2261 13.903 14.3646 13.7759 14.5303 13.6958C15.3754 13.3469 16.0752 12.7188 16.5137 11.9165C16.9522 11.1141 17.1033 10.1855 16.9404 9.28564C16.7949 8.48529 16.4082 7.74861 15.833 7.17334C15.2577 6.59801 14.5202 6.21145 13.7197 6.06592Z" fill="#5C87F9"/>
</svg>
