<svg width="24" height="24" viewBox="0 0 24 24" fill="none" xmlns="http://www.w3.org/2000/svg">
<path d="M7.99993 6.09959C8.2196 5.87992 16.888 6.06127 17.1718 6.11619L17.1816 6.11815C17.2811 6.13858 17.3743 6.17617 17.4589 6.22654C17.5221 6.26407 17.5823 6.30896 17.6367 6.36326C17.6906 6.41727 17.735 6.47727 17.7724 6.54002C17.7943 6.57668 17.8144 6.61449 17.831 6.65428C17.8768 6.7647 17.9003 6.88226 17.9003 6.99998V16C17.9003 16.497 17.4969 16.9003 16.9999 16.9004C16.5029 16.9004 16.0995 16.497 16.0995 16V9.17381L7.63665 17.6367C7.2852 17.9881 6.71469 17.9881 6.36321 17.6367C6.01174 17.2852 6.01174 16.7147 6.36321 16.3633L14.8261 7.90037H7.99993C7.50288 7.90037 7.09954 7.49704 7.09954 6.99998C7.09954 6.50292 7.50288 6.09959 7.99993 6.09959Z" fill="#222222"/>
</svg>
