<svg width="108" height="103" viewBox="0 0 108 103" fill="none" xmlns="http://www.w3.org/2000/svg">
<path opacity="0.3" d="M32.4742 102.281C31.8574 102.28 31.2488 102.14 30.6942 101.871C23.035 98.1546 16.3748 92.6621 11.2684 85.8507C6.16207 79.0393 2.75741 71.1062 1.33814 62.7123C-0.0811287 54.3185 0.526085 45.7071 3.10919 37.5955C5.6923 29.4839 10.1765 22.107 16.1882 16.0795C23.6397 8.6287 33.1343 3.55623 43.4701 1.50428C53.806 -0.547677 64.5183 0.513145 74.2509 4.55245C83.9835 8.59176 92.2989 15.4279 98.1443 24.1955C103.99 32.9632 107.102 43.268 107.088 53.8055C107.106 63.5438 104.454 73.1005 99.4199 81.4368C94.386 89.773 87.1629 96.5696 78.5362 101.088C77.5722 101.591 76.4476 101.692 75.4097 101.367C74.3718 101.041 73.5056 100.317 73.0017 99.353C72.4977 98.3891 72.3974 97.2645 72.7227 96.2266C73.048 95.1886 73.7722 94.3224 74.7362 93.8185C83.708 89.1168 90.8317 81.5263 94.9554 72.2745C99.079 63.0227 99.9614 52.6504 97.4601 42.835C94.9587 33.0195 89.2197 24.3347 81.171 18.1848C73.1224 12.035 63.2348 8.77973 53.1069 8.9454C42.9791 9.11106 33.2032 12.688 25.3601 19.0978C17.5169 25.5075 12.065 34.3754 9.88597 44.2674C7.70694 54.1595 8.92817 64.4973 13.3522 73.6093C17.7762 82.7213 25.1443 90.0748 34.2652 94.4805C35.1005 94.8859 35.7739 95.5625 36.1752 96.3999C36.5765 97.2372 36.6822 98.1859 36.4749 99.091C36.2677 99.9961 35.7598 100.804 35.0341 101.384C34.3083 101.963 33.4077 102.279 32.4792 102.281H32.4742Z" fill="white"/>
<path opacity="0.8" d="M32.2573 102.281C31.645 102.281 31.0407 102.143 30.4903 101.875C23.6825 98.5848 17.6585 93.8748 12.8238 88.0616C7.98907 82.2484 4.45583 75.4669 2.46191 68.1736C0.467985 60.8803 0.0596604 53.2445 1.26442 45.7801C2.46918 38.3158 5.25906 31.1962 9.44625 24.9005L15.8323 30.0525C12.4068 35.382 10.1521 41.3781 9.21716 47.6441C8.28224 53.9101 8.68845 60.3033 10.4089 66.4006C12.1294 72.4979 15.1249 78.1604 19.1973 83.0135C23.2698 87.8666 28.3262 91.7996 34.0323 94.5525C34.8611 94.954 35.5293 95.6249 35.9275 96.4554C36.3257 97.2859 36.4303 98.2269 36.2243 99.1246C36.0184 100.022 35.5139 100.823 34.7935 101.397C34.0731 101.971 33.1793 102.284 32.2583 102.284L32.2573 102.281Z" fill="white"/>
<path opacity="0.4" d="M92.8731 30.8745C88.9301 24.1791 83.3306 18.6109 76.6133 14.7053C69.8959 10.7998 62.2867 8.68833 54.5173 8.57403C46.748 8.45973 39.0799 10.3464 32.2506 14.0527C25.4212 17.7589 19.6604 23.16 15.5221 29.7365L9.01111 24.6735C13.9563 17.108 20.7359 10.9172 28.7184 6.67781C36.7009 2.43847 45.6266 0.288527 54.6639 0.428278C63.7012 0.568029 72.5561 2.99292 80.4037 7.47706C88.2513 11.9612 94.8362 18.3587 99.5451 26.0735L92.8741 30.8735L92.8731 30.8745Z" fill="white"/>
<path d="M24.4133 63.2805H19.1926L27.2815 39.9485H33.5012L41.5579 63.2805H36.3694L34.613 57.8987H26.1697L24.4133 63.2805ZM27.3943 54.1282H33.3884L30.4719 45.2014H30.3108L27.3943 54.1282ZM48.0999 63.2805H42.8792L50.968 39.9485H57.1877L65.2444 63.2805H60.0559L58.2996 57.8987H49.8562L48.0999 63.2805ZM51.0808 54.1282H57.075L54.1584 45.2014H53.9973L51.0808 54.1282ZM71.7864 63.2805H66.5657L74.6545 39.9485H80.8743L88.9309 63.2805H83.7424L81.9861 57.8987H73.5427L71.7864 63.2805ZM74.7673 54.1282H80.7615L77.845 45.2014H77.6838L74.7673 54.1282Z" fill="white"/>
</svg>
