<svg width="279" height="96" viewBox="0 0 279 96" fill="none" xmlns="http://www.w3.org/2000/svg">
<g filter="url(#filter0_d_1062_9808)">
<path d="M220.811 10.0215H37.8105C22.6227 10.0215 10.3105 22.3337 10.3105 37.5215C10.3105 52.7093 22.6227 65.0215 37.8105 65.0215H220.811C235.998 65.0215 248.311 52.7093 248.311 37.5215C248.311 22.3337 235.998 10.0215 220.811 10.0215Z" fill="#D5DEF0"/>
</g>
<path d="M43.3164 42.7344L43.5801 38.7207L40.2109 40.9766L38.834 38.5449L42.4668 36.7871L38.834 35L40.2109 32.5684L43.5801 34.8535L43.3164 30.8105H46.0703L45.8066 34.8535L49.1758 32.5684L50.5527 35L46.9199 36.7871L50.5527 38.5449L49.1758 40.9766L45.8066 38.7207L46.0703 42.7344H43.3164ZM59.4883 42.7344L59.752 38.7207L56.3828 40.9766L55.0059 38.5449L58.6387 36.7871L55.0059 35L56.3828 32.5684L59.752 34.8535L59.4883 30.8105H62.2422L61.9785 34.8535L65.3477 32.5684L66.7246 35L63.0918 36.7871L66.7246 38.5449L65.3477 40.9766L61.9785 38.7207L62.2422 42.7344H59.4883ZM75.6602 42.7344L75.9238 38.7207L72.5547 40.9766L71.1777 38.5449L74.8105 36.7871L71.1777 35L72.5547 32.5684L75.9238 34.8535L75.6602 30.8105H78.4141L78.1504 34.8535L81.5195 32.5684L82.8965 35L79.2637 36.7871L82.8965 38.5449L81.5195 40.9766L78.1504 38.7207L78.4141 42.7344H75.6602ZM98.7461 42.7344L99.0098 38.7207L95.6406 40.9766L94.2637 38.5449L97.8965 36.7871L94.2637 35L95.6406 32.5684L99.0098 34.8535L98.7461 30.8105H101.5L101.236 34.8535L104.605 32.5684L105.982 35L102.35 36.7871L105.982 38.5449L104.605 40.9766L101.236 38.7207L101.5 42.7344H98.7461ZM114.918 42.7344L115.182 38.7207L111.812 40.9766L110.436 38.5449L114.068 36.7871L110.436 35L111.812 32.5684L115.182 34.8535L114.918 30.8105H117.672L117.408 34.8535L120.777 32.5684L122.154 35L118.521 36.7871L122.154 38.5449L120.777 40.9766L117.408 38.7207L117.672 42.7344H114.918ZM138.004 42.7344L138.268 38.7207L134.898 40.9766L133.521 38.5449L137.154 36.7871L133.521 35L134.898 32.5684L138.268 34.8535L138.004 30.8105H140.758L140.494 34.8535L143.863 32.5684L145.24 35L141.607 36.7871L145.24 38.5449L143.863 40.9766L140.494 38.7207L140.758 42.7344H138.004ZM154.176 42.7344L154.439 38.7207L151.07 40.9766L149.693 38.5449L153.326 36.7871L149.693 35L151.07 32.5684L154.439 34.8535L154.176 30.8105H156.93L156.666 34.8535L160.035 32.5684L161.412 35L157.779 36.7871L161.412 38.5449L160.035 40.9766L156.666 38.7207L156.93 42.7344H154.176ZM170.348 42.7344L170.611 38.7207L167.242 40.9766L165.865 38.5449L169.498 36.7871L165.865 35L167.242 32.5684L170.611 34.8535L170.348 30.8105H173.102L172.838 34.8535L176.207 32.5684L177.584 35L173.951 36.7871L177.584 38.5449L176.207 40.9766L172.838 38.7207L173.102 42.7344H170.348ZM186.52 42.7344L186.783 38.7207L183.414 40.9766L182.037 38.5449L185.67 36.7871L182.037 35L183.414 32.5684L186.783 34.8535L186.52 30.8105H189.273L189.01 34.8535L192.379 32.5684L193.756 35L190.123 36.7871L193.756 38.5449L192.379 40.9766L189.01 38.7207L189.273 42.7344H186.52Z" fill="white"/>
<path d="M97.3105 36.0215H87.3105V39.0215H97.3105V36.0215Z" fill="white"/>
<path d="M146.311 36.0215H136.311V39.0215H146.311V36.0215Z" fill="white"/>
<defs>
<filter id="filter0_d_1062_9808" x="0.310547" y="0.0214844" width="278" height="95" filterUnits="userSpaceOnUse" color-interpolation-filters="sRGB">
<feFlood flood-opacity="0" result="BackgroundImageFix"/>
<feColorMatrix in="SourceAlpha" type="matrix" values="0 0 0 0 0 0 0 0 0 0 0 0 0 0 0 0 0 0 127 0" result="hardAlpha"/>
<feOffset dx="10" dy="10"/>
<feGaussianBlur stdDeviation="10"/>
<feColorMatrix type="matrix" values="0 0 0 0 0.333333 0 0 0 0 0.482353 0 0 0 0 0.686275 0 0 0 0.161 0"/>
<feBlend mode="normal" in2="BackgroundImageFix" result="effect1_dropShadow_1062_9808"/>
<feBlend mode="normal" in="SourceGraphic" in2="effect1_dropShadow_1062_9808" result="shape"/>
</filter>
</defs>
</svg>
