<svg width="72" height="73" viewBox="0 0 72 73" fill="none" xmlns="http://www.w3.org/2000/svg">
<path d="M15.9286 18.0667C15.9683 16.4389 17.2994 15.1399 18.9277 15.1399H66C67.6569 15.1399 69 16.483 69 18.1399V53.1399C69 54.7967 67.6569 56.1399 66 56.1399H18.0741C16.3886 56.1399 15.0339 54.7517 15.075 53.0667L15.9286 18.0667Z" fill="url(#paint0_linear_5316_41678)"/>
<path d="M16.0102 17.7535C16.2043 16.2586 17.4777 15.1399 18.9852 15.1399H66.0218C67.8013 15.1399 69.1896 16.68 69.0057 18.4499L65.6291 50.9499C65.4703 52.4785 64.182 53.6399 62.6451 53.6399H14.7644C12.9541 53.6399 11.5563 52.0487 11.7894 50.2535L16.0102 17.7535Z" fill="#CFDBFF"/>
<path d="M16.0102 17.7535C16.2043 16.2586 17.4777 15.1399 18.9852 15.1399H66.0218C67.8013 15.1399 69.1896 16.68 69.0057 18.4499L65.6291 50.9499C65.4703 52.4785 64.182 53.6399 62.6451 53.6399H14.7644C12.9541 53.6399 11.5563 52.0487 11.7894 50.2535L16.0102 17.7535Z" fill="url(#paint1_linear_5316_41678)"/>
<path d="M15.228 17.4891C15.533 16.1165 16.7504 15.1399 18.1565 15.1399H66.0102C67.9294 15.1399 69.3551 16.9171 68.9387 18.7907L62.272 48.7907C61.967 50.1633 60.7496 51.1399 59.3435 51.1399H11.4899C9.57061 51.1399 8.14494 49.3626 8.56129 47.4891L15.228 17.4891Z" fill="url(#paint2_linear_5316_41678)"/>
<path d="M2 33.1399C2 38.1105 6.02944 42.1399 11 42.1399C15.9706 42.1399 20 38.1105 20 33.1399C20 28.1693 15.9706 24.1399 11 24.1399C6.02944 24.1399 2 28.1693 2 33.1399Z" fill="#2847A4"/>
<path d="M11.0644 31.9144L12.9312 37.2349H14.2808L15.1935 33.2805H16.625V31.8743H15.518L15.9683 29.6074L14.5981 29.6068L13.4604 34.5369L11.7289 29.6074H10.4L8.66853 34.5369L7.53081 29.6068L6.16057 29.6074L6.61087 31.8743H5.375V33.2805H6.93539L7.84807 37.2349H9.19763L11.0644 31.9144Z" fill="white"/>
<path d="M41.8106 42.8974C41.9219 42.4522 42.3219 42.1399 42.7808 42.1399H56.7192C57.3698 42.1399 57.8472 42.7513 57.6894 43.3824L57.1894 45.3824C57.0781 45.8276 56.6781 46.1399 56.2192 46.1399H42.2808C41.6302 46.1399 41.1528 45.5285 41.3106 44.8974L41.8106 42.8974Z" fill="#E7EDFE"/>
<defs>
<linearGradient id="paint0_linear_5316_41678" x1="87" y1="83.4238" x2="47.1921" y2="11.0504" gradientUnits="userSpaceOnUse">
<stop stop-color="#8AA3E7"/>
<stop offset="1" stop-color="#2847A4"/>
</linearGradient>
<linearGradient id="paint1_linear_5316_41678" x1="40.3838" y1="85.1065" x2="40.5565" y2="4.64489" gradientUnits="userSpaceOnUse">
<stop stop-color="white"/>
<stop offset="1" stop-color="#C5D4FD"/>
</linearGradient>
<linearGradient id="paint2_linear_5316_41678" x1="45.4891" y1="0.997035" x2="45.5044" y2="62.2827" gradientUnits="userSpaceOnUse">
<stop stop-color="#C5D4FD"/>
<stop offset="1" stop-color="#0046FF"/>
</linearGradient>
</defs>
</svg>
