<svg width="72" height="73" viewBox="0 0 72 73" fill="none" xmlns="http://www.w3.org/2000/svg">
<path d="M36 9.65991C47.0457 9.65991 56 18.6142 56 29.6599C56 34.0686 54.5732 38.1436 52.1563 41.4493C49.7294 44.7688 46.9711 47.9702 45.625 51.8558L45.4661 52.3146C45.1871 53.1199 44.4285 53.6599 43.5763 53.6599H28.4236C27.5714 53.6599 26.8129 53.12 26.5338 52.3148L26.3741 51.854C25.0279 47.9696 22.2703 44.7691 19.8439 41.4504C17.4269 38.1445 16 34.0689 16 29.6599C16 18.6142 24.9543 9.65991 36 9.65991Z" fill="#CFDBFF"/>
<path d="M36 9.65991C47.0457 9.65991 56 18.6142 56 29.6599C56 34.0686 54.5732 38.1436 52.1563 41.4493C49.7294 44.7688 46.9711 47.9702 45.625 51.8558L45.4661 52.3146C45.1871 53.1199 44.4285 53.6599 43.5763 53.6599H28.4236C27.5714 53.6599 26.8129 53.12 26.5338 52.3148L26.3741 51.854C25.0279 47.9696 22.2703 44.7691 19.8439 41.4504C17.4269 38.1445 16 34.0689 16 29.6599C16 18.6142 24.9543 9.65991 36 9.65991Z" fill="url(#paint0_linear_5316_41701)"/>
<path d="M27 55.3266C27 54.4061 27.7462 53.6599 28.6667 53.6599H43.3333C44.2538 53.6599 45 54.4061 45 55.3266C45 59.929 41.269 63.6599 36.6667 63.6599H35.3333C30.731 63.6599 27 59.929 27 55.3266Z" fill="url(#paint1_linear_5316_41701)"/>
<path d="M39.2939 29.2429H44L32.7061 42.6599V33.0769H28L39.2939 19.6599V29.2429Z" fill="url(#paint2_linear_5316_41701)"/>
<defs>
<linearGradient id="paint0_linear_5316_41701" x1="36" y1="82.9932" x2="36.2747" y2="-1.33919" gradientUnits="userSpaceOnUse">
<stop stop-color="white"/>
<stop offset="1" stop-color="#C5D4FD"/>
</linearGradient>
<linearGradient id="paint1_linear_5316_41701" x1="36" y1="70.6599" x2="35.9953" y2="51.1599" gradientUnits="userSpaceOnUse">
<stop stop-color="#C5D4FD"/>
<stop offset="1" stop-color="#0046FF"/>
</linearGradient>
<linearGradient id="paint2_linear_5316_41701" x1="35.9643" y1="72.0488" x2="35.9321" y2="19.8491" gradientUnits="userSpaceOnUse">
<stop stop-color="#C5D4FD"/>
<stop offset="1" stop-color="#0046FF"/>
</linearGradient>
</defs>
</svg>
