<svg width="72" height="73" viewBox="0 0 72 73" fill="none" xmlns="http://www.w3.org/2000/svg">
<path d="M67.481 42.9689C67.3316 42.8849 67.1632 42.8387 66.991 42.8343C66.8188 42.8299 66.6481 42.8675 66.4945 42.9438C66.3716 43.0053 54.006 49.0293 37.6604 44.4268C27.7444 41.5498 17.4084 40.3042 7.07475 40.7409C6.86693 40.7517 6.66729 40.8236 6.50204 40.9473C6.33679 41.071 6.21365 41.2406 6.14881 41.434C5.76181 42.6037 5.24554 43.7287 4.60915 44.7891C4.31726 45.2596 4.12471 45.7826 4.04286 46.3271C3.96101 46.8716 3.9915 47.4266 4.13255 47.9594C4.27048 48.4752 4.51283 48.9587 4.84526 49.3812C5.17769 49.8038 5.59344 50.1568 6.06791 50.4195C10.8727 53.0456 16.3684 54.2134 21.8545 53.7739C29.2551 53.4109 36.6727 53.5615 44.0515 54.2247C47.1811 54.4478 49.8837 54.6404 52.1357 54.6553L52.2526 54.6558C57.1617 54.6558 62.621 52.573 65.5663 49.5682C66.3588 48.8229 66.984 47.9245 67.4023 46.9302C67.8205 45.9359 68.0226 44.8673 67.9957 43.7925C67.9871 43.6241 67.9355 43.4605 67.8456 43.3166C67.7557 43.1728 67.6303 43.0532 67.481 42.9689Z" fill="url(#paint0_linear_5316_41696)"/>
<path d="M67.998 44.1685V44.2297C67.9975 44.417 67.9456 44.6006 67.8481 44.7607C67.7505 44.9208 67.611 45.0514 67.4445 45.1384C62.077 47.5471 56.2419 48.7463 50.3555 48.6504C45.9322 48.6422 41.5322 48.0132 37.2851 46.7821C27.149 43.7654 16.5554 42.5659 5.99805 43.2394C6.20718 42.7659 6.39194 42.282 6.55162 41.7897C8.45836 36.0418 7.41273 25.4443 7.05393 22.3407C6.9932 21.8048 7.06471 21.2623 7.26227 20.7602C7.45982 20.2581 7.77744 19.8116 8.18756 19.4595C8.59768 19.1074 9.08789 18.8603 9.61564 18.7397C10.1434 18.6191 10.6927 18.6286 11.216 18.7674C11.6919 18.895 12.1336 19.126 12.5093 19.4437C12.8851 19.7614 13.1856 20.158 13.3893 20.6051C13.7046 21.3576 14.1764 22.035 14.7737 22.5929C15.3709 23.1507 16.0799 23.5762 16.8542 23.8415C19.54 24.7399 23.2818 23.9027 27.9974 21.381C30.919 19.8189 34.5787 22.4734 39.2226 25.8425C43.6512 29.0585 48.6743 32.6931 53.7897 33.1321C66.8602 34.2449 67.9775 41.7795 67.998 44.1685Z" fill="#CFDBFF"/>
<path d="M67.998 44.1685V44.2297C67.9975 44.417 67.9456 44.6006 67.8481 44.7607C67.7505 44.9208 67.611 45.0514 67.4445 45.1384C62.077 47.5471 56.2419 48.7463 50.3555 48.6504C45.9322 48.6422 41.5322 48.0132 37.2851 46.7821C27.149 43.7654 16.5554 42.5659 5.99805 43.2394C6.20718 42.7659 6.39194 42.282 6.55162 41.7897C8.45836 36.0418 7.41273 25.4443 7.05393 22.3407C6.9932 21.8048 7.06471 21.2623 7.26227 20.7602C7.45982 20.2581 7.77744 19.8116 8.18756 19.4595C8.59768 19.1074 9.08789 18.8603 9.61564 18.7397C10.1434 18.6191 10.6927 18.6286 11.216 18.7674C11.6919 18.895 12.1336 19.126 12.5093 19.4437C12.8851 19.7614 13.1856 20.158 13.3893 20.6051C13.7046 21.3576 14.1764 22.035 14.7737 22.5929C15.3709 23.1507 16.0799 23.5762 16.8542 23.8415C19.54 24.7399 23.2818 23.9027 27.9974 21.381C30.919 19.8189 34.5787 22.4734 39.2226 25.8425C43.6512 29.0585 48.6743 32.6931 53.7897 33.1321C66.8602 34.2449 67.9775 41.7795 67.998 44.1685Z" fill="url(#paint1_linear_5316_41696)"/>
<path d="M58.998 33.991C57.3321 33.5328 55.6263 33.2343 53.9039 33.0994C48.7161 32.652 43.6219 28.948 39.1307 25.6706C34.4211 22.2371 30.7097 19.532 27.7467 21.1238C25.3 22.5588 22.6008 23.5103 19.7956 23.9267C24.6299 30.1435 33.7015 35.9276 39.587 38.4442C41.7982 39.3865 44.1849 39.8459 46.5876 39.7918C48.9903 39.7376 51.3539 39.1712 53.5205 38.1303C55.5998 37.1231 57.4609 35.7166 58.998 33.991ZM12.5681 29.5008L9.14062 28.9156C8.18136 28.7514 7.51391 28.6385 7.03194 28.5819C7.16341 31.0687 7.15209 33.561 6.99805 36.0465C7.74398 36.1713 8.65002 36.3274 9.54369 36.4812L11.0736 36.7438C13.3671 37.0933 15.5638 37.9125 17.5264 39.1504C19.4891 40.3883 21.1753 42.0182 22.4798 43.9381C25.4324 44.3208 28.6062 44.874 31.9684 45.6558C29.6003 37.4024 22.1598 31.1419 12.5681 29.5008Z" fill="url(#paint2_linear_5316_41696)"/>
<path d="M36.7946 23.8399L32.7374 27.1291C32.5462 27.2854 32.3035 27.3714 32.0524 27.372C31.899 27.3729 31.7473 27.3406 31.6087 27.2775C31.47 27.2144 31.3479 27.1222 31.2515 27.0076C31.1614 26.9067 31.0929 26.7897 31.05 26.6633C31.007 26.5369 30.9905 26.4036 31.0012 26.2711C31.012 26.1385 31.0499 26.0093 31.1127 25.8908C31.1755 25.7723 31.2621 25.6669 31.3674 25.5806L34.982 22.6558C35.5617 23.01 36.1729 23.4148 36.7946 23.8399ZM40.6411 26.5016L36.5417 29.8414C36.3555 29.999 36.1155 30.0854 35.8673 30.0843C35.7148 30.0859 35.5639 30.0549 35.4254 29.9937C35.2869 29.9324 35.1642 29.8424 35.0664 29.7301C34.9763 29.6292 34.9078 29.5121 34.8648 29.3857C34.8219 29.2593 34.8054 29.1261 34.8161 28.9935C34.8269 28.861 34.8648 28.7318 34.9276 28.6133C34.9904 28.4948 35.077 28.3894 35.1823 28.3031L38.8918 25.277C38.9489 25.324 39.0087 25.368 39.0709 25.4086C39.5873 25.7729 40.1142 26.1373 40.6411 26.5016ZM44.6457 29.1127L40.8519 32.0781C40.6652 32.2269 40.4306 32.3091 40.188 32.3109C40.0321 32.3109 39.8783 32.2773 39.7378 32.2125C39.5973 32.1477 39.4739 32.0533 39.3765 31.9364C39.2885 31.8335 39.2224 31.7149 39.1822 31.5874C39.1419 31.4599 39.1282 31.3261 39.1419 31.1935C39.1557 31.0609 39.1965 30.9323 39.262 30.8149C39.3276 30.6975 39.4167 30.5937 39.5241 30.5094L42.8015 27.959C43.4127 28.3537 44.0239 28.7484 44.6457 29.1127ZM48.998 31.3494L45.0567 34.4261C44.9495 34.5105 44.8259 34.5738 44.6932 34.6123C44.5605 34.6509 44.4212 34.664 44.2832 34.6508C44.1452 34.6376 44.0113 34.5985 43.8891 34.5356C43.7668 34.4728 43.6587 34.3874 43.5708 34.2844C43.4829 34.1814 43.417 34.0628 43.3769 33.9353C43.3367 33.8079 43.3231 33.6741 43.3368 33.5416C43.3505 33.409 43.3913 33.2804 43.4567 33.163C43.5222 33.0456 43.6111 32.9418 43.7183 32.8574L46.9009 30.3778C47.5964 30.7321 48.292 31.0559 48.998 31.3494Z" fill="#2847A4"/>
<defs>
<linearGradient id="paint0_linear_5316_41696" x1="-22.7031" y1="15.778" x2="-19.3464" y2="62.1455" gradientUnits="userSpaceOnUse">
<stop stop-color="#C5D4FD"/>
<stop offset="1" stop-color="#3869FC"/>
</linearGradient>
<linearGradient id="paint1_linear_5316_41696" x1="36.998" y1="68.6558" x2="37.0804" y2="11.1559" gradientUnits="userSpaceOnUse">
<stop stop-color="white"/>
<stop offset="1" stop-color="#C5D4FD"/>
</linearGradient>
<linearGradient id="paint2_linear_5316_41696" x1="-14.6967" y1="-23.7688" x2="-1.78073" y2="57.4092" gradientUnits="userSpaceOnUse">
<stop stop-color="#C5D4FD"/>
<stop offset="1" stop-color="#3869FC"/>
</linearGradient>
</defs>
</svg>
