<svg width="32" height="32" viewBox="0 0 32 32" fill="none" xmlns="http://www.w3.org/2000/svg">
<g clip-path="url(#clip0_5316_37920)">
<path fill-rule="evenodd" clip-rule="evenodd" d="M16.5 3C17.6046 3 18.5 3.89543 18.5 5V6.5H24L24.2041 6.51074C25.2128 6.613 26 7.46435 26 8.5V26.5C26 27.5357 25.2128 28.387 24.2041 28.4893L24 28.5H8C6.96435 28.5 6.113 27.7128 6.01074 26.7041L6 26.5V8.5C6 7.39543 6.89543 6.5 8 6.5H13.5V5C13.5 3.89543 14.3954 3 15.5 3H16.5ZM7.25 12.125V26.5C7.25 26.9142 7.58579 27.25 8 27.25H24C24.4142 27.25 24.75 26.9142 24.75 26.5V12.125H7.25ZM8 7.75C7.58579 7.75 7.25 8.08579 7.25 8.5V10.875H24.75V8.5C24.75 8.08579 24.4142 7.75 24 7.75H18.5V8C18.5 9.03565 17.7128 9.887 16.7041 9.98926L16.5 10H15.5L15.2959 9.98926C14.3543 9.8938 13.6062 9.14565 13.5107 8.2041L13.5 8V7.75H8ZM15.5 4.25C15.0858 4.25 14.75 4.58579 14.75 5V8C14.75 8.41421 15.0858 8.75 15.5 8.75H16.5C16.9142 8.75 17.25 8.41421 17.25 8V5C17.25 4.58579 16.9142 4.25 16.5 4.25H15.5Z" fill="#222222"/>
<path fill-rule="evenodd" clip-rule="evenodd" d="M16 14C17.6569 14 19 15.3431 19 17C19 17.8642 18.6317 18.6401 18.0469 19.1875C19.7876 19.9696 21 21.718 21 23.75V23.8926C21 24.366 20.616 24.75 20.1426 24.75H11.8574L11.7695 24.7451C11.3373 24.7012 11 24.3364 11 23.8926V23.75C11 21.7183 12.2119 19.9698 13.9521 19.1875C13.3677 18.6401 13 17.864 13 17C13 15.3431 14.3431 14 16 14ZM16 20C14.013 20 12.3875 21.5455 12.2588 23.5H19.7412C19.6125 21.5455 17.987 20 16 20ZM16 15.25C15.0335 15.25 14.25 16.0335 14.25 17C14.25 17.9665 15.0335 18.75 16 18.75C16.9665 18.75 17.75 17.9665 17.75 17C17.75 16.0335 16.9665 15.25 16 15.25Z" fill="#3869FC"/>
</g>
<defs>
<clipPath id="clip0_5316_37920">
<rect width="20" height="25.5" fill="white" transform="translate(6 3)"/>
</clipPath>
</defs>
</svg>
