<svg width="312" height="572" viewBox="0 0 312 572" fill="none" xmlns="http://www.w3.org/2000/svg">
<path d="M56 122L51.6699 129.5L60.3301 129.5L56 122ZM256 122L255.25 122L255.25 222L256 222L256.75 222L256.75 122L256 122ZM240 238L240 237.25L72 237.25L72 238L72 238.75L240 238.75L240 238ZM56 222L56.75 222L56.75 128.75L56 128.75L55.25 128.75L55.25 222L56 222ZM72 238L72 237.25C63.5776 237.25 56.75 230.422 56.75 222L56 222L55.25 222C55.25 231.251 62.7492 238.75 72 238.75L72 238ZM256 222L255.25 222C255.25 230.422 248.422 237.25 240 237.25L240 238L240 238.75C249.251 238.75 256.75 231.251 256.75 222L256 222Z" fill="#003477"/>
<mask id="path-2-inside-1_5316_29610" fill="white">
<path d="M292 465C292 473.837 284.837 481 276 481H36C27.1635 481 20 473.837 20 465V121H292V465Z"/>
</mask>
<path d="M293.5 465C293.5 474.665 285.665 482.5 276 482.5H36C26.335 482.5 18.5 474.665 18.5 465H21.5C21.5 473.008 27.9919 479.5 36 479.5H276C284.008 479.5 290.5 473.008 290.5 465H293.5ZM20 121H292H20ZM293.5 121V465C293.5 474.665 285.665 482.5 276 482.5V479.5C284.008 479.5 290.5 473.008 290.5 465V121H293.5ZM36 482.5C26.335 482.5 18.5 474.665 18.5 465V121H21.5V465C21.5 473.008 27.9919 479.5 36 479.5V482.5Z" fill="#003477" mask="url(#path-2-inside-1_5316_29610)"/>
<rect x="0.75" y="51.75" width="102.5" height="70.5" rx="11.25" fill="white"/>
<rect x="0.75" y="51.75" width="102.5" height="70.5" rx="11.25" stroke="#003477" stroke-width="1.5"/>
<path d="M35.3526 81.3555V82.75H34.3409V86.209C34.8399 86.168 35.3252 86.1201 35.7901 86.0586L35.9131 87.3438C33.4248 87.7676 30.5811 87.8086 28.503 87.8086L28.3116 86.4141L29.6651 86.4004V82.75H28.6397V81.3555H35.3526ZM38.251 80.3301V83.8301H39.9327V85.2793H38.251V89.4902H36.501V80.3301H38.251ZM38.7022 91.1445V92.5391H30.1846V88.6152H31.9209V91.1445H38.7022ZM31.3467 86.3594L32.6592 86.3047V82.75H31.3467V86.3594ZM51.1266 80.3164V92.7578H49.4587V86.4824H48.3376V92.1836H46.6833V80.4941H48.3376V85.0605H49.4587V80.3164H51.1266ZM45.6442 81.6016V89.627H40.695V81.6016H45.6442ZM42.322 82.9824V88.2598H44.0173V82.9824H42.322ZM62.7581 80.3164V92.7578H60.9945V80.3164H62.7581ZM59.0257 81.6152C59.0257 85.3887 57.6995 88.5195 53.2562 90.625L52.3402 89.2305C55.553 87.7129 56.9681 85.7441 57.2484 82.9824H53.0101V81.6152H59.0257ZM67.7314 80.8496C69.3242 80.8359 70.5888 81.7451 70.9306 83.0781H73.0088V80.3164H74.7451V87.002H73.0088V84.4727H70.9443C70.6162 85.8398 69.3379 86.7695 67.7314 86.7695C65.8173 86.7695 64.4091 85.5254 64.4228 83.7891C64.4091 82.0801 65.8173 80.8359 67.7314 80.8496ZM67.7314 82.2988C66.7607 82.2852 66.0634 82.8594 66.0771 83.7891C66.0634 84.7188 66.7607 85.3066 67.7314 85.3066C68.6748 85.3066 69.3584 84.7188 69.3584 83.7891C69.3584 82.8594 68.6748 82.2852 67.7314 82.2988ZM68.1689 87.5488V88.752H73.0088V87.5488H74.7451V92.6211H66.4463V87.5488H68.1689ZM68.1689 91.2129H73.0088V90.0918H68.1689V91.2129Z" fill="#222222"/>
<path d="M35.3526 81.3555V82.75H34.3409V86.209C34.8399 86.168 35.3252 86.1201 35.7901 86.0586L35.9131 87.3438C33.4248 87.7676 30.5811 87.8086 28.503 87.8086L28.3116 86.4141L29.6651 86.4004V82.75H28.6397V81.3555H35.3526ZM38.251 80.3301V83.8301H39.9327V85.2793H38.251V89.4902H36.501V80.3301H38.251ZM38.7022 91.1445V92.5391H30.1846V88.6152H31.9209V91.1445H38.7022ZM31.3467 86.3594L32.6592 86.3047V82.75H31.3467V86.3594ZM51.1266 80.3164V92.7578H49.4587V86.4824H48.3376V92.1836H46.6833V80.4941H48.3376V85.0605H49.4587V80.3164H51.1266ZM45.6442 81.6016V89.627H40.695V81.6016H45.6442ZM42.322 82.9824V88.2598H44.0173V82.9824H42.322ZM62.7581 80.3164V92.7578H60.9945V80.3164H62.7581ZM59.0257 81.6152C59.0257 85.3887 57.6995 88.5195 53.2562 90.625L52.3402 89.2305C55.553 87.7129 56.9681 85.7441 57.2484 82.9824H53.0101V81.6152H59.0257ZM67.7314 80.8496C69.3242 80.8359 70.5888 81.7451 70.9306 83.0781H73.0088V80.3164H74.7451V87.002H73.0088V84.4727H70.9443C70.6162 85.8398 69.3379 86.7695 67.7314 86.7695C65.8173 86.7695 64.4091 85.5254 64.4228 83.7891C64.4091 82.0801 65.8173 80.8359 67.7314 80.8496ZM67.7314 82.2988C66.7607 82.2852 66.0634 82.8594 66.0771 83.7891C66.0634 84.7188 66.7607 85.3066 67.7314 85.3066C68.6748 85.3066 69.3584 84.7188 69.3584 83.7891C69.3584 82.8594 68.6748 82.2852 67.7314 82.2988ZM68.1689 87.5488V88.752H73.0088V87.5488H74.7451V92.6211H66.4463V87.5488H68.1689ZM68.1689 91.2129H73.0088V90.0918H68.1689V91.2129Z" fill="#003477"/>
<path d="M20 47L24.3301 39.5H15.6699L20 47ZM292 47L296.33 39.5H287.67L292 47ZM20 40.25H20.75V32H20H19.25V40.25H20ZM36 16V16.75H276V16V15.25H36V16ZM292 32H291.25V40.25H292H292.75V32H292ZM276 16V16.75C284.422 16.75 291.25 23.5777 291.25 32H292H292.75C292.75 22.7492 285.251 15.25 276 15.25V16ZM20 32H20.75C20.75 23.5777 27.5777 16.75 36 16.75V16V15.25C26.7492 15.25 19.25 22.7492 19.25 32H20Z" fill="#003477"/>
<rect width="112" height="28" transform="translate(99.5)" fill="#F7F8FC"/>
<rect x="111.5" y="5" width="18" height="18" rx="9" fill="#003477"/>
<path d="M122.012 9.51562V18H120.242V11.1914H120.195L118.25 12.4102V10.8516L120.348 9.51562H122.012Z" fill="white"/>
<path d="M147.377 8.7041V20.0791H146.158V8.7041H147.377ZM143.987 9.92285C143.987 13.249 142.565 16.1436 138.668 18.0098L138.033 17.0322C141.061 15.5913 142.534 13.541 142.769 10.8877H138.579V9.92285H143.987ZM152.173 9.22461C153.671 9.21191 154.826 10.0815 155.08 11.3574H157.302V8.7041H158.508V14.8105H157.302V12.3477H155.093C154.845 13.6553 153.683 14.5312 152.173 14.5312C150.433 14.5312 149.189 13.4395 149.189 11.8652C149.189 10.3164 150.433 9.21191 152.173 9.22461ZM152.173 10.2275C151.094 10.2275 150.345 10.8877 150.345 11.8652C150.345 12.8428 151.094 13.5156 152.173 13.5156C153.226 13.5156 153.975 12.8428 153.975 11.8652C153.975 10.8877 153.226 10.2275 152.173 10.2275ZM152.287 15.3564V16.6768H157.302V15.3564H158.508V19.9395H151.094V15.3564H152.287ZM152.287 18.9492H157.302V17.6289H152.287V18.9492ZM172.111 8.7041V12.0684H173.761V13.0713H172.111V16.9688H170.892V8.7041H172.111ZM169.026 9.56738C169.026 12.5508 166.995 14.7217 163.669 15.7246L163.161 14.7598C165.82 13.96 167.477 12.4492 167.718 10.5703H163.643V9.56738H169.026ZM172.581 18.8604V19.8379H164.887V16.1182H166.106V18.8604H172.581ZM186.793 8.7041V20.0791H185.6V14.2012H183.048V13.2109H185.6V8.7041H186.793ZM183.086 9.92285C183.074 13.2236 181.791 16.0547 177.932 17.9717L177.297 17.0195C180.312 15.5469 181.652 13.4966 181.868 10.8877H177.805V9.92285H183.086ZM193.074 9.89746V14.0107H189.951V16.4102C191.189 16.4038 192.357 16.3467 193.722 16.1309L193.824 17.0957C192.237 17.375 190.98 17.4131 189.558 17.4258H188.783V13.0205H191.907V10.8877H188.771V9.89746H193.074ZM198.191 8.7041V20.0791H197.035V14.1123H195.563V19.4951H194.458V8.93262H195.563V13.1348H197.035V8.7041H198.191Z" fill="#222222"/>
<path d="M147.377 8.7041V20.0791H146.158V8.7041H147.377ZM143.987 9.92285C143.987 13.249 142.565 16.1436 138.668 18.0098L138.033 17.0322C141.061 15.5913 142.534 13.541 142.769 10.8877H138.579V9.92285H143.987ZM152.173 9.22461C153.671 9.21191 154.826 10.0815 155.08 11.3574H157.302V8.7041H158.508V14.8105H157.302V12.3477H155.093C154.845 13.6553 153.683 14.5312 152.173 14.5312C150.433 14.5312 149.189 13.4395 149.189 11.8652C149.189 10.3164 150.433 9.21191 152.173 9.22461ZM152.173 10.2275C151.094 10.2275 150.345 10.8877 150.345 11.8652C150.345 12.8428 151.094 13.5156 152.173 13.5156C153.226 13.5156 153.975 12.8428 153.975 11.8652C153.975 10.8877 153.226 10.2275 152.173 10.2275ZM152.287 15.3564V16.6768H157.302V15.3564H158.508V19.9395H151.094V15.3564H152.287ZM152.287 18.9492H157.302V17.6289H152.287V18.9492ZM172.111 8.7041V12.0684H173.761V13.0713H172.111V16.9688H170.892V8.7041H172.111ZM169.026 9.56738C169.026 12.5508 166.995 14.7217 163.669 15.7246L163.161 14.7598C165.82 13.96 167.477 12.4492 167.718 10.5703H163.643V9.56738H169.026ZM172.581 18.8604V19.8379H164.887V16.1182H166.106V18.8604H172.581ZM186.793 8.7041V20.0791H185.6V14.2012H183.048V13.2109H185.6V8.7041H186.793ZM183.086 9.92285C183.074 13.2236 181.791 16.0547 177.932 17.9717L177.297 17.0195C180.312 15.5469 181.652 13.4966 181.868 10.8877H177.805V9.92285H183.086ZM193.074 9.89746V14.0107H189.951V16.4102C191.189 16.4038 192.357 16.3467 193.722 16.1309L193.824 17.0957C192.237 17.375 190.98 17.4131 189.558 17.4258H188.783V13.0205H191.907V10.8877H188.771V9.89746H193.074ZM198.191 8.7041V20.0791H197.035V14.1123H195.563V19.4951H194.458V8.93262H195.563V13.1348H197.035V8.7041H198.191Z" fill="#003477"/>
<rect x="96" y="199" width="120" height="78" rx="16" fill="#003477"/>
<path d="M122.801 235.15C122.786 237.187 123.87 239.53 126.067 240.541L125.027 242.006C123.541 241.325 122.479 239.962 121.893 238.358C121.292 240.124 120.201 241.618 118.655 242.343L117.571 240.863C119.798 239.823 120.911 237.348 120.926 235.15V234.33H118.099V232.807H125.481V234.33H122.801V235.15ZM128.396 231.518V236.601H130.359V238.168H128.396V244.848H126.521V231.518H128.396ZM141.445 232.118V233.188C141.445 234.228 141.445 235.385 141.137 236.908H142.895V238.417H130.693V236.908H139.247C139.54 235.575 139.577 234.542 139.584 233.612H132.187V232.118H141.445ZM141.401 239.823V244.701H132.143V239.823H141.401ZM133.974 241.288V243.207H139.54V241.288H133.974ZM149.513 239.823C152.428 239.823 154.259 240.746 154.273 242.343C154.259 243.91 152.428 244.848 149.513 244.848C146.627 244.848 144.766 243.91 144.766 242.343C144.766 240.746 146.627 239.823 149.513 239.823ZM149.513 241.215C147.681 241.215 146.627 241.596 146.627 242.343C146.627 243.061 147.681 243.427 149.513 243.427C151.344 243.427 152.413 243.061 152.413 242.343C152.413 241.596 151.344 241.215 149.513 241.215ZM154.2 232.118V233.202C154.2 234.257 154.2 235.399 153.819 236.776L151.988 236.601C152.281 235.392 152.318 234.491 152.34 233.583H144.898V232.118H154.2ZM155.636 237.465V238.974H143.536V237.465H148.077V235.136H149.923V237.465H155.636ZM159.616 239.105V240.526H165.168V239.105H167.014V244.701H157.785V239.105H159.616ZM159.616 243.192H165.168V241.947H159.616V243.192ZM167.072 232.06V233.129C167.072 234.14 167.072 235.224 166.765 236.732H168.523V238.227H156.321V236.732H164.904C165.168 235.443 165.205 234.44 165.212 233.554H157.815V232.06H167.072ZM180.34 231.518V244.848H178.451V231.518H180.34ZM176.341 232.909C176.341 236.952 174.921 240.307 170.16 242.562L169.178 241.068C172.621 239.442 174.137 237.333 174.437 234.374H169.896V232.909H176.341ZM189.419 232.484V233.319C189.419 234.242 189.419 235.575 189.111 237.23L187.28 237.055C187.515 235.773 187.573 234.806 187.588 234.008H182.563V232.484H189.419ZM186.108 235.561V238.109C187.434 238.058 188.796 237.956 190.049 237.772L190.151 239.12C187.383 239.633 184.248 239.677 181.934 239.691L181.772 238.197C182.52 238.197 183.362 238.197 184.248 238.168V235.561H186.108ZM192.686 231.518V235.575H194.297V237.143H192.686V241.493H190.767V231.518H192.686ZM193.096 243.119V244.613H183.735V240.6H185.61V243.119H193.096Z" fill="white"/>
<rect width="8" height="10" transform="translate(216 233)" fill="#F6F7FC"/>
<path d="M216.5 238L224 233.67V242.33L216.5 238Z" fill="#003477"/>
<rect width="117" height="48" transform="translate(0 345)" fill="#F7F8FC"/>
<rect y="360" width="18" height="18" rx="9" fill="#003477"/>
<path d="M6.00586 373L5.99414 371.723L9.04102 368.922C9.83789 368.16 10.2598 367.691 10.2598 367.023C10.2598 366.273 9.68555 365.805 8.91211 365.805C8.11523 365.805 7.59961 366.309 7.59961 367.117H5.92383C5.91211 365.453 7.14258 364.398 8.93555 364.398C10.752 364.398 11.959 365.43 11.959 366.906C11.959 367.867 11.4902 368.664 9.74414 370.246L8.45508 371.5V371.547H12.0762V373H6.00586Z" fill="white"/>
<path d="M35.9023 353.717V362.045H34.6963V357.767H32.5254V356.789H34.6963V353.717H35.9023ZM36.207 363.86V364.838H28.5137V361.296H29.7197V363.86H36.207ZM30.4941 356.015C30.4941 357.437 31.5225 358.858 33.2363 359.43L32.6143 360.395C31.3384 359.944 30.3926 359.03 29.8975 357.906C29.4023 359.157 28.4058 360.166 27.0537 360.648L26.4316 359.671C28.1836 359.074 29.2627 357.576 29.2627 356.015V355.57H26.7998V354.58H32.9316V355.57H30.4941V356.015ZM41.4852 357.056C41.4852 358.858 42.6659 360.864 44.3925 361.677L43.7069 362.616C42.431 362 41.4218 360.718 40.9139 359.227C40.3871 360.858 39.3207 362.261 38.0194 362.908L37.3085 361.956C39.035 361.131 40.2919 358.985 40.2919 357.056V355.85H37.7274V354.847H43.9608V355.85H41.4852V357.056ZM46.3856 353.704V358.211H48.2137V359.227H46.3856V365.079H45.1796V353.704H46.3856ZM52.0955 356.814C52.0955 358.63 52.8572 360.572 54.3806 361.499L53.7078 362.426C52.6414 361.785 51.9177 360.648 51.5369 359.328C51.1116 360.775 50.3308 362.007 49.2263 362.68L48.4773 361.778C50.0896 360.813 50.9275 358.808 50.9275 356.865V354.745H52.0955V356.814ZM58.4177 353.704V365.079H57.2625V353.704H58.4177ZM56.0564 353.92V364.521H54.9138V358.706H53.1492V357.703H54.9138V353.92H56.0564ZM68.8248 354.275V355.139C68.8248 356.034 68.8248 357.049 68.5329 358.427H70.1452V359.417H59.735V358.427H67.3141C67.6188 357.1 67.6315 356.129 67.6315 355.266H61.0426V354.275H68.8248ZM68.8375 360.864V364.939H61.0045V360.864H68.8375ZM62.1852 361.816V363.962H67.6442V361.816H62.1852ZM80.6157 353.704V365.079H79.4732V353.704H80.6157ZM78.2925 353.996V364.521H77.1499V360.648H75.2075V359.658H77.1499V357.805H75.398C74.8457 359.715 73.6333 361.372 71.4878 362.654L70.7769 361.791C73.189 360.356 74.3506 358.446 74.5601 356.104H71.3355V355.113H75.7534C75.7534 355.697 75.709 356.262 75.6138 356.814H77.1499V353.996H78.2925ZM85.8939 355.786C85.8939 357.31 86.9604 358.744 88.6869 359.328L88.0648 360.28C86.789 359.83 85.8432 358.922 85.3354 357.779C84.8402 359.055 83.8627 360.052 82.5297 360.547L81.8568 359.595C83.6596 358.973 84.7006 357.449 84.7006 355.748V354.402H85.8939V355.786ZM90.8832 353.691V357.119H92.5336V358.147H90.8832V362.083H89.6771V353.691H90.8832ZM91.3783 363.86V364.838H83.685V361.271H84.9164V363.86H91.3783ZM97.1516 356.599C97.1516 358.681 98.3196 360.75 100.059 361.537L99.3225 362.502C98.0276 361.854 97.0564 360.566 96.555 359.011C96.0535 360.648 95.0569 362.032 93.7493 362.718L92.9876 361.74C94.7522 360.902 95.9329 358.706 95.9329 356.599V354.656H97.1516V356.599ZM102.534 353.704V365.104H101.341V358.465H98.802V357.487H101.341V353.704H102.534ZM28.0439 374.187V375.735H31.0273V374.187H32.2207V379.15H26.8633V374.187H28.0439ZM28.0439 378.186H31.0273V376.662H28.0439V378.186ZM35.3564 373.704V376.091H37.0068V377.068H35.3564V379.557H34.1504V373.704H35.3564ZM35.3564 380.052V382.921H29.2119V384H35.75V384.965H28.0312V382.032H34.1631V381.004H28.0059V380.052H35.3564ZM47.2235 373.704V380.877H46.0809V377.703H44.7606V380.483H43.6307V373.92H44.7606V376.713H46.0809V373.704H47.2235ZM43.2118 374.999V375.951H37.4608V374.999H39.7587V373.793H40.952V374.999H43.2118ZM40.3427 376.484C41.7899 376.484 42.8055 377.259 42.8055 378.439C42.8055 379.62 41.7899 380.395 40.3427 380.395C38.9208 380.395 37.9052 379.62 37.9052 378.439C37.9052 377.259 38.9208 376.484 40.3427 376.484ZM40.3427 377.373C39.5429 377.373 38.9843 377.792 38.9843 378.439C38.9843 379.087 39.5429 379.519 40.3427 379.519C41.1679 379.519 41.7137 379.087 41.7137 378.439C41.7137 377.792 41.1679 377.373 40.3427 377.373ZM43.4149 381.042C45.827 381.042 47.2743 381.766 47.287 383.061C47.2743 384.33 45.827 385.066 43.4149 385.054C41.0028 385.066 39.5555 384.33 39.5682 383.061C39.5555 381.766 41.0028 381.042 43.4149 381.042ZM43.4149 381.969C41.7264 381.969 40.7489 382.35 40.7616 383.061C40.7489 383.746 41.7264 384.14 43.4149 384.127C45.1161 384.14 46.0682 383.746 46.0809 383.061C46.0682 382.35 45.1161 381.969 43.4149 381.969ZM52.9684 380.877C52.4733 380.877 52.0543 380.471 52.067 379.976C52.0543 379.48 52.4733 379.074 52.9684 379.074C53.4508 379.074 53.8698 379.48 53.8698 379.976C53.8698 380.471 53.4508 380.877 52.9684 380.877ZM67.7143 373.717V380.636H66.5717V377.64H65.3148V380.572H64.185V373.869H65.3148V376.649H66.5717V373.717H67.7143ZM67.7143 381.156V385.079H66.5209V382.146H59.8432V381.156H67.7143ZM63.474 374.669V375.672H62.5727V378.922C62.9599 378.896 63.3344 378.852 63.6771 378.808L63.7279 379.709C61.9252 380.026 59.5512 380.064 58.0785 380.064L57.9516 379.074L59.0434 379.062V375.672H58.1547V374.669H63.474ZM60.1605 379.036C60.5922 379.03 61.0302 379.017 61.4682 378.998V375.672H60.1605V379.036ZM78.3499 379.531V380.496H74.9095V382.718H79.5305V383.708H69.1204V382.718H73.7034V380.496H70.428V374.58H78.2356V375.57H71.6468V377.03H77.9944V377.982H71.6468V379.531H78.3499ZM89.6584 373.717V380.687H88.4523V373.717H89.6584ZM86.0275 374.415V377.64H82.0031V379.062C83.9899 379.042 85.4562 378.985 87.1828 378.719L87.3351 379.696C85.4816 380.001 83.9201 380.052 81.7746 380.052H80.8224V376.713H84.8341V375.405H80.797V374.415H86.0275ZM85.8625 380.902C88.2619 380.902 89.7345 381.651 89.7345 382.984C89.7345 384.292 88.2619 385.066 85.8625 385.054C83.4504 385.066 81.9904 384.292 81.9904 382.984C81.9904 381.651 83.4504 380.902 85.8625 380.902ZM85.8625 381.854C84.174 381.854 83.1838 382.261 83.1838 382.984C83.1838 383.708 84.174 384.102 85.8625 384.102C87.5509 384.102 88.5285 383.708 88.5285 382.984C88.5285 382.261 87.5509 381.854 85.8625 381.854ZM103.808 373.717V382.045H102.601V373.717H103.808ZM104.15 383.86V384.838H96.3681V381.258H97.5868V383.86H104.15ZM98.5136 375.469C98.5009 377.132 99.5673 378.655 101.319 379.265L100.697 380.229C99.3832 379.741 98.412 378.776 97.9042 377.538C97.4028 378.858 96.4189 379.918 95.0859 380.433L94.4384 379.48C96.2284 378.82 97.2822 377.183 97.2822 375.469V374.339H98.5136V375.469ZM109.467 376.129C109.467 377.462 110.571 378.719 112.298 379.201L111.726 380.141C110.412 379.766 109.416 378.954 108.895 377.906C108.4 379.081 107.41 380.007 106.052 380.433L105.48 379.506C107.207 378.947 108.273 377.589 108.273 376.129V375.989H105.798V375.024H108.273V373.653H109.479V375.024H111.942V375.989H109.467V376.129ZM114.964 373.704V380.598H113.758V377.881H111.587V376.891H113.758V373.704H114.964ZM111.155 380.852C113.529 380.852 115.002 381.613 115.002 382.946C115.002 384.292 113.529 385.066 111.155 385.054C108.768 385.066 107.296 384.292 107.308 382.946C107.296 381.613 108.768 380.852 111.155 380.852ZM111.155 381.791C109.492 381.791 108.502 382.21 108.502 382.946C108.502 383.683 109.492 384.127 111.155 384.127C112.831 384.127 113.808 383.683 113.808 382.946C113.808 382.21 112.831 381.791 111.155 381.791Z" fill="#222222"/>
<path d="M35.9023 353.717V362.045H34.6963V357.767H32.5254V356.789H34.6963V353.717H35.9023ZM36.207 363.86V364.838H28.5137V361.296H29.7197V363.86H36.207ZM30.4941 356.015C30.4941 357.437 31.5225 358.858 33.2363 359.43L32.6143 360.395C31.3384 359.944 30.3926 359.03 29.8975 357.906C29.4023 359.157 28.4058 360.166 27.0537 360.648L26.4316 359.671C28.1836 359.074 29.2627 357.576 29.2627 356.015V355.57H26.7998V354.58H32.9316V355.57H30.4941V356.015ZM41.4852 357.056C41.4852 358.858 42.6659 360.864 44.3925 361.677L43.7069 362.616C42.431 362 41.4218 360.718 40.9139 359.227C40.3871 360.858 39.3207 362.261 38.0194 362.908L37.3085 361.956C39.035 361.131 40.2919 358.985 40.2919 357.056V355.85H37.7274V354.847H43.9608V355.85H41.4852V357.056ZM46.3856 353.704V358.211H48.2137V359.227H46.3856V365.079H45.1796V353.704H46.3856ZM52.0955 356.814C52.0955 358.63 52.8572 360.572 54.3806 361.499L53.7078 362.426C52.6414 361.785 51.9177 360.648 51.5369 359.328C51.1116 360.775 50.3308 362.007 49.2263 362.68L48.4773 361.778C50.0896 360.813 50.9275 358.808 50.9275 356.865V354.745H52.0955V356.814ZM58.4177 353.704V365.079H57.2625V353.704H58.4177ZM56.0564 353.92V364.521H54.9138V358.706H53.1492V357.703H54.9138V353.92H56.0564ZM68.8248 354.275V355.139C68.8248 356.034 68.8248 357.049 68.5329 358.427H70.1452V359.417H59.735V358.427H67.3141C67.6188 357.1 67.6315 356.129 67.6315 355.266H61.0426V354.275H68.8248ZM68.8375 360.864V364.939H61.0045V360.864H68.8375ZM62.1852 361.816V363.962H67.6442V361.816H62.1852ZM80.6157 353.704V365.079H79.4732V353.704H80.6157ZM78.2925 353.996V364.521H77.1499V360.648H75.2075V359.658H77.1499V357.805H75.398C74.8457 359.715 73.6333 361.372 71.4878 362.654L70.7769 361.791C73.189 360.356 74.3506 358.446 74.5601 356.104H71.3355V355.113H75.7534C75.7534 355.697 75.709 356.262 75.6138 356.814H77.1499V353.996H78.2925ZM85.8939 355.786C85.8939 357.31 86.9604 358.744 88.6869 359.328L88.0648 360.28C86.789 359.83 85.8432 358.922 85.3354 357.779C84.8402 359.055 83.8627 360.052 82.5297 360.547L81.8568 359.595C83.6596 358.973 84.7006 357.449 84.7006 355.748V354.402H85.8939V355.786ZM90.8832 353.691V357.119H92.5336V358.147H90.8832V362.083H89.6771V353.691H90.8832ZM91.3783 363.86V364.838H83.685V361.271H84.9164V363.86H91.3783ZM97.1516 356.599C97.1516 358.681 98.3196 360.75 100.059 361.537L99.3225 362.502C98.0276 361.854 97.0564 360.566 96.555 359.011C96.0535 360.648 95.0569 362.032 93.7493 362.718L92.9876 361.74C94.7522 360.902 95.9329 358.706 95.9329 356.599V354.656H97.1516V356.599ZM102.534 353.704V365.104H101.341V358.465H98.802V357.487H101.341V353.704H102.534ZM28.0439 374.187V375.735H31.0273V374.187H32.2207V379.15H26.8633V374.187H28.0439ZM28.0439 378.186H31.0273V376.662H28.0439V378.186ZM35.3564 373.704V376.091H37.0068V377.068H35.3564V379.557H34.1504V373.704H35.3564ZM35.3564 380.052V382.921H29.2119V384H35.75V384.965H28.0312V382.032H34.1631V381.004H28.0059V380.052H35.3564ZM47.2235 373.704V380.877H46.0809V377.703H44.7606V380.483H43.6307V373.92H44.7606V376.713H46.0809V373.704H47.2235ZM43.2118 374.999V375.951H37.4608V374.999H39.7587V373.793H40.952V374.999H43.2118ZM40.3427 376.484C41.7899 376.484 42.8055 377.259 42.8055 378.439C42.8055 379.62 41.7899 380.395 40.3427 380.395C38.9208 380.395 37.9052 379.62 37.9052 378.439C37.9052 377.259 38.9208 376.484 40.3427 376.484ZM40.3427 377.373C39.5429 377.373 38.9843 377.792 38.9843 378.439C38.9843 379.087 39.5429 379.519 40.3427 379.519C41.1679 379.519 41.7137 379.087 41.7137 378.439C41.7137 377.792 41.1679 377.373 40.3427 377.373ZM43.4149 381.042C45.827 381.042 47.2743 381.766 47.287 383.061C47.2743 384.33 45.827 385.066 43.4149 385.054C41.0028 385.066 39.5555 384.33 39.5682 383.061C39.5555 381.766 41.0028 381.042 43.4149 381.042ZM43.4149 381.969C41.7264 381.969 40.7489 382.35 40.7616 383.061C40.7489 383.746 41.7264 384.14 43.4149 384.127C45.1161 384.14 46.0682 383.746 46.0809 383.061C46.0682 382.35 45.1161 381.969 43.4149 381.969ZM52.9684 380.877C52.4733 380.877 52.0543 380.471 52.067 379.976C52.0543 379.48 52.4733 379.074 52.9684 379.074C53.4508 379.074 53.8698 379.48 53.8698 379.976C53.8698 380.471 53.4508 380.877 52.9684 380.877ZM67.7143 373.717V380.636H66.5717V377.64H65.3148V380.572H64.185V373.869H65.3148V376.649H66.5717V373.717H67.7143ZM67.7143 381.156V385.079H66.5209V382.146H59.8432V381.156H67.7143ZM63.474 374.669V375.672H62.5727V378.922C62.9599 378.896 63.3344 378.852 63.6771 378.808L63.7279 379.709C61.9252 380.026 59.5512 380.064 58.0785 380.064L57.9516 379.074L59.0434 379.062V375.672H58.1547V374.669H63.474ZM60.1605 379.036C60.5922 379.03 61.0302 379.017 61.4682 378.998V375.672H60.1605V379.036ZM78.3499 379.531V380.496H74.9095V382.718H79.5305V383.708H69.1204V382.718H73.7034V380.496H70.428V374.58H78.2356V375.57H71.6468V377.03H77.9944V377.982H71.6468V379.531H78.3499ZM89.6584 373.717V380.687H88.4523V373.717H89.6584ZM86.0275 374.415V377.64H82.0031V379.062C83.9899 379.042 85.4562 378.985 87.1828 378.719L87.3351 379.696C85.4816 380.001 83.9201 380.052 81.7746 380.052H80.8224V376.713H84.8341V375.405H80.797V374.415H86.0275ZM85.8625 380.902C88.2619 380.902 89.7345 381.651 89.7345 382.984C89.7345 384.292 88.2619 385.066 85.8625 385.054C83.4504 385.066 81.9904 384.292 81.9904 382.984C81.9904 381.651 83.4504 380.902 85.8625 380.902ZM85.8625 381.854C84.174 381.854 83.1838 382.261 83.1838 382.984C83.1838 383.708 84.174 384.102 85.8625 384.102C87.5509 384.102 88.5285 383.708 88.5285 382.984C88.5285 382.261 87.5509 381.854 85.8625 381.854ZM103.808 373.717V382.045H102.601V373.717H103.808ZM104.15 383.86V384.838H96.3681V381.258H97.5868V383.86H104.15ZM98.5136 375.469C98.5009 377.132 99.5673 378.655 101.319 379.265L100.697 380.229C99.3832 379.741 98.412 378.776 97.9042 377.538C97.4028 378.858 96.4189 379.918 95.0859 380.433L94.4384 379.48C96.2284 378.82 97.2822 377.183 97.2822 375.469V374.339H98.5136V375.469ZM109.467 376.129C109.467 377.462 110.571 378.719 112.298 379.201L111.726 380.141C110.412 379.766 109.416 378.954 108.895 377.906C108.4 379.081 107.41 380.007 106.052 380.433L105.48 379.506C107.207 378.947 108.273 377.589 108.273 376.129V375.989H105.798V375.024H108.273V373.653H109.479V375.024H111.942V375.989H109.467V376.129ZM114.964 373.704V380.598H113.758V377.881H111.587V376.891H113.758V373.704H114.964ZM111.155 380.852C113.529 380.852 115.002 381.613 115.002 382.946C115.002 384.292 113.529 385.066 111.155 385.054C108.768 385.066 107.296 384.292 107.308 382.946C107.296 381.613 108.768 380.852 111.155 380.852ZM111.155 381.791C109.492 381.791 108.502 382.21 108.502 382.946C108.502 383.683 109.492 384.127 111.155 384.127C112.831 384.127 113.808 383.683 113.808 382.946C113.808 382.21 112.831 381.791 111.155 381.791Z" fill="#003477"/>
<rect width="99" height="28" transform="translate(213 355)" fill="#F7F8FC"/>
<rect x="213" y="360" width="18" height="18" rx="9" fill="#003477"/>
<path d="M221.977 373.117C220.113 373.117 218.777 372.086 218.742 370.609H220.523C220.559 371.242 221.168 371.664 221.988 371.664C222.832 371.664 223.441 371.184 223.43 370.504C223.441 369.812 222.82 369.32 221.824 369.32H221.039V368.02H221.824C222.656 368.02 223.242 367.562 223.242 366.895C223.242 366.25 222.75 365.805 222 365.805C221.25 365.805 220.629 366.227 220.605 366.871H218.918C218.941 365.406 220.266 364.398 222 364.398C223.77 364.398 224.953 365.441 224.941 366.789C224.953 367.738 224.285 368.418 223.336 368.582V368.652C224.578 368.805 225.27 369.566 225.258 370.621C225.27 372.074 223.887 373.117 221.977 373.117Z" fill="white"/>
<path d="M242.821 367.183C242.821 368.947 243.646 370.788 245.233 371.613L244.548 372.515C243.45 371.931 242.682 370.845 242.275 369.557C241.863 370.928 241.101 372.115 240.003 372.756L239.292 371.867C240.854 370.953 241.679 369.011 241.691 367.183V366.764H239.584V365.761H241.691V364.11H242.821V365.761H244.891V366.764H242.821V367.183ZM249.245 363.704V375.079H248.09V369.239H246.731V374.521H245.589V363.92H246.731V368.224H248.09V363.704H249.245ZM260.046 363.717V372.299H258.827V370.813H256.415V369.849H258.827V363.717H260.046ZM260.325 373.86V374.838H252.111V371.372H253.317V373.86H260.325ZM250.448 368.147C251.87 368.141 253.654 368.122 255.412 368.008C255.602 366.859 255.653 365.964 255.666 365.329H251.476V364.352H256.872V364.796C256.872 365.412 256.872 366.465 256.631 367.906C257.05 367.868 257.462 367.824 257.862 367.767L257.951 368.643C256.929 368.82 255.869 368.928 254.828 368.998V371.562H253.622V369.062C252.537 369.112 251.508 369.125 250.613 369.125L250.448 368.147ZM275.223 365.316V366.307H273.611V367.754H275.223V368.757H273.611V370.42H272.405V363.704H273.611V365.316H275.223ZM267.873 364.364C269.612 364.364 270.894 365.469 270.907 367.068C270.894 368.655 269.612 369.76 267.873 369.772C266.133 369.76 264.839 368.655 264.851 367.068C264.839 365.469 266.133 364.364 267.873 364.364ZM267.873 365.38C266.806 365.38 266.019 366.065 266.032 367.068C266.019 368.084 266.806 368.744 267.873 368.757C268.939 368.744 269.726 368.084 269.726 367.068C269.726 366.065 268.939 365.38 267.873 365.38ZM269.942 370.725C272.265 370.725 273.713 371.524 273.713 372.896C273.713 374.254 272.265 375.066 269.942 375.054C267.593 375.066 266.121 374.254 266.121 372.896C266.121 371.524 267.593 370.725 269.942 370.725ZM269.942 371.702C268.292 371.702 267.314 372.134 267.327 372.896C267.314 373.67 268.292 374.089 269.942 374.089C271.58 374.089 272.532 373.67 272.532 372.896C272.532 372.134 271.58 371.702 269.942 371.702ZM284.996 368.947V369.912H281.555V372.692H286.189V373.683H275.779V372.692H280.362V369.912H277.074V364.58H284.894V365.558H278.28V368.947H284.996ZM300.313 369.239V370.204H289.928V369.239H294.536V368.033H291.223V364.225H299.031V365.177H292.416V367.068H299.107V368.033H295.704V369.239H300.313ZM295.108 370.94C297.558 370.94 299.031 371.689 299.031 373.01C299.031 374.33 297.558 375.066 295.108 375.079C292.645 375.066 291.159 374.33 291.159 373.01C291.159 371.689 292.645 370.94 295.108 370.94ZM295.108 371.88C293.368 371.88 292.378 372.286 292.378 373.01C292.378 373.733 293.368 374.14 295.108 374.127C296.822 374.14 297.824 373.733 297.824 373.01C297.824 372.286 296.822 371.88 295.108 371.88ZM304.74 364.517C306.543 364.504 307.825 365.621 307.838 367.221C307.825 368.82 306.543 369.938 304.74 369.938C302.95 369.938 301.63 368.82 301.643 367.221C301.63 365.621 302.95 364.504 304.74 364.517ZM304.74 365.558C303.636 365.558 302.823 366.218 302.836 367.221C302.823 368.224 303.636 368.884 304.74 368.884C305.845 368.884 306.657 368.224 306.657 367.221C306.657 366.218 305.845 365.558 304.74 365.558ZM310.441 363.704V375.104H309.235V363.704H310.441ZM301.097 371.651C303.166 371.651 306.035 371.626 308.524 371.271L308.612 372.146C306.035 372.642 303.28 372.654 301.249 372.654L301.097 371.651Z" fill="#222222"/>
<path d="M242.821 367.183C242.821 368.947 243.646 370.788 245.233 371.613L244.548 372.515C243.45 371.931 242.682 370.845 242.275 369.557C241.863 370.928 241.101 372.115 240.003 372.756L239.292 371.867C240.854 370.953 241.679 369.011 241.691 367.183V366.764H239.584V365.761H241.691V364.11H242.821V365.761H244.891V366.764H242.821V367.183ZM249.245 363.704V375.079H248.09V369.239H246.731V374.521H245.589V363.92H246.731V368.224H248.09V363.704H249.245ZM260.046 363.717V372.299H258.827V370.813H256.415V369.849H258.827V363.717H260.046ZM260.325 373.86V374.838H252.111V371.372H253.317V373.86H260.325ZM250.448 368.147C251.87 368.141 253.654 368.122 255.412 368.008C255.602 366.859 255.653 365.964 255.666 365.329H251.476V364.352H256.872V364.796C256.872 365.412 256.872 366.465 256.631 367.906C257.05 367.868 257.462 367.824 257.862 367.767L257.951 368.643C256.929 368.82 255.869 368.928 254.828 368.998V371.562H253.622V369.062C252.537 369.112 251.508 369.125 250.613 369.125L250.448 368.147ZM275.223 365.316V366.307H273.611V367.754H275.223V368.757H273.611V370.42H272.405V363.704H273.611V365.316H275.223ZM267.873 364.364C269.612 364.364 270.894 365.469 270.907 367.068C270.894 368.655 269.612 369.76 267.873 369.772C266.133 369.76 264.839 368.655 264.851 367.068C264.839 365.469 266.133 364.364 267.873 364.364ZM267.873 365.38C266.806 365.38 266.019 366.065 266.032 367.068C266.019 368.084 266.806 368.744 267.873 368.757C268.939 368.744 269.726 368.084 269.726 367.068C269.726 366.065 268.939 365.38 267.873 365.38ZM269.942 370.725C272.265 370.725 273.713 371.524 273.713 372.896C273.713 374.254 272.265 375.066 269.942 375.054C267.593 375.066 266.121 374.254 266.121 372.896C266.121 371.524 267.593 370.725 269.942 370.725ZM269.942 371.702C268.292 371.702 267.314 372.134 267.327 372.896C267.314 373.67 268.292 374.089 269.942 374.089C271.58 374.089 272.532 373.67 272.532 372.896C272.532 372.134 271.58 371.702 269.942 371.702ZM284.996 368.947V369.912H281.555V372.692H286.189V373.683H275.779V372.692H280.362V369.912H277.074V364.58H284.894V365.558H278.28V368.947H284.996ZM300.313 369.239V370.204H289.928V369.239H294.536V368.033H291.223V364.225H299.031V365.177H292.416V367.068H299.107V368.033H295.704V369.239H300.313ZM295.108 370.94C297.558 370.94 299.031 371.689 299.031 373.01C299.031 374.33 297.558 375.066 295.108 375.079C292.645 375.066 291.159 374.33 291.159 373.01C291.159 371.689 292.645 370.94 295.108 370.94ZM295.108 371.88C293.368 371.88 292.378 372.286 292.378 373.01C292.378 373.733 293.368 374.14 295.108 374.127C296.822 374.14 297.824 373.733 297.824 373.01C297.824 372.286 296.822 371.88 295.108 371.88ZM304.74 364.517C306.543 364.504 307.825 365.621 307.838 367.221C307.825 368.82 306.543 369.938 304.74 369.938C302.95 369.938 301.63 368.82 301.643 367.221C301.63 365.621 302.95 364.504 304.74 364.517ZM304.74 365.558C303.636 365.558 302.823 366.218 302.836 367.221C302.823 368.224 303.636 368.884 304.74 368.884C305.845 368.884 306.657 368.224 306.657 367.221C306.657 366.218 305.845 365.558 304.74 365.558ZM310.441 363.704V375.104H309.235V363.704H310.441ZM301.097 371.651C303.166 371.651 306.035 371.626 308.524 371.271L308.612 372.146C306.035 372.642 303.28 372.654 301.249 372.654L301.097 371.651Z" fill="#003477"/>
<path d="M156 277L160.33 284.5L151.67 284.5L156 277ZM156 401L155.25 401L155.25 283.75L156 283.75L156.75 283.75L156.75 401L156 401Z" fill="#003477"/>
<rect width="144" height="28" transform="translate(84 301)" fill="#F7F8FC"/>
<rect x="84" y="306" width="18" height="18" rx="9" fill="#003477"/>
<path d="M89.584 317.5V316.105L93.1699 310.516H95.3848V316.082H96.4629V317.5H95.3848V319H93.709V317.5H89.584ZM91.3652 316.082H93.7324V312.449H93.6504L91.3652 316.012V316.082Z" fill="white"/>
<path d="M119.877 309.704V321.079H118.658V309.704H119.877ZM116.487 310.923C116.487 314.249 115.065 317.144 111.168 319.01L110.533 318.032C113.561 316.591 115.034 314.541 115.269 311.888H111.079V310.923H116.487ZM124.673 310.225C126.171 310.212 127.326 311.082 127.58 312.357H129.802V309.704H131.008V315.811H129.802V313.348H127.593C127.345 314.655 126.183 315.531 124.673 315.531C122.933 315.531 121.689 314.439 121.689 312.865C121.689 311.316 122.933 310.212 124.673 310.225ZM124.673 311.228C123.594 311.228 122.845 311.888 122.845 312.865C122.845 313.843 123.594 314.516 124.673 314.516C125.726 314.516 126.475 313.843 126.475 312.865C126.475 311.888 125.726 311.228 124.673 311.228ZM124.787 316.356V317.677H129.802V316.356H131.008V320.939H123.594V316.356H124.787ZM124.787 319.949H129.802V318.629H124.787V319.949ZM142.062 309.717V318.045H140.856V309.717H142.062ZM142.405 319.86V320.838H134.623V317.258H135.842V319.86H142.405ZM136.768 311.469C136.756 313.132 137.822 314.655 139.574 315.265L138.952 316.229C137.638 315.741 136.667 314.776 136.159 313.538C135.657 314.858 134.674 315.918 133.341 316.433L132.693 315.48C134.483 314.82 135.537 313.183 135.537 311.469V310.339H136.768V311.469ZM154.107 315.252V316.229H143.735V315.252H146.223V313.716C145.347 313.36 144.852 312.789 144.852 312.04C144.852 310.694 146.414 309.907 148.915 309.907C151.403 309.907 152.977 310.694 152.977 312.04C152.977 312.789 152.476 313.367 151.593 313.716V315.252H154.107ZM148.915 317.004C151.365 317.004 152.838 317.728 152.838 319.022C152.838 320.343 151.365 321.054 148.915 321.054C146.439 321.054 144.966 320.343 144.966 319.022C144.966 317.728 146.439 317.004 148.915 317.004ZM148.915 317.931C147.175 317.931 146.185 318.324 146.185 319.022C146.185 319.733 147.175 320.14 148.915 320.127C150.629 320.14 151.631 319.733 151.631 319.022C151.631 318.324 150.629 317.931 148.915 317.931ZM148.915 310.834C147.15 310.834 146.084 311.278 146.096 312.04C146.084 312.802 147.15 313.233 148.915 313.233C150.679 313.233 151.733 312.802 151.733 312.04C151.733 311.278 150.679 310.834 148.915 310.834ZM147.442 315.252H150.4V314.033C149.956 314.109 149.454 314.147 148.915 314.147C148.381 314.147 147.886 314.109 147.442 314.046V315.252ZM161.213 310.529V311.507H160.122V314.947C160.604 314.909 161.067 314.865 161.518 314.808L161.569 315.722C159.385 316.064 156.834 316.103 155.005 316.103L154.853 315.1L156.237 315.087V311.507H155.17V310.529H161.213ZM164.324 309.704V316.699H163.118V314.719H161.378V313.754H163.118V312.649H161.378V311.685H163.118V309.704H164.324ZM160.515 316.915C162.915 316.915 164.362 317.664 164.362 318.997C164.362 320.292 162.915 321.066 160.515 321.054C158.116 321.066 156.656 320.292 156.668 318.997C156.656 317.664 158.116 316.915 160.515 316.915ZM160.515 317.854C158.839 317.854 157.862 318.261 157.862 318.997C157.862 319.721 158.839 320.127 160.515 320.127C162.178 320.127 163.168 319.721 163.168 318.997C163.168 318.261 162.178 317.854 160.515 317.854ZM157.405 315.074C157.919 315.062 158.439 315.042 158.966 315.011V311.507H157.405V315.074ZM174.807 309.704V314.236H176.572V315.239H174.807V321.066H173.601V309.704H174.807ZM171.836 310.897C171.824 314.186 170.376 317.118 166.631 318.972L165.958 318.032C168.808 316.61 170.357 314.554 170.605 311.9H166.53V310.897H171.836ZM189.578 309.704V315.493H188.372V314.401H185.49V313.462H188.372V312.23H185.63C184.925 313.995 183.212 315.157 180.692 315.747L180.273 314.757C183.002 314.154 184.481 312.891 184.678 311.215H180.869V310.225H185.998C185.998 310.593 185.966 310.942 185.909 311.278H188.372V309.704H189.578ZM189.578 315.976V318.857H183.358V320H189.921V320.965H182.164V317.943H188.372V316.928H182.139V315.976H189.578ZM197.535 310.923V311.621C197.535 312.573 197.535 314.046 197.205 316.077L196.012 315.988C196.297 314.167 196.329 312.853 196.342 311.9H191.721V310.923H197.535ZM194.615 314.173V317.575C195.828 317.537 197.059 317.455 198.195 317.309L198.259 318.21C195.885 318.591 193.244 318.642 191.226 318.629L191.086 317.651C191.797 317.645 192.59 317.639 193.422 317.613V314.173H194.615ZM200.062 309.704V314.401H201.801V315.43H200.062V321.079H198.843V309.704H200.062ZM215.112 309.704V321.079H213.957V309.704H215.112ZM212.802 309.945V320.508H211.659V314.719H209.894V313.729H211.659V309.945H212.802ZM208.777 312.878C208.777 314.82 209.564 316.763 211.164 317.689L210.44 318.578C209.355 317.931 208.606 316.782 208.219 315.404C207.806 316.89 207.032 318.153 205.921 318.845L205.184 317.943C206.797 316.966 207.622 314.896 207.622 312.878V311.964H205.527V310.986H210.732V311.964H208.777V312.878ZM221.584 316.852C224.047 316.852 225.595 317.626 225.608 318.959C225.595 320.279 224.047 321.066 221.584 321.054C219.146 321.066 217.585 320.279 217.585 318.959C217.585 317.626 219.146 316.852 221.584 316.852ZM221.584 317.766C219.857 317.766 218.778 318.21 218.791 318.959C218.778 319.695 219.857 320.127 221.584 320.127C223.323 320.127 224.402 319.695 224.415 318.959C224.402 318.21 223.323 317.766 221.584 317.766ZM225.519 310.263V311.215C225.519 312.129 225.519 313.068 225.202 314.236L224.021 314.109C224.326 312.948 224.326 312.11 224.326 311.228H217.674V310.263H225.519ZM226.814 314.935V315.912H216.467V314.935H220.619V312.802H221.799V314.935H226.814Z" fill="#222222"/>
<path d="M119.877 309.704V321.079H118.658V309.704H119.877ZM116.487 310.923C116.487 314.249 115.065 317.144 111.168 319.01L110.533 318.032C113.561 316.591 115.034 314.541 115.269 311.888H111.079V310.923H116.487ZM124.673 310.225C126.171 310.212 127.326 311.082 127.58 312.357H129.802V309.704H131.008V315.811H129.802V313.348H127.593C127.345 314.655 126.183 315.531 124.673 315.531C122.933 315.531 121.689 314.439 121.689 312.865C121.689 311.316 122.933 310.212 124.673 310.225ZM124.673 311.228C123.594 311.228 122.845 311.888 122.845 312.865C122.845 313.843 123.594 314.516 124.673 314.516C125.726 314.516 126.475 313.843 126.475 312.865C126.475 311.888 125.726 311.228 124.673 311.228ZM124.787 316.356V317.677H129.802V316.356H131.008V320.939H123.594V316.356H124.787ZM124.787 319.949H129.802V318.629H124.787V319.949ZM142.062 309.717V318.045H140.856V309.717H142.062ZM142.405 319.86V320.838H134.623V317.258H135.842V319.86H142.405ZM136.768 311.469C136.756 313.132 137.822 314.655 139.574 315.265L138.952 316.229C137.638 315.741 136.667 314.776 136.159 313.538C135.657 314.858 134.674 315.918 133.341 316.433L132.693 315.48C134.483 314.82 135.537 313.183 135.537 311.469V310.339H136.768V311.469ZM154.107 315.252V316.229H143.735V315.252H146.223V313.716C145.347 313.36 144.852 312.789 144.852 312.04C144.852 310.694 146.414 309.907 148.915 309.907C151.403 309.907 152.977 310.694 152.977 312.04C152.977 312.789 152.476 313.367 151.593 313.716V315.252H154.107ZM148.915 317.004C151.365 317.004 152.838 317.728 152.838 319.022C152.838 320.343 151.365 321.054 148.915 321.054C146.439 321.054 144.966 320.343 144.966 319.022C144.966 317.728 146.439 317.004 148.915 317.004ZM148.915 317.931C147.175 317.931 146.185 318.324 146.185 319.022C146.185 319.733 147.175 320.14 148.915 320.127C150.629 320.14 151.631 319.733 151.631 319.022C151.631 318.324 150.629 317.931 148.915 317.931ZM148.915 310.834C147.15 310.834 146.084 311.278 146.096 312.04C146.084 312.802 147.15 313.233 148.915 313.233C150.679 313.233 151.733 312.802 151.733 312.04C151.733 311.278 150.679 310.834 148.915 310.834ZM147.442 315.252H150.4V314.033C149.956 314.109 149.454 314.147 148.915 314.147C148.381 314.147 147.886 314.109 147.442 314.046V315.252ZM161.213 310.529V311.507H160.122V314.947C160.604 314.909 161.067 314.865 161.518 314.808L161.569 315.722C159.385 316.064 156.834 316.103 155.005 316.103L154.853 315.1L156.237 315.087V311.507H155.17V310.529H161.213ZM164.324 309.704V316.699H163.118V314.719H161.378V313.754H163.118V312.649H161.378V311.685H163.118V309.704H164.324ZM160.515 316.915C162.915 316.915 164.362 317.664 164.362 318.997C164.362 320.292 162.915 321.066 160.515 321.054C158.116 321.066 156.656 320.292 156.668 318.997C156.656 317.664 158.116 316.915 160.515 316.915ZM160.515 317.854C158.839 317.854 157.862 318.261 157.862 318.997C157.862 319.721 158.839 320.127 160.515 320.127C162.178 320.127 163.168 319.721 163.168 318.997C163.168 318.261 162.178 317.854 160.515 317.854ZM157.405 315.074C157.919 315.062 158.439 315.042 158.966 315.011V311.507H157.405V315.074ZM174.807 309.704V314.236H176.572V315.239H174.807V321.066H173.601V309.704H174.807ZM171.836 310.897C171.824 314.186 170.376 317.118 166.631 318.972L165.958 318.032C168.808 316.61 170.357 314.554 170.605 311.9H166.53V310.897H171.836ZM189.578 309.704V315.493H188.372V314.401H185.49V313.462H188.372V312.23H185.63C184.925 313.995 183.212 315.157 180.692 315.747L180.273 314.757C183.002 314.154 184.481 312.891 184.678 311.215H180.869V310.225H185.998C185.998 310.593 185.966 310.942 185.909 311.278H188.372V309.704H189.578ZM189.578 315.976V318.857H183.358V320H189.921V320.965H182.164V317.943H188.372V316.928H182.139V315.976H189.578ZM197.535 310.923V311.621C197.535 312.573 197.535 314.046 197.205 316.077L196.012 315.988C196.297 314.167 196.329 312.853 196.342 311.9H191.721V310.923H197.535ZM194.615 314.173V317.575C195.828 317.537 197.059 317.455 198.195 317.309L198.259 318.21C195.885 318.591 193.244 318.642 191.226 318.629L191.086 317.651C191.797 317.645 192.59 317.639 193.422 317.613V314.173H194.615ZM200.062 309.704V314.401H201.801V315.43H200.062V321.079H198.843V309.704H200.062ZM215.112 309.704V321.079H213.957V309.704H215.112ZM212.802 309.945V320.508H211.659V314.719H209.894V313.729H211.659V309.945H212.802ZM208.777 312.878C208.777 314.82 209.564 316.763 211.164 317.689L210.44 318.578C209.355 317.931 208.606 316.782 208.219 315.404C207.806 316.89 207.032 318.153 205.921 318.845L205.184 317.943C206.797 316.966 207.622 314.896 207.622 312.878V311.964H205.527V310.986H210.732V311.964H208.777V312.878ZM221.584 316.852C224.047 316.852 225.595 317.626 225.608 318.959C225.595 320.279 224.047 321.066 221.584 321.054C219.146 321.066 217.585 320.279 217.585 318.959C217.585 317.626 219.146 316.852 221.584 316.852ZM221.584 317.766C219.857 317.766 218.778 318.21 218.791 318.959C218.778 319.695 219.857 320.127 221.584 320.127C223.323 320.127 224.402 319.695 224.415 318.959C224.402 318.21 223.323 317.766 221.584 317.766ZM225.519 310.263V311.215C225.519 312.129 225.519 313.068 225.202 314.236L224.021 314.109C224.326 312.948 224.326 312.11 224.326 311.228H217.674V310.263H225.519ZM226.814 314.935V315.912H216.467V314.935H220.619V312.802H221.799V314.935H226.814Z" fill="#003477"/>
<g filter="url(#filter0_d_5316_29610)">
<rect x="76" y="400" width="160" height="160" rx="80" fill="#F8FAFF" shape-rendering="crispEdges"/>
<rect x="76" y="400" width="160" height="160" rx="80" fill="#3869FC" fill-opacity="0.1" shape-rendering="crispEdges"/>
<circle cx="156" cy="480" r="68" fill="white"/>
<circle cx="156" cy="480" r="68" fill="#3869FC"/>
<g clip-path="url(#clip0_5316_29610)">
<path d="M110.041 472.357H105.045V477.452H110.041V472.357Z" fill="white"/>
<path d="M120.032 472.357H115.036V477.453H120.032V472.357Z" fill="url(#paint0_linear_5316_29610)"/>
<path d="M110.041 477.453V487.644L115.036 482.548V472.357L110.041 477.453Z" fill="white"/>
<path d="M127.347 483.059V476.477H125.018V474.905H131.458V476.477H129.06V483.059H127.347Z" fill="white"/>
<path d="M136.996 479.832C137.011 479.396 136.951 478.991 136.813 478.615C136.675 478.239 136.48 477.912 136.225 477.636C135.97 477.36 135.668 477.145 135.318 476.99C134.968 476.834 134.587 476.757 134.176 476.757C133.735 476.757 133.325 476.837 132.949 476.996C132.572 477.156 132.247 477.38 131.973 477.672C131.699 477.963 131.485 478.307 131.334 478.703C131.181 479.099 131.105 479.538 131.105 480.02C131.105 480.633 131.24 481.177 131.511 481.65C131.781 482.124 132.161 482.497 132.652 482.768C133.143 483.041 133.716 483.176 134.371 483.176C134.645 483.176 134.923 483.142 135.205 483.072C135.486 483.002 135.76 482.899 136.027 482.764C136.293 482.628 136.537 482.459 136.758 482.257L135.982 481.151C135.731 481.36 135.494 481.508 135.274 481.593C135.053 481.679 134.81 481.722 134.543 481.722C134.154 481.722 133.817 481.646 133.532 481.495C133.246 481.344 133.026 481.132 132.869 480.859C132.781 480.706 132.72 480.534 132.682 480.347H136.986L136.997 479.834L136.996 479.832ZM133.347 478.376C133.579 478.244 133.863 478.178 134.199 478.178C134.427 478.178 134.632 478.227 134.815 478.324C134.999 478.421 135.148 478.553 135.267 478.72C135.385 478.886 135.451 479.075 135.466 479.285V479.331H132.693C132.724 479.197 132.763 479.072 132.817 478.959C132.938 478.703 133.115 478.508 133.347 478.376Z" fill="white"/>
<path d="M140.821 483.174C140.243 483.174 139.725 483.033 139.268 482.754C138.811 482.474 138.451 482.094 138.189 481.612C137.927 481.13 137.795 480.583 137.795 479.969C137.795 479.355 137.927 478.808 138.189 478.327C138.451 477.845 138.812 477.464 139.268 477.185C139.724 476.905 140.243 476.765 140.821 476.765C141.361 476.765 141.856 476.866 142.305 477.068C142.754 477.27 143.104 477.55 143.356 477.907L142.465 479.001C142.358 478.854 142.225 478.719 142.065 478.599C141.905 478.479 141.732 478.384 141.545 478.314C141.359 478.243 141.166 478.209 140.968 478.209C140.655 478.209 140.38 478.285 140.14 478.436C139.9 478.587 139.712 478.795 139.574 479.059C139.438 479.323 139.369 479.627 139.369 479.968C139.369 480.309 139.439 480.589 139.58 480.853C139.721 481.117 139.914 481.326 140.156 481.482C140.4 481.638 140.674 481.715 140.978 481.715C141.177 481.715 141.363 481.688 141.538 481.634C141.713 481.58 141.879 481.494 142.035 481.379C142.191 481.262 142.333 481.123 142.463 480.959L143.342 482.054C143.091 482.389 142.734 482.659 142.274 482.864C141.813 483.07 141.328 483.172 140.817 483.172L140.821 483.174Z" fill="white"/>
<path d="M153.359 476.582C153.359 476.435 153.382 476.312 153.427 476.215C153.473 476.117 153.543 476.043 153.638 475.993C153.734 475.944 153.853 475.917 153.999 475.917C154.083 475.917 154.176 475.939 154.279 475.982C154.381 476.024 154.483 476.077 154.581 476.139L155.06 474.916C154.892 474.768 154.69 474.649 154.455 474.56C154.219 474.471 153.967 474.426 153.701 474.426C153.306 474.426 152.961 474.515 152.668 474.693C152.376 474.872 152.145 475.117 151.978 475.427C151.81 475.738 151.727 476.084 151.727 476.464V477.047H150.825V478.445H151.727V483.058H153.36V478.445H154.661V477.047H153.36V476.581L153.359 476.582Z" fill="white"/>
<path d="M156.794 475.639C157.098 475.639 157.34 475.553 157.519 475.383C157.698 475.212 157.787 474.995 157.787 474.731C157.787 474.452 157.7 474.233 157.525 474.074C157.35 473.914 157.106 473.834 156.794 473.834C156.481 473.834 156.248 473.918 156.068 474.084C155.89 474.251 155.8 474.467 155.8 474.73C155.8 475.018 155.888 475.24 156.063 475.4C156.238 475.559 156.481 475.639 156.794 475.639ZM155.995 483.059H157.617V476.897H155.995V483.059Z" fill="white"/>
<path d="M149.7 477.893C149.543 477.516 149.311 477.235 149.003 477.048C148.696 476.861 148.313 476.769 147.856 476.769C147.521 476.769 147.202 476.839 146.896 476.978C146.592 477.118 146.331 477.303 146.114 477.531C146.066 477.581 146.024 477.633 145.982 477.686V474.44H144.383V483.058H146.005V479.354C146.005 479.191 146.038 479.04 146.102 478.9C146.166 478.761 146.254 478.636 146.364 478.528C146.475 478.42 146.608 478.335 146.764 478.277C146.921 478.219 147.09 478.19 147.273 478.19C147.501 478.183 147.694 478.221 147.85 478.307C148.006 478.392 148.122 478.528 148.199 478.715C148.275 478.901 148.313 479.133 148.313 479.413V483.058H149.935V479.284C149.935 478.734 149.857 478.27 149.701 477.893H149.7Z" fill="white"/>
<path d="M164.393 477.893C164.237 477.516 164.005 477.235 163.697 477.049C163.389 476.862 163.007 476.769 162.55 476.769C162.215 476.769 161.896 476.839 161.59 476.978C161.286 477.119 161.025 477.303 160.808 477.531C160.754 477.587 160.705 477.646 160.66 477.705L160.63 476.898H159.077V483.059H160.699V479.355C160.699 479.192 160.732 479.041 160.796 478.901C160.86 478.761 160.948 478.636 161.058 478.528C161.169 478.42 161.302 478.336 161.458 478.277C161.615 478.219 161.784 478.19 161.967 478.19C162.195 478.183 162.388 478.221 162.544 478.307C162.7 478.393 162.816 478.528 162.893 478.715C162.968 478.902 163.007 479.134 163.007 479.413V483.059H164.629V479.285C164.629 478.734 164.551 478.27 164.395 477.893H164.393Z" fill="white"/>
<path d="M183.757 476.896H182.512V475.335H180.89V476.896H179.76V478.376H180.89V483.058H182.512V478.376H183.757V476.896Z" fill="white"/>
<path d="M185.744 475.639C186.048 475.639 186.289 475.553 186.469 475.383C186.647 475.212 186.737 474.995 186.737 474.731C186.737 474.452 186.65 474.233 186.475 474.074C186.3 473.914 186.056 473.834 185.744 473.834C185.431 473.834 185.197 473.918 185.018 474.084C184.84 474.251 184.75 474.467 184.75 474.73C184.75 475.018 184.837 475.24 185.012 475.4C185.187 475.559 185.431 475.639 185.744 475.639ZM184.945 483.059H186.567V476.897H184.945V483.059Z" fill="white"/>
<path d="M204.547 483.174C203.983 483.174 203.483 483.078 203.045 482.888C202.607 482.698 202.255 482.436 201.988 482.102L203.005 481.217C203.234 481.473 203.493 481.658 203.782 481.77C204.071 481.883 204.36 481.939 204.649 481.939C204.764 481.939 204.869 481.926 204.963 481.898C205.059 481.871 205.14 481.833 205.209 481.782C205.278 481.732 205.329 481.669 205.363 481.595C205.397 481.521 205.414 481.442 205.414 481.356C205.414 481.185 205.345 481.053 205.209 480.96C205.133 480.914 205.015 480.861 204.855 480.803C204.695 480.745 204.49 480.681 204.238 480.61C203.849 480.509 203.521 480.391 203.25 480.255C202.979 480.119 202.765 479.966 202.605 479.794C202.468 479.631 202.364 479.454 202.291 479.264C202.219 479.074 202.183 478.862 202.183 478.629C202.183 478.349 202.244 478.095 202.366 477.866C202.487 477.638 202.658 477.442 202.875 477.278C203.091 477.115 203.341 476.989 203.622 476.899C203.903 476.81 204.2 476.765 204.513 476.765C204.825 476.765 205.13 476.804 205.426 476.881C205.723 476.959 205.998 477.069 206.254 477.213C206.509 477.357 206.732 477.526 206.922 477.72L206.054 478.699C205.917 478.567 205.763 478.447 205.592 478.337C205.42 478.229 205.243 478.143 205.061 478.082C204.878 478.02 204.715 477.989 204.57 477.989C204.441 477.989 204.325 478.001 204.221 478.023C204.119 478.047 204.032 478.084 203.965 478.134C203.896 478.185 203.845 478.245 203.811 478.315C203.777 478.385 203.76 478.462 203.76 478.548C203.76 478.633 203.781 478.714 203.823 478.793C203.865 478.87 203.923 478.937 204 478.99C204.084 479.037 204.207 479.091 204.371 479.153C204.534 479.215 204.757 479.285 205.039 479.363C205.404 479.464 205.714 479.577 205.969 479.7C206.225 479.825 206.428 479.968 206.58 480.131C206.71 480.27 206.804 480.43 206.866 480.608C206.927 480.786 206.957 480.985 206.957 481.201C206.957 481.582 206.852 481.92 206.643 482.215C206.433 482.51 206.147 482.743 205.782 482.913C205.417 483.084 205.005 483.169 204.548 483.169L204.547 483.174Z" fill="white"/>
<path d="M171.892 476.804C171.771 476.78 171.645 476.769 171.516 476.769C171.211 476.769 170.92 476.843 170.642 476.99C170.365 477.138 170.122 477.341 169.917 477.602C169.842 477.697 169.777 477.797 169.718 477.899L169.688 476.896H168.125V483.058H169.757V479.866C169.757 479.672 169.79 479.494 169.854 479.331C169.918 479.168 170.008 479.027 170.122 478.906C170.237 478.786 170.372 478.694 170.528 478.627C170.684 478.562 170.853 478.528 171.036 478.528C171.174 478.528 171.308 478.546 171.442 478.581C171.575 478.615 171.684 478.657 171.768 478.703L172.201 476.886C172.117 476.855 172.015 476.827 171.894 476.804H171.892Z" fill="white"/>
<path d="M177.077 476.896V477.714C176.96 477.551 176.829 477.4 176.671 477.27C176.485 477.114 176.268 476.992 176.02 476.902C175.773 476.813 175.5 476.768 175.204 476.768C174.679 476.768 174.211 476.903 173.8 477.176C173.389 477.448 173.063 477.824 172.824 478.306C172.584 478.787 172.464 479.338 172.464 479.96C172.464 480.582 172.582 481.133 172.818 481.615C173.054 482.096 173.373 482.477 173.778 482.756C174.182 483.036 174.634 483.176 175.137 483.176C175.418 483.176 175.685 483.131 175.937 483.042C176.187 482.953 176.415 482.833 176.616 482.68C176.788 482.552 176.931 482.404 177.056 482.244V483.059H178.688V476.897H177.078L177.077 476.896ZM176.911 480.897C176.785 481.165 176.608 481.373 176.381 481.521C176.152 481.668 175.886 481.742 175.581 481.742C175.275 481.742 175.023 481.668 174.798 481.521C174.573 481.373 174.397 481.165 174.268 480.897C174.138 480.63 174.074 480.317 174.074 479.96C174.074 479.603 174.138 479.303 174.268 479.039C174.397 478.775 174.575 478.567 174.798 478.416C175.022 478.265 175.283 478.189 175.581 478.189C175.878 478.189 176.152 478.265 176.381 478.416C176.609 478.567 176.787 478.775 176.911 479.039C177.037 479.303 177.1 479.61 177.1 479.96C177.1 480.31 177.037 480.63 176.911 480.897Z" fill="white"/>
<path d="M193.36 477.893C193.204 477.516 192.972 477.235 192.664 477.049C192.356 476.862 191.974 476.769 191.517 476.769C191.182 476.769 190.863 476.839 190.557 476.978C190.253 477.119 189.992 477.303 189.775 477.531C189.721 477.587 189.672 477.646 189.627 477.705L189.597 476.898H188.044V483.059H189.666V479.355C189.666 479.192 189.699 479.041 189.763 478.901C189.827 478.761 189.915 478.636 190.025 478.528C190.136 478.42 190.269 478.336 190.425 478.277C190.582 478.219 190.751 478.19 190.934 478.19C191.162 478.183 191.355 478.221 191.511 478.307C191.667 478.393 191.783 478.528 191.86 478.715C191.935 478.902 191.974 479.134 191.974 479.413V483.059H193.596V479.285C193.596 478.734 193.518 478.27 193.362 477.893H193.36Z" fill="white"/>
<path d="M199.513 476.896L199.489 477.614C199.426 477.541 199.358 477.471 199.278 477.403C199.137 477.283 198.978 477.174 198.799 477.077C198.621 476.98 198.426 476.904 198.217 476.85C198.007 476.795 197.789 476.768 197.561 476.768C197.013 476.768 196.523 476.906 196.094 477.182C195.663 477.457 195.325 477.833 195.078 478.311C194.831 478.788 194.707 479.334 194.707 479.948C194.707 480.562 194.833 481.101 195.084 481.567C195.335 482.033 195.677 482.398 196.111 482.661C196.545 482.925 197.039 483.057 197.596 483.057C197.93 483.057 198.252 482.993 198.56 482.865C198.868 482.736 199.127 482.566 199.337 482.352C199.376 482.312 199.411 482.269 199.445 482.226V482.66C199.445 483.032 199.38 483.343 199.25 483.591C199.121 483.84 198.929 484.027 198.674 484.15C198.419 484.274 198.094 484.337 197.698 484.337C197.47 484.337 197.247 484.313 197.03 484.267C196.813 484.221 196.606 484.154 196.407 484.07C196.209 483.984 196.034 483.888 195.883 483.778L195.301 484.954C195.598 485.188 195.978 485.376 196.442 485.519C196.907 485.663 197.379 485.735 197.858 485.735C198.337 485.735 198.8 485.665 199.2 485.525C199.6 485.385 199.938 485.182 200.217 484.914C200.495 484.646 200.706 484.318 200.85 483.93C200.995 483.541 201.067 483.095 201.067 482.591V476.896H199.514H199.513ZM199.296 480.891C199.166 481.155 198.982 481.361 198.742 481.509C198.502 481.656 198.222 481.73 197.902 481.73C197.583 481.73 197.316 481.656 197.08 481.509C196.845 481.361 196.659 481.153 196.526 480.885C196.393 480.618 196.327 480.309 196.327 479.96C196.327 479.612 196.393 479.314 196.526 479.045C196.659 478.778 196.845 478.567 197.08 478.416C197.316 478.265 197.59 478.189 197.902 478.189C198.215 478.189 198.502 478.263 198.742 478.41C198.982 478.558 199.166 478.766 199.296 479.033C199.425 479.301 199.491 479.61 199.491 479.959C199.491 480.307 199.425 480.627 199.296 480.89V480.891Z" fill="white"/>
</g>
<rect width="8" height="10" transform="translate(236 475)" fill="#F6F7FC"/>
<path d="M236.5 480L244 475.67V484.33L236.5 480Z" fill="#003477"/>
<rect width="8" height="10" transform="translate(76 485) rotate(-180)" fill="#F6F7FC"/>
<path d="M75.5 480L68 484.33L68 475.67L75.5 480Z" fill="#003477"/>
</g>
<rect width="84" height="48" transform="translate(33 146)" fill="#F7F8FC"/>
<rect x="47" y="150" width="18" height="18" rx="9" fill="#003477"/>
<path d="M56.0234 163.117C54.2539 163.117 52.9648 162.074 52.9297 160.609H54.6406C54.6758 161.277 55.2852 161.723 56.0234 161.723C56.9023 161.723 57.5234 161.102 57.5234 160.223C57.5234 159.32 56.8906 158.699 56 158.688C55.3672 158.688 54.9219 158.922 54.6641 159.402H53.0703L53.5273 154.516H58.7539V155.957H54.9805L54.7461 158.102H54.8164C55.1328 157.68 55.7656 157.387 56.5156 157.387C58.0742 157.387 59.2344 158.547 59.2344 160.176C59.2344 161.887 57.9336 163.117 56.0234 163.117Z" fill="white"/>
<path d="M43.1182 174.717V181.636H41.9756V178.64H40.7188V181.572H39.5889V174.869H40.7188V177.649H41.9756V174.717H43.1182ZM43.1182 182.156V186.079H41.9248V183.146H35.2471V182.156H43.1182ZM38.8779 175.669V176.672H37.9766V179.922C38.3638 179.896 38.7383 179.852 39.0811 179.808L39.1318 180.709C37.3291 181.026 34.9551 181.064 33.4824 181.064L33.3555 180.074L34.4473 180.062V176.672H33.5586V175.669H38.8779ZM35.5645 180.036C35.9961 180.03 36.4341 180.017 36.8721 179.998V176.672H35.5645V180.036ZM53.7538 180.531V181.496H50.3134V183.718H54.9345V184.708H44.5243V183.718H49.1073V181.496H45.8319V175.58H53.6395V176.57H47.0507V178.03H53.3983V178.982H47.0507V180.531H53.7538ZM65.0623 174.717V181.687H63.8562V174.717H65.0623ZM61.4314 175.415V178.64H57.407V180.062C59.3938 180.042 60.8601 179.985 62.5867 179.719L62.739 180.696C60.8855 181.001 59.324 181.052 57.1785 181.052H56.2263V177.713H60.238V176.405H56.2009V175.415H61.4314ZM61.2664 181.902C63.6658 181.902 65.1384 182.651 65.1384 183.984C65.1384 185.292 63.6658 186.066 61.2664 186.054C58.8543 186.066 57.3943 185.292 57.3943 183.984C57.3943 182.651 58.8543 181.902 61.2664 181.902ZM61.2664 182.854C59.5779 182.854 58.5877 183.261 58.5877 183.984C58.5877 184.708 59.5779 185.102 61.2664 185.102C62.9548 185.102 63.9324 184.708 63.9324 183.984C63.9324 183.261 62.9548 182.854 61.2664 182.854ZM79.5415 174.704V186.079H78.3862V180.201H76.9136V185.495H75.8091V174.933H76.9136V179.211H78.3862V174.704H79.5415ZM74.4253 176.075V177.053H71.3657V182.321C72.7622 182.309 73.8159 182.245 75.0347 182.017L75.1236 183.007C73.7525 183.286 72.5845 183.337 70.9214 183.35H70.1597V176.075H74.4253ZM89.974 175.275V176.139C89.974 177.034 89.974 178.049 89.682 179.427H91.2943V180.417H80.8842V179.427H88.4633C88.768 178.1 88.7807 177.129 88.7807 176.266H82.1918V175.275H89.974ZM89.9867 181.864V185.939H82.1537V181.864H89.9867ZM83.3344 182.816V184.962H88.7934V182.816H83.3344ZM99.2228 178.056C99.2228 179.96 100.467 181.928 102.219 182.677L101.559 183.616C100.219 183.026 99.153 181.775 98.6261 180.252C98.0993 181.877 97.0265 183.261 95.7062 183.908L95.008 182.956C96.7218 182.156 97.9914 180.011 98.0041 178.056V176.85H95.4015V175.847H101.813V176.85H99.2228V178.056ZM104.453 174.704V186.079H103.247V174.704H104.453ZM115.229 175.275V176.139C115.229 177.034 115.229 178.049 114.937 179.427H116.549V180.417H106.139V179.427H113.718C114.022 178.1 114.035 177.129 114.035 176.266H107.446V175.275H115.229ZM115.241 181.864V185.939H107.408V181.864H115.241ZM108.589 182.816V184.962H114.048V182.816H108.589Z" fill="#222222"/>
<path d="M43.1182 174.717V181.636H41.9756V178.64H40.7188V181.572H39.5889V174.869H40.7188V177.649H41.9756V174.717H43.1182ZM43.1182 182.156V186.079H41.9248V183.146H35.2471V182.156H43.1182ZM38.8779 175.669V176.672H37.9766V179.922C38.3638 179.896 38.7383 179.852 39.0811 179.808L39.1318 180.709C37.3291 181.026 34.9551 181.064 33.4824 181.064L33.3555 180.074L34.4473 180.062V176.672H33.5586V175.669H38.8779ZM35.5645 180.036C35.9961 180.03 36.4341 180.017 36.8721 179.998V176.672H35.5645V180.036ZM53.7538 180.531V181.496H50.3134V183.718H54.9345V184.708H44.5243V183.718H49.1073V181.496H45.8319V175.58H53.6395V176.57H47.0507V178.03H53.3983V178.982H47.0507V180.531H53.7538ZM65.0623 174.717V181.687H63.8562V174.717H65.0623ZM61.4314 175.415V178.64H57.407V180.062C59.3938 180.042 60.8601 179.985 62.5867 179.719L62.739 180.696C60.8855 181.001 59.324 181.052 57.1785 181.052H56.2263V177.713H60.238V176.405H56.2009V175.415H61.4314ZM61.2664 181.902C63.6658 181.902 65.1384 182.651 65.1384 183.984C65.1384 185.292 63.6658 186.066 61.2664 186.054C58.8543 186.066 57.3943 185.292 57.3943 183.984C57.3943 182.651 58.8543 181.902 61.2664 181.902ZM61.2664 182.854C59.5779 182.854 58.5877 183.261 58.5877 183.984C58.5877 184.708 59.5779 185.102 61.2664 185.102C62.9548 185.102 63.9324 184.708 63.9324 183.984C63.9324 183.261 62.9548 182.854 61.2664 182.854ZM79.5415 174.704V186.079H78.3862V180.201H76.9136V185.495H75.8091V174.933H76.9136V179.211H78.3862V174.704H79.5415ZM74.4253 176.075V177.053H71.3657V182.321C72.7622 182.309 73.8159 182.245 75.0347 182.017L75.1236 183.007C73.7525 183.286 72.5845 183.337 70.9214 183.35H70.1597V176.075H74.4253ZM89.974 175.275V176.139C89.974 177.034 89.974 178.049 89.682 179.427H91.2943V180.417H80.8842V179.427H88.4633C88.768 178.1 88.7807 177.129 88.7807 176.266H82.1918V175.275H89.974ZM89.9867 181.864V185.939H82.1537V181.864H89.9867ZM83.3344 182.816V184.962H88.7934V182.816H83.3344ZM99.2228 178.056C99.2228 179.96 100.467 181.928 102.219 182.677L101.559 183.616C100.219 183.026 99.153 181.775 98.6261 180.252C98.0993 181.877 97.0265 183.261 95.7062 183.908L95.008 182.956C96.7218 182.156 97.9914 180.011 98.0041 178.056V176.85H95.4015V175.847H101.813V176.85H99.2228V178.056ZM104.453 174.704V186.079H103.247V174.704H104.453ZM115.229 175.275V176.139C115.229 177.034 115.229 178.049 114.937 179.427H116.549V180.417H106.139V179.427H113.718C114.022 178.1 114.035 177.129 114.035 176.266H107.446V175.275H115.229ZM115.241 181.864V185.939H107.408V181.864H115.241ZM108.589 182.816V184.962H114.048V182.816H108.589Z" fill="#003477"/>
<rect width="84" height="48" transform="translate(194 146)" fill="#F7F8FC"/>
<rect x="247" y="150" width="18" height="18" rx="9" fill="#003477"/>
<path d="M256.094 163.117C254.336 163.105 252.672 162.062 252.672 158.957C252.672 156.098 254.043 154.398 256.164 154.398C257.875 154.398 259.035 155.477 259.211 156.871H257.477C257.336 156.273 256.844 155.91 256.164 155.91C255.016 155.91 254.406 156.953 254.395 158.617H254.477C254.863 157.867 255.707 157.422 256.645 157.422C258.168 157.422 259.305 158.57 259.305 160.164C259.305 161.887 258.004 163.129 256.094 163.117ZM256.082 161.723C256.949 161.723 257.594 161.066 257.594 160.211C257.594 159.367 256.973 158.699 256.105 158.699C255.238 158.699 254.582 159.379 254.57 160.211C254.582 161.043 255.215 161.723 256.082 161.723Z" fill="white"/>
<path d="M204.141 174.717V181.636H202.998V178.64H201.741V181.572H200.611V174.869H201.741V177.649H202.998V174.717H204.141ZM204.141 182.156V186.079H202.947V183.146H196.27V182.156H204.141ZM199.9 175.669V176.672H198.999V179.922C199.386 179.896 199.761 179.852 200.103 179.808L200.154 180.709C198.352 181.026 195.978 181.064 194.505 181.064L194.378 180.074L195.47 180.062V176.672H194.581V175.669H199.9ZM196.587 180.036C197.019 180.03 197.457 180.017 197.895 179.998V176.672H196.587V180.036ZM214.776 180.531V181.496H211.336V183.718H215.957V184.708H205.547V183.718H210.13V181.496H206.854V175.58H214.662V176.57H208.073V178.03H214.421V178.982H208.073V180.531H214.776ZM226.085 174.717V181.687H224.879V174.717H226.085ZM222.454 175.415V178.64H218.429V180.062C220.416 180.042 221.883 179.985 223.609 179.719L223.761 180.696C221.908 181.001 220.346 181.052 218.201 181.052H217.249V177.713H221.26V176.405H217.223V175.415H222.454ZM222.289 181.902C224.688 181.902 226.161 182.651 226.161 183.984C226.161 185.292 224.688 186.066 222.289 186.054C219.877 186.066 218.417 185.292 218.417 183.984C218.417 182.651 219.877 181.902 222.289 181.902ZM222.289 182.854C220.6 182.854 219.61 183.261 219.61 183.984C219.61 184.708 220.6 185.102 222.289 185.102C223.977 185.102 224.955 184.708 224.955 183.984C224.955 183.261 223.977 182.854 222.289 182.854ZM240.564 174.704V186.079H239.409V180.201H237.936V185.495H236.832V174.933H237.936V179.211H239.409V174.704H240.564ZM235.448 176.075V177.053H232.388V182.321C233.785 182.309 234.838 182.245 236.057 182.017L236.146 183.007C234.775 183.286 233.607 183.337 231.944 183.35H231.182V176.075H235.448ZM250.996 175.275V176.139C250.996 177.034 250.996 178.049 250.704 179.427H252.317V180.417H241.907V179.427H249.486C249.79 178.1 249.803 177.129 249.803 176.266H243.214V175.275H250.996ZM251.009 181.864V185.939H243.176V181.864H251.009ZM244.357 182.816V184.962H249.816V182.816H244.357ZM259.979 176.52C259.979 178.018 261.02 179.401 262.721 179.96L262.073 180.912C260.829 180.474 259.896 179.585 259.407 178.462C258.906 179.738 257.941 180.734 256.614 181.229L255.967 180.265C257.744 179.63 258.773 178.119 258.785 176.418V175.301H259.979V176.52ZM264.993 174.704V177.561H266.644V178.576H264.993V181.572H263.787V174.704H264.993ZM261.324 181.839C263.66 181.839 265.095 182.613 265.095 183.946C265.095 185.292 263.66 186.066 261.324 186.054C258.963 186.066 257.503 185.292 257.503 183.946C257.503 182.613 258.963 181.839 261.324 181.839ZM261.324 182.791C259.674 182.791 258.696 183.223 258.709 183.946C258.696 184.695 259.674 185.102 261.324 185.114C262.962 185.102 263.914 184.695 263.914 183.946C263.914 183.223 262.962 182.791 261.324 182.791ZM276.111 174.704V178.602H277.736V179.604H276.111V183.591H274.905V174.704H276.111ZM276.518 184.86V185.838H268.761V182.994H269.967V184.86H276.518ZM267.085 181.382C267.961 181.382 268.983 181.375 270.056 181.331V180.544C268.761 180.404 267.936 179.776 267.948 178.843C267.936 177.738 269.015 177.078 270.652 177.091C272.277 177.078 273.356 177.738 273.356 178.843C273.356 179.77 272.544 180.398 271.262 180.544V181.28C272.277 181.223 273.306 181.134 274.258 180.988L274.359 181.839C271.935 182.296 269.192 182.334 267.212 182.347L267.085 181.382ZM273.94 175.758V176.646H267.377V175.758H270.056V174.666H271.262V175.758H273.94ZM270.652 177.916C269.675 177.916 269.091 178.259 269.091 178.843C269.091 179.401 269.675 179.744 270.652 179.744C271.617 179.744 272.201 179.401 272.201 178.843C272.201 178.259 271.617 177.916 270.652 177.916Z" fill="#222222"/>
<path d="M204.141 174.717V181.636H202.998V178.64H201.741V181.572H200.611V174.869H201.741V177.649H202.998V174.717H204.141ZM204.141 182.156V186.079H202.947V183.146H196.27V182.156H204.141ZM199.9 175.669V176.672H198.999V179.922C199.386 179.896 199.761 179.852 200.103 179.808L200.154 180.709C198.352 181.026 195.978 181.064 194.505 181.064L194.378 180.074L195.47 180.062V176.672H194.581V175.669H199.9ZM196.587 180.036C197.019 180.03 197.457 180.017 197.895 179.998V176.672H196.587V180.036ZM214.776 180.531V181.496H211.336V183.718H215.957V184.708H205.547V183.718H210.13V181.496H206.854V175.58H214.662V176.57H208.073V178.03H214.421V178.982H208.073V180.531H214.776ZM226.085 174.717V181.687H224.879V174.717H226.085ZM222.454 175.415V178.64H218.429V180.062C220.416 180.042 221.883 179.985 223.609 179.719L223.761 180.696C221.908 181.001 220.346 181.052 218.201 181.052H217.249V177.713H221.26V176.405H217.223V175.415H222.454ZM222.289 181.902C224.688 181.902 226.161 182.651 226.161 183.984C226.161 185.292 224.688 186.066 222.289 186.054C219.877 186.066 218.417 185.292 218.417 183.984C218.417 182.651 219.877 181.902 222.289 181.902ZM222.289 182.854C220.6 182.854 219.61 183.261 219.61 183.984C219.61 184.708 220.6 185.102 222.289 185.102C223.977 185.102 224.955 184.708 224.955 183.984C224.955 183.261 223.977 182.854 222.289 182.854ZM240.564 174.704V186.079H239.409V180.201H237.936V185.495H236.832V174.933H237.936V179.211H239.409V174.704H240.564ZM235.448 176.075V177.053H232.388V182.321C233.785 182.309 234.838 182.245 236.057 182.017L236.146 183.007C234.775 183.286 233.607 183.337 231.944 183.35H231.182V176.075H235.448ZM250.996 175.275V176.139C250.996 177.034 250.996 178.049 250.704 179.427H252.317V180.417H241.907V179.427H249.486C249.79 178.1 249.803 177.129 249.803 176.266H243.214V175.275H250.996ZM251.009 181.864V185.939H243.176V181.864H251.009ZM244.357 182.816V184.962H249.816V182.816H244.357ZM259.979 176.52C259.979 178.018 261.02 179.401 262.721 179.96L262.073 180.912C260.829 180.474 259.896 179.585 259.407 178.462C258.906 179.738 257.941 180.734 256.614 181.229L255.967 180.265C257.744 179.63 258.773 178.119 258.785 176.418V175.301H259.979V176.52ZM264.993 174.704V177.561H266.644V178.576H264.993V181.572H263.787V174.704H264.993ZM261.324 181.839C263.66 181.839 265.095 182.613 265.095 183.946C265.095 185.292 263.66 186.066 261.324 186.054C258.963 186.066 257.503 185.292 257.503 183.946C257.503 182.613 258.963 181.839 261.324 181.839ZM261.324 182.791C259.674 182.791 258.696 183.223 258.709 183.946C258.696 184.695 259.674 185.102 261.324 185.114C262.962 185.102 263.914 184.695 263.914 183.946C263.914 183.223 262.962 182.791 261.324 182.791ZM276.111 174.704V178.602H277.736V179.604H276.111V183.591H274.905V174.704H276.111ZM276.518 184.86V185.838H268.761V182.994H269.967V184.86H276.518ZM267.085 181.382C267.961 181.382 268.983 181.375 270.056 181.331V180.544C268.761 180.404 267.936 179.776 267.948 178.843C267.936 177.738 269.015 177.078 270.652 177.091C272.277 177.078 273.356 177.738 273.356 178.843C273.356 179.77 272.544 180.398 271.262 180.544V181.28C272.277 181.223 273.306 181.134 274.258 180.988L274.359 181.839C271.935 182.296 269.192 182.334 267.212 182.347L267.085 181.382ZM273.94 175.758V176.646H267.377V175.758H270.056V174.666H271.262V175.758H273.94ZM270.652 177.916C269.675 177.916 269.091 178.259 269.091 178.843C269.091 179.401 269.675 179.744 270.652 179.744C271.617 179.744 272.201 179.401 272.201 178.843C272.201 178.259 271.617 177.916 270.652 177.916Z" fill="#003477"/>
<rect x="208.75" y="51.75" width="102.5" height="70.5" rx="11.25" fill="white"/>
<rect x="208.75" y="51.75" width="102.5" height="70.5" rx="11.25" stroke="#003477" stroke-width="1.5"/>
<path d="M246.401 81.041V82.1621C246.401 83.3242 246.401 84.5957 246.087 86.332H247.728V87.7402H242.874V92.7715H241.124V87.7402H236.38V86.332H244.323C244.638 84.7256 244.665 83.5088 244.665 82.4355H237.679V81.041H246.401ZM259.127 80.3164V92.7578H257.459V86.4824H256.338V92.1836H254.683V80.4941H256.338V85.0605H257.459V80.3164H259.127ZM253.644 81.6016V89.627H248.695V81.6016H253.644ZM250.322 82.9824V88.2598H252.017V82.9824H250.322ZM270.758 80.3164V92.7578H268.994V80.3164H270.758ZM267.026 81.6152C267.026 85.3887 265.7 88.5195 261.256 90.625L260.34 89.2305C263.553 87.7129 264.968 85.7441 265.248 82.9824H261.01V81.6152H267.026ZM275.731 80.8496C277.324 80.8359 278.589 81.7451 278.931 83.0781H281.009V80.3164H282.745V87.002H281.009V84.4727H278.944C278.616 85.8398 277.338 86.7695 275.731 86.7695C273.817 86.7695 272.409 85.5254 272.423 83.7891C272.409 82.0801 273.817 80.8359 275.731 80.8496ZM275.731 82.2988C274.761 82.2852 274.063 82.8594 274.077 83.7891C274.063 84.7188 274.761 85.3066 275.731 85.3066C276.675 85.3066 277.358 84.7188 277.358 83.7891C277.358 82.8594 276.675 82.2852 275.731 82.2988ZM276.169 87.5488V88.752H281.009V87.5488H282.745V92.6211H274.446V87.5488H276.169ZM276.169 91.2129H281.009V90.0918H276.169V91.2129Z" fill="#222222"/>
<path d="M246.401 81.041V82.1621C246.401 83.3242 246.401 84.5957 246.087 86.332H247.728V87.7402H242.874V92.7715H241.124V87.7402H236.38V86.332H244.323C244.638 84.7256 244.665 83.5088 244.665 82.4355H237.679V81.041H246.401ZM259.127 80.3164V92.7578H257.459V86.4824H256.338V92.1836H254.683V80.4941H256.338V85.0605H257.459V80.3164H259.127ZM253.644 81.6016V89.627H248.695V81.6016H253.644ZM250.322 82.9824V88.2598H252.017V82.9824H250.322ZM270.758 80.3164V92.7578H268.994V80.3164H270.758ZM267.026 81.6152C267.026 85.3887 265.7 88.5195 261.256 90.625L260.34 89.2305C263.553 87.7129 264.968 85.7441 265.248 82.9824H261.01V81.6152H267.026ZM275.731 80.8496C277.324 80.8359 278.589 81.7451 278.931 83.0781H281.009V80.3164H282.745V87.002H281.009V84.4727H278.944C278.616 85.8398 277.338 86.7695 275.731 86.7695C273.817 86.7695 272.409 85.5254 272.423 83.7891C272.409 82.0801 273.817 80.8359 275.731 80.8496ZM275.731 82.2988C274.761 82.2852 274.063 82.8594 274.077 83.7891C274.063 84.7188 274.761 85.3066 275.731 85.3066C276.675 85.3066 277.358 84.7188 277.358 83.7891C277.358 82.8594 276.675 82.2852 275.731 82.2988ZM276.169 87.5488V88.752H281.009V87.5488H282.745V92.6211H274.446V87.5488H276.169ZM276.169 91.2129H281.009V90.0918H276.169V91.2129Z" fill="#003477"/>
<defs>
<filter id="filter0_d_5316_29610" x="59.7197" y="395.032" width="192.561" height="176.561" filterUnits="userSpaceOnUse" color-interpolation-filters="sRGB">
<feFlood flood-opacity="0" result="BackgroundImageFix"/>
<feColorMatrix in="SourceAlpha" type="matrix" values="0 0 0 0 0 0 0 0 0 0 0 0 0 0 0 0 0 0 127 0" result="hardAlpha"/>
<feOffset dy="3.3121"/>
<feGaussianBlur stdDeviation="4.14013"/>
<feComposite in2="hardAlpha" operator="out"/>
<feColorMatrix type="matrix" values="0 0 0 0 0.866667 0 0 0 0 0.901961 0 0 0 0 1 0 0 0 0.25 0"/>
<feBlend mode="normal" in2="BackgroundImageFix" result="effect1_dropShadow_5316_29610"/>
<feBlend mode="normal" in="SourceGraphic" in2="effect1_dropShadow_5316_29610" result="shape"/>
</filter>
<linearGradient id="paint0_linear_5316_29610" x1="115.036" y1="474.905" x2="120.032" y2="474.905" gradientUnits="userSpaceOnUse">
<stop stop-color="white" stop-opacity="0"/>
<stop offset="1" stop-color="white"/>
</linearGradient>
<clipPath id="clip0_5316_29610">
<rect width="101.911" height="15.2866" fill="white" transform="translate(105.045 472.357)"/>
</clipPath>
</defs>
</svg>
