<svg width="312" height="572" viewBox="0 0 312 572" fill="none" xmlns="http://www.w3.org/2000/svg">
<path d="M156 199V104C156 95.1634 163.163 88 172 88H267.15" stroke="#003477" stroke-width="1.5" stroke-linecap="square"/>
<path d="M56 122L51.6699 129.5L60.3301 129.5L56 122ZM256 122L255.25 122L255.25 222L256 222L256.75 222L256.75 122L256 122ZM240 238L240 237.25L72 237.25L72 238L72 238.75L240 238.75L240 238ZM56 222L56.75 222L56.75 128.75L56 128.75L55.25 128.75L55.25 222L56 222ZM72 238L72 237.25C63.5777 237.25 56.75 230.422 56.75 222L56 222L55.25 222C55.25 231.251 62.7492 238.75 72 238.75L72 238ZM256 222L255.25 222C255.25 230.422 248.422 237.25 240 237.25L240 238L240 238.75C249.251 238.75 256.75 231.251 256.75 222L256 222Z" fill="#003477"/>
<mask id="path-3-inside-1_5316_29986" fill="white">
<path d="M292 465C292 473.837 284.837 481 276 481H36C27.1635 481 20 473.837 20 465V121H292V465Z"/>
</mask>
<path d="M293.5 465C293.5 474.665 285.665 482.5 276 482.5H36C26.3351 482.5 18.5 474.665 18.5 465H21.5C21.5 473.008 27.9919 479.5 36 479.5H276C284.008 479.5 290.5 473.008 290.5 465H293.5ZM20 121H292H20ZM293.5 121V465C293.5 474.665 285.665 482.5 276 482.5V479.5C284.008 479.5 290.5 473.008 290.5 465V121H293.5ZM36 482.5C26.3351 482.5 18.5 474.665 18.5 465V121H21.5V465C21.5 473.008 27.9919 479.5 36 479.5V482.5Z" fill="#003477" mask="url(#path-3-inside-1_5316_29986)"/>
<rect x="0.75" y="51.75" width="102.5" height="69.5" rx="11.25" fill="white"/>
<rect x="0.75" y="51.75" width="102.5" height="69.5" rx="11.25" stroke="#003477" stroke-width="1.5"/>
<path d="M34.9834 71.7871C34.9834 73.25 36.4737 74.877 39.3311 75.2324L38.6475 76.6406C36.4737 76.3262 34.8809 75.3213 34.0674 73.9746C33.2471 75.3213 31.668 76.3262 29.5147 76.6406L28.8174 75.2324C31.6475 74.877 33.1514 73.25 33.1514 71.7871V71.1855H34.9834V71.7871ZM39.7276 77.584V79.0059H34.8877V83.2578H33.1651V79.0059H28.3799V77.584H39.7276ZM51.6872 77.6797V79.0742H46.8473V83.2578H45.1247V79.0742H40.3395V77.6797H51.6872ZM50.6755 71.4727V72.8398H47.0524C47.2233 74.0566 48.5973 75.2803 51.154 75.5879L50.5251 76.9551C48.3376 76.6611 46.7721 75.7246 46.027 74.4395C45.2614 75.7246 43.7096 76.6611 41.5427 76.9551L40.9001 75.5879C43.4157 75.2803 44.8034 74.0566 45.0016 72.8398H41.3649V71.4727H50.6755ZM62.7581 70.8164V83.2578H60.9945V70.8164H62.7581ZM59.0257 72.1152C59.0257 75.8887 57.6995 79.0195 53.2562 81.125L52.3402 79.7305C55.553 78.2129 56.9681 76.2441 57.2484 73.4824H53.0101V72.1152H59.0257ZM67.7314 71.3496C69.3242 71.3359 70.5888 72.2451 70.9306 73.5781H73.0088V70.8164H74.7451V77.502H73.0088V74.9727H70.9443C70.6162 76.3398 69.3379 77.2695 67.7314 77.2695C65.8173 77.2695 64.4091 76.0254 64.4228 74.2891C64.4091 72.5801 65.8173 71.3359 67.7314 71.3496ZM67.7314 72.7988C66.7607 72.7852 66.0634 73.3594 66.0771 74.2891C66.0634 75.2188 66.7607 75.8066 67.7314 75.8066C68.6748 75.8066 69.3584 75.2188 69.3584 74.2891C69.3584 73.3594 68.6748 72.7852 67.7314 72.7988ZM68.1689 78.0488V79.252H73.0088V78.0488H74.7451V83.1211H66.4463V78.0488H68.1689ZM68.1689 81.7129H73.0088V80.5918H68.1689V81.7129Z" fill="#222222"/>
<path d="M34.9834 71.7871C34.9834 73.25 36.4737 74.877 39.3311 75.2324L38.6475 76.6406C36.4737 76.3262 34.8809 75.3213 34.0674 73.9746C33.2471 75.3213 31.668 76.3262 29.5147 76.6406L28.8174 75.2324C31.6475 74.877 33.1514 73.25 33.1514 71.7871V71.1855H34.9834V71.7871ZM39.7276 77.584V79.0059H34.8877V83.2578H33.1651V79.0059H28.3799V77.584H39.7276ZM51.6872 77.6797V79.0742H46.8473V83.2578H45.1247V79.0742H40.3395V77.6797H51.6872ZM50.6755 71.4727V72.8398H47.0524C47.2233 74.0566 48.5973 75.2803 51.154 75.5879L50.5251 76.9551C48.3376 76.6611 46.7721 75.7246 46.027 74.4395C45.2614 75.7246 43.7096 76.6611 41.5427 76.9551L40.9001 75.5879C43.4157 75.2803 44.8034 74.0566 45.0016 72.8398H41.3649V71.4727H50.6755ZM62.7581 70.8164V83.2578H60.9945V70.8164H62.7581ZM59.0257 72.1152C59.0257 75.8887 57.6995 79.0195 53.2562 81.125L52.3402 79.7305C55.553 78.2129 56.9681 76.2441 57.2484 73.4824H53.0101V72.1152H59.0257ZM67.7314 71.3496C69.3242 71.3359 70.5888 72.2451 70.9306 73.5781H73.0088V70.8164H74.7451V77.502H73.0088V74.9727H70.9443C70.6162 76.3398 69.3379 77.2695 67.7314 77.2695C65.8173 77.2695 64.4091 76.0254 64.4228 74.2891C64.4091 72.5801 65.8173 71.3359 67.7314 71.3496ZM67.7314 72.7988C66.7607 72.7852 66.0634 73.3594 66.0771 74.2891C66.0634 75.2188 66.7607 75.8066 67.7314 75.8066C68.6748 75.8066 69.3584 75.2188 69.3584 74.2891C69.3584 73.3594 68.6748 72.7852 67.7314 72.7988ZM68.1689 78.0488V79.252H73.0088V78.0488H74.7451V83.1211H66.4463V78.0488H68.1689ZM68.1689 81.7129H73.0088V80.5918H68.1689V81.7129Z" fill="#003477"/>
<path d="M41.3988 96.3594V97.2617H37.1566V98.2695C39.0843 98.375 40.2269 99.0254 40.2269 100.121C40.2269 101.316 38.8675 101.984 36.6058 101.973C34.3206 101.984 32.9613 101.316 32.9613 100.121C32.9613 99.0254 34.1038 98.375 36.055 98.2695V97.2617H31.8245V96.3594H41.3988ZM36.6058 99.1133C35.0003 99.1133 34.0863 99.4766 34.0863 100.121C34.0863 100.754 35.0003 101.129 36.6058 101.117C38.1878 101.129 39.1136 100.754 39.1136 100.121C39.1136 99.4766 38.1878 99.1133 36.6058 99.1133ZM40.5433 91.9766V92.8672H37.3558C37.514 93.8809 38.9905 94.7422 40.9066 94.9297L40.5081 95.8086C38.6917 95.5977 37.1859 94.8301 36.6175 93.7109C36.0316 94.8301 34.5316 95.5977 32.7152 95.8086L32.3284 94.9297C34.2152 94.7422 35.6976 93.8809 35.8558 92.8672H32.7034V91.9766H40.5433ZM51.685 99.7461V100.66H42.0756V99.7461H46.2827V97.25H47.3842V99.7461H51.685ZM47.4077 92.9609C47.4077 94.625 49.2358 96.1836 51.2631 96.5234L50.7827 97.4375C49.0834 97.0977 47.519 96.0488 46.8217 94.6016C46.1303 96.043 44.5834 97.1094 42.8959 97.4375L42.4038 96.5234C44.4194 96.1836 46.2358 94.625 46.2358 92.9609V92.1641H47.4077V92.9609ZM61.0572 91.4961V101.996H59.9322V91.4961H61.0572ZM57.9283 92.6211C57.9283 95.6914 56.6158 98.3633 53.0181 100.086L52.4322 99.1836C55.2271 97.8535 56.5865 95.9609 56.8033 93.5117H52.9361V92.6211H57.9283ZM65.4841 91.9766C66.8669 91.9648 67.9333 92.7676 68.1677 93.9453H70.2184V91.4961H71.3317V97.1328H70.2184V94.8594H68.1794C67.9509 96.0664 66.8786 96.875 65.4841 96.875C63.8786 96.875 62.7302 95.8672 62.7302 94.4141C62.7302 92.9844 63.8786 91.9648 65.4841 91.9766ZM65.4841 92.9023C64.488 92.9023 63.7966 93.5117 63.7966 94.4141C63.7966 95.3164 64.488 95.9375 65.4841 95.9375C66.4567 95.9375 67.1481 95.3164 67.1481 94.4141C67.1481 93.5117 66.4567 92.9023 65.4841 92.9023ZM65.5895 97.6367V98.8555H70.2184V97.6367H71.3317V101.867H64.488V97.6367H65.5895ZM65.5895 100.953H70.2184V99.7344H65.5895V100.953Z" fill="#7B7B7B"/>
<path d="M20 47L24.3301 39.5H15.6699L20 47ZM292 47L296.33 39.5H287.67L292 47ZM20 40.25H20.75V32H20H19.25V40.25H20ZM36 16V16.75H276V16V15.25H36V16ZM292 32H291.25V40.25H292H292.75V32H292ZM276 16V16.75C284.422 16.75 291.25 23.5777 291.25 32H292H292.75C292.75 22.7492 285.251 15.25 276 15.25V16ZM20 32H20.75C20.75 23.5777 27.5777 16.75 36 16.75V16V15.25C26.7492 15.25 19.25 22.7492 19.25 32H20Z" fill="#003477"/>
<rect width="73" height="28" transform="translate(119)" fill="#F7F8FC"/>
<rect x="131" y="5" width="18" height="18" rx="9" fill="#003477"/>
<path d="M137.006 18L136.994 16.7227L140.041 13.9219C140.838 13.1602 141.26 12.6914 141.26 12.0234C141.26 11.2734 140.686 10.8047 139.912 10.8047C139.115 10.8047 138.6 11.3086 138.6 12.1172H136.924C136.912 10.4531 138.143 9.39844 139.936 9.39844C141.752 9.39844 142.959 10.4297 142.959 11.9062C142.959 12.8672 142.49 13.6641 140.744 15.2461L139.455 16.5V16.5469H143.076V18H137.006Z" fill="white"/>
<path d="M159.044 9.18652V10.7354H162.027V9.18652H163.221V14.1504H157.863V9.18652H159.044ZM159.044 13.1855H162.027V11.6621H159.044V13.1855ZM166.356 8.7041V11.0908H168.007V12.0684H166.356V14.5566H165.15V8.7041H166.356ZM166.356 15.0518V17.9209H160.212V19H166.75V19.9648H159.031V17.0322H165.163V16.0039H159.006V15.0518H166.356ZM178.896 15.1152V16.0928H174.275V20.0664H173.095V16.0928H168.524V15.1152H178.896ZM177.919 9.37695V10.3418H174.402C174.421 11.751 176.173 13.0078 178.325 13.2998L177.881 14.252C176.015 13.96 174.402 13.0396 173.717 11.7383C173.012 13.0396 171.406 13.96 169.565 14.252L169.108 13.2998C171.235 13.0078 172.987 11.751 173.031 10.3418H169.489V9.37695H177.919Z" fill="#222222"/>
<path d="M159.044 9.18652V10.7354H162.027V9.18652H163.221V14.1504H157.863V9.18652H159.044ZM159.044 13.1855H162.027V11.6621H159.044V13.1855ZM166.356 8.7041V11.0908H168.007V12.0684H166.356V14.5566H165.15V8.7041H166.356ZM166.356 15.0518V17.9209H160.212V19H166.75V19.9648H159.031V17.0322H165.163V16.0039H159.006V15.0518H166.356ZM178.896 15.1152V16.0928H174.275V20.0664H173.095V16.0928H168.524V15.1152H178.896ZM177.919 9.37695V10.3418H174.402C174.421 11.751 176.173 13.0078 178.325 13.2998L177.881 14.252C176.015 13.96 174.402 13.0396 173.717 11.7383C173.012 13.0396 171.406 13.96 169.565 14.252L169.108 13.2998C171.235 13.0078 172.987 11.751 173.031 10.3418H169.489V9.37695H177.919Z" fill="#003477"/>
<rect x="96" y="199" width="120" height="78" rx="16" fill="#003477"/>
<path d="M130.037 226.067V227.576H124.881V228.558C127.203 228.733 128.572 229.568 128.587 230.945C128.572 232.483 126.829 233.348 123.943 233.348C121.014 233.348 119.271 232.483 119.271 230.945C119.271 229.561 120.655 228.726 123.021 228.558V227.576H117.879V226.067H130.037ZM123.943 229.935C122.098 229.949 121.16 230.271 121.175 230.945C121.16 231.59 122.098 231.941 123.943 231.941C125.745 231.941 126.697 231.59 126.712 230.945C126.697 230.271 125.745 229.949 123.943 229.935ZM128.938 220.589V222.054H125.32C125.635 222.991 126.99 223.892 129.524 224.104L128.865 225.569C126.353 225.328 124.654 224.375 123.943 223.079C123.24 224.375 121.57 225.328 119.036 225.569L118.421 224.104C120.889 223.892 122.251 222.984 122.596 222.054H118.992V220.589H128.938ZM142.895 230.257V231.751H130.693V230.257H135.79V227.239H137.651V230.257H142.895ZM137.709 221.731C137.709 223.636 139.423 225.643 142.47 226.111L141.679 227.664C139.335 227.239 137.592 225.987 136.713 224.324C135.834 225.979 134.106 227.247 131.777 227.664L130.986 226.111C134.003 225.643 135.703 223.621 135.717 221.731V220.779H137.709V221.731ZM154.962 220.018V230.096H153.189V220.018H154.962ZM152.252 220.223V229.671H150.494V225.203H149.293V227.781H143.975V221.043H145.748V223.079H147.564V221.043H149.293V223.709H150.494V220.223H152.252ZM145.748 226.272H147.564V224.5H145.748V226.272ZM155.299 231.619V233.113H145.924V228.763H147.799V231.619H155.299ZM167.585 220.018V233.377H165.71V226.639H163.308V225.145H165.71V220.018H167.585ZM161.316 224.192C161.316 226.126 162.37 228.279 164.553 229.217L163.557 230.652C162.041 230.022 160.986 228.748 160.407 227.225C159.821 228.843 158.774 230.206 157.243 230.857L156.262 229.422C158.401 228.47 159.441 226.199 159.455 224.192V223.68H156.687V222.186H159.455V220.311H161.33V222.186H164.026V223.68H161.316V224.192ZM180.34 220.018V233.348H178.451V220.018H180.34ZM176.341 221.409C176.341 225.452 174.921 228.807 170.16 231.062L169.178 229.568C172.621 227.942 174.137 225.833 174.437 222.874H169.896V221.409H176.341ZM185.669 220.589C187.375 220.574 188.73 221.548 189.097 222.977H191.323V220.018H193.184V227.181H191.323V224.471H189.111C188.76 225.936 187.39 226.932 185.669 226.932C183.618 226.932 182.109 225.599 182.124 223.738C182.109 221.907 183.618 220.574 185.669 220.589ZM185.669 222.142C184.629 222.127 183.882 222.742 183.896 223.738C183.882 224.734 184.629 225.364 185.669 225.364C186.68 225.364 187.412 224.734 187.412 223.738C187.412 222.742 186.68 222.127 185.669 222.142ZM186.138 227.767V229.056H191.323V227.767H193.184V233.201H184.292V227.767H186.138ZM186.138 231.692H191.323V230.491H186.138V231.692ZM135.893 245.654C135.893 247.251 136.874 248.877 139.072 249.536L138.12 251.001C136.625 250.532 135.571 249.573 134.97 248.364C134.362 249.675 133.278 250.73 131.718 251.25L130.751 249.785C132.963 249.067 133.989 247.339 133.989 245.654V245.464H131.249V243.97H138.574V245.464H135.893V245.654ZM141.855 243.032V252.671H139.98V243.032H141.855ZM142.206 254.619V256.113H132.919V251.792H134.809V254.619H142.206ZM149.571 252.217C152.53 252.217 154.2 252.905 154.215 254.282C154.2 255.659 152.53 256.362 149.571 256.362C146.583 256.362 144.898 255.659 144.898 254.282C144.898 252.905 146.583 252.217 149.571 252.217ZM149.571 253.535C147.681 253.535 146.817 253.784 146.817 254.282C146.817 254.795 147.681 255.015 149.571 255.015C151.446 255.015 152.31 254.795 152.325 254.282C152.31 253.784 151.446 253.535 149.571 253.535ZM155.035 243.999V245.391H144.093V243.999H148.648V242.9H150.523V243.999H155.035ZM149.586 245.757C152.471 245.742 154.068 246.416 154.068 247.676C154.068 248.936 152.471 249.58 149.586 249.58C146.715 249.58 145.089 248.936 145.103 247.676C145.089 246.416 146.715 245.742 149.586 245.757ZM149.586 246.987C147.901 247.002 147.096 247.207 147.096 247.676C147.096 248.13 147.901 248.306 149.586 248.306C151.285 248.306 152.061 248.13 152.061 247.676C152.061 247.207 151.285 247.002 149.586 246.987ZM155.665 250.166V251.587H143.507V250.166H155.665ZM162.326 251.323C165.241 251.323 167.072 252.246 167.087 253.843C167.072 255.41 165.241 256.348 162.326 256.348C159.441 256.348 157.58 255.41 157.58 253.843C157.58 252.246 159.441 251.323 162.326 251.323ZM162.326 252.715C160.495 252.715 159.441 253.096 159.441 253.843C159.441 254.561 160.495 254.927 162.326 254.927C164.157 254.927 165.227 254.561 165.227 253.843C165.227 253.096 164.157 252.715 162.326 252.715ZM167.014 243.618V244.702C167.014 245.757 167.014 246.899 166.633 248.276L164.802 248.101C165.095 246.892 165.132 245.991 165.154 245.083H157.712V243.618H167.014ZM168.449 248.965V250.474H156.35V248.965H160.891V246.636H162.737V248.965H168.449ZM179.711 243.018V246.65H181.512V248.188H179.711V252.656H177.836V243.018H179.711ZM175.668 244.087V245.581H171.522V248.95C173.932 248.936 175.257 248.862 176.752 248.54L176.942 250.034C175.272 250.386 173.734 250.459 170.775 250.459H169.647V244.087H175.668ZM180.194 254.619V256.113H171.068V251.631H172.928V254.619H180.194Z" fill="white"/>
<rect width="8" height="10" transform="translate(216 233)" fill="#F6F7FC"/>
<path d="M216.5 238L224 233.67V242.33L216.5 238Z" fill="#003477"/>
<rect width="8" height="10" transform="translate(151 199) rotate(-90)" fill="#F6F7FC"/>
<path d="M156 198.5L151.67 191L160.33 191L156 198.5Z" fill="#003477"/>
<rect width="107" height="48" transform="translate(0 345)" fill="#F7F8FC"/>
<rect y="360" width="18" height="18" rx="9" fill="#003477"/>
<path d="M8.97656 373.117C7.11328 373.117 5.77734 372.086 5.74219 370.609H7.52344C7.55859 371.242 8.16797 371.664 8.98828 371.664C9.83203 371.664 10.4414 371.184 10.4297 370.504C10.4414 369.812 9.82031 369.32 8.82422 369.32H8.03906V368.02H8.82422C9.65625 368.02 10.2422 367.562 10.2422 366.895C10.2422 366.25 9.75 365.805 9 365.805C8.25 365.805 7.62891 366.227 7.60547 366.871H5.91797C5.94141 365.406 7.26562 364.398 9 364.398C10.7695 364.398 11.9531 365.441 11.9414 366.789C11.9531 367.738 11.2852 368.418 10.3359 368.582V368.652C11.5781 368.805 12.2695 369.566 12.2578 370.621C12.2695 372.074 10.8867 373.117 8.97656 373.117Z" fill="white"/>
<path d="M28.0439 354.187V355.735H31.0273V354.187H32.2207V359.15H26.8633V354.187H28.0439ZM28.0439 358.186H31.0273V356.662H28.0439V358.186ZM35.3564 353.704V356.091H37.0068V357.068H35.3564V359.557H34.1504V353.704H35.3564ZM35.3564 360.052V362.921H29.2119V364H35.75V364.965H28.0312V362.032H34.1631V361.004H28.0059V360.052H35.3564ZM47.8964 360.115V361.093H43.2753V365.066H42.0946V361.093H37.5243V360.115H47.8964ZM46.9188 354.377V355.342H43.4022C43.4213 356.751 45.1732 358.008 47.3251 358.3L46.8807 359.252C45.0145 358.96 43.4022 358.04 42.7167 356.738C42.0121 358.04 40.4061 358.96 38.5653 359.252L38.1083 358.3C40.2347 358.008 41.9867 356.751 42.0311 355.342H38.4891V354.377H46.9188ZM52.7302 356.599C52.7302 358.681 53.8982 360.75 55.6375 361.537L54.9011 362.502C53.6062 361.854 52.635 360.566 52.1336 359.011C51.6321 360.648 50.6355 362.032 49.3279 362.718L48.5662 361.74C50.3308 360.902 51.5115 358.706 51.5115 356.599V354.656H52.7302V356.599ZM58.113 353.704V365.104H56.9197V358.465H54.3806V357.487H56.9197V353.704H58.113ZM72.2368 353.704V365.079H71.0181V353.704H72.2368ZM68.8472 354.923C68.8472 358.249 67.4253 361.144 63.5279 363.01L62.8931 362.032C65.9209 360.591 67.3936 358.541 67.6284 355.888H63.439V354.923H68.8472ZM82.8217 353.717V357.068H84.4721V358.084H82.8217V362.07H81.6156V353.717H82.8217ZM83.3041 363.86V364.838H75.6107V361.245H76.8168V363.86H83.3041ZM75.5092 354.529V356.345H78.4926V354.529H79.6859V360.191H74.3285V354.529H75.5092ZM75.5092 359.227H78.4926V357.297H75.5092V359.227ZM28.1455 374.885V381.207C29.3135 381.188 30.418 381.112 31.6748 380.852L31.8398 381.88C30.3545 382.185 29.0977 382.248 27.6885 382.248H26.9395V374.885H28.1455ZM36.1943 373.704V385.079H35.0518V373.704H36.1943ZM33.7568 373.958V384.521H32.6143V378.439H30.126V377.449H32.6143V373.958H33.7568ZM46.7538 379.76V380.725H38.8319V374.644H46.6395V375.621H40.0507V377.157H46.3983V378.109H40.0507V379.76H46.7538ZM47.9345 382.654V383.645H37.5243V382.654H47.9345ZM58.1384 373.717V385.079H56.9197V382.362H54.406V381.448H56.9197V373.717H58.1384ZM48.5789 379.633C50.7371 379.62 53.6062 379.607 56.0945 379.265L56.158 380.153C55.0789 380.344 53.9553 380.458 52.8572 380.521V384.724H51.6511V380.585C50.6101 380.629 49.6199 380.636 48.7439 380.636L48.5789 379.633ZM52.324 374.237C53.9998 374.237 55.2058 375.164 55.2058 376.51C55.2058 377.881 53.9998 378.77 52.324 378.77C50.6101 378.77 49.4168 377.881 49.4168 376.51C49.4168 375.164 50.6101 374.237 52.324 374.237ZM52.324 375.164C51.2703 375.164 50.5466 375.71 50.5593 376.51C50.5466 377.322 51.2703 377.843 52.324 377.843C53.3396 377.843 54.0632 377.322 54.0632 376.51C54.0632 375.71 53.3396 375.164 52.324 375.164ZM68.8883 374.809V376.192C68.8883 377.855 68.8883 379.417 68.3932 381.778L67.1998 381.664C67.4411 380.623 67.568 379.709 67.6315 378.858L60.8014 379.227L60.6491 378.236L67.695 377.97C67.714 377.36 67.714 376.776 67.7204 376.192V375.799H60.9664V374.809H68.8883ZM70.1071 382.565V383.556H59.735V382.565H70.1071ZM81.2378 380.128V381.118H70.8277V380.128H75.4361V378.998H72.1607V376.091H78.7241V374.986H72.1353V374.034H79.9302V376.967H73.354V378.071H80.1587V378.998H76.6294V380.128H81.2378ZM80.1714 384.038V385.016H72.1861V381.816H73.3921V384.038H80.1714ZM94.4221 373.717V382.045H93.2161V373.717H94.4221ZM94.7649 383.86V384.838H86.9827V381.258H88.2014V383.86H94.7649ZM89.1282 375.469C89.1155 377.132 90.1819 378.655 91.9339 379.265L91.3118 380.229C89.9978 379.741 89.0266 378.776 88.5188 377.538C88.0174 378.858 87.0335 379.918 85.7005 380.433L85.053 379.48C86.843 378.82 87.8968 377.183 87.8968 375.469V374.339H89.1282V375.469ZM100.081 376.129C100.081 377.462 101.186 378.719 102.912 379.201L102.341 380.141C101.027 379.766 100.03 378.954 99.5099 377.906C99.0148 379.081 98.0246 380.007 96.6662 380.433L96.0949 379.506C97.8214 378.947 98.8878 377.589 98.8878 376.129V375.989H96.4123V375.024H98.8878V373.653H100.094V375.024H102.557V375.989H100.081V376.129ZM105.578 373.704V380.598H104.372V377.881H102.201V376.891H104.372V373.704H105.578ZM101.77 380.852C104.144 380.852 105.616 381.613 105.616 382.946C105.616 384.292 104.144 385.066 101.77 385.054C99.383 385.066 97.9103 384.292 97.923 382.946C97.9103 381.613 99.383 380.852 101.77 380.852ZM101.77 381.791C100.107 381.791 99.1164 382.21 99.1164 382.946C99.1164 383.683 100.107 384.127 101.77 384.127C103.445 384.127 104.423 383.683 104.423 382.946C104.423 382.21 103.445 381.791 101.77 381.791Z" fill="#222222"/>
<path d="M28.0439 354.187V355.735H31.0273V354.187H32.2207V359.15H26.8633V354.187H28.0439ZM28.0439 358.186H31.0273V356.662H28.0439V358.186ZM35.3564 353.704V356.091H37.0068V357.068H35.3564V359.557H34.1504V353.704H35.3564ZM35.3564 360.052V362.921H29.2119V364H35.75V364.965H28.0312V362.032H34.1631V361.004H28.0059V360.052H35.3564ZM47.8964 360.115V361.093H43.2753V365.066H42.0946V361.093H37.5243V360.115H47.8964ZM46.9188 354.377V355.342H43.4022C43.4213 356.751 45.1732 358.008 47.3251 358.3L46.8807 359.252C45.0145 358.96 43.4022 358.04 42.7167 356.738C42.0121 358.04 40.4061 358.96 38.5653 359.252L38.1083 358.3C40.2347 358.008 41.9867 356.751 42.0311 355.342H38.4891V354.377H46.9188ZM52.7302 356.599C52.7302 358.681 53.8982 360.75 55.6375 361.537L54.9011 362.502C53.6062 361.854 52.635 360.566 52.1336 359.011C51.6321 360.648 50.6355 362.032 49.3279 362.718L48.5662 361.74C50.3308 360.902 51.5115 358.706 51.5115 356.599V354.656H52.7302V356.599ZM58.113 353.704V365.104H56.9197V358.465H54.3806V357.487H56.9197V353.704H58.113ZM72.2368 353.704V365.079H71.0181V353.704H72.2368ZM68.8472 354.923C68.8472 358.249 67.4253 361.144 63.5279 363.01L62.8931 362.032C65.9209 360.591 67.3936 358.541 67.6284 355.888H63.439V354.923H68.8472ZM82.8217 353.717V357.068H84.4721V358.084H82.8217V362.07H81.6156V353.717H82.8217ZM83.3041 363.86V364.838H75.6107V361.245H76.8168V363.86H83.3041ZM75.5092 354.529V356.345H78.4926V354.529H79.6859V360.191H74.3285V354.529H75.5092ZM75.5092 359.227H78.4926V357.297H75.5092V359.227ZM28.1455 374.885V381.207C29.3135 381.188 30.418 381.112 31.6748 380.852L31.8398 381.88C30.3545 382.185 29.0977 382.248 27.6885 382.248H26.9395V374.885H28.1455ZM36.1943 373.704V385.079H35.0518V373.704H36.1943ZM33.7568 373.958V384.521H32.6143V378.439H30.126V377.449H32.6143V373.958H33.7568ZM46.7538 379.76V380.725H38.8319V374.644H46.6395V375.621H40.0507V377.157H46.3983V378.109H40.0507V379.76H46.7538ZM47.9345 382.654V383.645H37.5243V382.654H47.9345ZM58.1384 373.717V385.079H56.9197V382.362H54.406V381.448H56.9197V373.717H58.1384ZM48.5789 379.633C50.7371 379.62 53.6062 379.607 56.0945 379.265L56.158 380.153C55.0789 380.344 53.9553 380.458 52.8572 380.521V384.724H51.6511V380.585C50.6101 380.629 49.6199 380.636 48.7439 380.636L48.5789 379.633ZM52.324 374.237C53.9998 374.237 55.2058 375.164 55.2058 376.51C55.2058 377.881 53.9998 378.77 52.324 378.77C50.6101 378.77 49.4168 377.881 49.4168 376.51C49.4168 375.164 50.6101 374.237 52.324 374.237ZM52.324 375.164C51.2703 375.164 50.5466 375.71 50.5593 376.51C50.5466 377.322 51.2703 377.843 52.324 377.843C53.3396 377.843 54.0632 377.322 54.0632 376.51C54.0632 375.71 53.3396 375.164 52.324 375.164ZM68.8883 374.809V376.192C68.8883 377.855 68.8883 379.417 68.3932 381.778L67.1998 381.664C67.4411 380.623 67.568 379.709 67.6315 378.858L60.8014 379.227L60.6491 378.236L67.695 377.97C67.714 377.36 67.714 376.776 67.7204 376.192V375.799H60.9664V374.809H68.8883ZM70.1071 382.565V383.556H59.735V382.565H70.1071ZM81.2378 380.128V381.118H70.8277V380.128H75.4361V378.998H72.1607V376.091H78.7241V374.986H72.1353V374.034H79.9302V376.967H73.354V378.071H80.1587V378.998H76.6294V380.128H81.2378ZM80.1714 384.038V385.016H72.1861V381.816H73.3921V384.038H80.1714ZM94.4221 373.717V382.045H93.2161V373.717H94.4221ZM94.7649 383.86V384.838H86.9827V381.258H88.2014V383.86H94.7649ZM89.1282 375.469C89.1155 377.132 90.1819 378.655 91.9339 379.265L91.3118 380.229C89.9978 379.741 89.0266 378.776 88.5188 377.538C88.0174 378.858 87.0335 379.918 85.7005 380.433L85.053 379.48C86.843 378.82 87.8968 377.183 87.8968 375.469V374.339H89.1282V375.469ZM100.081 376.129C100.081 377.462 101.186 378.719 102.912 379.201L102.341 380.141C101.027 379.766 100.03 378.954 99.5099 377.906C99.0148 379.081 98.0246 380.007 96.6662 380.433L96.0949 379.506C97.8214 378.947 98.8878 377.589 98.8878 376.129V375.989H96.4123V375.024H98.8878V373.653H100.094V375.024H102.557V375.989H100.081V376.129ZM105.578 373.704V380.598H104.372V377.881H102.201V376.891H104.372V373.704H105.578ZM101.77 380.852C104.144 380.852 105.616 381.613 105.616 382.946C105.616 384.292 104.144 385.066 101.77 385.054C99.383 385.066 97.9103 384.292 97.923 382.946C97.9103 381.613 99.383 380.852 101.77 380.852ZM101.77 381.791C100.107 381.791 99.1164 382.21 99.1164 382.946C99.1164 383.683 100.107 384.127 101.77 384.127C103.445 384.127 104.423 383.683 104.423 382.946C104.423 382.21 103.445 381.791 101.77 381.791Z" fill="#003477"/>
<rect width="74" height="28" transform="translate(238 355)" fill="#F7F8FC"/>
<rect x="238" y="360" width="18" height="18" rx="9" fill="#003477"/>
<path d="M243.584 371.5V370.105L247.17 364.516H249.385V370.082H250.463V371.5H249.385V373H247.709V371.5H243.584ZM245.365 370.082H247.732V366.449H247.65L245.365 370.012V370.082Z" fill="white"/>
<path d="M274.182 363.704V375.079H273.026V369.201H271.554V374.495H270.449V363.933H271.554V368.211H273.026V363.704H274.182ZM269.065 365.075V366.053H266.006V371.321C267.402 371.309 268.456 371.245 269.675 371.017L269.764 372.007C268.393 372.286 267.225 372.337 265.562 372.35H264.8V365.075H269.065ZM285.884 368.693V369.595H281.301V370.547H284.589V373.111H277.962V374.051H284.906V374.965H276.781V372.273H283.395V371.423H276.768V370.547H280.107V369.595H275.537V368.693H285.884ZM281.301 363.653V364.656H284.855V365.583H281.402C281.631 366.548 283.173 367.221 285.376 367.335L285.008 368.249C283.027 368.109 281.415 367.525 280.704 366.522C279.993 367.525 278.381 368.109 276.388 368.249L276.045 367.335C278.228 367.221 279.765 366.548 280.018 365.583H276.565V364.656H280.107V363.653H281.301ZM300.058 369.239V370.204H289.673V369.239H294.282V368.033H290.968V364.225H298.776V365.177H292.162V367.068H298.852V368.033H295.45V369.239H300.058ZM294.853 370.94C297.303 370.94 298.776 371.689 298.776 373.01C298.776 374.33 297.303 375.066 294.853 375.079C292.39 375.066 290.905 374.33 290.905 373.01C290.905 371.689 292.39 370.94 294.853 370.94ZM294.853 371.88C293.114 371.88 292.124 372.286 292.124 373.01C292.124 373.733 293.114 374.14 294.853 374.127C296.567 374.14 297.57 373.733 297.57 373.01C297.57 372.286 296.567 371.88 294.853 371.88ZM304.486 364.517C306.289 364.504 307.571 365.621 307.584 367.221C307.571 368.82 306.289 369.938 304.486 369.938C302.696 369.938 301.376 368.82 301.388 367.221C301.376 365.621 302.696 364.504 304.486 364.517ZM304.486 365.558C303.381 365.558 302.569 366.218 302.582 367.221C302.569 368.224 303.381 368.884 304.486 368.884C305.59 368.884 306.403 368.224 306.403 367.221C306.403 366.218 305.59 365.558 304.486 365.558ZM310.186 363.704V375.104H308.98V363.704H310.186ZM300.842 371.651C302.912 371.651 305.781 371.626 308.269 371.271L308.358 372.146C305.781 372.642 303.026 372.654 300.995 372.654L300.842 371.651Z" fill="#222222"/>
<path d="M274.182 363.704V375.079H273.026V369.201H271.554V374.495H270.449V363.933H271.554V368.211H273.026V363.704H274.182ZM269.065 365.075V366.053H266.006V371.321C267.402 371.309 268.456 371.245 269.675 371.017L269.764 372.007C268.393 372.286 267.225 372.337 265.562 372.35H264.8V365.075H269.065ZM285.884 368.693V369.595H281.301V370.547H284.589V373.111H277.962V374.051H284.906V374.965H276.781V372.273H283.395V371.423H276.768V370.547H280.107V369.595H275.537V368.693H285.884ZM281.301 363.653V364.656H284.855V365.583H281.402C281.631 366.548 283.173 367.221 285.376 367.335L285.008 368.249C283.027 368.109 281.415 367.525 280.704 366.522C279.993 367.525 278.381 368.109 276.388 368.249L276.045 367.335C278.228 367.221 279.765 366.548 280.018 365.583H276.565V364.656H280.107V363.653H281.301ZM300.058 369.239V370.204H289.673V369.239H294.282V368.033H290.968V364.225H298.776V365.177H292.162V367.068H298.852V368.033H295.45V369.239H300.058ZM294.853 370.94C297.303 370.94 298.776 371.689 298.776 373.01C298.776 374.33 297.303 375.066 294.853 375.079C292.39 375.066 290.905 374.33 290.905 373.01C290.905 371.689 292.39 370.94 294.853 370.94ZM294.853 371.88C293.114 371.88 292.124 372.286 292.124 373.01C292.124 373.733 293.114 374.14 294.853 374.127C296.567 374.14 297.57 373.733 297.57 373.01C297.57 372.286 296.567 371.88 294.853 371.88ZM304.486 364.517C306.289 364.504 307.571 365.621 307.584 367.221C307.571 368.82 306.289 369.938 304.486 369.938C302.696 369.938 301.376 368.82 301.388 367.221C301.376 365.621 302.696 364.504 304.486 364.517ZM304.486 365.558C303.381 365.558 302.569 366.218 302.582 367.221C302.569 368.224 303.381 368.884 304.486 368.884C305.59 368.884 306.403 368.224 306.403 367.221C306.403 366.218 305.59 365.558 304.486 365.558ZM310.186 363.704V375.104H308.98V363.704H310.186ZM300.842 371.651C302.912 371.651 305.781 371.626 308.269 371.271L308.358 372.146C305.781 372.642 303.026 372.654 300.995 372.654L300.842 371.651Z" fill="#003477"/>
<rect width="86" height="48" transform="translate(113 114)" fill="#F7F8FC"/>
<rect x="113" y="129" width="18" height="18" rx="9" fill="#003477"/>
<path d="M123.512 133.516V142H121.742V135.191H121.695L119.75 136.41V134.852L121.848 133.516H123.512Z" fill="white"/>
<path d="M145.83 123.796V124.761H139.432V123.796H142.098V122.603H143.291V123.796H145.83ZM142.682 125.243C144.218 125.243 145.297 126.068 145.31 127.3C145.297 128.544 144.218 129.356 142.682 129.356C141.133 129.356 140.066 128.544 140.066 127.3C140.066 126.068 141.133 125.243 142.682 125.243ZM142.682 126.17C141.78 126.17 141.196 126.602 141.196 127.3C141.196 127.998 141.78 128.455 142.682 128.455C143.57 128.455 144.18 127.998 144.192 127.3C144.18 126.602 143.57 126.17 142.682 126.17ZM148.902 122.704V129.445H147.696V128.493H145.855V127.516H147.696V126.271H145.868V125.281H147.696V122.704H148.902ZM142.605 129.902V130.981H147.709V129.902H148.902V133.939H141.412V129.902H142.605ZM142.605 132.987H147.709V131.908H142.605V132.987ZM161.204 124.367V125.357H159.592V126.805H161.204V127.82H159.592V129.445H158.386V122.704H159.592V124.367H161.204ZM159.592 129.953V134.079H158.386V130.931H152.076V129.953H159.592ZM153.854 123.364C155.593 123.364 156.875 124.481 156.888 126.081C156.875 127.681 155.593 128.798 153.854 128.798C152.114 128.798 150.819 127.681 150.832 126.081C150.819 124.481 152.114 123.364 153.854 123.364ZM153.854 124.393C152.787 124.393 152 125.065 152.013 126.081C152 127.109 152.787 127.782 153.854 127.77C154.92 127.782 155.707 127.109 155.707 126.081C155.707 125.065 154.92 124.393 153.854 124.393ZM165.292 126.195C165.292 127.985 166.117 129.813 167.691 130.651L167.019 131.54C165.92 130.956 165.152 129.864 164.746 128.569C164.333 129.959 163.572 131.153 162.474 131.807L161.763 130.893C163.337 129.979 164.149 128.036 164.162 126.195V125.738H162.105V124.748H164.162V123.11H165.292V124.748H167.311V125.738H165.292V126.195ZM171.652 122.704V134.079H170.497V122.704H171.652ZM169.342 122.945V133.508H168.199V128.138H166.562V127.135H168.199V122.945H169.342ZM182.608 122.704V128.493H181.402V127.401H178.521V126.462H181.402V125.23H178.66C177.956 126.995 176.242 128.157 173.722 128.747L173.303 127.757C176.032 127.154 177.511 125.891 177.708 124.215H173.899V123.225H179.028C179.028 123.593 178.997 123.942 178.939 124.278H181.402V122.704H182.608ZM182.608 128.976V131.857H176.388V133H182.951V133.965H175.194V130.943H181.402V129.928H175.169V128.976H182.608ZM193.539 123.428V128.1H188.131V123.428H193.539ZM189.312 124.393V127.16H192.346V124.393H189.312ZM196.954 122.704V129.204H195.761V122.704H196.954ZM197.221 129.94V130.854H193.895C193.977 131.845 195.558 132.879 197.627 133.114L197.221 134.041C195.437 133.832 193.971 133.063 193.285 132.061C192.587 133.076 191.089 133.819 189.299 134.041L188.88 133.114C190.949 132.917 192.568 131.87 192.65 130.854H189.337V129.94H192.676V128.874H193.869V129.94H197.221ZM148.877 142.704V154.079H147.658V142.704H148.877ZM145.487 143.923C145.487 147.249 144.065 150.144 140.168 152.01L139.533 151.032C142.561 149.591 144.034 147.541 144.269 144.888H140.079V143.923H145.487ZM153.803 143.225C155.301 143.212 156.456 144.082 156.71 145.357H158.932V142.704H160.138V148.811H158.932V146.348H156.723C156.475 147.655 155.313 148.531 153.803 148.531C152.063 148.531 150.819 147.439 150.819 145.865C150.819 144.316 152.063 143.212 153.803 143.225ZM153.803 144.228C152.724 144.228 151.975 144.888 151.975 145.865C151.975 146.843 152.724 147.516 153.803 147.516C154.856 147.516 155.605 146.843 155.605 145.865C155.605 144.888 154.856 144.228 153.803 144.228ZM153.917 149.356V150.677H158.932V149.356H160.138V153.939H152.724V149.356H153.917ZM153.917 152.949H158.932V151.629H153.917V152.949ZM175.436 149.56V150.55H170.84V154.092H169.646V150.55H165.063V149.56H175.436ZM174.445 144.075V145.053H170.853C170.922 146.31 172.636 147.535 174.801 147.808L174.369 148.772C172.541 148.519 170.986 147.662 170.256 146.5C169.513 147.674 167.945 148.519 166.117 148.772L165.673 147.808C167.837 147.535 169.564 146.335 169.646 145.053H166.041V144.075H169.646V142.704H170.84V144.075H174.445ZM180.285 145.408C180.285 146.843 181.352 148.163 183.104 148.709L182.52 149.661C181.212 149.249 180.222 148.385 179.714 147.274C179.206 148.468 178.222 149.395 176.883 149.839L176.299 148.899C178.038 148.341 179.092 146.944 179.092 145.408V145.142H176.616V144.164H179.092V142.78H180.298V144.164H182.761V145.142H180.285V145.408ZM185.782 142.717V151.185H184.576V147.135H182.367V146.157H184.576V142.717H185.782ZM186.087 152.86V153.838H178.394V150.436H179.6V152.86H186.087Z" fill="#222222"/>
<path d="M145.83 123.796V124.761H139.432V123.796H142.098V122.603H143.291V123.796H145.83ZM142.682 125.243C144.218 125.243 145.297 126.068 145.31 127.3C145.297 128.544 144.218 129.356 142.682 129.356C141.133 129.356 140.066 128.544 140.066 127.3C140.066 126.068 141.133 125.243 142.682 125.243ZM142.682 126.17C141.78 126.17 141.196 126.602 141.196 127.3C141.196 127.998 141.78 128.455 142.682 128.455C143.57 128.455 144.18 127.998 144.192 127.3C144.18 126.602 143.57 126.17 142.682 126.17ZM148.902 122.704V129.445H147.696V128.493H145.855V127.516H147.696V126.271H145.868V125.281H147.696V122.704H148.902ZM142.605 129.902V130.981H147.709V129.902H148.902V133.939H141.412V129.902H142.605ZM142.605 132.987H147.709V131.908H142.605V132.987ZM161.204 124.367V125.357H159.592V126.805H161.204V127.82H159.592V129.445H158.386V122.704H159.592V124.367H161.204ZM159.592 129.953V134.079H158.386V130.931H152.076V129.953H159.592ZM153.854 123.364C155.593 123.364 156.875 124.481 156.888 126.081C156.875 127.681 155.593 128.798 153.854 128.798C152.114 128.798 150.819 127.681 150.832 126.081C150.819 124.481 152.114 123.364 153.854 123.364ZM153.854 124.393C152.787 124.393 152 125.065 152.013 126.081C152 127.109 152.787 127.782 153.854 127.77C154.92 127.782 155.707 127.109 155.707 126.081C155.707 125.065 154.92 124.393 153.854 124.393ZM165.292 126.195C165.292 127.985 166.117 129.813 167.691 130.651L167.019 131.54C165.92 130.956 165.152 129.864 164.746 128.569C164.333 129.959 163.572 131.153 162.474 131.807L161.763 130.893C163.337 129.979 164.149 128.036 164.162 126.195V125.738H162.105V124.748H164.162V123.11H165.292V124.748H167.311V125.738H165.292V126.195ZM171.652 122.704V134.079H170.497V122.704H171.652ZM169.342 122.945V133.508H168.199V128.138H166.562V127.135H168.199V122.945H169.342ZM182.608 122.704V128.493H181.402V127.401H178.521V126.462H181.402V125.23H178.66C177.956 126.995 176.242 128.157 173.722 128.747L173.303 127.757C176.032 127.154 177.511 125.891 177.708 124.215H173.899V123.225H179.028C179.028 123.593 178.997 123.942 178.939 124.278H181.402V122.704H182.608ZM182.608 128.976V131.857H176.388V133H182.951V133.965H175.194V130.943H181.402V129.928H175.169V128.976H182.608ZM193.539 123.428V128.1H188.131V123.428H193.539ZM189.312 124.393V127.16H192.346V124.393H189.312ZM196.954 122.704V129.204H195.761V122.704H196.954ZM197.221 129.94V130.854H193.895C193.977 131.845 195.558 132.879 197.627 133.114L197.221 134.041C195.437 133.832 193.971 133.063 193.285 132.061C192.587 133.076 191.089 133.819 189.299 134.041L188.88 133.114C190.949 132.917 192.568 131.87 192.65 130.854H189.337V129.94H192.676V128.874H193.869V129.94H197.221ZM148.877 142.704V154.079H147.658V142.704H148.877ZM145.487 143.923C145.487 147.249 144.065 150.144 140.168 152.01L139.533 151.032C142.561 149.591 144.034 147.541 144.269 144.888H140.079V143.923H145.487ZM153.803 143.225C155.301 143.212 156.456 144.082 156.71 145.357H158.932V142.704H160.138V148.811H158.932V146.348H156.723C156.475 147.655 155.313 148.531 153.803 148.531C152.063 148.531 150.819 147.439 150.819 145.865C150.819 144.316 152.063 143.212 153.803 143.225ZM153.803 144.228C152.724 144.228 151.975 144.888 151.975 145.865C151.975 146.843 152.724 147.516 153.803 147.516C154.856 147.516 155.605 146.843 155.605 145.865C155.605 144.888 154.856 144.228 153.803 144.228ZM153.917 149.356V150.677H158.932V149.356H160.138V153.939H152.724V149.356H153.917ZM153.917 152.949H158.932V151.629H153.917V152.949ZM175.436 149.56V150.55H170.84V154.092H169.646V150.55H165.063V149.56H175.436ZM174.445 144.075V145.053H170.853C170.922 146.31 172.636 147.535 174.801 147.808L174.369 148.772C172.541 148.519 170.986 147.662 170.256 146.5C169.513 147.674 167.945 148.519 166.117 148.772L165.673 147.808C167.837 147.535 169.564 146.335 169.646 145.053H166.041V144.075H169.646V142.704H170.84V144.075H174.445ZM180.285 145.408C180.285 146.843 181.352 148.163 183.104 148.709L182.52 149.661C181.212 149.249 180.222 148.385 179.714 147.274C179.206 148.468 178.222 149.395 176.883 149.839L176.299 148.899C178.038 148.341 179.092 146.944 179.092 145.408V145.142H176.616V144.164H179.092V142.78H180.298V144.164H182.761V145.142H180.285V145.408ZM185.782 142.717V151.185H184.576V147.135H182.367V146.157H184.576V142.717H185.782ZM186.087 152.86V153.838H178.394V150.436H179.6V152.86H186.087Z" fill="#003477"/>
<g filter="url(#filter0_d_5316_29986)">
<rect x="76" y="400" width="160" height="160" rx="80" fill="#F8FAFF" shape-rendering="crispEdges"/>
<rect x="76" y="400" width="160" height="160" rx="80" fill="#3869FC" fill-opacity="0.1" shape-rendering="crispEdges"/>
<circle cx="156" cy="480" r="68" fill="white"/>
<circle cx="156" cy="480" r="68" fill="#3869FC"/>
<g clip-path="url(#clip0_5316_29986)">
<path d="M110.041 472.357H105.045V477.452H110.041V472.357Z" fill="white"/>
<path d="M120.032 472.357H115.036V477.453H120.032V472.357Z" fill="url(#paint0_linear_5316_29986)"/>
<path d="M110.041 477.453V487.644L115.036 482.548V472.357L110.041 477.453Z" fill="white"/>
<path d="M127.347 483.059V476.477H125.018V474.905H131.458V476.477H129.06V483.059H127.347Z" fill="white"/>
<path d="M136.996 479.832C137.011 479.396 136.951 478.991 136.813 478.615C136.675 478.239 136.48 477.912 136.225 477.636C135.97 477.36 135.668 477.145 135.318 476.99C134.968 476.834 134.587 476.757 134.176 476.757C133.735 476.757 133.325 476.837 132.949 476.996C132.572 477.156 132.247 477.38 131.973 477.672C131.699 477.963 131.485 478.307 131.334 478.703C131.181 479.099 131.105 479.538 131.105 480.02C131.105 480.633 131.24 481.177 131.511 481.65C131.781 482.124 132.161 482.497 132.652 482.768C133.143 483.041 133.716 483.176 134.371 483.176C134.645 483.176 134.923 483.142 135.205 483.072C135.486 483.002 135.76 482.899 136.027 482.764C136.293 482.628 136.537 482.459 136.758 482.257L135.982 481.151C135.731 481.36 135.494 481.508 135.274 481.593C135.053 481.679 134.81 481.722 134.543 481.722C134.154 481.722 133.817 481.646 133.532 481.495C133.246 481.344 133.026 481.132 132.869 480.859C132.781 480.706 132.72 480.534 132.682 480.347H136.986L136.997 479.834L136.996 479.832ZM133.347 478.376C133.579 478.244 133.863 478.178 134.199 478.178C134.427 478.178 134.632 478.227 134.815 478.324C134.999 478.421 135.148 478.553 135.267 478.72C135.385 478.886 135.451 479.075 135.466 479.285V479.331H132.693C132.724 479.197 132.763 479.072 132.817 478.959C132.938 478.703 133.115 478.508 133.347 478.376Z" fill="white"/>
<path d="M140.821 483.174C140.243 483.174 139.725 483.033 139.268 482.754C138.811 482.474 138.451 482.094 138.189 481.612C137.927 481.13 137.795 480.583 137.795 479.969C137.795 479.355 137.927 478.808 138.189 478.327C138.451 477.845 138.812 477.464 139.268 477.185C139.724 476.905 140.243 476.765 140.821 476.765C141.361 476.765 141.856 476.866 142.305 477.068C142.754 477.27 143.104 477.55 143.356 477.907L142.465 479.001C142.358 478.854 142.225 478.719 142.065 478.599C141.905 478.479 141.732 478.384 141.545 478.314C141.359 478.243 141.166 478.209 140.968 478.209C140.655 478.209 140.38 478.285 140.14 478.436C139.9 478.587 139.712 478.795 139.574 479.059C139.438 479.323 139.369 479.627 139.369 479.968C139.369 480.309 139.439 480.589 139.58 480.853C139.721 481.117 139.914 481.326 140.156 481.482C140.4 481.638 140.674 481.715 140.978 481.715C141.177 481.715 141.363 481.688 141.538 481.634C141.713 481.58 141.879 481.494 142.035 481.379C142.191 481.262 142.333 481.123 142.463 480.959L143.342 482.054C143.091 482.389 142.734 482.659 142.274 482.864C141.813 483.07 141.328 483.172 140.817 483.172L140.821 483.174Z" fill="white"/>
<path d="M153.359 476.582C153.359 476.435 153.382 476.312 153.427 476.215C153.473 476.117 153.543 476.043 153.638 475.993C153.734 475.944 153.853 475.917 153.999 475.917C154.083 475.917 154.176 475.939 154.279 475.982C154.381 476.024 154.483 476.077 154.581 476.139L155.06 474.916C154.892 474.768 154.69 474.649 154.455 474.56C154.219 474.471 153.967 474.426 153.701 474.426C153.306 474.426 152.961 474.515 152.668 474.693C152.376 474.872 152.145 475.117 151.978 475.427C151.81 475.738 151.727 476.084 151.727 476.464V477.047H150.825V478.445H151.727V483.058H153.36V478.445H154.661V477.047H153.36V476.581L153.359 476.582Z" fill="white"/>
<path d="M156.794 475.639C157.098 475.639 157.34 475.553 157.519 475.383C157.698 475.212 157.787 474.995 157.787 474.731C157.787 474.452 157.7 474.233 157.525 474.074C157.35 473.914 157.106 473.834 156.794 473.834C156.481 473.834 156.248 473.918 156.068 474.084C155.89 474.251 155.8 474.467 155.8 474.73C155.8 475.018 155.888 475.24 156.063 475.4C156.238 475.559 156.481 475.639 156.794 475.639ZM155.995 483.059H157.617V476.897H155.995V483.059Z" fill="white"/>
<path d="M149.7 477.893C149.543 477.516 149.311 477.235 149.003 477.048C148.696 476.861 148.313 476.769 147.856 476.769C147.521 476.769 147.202 476.839 146.896 476.978C146.592 477.118 146.331 477.303 146.114 477.531C146.066 477.581 146.024 477.633 145.982 477.686V474.44H144.383V483.058H146.005V479.354C146.005 479.191 146.038 479.04 146.102 478.9C146.166 478.761 146.254 478.636 146.364 478.528C146.475 478.42 146.608 478.335 146.764 478.277C146.921 478.219 147.09 478.19 147.273 478.19C147.501 478.183 147.694 478.221 147.85 478.307C148.006 478.392 148.122 478.528 148.199 478.715C148.275 478.901 148.313 479.133 148.313 479.413V483.058H149.935V479.284C149.935 478.734 149.857 478.27 149.701 477.893H149.7Z" fill="white"/>
<path d="M164.393 477.893C164.237 477.516 164.005 477.235 163.697 477.049C163.389 476.862 163.007 476.769 162.55 476.769C162.215 476.769 161.896 476.839 161.59 476.978C161.286 477.119 161.025 477.303 160.808 477.531C160.754 477.587 160.705 477.646 160.66 477.705L160.63 476.898H159.077V483.059H160.699V479.355C160.699 479.192 160.732 479.041 160.796 478.901C160.86 478.761 160.948 478.636 161.058 478.528C161.169 478.42 161.302 478.336 161.458 478.277C161.615 478.219 161.784 478.19 161.967 478.19C162.195 478.183 162.388 478.221 162.544 478.307C162.7 478.393 162.816 478.528 162.893 478.715C162.968 478.902 163.007 479.134 163.007 479.413V483.059H164.629V479.285C164.629 478.734 164.551 478.27 164.395 477.893H164.393Z" fill="white"/>
<path d="M183.757 476.896H182.512V475.335H180.89V476.896H179.76V478.376H180.89V483.058H182.512V478.376H183.757V476.896Z" fill="white"/>
<path d="M185.744 475.639C186.048 475.639 186.289 475.553 186.469 475.383C186.647 475.212 186.737 474.995 186.737 474.731C186.737 474.452 186.65 474.233 186.475 474.074C186.3 473.914 186.056 473.834 185.744 473.834C185.431 473.834 185.197 473.918 185.018 474.084C184.84 474.251 184.75 474.467 184.75 474.73C184.75 475.018 184.837 475.24 185.012 475.4C185.187 475.559 185.431 475.639 185.744 475.639ZM184.945 483.059H186.567V476.897H184.945V483.059Z" fill="white"/>
<path d="M204.547 483.174C203.983 483.174 203.483 483.078 203.045 482.888C202.607 482.698 202.255 482.436 201.988 482.102L203.005 481.217C203.234 481.473 203.493 481.658 203.782 481.77C204.071 481.883 204.36 481.939 204.649 481.939C204.764 481.939 204.869 481.926 204.963 481.898C205.059 481.871 205.14 481.833 205.209 481.782C205.278 481.732 205.329 481.669 205.363 481.595C205.397 481.521 205.414 481.442 205.414 481.356C205.414 481.185 205.345 481.053 205.209 480.96C205.133 480.914 205.015 480.861 204.855 480.803C204.695 480.745 204.49 480.681 204.238 480.61C203.849 480.509 203.521 480.391 203.25 480.255C202.979 480.119 202.765 479.966 202.605 479.794C202.468 479.631 202.364 479.454 202.291 479.264C202.219 479.074 202.183 478.862 202.183 478.629C202.183 478.349 202.244 478.095 202.366 477.866C202.487 477.638 202.658 477.442 202.875 477.278C203.091 477.115 203.341 476.989 203.622 476.899C203.903 476.81 204.2 476.765 204.513 476.765C204.825 476.765 205.13 476.804 205.426 476.881C205.723 476.959 205.998 477.069 206.254 477.213C206.509 477.357 206.732 477.526 206.922 477.72L206.054 478.699C205.917 478.567 205.763 478.447 205.592 478.337C205.42 478.229 205.243 478.143 205.061 478.082C204.878 478.02 204.715 477.989 204.57 477.989C204.441 477.989 204.325 478.001 204.221 478.023C204.119 478.047 204.032 478.084 203.965 478.134C203.896 478.185 203.845 478.245 203.811 478.315C203.777 478.385 203.76 478.462 203.76 478.548C203.76 478.633 203.781 478.714 203.823 478.793C203.865 478.87 203.923 478.937 204 478.99C204.084 479.037 204.207 479.091 204.371 479.153C204.534 479.215 204.757 479.285 205.039 479.363C205.404 479.464 205.714 479.577 205.969 479.7C206.225 479.825 206.428 479.968 206.58 480.131C206.71 480.27 206.804 480.43 206.866 480.608C206.927 480.786 206.957 480.985 206.957 481.201C206.957 481.582 206.852 481.92 206.643 482.215C206.433 482.51 206.147 482.743 205.782 482.913C205.417 483.084 205.005 483.169 204.548 483.169L204.547 483.174Z" fill="white"/>
<path d="M171.892 476.804C171.771 476.78 171.645 476.769 171.516 476.769C171.211 476.769 170.92 476.843 170.642 476.99C170.365 477.138 170.122 477.341 169.917 477.602C169.842 477.697 169.777 477.797 169.718 477.899L169.688 476.896H168.125V483.058H169.757V479.866C169.757 479.672 169.79 479.494 169.854 479.331C169.918 479.168 170.008 479.027 170.122 478.906C170.237 478.786 170.372 478.694 170.528 478.627C170.684 478.562 170.853 478.528 171.036 478.528C171.174 478.528 171.308 478.546 171.442 478.581C171.575 478.615 171.684 478.657 171.768 478.703L172.201 476.886C172.117 476.855 172.015 476.827 171.894 476.804H171.892Z" fill="white"/>
<path d="M177.077 476.896V477.714C176.96 477.551 176.829 477.4 176.671 477.27C176.485 477.114 176.268 476.992 176.02 476.902C175.773 476.813 175.5 476.768 175.204 476.768C174.679 476.768 174.211 476.903 173.8 477.176C173.389 477.448 173.063 477.824 172.824 478.306C172.584 478.787 172.464 479.338 172.464 479.96C172.464 480.582 172.582 481.133 172.818 481.615C173.054 482.096 173.373 482.477 173.778 482.756C174.182 483.036 174.634 483.176 175.137 483.176C175.418 483.176 175.685 483.131 175.937 483.042C176.187 482.953 176.415 482.833 176.616 482.68C176.788 482.552 176.931 482.404 177.056 482.244V483.059H178.688V476.897H177.078L177.077 476.896ZM176.911 480.897C176.785 481.165 176.608 481.373 176.381 481.521C176.152 481.668 175.886 481.742 175.581 481.742C175.275 481.742 175.023 481.668 174.798 481.521C174.573 481.373 174.397 481.165 174.268 480.897C174.138 480.63 174.074 480.317 174.074 479.96C174.074 479.603 174.138 479.303 174.268 479.039C174.397 478.775 174.575 478.567 174.798 478.416C175.022 478.265 175.283 478.189 175.581 478.189C175.878 478.189 176.152 478.265 176.381 478.416C176.609 478.567 176.787 478.775 176.911 479.039C177.037 479.303 177.1 479.61 177.1 479.96C177.1 480.31 177.037 480.63 176.911 480.897Z" fill="white"/>
<path d="M193.36 477.893C193.204 477.516 192.972 477.235 192.664 477.049C192.356 476.862 191.974 476.769 191.517 476.769C191.182 476.769 190.863 476.839 190.557 476.978C190.253 477.119 189.992 477.303 189.775 477.531C189.721 477.587 189.672 477.646 189.627 477.705L189.597 476.898H188.044V483.059H189.666V479.355C189.666 479.192 189.699 479.041 189.763 478.901C189.827 478.761 189.915 478.636 190.025 478.528C190.136 478.42 190.269 478.336 190.425 478.277C190.582 478.219 190.751 478.19 190.934 478.19C191.162 478.183 191.355 478.221 191.511 478.307C191.667 478.393 191.783 478.528 191.86 478.715C191.935 478.902 191.974 479.134 191.974 479.413V483.059H193.596V479.285C193.596 478.734 193.518 478.27 193.362 477.893H193.36Z" fill="white"/>
<path d="M199.513 476.896L199.489 477.614C199.426 477.541 199.358 477.471 199.278 477.403C199.137 477.283 198.978 477.174 198.799 477.077C198.621 476.98 198.426 476.904 198.217 476.85C198.007 476.795 197.789 476.768 197.561 476.768C197.013 476.768 196.523 476.906 196.094 477.182C195.663 477.457 195.325 477.833 195.078 478.311C194.831 478.788 194.707 479.334 194.707 479.948C194.707 480.562 194.833 481.101 195.084 481.567C195.335 482.033 195.677 482.398 196.111 482.661C196.545 482.925 197.039 483.057 197.596 483.057C197.93 483.057 198.252 482.993 198.56 482.865C198.868 482.736 199.127 482.566 199.337 482.352C199.376 482.312 199.411 482.269 199.445 482.226V482.66C199.445 483.032 199.38 483.343 199.25 483.591C199.121 483.84 198.929 484.027 198.674 484.15C198.419 484.274 198.094 484.337 197.698 484.337C197.47 484.337 197.247 484.313 197.03 484.267C196.813 484.221 196.606 484.154 196.407 484.07C196.209 483.984 196.034 483.888 195.883 483.778L195.301 484.954C195.598 485.188 195.978 485.376 196.442 485.519C196.907 485.663 197.379 485.735 197.858 485.735C198.337 485.735 198.8 485.665 199.2 485.525C199.6 485.385 199.938 485.182 200.217 484.914C200.495 484.646 200.706 484.318 200.85 483.93C200.995 483.541 201.067 483.095 201.067 482.591V476.896H199.514H199.513ZM199.296 480.891C199.166 481.155 198.982 481.361 198.742 481.509C198.502 481.656 198.222 481.73 197.902 481.73C197.583 481.73 197.316 481.656 197.08 481.509C196.845 481.361 196.659 481.153 196.526 480.885C196.393 480.618 196.327 480.309 196.327 479.96C196.327 479.612 196.393 479.314 196.526 479.045C196.659 478.778 196.845 478.567 197.08 478.416C197.316 478.265 197.59 478.189 197.902 478.189C198.215 478.189 198.502 478.263 198.742 478.41C198.982 478.558 199.166 478.766 199.296 479.033C199.425 479.301 199.491 479.61 199.491 479.959C199.491 480.307 199.425 480.627 199.296 480.89V480.891Z" fill="white"/>
</g>
<rect width="8" height="10" transform="translate(236 475)" fill="#F6F7FC"/>
<path d="M236.5 480L244 475.67V484.33L236.5 480Z" fill="#003477"/>
<rect width="8" height="10" transform="translate(76 485) rotate(-180)" fill="#F6F7FC"/>
<path d="M75.5 480L68 484.33L68 475.67L75.5 480Z" fill="#003477"/>
</g>
<rect width="48" height="48" transform="translate(33 146)" fill="#F7F8FC"/>
<rect x="48" y="150" width="18" height="18" rx="9" fill="#003477"/>
<path d="M57.0938 163.117C55.3359 163.105 53.6719 162.062 53.6719 158.957C53.6719 156.098 55.043 154.398 57.1641 154.398C58.875 154.398 60.0352 155.477 60.2109 156.871H58.4766C58.3359 156.273 57.8438 155.91 57.1641 155.91C56.0156 155.91 55.4062 156.953 55.3945 158.617H55.4766C55.8633 157.867 56.707 157.422 57.6445 157.422C59.168 157.422 60.3047 158.57 60.3047 160.164C60.3047 161.887 59.0039 163.129 57.0938 163.117ZM57.082 161.723C57.9492 161.723 58.5938 161.066 58.5938 160.211C58.5938 159.367 57.9727 158.699 57.1055 158.699C56.2383 158.699 55.582 159.379 55.5703 160.211C55.582 161.043 56.2148 161.723 57.082 161.723Z" fill="white"/>
<path d="M43.1816 174.704V186.079H42.0264V180.201H40.5537V185.495H39.4492V174.933H40.5537V179.211H42.0264V174.704H43.1816ZM38.0654 176.075V177.053H35.0059V182.321C36.4023 182.309 37.4561 182.245 38.6748 182.017L38.7637 183.007C37.3926 183.286 36.2246 183.337 34.5615 183.35H33.7998V176.075H38.0654ZM54.8837 179.693V180.595H50.3007V181.547H53.5887V184.111H46.9618V185.051H53.9061V185.965H45.7811V183.273H52.3954V182.423H45.7684V181.547H49.1073V180.595H44.537V179.693H54.8837ZM50.3007 174.653V175.656H53.8554V176.583H50.4022C50.6307 177.548 52.1732 178.221 54.3759 178.335L54.0077 179.249C52.0272 179.109 50.4149 178.525 49.704 177.522C48.993 178.525 47.3807 179.109 45.3876 179.249L45.0448 178.335C47.2284 178.221 48.7645 177.548 49.0184 176.583H45.5653V175.656H49.1073V174.653H50.3007ZM68.0934 174.704V180.557H66.9V174.704H68.0934ZM68.1061 181.103V183.946H61.8346V185H68.487V185.965H60.6666V183.032H66.9127V182.055H60.6286V181.103H68.1061ZM62.8121 175.885C62.7995 177.408 63.9039 178.792 65.6432 179.338L65.0465 180.277C63.7199 179.846 62.7233 178.944 62.2155 177.789C61.695 179.033 60.6793 180.023 59.3209 180.493L58.7116 179.541C60.4889 178.944 61.5807 177.459 61.5807 175.885V175.009H62.8121V175.885ZM79.478 174.704V181.877H78.3355V178.703H77.0152V181.483H75.8853V174.92H77.0152V177.713H78.3355V174.704H79.478ZM75.4663 175.999V176.951H69.7154V175.999H72.0132V174.793H73.2066V175.999H75.4663ZM72.5972 177.484C74.0445 177.484 75.0601 178.259 75.0601 179.439C75.0601 180.62 74.0445 181.395 72.5972 181.395C71.1753 181.395 70.1597 180.62 70.1597 179.439C70.1597 178.259 71.1753 177.484 72.5972 177.484ZM72.5972 178.373C71.7974 178.373 71.2388 178.792 71.2388 179.439C71.2388 180.087 71.7974 180.519 72.5972 180.519C73.4224 180.519 73.9683 180.087 73.9683 179.439C73.9683 178.792 73.4224 178.373 72.5972 178.373ZM75.6695 182.042C78.0816 182.042 79.5288 182.766 79.5415 184.061C79.5288 185.33 78.0816 186.066 75.6695 186.054C73.2573 186.066 71.8101 185.33 71.8228 184.061C71.8101 182.766 73.2573 182.042 75.6695 182.042ZM75.6695 182.969C73.981 182.969 73.0034 183.35 73.0161 184.061C73.0034 184.746 73.981 185.14 75.6695 185.127C77.3706 185.14 78.3228 184.746 78.3355 184.061C78.3228 183.35 77.3706 182.969 75.6695 182.969Z" fill="#222222"/>
<path d="M43.1816 174.704V186.079H42.0264V180.201H40.5537V185.495H39.4492V174.933H40.5537V179.211H42.0264V174.704H43.1816ZM38.0654 176.075V177.053H35.0059V182.321C36.4023 182.309 37.4561 182.245 38.6748 182.017L38.7637 183.007C37.3926 183.286 36.2246 183.337 34.5615 183.35H33.7998V176.075H38.0654ZM54.8837 179.693V180.595H50.3007V181.547H53.5887V184.111H46.9618V185.051H53.9061V185.965H45.7811V183.273H52.3954V182.423H45.7684V181.547H49.1073V180.595H44.537V179.693H54.8837ZM50.3007 174.653V175.656H53.8554V176.583H50.4022C50.6307 177.548 52.1732 178.221 54.3759 178.335L54.0077 179.249C52.0272 179.109 50.4149 178.525 49.704 177.522C48.993 178.525 47.3807 179.109 45.3876 179.249L45.0448 178.335C47.2284 178.221 48.7645 177.548 49.0184 176.583H45.5653V175.656H49.1073V174.653H50.3007ZM68.0934 174.704V180.557H66.9V174.704H68.0934ZM68.1061 181.103V183.946H61.8346V185H68.487V185.965H60.6666V183.032H66.9127V182.055H60.6286V181.103H68.1061ZM62.8121 175.885C62.7995 177.408 63.9039 178.792 65.6432 179.338L65.0465 180.277C63.7199 179.846 62.7233 178.944 62.2155 177.789C61.695 179.033 60.6793 180.023 59.3209 180.493L58.7116 179.541C60.4889 178.944 61.5807 177.459 61.5807 175.885V175.009H62.8121V175.885ZM79.478 174.704V181.877H78.3355V178.703H77.0152V181.483H75.8853V174.92H77.0152V177.713H78.3355V174.704H79.478ZM75.4663 175.999V176.951H69.7154V175.999H72.0132V174.793H73.2066V175.999H75.4663ZM72.5972 177.484C74.0445 177.484 75.0601 178.259 75.0601 179.439C75.0601 180.62 74.0445 181.395 72.5972 181.395C71.1753 181.395 70.1597 180.62 70.1597 179.439C70.1597 178.259 71.1753 177.484 72.5972 177.484ZM72.5972 178.373C71.7974 178.373 71.2388 178.792 71.2388 179.439C71.2388 180.087 71.7974 180.519 72.5972 180.519C73.4224 180.519 73.9683 180.087 73.9683 179.439C73.9683 178.792 73.4224 178.373 72.5972 178.373ZM75.6695 182.042C78.0816 182.042 79.5288 182.766 79.5415 184.061C79.5288 185.33 78.0816 186.066 75.6695 186.054C73.2573 186.066 71.8101 185.33 71.8228 184.061C71.8101 182.766 73.2573 182.042 75.6695 182.042ZM75.6695 182.969C73.981 182.969 73.0034 183.35 73.0161 184.061C73.0034 184.746 73.981 185.14 75.6695 185.127C77.3706 185.14 78.3228 184.746 78.3355 184.061C78.3228 183.35 77.3706 182.969 75.6695 182.969Z" fill="#003477"/>
<rect width="45" height="48" transform="translate(233 146)" fill="#F7F8FC"/>
<rect x="246.5" y="150" width="18" height="18" rx="9" fill="#003477"/>
<path d="M253.045 163L256.619 156.016V155.957H252.459V154.516H258.447V155.98L254.873 163H253.045Z" fill="white"/>
<path d="M243.182 174.704V186.079H242.026V180.201H240.554V185.495H239.449V174.933H240.554V179.211H242.026V174.704H243.182ZM238.065 176.075V177.053H235.006V182.321C236.402 182.309 237.456 182.245 238.675 182.017L238.764 183.007C237.393 183.286 236.225 183.337 234.562 183.35H233.8V176.075H238.065ZM253.614 175.275V176.139C253.614 177.034 253.614 178.049 253.322 179.427H254.934V180.417H244.524V179.427H252.103C252.408 178.1 252.421 177.129 252.421 176.266H245.832V175.275H253.614ZM253.627 181.864V185.939H245.794V181.864H253.627ZM246.974 182.816V184.962H252.433V182.816H246.974ZM259.552 176.52C259.552 178.018 260.594 179.401 262.295 179.96L261.647 180.912C260.403 180.474 259.47 179.585 258.981 178.462C258.48 179.738 257.515 180.734 256.188 181.229L255.541 180.265C257.318 179.63 258.346 178.119 258.359 176.418V175.301H259.552V176.52ZM264.567 174.704V177.561H266.218V178.576H264.567V181.572H263.361V174.704H264.567ZM260.898 181.839C263.234 181.839 264.669 182.613 264.669 183.946C264.669 185.292 263.234 186.066 260.898 186.054C258.537 186.066 257.077 185.292 257.077 183.946C257.077 182.613 258.537 181.839 260.898 181.839ZM260.898 182.791C259.248 182.791 258.27 183.223 258.283 183.946C258.27 184.695 259.248 185.102 260.898 185.114C262.536 185.102 263.488 184.695 263.488 183.946C263.488 183.223 262.536 182.791 260.898 182.791ZM275.685 174.704V178.602H277.31V179.604H275.685V183.591H274.479V174.704H275.685ZM276.091 184.86V185.838H268.335V182.994H269.541V184.86H276.091ZM266.659 181.382C267.535 181.382 268.557 181.375 269.63 181.331V180.544C268.335 180.404 267.509 179.776 267.522 178.843C267.509 177.738 268.589 177.078 270.226 177.091C271.851 177.078 272.93 177.738 272.93 178.843C272.93 179.77 272.118 180.398 270.836 180.544V181.28C271.851 181.223 272.88 181.134 273.832 180.988L273.933 181.839C271.508 182.296 268.766 182.334 266.786 182.347L266.659 181.382ZM273.514 175.758V176.646H266.951V175.758H269.63V174.666H270.836V175.758H273.514ZM270.226 177.916C269.249 177.916 268.665 178.259 268.665 178.843C268.665 179.401 269.249 179.744 270.226 179.744C271.191 179.744 271.775 179.401 271.775 178.843C271.775 178.259 271.191 177.916 270.226 177.916Z" fill="#222222"/>
<path d="M243.182 174.704V186.079H242.026V180.201H240.554V185.495H239.449V174.933H240.554V179.211H242.026V174.704H243.182ZM238.065 176.075V177.053H235.006V182.321C236.402 182.309 237.456 182.245 238.675 182.017L238.764 183.007C237.393 183.286 236.225 183.337 234.562 183.35H233.8V176.075H238.065ZM253.614 175.275V176.139C253.614 177.034 253.614 178.049 253.322 179.427H254.934V180.417H244.524V179.427H252.103C252.408 178.1 252.421 177.129 252.421 176.266H245.832V175.275H253.614ZM253.627 181.864V185.939H245.794V181.864H253.627ZM246.974 182.816V184.962H252.433V182.816H246.974ZM259.552 176.52C259.552 178.018 260.594 179.401 262.295 179.96L261.647 180.912C260.403 180.474 259.47 179.585 258.981 178.462C258.48 179.738 257.515 180.734 256.188 181.229L255.541 180.265C257.318 179.63 258.346 178.119 258.359 176.418V175.301H259.552V176.52ZM264.567 174.704V177.561H266.218V178.576H264.567V181.572H263.361V174.704H264.567ZM260.898 181.839C263.234 181.839 264.669 182.613 264.669 183.946C264.669 185.292 263.234 186.066 260.898 186.054C258.537 186.066 257.077 185.292 257.077 183.946C257.077 182.613 258.537 181.839 260.898 181.839ZM260.898 182.791C259.248 182.791 258.27 183.223 258.283 183.946C258.27 184.695 259.248 185.102 260.898 185.114C262.536 185.102 263.488 184.695 263.488 183.946C263.488 183.223 262.536 182.791 260.898 182.791ZM275.685 174.704V178.602H277.31V179.604H275.685V183.591H274.479V174.704H275.685ZM276.091 184.86V185.838H268.335V182.994H269.541V184.86H276.091ZM266.659 181.382C267.535 181.382 268.557 181.375 269.63 181.331V180.544C268.335 180.404 267.509 179.776 267.522 178.843C267.509 177.738 268.589 177.078 270.226 177.091C271.851 177.078 272.93 177.738 272.93 178.843C272.93 179.77 272.118 180.398 270.836 180.544V181.28C271.851 181.223 272.88 181.134 273.832 180.988L273.933 181.839C271.508 182.296 268.766 182.334 266.786 182.347L266.659 181.382ZM273.514 175.758V176.646H266.951V175.758H269.63V174.666H270.836V175.758H273.514ZM270.226 177.916C269.249 177.916 268.665 178.259 268.665 178.843C268.665 179.401 269.249 179.744 270.226 179.744C271.191 179.744 271.775 179.401 271.775 178.843C271.775 178.259 271.191 177.916 270.226 177.916Z" fill="#003477"/>
<rect x="208.75" y="51.75" width="102.5" height="69.5" rx="11.25" fill="white"/>
<rect x="208.75" y="51.75" width="102.5" height="69.5" rx="11.25" stroke="#003477" stroke-width="1.5"/>
<path d="M238.485 71.377V72.8535H241.028V71.377H242.778V76.8047H236.749V71.377H238.485ZM238.485 75.4375H241.028V74.166H238.485V75.4375ZM246.251 70.8164V73.2363H247.933V74.6445H246.251V77.1465H244.501V70.8164H246.251ZM246.251 77.6113V80.9883H239.73V81.7949H246.606V83.1758H238.021V79.7441H244.515V78.9648H237.993V77.6113H246.251ZM259.687 77.6797V79.0742H254.847V83.2578H253.125V79.0742H248.34V77.6797H259.687ZM258.675 71.4727V72.8398H255.052C255.223 74.0566 256.597 75.2803 259.154 75.5879L258.525 76.9551C256.338 76.6611 254.772 75.7246 254.027 74.4395C253.261 75.7246 251.71 76.6611 249.543 76.9551L248.9 75.5879C251.416 75.2803 252.803 74.0566 253.002 72.8398H249.365V71.4727H258.675ZM270.758 70.8164V83.2578H268.994V70.8164H270.758ZM267.026 72.1152C267.026 75.8887 265.7 79.0195 261.256 81.125L260.34 79.7305C263.553 78.2129 264.968 76.2441 265.248 73.4824H261.01V72.1152H267.026ZM275.731 71.3496C277.324 71.3359 278.589 72.2451 278.931 73.5781H281.009V70.8164H282.745V77.502H281.009V74.9727H278.944C278.616 76.3398 277.338 77.2695 275.731 77.2695C273.817 77.2695 272.409 76.0254 272.423 74.2891C272.409 72.5801 273.817 71.3359 275.731 71.3496ZM275.731 72.7988C274.761 72.7852 274.063 73.3594 274.077 74.2891C274.063 75.2188 274.761 75.8066 275.731 75.8066C276.675 75.8066 277.358 75.2188 277.358 74.2891C277.358 73.3594 276.675 72.7852 275.731 72.7988ZM276.169 78.0488V79.252H281.009V78.0488H282.745V83.1211H274.446V78.0488H276.169ZM276.169 81.7129H281.009V80.5918H276.169V81.7129Z" fill="#222222"/>
<path d="M238.485 71.377V72.8535H241.028V71.377H242.778V76.8047H236.749V71.377H238.485ZM238.485 75.4375H241.028V74.166H238.485V75.4375ZM246.251 70.8164V73.2363H247.933V74.6445H246.251V77.1465H244.501V70.8164H246.251ZM246.251 77.6113V80.9883H239.73V81.7949H246.606V83.1758H238.021V79.7441H244.515V78.9648H237.993V77.6113H246.251ZM259.687 77.6797V79.0742H254.847V83.2578H253.125V79.0742H248.34V77.6797H259.687ZM258.675 71.4727V72.8398H255.052C255.223 74.0566 256.597 75.2803 259.154 75.5879L258.525 76.9551C256.338 76.6611 254.772 75.7246 254.027 74.4395C253.261 75.7246 251.71 76.6611 249.543 76.9551L248.9 75.5879C251.416 75.2803 252.803 74.0566 253.002 72.8398H249.365V71.4727H258.675ZM270.758 70.8164V83.2578H268.994V70.8164H270.758ZM267.026 72.1152C267.026 75.8887 265.7 79.0195 261.256 81.125L260.34 79.7305C263.553 78.2129 264.968 76.2441 265.248 73.4824H261.01V72.1152H267.026ZM275.731 71.3496C277.324 71.3359 278.589 72.2451 278.931 73.5781H281.009V70.8164H282.745V77.502H281.009V74.9727H278.944C278.616 76.3398 277.338 77.2695 275.731 77.2695C273.817 77.2695 272.409 76.0254 272.423 74.2891C272.409 72.5801 273.817 71.3359 275.731 71.3496ZM275.731 72.7988C274.761 72.7852 274.063 73.3594 274.077 74.2891C274.063 75.2188 274.761 75.8066 275.731 75.8066C276.675 75.8066 277.358 75.2188 277.358 74.2891C277.358 73.3594 276.675 72.7852 275.731 72.7988ZM276.169 78.0488V79.252H281.009V78.0488H282.745V83.1211H274.446V78.0488H276.169ZM276.169 81.7129H281.009V80.5918H276.169V81.7129Z" fill="#003477"/>
<path d="M226.773 91.4961V101.996H225.706V96.5703H224.347V101.457H223.328V91.707H224.347V95.6562H225.706V91.4961H226.773ZM222.05 92.7617V93.6641H219.226V98.5273C220.515 98.5156 221.488 98.457 222.613 98.2461L222.695 99.1602C221.429 99.418 220.351 99.4648 218.816 99.4766H218.113V92.7617H222.05Z" fill="#7B7B7B"/>
<path d="M231 98.1172C230.543 98.1172 230.156 97.7422 230.168 97.2852C230.156 96.8281 230.543 96.4531 231 96.4531C231.445 96.4531 231.832 96.8281 231.832 97.2852C231.832 97.7422 231.445 98.1172 231 98.1172Z" fill="#7B7B7B"/>
<path d="M244.15 96.3594V97.2617H239.908V98.2695C241.835 98.375 242.978 99.0254 242.978 100.121C242.978 101.316 241.619 101.984 239.357 101.973C237.072 101.984 235.712 101.316 235.712 100.121C235.712 99.0254 236.855 98.375 238.806 98.2695V97.2617H234.576V96.3594H244.15ZM239.357 99.1133C237.751 99.1133 236.837 99.4766 236.837 100.121C236.837 100.754 237.751 101.129 239.357 101.117C240.939 101.129 241.865 100.754 241.865 100.121C241.865 99.4766 240.939 99.1133 239.357 99.1133ZM243.294 91.9766V92.8672H240.107C240.265 93.8809 241.742 94.7422 243.658 94.9297L243.259 95.8086C241.443 95.5977 239.937 94.8301 239.369 93.7109C238.783 94.8301 237.283 95.5977 235.466 95.8086L235.08 94.9297C236.966 94.7422 238.449 93.8809 238.607 92.8672H235.455V91.9766H243.294ZM253.581 91.5078V99.3008H252.467V96.8867H249.784V95.9727H252.467V94.5312H249.936C249.18 96.166 247.604 97.3965 245.471 98.0703L244.991 97.1914C247.381 96.418 248.963 94.9941 249.198 93.207H245.53V92.3164H250.405C250.405 92.7734 250.346 93.2129 250.241 93.6289H252.467V91.5078H253.581ZM253.85 100.871V101.773H246.819V98.5273H247.944V100.871H253.85Z" fill="#7B7B7B"/>
<path d="M258 98.1172C257.543 98.1172 257.156 97.7422 257.168 97.2852C257.156 96.8281 257.543 96.4531 258 96.4531C258.445 96.4531 258.832 96.8281 258.832 97.2852C258.832 97.7422 258.445 98.1172 258 98.1172Z" fill="#7B7B7B"/>
<path d="M271.422 97.4609V98.3867H267.133V101.996H266.043V98.3867H261.813V97.4609H271.422ZM266.594 91.8945C268.809 91.8945 270.332 92.7969 270.332 94.2266C270.332 95.6445 268.809 96.5352 266.594 96.5352C264.368 96.5352 262.856 95.6445 262.856 94.2266C262.856 92.7969 264.368 91.8945 266.594 91.8945ZM266.594 92.7852C265.035 92.7969 263.993 93.3359 264.004 94.2266C263.993 95.1055 265.035 95.6445 266.594 95.6445C268.153 95.6445 269.196 95.1055 269.196 94.2266C269.196 93.3359 268.153 92.7969 266.594 92.7852ZM281.861 93.0664V93.9922H280.326V95.2812H281.861V96.207H280.326V97.8477H279.212V91.5078H280.326V93.0664H281.861ZM277.279 92.1406V95.082H273.623V96.3594C275.445 96.3535 276.734 96.2891 278.263 96.0312L278.38 96.9336C276.751 97.2266 275.369 97.2852 273.353 97.2734H272.509V94.2266H276.189V93.043H272.498V92.1406H277.279ZM276.927 98.1055C279.083 98.1055 280.419 98.832 280.419 100.051C280.419 101.27 279.083 101.973 276.927 101.973C274.736 101.973 273.4 101.27 273.4 100.051C273.4 98.832 274.736 98.1055 276.927 98.1055ZM276.927 98.9844C275.392 98.9844 274.49 99.3711 274.49 100.051C274.49 100.73 275.392 101.129 276.927 101.117C278.451 101.129 279.33 100.73 279.33 100.051C279.33 99.3711 278.451 98.9844 276.927 98.9844ZM291.901 96.3594V97.2617H287.659V98.2695C289.586 98.375 290.729 99.0254 290.729 100.121C290.729 101.316 289.37 101.984 287.108 101.973C284.823 101.984 283.463 101.316 283.463 100.121C283.463 99.0254 284.606 98.375 286.557 98.2695V97.2617H282.327V96.3594H291.901ZM287.108 99.1133C285.503 99.1133 284.588 99.4766 284.588 100.121C284.588 100.754 285.503 101.129 287.108 101.117C288.69 101.129 289.616 100.754 289.616 100.121C289.616 99.4766 288.69 99.1133 287.108 99.1133ZM291.045 91.9766V92.8672H287.858C288.016 93.8809 289.493 94.7422 291.409 94.9297L291.01 95.8086C289.194 95.5977 287.688 94.8301 287.12 93.7109C286.534 94.8301 285.034 95.5977 283.217 95.8086L282.831 94.9297C284.717 94.7422 286.2 93.8809 286.358 92.8672H283.206V91.9766H291.045ZM302.187 99.7461V100.66H292.578V99.7461H296.785V97.25H297.886V99.7461H302.187ZM297.91 92.9609C297.91 94.625 299.738 96.1836 301.765 96.5234L301.285 97.4375C299.586 97.0977 298.021 96.0488 297.324 94.6016C296.632 96.043 295.086 97.1094 293.398 97.4375L292.906 96.5234C294.922 96.1836 296.738 94.625 296.738 92.9609V92.1641H297.91V92.9609Z" fill="#7B7B7B"/>
<rect width="8" height="10" transform="translate(208 93) rotate(-180)" fill="#F6F7FC"/>
<path d="M207.5 88L200 92.3301L200 83.6698L207.5 88Z" fill="#003477"/>
<path d="M156 277L160.33 284.5L151.67 284.5L156 277ZM156 401L155.25 401L155.25 283.75L156 283.75L156.75 283.75L156.75 401L156 401Z" fill="#003477"/>
<rect width="166" height="28" transform="translate(73 301)" fill="#F7F8FC"/>
<rect x="73" y="306" width="18" height="18" rx="9" fill="#003477"/>
<path d="M82.0234 319.117C80.2539 319.117 78.9648 318.074 78.9297 316.609H80.6406C80.6758 317.277 81.2852 317.723 82.0234 317.723C82.9023 317.723 83.5234 317.102 83.5234 316.223C83.5234 315.32 82.8906 314.699 82 314.688C81.3672 314.688 80.9219 314.922 80.6641 315.402H79.0703L79.5273 310.516H84.7539V311.957H80.9805L80.7461 314.102H80.8164C81.1328 313.68 81.7656 313.387 82.5156 313.387C84.0742 313.387 85.2344 314.547 85.2344 316.176C85.2344 317.887 83.9336 319.117 82.0234 319.117Z" fill="white"/>
<path d="M101.146 310.885V317.207C102.313 317.188 103.418 317.112 104.675 316.852L104.84 317.88C103.354 318.185 102.098 318.248 100.688 318.248H99.9395V310.885H101.146ZM109.194 309.704V321.079H108.052V309.704H109.194ZM106.757 309.958V320.521H105.614V314.439H103.126V313.449H105.614V309.958H106.757ZM119.754 315.76V316.725H111.832V310.644H119.64V311.621H113.051V313.157H119.398V314.109H113.051V315.76H119.754ZM120.934 318.654V319.645H110.524V318.654H120.934ZM131.138 309.717V321.079H129.92V318.362H127.406V317.448H129.92V309.717H131.138ZM121.579 315.633C123.737 315.62 126.606 315.607 129.094 315.265L129.158 316.153C128.079 316.344 126.955 316.458 125.857 316.521V320.724H124.651V316.585C123.61 316.629 122.62 316.636 121.744 316.636L121.579 315.633ZM125.324 310.237C127 310.237 128.206 311.164 128.206 312.51C128.206 313.881 127 314.77 125.324 314.77C123.61 314.77 122.417 313.881 122.417 312.51C122.417 311.164 123.61 310.237 125.324 310.237ZM125.324 311.164C124.27 311.164 123.547 311.71 123.559 312.51C123.547 313.322 124.27 313.843 125.324 313.843C126.34 313.843 127.063 313.322 127.063 312.51C127.063 311.71 126.34 311.164 125.324 311.164ZM141.888 310.809V312.192C141.888 313.855 141.888 315.417 141.393 317.778L140.2 317.664C140.441 316.623 140.568 315.709 140.631 314.858L133.801 315.227L133.649 314.236L140.695 313.97C140.714 313.36 140.714 312.776 140.72 312.192V311.799H133.966V310.809H141.888ZM143.107 318.565V319.556H132.735V318.565H143.107ZM154.238 316.128V317.118H143.828V316.128H148.436V314.998H145.161V312.091H151.724V310.986H145.135V310.034H152.93V312.967H146.354V314.071H153.159V314.998H149.629V316.128H154.238ZM153.171 320.038V321.016H145.186V317.816H146.392V320.038H153.171ZM163.766 313.754V315.29H168.362V316.28H157.99V315.29H162.573V313.754H163.766ZM163.169 317.105C165.632 317.105 167.092 317.804 167.092 319.086C167.092 320.355 165.632 321.066 163.169 321.054C160.694 321.066 159.221 320.355 159.221 319.086C159.221 317.804 160.694 317.105 163.169 317.105ZM163.169 318.032C161.417 318.032 160.44 318.4 160.44 319.086C160.44 319.771 161.417 320.14 163.169 320.14C164.896 320.14 165.886 319.771 165.886 319.086C165.886 318.4 164.896 318.032 163.169 318.032ZM167.435 310.225V311.189H163.982C164.153 312.275 165.765 313.195 167.828 313.398L167.397 314.351C165.416 314.122 163.791 313.31 163.169 312.104C162.547 313.31 160.922 314.122 158.954 314.351L158.523 313.398C160.573 313.195 162.185 312.288 162.357 311.189H158.942V310.225H167.435ZM178.032 309.704V312.561H179.683V313.576H178.032V316.331H176.826V309.704H178.032ZM171.951 316.801V317.905H176.826V316.801H178.032V320.939H170.758V316.801H171.951ZM171.951 319.975H176.826V318.845H171.951V319.975ZM175.887 310.821V311.786H169.108V310.821H171.901V309.603H173.107V310.821H175.887ZM172.497 312.256C174.135 312.256 175.252 313.03 175.252 314.249C175.252 315.455 174.135 316.255 172.497 316.242C170.834 316.255 169.73 315.455 169.73 314.249C169.73 313.03 170.834 312.256 172.497 312.256ZM172.497 313.157C171.532 313.145 170.885 313.589 170.898 314.249C170.885 314.922 171.532 315.354 172.497 315.354C173.462 315.354 174.11 314.922 174.122 314.249C174.11 313.589 173.462 313.145 172.497 313.157ZM186.573 310.529V311.507H185.481V314.947C185.964 314.909 186.427 314.865 186.878 314.808L186.929 315.722C184.745 316.064 182.193 316.103 180.365 316.103L180.213 315.1L181.597 315.087V311.507H180.53V310.529H186.573ZM189.684 309.704V316.699H188.478V314.719H186.738V313.754H188.478V312.649H186.738V311.685H188.478V309.704H189.684ZM185.875 316.915C188.274 316.915 189.722 317.664 189.722 318.997C189.722 320.292 188.274 321.066 185.875 321.054C183.476 321.066 182.016 320.292 182.028 318.997C182.016 317.664 183.476 316.915 185.875 316.915ZM185.875 317.854C184.199 317.854 183.222 318.261 183.222 318.997C183.222 319.721 184.199 320.127 185.875 320.127C187.538 320.127 188.528 319.721 188.528 318.997C188.528 318.261 187.538 317.854 185.875 317.854ZM182.765 315.074C183.279 315.062 183.799 315.042 184.326 315.011V311.507H182.765V315.074ZM200.167 309.704V314.236H201.932V315.239H200.167V321.066H198.961V309.704H200.167ZM197.196 310.897C197.184 314.186 195.736 317.118 191.991 318.972L191.318 318.032C194.168 316.61 195.717 314.554 195.965 311.9H191.89V310.897H197.196ZM215.865 318.667V319.67H205.455V318.667H210.038V316.331H206.648V310.479H207.854V312.434H213.44V310.479H214.633V316.331H211.231V318.667H215.865ZM207.854 315.354H213.44V313.411H207.854V315.354ZM225.764 310.796V311.913C225.764 313.322 225.764 314.896 225.333 317.22L224.114 317.093C224.558 314.896 224.558 313.284 224.558 311.913V311.773H217.652V310.796H225.764ZM226.932 318.54V319.543H216.56V318.54H220.508V314.528H221.702V318.54H226.932ZM231.766 312.599C231.766 314.681 232.934 316.75 234.673 317.537L233.937 318.502C232.642 317.854 231.671 316.566 231.169 315.011C230.668 316.648 229.671 318.032 228.364 318.718L227.602 317.74C229.367 316.902 230.547 314.706 230.547 312.599V310.656H231.766V312.599ZM237.149 309.704V321.104H235.956V314.465H233.416V313.487H235.956V309.704H237.149Z" fill="#222222"/>
<path d="M101.146 310.885V317.207C102.313 317.188 103.418 317.112 104.675 316.852L104.84 317.88C103.354 318.185 102.098 318.248 100.688 318.248H99.9395V310.885H101.146ZM109.194 309.704V321.079H108.052V309.704H109.194ZM106.757 309.958V320.521H105.614V314.439H103.126V313.449H105.614V309.958H106.757ZM119.754 315.76V316.725H111.832V310.644H119.64V311.621H113.051V313.157H119.398V314.109H113.051V315.76H119.754ZM120.934 318.654V319.645H110.524V318.654H120.934ZM131.138 309.717V321.079H129.92V318.362H127.406V317.448H129.92V309.717H131.138ZM121.579 315.633C123.737 315.62 126.606 315.607 129.094 315.265L129.158 316.153C128.079 316.344 126.955 316.458 125.857 316.521V320.724H124.651V316.585C123.61 316.629 122.62 316.636 121.744 316.636L121.579 315.633ZM125.324 310.237C127 310.237 128.206 311.164 128.206 312.51C128.206 313.881 127 314.77 125.324 314.77C123.61 314.77 122.417 313.881 122.417 312.51C122.417 311.164 123.61 310.237 125.324 310.237ZM125.324 311.164C124.27 311.164 123.547 311.71 123.559 312.51C123.547 313.322 124.27 313.843 125.324 313.843C126.34 313.843 127.063 313.322 127.063 312.51C127.063 311.71 126.34 311.164 125.324 311.164ZM141.888 310.809V312.192C141.888 313.855 141.888 315.417 141.393 317.778L140.2 317.664C140.441 316.623 140.568 315.709 140.631 314.858L133.801 315.227L133.649 314.236L140.695 313.97C140.714 313.36 140.714 312.776 140.72 312.192V311.799H133.966V310.809H141.888ZM143.107 318.565V319.556H132.735V318.565H143.107ZM154.238 316.128V317.118H143.828V316.128H148.436V314.998H145.161V312.091H151.724V310.986H145.135V310.034H152.93V312.967H146.354V314.071H153.159V314.998H149.629V316.128H154.238ZM153.171 320.038V321.016H145.186V317.816H146.392V320.038H153.171ZM163.766 313.754V315.29H168.362V316.28H157.99V315.29H162.573V313.754H163.766ZM163.169 317.105C165.632 317.105 167.092 317.804 167.092 319.086C167.092 320.355 165.632 321.066 163.169 321.054C160.694 321.066 159.221 320.355 159.221 319.086C159.221 317.804 160.694 317.105 163.169 317.105ZM163.169 318.032C161.417 318.032 160.44 318.4 160.44 319.086C160.44 319.771 161.417 320.14 163.169 320.14C164.896 320.14 165.886 319.771 165.886 319.086C165.886 318.4 164.896 318.032 163.169 318.032ZM167.435 310.225V311.189H163.982C164.153 312.275 165.765 313.195 167.828 313.398L167.397 314.351C165.416 314.122 163.791 313.31 163.169 312.104C162.547 313.31 160.922 314.122 158.954 314.351L158.523 313.398C160.573 313.195 162.185 312.288 162.357 311.189H158.942V310.225H167.435ZM178.032 309.704V312.561H179.683V313.576H178.032V316.331H176.826V309.704H178.032ZM171.951 316.801V317.905H176.826V316.801H178.032V320.939H170.758V316.801H171.951ZM171.951 319.975H176.826V318.845H171.951V319.975ZM175.887 310.821V311.786H169.108V310.821H171.901V309.603H173.107V310.821H175.887ZM172.497 312.256C174.135 312.256 175.252 313.03 175.252 314.249C175.252 315.455 174.135 316.255 172.497 316.242C170.834 316.255 169.73 315.455 169.73 314.249C169.73 313.03 170.834 312.256 172.497 312.256ZM172.497 313.157C171.532 313.145 170.885 313.589 170.898 314.249C170.885 314.922 171.532 315.354 172.497 315.354C173.462 315.354 174.11 314.922 174.122 314.249C174.11 313.589 173.462 313.145 172.497 313.157ZM186.573 310.529V311.507H185.481V314.947C185.964 314.909 186.427 314.865 186.878 314.808L186.929 315.722C184.745 316.064 182.193 316.103 180.365 316.103L180.213 315.1L181.597 315.087V311.507H180.53V310.529H186.573ZM189.684 309.704V316.699H188.478V314.719H186.738V313.754H188.478V312.649H186.738V311.685H188.478V309.704H189.684ZM185.875 316.915C188.274 316.915 189.722 317.664 189.722 318.997C189.722 320.292 188.274 321.066 185.875 321.054C183.476 321.066 182.016 320.292 182.028 318.997C182.016 317.664 183.476 316.915 185.875 316.915ZM185.875 317.854C184.199 317.854 183.222 318.261 183.222 318.997C183.222 319.721 184.199 320.127 185.875 320.127C187.538 320.127 188.528 319.721 188.528 318.997C188.528 318.261 187.538 317.854 185.875 317.854ZM182.765 315.074C183.279 315.062 183.799 315.042 184.326 315.011V311.507H182.765V315.074ZM200.167 309.704V314.236H201.932V315.239H200.167V321.066H198.961V309.704H200.167ZM197.196 310.897C197.184 314.186 195.736 317.118 191.991 318.972L191.318 318.032C194.168 316.61 195.717 314.554 195.965 311.9H191.89V310.897H197.196ZM215.865 318.667V319.67H205.455V318.667H210.038V316.331H206.648V310.479H207.854V312.434H213.44V310.479H214.633V316.331H211.231V318.667H215.865ZM207.854 315.354H213.44V313.411H207.854V315.354ZM225.764 310.796V311.913C225.764 313.322 225.764 314.896 225.333 317.22L224.114 317.093C224.558 314.896 224.558 313.284 224.558 311.913V311.773H217.652V310.796H225.764ZM226.932 318.54V319.543H216.56V318.54H220.508V314.528H221.702V318.54H226.932ZM231.766 312.599C231.766 314.681 232.934 316.75 234.673 317.537L233.937 318.502C232.642 317.854 231.671 316.566 231.169 315.011C230.668 316.648 229.671 318.032 228.364 318.718L227.602 317.74C229.367 316.902 230.547 314.706 230.547 312.599V310.656H231.766V312.599ZM237.149 309.704V321.104H235.956V314.465H233.416V313.487H235.956V309.704H237.149Z" fill="#003477"/>
<defs>
<filter id="filter0_d_5316_29986" x="59.7197" y="395.032" width="192.561" height="176.561" filterUnits="userSpaceOnUse" color-interpolation-filters="sRGB">
<feFlood flood-opacity="0" result="BackgroundImageFix"/>
<feColorMatrix in="SourceAlpha" type="matrix" values="0 0 0 0 0 0 0 0 0 0 0 0 0 0 0 0 0 0 127 0" result="hardAlpha"/>
<feOffset dy="3.3121"/>
<feGaussianBlur stdDeviation="4.14013"/>
<feComposite in2="hardAlpha" operator="out"/>
<feColorMatrix type="matrix" values="0 0 0 0 0.866667 0 0 0 0 0.901961 0 0 0 0 1 0 0 0 0.25 0"/>
<feBlend mode="normal" in2="BackgroundImageFix" result="effect1_dropShadow_5316_29986"/>
<feBlend mode="normal" in="SourceGraphic" in2="effect1_dropShadow_5316_29986" result="shape"/>
</filter>
<linearGradient id="paint0_linear_5316_29986" x1="115.036" y1="474.905" x2="120.032" y2="474.905" gradientUnits="userSpaceOnUse">
<stop stop-color="white" stop-opacity="0"/>
<stop offset="1" stop-color="white"/>
</linearGradient>
<clipPath id="clip0_5316_29986">
<rect width="101.911" height="15.2866" fill="white" transform="translate(105.045 472.357)"/>
</clipPath>
</defs>
</svg>
