<svg width="97" height="51" viewBox="0 0 97 51" fill="none" xmlns="http://www.w3.org/2000/svg">
<path d="M74.7147 7.41606H70.8449V23.8594H74.7147V7.41606Z" fill="white"/>
<path d="M26.4704 7.41606C21.8243 7.41606 18.0395 11.1948 18.0395 15.847V23.8654H21.9092V15.847C21.9092 13.3298 23.9533 11.2858 26.4704 11.2858H29.4061V7.41606H26.4704Z" fill="white"/>
<path d="M63.057 0.841187V8.43507C61.7408 7.58591 60.1759 7.08855 58.4958 7.08855C53.8497 7.08855 50.071 10.8673 50.071 15.5195C50.071 20.1716 53.8497 23.9443 58.4958 23.9443C63.1419 23.9443 66.9267 20.1656 66.9267 15.5195V0.847251H63.057V0.841187ZM58.4958 20.0746C55.9787 20.0746 53.9346 18.0305 53.9346 15.5134C53.9346 12.9962 55.9787 10.9522 58.4958 10.9522C61.0129 10.9522 63.057 12.9962 63.057 15.5134C63.057 18.0305 61.0129 20.0746 58.4958 20.0746Z" fill="white"/>
<path d="M39.8629 33.7278L35.241 44.9609L30.6192 33.7278H26.4401L33.203 50.1711H37.279L44.0419 33.7278H39.8629Z" fill="white"/>
<path d="M92.1466 33.7278L88.9926 44.2573L85.8386 33.7278H85.3473H81.8051H81.3138L78.1598 44.2573L75.0058 33.7278H70.9662L75.8913 50.1711H80.4222L83.5762 39.6476L86.7302 50.1711H91.261L96.1861 33.7278H92.1466Z" fill="white"/>
<path d="M50.6108 33.7278H46.7411V50.1711H50.6108V33.7278Z" fill="white"/>
<path d="M72.7798 5.25679C74.0661 5.25679 75.1089 4.21401 75.1089 2.92767C75.1089 1.64134 74.0661 0.598557 72.7798 0.598557C71.4935 0.598557 70.4507 1.64134 70.4507 2.92767C70.4507 4.21401 71.4935 5.25679 72.7798 5.25679Z" fill="white"/>
<path d="M48.6759 31.5624C49.9622 31.5624 51.005 30.5196 51.005 29.2333C51.005 27.947 49.9622 26.9042 48.6759 26.9042C47.3896 26.9042 46.3468 27.947 46.3468 29.2333C46.3468 30.5196 47.3896 31.5624 48.6759 31.5624Z" fill="white"/>
<path d="M47.6327 16.9084C47.7055 16.4535 47.7479 15.9925 47.7479 15.5194C47.7479 10.8673 43.9752 7.0946 39.3231 7.0946C34.6709 7.0946 30.8982 10.8673 30.8982 15.5194C30.8982 20.1716 34.6709 23.9443 39.3231 23.9443C41.6522 23.9443 43.7569 22.9981 45.2854 21.4757L42.5499 18.7402C41.725 19.5651 40.5847 20.0746 39.3231 20.0746C37.2911 20.0746 35.5686 18.7402 34.9802 16.9024H47.6327V16.9084ZM39.317 10.9522C41.2822 10.9522 42.9562 12.2017 43.5992 13.9485H35.0409C35.6778 12.2017 37.3518 10.9522 39.3231 10.9522H39.317Z" fill="white"/>
<path d="M70.293 43.2141C70.3658 42.7592 70.4082 42.2982 70.4082 41.8251C70.4082 37.1729 66.6356 33.4002 61.9834 33.4002C57.3313 33.4002 53.5586 37.1729 53.5586 41.8251C53.5586 46.4772 57.3313 50.2499 61.9834 50.2499C64.3125 50.2499 66.4172 49.3037 67.9457 47.7813L65.2102 45.0458C64.3853 45.8707 63.245 46.3802 61.9834 46.3802C59.9515 46.3802 58.2289 45.0458 57.6406 43.208H70.293V43.2141ZM61.9773 37.2639C63.9425 37.2639 65.6166 38.5134 66.2595 40.2602H57.7012C58.3381 38.5134 60.0122 37.2639 61.9834 37.2639H61.9773Z" fill="white"/>
<path d="M9.55406 20.39C6.86102 20.39 4.67747 18.2065 4.67747 15.5134C4.67747 12.8204 6.86102 10.6368 9.55406 10.6368C10.9006 10.6368 12.1197 11.1827 12.9992 12.0622L15.7347 9.32672C14.1516 7.74365 11.9681 6.76712 9.55406 6.76712C4.726 6.76712 0.813812 10.6793 0.813812 15.5074C0.813812 20.3354 4.726 24.2476 9.55406 24.2476C11.9681 24.2476 14.1516 23.2711 15.7347 21.688L12.9992 18.9525C12.1197 19.832 10.9006 20.3779 9.55406 20.3779V20.39Z" fill="white"/>
</svg>
