<svg width="16" height="16" viewBox="0 0 16 16" fill="none" xmlns="http://www.w3.org/2000/svg">
<path d="M1 1C1 0.447715 1.44772 0 2 0H11.5801C11.8487 0 12.106 0.108015 12.294 0.299726L13.5938 1.6247L14.6991 2.70524C14.8915 2.89339 15 3.15117 15 3.42032V14.9971C15 15.5494 14.5523 15.9971 14 15.9971H2C1.44772 15.9971 1 15.5494 1 14.9971V1Z" fill="#915EC1"/>
<path d="M6.75474 9.65765H4.45183L3.98134 11.1186C3.97608 11.1452 3.9611 11.1688 3.93934 11.1848C3.91757 11.2008 3.8906 11.2081 3.86372 11.2053H2.69988C2.63178 11.2053 2.61321 11.1682 2.63178 11.0939L4.62517 5.37993C4.64374 5.31802 4.66231 5.2623 4.68707 5.18802C4.71199 5.05534 4.72442 4.92062 4.72422 4.78563C4.72236 4.77012 4.72643 4.75449 4.73562 4.74186C4.7448 4.72923 4.75842 4.72054 4.77374 4.71753H6.37711C6.42045 4.71753 6.4514 4.7361 6.45759 4.76705L8.71717 11.1125C8.73574 11.1805 8.71717 11.2115 8.65527 11.2115H7.36142C7.33954 11.2136 7.31762 11.2079 7.2995 11.1955C7.28139 11.183 7.26824 11.1646 7.26237 11.1434L6.75474 9.65765ZM4.81088 8.42572H6.3833C6.34616 8.29571 6.29664 8.14095 6.24092 7.97999C6.1852 7.81904 6.12949 7.63332 6.07377 7.4476C6.01806 7.26188 5.95615 7.06997 5.89424 6.87806C5.83234 6.68615 5.77662 6.50662 5.7271 6.32709C5.67757 6.14756 5.63424 5.9928 5.5909 5.84422H5.57852C5.52289 6.11404 5.45262 6.38063 5.36804 6.64282C5.27518 6.93997 5.18232 7.2495 5.08327 7.55903C5.00279 7.87475 4.90374 8.16571 4.81088 8.42572Z" fill="white"/>
<path d="M12.3884 9.08792H10.4259C10.4493 9.28328 10.5148 9.47124 10.6178 9.63888C10.7272 9.80574 10.8849 9.9353 11.0698 10.0103C11.32 10.1173 11.5901 10.1701 11.8622 10.1651C12.0783 10.1611 12.2938 10.1383 12.506 10.097C12.6948 10.0723 12.8798 10.0245 13.0569 9.9546C13.0879 9.92984 13.1065 9.94222 13.1065 10.0041V10.9513C13.1054 10.9765 13.1012 11.0014 13.0941 11.0256C13.0829 11.043 13.0681 11.0577 13.0508 11.0689C12.8528 11.1559 12.6449 11.2182 12.4317 11.2546C12.1421 11.3103 11.8474 11.3352 11.5526 11.3289C11.0821 11.3289 10.6859 11.2546 10.364 11.1123C10.0611 10.9808 9.79375 10.7792 9.58401 10.5241C9.388 10.2856 9.24266 10.0097 9.15685 9.71317C8.97545 9.09556 8.98408 8.43766 9.18161 7.82503C9.28033 7.51507 9.43799 7.22709 9.64591 6.97691C9.85063 6.72953 10.1061 6.52897 10.395 6.3888C10.6859 6.24642 11.0326 6.19689 11.4288 6.19689C11.7589 6.18923 12.0866 6.25477 12.3884 6.3888C12.642 6.49875 12.8651 6.66871 13.0384 6.88405C13.2029 7.09549 13.3287 7.33443 13.4098 7.58978C13.4885 7.83377 13.5282 8.08867 13.5274 8.34504C13.5274 8.49362 13.5212 8.62362 13.5151 8.74124C13.5089 8.85886 13.4965 8.94553 13.4903 9.00125C13.4876 9.02269 13.4774 9.0425 13.4616 9.0572C13.4457 9.07191 13.4252 9.08059 13.4036 9.08172C13.3665 9.08172 13.2984 9.08791 13.1993 9.09411C13.0801 9.10764 12.9602 9.11384 12.8403 9.11268C12.6979 9.11268 12.5493 9.08792 12.3884 9.08792ZM10.4259 8.18408H11.7322C11.8931 8.18408 12.0107 8.18408 12.085 8.17789C12.1359 8.17366 12.1849 8.15662 12.2274 8.12837V8.06646C12.2277 7.98859 12.2151 7.91121 12.1903 7.83741C12.1361 7.66802 12.0283 7.52084 11.8831 7.41811C11.7379 7.31537 11.5633 7.26264 11.3855 7.26787C11.2175 7.25845 11.0503 7.29786 10.9042 7.38135C10.7581 7.46483 10.6393 7.58883 10.5621 7.73836C10.4899 7.87737 10.4437 8.02844 10.4259 8.18408Z" fill="white"/>
</svg>
