<svg width="56" height="56" viewBox="0 0 56 56" fill="none" xmlns="http://www.w3.org/2000/svg">
<path d="M23.2645 6.48051C27.6708 4.84936 31.891 5.25782 33.588 9.67174L42.7899 34.3197C42.8915 34.5972 42.924 34.8951 42.885 35.1873C42.8245 35.6631 42.5729 36.0924 42.1892 36.3769C41.8056 36.6613 41.3222 36.7764 40.85 36.6957L28.3351 35.3343L15.7557 33.979C15.6604 33.9713 15.5676 33.9621 15.4771 33.953C15.5629 33.9615 15.6508 33.9709 15.7408 33.9782L28.3211 35.3332L19.7221 44.5119C19.0857 45.2392 17.9831 45.3188 17.2409 44.6913C17.0175 44.4902 16.8449 44.2379 16.738 43.9569L12.3355 32.1671C12.7452 33.2644 13.5902 33.7513 15.3788 33.9436C13.6009 33.7502 12.7602 33.2624 12.3516 32.1684L7.55126 19.3106C5.89744 14.8806 8.82488 11.8255 13.2168 10.1996L23.2645 6.48051Z" fill="#B0EAF4"/>
<path fill-rule="evenodd" clip-rule="evenodd" d="M33.6234 44.5505L21.1259 51.3753C20.128 51.8923 18.8987 51.5263 18.3486 50.5487C18.1895 50.2458 18.1036 49.91 18.0979 49.5682V19.3274C18.0979 13.56 22.0516 11.253 27.7411 11.253H41.1066C46.6225 11.253 50.7498 13.4062 50.7498 18.9429V49.5682C50.7498 50.1138 50.5323 50.637 50.1453 51.0228C49.7583 51.4085 49.2334 51.6253 48.6861 51.6253C48.337 51.6197 47.9939 51.5342 47.6832 51.3753L35.1085 44.5505C34.6451 44.301 34.0868 44.301 33.6234 44.5505Z" fill="url(#paint0_linear_1111_18660)"/>
<path d="M40.7051 24.0001H28.2949C27.5797 24.0001 27 23.3285 27 22.5001C27 21.6716 27.5797 21.0001 28.2949 21.0001H40.7051C41.4203 21.0001 42 21.6716 42 22.5001C42 23.3285 41.4203 24.0001 40.7051 24.0001Z" fill="white"/>
<defs>
<linearGradient id="paint0_linear_1111_18660" x1="28.1446" y1="11.253" x2="49.2261" y2="48.1948" gradientUnits="userSpaceOnUse">
<stop stop-color="#81DAE5"/>
<stop offset="1" stop-color="#2BB0C4"/>
</linearGradient>
</defs>
</svg>
