<svg width="36" height="36" viewBox="0 0 36 36" fill="none" xmlns="http://www.w3.org/2000/svg">
<path d="M25.288 2.90313C25.1527 2.37235 24.6662 2 24.1081 2C23.55 2 23.0636 2.37235 22.9282 2.90313C22.5572 4.35812 22.0311 5.33073 21.3224 6.0255C20.6137 6.72027 19.6216 7.23595 18.1375 7.5997C17.596 7.7324 17.2162 8.2093 17.2162 8.75641C17.2162 9.30352 17.596 9.78042 18.1375 9.91312C19.6216 10.2769 20.6137 10.7925 21.3224 11.4873C22.0311 12.1821 22.5572 13.1547 22.9282 14.6097C23.0636 15.1405 23.55 15.5128 24.1081 15.5128C24.6662 15.5128 25.1527 15.1405 25.288 14.6097C25.6591 13.1547 26.1851 12.1821 26.8938 11.4873C27.6025 10.7925 28.5946 10.2769 30.0788 9.91312C30.6202 9.78042 31 9.30352 31 8.75641C31 8.2093 30.6202 7.7324 30.0788 7.5997C28.5946 7.23595 27.6025 6.72027 26.8938 6.0255C26.1851 5.33073 25.6591 4.35812 25.288 2.90313Z" fill="url(#paint0_linear_1111_18718)"/>
<path d="M13.9367 9.26211C13.8013 8.73133 13.3148 8.35898 12.7568 8.35898C12.1987 8.35898 11.7122 8.73133 11.5769 9.26211C10.8583 12.0797 9.81107 14.0743 8.32051 15.5356C6.82995 16.9968 4.79537 18.0235 1.92124 18.7279C1.37982 18.8606 1 19.3375 1 19.8846C1 20.4317 1.37982 20.9086 1.92124 21.0413C4.79537 21.7457 6.82995 22.7724 8.32051 24.2337C9.81106 25.6949 10.8583 27.6895 11.5769 30.5071C11.7122 31.0379 12.1987 31.4103 12.7568 31.4103C13.3148 31.4103 13.8013 31.0379 13.9367 30.5071C14.6552 27.6895 15.7024 25.6949 17.193 24.2337C18.6836 22.7724 20.7181 21.7457 23.5923 21.0413C24.1337 20.9086 24.5135 20.4317 24.5135 19.8846C24.5135 19.3375 24.1337 18.8606 23.5923 18.7279C20.7181 18.0235 18.6836 16.9968 17.193 15.5356C15.7024 14.0743 14.6552 12.0797 13.9367 9.26211Z" fill="url(#paint1_linear_1111_18718)"/>
<path d="M23.261 25.9544C23.1256 25.4236 22.6392 25.0513 22.0811 25.0513C21.523 25.0513 21.0365 25.4236 20.9012 25.9544C20.7328 26.6145 20.5109 26.991 20.2582 27.2386C20.0056 27.4863 19.6216 27.7039 18.9483 27.8689C18.4068 28.0016 18.027 28.4785 18.027 29.0256C18.027 29.5728 18.4068 30.0497 18.9483 30.1824C19.6216 30.3474 20.0056 30.565 20.2582 30.8126C20.5109 31.0603 20.7328 31.4367 20.9012 32.0969C21.0365 32.6276 21.523 33 22.0811 33C22.6392 33 23.1256 32.6276 23.261 32.0969C23.4293 31.4367 23.6513 31.0603 23.9039 30.8126C24.1565 30.565 24.5405 30.3474 25.2139 30.1824C25.7553 30.0497 26.1351 29.5728 26.1351 29.0256C26.1351 28.4785 25.7553 28.0016 25.2139 27.8689C24.5405 27.7039 24.1565 27.4863 23.9039 27.2386C23.6513 26.991 23.4293 26.6145 23.261 25.9544Z" fill="url(#paint2_linear_1111_18718)"/>
<defs>
<linearGradient id="paint0_linear_1111_18718" x1="10.5455" y1="8.06522" x2="15.8797" y2="33.0257" gradientUnits="userSpaceOnUse">
<stop stop-color="#5986FF"/>
<stop offset="1" stop-color="#8C2FFF"/>
</linearGradient>
<linearGradient id="paint1_linear_1111_18718" x1="10.5455" y1="8.06522" x2="15.8797" y2="33.0257" gradientUnits="userSpaceOnUse">
<stop stop-color="#5986FF"/>
<stop offset="1" stop-color="#8C2FFF"/>
</linearGradient>
<linearGradient id="paint2_linear_1111_18718" x1="10.5455" y1="8.06522" x2="15.8797" y2="33.0257" gradientUnits="userSpaceOnUse">
<stop stop-color="#5986FF"/>
<stop offset="1" stop-color="#8C2FFF"/>
</linearGradient>
</defs>
</svg>
