<svg width="18" height="18" viewBox="0 0 18 18" fill="none" xmlns="http://www.w3.org/2000/svg">
<path d="M10.5 10C11.7095 10 12.7186 10.8589 12.9502 12H15.5C15.7761 12 16 12.2239 16 12.5C16 12.7761 15.7761 13 15.5 13H12.9502C12.7186 14.1411 11.7095 15 10.5 15C9.29052 15 8.28144 14.1411 8.0498 13H2.5C2.22386 13 2 12.7761 2 12.5C2 12.2239 2.22386 12 2.5 12H8.0498C8.28144 10.8589 9.29052 10 10.5 10ZM10.5 11C9.67157 11 9 11.6716 9 12.5C9 13.3284 9.67157 14 10.5 14C11.3278 14 11.9989 13.3295 12 12.502V12.498C11.9989 11.6705 11.3278 11 10.5 11ZM6.5 3C7.70948 3 8.71856 3.85888 8.9502 5L15.5 5C15.7761 5 16 5.22386 16 5.5C16 5.77614 15.7761 6 15.5 6L8.9502 6C8.71856 7.14112 7.70948 8 6.5 8C5.29052 8 4.28144 7.14112 4.0498 6H2.5C2.22386 6 2 5.77614 2 5.5C2 5.22386 2.22386 5 2.5 5H4.0498C4.28144 3.85888 5.29052 3 6.5 3ZM6.5 4C5.67157 4 5 4.67157 5 5.5C5 6.32843 5.67157 7 6.5 7C7.32802 7 7.99935 6.32885 8 5.50098V5.49902C7.99935 4.67115 7.32802 4 6.5 4Z" fill="#333333"/>
</svg>
