<svg width="11" height="12" viewBox="0 0 11 12" fill="none" xmlns="http://www.w3.org/2000/svg">
<path fill-rule="evenodd" clip-rule="evenodd" d="M0.137025 1.59387C-0.0528905 1.39341 -0.0443375 1.07694 0.156129 0.887025C0.356595 0.697109 0.673062 0.705663 0.862977 0.906129L5.36298 5.65613C5.54568 5.84898 5.54568 6.15103 5.36298 6.34387L0.862977 11.0939C0.673062 11.2943 0.356595 11.3029 0.156129 11.113C-0.0443375 10.9231 -0.0528905 10.6066 0.137025 10.4061L4.31125 6L0.137025 1.59387ZM5.13702 1.59387C4.94711 1.39341 4.95566 1.07694 5.15613 0.887025C5.3566 0.697109 5.67306 0.705663 5.86298 0.906129L10.363 5.65613C10.5457 5.84898 10.5457 6.15103 10.363 6.34387L5.86298 11.0939C5.67306 11.2943 5.3566 11.3029 5.15613 11.113C4.95566 10.9231 4.94711 10.6066 5.13702 10.4061L9.31125 6L5.13702 1.59387Z" fill="#243F64" fill-opacity="0.5"/>
</svg>
