<svg width="20" height="22" viewBox="0 0 20 22" fill="none" xmlns="http://www.w3.org/2000/svg">
<path d="M10 0.25C10.4142 0.25 10.75 0.585786 10.75 1V2.28613C14.6783 2.66337 17.75 5.97282 17.75 10V17.25H19C19.4142 17.25 19.75 17.5858 19.75 18C19.75 18.4142 19.4142 18.75 19 18.75H13.6738C13.5278 19.465 13.1751 20.1276 12.6514 20.6514C11.9481 21.3546 10.9946 21.75 10 21.75C9.00544 21.75 8.05189 21.3546 7.34863 20.6514C6.82487 20.1276 6.47216 19.465 6.32617 18.75H1C0.585786 18.75 0.25 18.4142 0.25 18C0.25 17.5858 0.585786 17.25 1 17.25H2.25V10C2.25 5.97282 5.32171 2.66337 9.25 2.28613V1C9.25 0.585786 9.58579 0.25 10 0.25ZM7.87891 18.75C7.98973 19.0634 8.16964 19.3513 8.40918 19.5908C8.83114 20.0128 9.40326 20.25 10 20.25C10.5967 20.25 11.1689 20.0128 11.5908 19.5908C11.8304 19.3513 12.0103 19.0634 12.1211 18.75H7.87891ZM10 3.75C6.54822 3.75 3.75 6.54822 3.75 10V17.25H16.25V10C16.25 6.54822 13.4518 3.75 10 3.75Z" fill="#353C49"/>
</svg>
