<svg width="40" height="40" viewBox="0 0 40 40" fill="none" xmlns="http://www.w3.org/2000/svg">
<path d="M20 40C31.0457 40 40 31.0457 40 20C40 8.9543 31.0457 0 20 0C8.9543 0 0 8.9543 0 20C0 31.0457 8.9543 40 20 40Z" fill="#506FFF" fill-opacity="0.1"/>
<path d="M20.1912 13.4998C20.1944 13.8172 20.2938 14.1265 20.4765 14.3888C20.6593 14.6511 20.9174 14.8547 21.2184 14.9739C21.5193 15.0931 21.8497 15.1227 22.1677 15.0588C22.4858 14.9949 22.7775 14.8405 23.006 14.615C23.2344 14.3894 23.3895 14.1029 23.4517 13.7914C23.5138 13.4799 23.4803 13.1574 23.3553 12.8645C23.2302 12.5716 23.0193 12.3214 22.7491 12.1454C22.4789 11.9694 22.1614 11.8755 21.8367 11.8755C21.6177 11.8701 21.3999 11.9086 21.1966 11.9885C20.9934 12.0684 20.809 12.1881 20.6549 12.3403C20.5008 12.4924 20.3801 12.6738 20.3003 12.8732C20.2206 13.0726 20.1834 13.2859 20.1912 13.4998ZM16.5325 19.12C16.5129 19.4372 16.5129 19.7552 16.5325 20.0723L17.9681 18.3627C18.2652 18.0419 18.608 17.8165 18.7846 17.8774C18.871 17.9143 18.9402 17.9813 18.9787 18.0655C19.0171 18.1496 19.022 18.2448 18.9924 18.3322L16.6156 26.1169C16.5459 26.3478 16.5316 26.5914 16.5739 26.8286C16.6162 27.0658 16.7139 27.2903 16.8594 27.4845C17.005 27.6788 17.1944 27.8377 17.413 27.9488C17.6316 28.0599 17.8735 28.1202 18.1198 28.125C19.9668 28.125 21.0638 26.8885 22.1442 25.2824C22.1734 24.9556 22.1818 24.6274 22.1691 24.2997L20.7335 26.0093C20.4364 26.3321 20.0665 26.5575 19.8899 26.4946C19.8104 26.4624 19.7447 26.4045 19.7038 26.3305C19.663 26.2565 19.6494 26.1711 19.6655 26.0885L22.059 18.2653C22.1229 18.0358 22.1334 17.7952 22.0899 17.5612C22.0464 17.3272 21.9499 17.1057 21.8075 16.9128C21.6651 16.7199 21.4804 16.5606 21.2669 16.4465C21.0534 16.3323 20.8165 16.2663 20.5735 16.2531C19.4831 16.3093 18.9118 16.672 18.2408 17.2663C17.4518 18.1229 16.8987 18.7033 16.5325 19.12Z" fill="#506FFF"/>
</svg>
