<svg width="24" height="24" viewBox="0 0 24 24" fill="none" xmlns="http://www.w3.org/2000/svg">
<g clip-path="url(#clip0_2_26410)">
<rect x="13" y="12" width="8" height="10" rx="2" fill="#E5E5E5"/>
<path d="M14 4C15.1046 4 16 4.89543 16 6V12H15V6C15 5.44772 14.5523 5 14 5H5C4.44772 5 4 5.44772 4 6V20C4 20.5523 4.44772 21 5 21H13V22H5L4.7959 21.9893C3.85435 21.8938 3.1062 21.1457 3.01074 20.2041L3 20V6C3 4.89543 3.89543 4 5 4H14Z" fill="#333333"/>
<rect x="7" y="8" width="5" height="1" rx="0.5" fill="#333333"/>
<rect x="7" y="11" width="5" height="1" rx="0.5" fill="#333333"/>
<rect x="16" y="15" width="2" height="1" rx="0.5" fill="#333333"/>
<rect x="16" y="17" width="2" height="1" rx="0.5" fill="#333333"/>
<path d="M15 12.5H19C19.8284 12.5 20.5 13.1716 20.5 14V20C20.5 20.8284 19.8284 21.5 19 21.5H13.5V14C13.5 13.1716 14.1716 12.5 15 12.5Z" stroke="#333333"/>
<path d="M8 16.5H11C11.2761 16.5 11.5 16.7239 11.5 17V21.5H7.5V17C7.5 16.7239 7.72386 16.5 8 16.5Z" stroke="#333333"/>
</g>
<defs>
<clipPath id="clip0_2_26410">
<rect width="24" height="24" fill="white"/>
</clipPath>
</defs>
</svg>
