<svg width="60" height="60" viewBox="0 0 60 60" fill="none" xmlns="http://www.w3.org/2000/svg">
<rect width="60" height="60" rx="30" fill="#F2F5FF"/>
<rect x="32" y="28" width="13" height="16" rx="2" fill="#C0D4FF"/>
<rect width="13" height="16" rx="2" transform="matrix(-1 0 0 1 28 28)" fill="#C0D4FF"/>
<path d="M21 21C21 19.3431 22.3431 18 24 18H36C37.6569 18 39 19.3431 39 21V44H21V21Z" fill="url(#paint0_linear_231_18389)"/>
<path d="M26.75 31.5C26.5511 31.5 26.3603 31.421 26.2197 31.2803C26.079 31.1397 26 30.9489 26 30.75C26 30.5511 26.079 30.3603 26.2197 30.2197C26.3603 30.079 26.5511 30 26.75 30H33.25C33.4489 30 33.6397 30.079 33.7803 30.2197C33.921 30.3603 34 30.5511 34 30.75C34 30.9489 33.921 31.1397 33.7803 31.2803C33.6397 31.421 33.4489 31.5 33.25 31.5H26.75ZM26.75 28.5C26.5511 28.5 26.3603 28.421 26.2197 28.2803C26.079 28.1397 26 27.9489 26 27.75C26 27.5511 26.079 27.3603 26.2197 27.2197C26.3603 27.079 26.5511 27 26.75 27H33.25C33.4489 27 33.6397 27.079 33.7803 27.2197C33.921 27.3603 34 27.5511 34 27.75C34 27.9489 33.921 28.1397 33.7803 28.2803C33.6397 28.421 33.4489 28.5 33.25 28.5H26.75ZM26.75 25.5C26.5511 25.5 26.3603 25.421 26.2197 25.2803C26.079 25.1397 26 24.9489 26 24.75C26 24.5511 26.079 24.3603 26.2197 24.2197C26.3603 24.079 26.5511 24 26.75 24H33.25C33.4489 24 33.6397 24.079 33.7803 24.2197C33.921 24.3603 34 24.5511 34 24.75C34 24.9489 33.921 25.1397 33.7803 25.2803C33.6397 25.421 33.4489 25.5 33.25 25.5H26.75Z" fill="white"/>
<g filter="url(#filter0_i_231_18389)">
<path d="M28 36H32C32.2652 36 32.5196 36.1054 32.7071 36.2929C32.8946 36.4804 33 36.7348 33 37V44H27V37C27 36.7348 27.1054 36.4804 27.2929 36.2929C27.4804 36.1054 27.7348 36 28 36Z" fill="#4E7AD9"/>
</g>
<path d="M41.5039 38.0029C41.3713 38.0029 41.2441 37.9503 41.1504 37.8565C41.0566 37.7627 41.0039 37.6355 41.0039 37.5029V36.5029C41.0039 36.3703 41.0566 36.2431 41.1504 36.1494C41.2441 36.0556 41.3713 36.0029 41.5039 36.0029H42.5039C42.6365 36.0029 42.7637 36.0556 42.8575 36.1494C42.9512 36.2431 43.0039 36.3703 43.0039 36.5029V37.5029C43.0039 37.6355 42.9512 37.7627 42.8575 37.8565C42.7637 37.9503 42.6365 38.0029 42.5039 38.0029H41.5039ZM41.5039 34.0029C41.3713 34.0029 41.2441 33.9503 41.1504 33.8565C41.0566 33.7627 41.0039 33.6355 41.0039 33.5029V32.5029C41.0039 32.3703 41.0566 32.2431 41.1504 32.1494C41.2441 32.0556 41.3713 32.0029 41.5039 32.0029H42.5039C42.6365 32.0029 42.7637 32.0556 42.8575 32.1494C42.9512 32.2431 43.0039 32.3703 43.0039 32.5029V33.5029C43.0039 33.6355 42.9512 33.7627 42.8575 33.8565C42.7637 33.9503 42.6365 34.0029 42.5039 34.0029H41.5039Z" fill="white" fill-opacity="0.7"/>
<path d="M17.5039 38.0029C17.3713 38.0029 17.2441 37.9503 17.1504 37.8565C17.0566 37.7627 17.0039 37.6355 17.0039 37.5029V36.5029C17.0039 36.3703 17.0566 36.2431 17.1504 36.1494C17.2441 36.0556 17.3713 36.0029 17.5039 36.0029H18.5039C18.6365 36.0029 18.7637 36.0556 18.8575 36.1494C18.9512 36.2431 19.0039 36.3703 19.0039 36.5029V37.5029C19.0039 37.6355 18.9512 37.7627 18.8575 37.8565C18.7637 37.9503 18.6365 38.0029 18.5039 38.0029H17.5039ZM17.5039 34.0029C17.3713 34.0029 17.2441 33.9503 17.1504 33.8565C17.0566 33.7627 17.0039 33.6355 17.0039 33.5029V32.5029C17.0039 32.3703 17.0566 32.2431 17.1504 32.1494C17.2441 32.0556 17.3713 32.0029 17.5039 32.0029H18.5039C18.6365 32.0029 18.7637 32.0556 18.8575 32.1494C18.9512 32.2431 19.0039 32.3703 19.0039 32.5029V33.5029C19.0039 33.6355 18.9512 33.7627 18.8575 33.8565C18.7637 33.9503 18.6365 34.0029 18.5039 34.0029H17.5039Z" fill="white" fill-opacity="0.7"/>
<defs>
<filter id="filter0_i_231_18389" x="27" y="36" width="6.2" height="8.2" filterUnits="userSpaceOnUse" color-interpolation-filters="sRGB">
<feFlood flood-opacity="0" result="BackgroundImageFix"/>
<feBlend mode="normal" in="SourceGraphic" in2="BackgroundImageFix" result="shape"/>
<feColorMatrix in="SourceAlpha" type="matrix" values="0 0 0 0 0 0 0 0 0 0 0 0 0 0 0 0 0 0 127 0" result="hardAlpha"/>
<feOffset dx="0.2" dy="0.2"/>
<feGaussianBlur stdDeviation="0.5"/>
<feComposite in2="hardAlpha" operator="arithmetic" k2="-1" k3="1"/>
<feColorMatrix type="matrix" values="0 0 0 0 0 0 0 0 0 0 0 0 0 0 0 0 0 0 0.16 0"/>
<feBlend mode="normal" in2="shape" result="effect1_innerShadow_231_18389"/>
</filter>
<linearGradient id="paint0_linear_231_18389" x1="25.7657" y1="18" x2="45.5039" y2="29.5424" gradientUnits="userSpaceOnUse">
<stop stop-color="#A8C4FF"/>
<stop offset="1" stop-color="#4A81F7"/>
</linearGradient>
</defs>
</svg>
