<svg width="24" height="24" viewBox="0 0 24 24" fill="none" xmlns="http://www.w3.org/2000/svg">
<g clip-path="url(#clip0_961_77078)">
<path d="M12 9.5C13.933 9.5 15.5 11.067 15.5 13C15.5 14.933 13.933 16.5 12 16.5C10.067 16.5 8.5 14.933 8.5 13C8.5 11.067 10.067 9.5 12 9.5Z" stroke="#353C49"/>
<path d="M12 16.25C13.7949 16.25 15.25 14.7949 15.25 13C15.25 11.2051 13.7949 9.75 12 9.75C10.2051 9.75 8.75 11.2051 8.75 13C8.75 14.7949 10.2051 16.25 12 16.25Z" stroke="#353C49" stroke-width="1.5" stroke-miterlimit="10" stroke-linecap="round" stroke-linejoin="round"/>
<path d="M9.85645 3.50098H14.1416L14.2256 3.50586C14.4215 3.52623 14.6058 3.61315 14.7461 3.75391V3.75488L16.3467 5.35449L16.4932 5.50098H19C19.663 5.50098 20.2987 5.76456 20.7676 6.2334C21.2364 6.70224 21.5 7.33794 21.5 8.00098V18.001C21.5 18.664 21.2364 19.2997 20.7676 19.7686C20.2987 20.2374 19.663 20.501 19 20.501H5C4.33696 20.501 3.70126 20.2374 3.23242 19.7686C2.76358 19.2997 2.5 18.664 2.5 18.001V8.00098C2.5 7.33794 2.76358 6.70224 3.23242 6.2334C3.70126 5.76456 4.33696 5.50098 5 5.50098H7.5L7.64648 5.35449L9.24805 3.75488L9.24902 3.75391C9.32855 3.67406 9.42334 3.61076 9.52734 3.56738C9.60556 3.53483 9.68846 3.51328 9.77246 3.50488L9.85645 3.50098Z" stroke="#353C49"/>
<path d="M9.85645 3.50098H14.1436C14.3711 3.50098 14.5903 3.59151 14.751 3.75195L16.499 5.5H19C20.3804 5.5 21.4997 6.61927 21.5 8V18C21.5 19.3808 20.3808 20.5 19 20.5H5C3.61924 20.5 2.5 19.3808 2.5 18V8C2.50026 6.61927 3.6196 5.5 5 5.5H7.5L9.24805 3.75195C9.40885 3.59115 9.62797 3.50098 9.85645 3.50098ZM9.56055 4.14746L7.70703 6H5C3.89679 6 3.00026 6.89693 3 8V18C3 19.1031 3.89692 20 5 20H19C20.1031 20 21 19.1031 21 18V8C20.9997 6.89693 20.1032 6 19 6H16.292L14.293 4.00098H9.70703L9.56055 4.14746Z" stroke="#353C49"/>
<path d="M16.5 8.5H18.5" stroke="white" stroke-width="1.5" stroke-linecap="round"/>
</g>
<defs>
<clipPath id="clip0_961_77078">
<rect width="24" height="24" fill="white"/>
</clipPath>
</defs>
</svg>
