<svg width="16" height="17" viewBox="0 0 16 17" fill="none" xmlns="http://www.w3.org/2000/svg">
<path fill-rule="evenodd" clip-rule="evenodd" d="M2.92308 12.5769H5.51925L10.3564 7.73981L7.76019 5.14363L2.92308 9.98075V12.5769ZM13.0496 5.04653L11.0091 7.08709L8.41291 4.49092L10.4535 2.45035L13.0496 5.04653ZM2 12.6428V9.95347C2 9.72612 2.09031 9.50808 2.25108 9.34732L9.84732 1.75107C10.1821 1.41631 10.7249 1.41631 11.0596 1.75108L13.7489 4.44038C14.0837 4.77515 14.0837 5.31791 13.7489 5.65268L6.15268 13.2489C5.99192 13.4097 5.77388 13.5 5.54653 13.5H2.85723C2.38379 13.5 2 13.1162 2 12.6428ZM7.53846 13.5H14V12.5769H7.53846V13.5Z" fill="#666666"/>
</svg>
