<svg width="36" height="33" viewBox="0 0 36 33" fill="none" xmlns="http://www.w3.org/2000/svg">
<rect y="25.8848" width="36" height="7.11111" rx="2" fill="#B3CEFB"/>
<circle cx="18" cy="16" r="16" fill="url(#paint0_linear_3824_7350)"/>
<g clip-path="url(#clip0_3824_7350)">
<path d="M21.0865 21.9982C20.828 21.9926 20.5774 21.9015 20.3689 21.7373C20.1604 21.5731 20.0041 21.3439 19.9214 21.0808L17.9365 15.3181L15.9516 21.0826C15.8698 21.3498 15.7115 21.5825 15.4994 21.7474C15.2872 21.9124 15.032 22.0012 14.7701 22.0012C14.5082 22.0012 14.253 21.9124 14.0408 21.7474C13.8287 21.5825 13.6704 21.3498 13.5887 21.0826L12.1798 16.9824C12.0937 17.0022 12.0059 17.0122 11.9179 17.0123H10.2505C10.0826 17.0188 9.91523 16.9889 9.75835 16.9244C9.60147 16.86 9.45829 16.7622 9.33738 16.6369C9.21647 16.5117 9.1203 16.3615 9.05462 16.1955C8.98893 16.0294 8.95508 15.8509 8.95508 15.6705C8.95508 15.4901 8.98893 15.3115 9.05462 15.1454C9.1203 14.9794 9.21647 14.8293 9.33738 14.704C9.45829 14.5788 9.60147 14.481 9.75835 14.4165C9.91523 14.352 10.0826 14.3221 10.2505 14.3286H11.265L10.4714 12.0158C10.3434 11.663 10.343 11.2714 10.4702 10.9183C10.5973 10.5651 10.8429 10.2758 11.1587 10.1072C11.3143 10.0378 11.4817 10.0039 11.6502 10.0076C11.8187 10.0113 11.9847 10.0525 12.1376 10.1287C12.2905 10.2048 12.427 10.3143 12.5385 10.45C12.65 10.5858 12.734 10.7449 12.7852 10.9174L14.7701 16.6819L16.755 10.9174C16.8368 10.6502 16.9951 10.4175 17.2072 10.2525C17.4194 10.0876 17.6746 9.99878 17.9365 9.99878C18.1984 9.99878 18.4536 10.0876 18.6658 10.2525C18.8779 10.4175 19.0362 10.6502 19.1179 10.9174L21.1078 16.6819L23.0878 10.9174C23.1391 10.7458 23.2229 10.5875 23.3339 10.4523C23.4449 10.3172 23.5808 10.2082 23.7329 10.1321C23.885 10.056 24.0502 10.0145 24.2179 10.0102C24.3857 10.006 24.5524 10.039 24.7078 10.1072C25.0255 10.2736 25.2735 10.5621 25.4026 10.9156C25.5317 11.2691 25.5325 11.6617 25.4048 12.0158L24.6063 14.3339H25.7518C25.9196 14.3274 26.087 14.3573 26.2439 14.4218C26.4008 14.4862 26.5439 14.584 26.6649 14.7093C26.7858 14.8345 26.8819 14.9847 26.9476 15.1507C27.0133 15.3168 27.0472 15.4953 27.0472 15.6757C27.0472 15.8562 27.0133 16.0347 26.9476 16.2008C26.8819 16.3668 26.7858 16.517 26.6649 16.6422C26.5439 16.7674 26.4008 16.8652 26.2439 16.9297C26.087 16.9942 25.9196 17.0241 25.7518 17.0176H24.0827C23.9544 17.0175 23.8269 16.9961 23.7047 16.9543L22.2827 21.0826C22.2005 21.3447 22.0453 21.5733 21.838 21.7374C21.6308 21.9015 21.3815 21.9932 21.1241 22L21.0865 21.9982Z" fill="white"/>
</g>
<rect y="28.25" width="36" height="4.75282" rx="2" fill="#B3CEFB"/>
<defs>
<linearGradient id="paint0_linear_3824_7350" x1="-8.5" y1="-18" x2="27.4997" y2="24.5003" gradientUnits="userSpaceOnUse">
<stop stop-color="#69B6FF"/>
<stop offset="1" stop-color="#628EFA"/>
</linearGradient>
<clipPath id="clip0_3824_7350">
<rect width="18" height="12" fill="white" transform="translate(9 10)"/>
</clipPath>
</defs>
</svg>
