<svg width="24" height="24" viewBox="0 0 24 24" fill="none" xmlns="http://www.w3.org/2000/svg">
<rect x="5" y="20" width="14" height="2" fill="black" fill-opacity="0.1"/>
<path d="M12 2.5C13.4555 2.5 14.8536 3.06658 15.8857 4.07812C16.9182 5.08999 17.5 6.46499 17.5 7.90039V10H18C19.1046 10 20 10.8954 20 12V20L19.9893 20.2041C19.887 21.2128 19.0357 22 18 22H6C4.96435 22 4.113 21.2128 4.01074 20.2041L4 20V12C4 10.8954 4.89543 10 6 10H6.5V7.90039C6.5 6.46499 7.08182 5.08999 8.11426 4.07812C9.14645 3.06658 10.5445 2.5 12 2.5ZM6 11C5.48232 11 5.05621 11.3933 5.00488 11.8975L5 12V20C5 20.5523 5.44772 21 6 21H18C18.5523 21 19 20.5523 19 20V12C19 11.4477 18.5523 11 18 11H6ZM12 13.7002C12.5523 13.7002 13 14.1479 13 14.7002C12.9999 15.0699 12.7984 15.3915 12.5 15.5645V17C12.5 17.2761 12.2761 17.5 12 17.5C11.7239 17.5 11.5 17.2761 11.5 17V15.5645C11.2016 15.3915 11.0001 15.0699 11 14.7002C11 14.1479 11.4477 13.7002 12 13.7002ZM12 3.5C10.8034 3.5 9.65761 3.96578 8.81445 4.79199C7.97162 5.61797 7.5 6.73674 7.5 7.90039V10H16.5V7.90039C16.5 6.73674 16.0284 5.61797 15.1855 4.79199C14.3424 3.96578 13.1966 3.5 12 3.5Z" fill="#333333"/>
</svg>
