<svg width="24" height="24" viewBox="0 0 24 24" fill="none" xmlns="http://www.w3.org/2000/svg">
<path d="M8 4.15385C8 4.06888 8.35817 4 8.8 4H15.2C15.6418 4 16 4.06888 16 4.15385V5.84615C16 5.93112 15.6418 6 15.2 6H8.8C8.35817 6 8 5.93112 8 5.84615V4.15385Z" fill="black" fill-opacity="0.1"/>
<path d="M14.5 3C15.3284 3 16 3.67157 16 4.5H18C18.5304 4.5 19.039 4.71086 19.4141 5.08594C19.7891 5.46101 20 5.96957 20 6.5V20C20 20.5304 19.7891 21.039 19.4141 21.4141C19.039 21.7891 18.5304 22 18 22H6C5.46957 22 4.96101 21.7891 4.58594 21.4141C4.21086 21.039 4 20.5304 4 20V6.5C4 5.96957 4.21086 5.46101 4.58594 5.08594C4.96101 4.71086 5.46957 4.5 6 4.5H8C8 3.67157 8.67157 3 9.5 3H14.5ZM6 5.5C5.73478 5.5 5.48051 5.60543 5.29297 5.79297C5.10543 5.9805 5 6.23478 5 6.5V20L5.00488 20.0986C5.02757 20.3276 5.12883 20.5429 5.29297 20.707C5.48051 20.8946 5.73478 21 6 21H18C18.2652 21 18.5195 20.8946 18.707 20.707C18.8946 20.5195 19 20.2652 19 20V6.5C19 6.23478 18.8946 5.98051 18.707 5.79297C18.5195 5.60543 18.2652 5.5 18 5.5H16C16 6.32843 15.3284 7 14.5 7H9.5L9.34668 6.99219C8.59028 6.91539 8 6.27666 8 5.5H6ZM15.6006 16.0098C15.8286 16.0563 16 16.2583 16 16.5C16 16.7417 15.8286 16.9437 15.6006 16.9902L15.5 17H8.5C8.22386 17 8 16.7761 8 16.5C8 16.2239 8.22386 16 8.5 16H15.5L15.6006 16.0098ZM15.6006 13.0098C15.8286 13.0563 16 13.2583 16 13.5C16 13.7417 15.8286 13.9437 15.6006 13.9902L15.5 14H8.5C8.22386 14 8 13.7761 8 13.5C8 13.2239 8.22386 13 8.5 13H15.5L15.6006 13.0098ZM15.6006 10.0098C15.8286 10.0563 16 10.2583 16 10.5C16 10.7417 15.8286 10.9437 15.6006 10.9902L15.5 11H8.5C8.22386 11 8 10.7761 8 10.5C8 10.2239 8.22386 10 8.5 10H15.5L15.6006 10.0098ZM9.5 4C9.22386 4 9 4.22386 9 4.5V5.5C9 5.77614 9.22386 6 9.5 6H14.5C14.7761 6 15 5.77614 15 5.5V4.5C15 4.22386 14.7761 4 14.5 4H9.5Z" fill="#333333"/>
</svg>
