<svg width="14" height="14" viewBox="0 0 14 14" fill="none" xmlns="http://www.w3.org/2000/svg">
<path fill-rule="evenodd" clip-rule="evenodd" d="M1.5 5C1.5 3.89543 2.39543 3 3.5 3H10.5C11.6046 3 12.5 3.89543 12.5 5V10C12.5 11.1046 11.6046 12 10.5 12H3.5C2.39543 12 1.5 11.1046 1.5 10V5ZM3.5 4H10.5C10.8766 4 11.2047 4.20823 11.3752 4.51584C11.3493 4.52254 11.3236 4.53141 11.2984 4.54253L6.96017 6.45296L2.70453 4.54392C2.67833 4.53218 2.65167 4.52286 2.62478 4.51589C2.79531 4.20825 3.12334 4 3.5 4ZM2.5 5.54818V10C2.5 10.5523 2.94772 11 3.5 11H10.5C11.0523 11 11.5 10.5523 11.5 10V5.54641L7.1598 7.45772C7.03032 7.51474 6.88273 7.51424 6.75364 7.45633L2.5 5.54818Z" fill="#7E8996"/>
</svg>
