<svg width="20" height="20" viewBox="0 0 20 20" fill="none" xmlns="http://www.w3.org/2000/svg">
<g clip-path="url(#clip0_382_42710)">
<path d="M10 19.5C15.2467 19.5 19.5 15.2467 19.5 10C19.5 4.75329 15.2467 0.5 10 0.5C4.75329 0.5 0.5 4.75329 0.5 10C0.5 15.2467 4.75329 19.5 10 19.5Z" stroke="#0A2B58" stroke-opacity="0.18"/>
<path d="M10.1937 5.58431C10.1951 5.79702 10.2594 6.00454 10.3786 6.18073C10.4978 6.35692 10.6664 6.49387 10.8633 6.57431C11.0603 6.65476 11.2766 6.6751 11.485 6.63276C11.6935 6.59041 11.8848 6.48728 12.0347 6.33638C12.1846 6.18549 12.2865 5.99358 12.3275 5.78486C12.3685 5.57613 12.3467 5.35994 12.265 5.16355C12.1833 4.96716 12.0452 4.79938 11.8683 4.68134C11.6913 4.5633 11.4834 4.50031 11.2707 4.50031C11.1277 4.49684 10.9855 4.52256 10.8528 4.5759C10.7201 4.62924 10.5997 4.70908 10.4989 4.81054C10.3981 4.91199 10.319 5.03293 10.2665 5.16597C10.2141 5.29901 10.1893 5.44136 10.1937 5.58431ZM7.79865 9.3483C7.78587 9.56078 7.78587 9.77383 7.79865 9.9863L8.73865 8.8413C8.93265 8.6263 9.15768 8.47531 9.27268 8.51531C9.32901 8.53911 9.3745 8.58295 9.40036 8.63837C9.42623 8.69379 9.43061 8.75683 9.41266 8.8153L7.85767 14.0293C7.81213 14.184 7.80285 14.3471 7.8306 14.506C7.85835 14.6649 7.92236 14.8152 8.01764 14.9453C8.11293 15.0754 8.23696 15.1818 8.38004 15.2562C8.52312 15.3306 8.68142 15.371 8.84266 15.3743C10.0517 15.3743 10.7697 14.5463 11.4767 13.4743C11.496 13.2555 11.5017 13.0358 11.4937 12.8163L10.5537 13.9613C10.3587 14.1773 10.1177 14.3283 10.0017 14.2873C9.94883 14.2656 9.90523 14.2262 9.87839 14.1758C9.85155 14.1254 9.84315 14.0672 9.85465 14.0113L11.4207 8.7723C11.4625 8.61859 11.4694 8.45749 11.441 8.30075C11.4125 8.14402 11.3494 7.99562 11.2563 7.86641C11.1631 7.73721 11.0422 7.63045 10.9025 7.55396C10.7628 7.47747 10.6077 7.43317 10.4487 7.4243C9.89652 7.54067 9.37509 7.77216 8.91846 8.10369C8.46184 8.43521 8.08026 8.85931 7.79865 9.3483Z" fill="#888EA3"/>
</g>
<defs>
<clipPath id="clip0_382_42710">
<rect width="20" height="20" fill="white"/>
</clipPath>
</defs>
</svg>
