<svg width="16" height="17" viewBox="0 0 16 17" fill="none" xmlns="http://www.w3.org/2000/svg">
<path d="M14 2.5H2C1.73478 2.5 1.48044 2.60537 1.29291 2.79291C1.10537 2.98044 1 3.23478 1 3.5V13.5C1 13.7652 1.10537 14.0196 1.29291 14.2071C1.48044 14.3946 1.73478 14.5 2 14.5H14C14.2652 14.5 14.5196 14.3946 14.7071 14.2071C14.8946 14.0196 15 13.7652 15 13.5V3.5C15 3.23478 14.8946 2.98044 14.7071 2.79291C14.5196 2.60537 14.2652 2.5 14 2.5ZM13.4 4L8 7.42401L2.59998 4H13.4ZM2.5 13V5.71201L8 9.20001L13.5 5.71201V13H2.5Z" fill="#96A1B3"/>
</svg>
