<svg width="24" height="24" viewBox="0 0 24 24" fill="none" xmlns="http://www.w3.org/2000/svg">
<path d="M14 3.5C14.6529 3.5 15.207 3.91766 15.4131 4.5H17.5C18.6046 4.5 19.5 5.39543 19.5 6.5V19.5C19.5 20.5357 18.7128 21.387 17.7041 21.4893L17.5 21.5H6.5L6.2959 21.4893C5.35435 21.3938 4.6062 20.6457 4.51074 19.7041L4.5 19.5V6.5C4.5 5.39543 5.39543 4.5 6.5 4.5H8.58691C8.79297 3.91766 9.34707 3.5 10 3.5H14ZM6.5 5.5C5.94772 5.5 5.5 5.94772 5.5 6.5V19.5C5.5 20.0523 5.94772 20.5 6.5 20.5H17.5C18.0523 20.5 18.5 20.0523 18.5 19.5V6.5C18.5 5.94772 18.0523 5.5 17.5 5.5H15.4131C15.207 6.08234 14.6529 6.5 14 6.5H10C9.34707 6.5 8.79297 6.08234 8.58691 5.5H6.5ZM10 4.5C9.72386 4.5 9.5 4.72386 9.5 5C9.5 5.27614 9.72386 5.5 10 5.5H14C14.0344 5.5 14.0681 5.49686 14.1006 5.49023C14.1322 5.48378 14.1623 5.47307 14.1914 5.46094C14.3724 5.38571 14.5 5.20819 14.5 5C14.5 4.72386 14.2761 4.5 14 4.5H10Z" fill="#353C49"/>
<path d="M9 16.5H15" stroke="#353C49" stroke-linecap="round"/>
<path d="M9 18.5H15" stroke="#353C49" stroke-linecap="round"/>
<circle cx="11.9965" cy="11.5219" r="3" transform="rotate(-30 11.9965 11.5219)" stroke="#353C49" stroke-linejoin="round"/>
<path d="M15.0005 11.5195C15.0005 12.1129 14.8245 12.6929 14.4949 13.1862C14.1652 13.6796 13.6967 14.0641 13.1485 14.2912C12.6003 14.5182 11.9971 14.5776 11.4152 14.4619C10.8332 14.3461 10.2987 14.0604 9.87913 13.6408C9.45957 13.2213 9.17385 12.6867 9.0581 12.1048C8.94234 11.5229 9.00175 10.9197 9.22882 10.3715C9.45588 9.8233 9.8404 9.35476 10.3337 9.02512C10.8271 8.69548 11.4071 8.51953 12.0005 8.51953L12.0005 11.5195L15.0005 11.5195Z" stroke="#353C49" stroke-linejoin="round"/>
</svg>
