<svg width="24" height="24" viewBox="0 0 24 24" fill="none" xmlns="http://www.w3.org/2000/svg">
<path d="M16.5 12.498H20.5C20.7652 12.498 21.0196 12.6034 21.2071 12.7909C21.3946 12.9785 21.5 13.2328 21.5 13.498V20.498C21.5 20.7633 21.3946 21.0176 21.2071 21.2052C21.0196 21.3927 20.7652 21.498 20.5 21.498H15.5V13.498C15.5 13.2328 15.6054 12.9785 15.7929 12.7909C15.9804 12.6034 16.2348 12.498 16.5 12.498Z" stroke="#353C49"/>
<path d="M19.125 14.498H18.375C18.1679 14.498 18 14.6659 18 14.873V15.623C18 15.8302 18.1679 15.998 18.375 15.998H19.125C19.3321 15.998 19.5 15.8302 19.5 15.623V14.873C19.5 14.6659 19.3321 14.498 19.125 14.498Z" fill="#353C49"/>
<path d="M19.125 16.998H18.375C18.1679 16.998 18 17.1659 18 17.373V18.123C18 18.3302 18.1679 18.498 18.375 18.498H19.125C19.3321 18.498 19.5 18.3302 19.5 18.123V17.373C19.5 17.1659 19.3321 16.998 19.125 16.998Z" fill="#353C49"/>
<path d="M10.5 8.49805H3.5C3.23478 8.49805 2.98043 8.6034 2.79289 8.79094C2.60536 8.97848 2.5 9.23283 2.5 9.49805V20.498C2.5 20.7633 2.60536 21.0176 2.79289 21.2052C2.98043 21.3927 3.23478 21.498 3.5 21.498H11.5V9.49805C11.5 9.23283 11.3946 8.97848 11.2071 8.79094C11.0196 8.6034 10.7652 8.49805 10.5 8.49805Z" stroke="#353C49"/>
<path d="M19.5 21.5039H8M18.508 13.0039V6.00391C18.508 5.60608 18.35 5.22454 18.0687 4.94324C17.7874 4.66193 17.4058 4.50391 17.008 4.50391H8C7.60218 4.50391 7.22064 4.66193 6.93933 4.94324C6.65803 5.22454 6.5 5.60608 6.5 6.00391V8.49902" stroke="#353C49"/>
<path d="M5 12H9" stroke="#353C49" stroke-linecap="round"/>
<path d="M5 14H9" stroke="#353C49" stroke-linecap="round"/>
<path d="M8.125 17.5H5.875C5.66789 17.5 5.5 17.6791 5.5 17.9V21.1C5.5 21.3209 5.66789 21.5 5.875 21.5H8.125C8.33211 21.5 8.5 21.3209 8.5 21.1V17.9C8.5 17.6791 8.33211 17.5 8.125 17.5Z" stroke="#353C49"/>
</svg>
