<svg width="24" height="20" viewBox="0 0 24 20" fill="none" xmlns="http://www.w3.org/2000/svg">
<path d="M20.9635 19.7917V16.699H23.9583V19.7917H20.9635ZM13.4 17.3042C11.9951 18.208 10.3547 18.6772 8.68438 18.6531C3.54167 18.6521 0 14.676 0 9.32604C0 3.97604 3.54167 0 8.68438 0C13.8271 0 17.3698 3.97708 17.3698 9.32604C17.439 11.854 16.5158 14.3087 14.7979 16.1646L16.9406 18.6292L15.5427 19.7917L13.4 17.3042ZM1.94167 9.32604C1.94167 13.7448 4.85208 16.8615 8.68646 16.8615C9.91762 16.8749 11.1257 16.5272 12.1615 15.8615L9.90208 13.2292L11.301 12.0667L13.5333 14.6948C14.8032 13.1972 15.478 11.2848 15.4292 9.32188C15.4292 4.90313 12.5188 1.7875 8.68333 1.7875C4.84792 1.7875 1.93958 4.90729 1.93958 9.32604H1.94167Z" fill="#3B5DFB"/>
</svg>
