<svg width="28" height="28" viewBox="0 0 28 28" fill="none" xmlns="http://www.w3.org/2000/svg">
<path d="M25.9508 9.22509C25.9508 9.22509 25.7127 7.57821 24.9791 6.85508C24.0503 5.90335 23.012 5.89868 22.5357 5.8427C19.1253 5.6001 14.005 5.6001 14.005 5.6001H13.9954C13.9954 5.6001 8.87509 5.6001 5.46471 5.8427C4.98839 5.89868 3.95004 5.90335 3.02123 6.85508C2.28771 7.57821 2.05432 9.22509 2.05432 9.22509C2.05432 9.22509 1.80664 11.1612 1.80664 13.0927V14.9028C1.80664 16.8343 2.04956 18.7704 2.04956 18.7704C2.04956 18.7704 2.28771 20.4173 3.01647 21.1404C3.94527 22.0922 5.16463 22.0595 5.70762 22.1622C7.6605 22.3441 14.0002 22.4001 14.0002 22.4001C14.0002 22.4001 19.1253 22.3908 22.5357 22.1528C23.012 22.0968 24.0503 22.0922 24.9791 21.1404C25.7127 20.4173 25.9508 18.7704 25.9508 18.7704C25.9508 18.7704 26.1937 16.839 26.1937 14.9028V13.0927C26.1937 11.1612 25.9508 9.22509 25.9508 9.22509ZM11.4805 17.1002V10.3868L18.0679 13.7552L11.4805 17.1002Z" fill="#ACACAC"/>
</svg>
