<svg width="18" height="18" viewBox="0 0 18 18" fill="none" xmlns="http://www.w3.org/2000/svg">
<g clip-path="url(#clip0_2518_6439)">
<path d="M8 1C11.866 1 15 4.13401 15 8C15 9.75304 14.3559 11.3559 13.291 12.584L16.8545 16.1475C17.0493 16.3428 17.0496 16.6594 16.8545 16.8545C16.6592 17.0498 16.3417 17.0498 16.1465 16.8545L12.584 13.291C11.3559 14.3559 9.75303 15 8 15C4.13401 15 1 11.866 1 8C1 4.13401 4.13401 1 8 1ZM8 2C4.68629 2 2 4.68629 2 8C2 11.3137 4.68629 14 8 14C11.3137 14 14 11.3137 14 8C14 4.68629 11.3137 2 8 2Z" fill="#333333"/>
</g>
<defs>
<clipPath id="clip0_2518_6439">
<rect width="18" height="18" fill="white"/>
</clipPath>
</defs>
</svg>
