<svg width="18" height="18" viewBox="0 0 18 18" fill="none" xmlns="http://www.w3.org/2000/svg">
<g clip-path="url(#clip0_2268_13660)">
<path fill-rule="evenodd" clip-rule="evenodd" d="M7 3.25001H4C3.58579 3.25001 3.25 3.5858 3.25 4.00001V14C3.25 14.4142 3.58579 14.75 4 14.75H14C14.4142 14.75 14.75 14.4142 14.75 14V11C14.7631 10.6664 15.0382 10.4 15.375 10.4C15.7118 10.4 15.9864 10.6664 15.9995 11L16 11.025V14C16 15.1046 15.1046 16 14 16H4C2.89543 16 2 15.1046 2 14V4.00001C2 2.89544 2.89543 2.00001 4 2.00001H7C7.00826 1.99969 7.01656 2.00001 7.0249 2.00001C7.37008 2.00001 7.6499 2.27983 7.6499 2.62501C7.6499 2.97019 7.37008 3.25001 7.0249 3.25001C7.01656 3.25001 7.00826 3.25034 7 3.25001Z" fill="white"/>
<path fill-rule="evenodd" clip-rule="evenodd" d="M11.2254 1.92865C11.4514 1.82846 11.7152 1.87087 11.8984 2.03684L15.9196 5.6801C16.0504 5.79858 16.125 5.96681 16.125 6.14327C16.125 6.31973 16.0504 6.48797 15.9196 6.60645L11.8984 10.2497C11.7152 10.4157 11.4514 10.4581 11.2254 10.3579C10.9994 10.2577 10.8537 10.0337 10.8537 9.78652L10.8538 8.1528C9.82184 8.32326 8.93756 8.89175 8.25747 9.49493C7.85584 9.85115 7.54077 10.2061 7.32609 10.4676C7.22106 10.5955 7.14073 10.7002 7.0835 10.7747L7.07615 10.7843C7.05174 10.8161 7.02306 10.8535 7.00058 10.8806C7.00047 10.8807 7.00084 10.8802 7.00058 10.8806C6.99516 10.8872 6.95656 10.9346 6.90606 10.977C6.89058 10.99 6.85291 11.0207 6.79893 11.0498L6.79754 11.0505C6.76617 11.0675 6.60175 11.1565 6.38143 11.1136C6.24684 11.0875 6.12045 11.0168 6.02625 10.9072C5.9402 10.807 5.90538 10.7031 5.89048 10.6373C5.87748 10.5799 5.87439 10.5277 5.87513 10.4863C5.87825 8.89508 6.55144 7.33635 7.55872 6.17596C8.42443 5.17867 9.58479 4.42379 10.8537 4.23256L10.8537 2.50001C10.8537 2.25282 10.9994 2.02885 11.2254 1.92865ZM12.1037 3.90963L12.1037 4.81037C12.1037 5.15555 11.8239 5.43537 11.4787 5.43537C10.4321 5.43537 9.34677 6.02299 8.50268 6.99538C8.13503 7.41891 7.82545 7.90213 7.59347 8.41669C8.51126 7.64292 9.84136 6.85117 11.4788 6.85117C11.6446 6.85117 11.8035 6.91703 11.9208 7.03424C12.038 7.15145 12.1038 7.31043 12.1038 7.47619L12.1038 8.37688L14.5691 6.14327L12.1037 3.90963ZM7.11695 10.5981C7.12013 10.5786 7.12238 10.559 7.12371 10.5394C7.12187 10.5681 7.11848 10.5888 7.11695 10.5981Z" fill="white"/>
</g>
<defs>
<clipPath id="clip0_2268_13660">
<rect width="18" height="18" fill="white"/>
</clipPath>
</defs>
</svg>
