<svg width="40" height="40" viewBox="0 0 40 40" fill="none" xmlns="http://www.w3.org/2000/svg">
<path d="M6.52632 36.0002C5.8563 36.0002 5.21391 35.7407 4.74013 35.2791C4.26636 34.8175 4 34.1916 4 33.5387V32.7182C4 29.6717 5.24299 26.7492 7.45395 24.595C9.6649 22.4408 12.6627 21.2313 15.7895 21.2313H24.2105C27.3373 21.2313 30.3351 22.4408 32.5461 24.595C34.757 26.7492 36 29.6717 36 32.7182V33.5387C36 34.1916 35.7336 34.8175 35.2599 35.2791C34.7861 35.7407 34.1437 36.0002 33.4737 36.0002H6.52632ZM12.8618 11.385C12.8618 9.92452 13.3054 8.49692 14.1382 7.28254C14.9709 6.06817 16.1546 5.12195 17.5395 4.56304C18.9243 4.00412 20.4476 3.85664 21.9178 4.14157C23.3879 4.4265 24.7394 5.12963 25.7993 6.16237C26.8593 7.19511 27.5826 8.51191 27.875 9.94436C28.1674 11.3768 28.0177 12.861 27.4441 14.2103C26.8704 15.5596 25.8977 16.7129 24.6513 17.5244C23.405 18.3358 21.9398 18.7695 20.4408 18.7695C18.431 18.7695 16.5035 17.9906 15.0822 16.6061C13.661 15.2216 12.8623 13.3432 12.8618 11.385Z" fill="url(#paint0_linear_3824_7344)"/>
<defs>
<linearGradient id="paint0_linear_3824_7344" x1="-6.5" y1="-14.0001" x2="29.5" y2="28.5002" gradientUnits="userSpaceOnUse">
<stop stop-color="#69B6FF"/>
<stop offset="1" stop-color="#628EFA"/>
</linearGradient>
</defs>
</svg>
