<svg width="11" height="15" viewBox="0 0 11 15" fill="none" xmlns="http://www.w3.org/2000/svg">
<path fill-rule="evenodd" clip-rule="evenodd" d="M7.0188 -0.000854492C5.07717 -0.000854492 3.50317 1.57314 3.50317 3.51477V9.71686C3.50317 10.8301 4.4056 11.7325 5.5188 11.7325C6.632 11.7325 7.53442 10.8301 7.53442 9.71685V4.01477H6.53442V9.71685C6.53442 10.2778 6.07971 10.7325 5.5188 10.7325C4.95788 10.7325 4.50317 10.2778 4.50317 9.71686V3.51477C4.50317 2.12543 5.62946 0.999146 7.0188 0.999146C8.40814 0.999146 9.53442 2.12543 9.53442 3.51477V9.98352C9.53442 12.2013 7.73657 13.9991 5.5188 13.9991C3.30103 13.9991 1.50317 12.2013 1.50317 9.98352V1.99915H0.503174V9.98352C0.503174 12.7536 2.74875 14.9991 5.5188 14.9991C8.28885 14.9991 10.5344 12.7536 10.5344 9.98352V3.51477C10.5344 1.57314 8.96042 -0.000854492 7.0188 -0.000854492Z" fill="#333333"/>
</svg>
