<svg width="18" height="19" viewBox="0 0 18 19" fill="none" xmlns="http://www.w3.org/2000/svg">
<path fill-rule="evenodd" clip-rule="evenodd" d="M7.03797 3.76012C7.31411 3.76012 7.53797 3.98397 7.53797 4.26012V17.1181C7.53797 17.6077 7.34348 18.0772 6.99729 18.4234C6.6511 18.7696 6.18156 18.9641 5.69197 18.9641H5.44902C5.02226 18.9641 4.60862 18.8163 4.27857 18.5458C3.94851 18.2752 3.72239 17.8987 3.63868 17.4802L2.50868 11.8302C2.45452 11.5594 2.63013 11.296 2.90091 11.2418C3.17169 11.1877 3.4351 11.3633 3.48926 11.6341L4.61926 17.284C4.65762 17.4758 4.76125 17.6484 4.91251 17.7724C5.06378 17.8964 5.25333 17.9641 5.44892 17.9641H5.69197C5.91634 17.9641 6.13153 17.875 6.29018 17.7163C6.44884 17.5577 6.53797 17.3425 6.53797 17.1181V4.26012C6.53797 3.98397 6.76183 3.76012 7.03797 3.76012Z" fill="#3B5DFB"/>
<path d="M15 5.00012C15.7956 5.00012 16.5587 5.31619 17.1213 5.8788C17.6839 6.44141 18 7.20447 18 8.00012C18 8.79577 17.6839 9.55883 17.1213 10.1214C16.5587 10.6841 15.7956 11.0001 15 11.0001V5.00012Z" fill="#3B5DFB"/>
<path fill-rule="evenodd" clip-rule="evenodd" d="M8.40795 12.1181C8.68805 12.1186 8.9614 12.204 9.19195 12.3631L14.234 15.8111C14.4154 15.9343 14.6296 16.0005 14.849 16.0011C15.0024 16.0007 15.1541 15.9684 15.2944 15.9062C15.4347 15.8441 15.5606 15.7534 15.664 15.6401C15.8835 15.4042 16.0045 15.0933 16.002 14.7711V1.2301C16.0022 1.00508 15.9439 0.783833 15.833 0.588066C15.7603 0.452619 15.6604 0.333761 15.5395 0.238884C15.4185 0.144007 15.2792 0.0751961 15.1304 0.0368577C14.9816 -0.0014806 14.8264 -0.00854692 14.6747 0.0161058C14.523 0.0407585 14.378 0.0966127 14.249 0.180107L9.18896 3.48809C8.9637 3.6368 8.69987 3.71641 8.42995 3.71709H3.92495C2.84887 3.75699 1.83232 4.22111 1.09728 5.00805C0.362245 5.79499 -0.0315236 6.84081 0.00197497 7.91711C-0.0082654 9.01604 0.401672 10.0774 1.14797 10.8841C1.50062 11.2706 1.92954 11.5798 2.40768 11.7922C2.88581 12.0046 3.40278 12.1155 3.92596 12.1181H8.40795ZM3.92857 11.1181H8.40978C8.89128 11.119 9.36124 11.2656 9.75783 11.5386L9.75984 11.54L14.7958 14.9838C14.8114 14.9942 14.8303 15.0005 14.849 15.0011C14.8629 15.0007 14.8766 14.9976 14.8894 14.9919C14.9029 14.9859 14.9151 14.9772 14.9251 14.9662L14.932 14.9587C14.9775 14.9098 15.0025 14.8455 15.002 14.7789L15.0019 14.7711L15.002 1.2301C15.002 1.17816 14.9886 1.12629 14.963 1.08112L14.9572 1.071L14.9517 1.06075C14.9445 1.04725 14.9345 1.03529 14.9222 1.02563C14.9099 1.016 14.8958 1.00908 14.881 1.00525C14.866 1.00139 14.8503 1.00068 14.8351 1.00316C14.8202 1.00557 14.806 1.01098 14.7932 1.01907L14.7922 1.01969L9.73991 4.32263L9.7377 4.32408C9.35018 4.57931 8.89657 4.71591 8.4325 4.71709L8.42995 4.7171L3.94478 4.71709C3.1391 4.75148 2.37887 5.10096 1.82808 5.69065C1.27337 6.28452 0.976211 7.07376 1.00149 7.886L1.00212 7.90621L1.00193 7.92642C0.994067 8.77038 1.30889 9.58545 1.88203 10.205L1.88667 10.21C2.14621 10.4944 2.46183 10.722 2.81363 10.8783C3.16474 11.0342 3.54433 11.1159 3.92857 11.1181Z" fill="#111111"/>
</svg>
