<svg width="72" height="72" viewBox="0 0 72 72" fill="none" xmlns="http://www.w3.org/2000/svg">
<path d="M5 32C5 29.7909 6.79086 28 9 28H63C65.2091 28 67 29.7909 67 32V63C67 63.5523 66.5523 64 66 64H6C5.44771 64 5 63.5523 5 63V32Z" fill="url(#paint0_linear_5316_36704)"/>
<g clip-path="url(#clip0_5316_36704)">
<path d="M13.9999 12C13.9999 9.79086 15.7907 8 17.9999 8H53.9999C56.209 8 57.9999 9.79086 57.9999 12V64H13.9999V12Z" fill="url(#paint1_linear_5316_36704)"/>
<path d="M27.9999 56C27.9999 53.7909 29.7907 52 31.9999 52H39.9999C42.209 52 43.9999 53.7909 43.9999 56V64H27.9999V56Z" fill="#1E252A"/>
<rect x="22.9999" y="20" width="6" height="6" rx="1.5" fill="white"/>
<rect x="32.9999" y="20" width="6" height="6" rx="1.5" fill="white"/>
<rect x="42.9999" y="20" width="6" height="6" rx="1.5" fill="white"/>
<rect x="22.9999" y="30" width="6" height="6" rx="1.5" fill="white"/>
<rect x="32.9999" y="30" width="6" height="6" rx="1.5" fill="white"/>
<rect x="42.9999" y="30" width="6" height="6" rx="1.5" fill="white"/>
<rect x="22.9999" y="40" width="6" height="6" rx="1.5" fill="white"/>
<rect x="32.9999" y="40" width="6" height="6" rx="1.5" fill="white"/>
<rect x="42.9999" y="40" width="6" height="6" rx="1.5" fill="white"/>
</g>
<defs>
<linearGradient id="paint0_linear_5316_36704" x1="36" y1="88" x2="36.1186" y2="19.0002" gradientUnits="userSpaceOnUse">
<stop stop-color="white"/>
<stop offset="1" stop-color="#C5D4FD"/>
</linearGradient>
<linearGradient id="paint1_linear_5316_36704" x1="35.9017" y1="83.7647" x2="35.8606" y2="8.46071" gradientUnits="userSpaceOnUse">
<stop stop-color="#C5D4FD"/>
<stop offset="1" stop-color="#3869FC"/>
</linearGradient>
<clipPath id="clip0_5316_36704">
<rect width="44" height="56" fill="white" transform="translate(13.9999 8)"/>
</clipPath>
</defs>
</svg>
