<svg width="32" height="32" viewBox="0 0 32 32" fill="none" xmlns="http://www.w3.org/2000/svg">
<path d="M16 3.00098C23.1797 3.00098 29 8.82128 29 16.001C29 23.1807 23.1797 29.001 16 29.001C8.8203 29.001 3 23.1807 3 16.001C3 8.82128 8.8203 3.00098 16 3.00098ZM21.207 10.7939C20.8165 10.4034 20.1835 10.4035 19.793 10.7939L16 14.5869L12.207 10.7939C11.8165 10.4034 11.1835 10.4035 10.793 10.7939C10.4024 11.1845 10.4024 11.8175 10.793 12.208L14.5859 16.001L10.793 19.7939C10.4024 20.1845 10.4024 20.8175 10.793 21.208C11.1835 21.5984 11.8166 21.5985 12.207 21.208L16 17.415L19.793 21.208C20.1835 21.5984 20.8166 21.5985 21.207 21.208C21.5974 20.8175 21.5974 20.1845 21.207 19.7939L17.4141 16.001L21.207 12.208C21.5974 11.8175 21.5974 11.1845 21.207 10.7939Z" fill="#E94D65"/>
</svg>
