<svg width="72" height="72" viewBox="0 0 72 72" fill="none" xmlns="http://www.w3.org/2000/svg">
<path d="M20.3308 9H41.9885C42.4854 9.01903 42.9544 9.23445 43.2927 9.59897C43.6308 9.96349 43.8106 10.4473 43.7924 10.9442L38.377 21.6327H23.0385L18.527 10.9442C18.5088 10.4473 18.6885 9.96349 19.0267 9.59897C19.3649 9.23445 19.834 9.01903 20.3308 9Z" fill="url(#paint0_linear_4193_12757)"/>
<path d="M8 40C8 27.2975 18.2975 17 31 17C43.7025 17 54 27.2975 54 40V49.3077C54 54.6606 49.6606 59 44.3077 59H17.6923C12.3394 59 8 54.6606 8 49.3077V40Z" fill="url(#paint1_linear_4193_12757)"/>
<path d="M35.1126 46.9965C34.7938 47.018 34.477 46.9317 34.2132 46.7515C33.9493 46.5713 33.7537 46.3077 33.6577 46.0029L30.8698 37.8418L28.082 45.9973C27.9872 46.3039 27.7915 46.5695 27.5267 46.7509C27.2619 46.9323 26.9436 47.0189 26.6234 46.9965C26.3045 47.0184 25.9876 46.9322 25.7237 46.7519C25.4598 46.5717 25.2642 46.3078 25.1685 46.0029L22.7313 38.8523H20.8321C20.5189 38.84 20.2226 38.7069 20.0053 38.481C19.7881 38.255 19.6667 37.9537 19.6667 37.6403C19.6667 37.3268 19.7881 37.0255 20.0053 36.7996C20.2226 36.5736 20.5189 36.4405 20.8321 36.4282H21.8932L21.0777 34.0322C20.9449 33.661 20.9591 33.253 21.1174 32.8919C21.2756 32.5308 21.5659 32.2439 21.9288 32.0899C22.1079 32.0239 22.2985 31.9951 22.489 32.0053C22.6795 32.0155 22.866 32.0645 23.0369 32.1493C23.2079 32.2341 23.3597 32.3528 23.4832 32.4983C23.6066 32.6438 23.6991 32.8129 23.7549 32.9954L26.6253 41.3908L29.4956 32.9973C29.5902 32.7073 29.774 32.4547 30.0209 32.2756C30.2677 32.0965 30.5649 32 30.8698 32C31.1748 32 31.472 32.0965 31.7188 32.2756C31.9657 32.4547 32.1495 32.7073 32.2441 32.9973L35.1144 41.3927L37.9848 32.9973C38.0406 32.8148 38.1331 32.6457 38.2565 32.5002C38.38 32.3547 38.5318 32.2359 38.7028 32.1512C38.8737 32.0664 39.0602 32.0174 39.2507 32.0072C39.4412 31.997 39.6318 32.0257 39.8109 32.0917C40.1741 32.2454 40.4647 32.5323 40.623 32.8935C40.7813 33.2547 40.7952 33.6629 40.662 34.0341L39.8427 36.4226H40.9057C41.219 36.4349 41.5152 36.568 41.7325 36.7939C41.9497 37.0199 42.0711 37.3212 42.0711 37.6346C42.0711 37.9481 41.9497 38.2494 41.7325 38.4753C41.5152 38.7013 41.219 38.8344 40.9057 38.8467H39.0141L36.5768 45.9973C36.4859 46.2838 36.3072 46.5345 36.066 46.7139C35.8247 46.8932 35.5331 46.9921 35.2325 46.9965H35.1126Z" fill="white"/>
<path d="M52.6667 64C46.0499 64 40.6667 58.6168 40.6667 52C40.6667 45.3832 46.0499 40 52.6667 40C59.2836 40 64.6667 45.3832 64.6667 52C64.6667 58.6168 59.2836 64 52.6667 64Z" fill="#1E252A"/>
<path d="M58.6667 50.999H54.6677V55.001L50.6667 59V50.999L54.6677 47H58.6667V50.999ZM50.6658 50.999H46.6667V47H50.6658V50.999Z" fill="white"/>
<defs>
<linearGradient id="paint0_linear_4193_12757" x1="31.1033" y1="43" x2="31.0951" y2="4.5" gradientUnits="userSpaceOnUse">
<stop stop-color="#C5D4FD"/>
<stop offset="1" stop-color="#0046FF"/>
</linearGradient>
<linearGradient id="paint1_linear_4193_12757" x1="36" y1="0.5" x2="36.028" y2="72" gradientUnits="userSpaceOnUse">
<stop stop-color="#C5D4FD"/>
<stop offset="1" stop-color="#0046FF"/>
</linearGradient>
</defs>
</svg>
