<svg width="32" height="32" viewBox="0 0 32 32" fill="none" xmlns="http://www.w3.org/2000/svg">
<path d="M16 3.00146C23.1797 3.00146 29 8.82176 29 16.0015C29 23.1812 23.1797 29.0015 16 29.0015C8.82029 29.0014 3 23.1812 3 16.0015C3 8.82178 8.82029 3.00149 16 3.00146ZM15.9961 20.5015C15.3057 20.5015 14.7461 21.0611 14.7461 21.7515C14.7461 22.4418 15.3057 23.0015 15.9961 23.0015C16.6865 23.0015 17.2461 22.4418 17.2461 21.7515C17.2461 21.0611 16.6865 20.5015 15.9961 20.5015ZM16.7197 9.06689C16.1427 8.96135 15.5497 8.98407 14.9824 9.1333C14.415 9.2826 13.8869 9.55517 13.4365 9.93115C12.9863 10.3071 12.6242 10.7776 12.376 11.3091C12.1278 11.8405 11.9993 12.4199 12 13.0063C12 13.2716 12.1054 13.5268 12.293 13.7144C12.4805 13.9017 12.7349 14.0063 13 14.0063C13.2651 14.0063 13.5195 13.9017 13.707 13.7144C13.8946 13.5268 14 13.2716 14 13.0063C14.0001 12.6441 14.0988 12.2887 14.2852 11.978C14.4716 11.6673 14.7389 11.4133 15.0586 11.2427C15.3783 11.0721 15.7386 10.9911 16.1006 11.0093C16.4623 11.0275 16.8124 11.1436 17.1133 11.3452C17.4143 11.547 17.6552 11.827 17.8096 12.1548C17.9639 12.4827 18.0265 12.8469 17.9902 13.2075C17.9539 13.568 17.8201 13.9122 17.6035 14.2026C17.3869 14.4931 17.0949 14.7192 16.7598 14.8569C16.2284 15.0855 15.7773 15.4674 15.4639 15.9536C15.1505 16.4398 14.9888 17.0081 15 17.5864V18.0015C15 18.2667 15.1054 18.521 15.293 18.7085C15.4805 18.896 15.7348 19.0015 16 19.0015C16.2652 19.0015 16.5195 18.896 16.707 18.7085C16.8946 18.521 17 18.2667 17 18.0015V17.5864C16.9915 17.4026 17.0377 17.2201 17.1318 17.062C17.2261 16.904 17.3646 16.7768 17.5303 16.6968C18.3754 16.3479 19.0752 15.7198 19.5137 14.9175C19.9522 14.115 20.1033 13.1864 19.9404 12.2866C19.7949 11.4863 19.4082 10.7496 18.833 10.1743C18.2577 9.59899 17.5202 9.21243 16.7197 9.06689Z" fill="#5C87F9"/>
</svg>
