<svg width="32" height="32" viewBox="0 0 32 32" fill="none" xmlns="http://www.w3.org/2000/svg">
<path fill-rule="evenodd" clip-rule="evenodd" d="M9.67894 7C9.9655 7.00012 10.2501 7.05633 10.5149 7.16602C10.7795 7.27577 11.0203 7.43706 11.2229 7.63965L13.3625 9.77832C13.6865 10.1024 13.9004 10.5203 13.9739 10.9727C14.0473 11.4251 13.9767 11.8899 13.7717 12.2998L13.177 13.4873C13.0086 13.8243 12.9507 14.2063 13.011 14.5781C13.0714 14.95 13.2476 15.294 13.5139 15.5605L16.4397 18.4863C16.7062 18.7528 17.0501 18.9288 17.4221 18.9893C17.7943 19.0496 18.1767 18.9918 18.5139 18.8232L19.7014 18.2285C20.1112 18.0238 20.5754 17.953 21.0276 18.0264C21.4799 18.0999 21.8989 18.3136 22.2229 18.6377L24.3606 20.7773C24.7698 21.1869 25.0002 21.7423 25.0002 22.3213C25.0002 22.9003 24.7698 23.4557 24.3606 23.8652L22.7707 25.4561C22.0119 26.2147 21.0394 26.7236 19.9836 26.915C18.9279 27.1063 17.8383 26.9713 16.8616 26.5273C11.8138 24.2329 7.76748 20.1872 5.47289 15.1396C5.02853 14.1625 4.89366 13.0728 5.08519 12.0166C5.27678 10.9603 5.78592 9.98744 6.54516 9.22852L8.13402 7.63965C8.33667 7.43706 8.57732 7.27573 8.84203 7.16602C9.10695 7.05632 9.39221 7 9.67894 7ZM9.67894 8.25C9.55639 8.25 9.43379 8.27444 9.32055 8.32129C9.23589 8.35641 9.1568 8.40403 9.08617 8.46191L9.01781 8.52344L7.42894 10.1123C6.84976 10.6912 6.46087 11.4335 6.31469 12.2393C6.16855 13.045 6.27163 13.8766 6.61058 14.6221L6.81957 15.0664C9.02085 19.6318 12.7546 23.288 17.3782 25.3896C18.1234 25.7284 18.9554 25.8315 19.761 25.6855C20.5663 25.5395 21.3081 25.1509 21.887 24.5723L23.4768 22.9814C23.6517 22.8063 23.7502 22.5688 23.7502 22.3213C23.7502 22.0738 23.6517 21.8362 23.4768 21.6611L21.3381 19.5215C21.1996 19.3831 21.0206 19.2912 20.8274 19.2598C20.6342 19.2285 20.4351 19.2583 20.26 19.3457L19.0735 19.9404L19.0725 19.9414C18.5007 20.2272 17.8529 20.326 17.2219 20.2236C16.591 20.1211 16.0078 19.822 15.5559 19.3701L12.6291 16.4443C12.1775 15.9922 11.8789 15.4082 11.7766 14.7773C11.6745 14.1465 11.774 13.4993 12.0598 12.9277L12.6536 11.7402L12.7082 11.6055C12.7524 11.4665 12.764 11.3181 12.7405 11.1729C12.7091 10.9795 12.6172 10.8007 12.4787 10.6621L10.3391 8.52441C10.2526 8.4379 10.1494 8.36822 10.0364 8.32129C9.92331 8.27445 9.80132 8.25013 9.67894 8.25Z" fill="#222222"/>
<path d="M16.5424 10.4099C17.6429 10.3116 18.8979 10.8503 19.8686 11.821C20.8416 12.7941 21.3684 14.04 21.2797 15.1413C21.2518 15.4852 20.9499 15.7423 20.6059 15.7146C20.3053 15.69 20.0719 15.4559 20.0366 15.1677L20.0336 15.0407L20.0395 14.9157C20.0446 14.2763 19.7162 13.4363 18.9848 12.7048C18.2022 11.9222 17.2927 11.5981 16.6538 11.655C16.3103 11.6855 16.007 11.432 15.976 11.0886C15.9453 10.7449 16.1987 10.4407 16.5424 10.4099Z" fill="#3869FC"/>
<path d="M17.3217 7.01633C19.0275 6.82884 20.9953 7.60213 22.5336 9.14036C24.0706 10.6774 24.8541 12.6537 24.6577 14.3562C24.6181 14.6989 24.308 14.9443 23.9653 14.905C23.6225 14.8654 23.3761 14.5554 23.4155 14.2126C23.5582 12.9738 22.9834 11.3577 21.6499 10.0241C20.3178 8.69221 18.7081 8.12119 17.4585 8.25852C17.1154 8.29621 16.8068 8.04877 16.769 7.70579C16.7315 7.3629 16.9789 7.05418 17.3217 7.01633Z" fill="#3869FC"/>
</svg>
