<svg width="18" height="18" viewBox="0 0 18 18" fill="none" xmlns="http://www.w3.org/2000/svg">
<path d="M10.5 1C9.57174 1 8.68152 1.36877 8.02515 2.02515C7.36877 2.68152 7 3.57174 7 4.5V12C7 12.5304 7.21074 13.0391 7.58582 13.4142C7.96089 13.7893 8.46957 14 9 14C9.53043 14 10.0391 13.7893 10.4142 13.4142C10.7893 13.0391 11 12.5304 11 12V5H10V12C10 12.2652 9.89463 12.5196 9.70709 12.7071C9.51956 12.8946 9.26522 13 9 13C8.73478 13 8.48044 12.8946 8.29291 12.7071C8.10537 12.5196 8 12.2652 8 12V4.5C8 3.83696 8.2634 3.20108 8.73224 2.73224C9.20108 2.2634 9.83696 2 10.5 2C11.163 2 11.7989 2.2634 12.2678 2.73224C12.7366 3.20108 13 3.83696 13 4.5V12C13 13.0609 12.5786 14.0783 11.8284 14.8284C11.0783 15.5786 10.0609 16 9 16C7.93913 16 6.92172 15.5786 6.17157 14.8284C5.42142 14.0783 5 13.0609 5 12V3H4V12C4 13.3261 4.5268 14.5978 5.46448 15.5355C6.40216 16.4732 7.67392 17 9 17C10.3261 17 11.5978 16.4732 12.5355 15.5355C13.4732 14.5978 14 13.3261 14 12V4.5C14 3.57174 13.6312 2.68152 12.9749 2.02515C12.3185 1.36877 11.4283 1 10.5 1Z" fill="#222222"/>
</svg>
