<svg width="32" height="32" viewBox="0 0 32 32" fill="none" xmlns="http://www.w3.org/2000/svg">
<g clip-path="url(#clip0_4193_18104)">
<path d="M24 22.75V24H8V22.75H24ZM25.75 21V10C25.75 9.0335 24.9665 8.25 24 8.25H8C7.0335 8.25 6.25 9.0335 6.25 10V21C6.25 21.9665 7.0335 22.75 8 22.75V24L7.8457 23.9961C6.31166 23.9184 5.08163 22.6883 5.00391 21.1543L5 21V10C5 8.34315 6.34315 7 8 7H24C25.6569 7 27 8.34315 27 10V21C27 22.6051 25.7394 23.9158 24.1543 23.9961L24 24V22.75C24.9665 22.75 25.75 21.9665 25.75 21Z" fill="#222222"/>
<path d="M22.6455 10.4853C22.9298 10.2895 23.3188 10.3612 23.5146 10.6455C23.7104 10.9298 23.6388 11.3188 23.3545 11.5146L17.2725 15.7041C16.3481 16.3405 15.1211 16.319 14.2197 15.6504L8.62793 11.5019C8.35075 11.2963 8.29255 10.9052 8.49805 10.6279C8.70365 10.3507 9.09485 10.2925 9.37207 10.498L14.9648 14.6465C15.437 14.9966 16.0794 15.0072 16.5635 14.6738L22.6455 10.4853Z" fill="#3869FC"/>
</g>
<defs>
<clipPath id="clip0_4193_18104">
<rect width="22" height="17" fill="white" transform="translate(5 7)"/>
</clipPath>
</defs>
</svg>
