<svg width="18" height="18" viewBox="0 0 18 18" fill="none" xmlns="http://www.w3.org/2000/svg">
<path d="M3 15C2.86739 15 2.74025 14.9473 2.64648 14.8535C2.55272 14.7597 2.5 14.6326 2.5 14.5V11.5C2.5 11.3674 2.55272 11.2403 2.64648 11.1465C2.74025 11.0527 2.86739 11 3 11C3.13261 11 3.25975 11.0527 3.35352 11.1465C3.44728 11.2403 3.5 11.3674 3.5 11.5V14H14.5V11.5C14.5 11.3674 14.5527 11.2403 14.6465 11.1465C14.7403 11.0527 14.8674 11 15 11C15.1326 11 15.2597 11.0527 15.3535 11.1465C15.4473 11.2403 15.5 11.3674 15.5 11.5V14.5C15.5 14.6326 15.4473 14.7597 15.3535 14.8535C15.2597 14.9473 15.1326 15 15 15H3ZM8.68408 10.3879L5.14795 6.854C5.05657 6.75997 5.00559 6.63381 5.00635 6.50269C5.0071 6.37156 5.0594 6.24606 5.15186 6.15308C5.24431 6.0601 5.36986 6.00711 5.50098 6.00562C5.63209 6.00412 5.75848 6.05417 5.85303 6.14502L8.49902 8.79004V2.5C8.49902 2.36739 8.55174 2.24025 8.64551 2.14648C8.73928 2.05272 8.86642 2 8.99902 2C9.13163 2 9.25877 2.05272 9.35254 2.14648C9.44631 2.24025 9.49902 2.36739 9.49902 2.5V8.86304L12.2178 6.146C12.3118 6.05211 12.4394 5.99942 12.5723 5.99951C12.7051 5.99961 12.8324 6.05246 12.9263 6.14648C13.0202 6.2405 13.0728 6.36786 13.0728 6.50073C13.0727 6.6336 13.0198 6.76109 12.9258 6.85498L9.39014 10.3889C9.3437 10.4355 9.28828 10.4726 9.22754 10.4978C9.16679 10.523 9.10191 10.5359 9.03613 10.5359C8.90384 10.5351 8.77722 10.4819 8.68408 10.3879Z" fill="#222222"/>
</svg>
