<svg width="32" height="32" viewBox="0 0 32 32" fill="none" xmlns="http://www.w3.org/2000/svg">
<path d="M18.6533 6.00781C19.2882 6.08894 19.6973 6.75546 19.4512 7.37109L18.3926 10.0166C20.1897 10.8979 21.6842 12.3017 22.6768 14.0312C26.1074 14.3603 28.8151 17.1665 28.9912 20.6396L29 21C29 24.866 25.866 28 22 28C20.6807 28 19.4469 27.6345 18.3936 27H8.90918L8.65625 26.9932C6.06255 26.8616 4 24.7172 4 22.0908V19C4 15.0536 6.28646 11.6422 9.60645 10.0156L9.74902 10.3711C9.76576 10.4129 9.78587 10.4527 9.80762 10.4912L9.74902 10.3711L8.54883 7.37109C8.28629 6.71442 8.76941 6.00032 9.47656 6H18.5234L18.6533 6.00781ZM18.1387 26.8379C18.1921 26.8733 18.2463 26.9074 18.3008 26.9414C18.2463 26.9074 18.1921 26.8733 18.1387 26.8379ZM17.8926 26.667C17.9366 26.6989 17.9806 26.7308 18.0254 26.7617C17.9806 26.7308 17.9366 26.6989 17.8926 26.667ZM22 15.25C18.8244 15.25 16.25 17.8244 16.25 21C16.25 24.1756 18.8244 26.75 22 26.75C25.1756 26.75 27.75 24.1756 27.75 21C27.75 17.8244 25.1756 15.25 22 15.25ZM17.5723 26.4219C17.6392 26.4766 17.7074 26.5298 17.7764 26.582C17.7074 26.5298 17.6392 26.4766 17.5723 26.4219ZM17.3555 26.2363C17.3902 26.2671 17.4256 26.297 17.4609 26.3271C17.4256 26.297 17.3902 26.2671 17.3555 26.2363ZM17.1777 26.0713C17.1941 26.0868 17.2101 26.1028 17.2266 26.1182C17.2101 26.1028 17.1941 26.0868 17.1777 26.0713ZM17.4736 10.9883L17.3232 11H10.6768C10.615 11 10.5544 10.9924 10.4951 10.9814C7.40763 12.3329 5.25 15.414 5.25 19V22.0908C5.25 24.1117 6.88832 25.75 8.90918 25.75H16.8594C15.7056 24.502 15 22.8336 15 21L15.0088 20.6396C15.1834 17.1953 17.8481 14.4089 21.2383 14.042C21.2292 14.043 21.22 14.0439 21.2109 14.0449C20.2903 12.7077 19.008 11.6388 17.5049 10.9805C17.4944 10.9824 17.4842 10.9867 17.4736 10.9883ZM21.6172 14.0107C21.5921 14.0121 21.567 14.0149 21.542 14.0166C21.5671 14.015 21.5921 14.0121 21.6172 14.0107ZM10.1367 10.8389C10.1413 10.8418 10.1458 10.8448 10.1504 10.8477C10.1458 10.8448 10.1413 10.8418 10.1367 10.8389ZM10.0273 10.7568C10.0361 10.7643 10.0447 10.7721 10.0537 10.7793C10.0447 10.7721 10.0361 10.7644 10.0273 10.7568ZM9.94238 10.6758C9.94723 10.681 9.95207 10.6863 9.95703 10.6914C9.95208 10.6863 9.94723 10.681 9.94238 10.6758ZM9.85547 10.5664C9.86308 10.5774 9.86991 10.5889 9.87793 10.5996C9.86991 10.5889 9.86308 10.5774 9.85547 10.5664ZM10.8467 9.75H17.1533L18.1543 7.25H9.8457L10.8467 9.75Z" fill="#222222"/>
<path d="M23.4145 23.9988C23.3082 24.006 23.2026 23.9772 23.1147 23.9172C23.0267 23.8571 22.9615 23.7692 22.9295 23.6676L22.0002 20.9473L21.071 23.6658C21.0394 23.768 20.9741 23.8565 20.8859 23.917C20.7976 23.9774 20.6915 24.0063 20.5847 23.9988C20.4785 24.0061 20.3728 23.9774 20.2848 23.9173C20.1969 23.8572 20.1317 23.7693 20.0998 23.6676L19.2874 21.2841H18.6543C18.5499 21.28 18.4511 21.2356 18.3787 21.1603C18.3063 21.085 18.2659 20.9846 18.2659 20.8801C18.2659 20.7756 18.3063 20.6752 18.3787 20.5999C18.4511 20.5245 18.5499 20.4802 18.6543 20.4761H19.008L18.7362 19.6774C18.6919 19.5537 18.6967 19.4177 18.7494 19.2973C18.8022 19.1769 18.8989 19.0813 19.0199 19.03C19.0796 19.008 19.1431 18.9984 19.2066 19.0018C19.2701 19.0052 19.3323 19.0215 19.3893 19.0498C19.4462 19.078 19.4969 19.1176 19.538 19.1661C19.5792 19.2146 19.61 19.271 19.6286 19.3318L20.5854 22.1303L21.5422 19.3324C21.5737 19.2358 21.635 19.1516 21.7172 19.0919C21.7995 19.0322 21.8986 19 22.0002 19C22.1019 19 22.201 19.0322 22.2832 19.0919C22.3655 19.1516 22.4268 19.2358 22.4583 19.3324L23.4151 22.1309L24.3719 19.3324C24.3905 19.2716 24.4213 19.2152 24.4625 19.1667C24.5036 19.1182 24.5542 19.0786 24.6112 19.0504C24.6682 19.0221 24.7303 19.0058 24.7938 19.0024C24.8574 18.999 24.9209 19.0086 24.9806 19.0306C25.1016 19.0818 25.1985 19.1774 25.2513 19.2978C25.304 19.4182 25.3087 19.5543 25.2643 19.678L24.9912 20.4742H25.3455C25.4499 20.4783 25.5487 20.5227 25.6211 20.598C25.6935 20.6733 25.734 20.7737 25.734 20.8782C25.734 20.9827 25.6935 21.0831 25.6211 21.1584C25.5487 21.2338 25.4499 21.2781 25.3455 21.2822H24.715L23.9026 23.6658C23.8723 23.7613 23.8127 23.8448 23.7323 23.9046C23.6519 23.9644 23.5547 23.9974 23.4545 23.9988H23.4145Z" fill="#3869FC"/>
</svg>
