<svg width="32" height="32" viewBox="0 0 32 32" fill="none" xmlns="http://www.w3.org/2000/svg">
<path fill-rule="evenodd" clip-rule="evenodd" d="M16 6C23.1797 6 29 11.8203 29 19C29 20.7719 28.6449 22.4607 28.0029 24H3.99707C3.35513 22.4607 3 20.7719 3 19C3 11.8203 8.8203 6 16 6ZM16.5 8.625C16.5 8.97018 16.2202 9.25 15.875 9.25C15.5298 9.25 15.25 8.97018 15.25 8.625V7.27441C12.5254 7.44605 10.0532 8.54583 8.14551 10.2617L9.56348 11.6797C9.80731 11.9238 9.80747 12.3195 9.56348 12.5635C9.31948 12.8075 8.92378 12.8073 8.67969 12.5635L7.26172 11.1455C5.38964 13.2269 4.25 15.9802 4.25 19H6.375C6.72018 19 7 19.2798 7 19.625C7 19.9702 6.72018 20.25 6.375 20.25H4.31836C4.41098 21.1153 4.5964 21.9518 4.86523 22.75H27.1348C27.4036 21.9518 27.589 21.1153 27.6816 20.25H25.625C25.2798 20.25 25 19.9702 25 19.625C25 19.2798 25.2798 19 25.625 19H27.75C27.75 15.9812 26.6102 13.2295 24.7393 11.1484L23.3262 12.5635C23.0822 12.8074 22.6865 12.8072 22.4424 12.5635C22.1983 12.3194 22.1983 11.9238 22.4424 11.6797L23.8564 10.2646C21.8902 8.4951 19.3244 7.37899 16.5 7.26074V8.625Z" fill="#222222"/>
<path fill-rule="evenodd" clip-rule="evenodd" d="M19.2705 13.9418C19.5146 13.6978 19.9112 13.6978 20.1553 13.9418C20.3991 14.1858 20.399 14.5816 20.1553 14.8256L17.8262 17.1547C17.8228 17.1581 17.8179 17.1602 17.8145 17.1635C17.932 17.4181 17.9999 17.7006 18 17.9995C18 19.104 17.1046 19.9995 16 19.9995C14.8954 19.9995 14 19.104 14 17.9995C14.0003 16.8951 14.8956 15.9995 16 15.9995C16.3497 15.9995 16.6779 16.0908 16.9639 16.2485L19.2705 13.9418ZM16 17.2495C15.5859 17.2495 15.2503 17.5855 15.25 17.9995C15.25 18.4137 15.5858 18.7495 16 18.7495C16.4142 18.7495 16.75 18.4137 16.75 17.9995C16.7497 17.5855 16.4141 17.2495 16 17.2495Z" fill="#3869FC"/>
</svg>
