<svg width="32" height="32" viewBox="0 0 32 32" fill="none" xmlns="http://www.w3.org/2000/svg">
<path fill-rule="evenodd" clip-rule="evenodd" d="M13.7041 16.5107C14.7128 16.613 15.5 17.4643 15.5 18.5V25.5L15.4893 25.7041C15.3938 26.6457 14.6457 27.3938 13.7041 27.4893L13.5 27.5H6.5C5.46435 27.5 4.613 26.7128 4.51074 25.7041L4.5 25.5V18.5C4.5 17.3954 5.39543 16.5 6.5 16.5H13.5L13.7041 16.5107ZM6.5 17.75C6.08579 17.75 5.75 18.0858 5.75 18.5V25.5C5.75 25.9142 6.08579 26.25 6.5 26.25H13.5C13.9142 26.25 14.25 25.9142 14.25 25.5V18.5C14.25 18.0858 13.9142 17.75 13.5 17.75H6.5Z" fill="#222222"/>
<path fill-rule="evenodd" clip-rule="evenodd" d="M25.7041 16.5107C26.7128 16.613 27.5 17.4643 27.5 18.5V25.5L27.4893 25.7041C27.3938 26.6457 26.6457 27.3938 25.7041 27.4893L25.5 27.5H18.5C17.4643 27.5 16.613 26.7128 16.5107 25.7041L16.5 25.5V18.5C16.5 17.3954 17.3954 16.5 18.5 16.5H25.5L25.7041 16.5107ZM18.5 17.75C18.0858 17.75 17.75 18.0858 17.75 18.5V25.5C17.75 25.9142 18.0858 26.25 18.5 26.25H25.5C25.9142 26.25 26.25 25.9142 26.25 25.5V18.5C26.25 18.0858 25.9142 17.75 25.5 17.75H18.5Z" fill="#222222"/>
<path fill-rule="evenodd" clip-rule="evenodd" d="M13.7041 4.51074C14.7128 4.613 15.5 5.46435 15.5 6.5V13.5L15.4893 13.7041C15.3938 14.6457 14.6457 15.3938 13.7041 15.4893L13.5 15.5H6.5C5.46435 15.5 4.613 14.7128 4.51074 13.7041L4.5 13.5V6.5C4.5 5.39543 5.39543 4.5 6.5 4.5H13.5L13.7041 4.51074ZM6.5 5.75C6.08579 5.75 5.75 6.08579 5.75 6.5V13.5C5.75 13.9142 6.08579 14.25 6.5 14.25H13.5C13.9142 14.25 14.25 13.9142 14.25 13.5V6.5C14.25 6.08579 13.9142 5.75 13.5 5.75H6.5Z" fill="#222222"/>
<path fill-rule="evenodd" clip-rule="evenodd" d="M25.7041 4.51074C26.7128 4.613 27.5 5.46435 27.5 6.5V13.5L27.4893 13.7041C27.3938 14.6457 26.6457 15.3938 25.7041 15.4893L25.5 15.5H18.5C17.4643 15.5 16.613 14.7128 16.5107 13.7041L16.5 13.5V6.5C16.5 5.39543 17.3954 4.5 18.5 4.5H25.5L25.7041 4.51074ZM18.5 5.75C18.0858 5.75 17.75 6.08579 17.75 6.5V13.5C17.75 13.9142 18.0858 14.25 18.5 14.25H25.5C25.9142 14.25 26.25 13.9142 26.25 13.5V6.5C26.25 6.08579 25.9142 5.75 25.5 5.75H18.5Z" fill="#222222"/>
<path d="M12.5 18.5C13.0523 18.5 13.5 18.9477 13.5 19.5C13.5 20.0523 13.0523 20.5 12.5 20.5C11.9477 20.5 11.5 20.0523 11.5 19.5C11.5 18.9477 11.9477 18.5 12.5 18.5Z" fill="#3869FC"/>
<path d="M24.5 18.5C25.0523 18.5 25.5 18.9477 25.5 19.5C25.5 20.0523 25.0523 20.5 24.5 20.5C23.9477 20.5 23.5 20.0523 23.5 19.5C23.5 18.9477 23.9477 18.5 24.5 18.5Z" fill="#3869FC"/>
<path d="M12.5 6.5C13.0523 6.5 13.5 6.94772 13.5 7.5C13.5 8.05228 13.0523 8.5 12.5 8.5C11.9477 8.5 11.5 8.05228 11.5 7.5C11.5 6.94772 11.9477 6.5 12.5 6.5Z" fill="#3869FC"/>
<path d="M24.5 6.5C25.0523 6.5 25.5 6.94772 25.5 7.5C25.5 8.05228 25.0523 8.5 24.5 8.5C23.9477 8.5 23.5 8.05228 23.5 7.5C23.5 6.94772 23.9477 6.5 24.5 6.5Z" fill="#3869FC"/>
</svg>
