<svg width="32" height="32" viewBox="0 0 32 32" fill="none" xmlns="http://www.w3.org/2000/svg">
<path fill-rule="evenodd" clip-rule="evenodd" d="M24.5 9.375C24.8452 9.375 25.125 9.65482 25.125 10V20.7354L28.2783 23.8887L24.3896 27.7783L21.2012 24.5898C21.1765 24.5982 21.1519 24.607 21.126 24.6123L21 24.625H11C10.6548 24.625 10.375 24.3452 10.375 24C10.375 23.6548 10.6548 23.375 11 23.375H21L21.0117 23.376L23.875 20.5137V10C23.875 9.65482 24.1548 9.375 24.5 9.375ZM22.2676 23.8887L24.3896 26.0107L26.5107 23.8887L24.3896 21.7676L22.2676 23.8887Z" fill="#222222"/>
<path fill-rule="evenodd" clip-rule="evenodd" d="M8 4.5C9.35244 4.5 10.4956 5.39502 10.8701 6.625H22C22.3452 6.625 22.625 6.90482 22.625 7.25C22.625 7.59518 22.3452 7.875 22 7.875H10.9756C10.8169 9.14739 9.86225 10.1713 8.625 10.4336V21.5C8.625 21.8452 8.34518 22.125 8 22.125C7.65482 22.125 7.375 21.8452 7.375 21.5V10.4336C6.01825 10.146 5 8.94244 5 7.5C5 5.84315 6.34315 4.5 8 4.5ZM8 5.75C7.0335 5.75 6.25 6.5335 6.25 7.5C6.25 8.4665 7.0335 9.25 8 9.25C8.9665 9.25 9.75 8.4665 9.75 7.5C9.75 6.5335 8.9665 5.75 8 5.75Z" fill="#222222"/>
<path fill-rule="evenodd" clip-rule="evenodd" d="M11 27.5H5V21.5H11V27.5ZM6.25 26.25H9.75V22.75H6.25V26.25Z" fill="#3869FC"/>
<path fill-rule="evenodd" clip-rule="evenodd" d="M27.5 10.5H21.5V4.5H27.5V10.5ZM22.75 9.25H26.25V5.75H22.75V9.25Z" fill="#3869FC"/>
</svg>
