<svg width="32" height="32" viewBox="0 0 32 32" fill="none" xmlns="http://www.w3.org/2000/svg">
<path fill-rule="evenodd" clip-rule="evenodd" d="M16 2C17.4263 2 18.6173 2.99605 18.9219 4.33008C24.6946 5.65592 29 10.825 29 17C29 18.1873 28.8392 19.3369 28.541 20.4297C29.414 20.9542 30 21.9074 30 23C30 24.6569 28.6569 26 27 26C26.5214 26 26.0704 25.8849 25.6689 25.6855C23.2892 28.333 19.8401 30 16 30C12.1594 30 8.70892 28.3336 6.3291 25.6855C5.92803 25.8844 5.47801 26 5 26C3.34315 26 2 24.6569 2 23C2 21.9008 2.59283 20.9424 3.47461 20.4199C3.46909 20.4232 3.46351 20.4264 3.45801 20.4297C3.1599 19.337 3 18.1872 3 17C3 10.8253 7.30494 5.65626 13.0771 4.33008C13.3817 2.99595 14.5736 2 16 2ZM24.6904 24.9141C24.2594 24.3946 24 23.7277 24 23C24 21.3431 25.3431 20 27 20C27.1227 20 27.2435 20.0082 27.3623 20.0225C27.36 20.0222 27.3578 20.0218 27.3555 20.0215C27.6114 19.0572 27.75 18.0448 27.75 17C27.75 11.5242 24.0045 6.92279 18.9355 5.61914C18.6502 6.97889 17.4446 8 16 8C14.5554 8 13.3498 6.97889 13.0645 5.61914C7.99554 6.92279 4.25 11.5242 4.25 17C4.25 18.0443 4.3869 19.0566 4.64258 20.0205C4.75976 20.0066 4.87908 20 5 20C6.65685 20 8 21.3431 8 23C8 23.726 7.74162 24.3912 7.3125 24.9102C9.46154 27.269 12.5576 28.75 16 28.75C19.4422 28.75 22.5375 27.2687 24.6865 24.9102C24.6877 24.9116 24.6893 24.9127 24.6904 24.9141ZM5 21.25C4.0335 21.25 3.25 22.0335 3.25 23C3.25 23.9665 4.0335 24.75 5 24.75C5.9665 24.75 6.75 23.9665 6.75 23C6.75 22.0335 5.9665 21.25 5 21.25ZM27 21.25C26.0335 21.25 25.25 22.0335 25.25 23C25.25 23.9665 26.0335 24.75 27 24.75C27.9665 24.75 28.75 23.9665 28.75 23C28.75 22.0335 27.9665 21.25 27 21.25ZM16 3.25C15.0335 3.25 14.25 4.0335 14.25 5C14.25 5.9665 15.0335 6.75 16 6.75C16.9665 6.75 17.75 5.9665 17.75 5C17.75 4.0335 16.9665 3.25 16 3.25Z" fill="#222222"/>
<path d="M20.0029 17C20.0029 16.8337 19.9879 16.6707 19.9648 16.4912L19.9189 16.1328L20.206 15.915L21.2714 15.1035L20.3252 13.5098L18.7177 14.1387L18.4394 13.9307C18.1596 13.7213 17.8619 13.5512 17.54 13.4229L17.206 13.2891L17.1533 12.9336L16.9609 11.625H15.0419L14.8496 12.9336L14.7968 13.2891L14.4628 13.4229C14.1453 13.5494 13.8449 13.7242 13.5566 13.9346L13.2802 14.1367L11.6767 13.5098L10.7304 15.1035L11.7968 15.915L12.0839 16.1328L12.038 16.4912C12.0151 16.6701 12 16.8393 12 17C12 17.1607 12.0151 17.3299 12.038 17.5088L12.0839 17.8672L10.7304 18.8955L11.6767 20.4893L12.9609 19.9883L13.2851 19.8613L13.5634 20.0693C13.7733 20.2264 13.9929 20.3618 14.2255 20.4736L14.4628 20.5771L14.7968 20.7109L14.8496 21.0664L15.0419 22.375H16.9609L17.1533 21.0664L17.206 20.7109L17.54 20.5771C17.8573 20.4506 18.1571 20.2756 18.4453 20.0654L18.7226 19.8633L20.3252 20.4893L21.2714 18.8955L20.206 18.085L19.9189 17.8672L19.9648 17.5088C19.9879 17.3293 20.0029 17.1663 20.0029 17ZM17.5351 17C17.5351 16.2034 16.8627 15.5254 16.0009 15.5254C15.1394 15.5256 14.4677 16.2035 14.4677 17C14.4677 17.7965 15.1394 18.4744 16.0009 18.4746C16.8627 18.4746 17.5351 17.7966 17.5351 17ZM18.7851 17C18.7851 18.5194 17.5202 19.7246 16.0009 19.7246C14.4819 19.7244 13.2177 18.5192 13.2177 17C13.2177 15.4808 14.4819 14.2756 16.0009 14.2754C17.5202 14.2754 18.7851 15.4806 18.7851 17ZM21.2392 17.3008L22.2646 18.0801L22.2666 18.082C22.6411 18.3696 22.7239 18.877 22.5048 19.2676L22.497 19.2812L21.2636 21.3574L21.2627 21.3564C21.0265 21.7621 20.5398 21.9106 20.1279 21.7539L20.123 21.752L18.8935 21.2715C18.7174 21.3855 18.5331 21.4925 18.3388 21.5879L18.1562 22.8271C18.094 23.3116 17.6739 23.6248 17.2353 23.625H14.7675C14.3319 23.6249 13.9135 23.3166 13.8466 22.8379L13.6621 21.5879C13.4687 21.4938 13.2835 21.3884 13.1054 21.2725L11.8798 21.752L11.871 21.7559L11.8613 21.7588C11.4844 21.8921 10.9854 21.7798 10.7392 21.3564L9.50581 19.2812L9.50093 19.2744L9.498 19.2676C9.27896 18.877 9.36175 18.3696 9.73628 18.082L9.73824 18.0801L10.7627 17.3008C10.7558 17.2028 10.75 17.1022 10.75 17C10.75 16.8975 10.7558 16.7966 10.7627 16.6982L9.73824 15.9199L9.73628 15.918C9.38021 15.6445 9.25416 15.1332 9.50874 14.7139L10.7392 12.6426C10.9456 12.2884 11.3438 12.1309 11.7158 12.2012L11.875 12.2461L11.8798 12.248L13.1084 12.7275C13.284 12.6137 13.4683 12.5073 13.6621 12.4121L13.8466 11.1611C13.9139 10.683 14.3322 10.3751 14.7675 10.375H17.2353C17.6705 10.3752 18.0879 10.6831 18.1552 11.1611L18.3388 12.4102C18.5326 12.5043 18.718 12.6104 18.8964 12.7266L20.123 12.248L20.1318 12.2441L20.1416 12.2412C20.5181 12.108 21.0163 12.2201 21.2627 12.6426L22.497 14.7188L22.5048 14.7324C22.7239 15.123 22.6411 15.6304 22.2666 15.918L22.2646 15.9199L21.2392 16.6982C21.246 16.7953 21.2529 16.8957 21.2529 17C21.2529 17.104 21.2459 17.204 21.2392 17.3008Z" fill="#3869FC"/>
</svg>
