<svg width="32" height="32" viewBox="0 0 32 32" fill="none" xmlns="http://www.w3.org/2000/svg">
<path d="M4.5 15.875C4.84518 15.875 5.125 16.1548 5.125 16.5V25.5C5.125 26.2594 5.74061 26.875 6.5 26.875H16.5C16.8452 26.875 17.125 27.1548 17.125 27.5C17.125 27.8452 16.8452 28.125 16.5 28.125H6.5C5.05025 28.125 3.875 26.9497 3.875 25.5V16.5C3.875 16.1548 4.15482 15.875 4.5 15.875Z" fill="#222222"/>
<path fill-rule="evenodd" clip-rule="evenodd" d="M25.2041 5.01074C26.2128 5.113 27 5.96435 27 7V23L26.9893 23.2041C26.8938 24.1457 26.1457 24.8938 25.2041 24.9893L25 25H9C7.96435 25 7.113 24.2128 7.01074 23.2041L7 23V7C7 5.89543 7.89543 5 9 5H25L25.2041 5.01074ZM9 6.25C8.58579 6.25 8.25 6.58579 8.25 7V23C8.25 23.4142 8.58579 23.75 9 23.75H25C25.4142 23.75 25.75 23.4142 25.75 23V7C25.75 6.58579 25.4142 6.25 25 6.25H9Z" fill="#222222"/>
<path d="M21.0574 11.5572C21.3013 11.3133 21.698 11.3136 21.9421 11.5572C22.1862 11.8013 22.1862 12.1979 21.9421 12.442L16.4421 17.942C16.1981 18.1861 15.8015 18.1861 15.5574 17.942L12.5574 14.942L12.4773 14.8434C12.3177 14.6008 12.344 14.2706 12.5574 14.0572C12.7707 13.8439 13.101 13.8175 13.3435 13.9772L13.4421 14.0572L15.9998 16.6148L21.0574 11.5572Z" fill="#3869FC"/>
</svg>
