<svg width="32" height="32" viewBox="0 0 32 32" fill="none" xmlns="http://www.w3.org/2000/svg">
<path d="M12 20.375C12.3452 20.375 12.625 20.6548 12.625 21V26C12.625 26.8975 11.8975 27.625 11 27.625H6C5.65482 27.625 5.375 27.3452 5.375 27C5.375 26.6548 5.65482 26.375 6 26.375H11C11.2071 26.375 11.375 26.2071 11.375 26V21C11.375 20.6548 11.6548 20.375 12 20.375Z" fill="#3869FC"/>
<path d="M16.25 20.375C16.5952 20.375 16.875 20.6548 16.875 21V27C16.875 27.3452 16.5952 27.625 16.25 27.625C15.9048 27.625 15.625 27.3452 15.625 27V21C15.625 20.6548 15.9048 20.375 16.25 20.375Z" fill="#3869FC"/>
<path d="M21 20.375C21.3452 20.375 21.625 20.6548 21.625 21V26C21.625 26.2071 21.7929 26.375 22 26.375H27C27.3452 26.375 27.625 26.6548 27.625 27C27.625 27.3452 27.3452 27.625 27 27.625H22C21.1025 27.625 20.375 26.8975 20.375 26V21C20.375 20.6548 20.6548 20.375 21 20.375Z" fill="#3869FC"/>
<path d="M14.8211 4.08416C16.6416 3.82278 18.4969 4.17421 20.1014 5.08318C21.7058 5.99224 22.9718 7.40891 23.704 9.11638C25.0862 9.52922 26.2749 10.433 27.0526 11.6613C27.8303 12.8899 28.1444 14.3617 27.9374 15.8058L27.8934 16.0754C27.6403 17.4137 26.948 18.6302 25.9256 19.5246L25.7176 19.6984C24.6606 20.542 23.351 21.0022 21.9999 21.0002H8.80357C7.70224 21.0013 6.63631 20.619 5.78306 19.9211L5.61509 19.7775C4.79103 19.0379 4.24539 18.035 4.06529 16.9396L4.03404 16.7189C3.9032 15.6118 4.15213 14.4949 4.73619 13.5549L4.85826 13.3693C5.52858 12.3928 6.52907 11.6986 7.67076 11.4191C7.89035 9.68827 8.63032 8.07054 9.78599 6.78338L10.0233 6.53045C11.2342 5.28816 12.7912 4.45549 14.4813 4.1408L14.8211 4.08416ZM19.4852 6.17009C18.1207 5.39711 16.5446 5.09954 14.9989 5.32146C13.4529 5.54352 12.0183 6.27352 10.9178 7.40252C9.81722 8.53166 9.11128 9.99788 8.91099 11.5763L8.80259 12.4289L7.96861 12.634C7.12771 12.8398 6.38648 13.3518 5.88853 14.0773C5.39042 14.8032 5.17107 15.6911 5.27525 16.5724C5.37944 17.4537 5.79897 18.2624 6.45005 18.8469C7.10082 19.431 7.93834 19.7511 8.80259 19.7502H22.0018C23.138 19.7518 24.2388 19.3386 25.1024 18.5832C25.9664 17.8273 26.5351 16.7787 26.7001 15.6281C26.8649 14.4775 26.6148 13.3065 25.9969 12.3303C25.3792 11.3543 24.4365 10.6404 23.3456 10.3146L22.785 10.1467L22.5545 9.60955C21.9292 8.15115 20.85 6.94331 19.4852 6.17009Z" fill="#222222"/>
</svg>
