<svg width="32" height="32" viewBox="0 0 32 32" fill="none" xmlns="http://www.w3.org/2000/svg">
<path fill-rule="evenodd" clip-rule="evenodd" d="M16 4C22.6274 4 28 9.37258 28 16C28 22.6274 22.6274 28 16 28C9.37258 28 4 22.6274 4 16C4 9.37258 9.37258 4 16 4ZM16 5.25C10.0629 5.25 5.25 10.0629 5.25 16C5.25 21.9371 10.0629 26.75 16 26.75C21.9371 26.75 26.75 21.9371 26.75 16C26.75 10.0629 21.9371 5.25 16 5.25Z" fill="#222222"/>
<path d="M16.125 21C16.4702 21 16.75 21.2798 16.75 21.625V22.375C16.75 22.7202 16.4702 23 16.125 23C15.7798 23 15.5 22.7202 15.5 22.375V21.625C15.5 21.2798 15.7798 21 16.125 21Z" fill="#3869FC"/>
<path d="M16.125 9C16.4702 9 16.75 9.27982 16.75 9.625V18.375C16.75 18.7202 16.4702 19 16.125 19C15.7798 19 15.5 18.7202 15.5 18.375V9.625C15.5 9.27982 15.7798 9 16.125 9Z" fill="#3869FC"/>
</svg>
