<svg width="32" height="32" viewBox="0 0 32 32" fill="none" xmlns="http://www.w3.org/2000/svg">
<path d="M16 14.375C16.3452 14.375 16.625 14.6548 16.625 15C16.625 15.3452 16.3452 15.625 16 15.625H10C9.65482 15.625 9.375 15.3452 9.375 15C9.375 14.6548 9.65482 14.375 10 14.375H16Z" fill="#222222"/>
<path d="M20 10.375C20.3452 10.375 20.625 10.6548 20.625 11C20.625 11.3452 20.3452 11.625 20 11.625H10C9.65482 11.625 9.375 11.3452 9.375 11C9.375 10.6548 9.65482 10.375 10 10.375H20Z" fill="#222222"/>
<path fill-rule="evenodd" clip-rule="evenodd" d="M23.2041 4.01074C24.2128 4.113 25 4.96435 25 6V14.291C24.9874 14.2873 24.9746 14.284 24.9619 14.2803C27.8727 15.1287 30 17.8152 30 21C30 24.866 26.866 28 23 28H7C5.96435 28 5.113 27.2128 5.01074 26.2041L5 26V6C5 4.89543 5.89543 4 7 4H23L23.2041 4.01074ZM7 5.25C6.58579 5.25 6.25 5.58579 6.25 6V26C6.25 26.4142 6.58579 26.75 7 26.75H19.0088C17.1907 25.4857 16 23.3823 16 21C16 17.134 19.134 14 23 14C23.3082 14 23.6115 14.0219 23.9092 14.0605C23.8562 14.0537 23.8033 14.0457 23.75 14.04V6C23.75 5.58579 23.4142 5.25 23 5.25H7ZM23 15.25C19.8244 15.25 17.25 17.8244 17.25 21C17.25 24.1756 19.8244 26.75 23 26.75C26.1756 26.75 28.75 24.1756 28.75 21C28.75 17.8244 26.1756 15.25 23 15.25Z" fill="#222222"/>
<path d="M23 19C23.1016 19 23.2009 19.0321 23.2832 19.0918C23.3654 19.1514 23.4264 19.2356 23.458 19.332L24.415 22.1309L25.3721 19.332C25.3907 19.2714 25.4218 19.2154 25.4629 19.167C25.504 19.1185 25.5544 19.079 25.6113 19.0508C25.6683 19.0225 25.7304 19.0054 25.7939 19.002C25.8573 18.9986 25.9209 19.0083 25.9805 19.0303C26.1015 19.0815 26.1982 19.1775 26.251 19.2979C26.3037 19.4181 26.3089 19.5541 26.2646 19.6777L25.9912 20.4746H26.3457C26.45 20.4788 26.5487 20.5225 26.6211 20.5977C26.6934 20.6729 26.7343 20.7735 26.7344 20.8779C26.7344 20.9824 26.6934 21.0829 26.6211 21.1582C26.5487 21.2335 26.45 21.2781 26.3457 21.2822H25.7148L24.9023 23.666C24.8721 23.7613 24.8126 23.8446 24.7324 23.9043C24.652 23.9641 24.5543 23.9975 24.4541 23.999H24.4141C24.3079 24.0061 24.2021 23.977 24.1143 23.917C24.0266 23.857 23.9617 23.7693 23.9297 23.668L23 20.9473L22.0713 23.666C22.0397 23.7682 21.974 23.8566 21.8857 23.917C21.7976 23.9774 21.6916 24.0064 21.585 23.999C21.4787 24.0063 21.3731 23.977 21.2852 23.917C21.1973 23.857 21.1315 23.7695 21.0996 23.668L20.2871 21.2842H19.6543C19.5499 21.2801 19.4513 21.2355 19.3789 21.1602C19.3065 21.0848 19.2656 20.9844 19.2656 20.8799C19.2657 20.7755 19.3065 20.6749 19.3789 20.5996C19.4513 20.5244 19.55 20.4797 19.6543 20.4756H20.0078L19.7363 19.6777C19.6921 19.554 19.6963 19.4172 19.749 19.2969C19.8017 19.1768 19.8988 19.0816 20.0195 19.0303C20.0792 19.0083 20.1435 18.9985 20.207 19.002C20.2704 19.0054 20.3328 19.0216 20.3896 19.0498C20.4465 19.078 20.497 19.1176 20.5381 19.166C20.5792 19.2145 20.6103 19.2712 20.6289 19.332L21.585 22.1299L22.542 19.332C22.5735 19.2356 22.6347 19.1514 22.7168 19.0918C22.799 19.0321 22.8984 19 23 19Z" fill="#3869FC"/>
</svg>
