<svg width="32" height="32" viewBox="0 0 32 32" fill="none" xmlns="http://www.w3.org/2000/svg">
<path d="M21.5 7.375C21.8452 7.375 22.125 7.65482 22.125 8C22.125 8.34518 21.8452 8.625 21.5 8.625H11.8789C10.0819 8.625 8.625 10.0819 8.625 11.8789C8.62506 13.6759 10.0819 15.1328 11.8789 15.1328H20C22.5543 15.1328 24.625 17.2035 24.625 19.7578V20C24.625 22.5543 22.5543 24.625 20 24.625H10.5C10.1548 24.625 9.875 24.3452 9.875 24C9.875 23.6548 10.1548 23.375 10.5 23.375H20C21.864 23.375 23.375 21.864 23.375 20V19.7578C23.375 17.8939 21.864 16.3828 20 16.3828H11.8789C9.39157 16.3828 7.37506 14.3662 7.375 11.8789C7.375 9.39153 9.39153 7.375 11.8789 7.375H21.5Z" fill="black"/>
<path fill-rule="evenodd" clip-rule="evenodd" d="M8.5 21C9.88071 21 11 22.1193 11 23.5C11 24.8807 9.88069 26 8.5 26C7.11931 26 6.00003 24.8807 6 23.5C6 22.1193 7.11929 21 8.5 21ZM8.5 22.25C7.80964 22.25 7.25 22.8096 7.25 23.5C7.25003 24.1903 7.80966 24.75 8.5 24.75C9.19034 24.75 9.74997 24.1903 9.75 23.5C9.75 22.8096 9.19036 22.25 8.5 22.25Z" fill="#3869FC"/>
<path fill-rule="evenodd" clip-rule="evenodd" d="M23.5 6C24.8807 6 26 7.11929 26 8.5C26 9.88068 24.8807 11 23.5 11C22.1193 11 21 9.88068 21 8.5C21 7.11929 22.1193 6 23.5 6ZM23.5 7.25C22.8096 7.25 22.25 7.80964 22.25 8.5C22.25 9.19033 22.8097 9.75 23.5 9.75C24.1903 9.75 24.75 9.19033 24.75 8.5C24.75 7.80964 24.1904 7.25 23.5 7.25Z" fill="#3869FC"/>
</svg>
