<svg width="14" height="14" viewBox="0 0 14 14" fill="none" xmlns="http://www.w3.org/2000/svg">
<path d="M9.5 14C9.10218 14 8.72064 13.8419 8.43933 13.5605C8.15803 13.2792 8 12.8978 8 12.5V1.5C8 1.10218 8.15803 0.720758 8.43933 0.439453C8.72064 0.158149 9.10218 0 9.5 0H12.5C12.8978 0 13.2794 0.158149 13.5607 0.439453C13.842 0.720758 14 1.10218 14 1.5V12.5C14 12.8978 13.842 13.2792 13.5607 13.5605C13.2794 13.8419 12.8978 14 12.5 14H9.5ZM1.5 14C1.10218 14 0.720636 13.8419 0.439331 13.5605C0.158026 13.2792 0 12.8978 0 12.5V9.5C0 9.10218 0.158026 8.72076 0.439331 8.43945C0.720636 8.15815 1.10218 8 1.5 8H4.5C4.89782 8 5.27936 8.15815 5.56067 8.43945C5.84197 8.72076 6 9.10218 6 9.5V12.5C6 12.8978 5.84197 13.2792 5.56067 13.5605C5.27936 13.8419 4.89782 14 4.5 14H1.5ZM1.5 6C1.10218 6 0.720636 5.84185 0.439331 5.56055C0.158026 5.27924 0 4.89782 0 4.5V1.5C0 1.10218 0.158026 0.720758 0.439331 0.439453C0.720636 0.158149 1.10218 0 1.5 0H4.5C4.89782 0 5.27936 0.158149 5.56067 0.439453C5.84197 0.720758 6 1.10218 6 1.5V4.5C6 4.89782 5.84197 5.27924 5.56067 5.56055C5.27936 5.84185 4.89782 6 4.5 6H1.5Z" fill="#1C90FB"/>
</svg>
