<svg width="6" height="9" viewBox="0 0 6 9" fill="none" xmlns="http://www.w3.org/2000/svg">
<path d="M0.498901 8.9622C0.399929 8.96198 0.303248 8.9324 0.221104 8.87719C0.138959 8.82199 0.0750463 8.74364 0.0374598 8.65209C-0.000126749 8.56053 -0.00969578 8.45988 0.00996464 8.36288C0.0296251 8.26588 0.0776304 8.1769 0.147901 8.1072L3.8529 4.4412L0.151901 0.8582C0.0571323 0.765907 0.00280024 0.639819 0.000802737 0.50755C-0.00119477 0.375281 0.0493051 0.247611 0.141243 0.152498C0.233181 0.0573847 0.359064 0.00258126 0.491325 8.88661e-05C0.623586 -0.00240353 0.751444 0.0476183 0.846901 0.1392L4.9149 4.0772C4.96293 4.12349 5.00121 4.17893 5.02748 4.24024C5.05376 4.30155 5.0675 4.3675 5.0679 4.4342C5.06815 4.50079 5.05511 4.56676 5.02952 4.62823C5.00393 4.68971 4.96632 4.74546 4.9189 4.7922L0.850901 8.8182C0.757116 8.91069 0.630621 8.96244 0.498901 8.9622Z" fill="#1C90FB"/>
</svg>
