<svg width="16" height="14" viewBox="0 0 16 14" fill="none" xmlns="http://www.w3.org/2000/svg">
<path d="M6.12012 0C6.53469 -1.03733e-07 6.87214 -0.000291453 7.14453 0.0195312C7.42089 0.0396816 7.67049 0.0823983 7.9043 0.188477C8.27154 0.355212 8.57932 0.626009 8.77539 0.96875C8.90327 1.19242 8.95402 1.43123 8.97754 1.6875C9.00041 1.93684 9 2.24342 9 2.61035V12.5C9 12.7761 9.22386 13 9.5 13C9.77614 13 10 12.7761 10 12.5V5.36426H12.1191C12.5338 5.36426 12.8711 5.36495 13.1436 5.38477C13.4202 5.40491 13.6693 5.4485 13.9033 5.55469C14.2704 5.72132 14.5783 5.99048 14.7744 6.33301C14.9024 6.55667 14.953 6.79646 14.9766 7.05273C14.9994 7.30208 15 7.6087 15 7.97559V13H15.5C15.7761 13 16 13.2239 16 13.5C16 13.5062 15.9983 13.5124 15.998 13.5186C15.9983 13.5243 16 13.5304 16 13.5361C15.9998 13.7924 15.7891 14 15.5293 14H0.470703C0.210946 14 0.00022905 13.7924 0 13.5361C2.18655e-08 13.5304 0.000766273 13.5243 0.000976562 13.5186C0.000751372 13.5124 0 13.5062 0 13.5C1.3308e-07 13.2239 0.223858 13 0.5 13H1V2.61035C1 2.2434 1.00057 1.93685 1.02344 1.6875C1.04696 1.43113 1.09761 1.19249 1.22559 0.96875C1.42171 0.625921 1.72931 0.355199 2.09668 0.188477C2.33057 0.0824001 2.57996 0.0396597 2.85645 0.0195312C3.12887 -0.000289153 3.46623 0 3.88086 0H6.12012ZM4 9C3.72386 9 3.5 9.22386 3.5 9.5C3.5 9.77614 3.72386 10 4 10H6.5C6.77614 10 7 9.77614 7 9.5C7 9.22386 6.77614 9 6.5 9H4ZM4 6C3.72386 6 3.5 6.22386 3.5 6.5C3.5 6.77614 3.72386 7 4 7H6.5C6.77614 7 7 6.77614 7 6.5C7 6.22386 6.77614 6 6.5 6H4ZM4 3C3.72386 3 3.5 3.22386 3.5 3.5C3.5 3.77614 3.72386 4 4 4H6.5C6.77614 4 7 3.77614 7 3.5C7 3.22386 6.77614 3 6.5 3H4Z" fill="#666666"/>
</svg>
