<svg width="14" height="14" viewBox="0 0 14 14" fill="none" xmlns="http://www.w3.org/2000/svg">
<path d="M12 0C13.1046 0 14 0.895431 14 2V12C14 13.1046 13.1046 14 12 14H2C0.895431 14 4.83199e-08 13.1046 0 12V2C0 0.895431 0.895431 4.83192e-08 2 0H12ZM5.28613 8C4.68012 8 4.09854 8.24055 3.66992 8.66895C3.24127 9.0976 3 9.67992 3 10.2861V11H11V10.2861C11 9.67992 10.7587 9.0976 10.3301 8.66895C9.90146 8.24055 9.31988 8 8.71387 8H5.28613ZM7 3C6.46957 3 5.96101 3.21086 5.58594 3.58594C5.21091 3.961 5 4.4696 5 5C5.0003 5.53023 5.2109 6.04021 5.58594 6.41504C5.96097 6.78982 6.4698 7 7 7C7.26269 7.00015 7.52291 6.94811 7.76562 6.84766C8.00808 6.74728 8.22846 6.60053 8.41406 6.41504C8.59977 6.22933 8.7472 6.00829 8.84766 5.76562C8.94811 5.52291 9.00015 5.26269 9 5C9.00015 4.73731 8.94811 4.47709 8.84766 4.23438C8.7472 3.99171 8.59977 3.77067 8.41406 3.58496C8.22846 3.39947 8.00808 3.25272 7.76562 3.15234C7.52291 3.05189 7.26269 2.99985 7 3Z" fill="#666666"/>
</svg>
