<svg width="16" height="16" viewBox="0 0 16 16" fill="none" xmlns="http://www.w3.org/2000/svg">
<path fill-rule="evenodd" clip-rule="evenodd" d="M7.375 3C7.16456 3.24137 7.03135 3.54744 7.00488 3.87793L7 4L7.00488 4.12207C7.05326 4.72616 7.45783 5.24906 8.04004 5.44336L9.92676 6.07227L10.5566 7.95996C10.7639 8.58107 11.3452 9 12 9C12.6548 9 13.2361 8.58107 13.4434 7.95996L14 6.28906V14C14 15.1046 13.1046 16 12 16H2C0.895431 16 4.02666e-08 15.1046 0 14V5C0 3.89543 0.895431 3 2 3H7.375ZM3.5 7C3.22386 7 3 7.22386 3 7.5V12.5C3 12.7761 3.22386 13 3.5 13C3.77614 13 4 12.7761 4 12.5V7.5C4 7.22386 3.77614 7 3.5 7ZM6.5 9C6.22386 9 6 9.22386 6 9.5V12.5C6 12.7761 6.22386 13 6.5 13C6.77614 13 7 12.7761 7 12.5V9.5C7 9.22386 6.77614 9 6.5 9ZM9.5 10C9.22386 10 9 10.2239 9 10.5V12.5C9 12.7761 9.22386 13 9.5 13C9.77614 13 10 12.7761 10 12.5V10.5C10 10.2239 9.77614 10 9.5 10Z" fill="#1C90FB"/>
<path d="M12 0C12.2245 2.08208e-07 12.424 0.143524 12.4951 0.356445L13.2822 2.71777L15.6436 3.50488C15.8565 3.57597 16 3.77551 16 4C16 4.22449 15.8565 4.42403 15.6436 4.49512L13.2822 5.28223L12.4951 7.64355C12.424 7.85648 12.2245 8 12 8C11.7755 8 11.576 7.85648 11.5049 7.64355L10.7178 5.28223L8.35645 4.49512C8.14352 4.42403 8 4.22449 8 4C8 3.77551 8.14352 3.57597 8.35645 3.50488L10.7178 2.71777L11.5049 0.356445C11.576 0.143524 11.7755 0 12 0Z" fill="#1C90FB"/>
</svg>
