<svg width="14" height="16" viewBox="0 0 14 16" fill="none" xmlns="http://www.w3.org/2000/svg">
<path d="M12 0C13.1046 0 14 0.895431 14 2V11C14 12.1046 13.1046 13 12 13H9.0752C9.06846 13.0115 9.06249 13.0239 9.05469 13.0352L7.41113 15.4072C7.21228 15.6939 6.78772 15.6939 6.58887 15.4072L4.94531 13.0352C4.93751 13.0239 4.93154 13.0115 4.9248 13H2C0.895431 13 4.02666e-08 12.1046 0 11V2C0 0.895431 0.895431 4.83192e-08 2 0H12ZM6.72266 8.95801C6.35447 8.95801 6.05566 9.25681 6.05566 9.625C6.05566 9.99319 6.35447 10.292 6.72266 10.292H6.73047C7.09853 10.2918 7.39648 9.9931 7.39648 9.625C7.39648 9.2569 7.09853 8.95815 6.73047 8.95801H6.72266ZM7.11816 2.87012C6.54046 2.76911 5.94672 2.88005 5.44336 3.18164C4.94054 3.48306 4.56168 3.95459 4.37012 4.50977C4.25022 4.85769 4.43436 5.23729 4.78223 5.35742C5.13023 5.4775 5.50973 5.29229 5.62988 4.94434C5.72052 4.68166 5.89867 4.46321 6.12891 4.3252C6.35892 4.18738 6.62797 4.13801 6.88867 4.18359C7.14942 4.22922 7.38857 4.36754 7.5625 4.57812C7.7367 4.7891 7.83342 5.05818 7.83301 5.33789V5.33887C7.83301 5.60004 7.6465 5.85922 7.26562 6.10352C7.09088 6.21555 6.91046 6.29974 6.77148 6.35645C6.70301 6.38438 6.64662 6.40525 6.60938 6.41797C6.59106 6.42422 6.5773 6.42816 6.56934 6.43066C6.56677 6.43147 6.56483 6.4322 6.56348 6.43262H6.5625C6.27843 6.5158 6.08301 6.77718 6.08301 7.07324V7.58301C6.08301 7.9512 6.38181 8.25 6.75 8.25C7.11819 8.25 7.41699 7.9512 7.41699 7.58301V7.52734C7.58368 7.4528 7.78321 7.3555 7.98438 7.22656C8.4473 6.92976 9.08165 6.37671 9.15918 5.51562L9.16699 5.33887C9.16762 4.75175 8.96416 4.1817 8.59082 3.72949C8.21696 3.27672 7.69573 2.97112 7.11816 2.87012Z" fill="#666666"/>
</svg>
