<svg width="81" height="81" viewBox="0 0 81 81" fill="none" xmlns="http://www.w3.org/2000/svg">
<rect x="0.5" y="0.5" width="80" height="80" rx="16" fill="#F2F5FF"/>
<path d="M32.5 52.4614V62.4614H48.5V52.4614H32.5Z" fill="#CADBFE"/>
<rect x="16.5" y="18.5" width="48" height="37" rx="4" fill="url(#paint0_linear_1596_26194)"/>
<path d="M20.5 24.5C20.5 23.3954 21.3954 22.5 22.5 22.5H58.5C59.6046 22.5 60.5 23.3954 60.5 24.5V48.5H20.5V24.5Z" fill="white" fill-opacity="0.3"/>
<path d="M42.2119 52.4153C42.2119 52.712 42.1239 53.002 41.9591 53.2486C41.7943 53.4953 41.56 53.6876 41.2859 53.8011C41.0118 53.9146 40.7102 53.9443 40.4193 53.8865C40.1283 53.8286 39.861 53.6857 39.6513 53.4759C39.4415 53.2662 39.2986 52.9989 39.2407 52.7079C39.1829 52.4169 39.2126 52.1153 39.3261 51.8413C39.4396 51.5672 39.6319 51.3329 39.8786 51.1681C40.1252 51.0033 40.4152 50.9153 40.7119 50.9153C41.1097 50.9153 41.4913 51.0733 41.7726 51.3546C42.0539 51.6359 42.2119 52.0175 42.2119 52.4153Z" fill="white"/>
<path d="M52.5 61.5H28.5C27.3954 61.5 26.5 62.3954 26.5 63.5C26.5 64.6046 27.3954 65.5 28.5 65.5H52.5C53.6046 65.5 54.5 64.6046 54.5 63.5C54.5 62.3954 53.6046 61.5 52.5 61.5Z" fill="#4E7AD9"/>
<path d="M25.5 16.5C25.5 15.3954 26.3954 14.5 27.5 14.5H53.5C54.6046 14.5 55.5 15.3954 55.5 16.5V43H25.5V16.5Z" fill="white"/>
<path d="M24.5 43.5H56.5" stroke="#CADBFE" stroke-width="2" stroke-linecap="round"/>
<path fill-rule="evenodd" clip-rule="evenodd" d="M48.0582 24.3791C48.6473 24.9682 48.6473 25.9234 48.0582 26.5125L40.0126 34.5581C39.4235 35.1472 38.4683 35.1472 37.8792 34.5581L33.8564 30.5353C33.2673 29.9462 33.2673 28.991 33.8564 28.4019C34.4455 27.8128 35.4007 27.8128 35.9898 28.4019L38.9459 31.358L45.9248 24.3791C46.5139 23.79 47.469 23.79 48.0582 24.3791Z" fill="#4E7AD9"/>
<defs>
<linearGradient id="paint0_linear_1596_26194" x1="25.8604" y1="18.5" x2="43.8533" y2="46.1403" gradientUnits="userSpaceOnUse">
<stop stop-color="#B3CBFF"/>
<stop offset="1" stop-color="#6091F9"/>
</linearGradient>
</defs>
</svg>
