<svg width="88" height="88" viewBox="0 0 88 88" fill="none" xmlns="http://www.w3.org/2000/svg">
<circle cx="44" cy="44" r="44" fill="url(#paint0_linear_1184_4241)"/>
<mask id="mask0_1184_4241" style="mask-type:alpha" maskUnits="userSpaceOnUse" x="0" y="0" width="88" height="88">
<circle cx="44" cy="44" r="44" fill="black"/>
</mask>
<g mask="url(#mask0_1184_4241)">
<path d="M71.9795 52.3178V51.5854C71.9795 51.4911 72.0169 51.4007 72.0836 51.3341C72.1502 51.2674 72.2406 51.23 72.3348 51.23C72.4291 51.23 72.5195 51.2674 72.5861 51.3341C72.6528 51.4007 72.6902 51.4911 72.6902 51.5854V52.3185C72.6902 52.4127 72.6528 52.5031 72.5861 52.5698C72.5195 52.6364 72.4291 52.6738 72.3348 52.6738C72.2406 52.6738 72.1502 52.6364 72.0836 52.5698C72.0169 52.5031 71.9795 52.412 71.9795 52.3178ZM74.0184 51.962L73.6518 51.3273C73.6066 51.2457 73.5952 51.1496 73.6201 51.0597C73.645 50.9698 73.7042 50.8933 73.785 50.8466C73.8658 50.8 73.9616 50.787 74.0519 50.8103C74.1422 50.8337 74.2198 50.8916 74.2678 50.9715L74.6344 51.6063C74.6765 51.6876 74.6858 51.782 74.6601 51.8699C74.6345 51.9577 74.5759 52.0324 74.4967 52.0782C74.4174 52.124 74.3236 52.1375 74.2346 52.1159C74.1457 52.0942 74.0677 52.0391 74.0184 51.962ZM70.1662 52.0922C70.0848 52.045 70.0253 51.9675 70.0009 51.8765C69.9765 51.7856 69.9891 51.6887 70.0361 51.6071L70.4026 50.9722C70.4497 50.8906 70.5273 50.8311 70.6182 50.8067C70.7092 50.7823 70.8062 50.795 70.8878 50.8421C70.9694 50.8892 71.0289 50.9667 71.0533 51.0577C71.0777 51.1487 71.065 51.2457 71.0179 51.3273L70.6513 51.962C70.628 52.0025 70.597 52.0379 70.56 52.0663C70.523 52.0947 70.4808 52.1156 70.4358 52.1277C70.3907 52.1397 70.3437 52.1428 70.2975 52.1367C70.2512 52.1307 70.2066 52.1155 70.1662 52.0922ZM75.6068 50.6346L74.972 50.268C74.9293 50.2459 74.8916 50.2153 74.8611 50.1782C74.8305 50.1411 74.8079 50.0981 74.7944 50.052C74.781 50.0058 74.777 49.9574 74.7827 49.9097C74.7885 49.862 74.8039 49.8159 74.8279 49.7743C74.852 49.7327 74.8843 49.6964 74.9227 49.6676C74.9612 49.6388 75.0052 49.618 75.0519 49.6067C75.0986 49.5953 75.1471 49.5936 75.1945 49.6015C75.2419 49.6094 75.2872 49.6269 75.3277 49.6528L75.9625 50.0193C76.0029 50.0426 76.0383 50.0737 76.0667 50.1107C76.0951 50.1477 76.116 50.1899 76.1281 50.2349C76.1402 50.28 76.1432 50.327 76.1372 50.3732C76.1311 50.4195 76.1159 50.4641 76.0926 50.5045C76.0693 50.5449 76.0383 50.5803 76.0013 50.6087C75.9643 50.6371 75.9221 50.6579 75.877 50.67C75.832 50.6821 75.785 50.6852 75.7388 50.6791C75.6925 50.6731 75.6479 50.6579 75.6075 50.6346H75.6068ZM68.5785 50.5045C68.5316 50.4229 68.5189 50.326 68.5433 50.235C68.5677 50.1441 68.6272 50.0665 68.7086 50.0193L69.3435 49.6528C69.4251 49.6057 69.522 49.593 69.613 49.6174C69.7039 49.6418 69.7815 49.7013 69.8286 49.7829C69.8756 49.8645 69.8884 49.9614 69.864 50.0524C69.8396 50.1434 69.78 50.221 69.6984 50.268L69.0636 50.6346C68.982 50.6818 68.8849 50.6945 68.7938 50.6701C68.7026 50.6457 68.6257 50.5862 68.5785 50.5045ZM75.5851 48.6904C75.4909 48.6904 75.4005 48.653 75.3338 48.5864C75.2672 48.5198 75.2297 48.4294 75.2297 48.3351C75.2297 48.2409 75.2672 48.1505 75.3338 48.0839C75.4005 48.0172 75.4909 47.9798 75.5851 47.9798H76.3182C76.4125 47.9798 76.5028 48.0172 76.5695 48.0839C76.6361 48.1505 76.6736 48.2409 76.6736 48.3351C76.6736 48.4294 76.6361 48.5198 76.5695 48.5864C76.5028 48.653 76.4125 48.6904 76.3182 48.6904H75.5851ZM68.3551 48.6904C68.2609 48.6904 68.1705 48.653 68.1039 48.5864C68.0372 48.5198 67.9998 48.4294 67.9998 48.3351C67.9998 48.2409 68.0372 48.1505 68.1039 48.0839C68.1705 48.0172 68.2609 47.9798 68.3551 47.9798H69.0882C69.1825 47.9798 69.2729 48.0172 69.3395 48.0839C69.4061 48.1505 69.4436 48.2409 69.4436 48.3351C69.4436 48.4294 69.4061 48.5198 69.3395 48.5864C69.2729 48.653 69.1825 48.6904 69.0882 48.6904H68.3551ZM74.8412 46.8859C74.8178 46.8455 74.8027 46.8009 74.7966 46.7546C74.7905 46.7084 74.7936 46.6614 74.8057 46.6163C74.8178 46.5713 74.8386 46.5291 74.867 46.4921C74.8954 46.4551 74.9309 46.424 74.9713 46.4007L75.6061 46.0342C75.6465 46.0109 75.6911 45.9957 75.7373 45.9897C75.7836 45.9836 75.8305 45.9867 75.8756 45.9988C75.9206 46.0108 75.9629 46.0317 75.9999 46.0601C76.0369 46.0885 76.0679 46.1239 76.0912 46.1643C76.1145 46.2047 76.1296 46.2493 76.1357 46.2956C76.1418 46.3418 76.1387 46.3888 76.1266 46.4338C76.1145 46.4789 76.0937 46.5211 76.0653 46.5581C76.0369 46.5951 76.0014 46.6261 75.961 46.6494L75.3263 47.016C75.2859 47.0393 75.2413 47.0545 75.195 47.0606C75.1488 47.0667 75.1018 47.0636 75.0567 47.0515C75.0117 47.0394 74.9694 47.0186 74.9325 46.9901C74.8955 46.9617 74.8644 46.9263 74.8412 46.8859ZM69.3463 47.016L68.7115 46.6494C68.6711 46.6261 68.6357 46.595 68.6074 46.5579C68.579 46.5209 68.5582 46.4787 68.5461 46.4336C68.5341 46.3885 68.531 46.3415 68.5371 46.2952C68.5432 46.2489 68.5584 46.2044 68.5818 46.164C68.6051 46.1236 68.6362 46.0882 68.6732 46.0598C68.7103 46.0314 68.7526 46.0106 68.7976 45.9985C68.8427 45.9865 68.8897 45.9834 68.936 45.9895C68.9822 45.9956 69.0269 46.0108 69.0673 46.0342L69.7021 46.4007C69.7836 46.4478 69.8432 46.5253 69.8676 46.6163C69.892 46.7073 69.8793 46.8043 69.8322 46.8859C69.7851 46.9675 69.7076 47.027 69.6166 47.0514C69.5256 47.0758 69.4287 47.0631 69.3471 47.016H69.3463ZM70.6217 45.8592C70.5764 45.8473 70.5339 45.8265 70.4967 45.7981C70.4595 45.7697 70.4282 45.7342 70.4048 45.6936L70.0383 45.0589C69.9961 44.9776 69.9869 44.8832 70.0125 44.7953C70.0381 44.7074 70.0966 44.6328 70.1759 44.587C70.2552 44.5412 70.3491 44.5277 70.438 44.5493C70.527 44.5709 70.6041 44.626 70.6535 44.7031L71.0201 45.3379C71.0554 45.3987 71.072 45.4686 71.0675 45.5388C71.0631 45.609 71.0379 45.6764 70.9951 45.7322C70.9523 45.7881 70.8939 45.8299 70.8273 45.8526C70.7607 45.8752 70.6889 45.8775 70.621 45.8592H70.6217ZM73.7849 45.8238C73.7444 45.8005 73.709 45.7695 73.6806 45.7325C73.6522 45.6955 73.6313 45.6532 73.6192 45.6082C73.6072 45.5631 73.6041 45.5161 73.6101 45.4699C73.6162 45.4236 73.6313 45.379 73.6547 45.3386L74.0212 44.7038C74.0706 44.6268 74.1478 44.5716 74.2368 44.55C74.3257 44.5284 74.4196 44.5419 74.4988 44.5877C74.5781 44.6335 74.6367 44.7081 74.6623 44.796C74.6879 44.8839 74.6787 44.9783 74.6365 45.0596L74.27 45.6944C74.2228 45.776 74.1451 45.8357 74.054 45.8601C73.9629 45.8845 73.8658 45.8716 73.7841 45.8245L73.7849 45.8238ZM72.0865 45.3321C72.0536 45.2991 72.0274 45.2598 72.0097 45.2167C71.992 45.1735 71.9829 45.1272 71.9831 45.0805V44.3554C71.9831 44.2611 72.0205 44.1707 72.0872 44.1041C72.1538 44.0375 72.2442 44 72.3385 44C72.4327 44 72.5231 44.0375 72.5897 44.1041C72.6564 44.1707 72.6938 44.2611 72.6938 44.3554V45.0885C72.6937 45.1587 72.6728 45.2274 72.6338 45.2857C72.5947 45.3441 72.5393 45.3896 72.4744 45.4165C72.4095 45.4434 72.3382 45.4505 72.2693 45.4369C72.2004 45.4233 72.137 45.3896 72.0872 45.3401L72.0865 45.3321Z" fill="#D3E1FE"/>
<g filter="url(#filter0_d_1184_4241)">
<g filter="url(#filter1_d_1184_4241)">
<path d="M27.9073 67.2389C27.0911 67.2313 26.2844 67.0631 25.5333 66.7437C24.7822 66.4244 24.1013 65.9602 23.5296 65.3777C22.9578 64.7952 22.5064 64.1057 22.2011 63.3488C21.8958 62.5918 21.7427 61.7821 21.7503 60.9659C21.7349 59.3337 22.0411 56.7143 22.6515 55.2004C23.2619 53.6865 24.1645 52.3076 25.3077 51.1425C26.451 49.9774 27.8126 49.0489 29.3147 48.41C30.8168 47.7711 32.43 47.4343 34.0623 47.4189H52.6913C55.9876 47.4503 59.1365 48.7899 61.4453 51.1429C63.754 53.4959 65.0335 57.6696 65.0023 60.9659C65.0178 62.6134 64.3784 64.1996 63.2248 65.3759C62.0712 66.5522 60.4978 67.2223 58.8503 67.2389H27.9073ZM31.1433 32.0259C31.1277 30.3833 31.4359 28.7537 32.0501 27.2301C32.6643 25.7065 33.5726 24.3189 34.7232 23.1464C35.8737 21.9738 37.2439 21.0394 38.7555 20.3964C40.2672 19.7534 41.8907 19.4145 43.5333 19.3989C46.8507 19.4306 50.0196 20.7787 52.3432 23.1466C54.6667 25.5146 55.9545 28.7085 55.9233 32.0259C55.9537 35.343 54.6656 38.5363 52.3422 40.904C50.0188 43.2716 46.8504 44.6197 43.5333 44.6519C40.2161 44.6202 37.0473 43.2723 34.7238 40.9046C32.4003 38.5368 31.1124 35.3431 31.1433 32.0259Z" fill="url(#paint1_linear_1184_4241)"/>
</g>
</g>
<g filter="url(#filter2_d_1184_4241)">
<circle cx="58.2498" cy="62.4434" r="10" fill="url(#paint2_linear_1184_4241)"/>
</g>
<path d="M55.4213 65.2718L61.0782 59.6149M55.4213 59.6149L61.0782 65.2718L55.4213 59.6149Z" stroke="white" stroke-width="2" stroke-linecap="round" stroke-linejoin="round"/>
</g>
<g opacity="0.2" filter="url(#filter3_i_1184_4241)">
<path d="M17 54C17.8284 54 18.5 53.3284 18.5 52.5C18.5 51.6716 17.8284 51 17 51C16.1716 51 15.5 51.6716 15.5 52.5C15.5 53.3284 16.1716 54 17 54Z" fill="#6695FA"/>
</g>
<g opacity="0.2" filter="url(#filter4_i_1184_4241)">
<path d="M4 12C6.20914 12 8 10.2091 8 8C8 5.79086 6.20914 4 4 4C1.79086 4 0 5.79086 0 8C0 10.2091 1.79086 12 4 12Z" fill="#6695FA"/>
</g>
<path opacity="0.5" d="M80.5 22.7974C81.8807 22.7974 83 21.6781 83 20.2974C83 18.9167 81.8807 17.7974 80.5 17.7974C79.1193 17.7974 78 18.9167 78 20.2974C78 21.6781 79.1193 22.7974 80.5 22.7974Z" fill="#D1DBFA"/>
<defs>
<filter id="filter0_d_1184_4241" x="-18.2502" y="3.39893" width="123.253" height="127.84" filterUnits="userSpaceOnUse" color-interpolation-filters="sRGB">
<feFlood flood-opacity="0" result="BackgroundImageFix"/>
<feColorMatrix in="SourceAlpha" type="matrix" values="0 0 0 0 0 0 0 0 0 0 0 0 0 0 0 0 0 0 127 0" result="hardAlpha"/>
<feOffset dy="24"/>
<feGaussianBlur stdDeviation="20"/>
<feComposite in2="hardAlpha" operator="out"/>
<feColorMatrix type="matrix" values="0 0 0 0 0.162629 0 0 0 0 0.322219 0 0 0 0 0.960579 0 0 0 0.06 0"/>
<feBlend mode="normal" in2="BackgroundImageFix" result="effect1_dropShadow_1184_4241"/>
<feBlend mode="normal" in="SourceGraphic" in2="effect1_dropShadow_1184_4241" result="shape"/>
</filter>
<filter id="filter1_d_1184_4241" x="-18.2502" y="9.39893" width="123.253" height="127.84" filterUnits="userSpaceOnUse" color-interpolation-filters="sRGB">
<feFlood flood-opacity="0" result="BackgroundImageFix"/>
<feColorMatrix in="SourceAlpha" type="matrix" values="0 0 0 0 0 0 0 0 0 0 0 0 0 0 0 0 0 0 127 0" result="hardAlpha"/>
<feOffset dy="30"/>
<feGaussianBlur stdDeviation="20"/>
<feComposite in2="hardAlpha" operator="out"/>
<feColorMatrix type="matrix" values="0 0 0 0 0.162629 0 0 0 0 0.322219 0 0 0 0 0.960579 0 0 0 0.3 0"/>
<feBlend mode="normal" in2="BackgroundImageFix" result="effect1_dropShadow_1184_4241"/>
<feBlend mode="normal" in="SourceGraphic" in2="effect1_dropShadow_1184_4241" result="shape"/>
</filter>
<filter id="filter2_d_1184_4241" x="44.2498" y="52.4434" width="28" height="28" filterUnits="userSpaceOnUse" color-interpolation-filters="sRGB">
<feFlood flood-opacity="0" result="BackgroundImageFix"/>
<feColorMatrix in="SourceAlpha" type="matrix" values="0 0 0 0 0 0 0 0 0 0 0 0 0 0 0 0 0 0 127 0" result="hardAlpha"/>
<feOffset dy="4"/>
<feGaussianBlur stdDeviation="2"/>
<feComposite in2="hardAlpha" operator="out"/>
<feColorMatrix type="matrix" values="0 0 0 0 0.289401 0 0 0 0 0.068138 0 0 0 0 0.59917 0 0 0 0.15 0"/>
<feBlend mode="normal" in2="BackgroundImageFix" result="effect1_dropShadow_1184_4241"/>
<feBlend mode="normal" in="SourceGraphic" in2="effect1_dropShadow_1184_4241" result="shape"/>
</filter>
<filter id="filter3_i_1184_4241" x="15.5" y="50" width="3" height="4" filterUnits="userSpaceOnUse" color-interpolation-filters="sRGB">
<feFlood flood-opacity="0" result="BackgroundImageFix"/>
<feBlend mode="normal" in="SourceGraphic" in2="BackgroundImageFix" result="shape"/>
<feColorMatrix in="SourceAlpha" type="matrix" values="0 0 0 0 0 0 0 0 0 0 0 0 0 0 0 0 0 0 127 0" result="hardAlpha"/>
<feOffset dy="-1"/>
<feGaussianBlur stdDeviation="2"/>
<feComposite in2="hardAlpha" operator="arithmetic" k2="-1" k3="1"/>
<feColorMatrix type="matrix" values="0 0 0 0 0.340564 0 0 0 0 0.123427 0 0 0 0 0.774837 0 0 0 0.25 0"/>
<feBlend mode="normal" in2="shape" result="effect1_innerShadow_1184_4241"/>
</filter>
<filter id="filter4_i_1184_4241" x="0" y="3" width="8" height="9" filterUnits="userSpaceOnUse" color-interpolation-filters="sRGB">
<feFlood flood-opacity="0" result="BackgroundImageFix"/>
<feBlend mode="normal" in="SourceGraphic" in2="BackgroundImageFix" result="shape"/>
<feColorMatrix in="SourceAlpha" type="matrix" values="0 0 0 0 0 0 0 0 0 0 0 0 0 0 0 0 0 0 127 0" result="hardAlpha"/>
<feOffset dy="-1"/>
<feGaussianBlur stdDeviation="2"/>
<feComposite in2="hardAlpha" operator="arithmetic" k2="-1" k3="1"/>
<feColorMatrix type="matrix" values="0 0 0 0 0.340564 0 0 0 0 0.123427 0 0 0 0 0.774837 0 0 0 0.25 0"/>
<feBlend mode="normal" in2="shape" result="effect1_innerShadow_1184_4241"/>
</filter>
<linearGradient id="paint0_linear_1184_4241" x1="72" y1="88" x2="22.5" y2="12.998" gradientUnits="userSpaceOnUse">
<stop stop-color="#F1F5FC"/>
<stop offset="1" stop-color="#F4F6FA"/>
</linearGradient>
<linearGradient id="paint1_linear_1184_4241" x1="36.0118" y1="19.3989" x2="65.0325" y2="40.9499" gradientUnits="userSpaceOnUse">
<stop stop-color="#C8DAFF"/>
<stop offset="1" stop-color="#6191F8"/>
</linearGradient>
<linearGradient id="paint2_linear_1184_4241" x1="53.0498" y1="50.6787" x2="70.6273" y2="69.7145" gradientUnits="userSpaceOnUse">
<stop stop-color="#D0B8FF"/>
<stop offset="1" stop-color="#9B7AFF"/>
</linearGradient>
</defs>
</svg>
