<svg width="185" height="131" viewBox="0 0 185 131" fill="none" xmlns="http://www.w3.org/2000/svg">
<g clip-path="url(#clip0_1596_26026)">
<g clip-path="url(#clip1_1596_26026)">
<ellipse cx="92.5" cy="116.684" rx="91.5" ry="11.3156" fill="url(#paint0_radial_1596_26026)"/>
<ellipse cx="92.5" cy="116.684" rx="91.5" ry="11.3156" fill="url(#paint1_radial_1596_26026)"/>
<g opacity="0.3">
<path d="M31.5723 108.491L51.1379 106.491V94.3683L49.0736 95.5288V65.1495L40.7522 51.5197C40.9756 51.4489 41.1693 51.3086 41.3036 51.1201C41.438 50.9317 41.5057 50.7054 41.4965 50.4757C41.5128 50.2089 41.4209 49.9464 41.2407 49.7455C41.0604 49.5446 40.8064 49.4214 40.5338 49.4026H40.3205V49.6288H39.0402V49.4026H38.9311C38.6594 49.4226 38.4067 49.5463 38.2274 49.7471C38.0482 49.9479 37.957 50.2096 37.9734 50.4757C37.962 50.7111 38.0323 50.9433 38.1728 51.1346C38.3133 51.3259 38.5159 51.465 38.7475 51.5294L31.5723 65.1495V108.491Z" fill="url(#paint2_linear_1596_26026)"/>
<path d="M31.5727 119.257V78.3179H17.9842L11.1927 81.3789V78.3179H1V119.257H31.5727Z" fill="url(#paint3_linear_1596_26026)"/>
<path d="M37.9722 63.0008H36.5859V65.7552H37.9722V63.0008Z" fill="white"/>
<path d="M37.9722 67.5919H36.5859V70.8054H37.9722V67.5919Z" fill="white"/>
<path d="M25.9722 83.0008H24.5859V85.7552H25.9722V83.0008Z" fill="white"/>
<path d="M25.9722 87.5919H24.5859V90.8054H25.9722V87.5919Z" fill="white"/>
<path d="M21.9722 83.0008H20.5859V85.7552H21.9722V83.0008Z" fill="white"/>
<path d="M21.9722 87.5919H20.5859V90.8054H21.9722V87.5919Z" fill="white"/>
<path d="M49.1382 109.257V73.3179H62.7267L69.5183 76.3789V73.3179H79.7109V109.257H49.1382Z" fill="url(#paint4_linear_1596_26026)"/>
<path d="M59.1382 82.5919H57.752V85.8054H59.1382V82.5919Z" fill="white"/>
<path d="M55.1382 78.0008H53.752V80.7552H55.1382V78.0008Z" fill="white"/>
<path d="M55.1382 82.5919H53.752V85.8054H55.1382V82.5919Z" fill="white"/>
</g>
<g opacity="0.3">
<path d="M90.3491 101.529V79.8594H89.001V78.3153H130.162V55.2211L152.91 61.6641L152.944 75.8193H155.717V53.2666H158.491V42.3943H161.473V36.2659H162.437V42.3943H164.365V38.9988H165.329V42.3943H167.544V53.2666H170.679V75.8193H188.537V112.529L90.3491 101.529Z" fill="url(#paint5_linear_1596_26026)"/>
<path d="M164.408 57.9117H165.916V60.9085H164.408V57.9117Z" fill="white"/>
<path d="M159.883 57.9117H161.392V60.9085H159.883V57.9117Z" fill="white"/>
<path d="M135.251 62.4067H136.759V70.8975H135.251V62.4067Z" fill="white"/>
</g>
<path d="M146.467 116.542C148.586 116.542 150.304 116.13 150.304 115.623C150.304 115.115 148.586 114.704 146.467 114.704C144.348 114.704 142.63 115.115 142.63 115.623C142.63 116.13 144.348 116.542 146.467 116.542Z" fill="url(#paint6_linear_1596_26026)"/>
<path d="M146.354 87.0334C144.592 88.6653 143.183 90.6356 142.212 92.8248C141.241 95.014 140.727 97.3765 140.702 99.7689C140.702 105.55 143.453 108.307 146.377 108.307C149.302 108.307 152.047 105.526 152.047 99.7689C152.017 97.3756 151.5 95.0131 150.525 92.8241C149.551 90.6352 148.14 88.6653 146.377 87.0334H146.354Z" fill="#DBE3F5"/>
<path d="M150.042 97.5631L147.004 102.217L146.885 99.2529L148.884 95.3694L146.855 98.4584L146.664 93.6381H146.449L146.133 100.86L143.817 97.3022L146.109 101.767L145.99 104.619L142.636 99.5078L145.918 105.941L145.53 115.101H147.535L147.052 103.421L150.036 97.569L150.042 97.5631Z" fill="#C6D2ED"/>
<g opacity="0.8">
<path d="M158.396 109.688C159.534 109.688 160.456 109.467 160.456 109.194C160.456 108.922 159.534 108.701 158.396 108.701C157.259 108.701 156.337 108.922 156.337 109.194C156.337 109.467 157.259 109.688 158.396 109.688Z" fill="url(#paint7_linear_1596_26026)"/>
<path d="M158.336 93.8499C157.391 94.7257 156.634 95.7832 156.113 96.9582C155.592 98.1332 155.316 99.4012 155.303 100.685C155.303 103.788 156.779 105.268 158.349 105.268C159.918 105.268 161.392 103.775 161.392 100.685C161.376 99.4007 161.098 98.1327 160.575 96.9578C160.052 95.783 159.295 94.7257 158.349 93.8499H158.336Z" fill="#DBE3F5"/>
<path d="M160.316 99.5014L158.685 101.999L158.621 100.408L159.694 98.324L158.605 99.9819L158.503 97.3948H158.388L158.218 101.271L156.975 99.3614L158.205 101.758L158.141 103.288L156.341 100.545L158.102 103.998L157.894 108.914H158.97L158.711 102.645L160.313 99.5046L160.316 99.5014Z" fill="#C6D2ED"/>
</g>
<g opacity="0.6">
<path d="M38.1892 111.812C39.9478 111.812 41.3735 111.47 41.3735 111.049C41.3735 110.627 39.9478 110.286 38.1892 110.286C36.4305 110.286 35.0049 110.627 35.0049 111.049C35.0049 111.47 36.4305 111.812 38.1892 111.812Z" fill="url(#paint8_linear_1596_26026)"/>
<path d="M37.9725 87.5918C36.5199 88.9353 35.3568 90.5577 34.5538 92.3608C33.7508 94.1639 33.3245 96.1102 33.3008 98.0818C33.3008 102.834 35.5703 105.11 37.9725 105.11C40.3747 105.11 42.6442 102.813 42.6442 98.0818C42.6205 96.1102 42.1942 94.1639 41.3912 92.3608C40.5882 90.5577 39.4251 88.9353 37.9725 87.5918Z" fill="#DBE3F5"/>
<path d="M41.0166 96.2641L38.5097 100.094L38.4119 97.6448L40.0599 94.4464L38.391 96.9926L38.2304 93.0242H38.0558L37.8114 98.9699L35.898 96.0421L37.7904 99.7192L37.6927 102.064L34.8994 97.8598L37.6019 103.153L37.2807 110.695H38.9357L38.5376 101.079L41.0027 96.2641H41.0166Z" fill="#C6D2ED"/>
</g>
</g>
<path d="M101 70.5H131C134.314 70.5 137 73.1863 137 76.5V112.5H101V70.5Z" fill="#9EC2FE"/>
<path d="M124.25 95.5C123.918 95.5 123.601 95.3683 123.366 95.1339C123.132 94.8995 123 94.5815 123 94.25V91.75C123 91.4185 123.132 91.1005 123.366 90.8661C123.601 90.6317 123.918 90.5 124.25 90.5H126.75C127.082 90.5 127.399 90.6317 127.634 90.8661C127.868 91.1005 128 91.4185 128 91.75V94.25C128 94.5815 127.868 94.8995 127.634 95.1339C127.399 95.3683 127.082 95.5 126.75 95.5H124.25ZM124.25 85.5C123.918 85.5 123.601 85.3683 123.366 85.1339C123.132 84.8995 123 84.5815 123 84.25V81.75C123 81.4185 123.132 81.1005 123.366 80.8661C123.601 80.6317 123.918 80.5 124.25 80.5H126.75C127.082 80.5 127.399 80.6317 127.634 80.8661C127.868 81.1005 128 81.4185 128 81.75V84.25C128 84.5815 127.868 84.8995 127.634 85.1339C127.399 85.3683 127.082 85.5 126.75 85.5H124.25Z" fill="#F2F5FF"/>
<path d="M86 70.5H54C51.7909 70.5 50 72.2909 50 74.5V108.5C50 110.709 51.7909 112.5 54 112.5H86V70.5Z" fill="#9EC2FE"/>
<path d="M62.75 95.5C63.0815 95.5 63.3995 95.3683 63.6339 95.1339C63.8683 94.8995 64 94.5815 64 94.25V91.75C64 91.4185 63.8683 91.1005 63.6339 90.8661C63.3995 90.6317 63.0815 90.5 62.75 90.5H60.25C59.9185 90.5 59.6005 90.6317 59.3661 90.8661C59.1317 91.1005 59 91.4185 59 91.75V94.25C59 94.5815 59.1317 94.8995 59.3661 95.1339C59.6005 95.3683 59.9185 95.5 60.25 95.5H62.75ZM62.75 85.5C63.0815 85.5 63.3995 85.3683 63.6339 85.1339C63.8683 84.8995 64 84.5815 64 84.25V81.75C64 81.4185 63.8683 81.1005 63.6339 80.8661C63.3995 80.6317 63.0815 80.5 62.75 80.5H60.25C59.9185 80.5 59.6005 80.6317 59.3661 80.8661C59.1317 81.1005 59 81.4185 59 81.75V84.25C59 84.5815 59.1317 84.8995 59.3661 85.1339C59.6005 85.3683 59.9185 85.5 60.25 85.5H62.75Z" fill="#F2F5FF"/>
<path d="M70 49.5C70 47.2909 71.7909 45.5 74 45.5H112C114.209 45.5 116 47.2909 116 49.5V111.5C116 112.052 115.552 112.5 115 112.5H71C70.4477 112.5 70 112.052 70 111.5V49.5Z" fill="url(#paint9_linear_1596_26026)"/>
<path d="M83 94.5C83 93.3954 83.8954 92.5 85 92.5H101C102.105 92.5 103 93.3954 103 94.5V112.625H83V94.5Z" fill="#406CCB"/>
<path fill-rule="evenodd" clip-rule="evenodd" d="M79 58.5C78.4477 58.5 78 58.9477 78 59.5V64.5C78 65.0523 78.4477 65.5 79 65.5H84C84.5523 65.5 85 65.0523 85 64.5V59.5C85 58.9477 84.5523 58.5 84 58.5H79ZM79 73.5C78.4477 73.5 78 73.9477 78 74.5V79.5C78 80.0523 78.4477 80.5 79 80.5H84C84.5523 80.5 85 80.0523 85 79.5V74.5C85 73.9477 84.5523 73.5 84 73.5H79ZM90 59.5C90 58.9477 90.4477 58.5 91 58.5H96C96.5523 58.5 97 58.9477 97 59.5V64.5C97 65.0523 96.5523 65.5 96 65.5H91C90.4477 65.5 90 65.0523 90 64.5V59.5ZM91 73.5C90.4477 73.5 90 73.9477 90 74.5V79.5C90 80.0523 90.4477 80.5 91 80.5H96C96.5523 80.5 97 80.0523 97 79.5V74.5C97 73.9477 96.5523 73.5 96 73.5H91ZM102 59.5C102 58.9477 102.448 58.5 103 58.5H108C108.552 58.5 109 58.9477 109 59.5V64.5C109 65.0523 108.552 65.5 108 65.5H103C102.448 65.5 102 65.0523 102 64.5V59.5ZM103 73.5C102.448 73.5 102 73.9477 102 74.5V79.5C102 80.0523 102.448 80.5 103 80.5H108C108.552 80.5 109 80.0523 109 79.5V74.5C109 73.9477 108.552 73.5 108 73.5H103Z" fill="white"/>
<path d="M47 111.5C47 110.395 47.8954 109.5 49 109.5H137C138.105 109.5 139 110.395 139 111.5V112.5C139 113.052 138.552 113.5 138 113.5H48C47.4477 113.5 47 113.052 47 112.5V111.5Z" fill="#4774D4"/>
</g>
<defs>
<radialGradient id="paint0_radial_1596_26026" cx="0" cy="0" r="1" gradientUnits="userSpaceOnUse" gradientTransform="translate(92.5 105.369) rotate(90) scale(22.6311 127.08)">
<stop stop-color="#B9C6E7"/>
<stop offset="1" stop-color="white" stop-opacity="0"/>
</radialGradient>
<radialGradient id="paint1_radial_1596_26026" cx="0" cy="0" r="1" gradientUnits="userSpaceOnUse" gradientTransform="translate(92.5 105.369) rotate(90) scale(22.6311 127.08)">
<stop stop-color="#C5D3FF"/>
<stop offset="1" stop-color="white" stop-opacity="0"/>
</radialGradient>
<linearGradient id="paint2_linear_1596_26026" x1="41.3551" y1="40.188" x2="41.3551" y2="114.491" gradientUnits="userSpaceOnUse">
<stop stop-color="#C5D2EC"/>
<stop offset="0.9964" stop-color="#F1F7FE"/>
</linearGradient>
<linearGradient id="paint3_linear_1596_26026" x1="27.0005" y1="78.3179" x2="9.00049" y2="98.7877" gradientUnits="userSpaceOnUse">
<stop stop-color="#C5D2EC"/>
<stop offset="0.9964" stop-color="#F1F7FE"/>
</linearGradient>
<linearGradient id="paint4_linear_1596_26026" x1="53.7105" y1="78.3179" x2="71.7104" y2="98.7877" gradientUnits="userSpaceOnUse">
<stop stop-color="#C5D2EC"/>
<stop offset="0.9964" stop-color="#F1F7FE"/>
</linearGradient>
<linearGradient id="paint5_linear_1596_26026" x1="131.229" y1="76.2146" x2="153.99" y2="116.958" gradientUnits="userSpaceOnUse">
<stop stop-color="#C5D2EC"/>
<stop offset="0.9964" stop-color="#F1F7FE" stop-opacity="0"/>
</linearGradient>
<linearGradient id="paint6_linear_1596_26026" x1="147.18" y1="114.704" x2="147.18" y2="116.542" gradientUnits="userSpaceOnUse">
<stop stop-color="#C5D2EC"/>
<stop offset="0.9964" stop-color="#F1F7FE" stop-opacity="0"/>
</linearGradient>
<linearGradient id="paint7_linear_1596_26026" x1="158.779" y1="108.701" x2="158.779" y2="109.688" gradientUnits="userSpaceOnUse">
<stop stop-color="#C5D2EC"/>
<stop offset="0.9964" stop-color="#F1F7FE" stop-opacity="0"/>
</linearGradient>
<linearGradient id="paint8_linear_1596_26026" x1="38.1892" y1="110.286" x2="38.1928" y2="112.612" gradientUnits="userSpaceOnUse">
<stop stop-color="#C5D2EC"/>
<stop offset="0.9964" stop-color="#F1F7FE" stop-opacity="0"/>
</linearGradient>
<linearGradient id="paint9_linear_1596_26026" x1="75.5" y1="45.5" x2="109" y2="112.5" gradientUnits="userSpaceOnUse">
<stop stop-color="#A8C4FF"/>
<stop offset="1" stop-color="#4A81F7"/>
</linearGradient>
<clipPath id="clip0_1596_26026">
<rect width="184" height="130" fill="white" transform="translate(0.666992 0.5)"/>
</clipPath>
<clipPath id="clip1_1596_26026">
<rect width="183" height="131" fill="white" transform="translate(1 -1.5)"/>
</clipPath>
</defs>
</svg>
