<svg width="88" height="88" viewBox="0 0 88 88" fill="none" xmlns="http://www.w3.org/2000/svg">
<circle cx="44" cy="44" r="44" fill="url(#paint0_linear_3360_12571)"/>
<mask id="mask0_3360_12571" style="mask-type:alpha" maskUnits="userSpaceOnUse" x="0" y="0" width="88" height="88">
<circle cx="44" cy="44" r="44" fill="black"/>
</mask>
<g mask="url(#mask0_3360_12571)">
<g filter="url(#filter0_d_3360_12571)">
<path d="M24.6081 65.0577C24.2151 64.8956 23.8789 64.6202 23.6423 64.267C23.4056 63.9137 23.2792 63.4983 23.2788 63.0731V29.3529C23.2788 27.8734 23.8664 26.4548 24.9126 25.4086C25.9589 24.3624 27.378 23.7742 28.8576 23.7742H59.1424C60.6219 23.7742 62.0409 24.3624 63.0871 25.4086C64.1333 26.4548 64.7211 27.8734 64.7211 29.3529V53.262C64.7211 54.7416 64.1333 56.1601 63.0871 57.2063C62.0409 58.2526 60.6219 58.8407 59.1424 58.8407H32.6973L26.9591 64.5892C26.5556 64.993 26.0094 65.221 25.4386 65.2258C25.1533 65.2247 24.8711 65.1681 24.6081 65.0577Z" fill="url(#paint1_linear_3360_12571)"/>
<path fill-rule="evenodd" clip-rule="evenodd" d="M42.6373 45.6363V45.8921L42.6409 45.8894C42.6409 46.2812 42.8037 46.6569 43.0934 46.934C43.3832 47.211 43.7761 47.3667 44.1859 47.3667C44.5956 47.3667 44.9886 47.211 45.2783 46.934C45.5681 46.6569 45.7308 46.2812 45.7308 45.8894V45.6335C45.6785 45.2525 45.7282 44.865 45.8754 44.5074C46.3943 43.7988 47.0344 43.179 47.7688 42.674C48.6431 42.019 49.4125 41.2453 50.0526 40.3775C50.7789 39.3836 51.1729 38.2025 51.1826 36.99C51.1826 35.2148 50.4451 33.5122 49.1324 32.2569C47.8196 31.0016 46.0391 30.2964 44.1826 30.2964C42.3261 30.2964 40.5456 31.0016 39.2329 32.2569C37.9201 33.5122 37.1826 35.2148 37.1826 36.99C37.1946 37.3738 37.3624 37.7381 37.6505 38.0057C37.9386 38.2732 38.3242 38.423 38.7258 38.4232C39.1274 38.4235 39.5133 38.2742 39.8017 38.0071C40.0902 37.74 40.2585 37.3759 40.2711 36.9921C40.2708 36.5031 40.3723 36.019 40.5698 35.568C40.7673 35.1169 41.0568 34.708 41.4213 34.3651C42.1534 33.6652 43.1463 33.272 44.1815 33.272C45.2168 33.272 46.2097 33.6652 46.9418 34.3651C47.3063 34.708 47.5958 35.1169 47.7933 35.568C47.9907 36.019 48.0923 36.5031 48.092 36.9921C48.092 38.1265 47.4066 39.1504 45.8002 40.4148C44.7344 41.1501 43.8302 42.0786 43.139 43.1476C42.7451 43.9203 42.572 44.7789 42.6373 45.6363ZM44.173 52.2964C45.2134 52.2964 46.0568 51.4899 46.0568 50.4951C46.0568 49.5002 45.2134 48.6937 44.173 48.6937C43.1326 48.6937 42.2892 49.5002 42.2892 50.4951C42.2892 51.4899 43.1326 52.2964 44.173 52.2964Z" fill="white"/>
</g>
<g filter="url(#filter1_d_3360_12571)">
<circle cx="61" cy="56.6631" r="10" fill="url(#paint2_linear_3360_12571)"/>
</g>
<path d="M58.1717 59.4915L63.8285 53.8347M58.1717 53.8347L63.8285 59.4915L58.1717 53.8347Z" stroke="white" stroke-width="2" stroke-linecap="round" stroke-linejoin="round"/>
</g>
<g opacity="0.2" filter="url(#filter2_i_3360_12571)">
<path d="M11.4131 45.5C12.2415 45.5 12.9131 44.8284 12.9131 44C12.9131 43.1716 12.2415 42.5 11.4131 42.5C10.5847 42.5 9.91309 43.1716 9.91309 44C9.91309 44.8284 10.5847 45.5 11.4131 45.5Z" fill="#6695FA"/>
</g>
<path d="M75.9798 52.6439V51.9115C75.9798 51.8173 76.0172 51.7269 76.0838 51.6603C76.1505 51.5936 76.2408 51.5562 76.3351 51.5562C76.4293 51.5562 76.5198 51.5936 76.5864 51.6603C76.653 51.7269 76.6904 51.8173 76.6904 51.9115V52.6446C76.6904 52.7389 76.653 52.8293 76.5864 52.8959C76.5198 52.9626 76.4293 53 76.3351 53C76.2408 53 76.1505 52.9626 76.0838 52.8959C76.0172 52.8293 75.9798 52.7382 75.9798 52.6439ZM78.0186 52.2882L77.6521 51.6534C77.6068 51.5719 77.5954 51.4758 77.6203 51.3859C77.6452 51.296 77.7045 51.2195 77.7852 51.1728C77.866 51.1262 77.9619 51.1131 78.0522 51.1365C78.1425 51.1599 78.22 51.2177 78.268 51.2977L78.6346 51.9325C78.6768 52.0137 78.686 52.1081 78.6604 52.196C78.6347 52.2839 78.5762 52.3585 78.4969 52.4044C78.4177 52.4502 78.3238 52.4637 78.2349 52.442C78.1459 52.4204 78.068 52.3653 78.0186 52.2882ZM74.1665 52.4183C74.085 52.3712 74.0255 52.2936 74.0011 52.2027C73.9767 52.1118 73.9894 52.0149 74.0363 51.9332L74.4029 51.2984C74.45 51.2168 74.5275 51.1573 74.6185 51.1329C74.7095 51.1085 74.8064 51.1212 74.888 51.1683C74.9696 51.2154 75.0291 51.2929 75.0536 51.3839C75.078 51.4749 75.0652 51.5718 75.0182 51.6534L74.6516 52.2882C74.6283 52.3286 74.5973 52.3641 74.5603 52.3925C74.5233 52.4209 74.4811 52.4417 74.436 52.4538C74.391 52.4659 74.344 52.469 74.2977 52.4629C74.2515 52.4568 74.2069 52.4417 74.1665 52.4183ZM79.607 50.9608L78.9722 50.5942C78.9296 50.5721 78.8918 50.5415 78.8613 50.5044C78.8308 50.4672 78.8081 50.4243 78.7947 50.3782C78.7812 50.332 78.7772 50.2836 78.783 50.2359C78.7887 50.1882 78.8041 50.1421 78.8282 50.1005C78.8522 50.0588 78.8845 50.0226 78.923 49.9938C78.9615 49.9649 79.0054 49.9442 79.0521 49.9329C79.0988 49.9215 79.1473 49.9197 79.1947 49.9277C79.2421 49.9356 79.2875 49.953 79.328 49.979L79.9627 50.3455C80.0031 50.3688 80.0386 50.3999 80.067 50.4368C80.0954 50.4738 80.1162 50.5161 80.1283 50.5611C80.1404 50.6062 80.1435 50.6532 80.1374 50.6994C80.1313 50.7457 80.1162 50.7903 80.0929 50.8306C80.0696 50.871 80.0385 50.9065 80.0015 50.9349C79.9645 50.9633 79.9223 50.9841 79.8773 50.9962C79.8322 51.0083 79.7853 51.0114 79.739 51.0053C79.6928 50.9992 79.6482 50.9841 79.6078 50.9608H79.607ZM72.5787 50.8306C72.5318 50.749 72.5192 50.6521 72.5436 50.5612C72.568 50.4703 72.6274 50.3927 72.7089 50.3455L73.3437 49.979C73.4253 49.9319 73.5222 49.9191 73.6132 49.9435C73.7042 49.9679 73.7817 50.0275 73.8288 50.1091C73.8759 50.1907 73.8887 50.2876 73.8642 50.3786C73.8398 50.4696 73.7803 50.5471 73.6987 50.5942L73.0639 50.9608C72.9822 51.0079 72.8851 51.0207 72.794 50.9963C72.7029 50.9719 72.6259 50.9123 72.5787 50.8306ZM79.5854 49.0166C79.4911 49.0166 79.4007 48.9792 79.3341 48.9126C79.2674 48.8459 79.23 48.7555 79.23 48.6613C79.23 48.5671 79.2674 48.4767 79.3341 48.41C79.4007 48.3434 79.4911 48.3059 79.5854 48.3059H80.3185C80.4127 48.3059 80.5031 48.3434 80.5697 48.41C80.6364 48.4767 80.6738 48.5671 80.6738 48.6613C80.6738 48.7555 80.6364 48.8459 80.5697 48.9126C80.5031 48.9792 80.4127 49.0166 80.3185 49.0166H79.5854ZM72.3554 49.0166C72.2611 49.0166 72.1707 48.9792 72.1041 48.9126C72.0375 48.8459 72 48.7555 72 48.6613C72 48.5671 72.0375 48.4767 72.1041 48.41C72.1707 48.3434 72.2611 48.3059 72.3554 48.3059H73.0885C73.1827 48.3059 73.2731 48.3434 73.3397 48.41C73.4064 48.4767 73.4438 48.5671 73.4438 48.6613C73.4438 48.7555 73.4064 48.8459 73.3397 48.9126C73.2731 48.9792 73.1827 49.0166 73.0885 49.0166H72.3554ZM78.8414 47.212C78.8181 47.1716 78.8029 47.127 78.7968 47.0808C78.7907 47.0345 78.7938 46.9876 78.8059 46.9425C78.818 46.8974 78.8388 46.8552 78.8673 46.8182C78.8957 46.7812 78.9311 46.7502 78.9715 46.7269L79.6063 46.3604C79.6467 46.337 79.6913 46.3219 79.7376 46.3158C79.7838 46.3098 79.8308 46.3128 79.8758 46.3249C79.9209 46.337 79.9631 46.3579 80.0001 46.3863C80.0371 46.4147 80.0681 46.4501 80.0914 46.4905C80.1147 46.5309 80.1299 46.5755 80.1359 46.6217C80.142 46.668 80.1389 46.7149 80.1269 46.76C80.1148 46.805 80.0939 46.8473 80.0655 46.8843C80.0371 46.9213 80.0017 46.9523 79.9613 46.9756L79.3265 47.3422C79.2861 47.3655 79.2415 47.3807 79.1953 47.3867C79.149 47.3928 79.102 47.3897 79.057 47.3776C79.0119 47.3656 78.9697 47.3447 78.9327 47.3163C78.8957 47.2879 78.8647 47.2525 78.8414 47.212ZM73.3466 47.3422L72.7118 46.9756C72.6714 46.9522 72.636 46.9212 72.6076 46.8841C72.5792 46.8471 72.5584 46.8048 72.5464 46.7598C72.5343 46.7147 72.5312 46.6676 72.5374 46.6214C72.5435 46.5751 72.5587 46.5305 72.582 46.4901C72.6054 46.4497 72.6364 46.4143 72.6735 46.386C72.7105 46.3576 72.7528 46.3368 72.7979 46.3247C72.843 46.3127 72.89 46.3096 72.9362 46.3157C72.9825 46.3218 73.0271 46.337 73.0675 46.3604L73.7023 46.7269C73.7839 46.774 73.8435 46.8515 73.8679 46.9425C73.8923 47.0335 73.8795 47.1304 73.8324 47.212C73.7854 47.2936 73.7078 47.3532 73.6168 47.3776C73.5258 47.402 73.4289 47.3892 73.3473 47.3422H73.3466ZM74.622 46.1854C74.5767 46.1735 74.5342 46.1527 74.497 46.1243C74.4597 46.0959 74.4285 46.0604 74.405 46.0198L74.0385 45.385C73.9963 45.3038 73.9871 45.2094 74.0127 45.1215C74.0384 45.0336 74.0969 44.959 74.1761 44.9132C74.2554 44.8673 74.3493 44.8539 74.4383 44.8755C74.5272 44.8971 74.6044 44.9522 74.6537 45.0293L75.0203 45.6641C75.0557 45.7249 75.0722 45.7948 75.0678 45.865C75.0633 45.9352 75.0381 46.0025 74.9953 46.0584C74.9526 46.1142 74.8942 46.1561 74.8276 46.1787C74.761 46.2013 74.6891 46.2037 74.6212 46.1854H74.622ZM77.7851 46.15C77.7447 46.1267 77.7092 46.0956 77.6808 46.0587C77.6524 46.0217 77.6316 45.9794 77.6195 45.9343C77.6074 45.8893 77.6043 45.8423 77.6104 45.796C77.6165 45.7498 77.6316 45.7052 77.6549 45.6648L78.0215 45.03C78.0709 44.9529 78.1481 44.8978 78.237 44.8762C78.326 44.8546 78.4198 44.8681 78.4991 44.9139C78.5784 44.9597 78.6369 45.0343 78.6625 45.1222C78.6882 45.2101 78.679 45.3045 78.6368 45.3857L78.2702 46.0205C78.223 46.1022 78.1453 46.1618 78.0542 46.1862C77.9631 46.2106 77.866 46.1978 77.7843 46.1507L77.7851 46.15ZM76.0868 45.6583C76.0538 45.6253 76.0277 45.586 76.0099 45.5428C75.9922 45.4997 75.9832 45.4534 75.9834 45.4067V44.6815C75.9834 44.5873 76.0208 44.4969 76.0874 44.4303C76.1541 44.3636 76.2445 44.3262 76.3387 44.3262C76.4329 44.3262 76.5233 44.3636 76.59 44.4303C76.6566 44.4969 76.6941 44.5873 76.6941 44.6815V45.4146C76.694 45.4849 76.6731 45.5535 76.634 45.6119C76.595 45.6703 76.5395 45.7157 76.4747 45.7426C76.4098 45.7696 76.3384 45.7767 76.2695 45.7631C76.2006 45.7495 76.1373 45.7158 76.0875 45.6663L76.0868 45.6583Z" fill="#D3E1FE"/>
<g opacity="0.2" filter="url(#filter3_i_3360_12571)">
<path d="M5.91309 11C8.12223 11 9.91309 9.20914 9.91309 7C9.91309 4.79086 8.12223 3 5.91309 3C3.70395 3 1.91309 4.79086 1.91309 7C1.91309 9.20914 3.70395 11 5.91309 11Z" fill="#6695FA"/>
</g>
<path opacity="0.5" d="M83.1738 16C84.5545 16 85.6738 14.8807 85.6738 13.5C85.6738 12.1193 84.5545 11 83.1738 11C81.7931 11 80.6738 12.1193 80.6738 13.5C80.6738 14.8807 81.7931 16 83.1738 16Z" fill="#D1DBFA"/>
<defs>
<filter id="filter0_d_3360_12571" x="-16.7212" y="13.7742" width="121.442" height="121.452" filterUnits="userSpaceOnUse" color-interpolation-filters="sRGB">
<feFlood flood-opacity="0" result="BackgroundImageFix"/>
<feColorMatrix in="SourceAlpha" type="matrix" values="0 0 0 0 0 0 0 0 0 0 0 0 0 0 0 0 0 0 127 0" result="hardAlpha"/>
<feOffset dy="30"/>
<feGaussianBlur stdDeviation="20"/>
<feComposite in2="hardAlpha" operator="out"/>
<feColorMatrix type="matrix" values="0 0 0 0 0.162629 0 0 0 0 0.322219 0 0 0 0 0.960579 0 0 0 0.2 0"/>
<feBlend mode="normal" in2="BackgroundImageFix" result="effect1_dropShadow_3360_12571"/>
<feBlend mode="normal" in="SourceGraphic" in2="effect1_dropShadow_3360_12571" result="shape"/>
</filter>
<filter id="filter1_d_3360_12571" x="47" y="46.6631" width="28" height="28" filterUnits="userSpaceOnUse" color-interpolation-filters="sRGB">
<feFlood flood-opacity="0" result="BackgroundImageFix"/>
<feColorMatrix in="SourceAlpha" type="matrix" values="0 0 0 0 0 0 0 0 0 0 0 0 0 0 0 0 0 0 127 0" result="hardAlpha"/>
<feOffset dy="4"/>
<feGaussianBlur stdDeviation="2"/>
<feComposite in2="hardAlpha" operator="out"/>
<feColorMatrix type="matrix" values="0 0 0 0 0.289401 0 0 0 0 0.068138 0 0 0 0 0.59917 0 0 0 0.15 0"/>
<feBlend mode="normal" in2="BackgroundImageFix" result="effect1_dropShadow_3360_12571"/>
<feBlend mode="normal" in="SourceGraphic" in2="effect1_dropShadow_3360_12571" result="shape"/>
</filter>
<filter id="filter2_i_3360_12571" x="9.91309" y="41.5" width="3" height="4" filterUnits="userSpaceOnUse" color-interpolation-filters="sRGB">
<feFlood flood-opacity="0" result="BackgroundImageFix"/>
<feBlend mode="normal" in="SourceGraphic" in2="BackgroundImageFix" result="shape"/>
<feColorMatrix in="SourceAlpha" type="matrix" values="0 0 0 0 0 0 0 0 0 0 0 0 0 0 0 0 0 0 127 0" result="hardAlpha"/>
<feOffset dy="-1"/>
<feGaussianBlur stdDeviation="2"/>
<feComposite in2="hardAlpha" operator="arithmetic" k2="-1" k3="1"/>
<feColorMatrix type="matrix" values="0 0 0 0 0.340564 0 0 0 0 0.123427 0 0 0 0 0.774837 0 0 0 0.25 0"/>
<feBlend mode="normal" in2="shape" result="effect1_innerShadow_3360_12571"/>
</filter>
<filter id="filter3_i_3360_12571" x="1.91309" y="2" width="8" height="9" filterUnits="userSpaceOnUse" color-interpolation-filters="sRGB">
<feFlood flood-opacity="0" result="BackgroundImageFix"/>
<feBlend mode="normal" in="SourceGraphic" in2="BackgroundImageFix" result="shape"/>
<feColorMatrix in="SourceAlpha" type="matrix" values="0 0 0 0 0 0 0 0 0 0 0 0 0 0 0 0 0 0 127 0" result="hardAlpha"/>
<feOffset dy="-1"/>
<feGaussianBlur stdDeviation="2"/>
<feComposite in2="hardAlpha" operator="arithmetic" k2="-1" k3="1"/>
<feColorMatrix type="matrix" values="0 0 0 0 0.340564 0 0 0 0 0.123427 0 0 0 0 0.774837 0 0 0 0.25 0"/>
<feBlend mode="normal" in2="shape" result="effect1_innerShadow_3360_12571"/>
</filter>
<linearGradient id="paint0_linear_3360_12571" x1="72" y1="88" x2="22.5" y2="12.998" gradientUnits="userSpaceOnUse">
<stop stop-color="#F1F5FC"/>
<stop offset="1" stop-color="#F4F6FA"/>
</linearGradient>
<linearGradient id="paint1_linear_3360_12571" x1="26.6824" y1="21.9658" x2="69.5717" y2="45.539" gradientUnits="userSpaceOnUse">
<stop stop-color="#C8DAFF"/>
<stop offset="1" stop-color="#6191F8"/>
</linearGradient>
<linearGradient id="paint2_linear_3360_12571" x1="55.8" y1="44.8984" x2="73.3775" y2="63.9342" gradientUnits="userSpaceOnUse">
<stop stop-color="#D0B8FF"/>
<stop offset="1" stop-color="#9B7AFF"/>
</linearGradient>
</defs>
</svg>
