<svg width="49" height="48" viewBox="0 0 49 48" fill="none" xmlns="http://www.w3.org/2000/svg">
<path d="M35.6667 27L38.6667 34.6197C38.6277 35.0191 38.4331 35.3871 38.125 35.6443C37.8169 35.9016 37.4199 36.0275 37.0197 35.9949H12.3137C11.9136 36.0275 11.5166 35.9016 11.2085 35.6443C10.9004 35.3871 10.7058 35.0191 10.6667 34.6197L13.6667 27H35.6667Z" fill="url(#paint0_linear_1849_31103)"/>
<path d="M37.0066 35.999H12.4329C11.3251 35.999 10.6638 35.4991 10.6638 34.6611L10.7328 34.498H38.5979L38.6638 34.6611C38.6678 35.5231 38.0785 35.999 37.0066 35.999Z" fill="#5B68D3"/>
<path d="M13.6667 14C13.6667 12.8954 14.5622 12 15.6667 12H33.6667C34.7713 12 35.6667 12.8954 35.6667 14V27H13.6667V14Z" fill="url(#paint1_linear_1849_31103)"/>
<path d="M17.4167 30H31.9167C32.1157 30 32.3064 30.0791 32.447 30.2197C32.5877 30.3604 32.6667 30.5511 32.6667 30.75C32.6667 30.9489 32.5877 31.1396 32.447 31.2803C32.3064 31.4209 32.1157 31.5 31.9167 31.5H17.4167C17.2178 31.5 17.0269 31.4209 16.8862 31.2803C16.7456 31.1396 16.6667 30.9489 16.6667 30.75C16.6667 30.5511 16.7456 30.3604 16.8862 30.2197C17.0269 30.0791 17.2178 30 17.4167 30Z" fill="white" fill-opacity="0.5"/>
<path d="M17.4148 24C17.2159 24 17.0252 23.9209 16.8845 23.7803C16.7439 23.6396 16.6648 23.4489 16.6648 23.25C16.6648 23.0511 16.7439 22.8604 16.8845 22.7197C17.0252 22.5791 17.2159 22.5 17.4148 22.5H30.9148C31.1137 22.5 31.3047 22.5791 31.4453 22.7197C31.586 22.8604 31.6648 23.0511 31.6648 23.25C31.6648 23.4489 31.586 23.6396 31.4453 23.7803C31.3047 23.9209 31.1137 24 30.9148 24H17.4148ZM23.4148 20.5C23.2159 20.5 23.0252 20.4209 22.8845 20.2803C22.7439 20.1396 22.6648 19.9489 22.6648 19.75C22.6648 19.5511 22.7439 19.3604 22.8845 19.2197C23.0252 19.0791 23.2159 19 23.4148 19H27.5388C27.7377 19 27.9284 19.0791 28.0691 19.2197C28.2097 19.3604 28.2888 19.5511 28.2888 19.75C28.2888 19.9489 28.2097 20.1396 28.0691 20.2803C27.9284 20.4209 27.7377 20.5 27.5388 20.5H23.4148ZM23.4148 17.5C23.2159 17.5 23.0252 17.4209 22.8845 17.2803C22.7439 17.1396 22.6648 16.9489 22.6648 16.75C22.6648 16.5511 22.7439 16.3604 22.8845 16.2197C23.0252 16.0791 23.2159 16 23.4148 16H31.9148C32.1137 16 32.3047 16.0791 32.4453 16.2197C32.586 16.3604 32.6648 16.5511 32.6648 16.75C32.6648 16.9489 32.586 17.1396 32.4453 17.2803C32.3047 17.4209 32.1137 17.5 31.9148 17.5H23.4148Z" fill="white" fill-opacity="0.3"/>
<path d="M20.6667 16H17.6667C17.1145 16 16.6667 16.4477 16.6667 17V20C16.6667 20.5523 17.1145 21 17.6667 21H20.6667C21.219 21 21.6667 20.5523 21.6667 20V17C21.6667 16.4477 21.219 16 20.6667 16Z" fill="white" fill-opacity="0.7"/>
<g filter="url(#filter0_di_1849_31103)">
<rect x="26.6667" y="26" width="14" height="14" rx="7" fill="url(#paint2_linear_1849_31103)"/>
</g>
<path fill-rule="evenodd" clip-rule="evenodd" d="M36.4795 29.6668C36.3764 29.6444 36.2691 29.6522 36.1703 29.6891L30.008 32.1804L30.0013 32.1833C29.8983 32.2285 29.8116 32.3042 29.7529 32.4002C29.6943 32.4962 29.6665 32.6079 29.6732 32.7202C29.68 32.8325 29.7211 32.94 29.7909 33.0283C29.8607 33.1165 29.9559 33.1812 30.0637 33.2136C30.0718 33.2161 30.08 33.2181 30.0883 33.2197L32.747 33.7339C32.753 33.7364 32.7586 33.7401 32.7632 33.7448C32.7682 33.7497 32.772 33.7557 32.7745 33.7622L33.3491 36.4849C33.3506 36.4918 33.3523 36.4986 33.3544 36.5053C33.3868 36.6131 33.4515 36.7083 33.5397 36.7781C33.628 36.8479 33.7355 36.889 33.8478 36.8958C33.9601 36.9026 34.0718 36.8747 34.1678 36.8161C34.2638 36.7574 34.3396 36.6707 34.3848 36.5677L36.8756 30.4029L36.8779 30.3967C36.9149 30.2979 36.9226 30.1906 36.9002 30.0875C36.8778 29.9844 36.8262 29.89 36.7516 29.8154C36.677 29.7408 36.5826 29.6892 36.4795 29.6668Z" fill="white"/>
<defs>
<filter id="filter0_di_1849_31103" x="25.1667" y="25" width="16" height="16" filterUnits="userSpaceOnUse" color-interpolation-filters="sRGB">
<feFlood flood-opacity="0" result="BackgroundImageFix"/>
<feColorMatrix in="SourceAlpha" type="matrix" values="0 0 0 0 0 0 0 0 0 0 0 0 0 0 0 0 0 0 127 0" result="hardAlpha"/>
<feOffset dx="-0.5"/>
<feGaussianBlur stdDeviation="0.5"/>
<feComposite in2="hardAlpha" operator="out"/>
<feColorMatrix type="matrix" values="0 0 0 0 0.0784314 0 0 0 0 0.168627 0 0 0 0 0.313726 0 0 0 0.16 0"/>
<feBlend mode="normal" in2="BackgroundImageFix" result="effect1_dropShadow_1849_31103"/>
<feBlend mode="normal" in="SourceGraphic" in2="effect1_dropShadow_1849_31103" result="shape"/>
<feColorMatrix in="SourceAlpha" type="matrix" values="0 0 0 0 0 0 0 0 0 0 0 0 0 0 0 0 0 0 127 0" result="hardAlpha"/>
<feOffset dx="0.2" dy="0.2"/>
<feGaussianBlur stdDeviation="0.5"/>
<feComposite in2="hardAlpha" operator="arithmetic" k2="-1" k3="1"/>
<feColorMatrix type="matrix" values="0 0 0 0 1 0 0 0 0 1 0 0 0 0 1 0 0 0 0.5 0"/>
<feBlend mode="normal" in2="shape" result="effect2_innerShadow_1849_31103"/>
</filter>
<linearGradient id="paint0_linear_1849_31103" x1="20.8975" y1="25.7143" x2="24.5921" y2="38.8238" gradientUnits="userSpaceOnUse">
<stop stop-color="#ABB6FF"/>
<stop offset="1" stop-color="#6173F4"/>
</linearGradient>
<linearGradient id="paint1_linear_1849_31103" x1="21.7052" y1="9.85723" x2="32.0922" y2="27.2323" gradientUnits="userSpaceOnUse">
<stop stop-color="#ACB6FF"/>
<stop offset="1" stop-color="#6678F7"/>
</linearGradient>
<linearGradient id="paint2_linear_1849_31103" x1="29.6667" y1="26.5" x2="37.6667" y2="40" gradientUnits="userSpaceOnUse">
<stop stop-color="#DEB5FF"/>
<stop offset="1" stop-color="#B761EB"/>
</linearGradient>
</defs>
</svg>
