<svg width="89" height="88" viewBox="0 0 89 88" fill="none" xmlns="http://www.w3.org/2000/svg">
<circle cx="45" cy="44" r="44" fill="url(#paint0_linear_1184_3623)"/>
<mask id="mask0_1184_3623" style="mask-type:alpha" maskUnits="userSpaceOnUse" x="1" y="0" width="88" height="88">
<circle cx="45" cy="44" r="44" fill="black"/>
</mask>
<g mask="url(#mask0_1184_3623)">
<path d="M75.9783 53.8041V53.0717C75.9783 52.9774 76.0157 52.8871 76.0824 52.8204C76.149 52.7538 76.2394 52.7163 76.3336 52.7163C76.4279 52.7163 76.5183 52.7538 76.5849 52.8204C76.6516 52.8871 76.689 52.9774 76.689 53.0717V53.8048C76.689 53.899 76.6516 53.9895 76.5849 54.0561C76.5183 54.1227 76.4279 54.1602 76.3336 54.1602C76.2394 54.1602 76.149 54.1227 76.0824 54.0561C76.0157 53.9895 75.9783 53.8983 75.9783 53.8041ZM78.0172 53.4484L77.6506 52.8136C77.6053 52.732 77.5939 52.6359 77.6189 52.546C77.6438 52.4561 77.703 52.3796 77.7838 52.333C77.8645 52.2863 77.9604 52.2733 78.0507 52.2967C78.141 52.32 78.2185 52.3779 78.2666 52.4579L78.6331 53.0926C78.6753 53.1739 78.6846 53.2683 78.6589 53.3562C78.6333 53.4441 78.5747 53.5187 78.4955 53.5645C78.4162 53.6103 78.3223 53.6238 78.2334 53.6022C78.1444 53.5806 78.0665 53.5255 78.0172 53.4484ZM74.165 53.5785C74.0835 53.5313 74.0241 53.4538 73.9997 53.3628C73.9753 53.2719 73.9879 53.175 74.0348 53.0934L74.4014 52.4586C74.4485 52.377 74.526 52.3174 74.617 52.293C74.708 52.2686 74.805 52.2814 74.8866 52.3284C74.9682 52.3755 75.0277 52.4531 75.0521 52.544C75.0765 52.635 75.0638 52.732 75.0167 52.8136L74.6501 53.4484C74.6268 53.4888 74.5958 53.5242 74.5588 53.5526C74.5218 53.5811 74.4796 53.6019 74.4346 53.614C74.3895 53.6261 74.3425 53.6292 74.2963 53.6231C74.25 53.617 74.2054 53.6018 74.165 53.5785ZM79.6056 52.1209L78.9708 51.7544C78.9281 51.7322 78.8904 51.7017 78.8598 51.6645C78.8293 51.6274 78.8067 51.5845 78.7932 51.5383C78.7797 51.4922 78.7757 51.4438 78.7815 51.396C78.7873 51.3483 78.8026 51.3022 78.8267 51.2606C78.8508 51.219 78.883 51.1827 78.9215 51.1539C78.96 51.1251 79.0039 51.1044 79.0506 51.093C79.0974 51.0817 79.1459 51.0799 79.1933 51.0878C79.2407 51.0957 79.286 51.1132 79.3265 51.1391L79.9613 51.5057C80.0017 51.529 80.0371 51.56 80.0655 51.597C80.0939 51.634 80.1148 51.6762 80.1268 51.7213C80.1389 51.7663 80.142 51.8133 80.1359 51.8596C80.1299 51.9058 80.1147 51.9504 80.0914 51.9908C80.0681 52.0312 80.0371 52.0666 80.0001 52.095C79.9631 52.1234 79.9209 52.1442 79.8758 52.1563C79.8308 52.1684 79.7838 52.1715 79.7375 52.1655C79.6913 52.1594 79.6467 52.1442 79.6063 52.1209H79.6056ZM72.5773 51.9908C72.5304 51.9092 72.5177 51.8123 72.5421 51.7214C72.5665 51.6304 72.6259 51.5528 72.7074 51.5057L73.3422 51.1391C73.4238 51.0921 73.5208 51.0793 73.6117 51.1037C73.7027 51.1281 73.7803 51.1877 73.8273 51.2693C73.8744 51.3509 73.8872 51.4478 73.8628 51.5388C73.8384 51.6297 73.7788 51.7073 73.6972 51.7544L73.0624 52.1209C72.9807 52.1681 72.8836 52.1809 72.7925 52.1565C72.7014 52.1321 72.6245 52.0725 72.5773 51.9908ZM79.5839 50.1768C79.4896 50.1768 79.3993 50.1394 79.3326 50.0727C79.266 50.0061 79.2285 49.9157 79.2285 49.8215C79.2285 49.7272 79.266 49.6368 79.3326 49.5702C79.3993 49.5035 79.4896 49.4661 79.5839 49.4661H80.317C80.4112 49.4661 80.5016 49.5035 80.5683 49.5702C80.6349 49.6368 80.6724 49.7272 80.6724 49.8215C80.6724 49.9157 80.6349 50.0061 80.5683 50.0727C80.5016 50.1394 80.4112 50.1768 80.317 50.1768H79.5839ZM72.3539 50.1768C72.2597 50.1768 72.1693 50.1394 72.1026 50.0727C72.036 50.0061 71.9985 49.9157 71.9985 49.8215C71.9985 49.7272 72.036 49.6368 72.1026 49.5702C72.1693 49.5035 72.2597 49.4661 72.3539 49.4661H73.087C73.1813 49.4661 73.2716 49.5035 73.3383 49.5702C73.4049 49.6368 73.4424 49.7272 73.4424 49.8215C73.4424 49.9157 73.4049 50.0061 73.3383 50.0727C73.2716 50.1394 73.1813 50.1768 73.087 50.1768H72.3539ZM78.8399 48.3722C78.8166 48.3318 78.8015 48.2872 78.7954 48.241C78.7893 48.1947 78.7924 48.1477 78.8045 48.1027C78.8165 48.0576 78.8374 48.0154 78.8658 47.9784C78.8942 47.9414 78.9297 47.9103 78.9701 47.887L79.6049 47.5205C79.6453 47.4972 79.6898 47.4821 79.7361 47.476C79.7823 47.4699 79.8293 47.473 79.8743 47.4851C79.9194 47.4972 79.9617 47.518 79.9987 47.5464C80.0357 47.5748 80.0666 47.6102 80.09 47.6506C80.1133 47.691 80.1284 47.7356 80.1345 47.7819C80.1406 47.8281 80.1375 47.8751 80.1254 47.9201C80.1133 47.9652 80.0925 48.0075 80.0641 48.0444C80.0356 48.0814 80.0002 48.1124 79.9598 48.1358L79.325 48.5023C79.2846 48.5257 79.24 48.5408 79.1938 48.5469C79.1475 48.553 79.1006 48.5499 79.0555 48.5378C79.0104 48.5257 78.9682 48.5049 78.9312 48.4765C78.8942 48.448 78.8632 48.4126 78.8399 48.3722ZM73.3451 48.5023L72.7103 48.1358C72.6699 48.1124 72.6345 48.0813 72.6061 48.0443C72.5778 48.0072 72.5569 47.965 72.5449 47.9199C72.5328 47.8748 72.5298 47.8278 72.5359 47.7815C72.542 47.7353 72.5572 47.6907 72.5805 47.6503C72.6039 47.6099 72.635 47.5745 72.672 47.5461C72.7091 47.5177 72.7513 47.4969 72.7964 47.4849C72.8415 47.4728 72.8885 47.4697 72.9348 47.4759C72.981 47.482 73.0256 47.4972 73.066 47.5205L73.7008 47.887C73.7824 47.9341 73.842 48.0117 73.8664 48.1027C73.8908 48.1936 73.878 48.2906 73.831 48.3722C73.7839 48.4538 73.7063 48.5133 73.6154 48.5377C73.5244 48.5621 73.4275 48.5494 73.3459 48.5023H73.3451ZM74.6205 47.3455C74.5752 47.3336 74.5327 47.3128 74.4955 47.2844C74.4583 47.256 74.427 47.2205 74.4036 47.18L74.037 46.5452C73.9949 46.4639 73.9856 46.3695 74.0113 46.2817C74.0369 46.1938 74.0954 46.1191 74.1747 46.0733C74.2539 46.0275 74.3478 46.014 74.4368 46.0356C74.5258 46.0573 74.6029 46.1124 74.6523 46.1895L75.0189 46.8243C75.0542 46.8851 75.0707 46.955 75.0663 47.0252C75.0618 47.0954 75.0366 47.1627 74.9939 47.2185C74.9511 47.2744 74.8927 47.3163 74.8261 47.3389C74.7595 47.3615 74.6877 47.3638 74.6198 47.3455H74.6205ZM77.7836 47.3101C77.7432 47.2868 77.7078 47.2558 77.6794 47.2188C77.6509 47.1818 77.6301 47.1396 77.618 47.0945C77.6059 47.0494 77.6028 47.0024 77.6089 46.9562C77.615 46.91 77.6301 46.8654 77.6535 46.825L78.02 46.1902C78.0694 46.1131 78.1466 46.058 78.2356 46.0363C78.3245 46.0147 78.4184 46.0282 78.4976 46.074C78.5769 46.1199 78.6354 46.1945 78.6611 46.2824C78.6867 46.3702 78.6775 46.4646 78.6353 46.5459L78.2687 47.1807C78.2216 47.2624 78.1439 47.322 78.0528 47.3464C77.9617 47.3708 77.8646 47.358 77.7829 47.3108L77.7836 47.3101ZM76.0853 46.8185C76.0523 46.7854 76.0262 46.7462 76.0085 46.703C75.9907 46.6598 75.9817 46.6135 75.9819 46.5669V45.8417C75.9819 45.7474 76.0193 45.6571 76.086 45.5904C76.1526 45.5238 76.243 45.4863 76.3372 45.4863C76.4315 45.4863 76.5219 45.5238 76.5885 45.5904C76.6551 45.6571 76.6926 45.7474 76.6926 45.8417V46.5748C76.6925 46.645 76.6716 46.7137 76.6325 46.7721C76.5935 46.8304 76.5381 46.8759 76.4732 46.9028C76.4083 46.9297 76.3369 46.9368 76.268 46.9232C76.1991 46.9096 76.1358 46.8759 76.086 46.8264L76.0853 46.8185Z" fill="#D3E1FE"/>
<g filter="url(#filter0_d_1184_3623)">
<path d="M30.6353 66.9932C29.7055 66.9936 28.7926 66.7412 27.9944 66.2597C27.1963 65.7783 26.5428 65.0856 26.1028 64.2588L25.4942 64.8942V27.86C25.4266 26.3912 25.937 24.958 26.9147 23.8682C27.8924 22.7784 29.2578 22.1235 30.7123 22.0464L66.5723 22.0059L63.2007 25.5278V61.8083C63.2007 63.1852 62.6585 64.5053 61.6941 65.479C60.7296 66.4526 59.4219 66.9999 58.058 66.9999L30.6353 66.9932Z" fill="url(#paint1_linear_1184_3623)"/>
</g>
<path d="M63.1406 26.1533C63.1406 23.8448 64.2069 22 66.5691 22C68.9313 22 69.9976 23.8448 69.9976 26.1533V28.23C70.0014 28.3219 69.9863 28.4137 69.9533 28.4994C69.9202 28.5852 69.8698 28.6631 69.8054 28.7281C69.7409 28.7932 69.6637 28.8441 69.5788 28.8775C69.4938 28.9109 69.403 28.9261 69.3119 28.9222H63.1406V26.1533Z" fill="#4E7AD9"/>
<path d="M57.9989 66.9942H29.2718C24.2062 66.9942 22 66.0701 22 62.2352V61.1536C22 60.4095 22.324 60.072 23.0388 60.072H50.7271C51.0049 60.074 51.2796 60.1318 51.535 60.242C51.7905 60.3523 52.0216 60.5127 52.215 60.7141C52.4084 60.9154 52.5601 61.1536 52.6614 61.4148C52.7627 61.6759 52.8114 61.9548 52.8048 62.2352C53.1065 65.6755 54.4213 66.9942 57.9989 66.9942Z" fill="url(#paint2_linear_1184_3623)"/>
<path d="M33.5708 48.8233C33.2298 48.8233 32.9029 48.6865 32.6618 48.4431C32.4207 48.1996 32.2852 47.8696 32.2852 47.5254C32.2852 47.1812 32.4207 46.8511 32.6618 46.6077C32.9029 46.3643 33.2298 46.2275 33.5708 46.2275H53.2849C53.6259 46.2275 53.9528 46.3643 54.1939 46.6077C54.435 46.8511 54.5706 47.1812 54.5706 47.5254C54.5706 47.8696 54.435 48.1996 54.1939 48.4431C53.9528 48.6865 53.6259 48.8233 53.2849 48.8233H33.5708ZM33.5708 38.4401C33.2298 38.4401 32.9029 38.3032 32.6618 38.0598C32.4207 37.8164 32.2852 37.4864 32.2852 37.1421C32.2852 36.7979 32.4207 36.4679 32.6618 36.2245C32.9029 35.9811 33.2298 35.8442 33.5708 35.8442H53.2849C53.6259 35.8442 53.9528 35.9811 54.1939 36.2245C54.435 36.4679 54.5706 36.7979 54.5706 37.1421C54.5706 37.4864 54.435 37.8164 54.1939 38.0598C53.9528 38.3032 53.6259 38.4401 53.2849 38.4401H33.5708Z" fill="white"/>
<g filter="url(#filter1_d_1184_3623)">
<g filter="url(#filter2_d_1184_3623)">
<circle cx="58.5" cy="61.0444" r="10" fill="url(#paint3_linear_1184_3623)"/>
</g>
<path d="M54.5 61.0444H62.5M58.5 57.0444V65.0444V57.0444Z" stroke="white" stroke-width="2" stroke-linecap="round" stroke-linejoin="round"/>
</g>
</g>
<g opacity="0.2" filter="url(#filter3_i_1184_3623)">
<path d="M16.5 44C17.3284 44 18 43.3284 18 42.5C18 41.6716 17.3284 41 16.5 41C15.6716 41 15 41.6716 15 42.5C15 43.3284 15.6716 44 16.5 44Z" fill="#6695FA"/>
</g>
<g opacity="0.2" filter="url(#filter4_i_1184_3623)">
<path d="M4.5 11.7974C6.70914 11.7974 8.5 10.0065 8.5 7.79736C8.5 5.58822 6.70914 3.79736 4.5 3.79736C2.29086 3.79736 0.5 5.58822 0.5 7.79736C0.5 10.0065 2.29086 11.7974 4.5 11.7974Z" fill="#6695FA"/>
</g>
<path opacity="0.5" d="M79.5 17.7974C80.8807 17.7974 82 16.6781 82 15.2974C82 13.9167 80.8807 12.7974 79.5 12.7974C78.1193 12.7974 77 13.9167 77 15.2974C77 16.6781 78.1193 17.7974 79.5 17.7974Z" fill="#D1DBFA"/>
<defs>
<filter id="filter0_d_1184_3623" x="-14.5117" y="6.00586" width="121.084" height="124.994" filterUnits="userSpaceOnUse" color-interpolation-filters="sRGB">
<feFlood flood-opacity="0" result="BackgroundImageFix"/>
<feColorMatrix in="SourceAlpha" type="matrix" values="0 0 0 0 0 0 0 0 0 0 0 0 0 0 0 0 0 0 127 0" result="hardAlpha"/>
<feOffset dy="24"/>
<feGaussianBlur stdDeviation="20"/>
<feComposite in2="hardAlpha" operator="out"/>
<feColorMatrix type="matrix" values="0 0 0 0 0.162629 0 0 0 0 0.322219 0 0 0 0 0.960579 0 0 0 0.2 0"/>
<feBlend mode="normal" in2="BackgroundImageFix" result="effect1_dropShadow_1184_3623"/>
<feBlend mode="normal" in="SourceGraphic" in2="effect1_dropShadow_1184_3623" result="shape"/>
</filter>
<filter id="filter1_d_1184_3623" x="44.5" y="47.0444" width="28" height="28" filterUnits="userSpaceOnUse" color-interpolation-filters="sRGB">
<feFlood flood-opacity="0" result="BackgroundImageFix"/>
<feColorMatrix in="SourceAlpha" type="matrix" values="0 0 0 0 0 0 0 0 0 0 0 0 0 0 0 0 0 0 127 0" result="hardAlpha"/>
<feOffset/>
<feGaussianBlur stdDeviation="2"/>
<feComposite in2="hardAlpha" operator="out"/>
<feColorMatrix type="matrix" values="0 0 0 0 0.0392157 0 0 0 0 0.168627 0 0 0 0 0.345098 0 0 0 0.18 0"/>
<feBlend mode="normal" in2="BackgroundImageFix" result="effect1_dropShadow_1184_3623"/>
<feBlend mode="normal" in="SourceGraphic" in2="effect1_dropShadow_1184_3623" result="shape"/>
</filter>
<filter id="filter2_d_1184_3623" x="44.5" y="51.0444" width="28" height="28" filterUnits="userSpaceOnUse" color-interpolation-filters="sRGB">
<feFlood flood-opacity="0" result="BackgroundImageFix"/>
<feColorMatrix in="SourceAlpha" type="matrix" values="0 0 0 0 0 0 0 0 0 0 0 0 0 0 0 0 0 0 127 0" result="hardAlpha"/>
<feOffset dy="4"/>
<feGaussianBlur stdDeviation="2"/>
<feComposite in2="hardAlpha" operator="out"/>
<feColorMatrix type="matrix" values="0 0 0 0 0.289401 0 0 0 0 0.068138 0 0 0 0 0.59917 0 0 0 0.15 0"/>
<feBlend mode="normal" in2="BackgroundImageFix" result="effect1_dropShadow_1184_3623"/>
<feBlend mode="normal" in="SourceGraphic" in2="effect1_dropShadow_1184_3623" result="shape"/>
</filter>
<filter id="filter3_i_1184_3623" x="15" y="40" width="3" height="4" filterUnits="userSpaceOnUse" color-interpolation-filters="sRGB">
<feFlood flood-opacity="0" result="BackgroundImageFix"/>
<feBlend mode="normal" in="SourceGraphic" in2="BackgroundImageFix" result="shape"/>
<feColorMatrix in="SourceAlpha" type="matrix" values="0 0 0 0 0 0 0 0 0 0 0 0 0 0 0 0 0 0 127 0" result="hardAlpha"/>
<feOffset dy="-1"/>
<feGaussianBlur stdDeviation="2"/>
<feComposite in2="hardAlpha" operator="arithmetic" k2="-1" k3="1"/>
<feColorMatrix type="matrix" values="0 0 0 0 0.340564 0 0 0 0 0.123427 0 0 0 0 0.774837 0 0 0 0.25 0"/>
<feBlend mode="normal" in2="shape" result="effect1_innerShadow_1184_3623"/>
</filter>
<filter id="filter4_i_1184_3623" x="0.5" y="2.79736" width="8" height="9" filterUnits="userSpaceOnUse" color-interpolation-filters="sRGB">
<feFlood flood-opacity="0" result="BackgroundImageFix"/>
<feBlend mode="normal" in="SourceGraphic" in2="BackgroundImageFix" result="shape"/>
<feColorMatrix in="SourceAlpha" type="matrix" values="0 0 0 0 0 0 0 0 0 0 0 0 0 0 0 0 0 0 127 0" result="hardAlpha"/>
<feOffset dy="-1"/>
<feGaussianBlur stdDeviation="2"/>
<feComposite in2="hardAlpha" operator="arithmetic" k2="-1" k3="1"/>
<feColorMatrix type="matrix" values="0 0 0 0 0.340564 0 0 0 0 0.123427 0 0 0 0 0.774837 0 0 0 0.25 0"/>
<feBlend mode="normal" in2="shape" result="effect1_innerShadow_1184_3623"/>
</filter>
<linearGradient id="paint0_linear_1184_3623" x1="73" y1="88" x2="23.5" y2="12.998" gradientUnits="userSpaceOnUse">
<stop stop-color="#F1F5FC"/>
<stop offset="1" stop-color="#F4F6FA"/>
</linearGradient>
<linearGradient id="paint1_linear_1184_3623" x1="33.5" y1="22.0059" x2="57.355" y2="47.7987" gradientUnits="userSpaceOnUse">
<stop stop-color="#B3CBFF"/>
<stop offset="1" stop-color="#6091F9"/>
</linearGradient>
<linearGradient id="paint2_linear_1184_3623" x1="35.1535" y1="59.0832" x2="35.8415" y2="78.8932" gradientUnits="userSpaceOnUse">
<stop stop-color="#A8C4FF"/>
<stop offset="1" stop-color="#4A81F7"/>
</linearGradient>
<linearGradient id="paint3_linear_1184_3623" x1="53.3" y1="49.2797" x2="70.8775" y2="68.3155" gradientUnits="userSpaceOnUse">
<stop stop-color="#D0B8FF"/>
<stop offset="1" stop-color="#9B7AFF"/>
</linearGradient>
</defs>
</svg>
