<svg width="80" height="80" viewBox="0 0 80 80" fill="none" xmlns="http://www.w3.org/2000/svg">
<path d="M40 80C62.0914 80 80 62.0914 80 40C80 17.9086 62.0914 0 40 0C17.9086 0 0 17.9086 0 40C0 62.0914 17.9086 80 40 80Z" fill="white" fill-opacity="0.3"/>
<path d="M53.1328 39.7088C53.2736 39.7994 53.3894 39.9239 53.4696 40.0708C53.5498 40.2177 53.5918 40.3824 53.5918 40.5498C53.5918 40.7172 53.5498 40.8819 53.4696 41.0289C53.3894 41.1758 53.2736 41.3003 53.1328 41.3908L32.6478 54.5598C32.4968 54.657 32.3223 54.7117 32.1429 54.7182C31.9634 54.7246 31.7854 54.6826 31.6278 54.5966C31.4701 54.5106 31.3385 54.3836 31.2469 54.2292C31.1552 54.0747 31.1068 53.8984 31.1068 53.7188V27.3818C31.1067 27.2021 31.1549 27.0257 31.2465 26.8711C31.3381 26.7165 31.4697 26.5895 31.6273 26.5033C31.785 26.4172 31.963 26.3751 32.1426 26.3815C32.3222 26.3879 32.4967 26.4426 32.6478 26.5398L53.1328 39.7088Z" fill="white"/>
</svg>
