<svg width="72" height="72" viewBox="0 0 72 72" fill="none" xmlns="http://www.w3.org/2000/svg">
<g clip-path="url(#clip0_4193_12751)">
<path d="M19.4775 55C24.7374 55 29.001 59.2646 29.001 64.5244C29.0008 64.7872 28.7882 64.9999 28.5254 65H7.47656C7.21371 64.9999 7.00015 64.7872 7 64.5244C7 59.2646 11.2646 55 16.5244 55H19.4775ZM18.001 41C21.3148 41.0001 24.001 43.6863 24.001 47C24.001 50.3137 21.3148 52.9999 18.001 53C14.6871 53 12.001 50.3137 12.001 47C12.001 43.6863 14.6871 41 18.001 41Z" fill="url(#paint0_linear_4193_12751)"/>
<path d="M55.4766 55C60.7363 55.0001 65 59.2646 65 64.5244C64.9998 64.7871 64.7871 64.9998 64.5244 65H43.4766C43.2137 65 43.0002 64.7873 43 64.5244C43 59.2646 47.2646 55 52.5244 55H55.4766ZM54 41C57.3137 41 60 43.6863 60 47C60 50.3137 57.3137 53 54 53C50.6864 52.9999 48 50.3137 48 47C48 43.6863 50.6864 41.0001 54 41Z" fill="url(#paint1_linear_4193_12751)"/>
<path d="M37.5713 53C43.8831 53 49 58.1169 49 64.4287C48.9999 64.7442 48.7443 65 48.4287 65H23.5713C23.2559 64.9998 23.0001 64.7441 23 64.4287C23 58.1169 28.1169 53.0001 34.4287 53H37.5713ZM36 37C39.866 37 43 40.134 43 44C43 47.866 39.866 51 36 51C32.1341 50.9999 29 47.8659 29 44C29 40.1341 32.1341 37.0001 36 37Z" fill="url(#paint2_linear_4193_12751)"/>
</g>
<path d="M38.3074 6.99876C38.6337 6.99286 38.9509 7.10535 39.2 7.31614C39.449 7.52692 39.6128 7.8216 39.6609 8.14426L40.0359 10.6794C40.4985 10.8937 40.9418 11.1444 41.365 11.4284L43.8279 10.4685C43.9848 10.4032 44.1553 10.3732 44.325 10.3806C44.5615 10.3859 44.7937 10.4491 44.9998 10.5652C45.206 10.6813 45.3804 10.847 45.5076 11.0466L47.8123 14.9245C47.9782 15.2088 48.0358 15.5436 47.9744 15.8669C47.913 16.1904 47.736 16.4806 47.4774 16.6843L45.3983 18.2634C45.4451 18.7534 45.4451 19.2471 45.3983 19.737L47.4774 21.3161C47.7352 21.5181 47.9119 21.807 47.9734 22.1286C48.0349 22.4504 47.9776 22.7842 47.8123 23.0671L45.5106 26.945C45.3437 27.2139 45.0909 27.4193 44.7938 27.5281C44.4965 27.6368 44.171 27.6433 43.8699 27.5456L41.3641 26.5661C40.9418 26.8502 40.4986 27.1009 40.0369 27.3152L39.6619 29.8474C39.6096 30.1736 39.4407 30.4704 39.1873 30.6824C38.9341 30.8942 38.6131 31.0077 38.283 31.0017L33.6932 31.0056H33.6609C33.3412 31.0009 33.0325 30.8839 32.7908 30.6745C32.5491 30.465 32.3888 30.1761 32.3387 29.8601L31.9656 27.3249C31.5016 27.1104 31.0556 26.858 30.6326 26.571L28.1717 27.531C28.012 27.5902 27.842 27.6199 27.6717 27.6189C27.4334 27.6223 27.1977 27.5629 26.99 27.446C26.7824 27.3291 26.6097 27.1583 26.4891 26.9529L24.1873 23.072C24.02 22.788 23.9617 22.4524 24.0232 22.1286C24.0848 21.805 24.2616 21.5141 24.5213 21.3113L26.6014 19.7361C26.5576 19.2459 26.5576 18.7526 26.6014 18.2624L24.534 16.6911C24.2671 16.4913 24.0852 16.1984 24.0232 15.8708C23.9614 15.543 24.0242 15.2032 24.2 14.9197L26.4949 11.0554C26.6162 10.8506 26.7902 10.6813 26.9969 10.5632C27.2035 10.4452 27.4366 10.383 27.6746 10.3825C27.8322 10.3868 27.9889 10.4103 28.1404 10.4538L30.6434 11.4333C31.0664 11.149 31.5105 10.8968 31.9715 10.6794L32.3406 8.15208C32.3936 7.8262 32.562 7.52992 32.8152 7.31809C33.0685 7.10627 33.3904 6.99332 33.7205 6.99876H38.3074ZM35.9988 14.5017C33.5137 14.5017 31.4988 16.5165 31.4988 19.0017C31.4989 21.4868 33.5137 23.5016 35.9988 23.5017C38.484 23.5017 40.4987 21.4868 40.4988 19.0017C40.4988 16.5165 38.484 14.5017 35.9988 14.5017Z" fill="#1E252A"/>
<path d="M51.6081 10.0109C51.2873 9.9406 50.987 10.1916 51.0007 10.5187L51.2038 15.3371C51.2213 15.7509 51.7078 15.9651 52.0261 15.6994L53.241 14.6838C54.7365 16.171 55.4711 18.3876 54.9871 20.6398C54.6409 22.25 53.7351 23.5887 52.5242 24.4943C52.3026 24.6601 52.2321 24.9682 52.3806 25.2013L53.3796 26.7687C53.5277 27.0007 53.8366 27.07 54.0613 26.9103C55.899 25.6036 57.2752 23.6226 57.7878 21.2384C58.462 18.1018 57.4869 14.9929 55.4412 12.8429L56.5476 11.9172C56.8659 11.6509 56.7387 11.1361 56.3328 11.047L51.6081 10.0109Z" fill="#C5D4FD"/>
<path d="M20.3921 10.0108C20.7129 9.94047 21.0133 10.1914 20.9995 10.5186L20.7964 15.337C20.7789 15.7508 20.2924 15.965 19.9741 15.6993L18.7602 14.6836C17.2643 16.1708 16.5291 18.3872 17.0132 20.6397C17.3593 22.2498 18.2651 23.5886 19.476 24.4942C19.6976 24.6599 19.7679 24.9681 19.6196 25.2012L18.6206 26.7686C18.4725 27.0008 18.1636 27.07 17.9389 26.9102C16.1012 25.6035 14.7249 23.6225 14.2124 21.2383C13.5381 18.1013 14.5138 14.9928 16.56 12.8428L15.4526 11.917C15.1343 11.6508 15.2615 11.136 15.6675 11.0469L20.3921 10.0108Z" fill="#C5D4FD"/>
<defs>
<linearGradient id="paint0_linear_4193_12751" x1="17.9514" y1="83" x2="17.9151" y2="5.50002" gradientUnits="userSpaceOnUse">
<stop stop-color="#C5D4FD"/>
<stop offset="1" stop-color="#0046FF"/>
</linearGradient>
<linearGradient id="paint1_linear_4193_12751" x1="53.9509" y1="83" x2="53.9146" y2="5.50002" gradientUnits="userSpaceOnUse">
<stop stop-color="#C5D4FD"/>
<stop offset="1" stop-color="#0046FF"/>
</linearGradient>
<linearGradient id="paint2_linear_4193_12751" x1="47.0394" y1="130.207" x2="85.6781" y2="87.1843" gradientUnits="userSpaceOnUse">
<stop stop-color="#C5D4FD"/>
<stop offset="1" stop-color="#0046FF"/>
</linearGradient>
<clipPath id="clip0_4193_12751">
<rect width="58" height="28" fill="white" transform="translate(7 37)"/>
</clipPath>
</defs>
</svg>
