<svg width="72" height="72" viewBox="0 0 72 72" fill="none" xmlns="http://www.w3.org/2000/svg">
<path d="M32 9C43.0457 9 52 17.9543 52 29C52 33.4087 50.5732 37.4837 48.1563 40.7894C45.7294 44.1089 42.9711 47.3103 41.625 51.1959L41.4661 51.6547C41.1871 52.46 40.4285 53 39.5763 53H24.4236C23.5714 53 22.8129 52.4601 22.5338 51.6549L22.3741 51.1941C21.0279 47.3097 18.2703 44.1091 15.8439 40.7905C13.4269 37.4845 12 33.409 12 29C12 17.9543 20.9543 9 32 9Z" fill="#CFDBFF"/>
<path d="M32 9C43.0457 9 52 17.9543 52 29C52 33.4087 50.5732 37.4837 48.1563 40.7894C45.7294 44.1089 42.9711 47.3103 41.625 51.1959L41.4661 51.6547C41.1871 52.46 40.4285 53 39.5763 53H24.4236C23.5714 53 22.8129 52.4601 22.5338 51.6549L22.3741 51.1941C21.0279 47.3097 18.2703 44.1091 15.8439 40.7905C13.4269 37.4845 12 33.409 12 29C12 17.9543 20.9543 9 32 9Z" fill="url(#paint0_linear_4193_12754)"/>
<path d="M23 54.6667C23 53.7462 23.7462 53 24.6667 53H39.3333C40.2538 53 41 53.7462 41 54.6667C41 59.269 37.269 63 32.6667 63H31.3333C26.731 63 23 59.269 23 54.6667Z" fill="url(#paint1_linear_4193_12754)"/>
<path d="M35.2939 28.583H40L28.7061 42V32.417H24L35.2939 19V28.583Z" fill="url(#paint2_linear_4193_12754)"/>
<path d="M50 63C43.3832 63 38 57.6168 38 51C38 44.3832 43.3832 39 50 39C56.6168 39 62 44.3832 62 51C62 57.6168 56.6168 63 50 63Z" fill="#1E252A"/>
<path d="M55 46H54C53.4477 46 53 46.4477 53 47V55C53 55.5523 53.4477 56 54 56H55C55.5523 56 56 55.5523 56 55V47C56 46.4477 55.5523 46 55 46Z" fill="white"/>
<path d="M50.3846 48H49.6154C49.0631 48 48.6154 48.4477 48.6154 49V55C48.6154 55.5523 49.0631 56 49.6154 56H50.3846C50.9369 56 51.3846 55.5523 51.3846 55V49C51.3846 48.4477 50.9369 48 50.3846 48Z" fill="white"/>
<path d="M45.7692 51H45C44.4477 51 44 51.4477 44 52V55C44 55.5523 44.4477 56 45 56H45.7692C46.3215 56 46.7692 55.5523 46.7692 55V52C46.7692 51.4477 46.3215 51 45.7692 51Z" fill="white"/>
<defs>
<linearGradient id="paint0_linear_4193_12754" x1="32" y1="82.3333" x2="32.2747" y2="-1.9991" gradientUnits="userSpaceOnUse">
<stop stop-color="white"/>
<stop offset="1" stop-color="#C5D4FD"/>
</linearGradient>
<linearGradient id="paint1_linear_4193_12754" x1="32" y1="70" x2="31.9953" y2="50.5" gradientUnits="userSpaceOnUse">
<stop stop-color="#C5D4FD"/>
<stop offset="1" stop-color="#0046FF"/>
</linearGradient>
<linearGradient id="paint2_linear_4193_12754" x1="31.9643" y1="71.3889" x2="31.9321" y2="19.1892" gradientUnits="userSpaceOnUse">
<stop stop-color="#C5D4FD"/>
<stop offset="1" stop-color="#0046FF"/>
</linearGradient>
</defs>
</svg>
