<svg width="32" height="32" viewBox="0 0 32 32" fill="none" xmlns="http://www.w3.org/2000/svg">
<path d="M14.2687 6.00049C15.0385 4.66715 16.963 4.66716 17.7328 6.00049L28.1251 24.0005C28.8949 25.3338 27.9327 27.0005 26.3931 27.0005H5.60845C4.06885 27.0005 3.1066 25.3338 3.8764 24.0005L14.2687 6.00049Z" fill="#F0C454"/>
<path d="M15.0008 12.6704C15.0008 12.1181 15.4485 11.6704 16.0008 11.6704C16.553 11.6704 17.0008 12.1181 17.0008 12.6704V18.6704C17.0008 19.2227 16.553 19.6704 16.0008 19.6704C15.4485 19.6704 15.0008 19.2227 15.0008 18.6704V12.6704Z" fill="#F0C454"/>
<path d="M17.2469 22.2505C17.2469 22.9408 16.6872 23.5005 15.9969 23.5005C15.3065 23.5005 14.7469 22.9408 14.7469 22.2505C14.7469 21.5601 15.3065 21.0005 15.9969 21.0005C16.6872 21.0005 17.2469 21.5601 17.2469 22.2505Z" fill="#F0C454"/>
<rect x="15" y="11.6704" width="2" height="8" rx="1" fill="white"/>
<circle cx="15.9961" cy="22.2505" r="1.25" fill="white"/>
</svg>
