<svg width="72" height="72" viewBox="0 0 72 72" fill="none" xmlns="http://www.w3.org/2000/svg">
<path d="M5 32C5 29.7909 6.79086 28 9 28H30C32.2091 28 34 29.7909 34 32V63C34 63.5523 33.5523 64 33 64H6C5.44772 64 5 63.5523 5 63V32Z" fill="url(#paint0_linear_4193_14057)"/>
<path d="M36 9.49329C36 6.77938 38.6452 4.85328 41.228 5.68646L64.228 13.1058C65.8802 13.6388 67 15.1766 67 16.9126V63C67 63.5523 66.5523 64 66 64H37C36.4477 64 36 63.5523 36 63V9.49329Z" fill="url(#paint1_linear_4193_14057)"/>
<g clip-path="url(#clip0_4193_14057)">
<path d="M17.9999 22C17.9999 19.7909 19.7907 18 21.9999 18H49.9999C52.209 18 53.9999 19.7909 53.9999 22V64H17.9999V22Z" fill="url(#paint2_linear_4193_14057)"/>
<path d="M27.9999 56C27.9999 53.7909 29.7907 52 31.9999 52H39.9999C42.209 52 43.9999 53.7909 43.9999 56V64H27.9999V56Z" fill="#1E252A"/>
<rect x="24.9999" y="28" width="22" height="4.33333" rx="1.5" fill="white"/>
<rect x="24.9999" y="36.3335" width="22" height="4.33333" rx="1.5" fill="white"/>
<rect x="24.9999" y="44.6665" width="22" height="4.33333" rx="1.5" fill="white"/>
</g>
<defs>
<linearGradient id="paint0_linear_4193_14057" x1="19.5" y1="88" x2="19.7536" y2="19.0009" gradientUnits="userSpaceOnUse">
<stop stop-color="white"/>
<stop offset="1" stop-color="#C5D4FD"/>
</linearGradient>
<linearGradient id="paint1_linear_4193_14057" x1="51.5" y1="104" x2="52.159" y2="-10.9962" gradientUnits="userSpaceOnUse">
<stop stop-color="white"/>
<stop offset="1" stop-color="#C5D4FD"/>
</linearGradient>
<linearGradient id="paint2_linear_4193_14057" x1="35.9196" y1="80.2353" x2="35.8857" y2="18.3784" gradientUnits="userSpaceOnUse">
<stop stop-color="#C5D4FD"/>
<stop offset="1" stop-color="#3869FC"/>
</linearGradient>
<clipPath id="clip0_4193_14057">
<rect width="36" height="46" fill="white" transform="translate(17.9999 18)"/>
</clipPath>
</defs>
</svg>
