<svg width="44" height="44" viewBox="0 0 44 44" fill="none" xmlns="http://www.w3.org/2000/svg">
<path d="M5 10C5 7.79086 6.79086 6 9 6H33C35.2091 6 37 7.79086 37 10V31C37 33.2091 35.2091 35 33 35H9C6.79086 35 5 33.2091 5 31V10Z" fill="#F7F8FC"/>
<path d="M33 33.75V35H9V33.75H33ZM35.75 31V10C35.75 8.48122 34.5188 7.25 33 7.25H9C7.48122 7.25 6.25 8.48122 6.25 10V31C6.25 32.5188 7.48122 33.75 9 33.75V35C6.79086 35 5 33.2091 5 31V10C5 7.79086 6.79086 6 9 6H33C35.2091 6 37 7.79086 37 10V31L36.9951 31.2061C36.8879 33.3194 35.14 35 33 35V33.75C34.5188 33.75 35.75 32.5188 35.75 31Z" fill="#222222"/>
<path d="M24 23.875C24.3452 23.875 24.625 24.1548 24.625 24.5C24.625 24.8452 24.3452 25.125 24 25.125H11C10.6548 25.125 10.375 24.8452 10.375 24.5C10.375 24.1548 10.6548 23.875 11 23.875H24Z" fill="#222222"/>
<path d="M18 27.375C18.3452 27.375 18.625 27.6548 18.625 28C18.625 28.3452 18.3452 28.625 18 28.625H11C10.6548 28.625 10.375 28.3452 10.375 28C10.375 27.6548 10.6548 27.375 11 27.375H18Z" fill="#222222"/>
<path d="M31.9268 11.957L24.082 19.2783L16.5771 14.7744L11.4209 19.4629L10.5791 18.5371L16.4229 13.2246L23.917 17.7207L31.0732 11.043L31.9268 11.957Z" fill="#222222"/>
<path d="M13 19C13 20.1046 12.1046 21 11 21C9.89543 21 9 20.1046 9 19C9 17.8954 9.89543 17 11 17C12.1046 17 13 17.8954 13 19Z" fill="#F7F8FC"/>
<path d="M11.75 19C11.75 18.5858 11.4142 18.25 11 18.25C10.5858 18.25 10.25 18.5858 10.25 19C10.25 19.4142 10.5858 19.75 11 19.75V21C9.89543 21 9 20.1046 9 19C9 17.8954 9.89543 17 11 17C12.1046 17 13 17.8954 13 19C13 20.1046 12.1046 21 11 21V19.75C11.4142 19.75 11.75 19.4142 11.75 19Z" fill="#222222"/>
<path d="M18.5 14C18.5 15.1046 17.6046 16 16.5 16C15.3954 16 14.5 15.1046 14.5 14C14.5 12.8954 15.3954 12 16.5 12C17.6046 12 18.5 12.8954 18.5 14Z" fill="#F7F8FC"/>
<path d="M17.25 14C17.25 13.5858 16.9142 13.25 16.5 13.25C16.0858 13.25 15.75 13.5858 15.75 14C15.75 14.4142 16.0858 14.75 16.5 14.75V16C15.3954 16 14.5 15.1046 14.5 14C14.5 12.8954 15.3954 12 16.5 12C17.6046 12 18.5 12.8954 18.5 14C18.5 15.1046 17.6046 16 16.5 16V14.75C16.9142 14.75 17.25 14.4142 17.25 14Z" fill="#222222"/>
<path d="M26 18C26 19.1046 25.1046 20 24 20C22.8954 20 22 19.1046 22 18C22 16.8954 22.8954 16 24 16C25.1046 16 26 16.8954 26 18Z" fill="#F7F8FC"/>
<path d="M24.75 18C24.75 17.5858 24.4142 17.25 24 17.25C23.5858 17.25 23.25 17.5858 23.25 18C23.25 18.4142 23.5858 18.75 24 18.75V20C22.8954 20 22 19.1046 22 18C22 16.8954 22.8954 16 24 16C25.1046 16 26 16.8954 26 18C26 19.1046 25.1046 20 24 20V18.75C24.4142 18.75 24.75 18.4142 24.75 18Z" fill="#222222"/>
<path d="M33 12C33 13.1046 32.1046 14 31 14C29.8954 14 29 13.1046 29 12C29 10.8954 29.8954 10 31 10C32.1046 10 33 10.8954 33 12Z" fill="#F7F8FC"/>
<path d="M31.75 12C31.75 11.5858 31.4142 11.25 31 11.25C30.5858 11.25 30.25 11.5858 30.25 12C30.25 12.4142 30.5858 12.75 31 12.75V14C29.8954 14 29 13.1046 29 12C29 10.8954 29.8954 10 31 10C32.1046 10 33 10.8954 33 12C33 13.1046 32.1046 14 31 14V12.75C31.4142 12.75 31.75 12.4142 31.75 12Z" fill="#222222"/>
<path d="M27 28H39V41L33 36.9375L27 41V28Z" fill="#F7F8FC"/>
<path d="M39 28V41L33 36.9375L27 41V28H39ZM28.25 38.6436L32.2988 35.9023C32.7221 35.6158 33.2779 35.6158 33.7012 35.9023L37.75 38.6436V29.25H28.25V38.6436Z" fill="#222222"/>
<path d="M40 27C40 30.866 36.866 34 33 34C29.134 34 26 30.866 26 27C26 23.134 29.134 20 33 20C36.866 20 40 23.134 40 27Z" fill="#F7F8FC"/>
<path d="M38.75 27C38.75 23.8244 36.1756 21.25 33 21.25C29.8244 21.25 27.25 23.8244 27.25 27C27.25 30.1756 29.8244 32.75 33 32.75V34C29.134 34 26 30.866 26 27C26 23.134 29.134 20 33 20C36.866 20 40 23.134 40 27C40 30.866 36.866 34 33 34V32.75C36.1756 32.75 38.75 30.1756 38.75 27Z" fill="#222222"/>
<path d="M33.8828 30H32.7031V25.4609H32.6719L31.375 26.2734V25.2344L32.7734 24.3438H33.8828V30Z" fill="#3869FC"/>
</svg>
