<svg width="44" height="44" viewBox="0 0 44 44" fill="none" xmlns="http://www.w3.org/2000/svg">
<path d="M6 10C6 7.79086 7.79086 6 10 6H25C27.2091 6 29 7.79086 29 10V34C29 36.2091 27.2091 38 25 38H10C7.79086 38 6 36.2091 6 34V10Z" fill="#F7F8FC"/>
<path d="M25 36.75V38H10L10 36.75H25ZM27.75 34V10C27.75 8.48122 26.5188 7.25 25 7.25H10C8.48122 7.25 7.25 8.48122 7.25 10V34C7.25 35.5188 8.48122 36.75 10 36.75L10 38C7.79086 38 6 36.2091 6 34V10C6 7.79086 7.79086 6 10 6H25L25.2061 6.00488C27.3194 6.11211 29 7.85996 29 10V34C29 36.14 27.3194 37.8879 25.2061 37.9951L25 38V36.75C26.5188 36.75 27.75 35.5188 27.75 34Z" fill="#222222"/>
<path d="M22 20.375C22.3452 20.375 22.625 20.6548 22.625 21C22.625 21.3452 22.3452 21.625 22 21.625H11C10.6548 21.625 10.375 21.3452 10.375 21C10.375 20.6548 10.6548 20.375 11 20.375H22Z" fill="#222222"/>
<path d="M16 24.375C16.3452 24.375 16.625 24.6548 16.625 25C16.625 25.3452 16.3452 25.625 16 25.625H11C10.6548 25.625 10.375 25.3452 10.375 25C10.375 24.6548 10.6548 24.375 11 24.375H16Z" fill="#222222"/>
<path d="M21 25C21 24.4477 21.4477 24 22 24H27C27.5523 24 28 24.4477 28 25V38H21V25Z" fill="#F7F8FC"/>
<path d="M22.25 36.75H26.75V25.25H22.25V36.75ZM28 38H21V25C21 24.4477 21.4477 24 22 24H27C27.5523 24 28 24.4477 28 25V38Z" fill="#222222"/>
<path d="M26 21C26 20.4477 26.4477 20 27 20H32C32.5523 20 33 20.4477 33 21V38H26V21Z" fill="#F7F8FC"/>
<path d="M27.25 36.75H31.75V21.25H27.25V36.75ZM33 38H26V21C26 20.4477 26.4477 20 27 20H32C32.5523 20 33 20.4477 33 21V38Z" fill="#222222"/>
<path d="M31 17C31 16.4477 31.4477 16 32 16H36.5C37.0523 16 37.5 16.4477 37.5 17V37C37.5 37.5523 37.0523 38 36.5 38H31V17Z" fill="#F7F8FC"/>
<path d="M32.25 36.75H36.25V17.25H32.25V36.75ZM37.5 37L37.4951 37.1025C37.4472 37.573 37.073 37.9472 36.6025 37.9951L36.5 38H31V17C31 16.4477 31.4477 16 32 16H36.5C37.0523 16 37.5 16.4477 37.5 17V37Z" fill="#222222"/>
<path d="M19.6783 16.9986C19.5508 17.0072 19.4241 16.9727 19.3186 16.9006C19.213 16.8285 19.1348 16.7231 19.0964 16.6012L17.9812 13.3367L16.8661 16.5989C16.8282 16.7216 16.7499 16.8278 16.644 16.9004C16.5381 16.9729 16.4107 17.0076 16.2827 16.9986C16.1551 17.0073 16.0283 16.9729 15.9228 16.9008C15.8172 16.8287 15.739 16.7231 15.7007 16.6012L14.7258 13.7409H13.9661C13.8408 13.736 13.7223 13.6828 13.6354 13.5924C13.5485 13.502 13.5 13.3815 13.5 13.2561C13.5 13.1307 13.5485 13.0102 13.6354 12.9198C13.7223 12.8294 13.8408 12.7762 13.9661 12.7713H14.3906L14.0644 11.8129C14.0113 11.6644 14.0169 11.5012 14.0802 11.3568C14.1435 11.2123 14.2597 11.0976 14.4048 11.0359C14.4764 11.0095 14.5527 10.998 14.6289 11.0021C14.7051 11.0062 14.7797 11.0258 14.8481 11.0597C14.9165 11.0936 14.9772 11.1411 15.0266 11.1993C15.076 11.2575 15.1129 11.3252 15.1353 11.3982L16.2834 14.7563L17.4315 11.3989C17.4694 11.2829 17.5429 11.1819 17.6416 11.1102C17.7404 11.0386 17.8592 11 17.9812 11C18.1032 11 18.2221 11.0386 18.3208 11.1102C18.4196 11.1819 18.4931 11.2829 18.5309 11.3989L19.6791 14.7571L20.8272 11.3989C20.8495 11.3259 20.8865 11.2583 20.9359 11.2001C20.9853 11.1419 21.046 11.0944 21.1144 11.0605C21.1828 11.0266 21.2574 11.007 21.3336 11.0029C21.4098 10.9988 21.486 11.0103 21.5576 11.0367C21.7029 11.0982 21.8192 11.2129 21.8825 11.3574C21.9458 11.5019 21.9514 11.6651 21.8981 11.8136L21.5704 12.769H21.9956C22.1209 12.774 22.2394 12.8272 22.3263 12.9176C22.4132 13.008 22.4617 13.1285 22.4617 13.2539C22.4617 13.3792 22.4132 13.4998 22.3263 13.5901C22.2394 13.6805 22.1209 13.7338 21.9956 13.7387H21.2389L20.264 16.5989C20.2277 16.7135 20.1562 16.8138 20.0597 16.8855C19.9632 16.9573 19.8466 16.9968 19.7263 16.9986H19.6783Z" fill="#3869FC"/>
</svg>
