<svg width="44" height="44" viewBox="0 0 44 44" fill="none" xmlns="http://www.w3.org/2000/svg">
<path d="M16.6874 8.95898C16.9863 8.78641 17.3683 8.88864 17.5409 9.1875L18.5409 10.9199C18.7134 11.2188 18.6113 11.6009 18.3124 11.7734C18.0136 11.9459 17.6316 11.8435 17.4589 11.5449L16.4589 9.8125C16.2863 9.5136 16.3885 9.1316 16.6874 8.95898Z" fill="#3869FC"/>
<path d="M26.4589 9.1875C26.6315 8.88866 27.0135 8.78642 27.3124 8.95898C27.6112 9.13161 27.7135 9.51361 27.5409 9.8125L26.5409 11.5449C26.3682 11.8435 25.9862 11.9459 25.6874 11.7734C25.3885 11.6009 25.2864 11.2188 25.4589 10.9199L26.4589 9.1875Z" fill="#3869FC"/>
<path d="M21.9999 7.375C22.3451 7.37501 22.6249 7.65483 22.6249 8V11C22.6249 11.3452 22.3451 11.625 21.9999 11.625C21.6547 11.625 21.3749 11.3452 21.3749 11V8C21.3749 7.65482 21.6547 7.375 21.9999 7.375Z" fill="#3869FC"/>
<path d="M36.5886 27.9783L33.5705 17.6658C33.5276 17.5183 33.4366 17.3895 33.312 17.2998C33.1874 17.2101 33.0364 17.1647 32.883 17.1708C31.3012 17.2902 29.7161 16.9865 28.2905 16.2908L25.0317 14.6408C23.7533 14.0038 22.2859 13.857 20.9067 14.2283L18.3148 14.9158L10.9448 15.2251C10.8038 15.2314 10.668 15.2809 10.5561 15.367C10.4442 15.4531 10.3615 15.5716 10.3192 15.7064L7.34235 25.022C7.30902 25.1274 7.30161 25.2394 7.32076 25.3483C7.33991 25.4572 7.38505 25.5599 7.45235 25.6476L10.0305 28.982C11.3287 30.6683 12.9022 32.1234 14.6848 33.2858L17.4348 35.087C17.9407 35.4174 18.5378 35.58 19.1414 35.5516C19.7449 35.5232 20.3241 35.3053 20.7967 34.9289C21.2356 34.5794 21.5492 34.0969 21.6905 33.5539L21.7386 33.5951C22.2468 34.0015 22.8871 34.2059 23.5368 34.1692C24.1864 34.1324 24.7996 33.8569 25.2586 33.3958C25.5178 33.1247 25.7066 32.7942 25.8086 32.4333C26.2564 32.7254 26.7796 32.8807 27.3142 32.8801C27.6815 32.8814 28.0454 32.809 28.3843 32.6673C28.7232 32.5256 29.0302 32.3175 29.2873 32.0551C29.645 31.7032 29.8851 31.2494 29.9748 30.7558C30.4944 31.0027 31.0784 31.0804 31.6444 30.978C32.2105 30.8757 32.7303 30.5984 33.1305 30.1851C33.368 29.9279 33.5484 29.6233 33.6598 29.2914L36.0661 28.8858C36.1626 28.8708 36.2548 28.8355 36.3366 28.7822C36.4184 28.7288 36.4879 28.6587 36.5405 28.5764C36.5932 28.4868 36.6249 28.3864 36.6332 28.2828C36.6416 28.1792 36.6263 28.0751 36.5886 27.9783ZM32.0992 29.2158C31.8648 29.4484 31.5546 29.589 31.2251 29.6117C30.8956 29.6344 30.5689 29.5378 30.3048 29.3395L28.3661 27.8064L27.768 27.332L27.1905 26.8783C27.1182 26.8223 27.0357 26.7811 26.9475 26.757C26.8594 26.7329 26.7674 26.7265 26.6767 26.7379C26.5861 26.7494 26.4986 26.7787 26.4192 26.824C26.3399 26.8693 26.2702 26.9298 26.2142 27.002C26.1582 27.0742 26.117 27.1568 26.093 27.2449C26.0689 27.3331 26.0624 27.4251 26.0739 27.5158C26.0854 27.6064 26.1146 27.6939 26.1599 27.7733C26.2052 27.8526 26.2657 27.9223 26.338 27.9783L27.3073 28.7414L28.1598 29.4289C28.288 29.5305 28.3938 29.6574 28.4707 29.8017C28.5476 29.946 28.5939 30.1046 28.6067 30.2676C28.6167 30.4197 28.5949 30.5721 28.5428 30.7153C28.4908 30.8585 28.4095 30.9894 28.3042 31.0995C28.0571 31.3548 27.7209 31.5045 27.3659 31.5173C27.0109 31.5301 26.6647 31.405 26.3998 31.1683L25.1073 30.0408L23.3748 28.487C23.2381 28.3658 23.0588 28.3038 22.8763 28.3148C22.6939 28.3257 22.5233 28.4087 22.402 28.5454C22.2808 28.6822 22.2188 28.8615 22.2298 29.044C22.2407 29.2264 22.3237 29.397 22.4605 29.5183L24.1861 31.0376C24.286 31.1234 24.3674 31.2285 24.4253 31.3467C24.4832 31.4649 24.5164 31.5937 24.523 31.7251C24.5252 31.8523 24.502 31.9786 24.4548 32.0966C24.4075 32.2147 24.3372 32.3221 24.248 32.4126C24.0319 32.625 23.7458 32.7512 23.4433 32.7677C23.1408 32.7841 22.8427 32.6897 22.6048 32.502L20.9067 31.072L20.8173 30.9826L19.4423 29.8758C19.4075 29.8464 19.368 29.8232 19.3255 29.807C19.288 29.7837 19.2489 29.7631 19.2086 29.7451C19.1607 29.7384 19.1121 29.7384 19.0642 29.7451H18.9473C18.8939 29.7557 18.8411 29.7695 18.7892 29.7864C18.7573 29.7825 18.7249 29.7825 18.693 29.7864C18.6473 29.8123 18.6056 29.8447 18.5692 29.8826L18.4798 29.9514C18.4551 29.9904 18.4344 30.0319 18.418 30.0751C18.3933 30.1094 18.3726 30.1463 18.3561 30.1851C18.3496 30.2307 18.3496 30.277 18.3561 30.3226C18.3489 30.3659 18.3489 30.41 18.3561 30.4533C18.3643 30.4953 18.3758 30.5367 18.3905 30.577C18.4054 30.6662 18.4488 30.7482 18.5142 30.8108C18.5379 30.848 18.5655 30.8826 18.5967 30.9139L20.0405 32.1239C20.1576 32.2381 20.2487 32.3763 20.3074 32.529C20.3661 32.6817 20.3911 32.8453 20.3806 33.0085C20.3702 33.1718 20.3245 33.3309 20.2468 33.4749C20.1691 33.6188 20.0612 33.7443 19.9305 33.8426C19.6844 34.0339 19.3852 34.1445 19.0738 34.1593C18.7625 34.1741 18.4542 34.0923 18.1911 33.9251L15.4411 32.1239C13.7866 31.0459 12.3268 29.6953 11.1236 28.1295L8.76547 25.0908L11.4536 16.5726L17.0086 16.3389L14.348 20.0651C13.977 20.5811 13.8213 21.221 13.9137 21.8497C14.006 22.4784 14.3393 23.0465 14.843 23.4339C15.3747 23.8524 16.0405 24.063 16.7162 24.0263C17.3918 23.9896 18.031 23.7081 18.5142 23.2345L19.683 22.0658C20.2347 21.5385 20.9405 21.2013 21.6973 21.1033C22.1936 21.0193 22.7017 21.037 23.191 21.1551C23.6802 21.2733 24.1404 21.4895 24.5436 21.7908L31.9617 27.6758C32.0795 27.765 32.1775 27.8777 32.2497 28.0066C32.3218 28.1356 32.3666 28.2781 32.3811 28.4251C32.3923 28.5704 32.373 28.7163 32.3245 28.8537C32.2759 28.991 32.1992 29.1167 32.0992 29.2226V29.2158ZM33.6598 27.8408C33.516 27.3492 33.22 26.9159 32.8142 26.6033L25.3961 20.7251C24.8477 20.3037 24.2194 19.9981 23.5493 19.8267C22.8793 19.6554 22.1814 19.6219 21.498 19.7283C20.4474 19.8793 19.4722 20.3609 18.7136 21.1033L17.5448 22.2789C17.2981 22.5117 16.9766 22.6492 16.6378 22.6668C16.2991 22.6844 15.9651 22.5811 15.6955 22.3751C15.4688 22.2065 15.3178 21.9552 15.2753 21.6758C15.2328 21.3965 15.3023 21.1117 15.4686 20.8833L18.803 16.2083L21.2298 15.5551C22.2936 15.2642 23.4273 15.3768 24.413 15.8714L27.6717 17.5214C29.1389 18.257 30.7605 18.6317 32.4017 18.6145L35.0623 27.6276L33.6598 27.8408Z" fill="#222222"/>
<path d="M6.97632 13.5552C7.14613 13.0296 7.70981 12.7412 8.23534 12.9111L11.857 14.0813C12.3826 14.2511 12.6709 14.8147 12.5011 15.3403L8.83177 26.6967C8.66196 27.2223 8.09828 27.5106 7.57275 27.3408L3.95105 26.1706C3.42552 26.0008 3.13714 25.4371 3.30695 24.9116L6.97632 13.5552Z" fill="#F7F8FC"/>
<path d="M4.57337 25.0581L7.71891 26.0744L11.2346 15.1937L8.08902 14.1774L4.57337 25.0581ZM8.83177 26.6967L8.79532 26.7927C8.60504 27.2257 8.13402 27.4669 7.67155 27.3676L7.57275 27.3408L3.95105 26.1706L3.85508 26.1345C3.42218 25.9443 3.18113 25.4731 3.28017 25.0107L3.30695 24.9116L6.97632 13.5552C7.13549 13.0626 7.64089 12.778 8.13638 12.8842L8.23534 12.9111L11.857 14.0813C12.3826 14.2511 12.6709 14.8147 12.5011 15.3403L8.83177 26.6967Z" fill="#222222"/>
<path d="M36.8316 15.5552C36.6618 15.0296 36.0981 14.7412 35.5726 14.9111L31.9509 16.0813C31.4253 16.2511 31.137 16.8147 31.3068 17.3403L34.9761 28.6967C35.1459 29.2223 35.7096 29.5106 36.2352 29.3408L39.8569 28.1706C40.3824 28.0008 40.6708 27.4371 40.501 26.9116L36.8316 15.5552Z" fill="#F7F8FC"/>
<path d="M39.2347 27.0581L36.0891 28.0744L32.5735 17.1937L35.719 16.1774L39.2347 27.0581ZM34.9761 28.6967L35.0127 28.7927C35.203 29.2257 35.674 29.4669 36.1365 29.3676L36.2352 29.3408L39.8569 28.1706L39.9529 28.1345C40.3858 27.9443 40.6269 27.4731 40.5279 27.0107L40.501 26.9116L36.8316 15.5552C36.6724 15.0626 36.1671 14.778 35.6716 14.8842L35.5726 14.9111L31.9509 16.0813C31.4253 16.2511 31.137 16.8147 31.3068 17.3403L34.9761 28.6967Z" fill="#222222"/>
</svg>
