<svg width="44" height="44" viewBox="0 0 44 44" fill="none" xmlns="http://www.w3.org/2000/svg">
<path d="M6 30.1439C6 29.4352 6.37508 28.7794 6.98596 28.42L19.986 20.773C21.3192 19.9887 23 20.95 23 22.4968V39C23 40.1046 22.1046 41 21 41H8C6.89543 41 6 40.1046 6 39V30.1439Z" fill="#F7F8FC"/>
<path d="M21 39.75V41H8L8 39.75H21ZM21.75 39V22.4971C21.75 21.9171 21.1201 21.5567 20.6201 21.8506L7.62012 29.4971C7.39114 29.6318 7.25012 29.8779 7.25 30.1436V39C7.25 39.4142 7.58579 39.75 8 39.75L8 41L7.7959 40.9893C6.85435 40.8938 6.1062 40.1457 6.01074 39.2041L6 39V30.1439C6.00011 29.4797 6.32975 28.8619 6.87402 28.4912L6.98596 28.42L19.986 20.773C21.3192 19.9887 23 20.95 23 22.4968V39C23 40.0357 22.2128 40.887 21.2041 40.9893L21 41V39.75C21.4142 39.75 21.75 39.4142 21.75 39Z" fill="#222222"/>
<path d="M18 20C18 18.3431 19.3431 17 21 17H35C36.6569 17 38 18.3431 38 20V39C38 40.1046 37.1046 41 36 41H18V20Z" fill="#F7F8FC"/>
<path d="M36.75 39V20C36.75 19.0335 35.9665 18.25 35 18.25H21C20.0335 18.25 19.25 19.0335 19.25 20V39.75H36V41H18V20C18 18.3431 19.3431 17 21 17H35C36.6569 17 38 18.3431 38 20V39C38 40.0357 37.2128 40.887 36.2041 40.9893L36 41V39.75C36.4142 39.75 36.75 39.4142 36.75 39Z" fill="#222222"/>
<path d="M24 34C24 33.4477 24.4477 33 25 33H31C31.5523 33 32 33.4477 32 34V40C32 40.5523 31.5523 41 31 41H25C24.4477 41 24 40.5523 24 40V34Z" fill="#F7F8FC"/>
<path d="M25.25 39.75H30.75V34.25H25.25V39.75ZM32 40C32 40.5523 31.5523 41 31 41H25C24.4477 41 24 40.5523 24 40V34C24 33.4477 24.4477 33 25 33H31C31.5523 33 32 33.4477 32 34V40Z" fill="#222222"/>
<path d="M31 27.375C31.3452 27.375 31.625 27.6548 31.625 28C31.625 28.3452 31.3452 28.625 31 28.625H25C24.6548 28.625 24.375 28.3452 24.375 28C24.375 27.6548 24.6548 27.375 25 27.375H31Z" fill="#222222"/>
<path d="M12 32.375C12.3452 32.375 12.625 32.6548 12.625 33C12.625 33.3452 12.3452 33.625 12 33.625H10C9.65482 33.625 9.375 33.3452 9.375 33C9.375 32.6548 9.65482 32.375 10 32.375H12Z" fill="#222222"/>
<path d="M16.5 32.375C16.8452 32.375 17.125 32.6548 17.125 33C17.125 33.3452 16.8452 33.625 16.5 33.625H14.5C14.1548 33.625 13.875 33.3452 13.875 33C13.875 32.6548 14.1548 32.375 14.5 32.375H16.5Z" fill="#222222"/>
<path d="M12 35.375C12.3452 35.375 12.625 35.6548 12.625 36C12.625 36.3452 12.3452 36.625 12 36.625H10C9.65482 36.625 9.375 36.3452 9.375 36C9.375 35.6548 9.65482 35.375 10 35.375H12Z" fill="#222222"/>
<path d="M16.5 35.375C16.8452 35.375 17.125 35.6548 17.125 36C17.125 36.3452 16.8452 36.625 16.5 36.625H14.5C14.1548 36.625 13.875 36.3452 13.875 36C13.875 35.6548 14.1548 35.375 14.5 35.375H16.5Z" fill="#222222"/>
<path d="M36.6406 3.98923C36.9229 3.79061 37.3121 3.85832 37.5107 4.1406C37.7094 4.42289 37.6417 4.81208 37.3594 5.01072L23.8594 14.5107C23.6883 14.6311 23.4685 14.6578 23.2734 14.582L14.5674 11.1963L5.33399 17.0283C5.04222 17.2126 4.65607 17.1256 4.47169 16.834C4.28741 16.5422 4.37436 16.156 4.66602 15.9717L14.166 9.97166L14.2305 9.93552C14.3851 9.86166 14.5648 9.85505 14.7266 9.91794L23.4141 13.2959L36.6406 3.98923Z" fill="#3869FC"/>
<path d="M39.2337 2.78516C39.3876 2.78516 39.4839 2.95182 39.4069 3.08516L37.5882 6.23516C37.5112 6.36849 37.3188 6.36849 37.2418 6.23516L35.4232 3.08516C35.3462 2.95182 35.4424 2.78516 35.5964 2.78516L39.2337 2.78516Z" fill="#3869FC"/>
</svg>
