<svg width="32" height="32" viewBox="0 0 32 32" fill="none" xmlns="http://www.w3.org/2000/svg">
<path fill-rule="evenodd" clip-rule="evenodd" d="M11.3525 17.0049C11.8567 17.0562 12.25 17.4823 12.25 18V22L12.2451 22.1025C12.1938 22.6067 11.7677 23 11.25 23H9.25C8.73232 23 8.30621 22.6067 8.25488 22.1025L8.25 22V18C8.25 17.4477 8.69772 17 9.25 17H11.25L11.3525 17.0049ZM9.5 21.75H11V18.25H9.5V21.75Z" fill="#3869FC"/>
<path fill-rule="evenodd" clip-rule="evenodd" d="M16.6025 13.0049C17.1067 13.0562 17.5 13.4823 17.5 14V22L17.4951 22.1025C17.4438 22.6067 17.0177 23 16.5 23H14.5C13.9823 23 13.5562 22.6067 13.5049 22.1025L13.5 22V14C13.5 13.4477 13.9477 13 14.5 13H16.5L16.6025 13.0049ZM14.75 21.75H16.25V14.25H14.75V21.75Z" fill="#3869FC"/>
<path d="M21.8525 9.00488C22.3567 9.05621 22.75 9.48232 22.75 10V17.0557C22.5054 17.0189 22.2549 17 22 17C21.8313 17 21.6644 17.0081 21.5 17.0244V10.25H20V17.416C19.5436 17.6154 19.1232 17.8816 18.75 18.2012V10C18.75 9.44772 19.1977 9 19.75 9H21.75L21.8525 9.00488Z" fill="#3869FC"/>
<path fill-rule="evenodd" clip-rule="evenodd" d="M25.8633 18.8252C26.5737 19.6886 27 20.7946 27 22C27 23.2831 26.5161 24.4527 25.7217 25.3379L28.2754 27.8916C28.5193 28.1357 28.5194 28.5314 28.2754 28.7754C28.0314 29.0194 27.6357 29.0193 27.3916 28.7754L24.7754 26.1592C23.9813 26.6901 23.0269 27 22 27C20.7944 27 19.6887 26.5729 18.8252 25.8623C18.8824 25.9094 18.9407 25.9554 19 26H7L6.7959 25.9893C5.85435 25.8938 5.1062 25.1457 5.01074 24.2041L5 24V7C5 5.89543 5.89543 5 7 5H24C25.1046 5 26 5.89543 26 7V19C25.9555 18.9408 25.9102 18.8823 25.8633 18.8252ZM22 18.25C19.9289 18.25 18.25 19.9289 18.25 22C18.25 24.0711 19.9289 25.75 22 25.75C24.0711 25.75 25.75 24.0711 25.75 22C25.75 19.9289 24.0711 18.25 22 18.25ZM7 6.25C6.58579 6.25 6.25 6.58579 6.25 7V24C6.25 24.4142 6.58579 24.75 7 24.75H17.8242C17.3036 23.961 17 23.016 17 22C17 19.2386 19.2386 17 22 17C23.0231 17 23.9743 17.3076 24.7666 17.835C24.761 17.8312 24.7557 17.827 24.75 17.8232V7C24.75 6.58579 24.4142 6.25 24 6.25H7Z" fill="#222222"/>
</svg>
