<svg width="32" height="32" viewBox="0 0 32 32" fill="none" xmlns="http://www.w3.org/2000/svg">
<g clip-path="url(#clip0_4193_14259)">
<path d="M12 15.375C12.3452 15.375 12.625 15.6548 12.625 16C12.625 16.3452 12.3452 16.625 12 16.625H8C7.65482 16.625 7.375 16.3452 7.375 16C7.375 15.6548 7.65482 15.375 8 15.375H12ZM15.126 11.3877C15.4108 11.446 15.625 11.698 15.625 12C15.625 12.302 15.4108 12.554 15.126 12.6123L15 12.625H8C7.65482 12.625 7.375 12.3452 7.375 12C7.375 11.6548 7.65482 11.375 8 11.375H15L15.126 11.3877Z" fill="#3869FC"/>
<path d="M27 5C28.1046 5 29 5.89543 29 7V23L28.9893 23.2041C28.8938 24.1457 28.1457 24.8938 27.2041 24.9893L27 25H25.625V29.3086C25.625 29.5305 25.507 29.7355 25.3154 29.8477C25.1238 29.9598 24.8869 29.9624 24.6934 29.8535L20 27.2129L15.3066 29.8535C15.1131 29.9624 14.8762 29.9598 14.6846 29.8477C14.493 29.7355 14.375 29.5305 14.375 29.3086V25H5L4.7959 24.9893C3.85435 24.8938 3.1062 24.1457 3.01074 23.2041L3 23V7C3 5.89543 3.89543 5 5 5H27ZM24.375 22.2783C23.2083 23.3064 21.6785 24 20 24C18.3215 24 16.7917 23.3064 15.625 22.2783V28.2393L19.6934 25.9512C19.8836 25.8442 20.1164 25.8442 20.3066 25.9512L24.375 28.2393V22.2783ZM5 6.25C4.58579 6.25 4.25 6.58579 4.25 7V23C4.25 23.4142 4.58579 23.75 5 23.75H14.375V20.0898C14.1331 19.439 14 18.7351 14 18C14 14.6863 16.6863 12 20 12C23.3137 12 26 14.6863 26 18C26 18.7351 25.8669 19.439 25.625 20.0898V23.75H27C27.4142 23.75 27.75 23.4142 27.75 23V7C27.75 6.58579 27.4142 6.25 27 6.25H5ZM20 13.25C17.3766 13.25 15.25 15.3766 15.25 18C15.25 20.4384 17.0874 22.4465 19.4531 22.7178C19.6331 22.7371 19.8153 22.75 20 22.75C20.1844 22.75 20.3663 22.7371 20.5459 22.7178C22.9121 22.447 24.75 20.4387 24.75 18C24.75 15.3766 22.6234 13.25 20 13.25Z" fill="#222222"/>
</g>
<defs>
<clipPath id="clip0_4193_14259">
<rect width="26" height="24.9337" fill="white" transform="translate(3 5)"/>
</clipPath>
</defs>
</svg>
