<svg width="32" height="32" viewBox="0 0 32 32" fill="none" xmlns="http://www.w3.org/2000/svg">
<path d="M15.9814 9C16.1034 9.00004 16.2226 9.03874 16.3213 9.11035C16.4198 9.18192 16.4934 9.28274 16.5312 9.39844L17.6787 12.7568L18.8271 9.39844C18.8495 9.32572 18.8864 9.25822 18.9355 9.2002C18.9849 9.14204 19.0459 9.09445 19.1143 9.06055C19.1826 9.02664 19.2578 9.00702 19.334 9.00293C19.4101 8.9989 19.4861 9.01076 19.5576 9.03711C19.7028 9.09858 19.8195 9.21297 19.8828 9.35742C19.946 9.5018 19.9516 9.6651 19.8984 9.81348L19.5703 10.7686H19.9951C20.1204 10.7735 20.2393 10.8276 20.3262 10.918C20.413 11.0083 20.4619 11.1286 20.4619 11.2539C20.4619 11.3792 20.413 11.4995 20.3262 11.5898C20.2393 11.6802 20.1204 11.7334 19.9951 11.7383H19.2393L18.2637 14.5986C18.2273 14.7133 18.1561 14.814 18.0596 14.8857C17.9632 14.9574 17.8466 14.9972 17.7266 14.999H17.6787C17.5512 15.0076 17.4239 14.9725 17.3184 14.9004C17.2131 14.8284 17.1351 14.7232 17.0967 14.6016L15.9814 11.3369L14.8662 14.5986C14.8283 14.7213 14.7495 14.8278 14.6436 14.9004C14.5377 14.9728 14.4102 15.008 14.2822 14.999C14.1548 15.0076 14.0283 14.9724 13.9229 14.9004C13.8175 14.8284 13.7395 14.7233 13.7012 14.6016L12.7256 11.7412H11.9658C11.8408 11.7362 11.7225 11.6829 11.6357 11.5928C11.5488 11.5024 11.5 11.3812 11.5 11.2559C11.5001 11.1306 11.5489 11.0102 11.6357 10.9199C11.7226 10.8297 11.8407 10.7765 11.9658 10.7715H12.3906L12.0645 9.8125C12.0115 9.66409 12.0168 9.50079 12.0801 9.35645C12.1434 9.2121 12.2602 9.09771 12.4053 9.03613C12.4768 9.00982 12.5528 8.99787 12.6289 9.00195C12.705 9.00603 12.7794 9.02578 12.8477 9.05957C12.916 9.09345 12.977 9.1411 13.0264 9.19922C13.0757 9.25741 13.1134 9.32545 13.1357 9.39844L14.2832 12.7559L15.4316 9.39844C15.4695 9.28268 15.543 9.1819 15.6416 9.11035C15.7403 9.0387 15.8595 9 15.9814 9Z" fill="#3869FC"/>
<path d="M17 21.875C17.3452 21.875 17.625 22.1548 17.625 22.5C17.625 22.8452 17.3452 23.125 17 23.125H9C8.65482 23.125 8.375 22.8452 8.375 22.5C8.375 22.1548 8.65482 21.875 9 21.875H17Z" fill="#222222"/>
<path d="M23 17.875C23.3452 17.875 23.625 18.1548 23.625 18.5C23.625 18.8452 23.3452 19.125 23 19.125H9C8.65482 19.125 8.375 18.8452 8.375 18.5C8.375 18.1548 8.65482 17.875 9 17.875H23Z" fill="#222222"/>
<path fill-rule="evenodd" clip-rule="evenodd" d="M26 4C27.1046 4 28 4.89543 28 6V26C28 27.0357 27.2128 27.887 26.2041 27.9893L26 28H6L5.7959 27.9893C4.85435 27.8938 4.1062 27.1457 4.01074 26.2041L4 26V6C4 4.89543 4.89543 4 6 4H26ZM6 5.25C5.58579 5.25 5.25 5.58579 5.25 6V26C5.25 26.4142 5.58579 26.75 6 26.75H26C26.4142 26.75 26.75 26.4142 26.75 26V6C26.75 5.58579 26.4142 5.25 26 5.25H6Z" fill="#222222"/>
</svg>
