<svg width="32" height="32" viewBox="0 0 32 32" fill="none" xmlns="http://www.w3.org/2000/svg">
<path fill-rule="evenodd" clip-rule="evenodd" d="M26.75 10.8525C26.9818 10.9465 27.2345 11 27.5 11C27.6729 11 27.8399 10.9749 28 10.9336V21L28.1025 21.0049C28.6067 21.0562 29 21.4823 29 22V24L28.9951 24.1025C28.9472 24.573 28.573 24.9472 28.1025 24.9951L28 25H18.7803L21.0029 27.9609C21.2097 28.2369 21.1546 28.6288 20.8789 28.8359C20.6029 29.043 20.2111 28.9868 20.0039 28.7109L17.2188 25H14.7295L12.5361 28.6523L12.46 28.7539C12.2633 28.9678 11.9365 29.0216 11.6777 28.8662C11.419 28.7107 11.3136 28.3971 11.4102 28.123L11.4639 28.0088L13.2715 25H4C3.44772 25 3 24.5523 3 24V22C3 21.4477 3.44772 21 4 21V18.9336C4.16006 18.9749 4.32705 19 4.5 19C4.7655 19 5.0182 18.9465 5.25 18.8525V21H26.75V10.8525ZM4.25 23.75H27.75V22.25H4.25V23.75Z" fill="#222222"/>
<path d="M26 5C27.1046 5 28 5.89543 28 7V7.06543C27.84 7.0242 27.6729 7 27.5 7C27.2346 7 26.9817 7.05263 26.75 7.14648V7C26.75 6.58579 26.4142 6.25 26 6.25H6C5.58579 6.25 5.25 6.58579 5.25 7V15.1465C5.01829 15.0526 4.76537 15 4.5 15C4.32714 15 4.15999 15.0242 4 15.0654V7C4 5.89543 4.89543 5 6 5H26Z" fill="#222222"/>
<path fill-rule="evenodd" clip-rule="evenodd" d="M27.5 7C28.6046 7 29.5 7.89543 29.5 9C29.5 10.1046 28.6046 11 27.5 11C27.2911 11 27.0897 10.9676 26.9004 10.9082L20.4492 16.4375C20.2495 17.3314 19.4541 18 18.5 18C17.5546 18 16.7643 17.3436 16.5557 16.4619L12.001 13.7295C11.7063 13.9004 11.3651 14 11 14C10.6422 14 10.3072 13.9048 10.0166 13.7402L6.33105 16.1973C6.43898 16.4431 6.5 16.7143 6.5 17C6.5 18.1046 5.60457 19 4.5 19C3.39543 19 2.5 18.1046 2.5 17C2.5 15.8954 3.39543 15 4.5 15C4.85728 15 5.19213 15.0946 5.48242 15.2588L9.16797 12.8018C9.06037 12.5562 9 12.2852 9 12C9 10.8954 9.89543 10 11 10C12.1046 10 13 10.8954 13 12C13 12.2755 12.9435 12.5376 12.8428 12.7764L16.7148 15.0996C17.0444 14.4476 17.7195 14 18.5 14C19.2338 14 19.8737 14.3962 20.2217 14.9854L25.8643 10.1484C25.6355 9.82327 25.5 9.42776 25.5 9C25.5 7.89543 26.3954 7 27.5 7ZM4.5 16.25C4.08579 16.25 3.75 16.5858 3.75 17C3.75 17.4142 4.08579 17.75 4.5 17.75C4.91421 17.75 5.25 17.4142 5.25 17C5.25 16.5858 4.91421 16.25 4.5 16.25ZM18.5 15.25C18.0858 15.25 17.75 15.5858 17.75 16C17.75 16.4142 18.0858 16.75 18.5 16.75C18.9142 16.75 19.25 16.4142 19.25 16C19.25 15.5858 18.9142 15.25 18.5 15.25ZM11 11.25C10.5858 11.25 10.25 11.5858 10.25 12C10.25 12.4142 10.5858 12.75 11 12.75C11.4142 12.75 11.75 12.4142 11.75 12C11.75 11.5858 11.4142 11.25 11 11.25ZM27.5 8.25C27.0858 8.25 26.75 8.58579 26.75 9C26.75 9.41421 27.0858 9.75 27.5 9.75C27.9142 9.75 28.25 9.41421 28.25 9C28.25 8.58579 27.9142 8.25 27.5 8.25Z" fill="#3869FC"/>
</svg>
