<svg width="32" height="32" viewBox="0 0 32 32" fill="none" xmlns="http://www.w3.org/2000/svg">
<path d="M16 18.875C16.3452 18.875 16.625 19.1548 16.625 19.5C16.625 19.8452 16.3452 20.125 16 20.125H10C9.65482 20.125 9.375 19.8452 9.375 19.5C9.375 19.1548 9.65482 18.875 10 18.875H16Z" fill="#3869FC"/>
<path d="M20 14.875C20.3452 14.875 20.625 15.1548 20.625 15.5C20.625 15.8452 20.3452 16.125 20 16.125H10C9.65482 16.125 9.375 15.8452 9.375 15.5C9.375 15.1548 9.65482 14.875 10 14.875H20Z" fill="#3869FC"/>
<path d="M20 10.875C20.3452 10.875 20.625 11.1548 20.625 11.5C20.625 11.8452 20.3452 12.125 20 12.125H10C9.65482 12.125 9.375 11.8452 9.375 11.5C9.375 11.1548 9.65482 10.875 10 10.875H20Z" fill="#3869FC"/>
<path fill-rule="evenodd" clip-rule="evenodd" d="M23.2041 4.01074C24.2128 4.113 25 4.96435 25 6V18.7852L25.8994 17.8857L25.9131 17.8994C27.0908 16.9563 28.8144 17.0296 29.9062 18.1211C30.9979 19.213 31.0712 20.9374 30.1279 22.1152L30.1426 22.1289L22.3643 29.9072H18.1211V28H7C5.96435 28 5.113 27.2128 5.01074 26.2041L5 26V6C5 4.89543 5.89543 4 7 4H23L23.2041 4.01074ZM19.3711 26.1816V28.6572H21.8457L27.751 22.751L25.2764 20.2764L19.3711 26.1816ZM7 5.25C6.58579 5.25 6.25 5.58579 6.25 6V26C6.25 26.4142 6.58579 26.75 7 26.75H18.1211V25.6641L23.75 20.0352V6C23.75 5.58579 23.4142 5.25 23 5.25H7ZM29.0225 19.0059C28.3863 18.3697 27.3797 18.3253 26.6934 18.875L26.6172 18.9355L26.1602 19.3926L28.6348 21.8672L29.0859 21.417L29.1523 21.334C29.7022 20.6473 29.6579 19.6416 29.0225 19.0059Z" fill="#222222"/>
</svg>
