<svg width="32" height="32" viewBox="0 0 32 32" fill="none" xmlns="http://www.w3.org/2000/svg">
<path d="M20.75 10C20.75 7.37665 18.6234 5.25 16 5.25C13.4585 5.25 11.3829 7.24596 11.2559 9.75586L11.25 10H20.75ZM22 10.5254L21.9854 10.6709C21.9275 10.9543 21.7043 11.1775 21.4209 11.2354L21.2754 11.25H10.7246C10.3743 11.2498 10.0821 11.0013 10.0146 10.6709L10 10.5254V10C10 6.68629 12.6863 4 16 4C19.3137 4 22 6.68629 22 10V10.5254Z" fill="#222222"/>
<path d="M23 26.75V28H9V26.75H23ZM25.75 24V14C25.75 12.4812 24.5188 11.25 23 11.25H9C7.48122 11.25 6.25 12.4812 6.25 14V24C6.25 25.5188 7.48122 26.75 9 26.75V28C6.85996 28 5.11211 26.3194 5.00488 24.2061L5 24V14C5 11.7909 6.79086 10 9 10H23L23.2061 10.0049C25.3194 10.1121 27 11.86 27 14V24C27 26.14 25.3194 27.8879 23.2061 27.9951L23 28V26.75C24.5188 26.75 25.75 25.5188 25.75 24Z" fill="#222222"/>
<path d="M16 15.5C16.8284 15.5 17.5 16.1716 17.5 17C17.5 17.605 17.1408 18.1241 16.625 18.3613V22C16.625 22.3452 16.3452 22.625 16 22.625C15.6548 22.625 15.375 22.3452 15.375 22V18.3613C14.8592 18.1241 14.5 17.605 14.5 17C14.5 16.1716 15.1716 15.5 16 15.5Z" fill="#3869FC"/>
</svg>
