<svg width="32" height="32" viewBox="0 0 32 32" fill="none" xmlns="http://www.w3.org/2000/svg">
<path fill-rule="evenodd" clip-rule="evenodd" d="M12.1025 11.0049C12.6067 11.0562 13 11.4823 13 12V24L12.9951 24.1025C12.9438 24.6067 12.5177 25 12 25H10C9.48232 25 9.05621 24.6067 9.00488 24.1025L9 24V12C9 11.4477 9.44772 11 10 11H12L12.1025 11.0049ZM10.25 23.75H11.75V12.25H10.25V23.75Z" fill="#222222"/>
<path fill-rule="evenodd" clip-rule="evenodd" d="M17.1025 15.0049C17.6067 15.0562 18 15.4823 18 16V24L17.9951 24.1025C17.9438 24.6067 17.5177 25 17 25H15C14.4477 25 14 24.5523 14 24V16C14 15.4477 14.4477 15 15 15H17L17.1025 15.0049ZM15.25 23.75H16.75V16.25H15.25V23.75Z" fill="#222222"/>
<path fill-rule="evenodd" clip-rule="evenodd" d="M22.1025 19.0049C22.6067 19.0562 23 19.4823 23 20V24L22.9951 24.1025C22.9438 24.6067 22.5177 25 22 25H20C19.4477 25 19 24.5523 19 24V20C19 19.4477 19.4477 19 20 19H22L22.1025 19.0049ZM20.25 23.75H21.75V20.25H20.25V23.75Z" fill="#222222"/>
<path fill-rule="evenodd" clip-rule="evenodd" d="M25 4C26.1046 4 27 4.89543 27 6V26C27 27.0357 26.2128 27.887 25.2041 27.9893L25 28H7L6.7959 27.9893C5.85435 27.8938 5.1062 27.1457 5.01074 26.2041L5 26V6C5 4.89543 5.89543 4 7 4H25ZM7 5.25C6.58579 5.25 6.25 5.58579 6.25 6V26C6.25 26.4142 6.58579 26.75 7 26.75H25C25.4142 26.75 25.75 26.4142 25.75 26V6C25.75 5.58579 25.4142 5.25 25 5.25H7Z" fill="#222222"/>
<path d="M12.5099 8.61246C12.6971 8.37584 13.021 8.31105 13.2804 8.44156L13.3878 8.50992L22.6251 15.8019V14.7502C22.6251 14.405 22.9049 14.1252 23.2501 14.1252C23.5953 14.1252 23.8751 14.405 23.8751 14.7502V17.2502C23.8751 17.5953 23.5952 17.8751 23.2501 17.8752H20.7501C20.405 17.8752 20.1252 17.5953 20.1251 17.2502C20.1251 16.905 20.4049 16.6252 20.7501 16.6252H21.6495L12.6124 9.49039L12.5216 9.4025C12.3344 9.18028 12.3228 8.84943 12.5099 8.61246Z" fill="#3869FC"/>
</svg>
