<svg width="32" height="32" viewBox="0 0 32 32" fill="none" xmlns="http://www.w3.org/2000/svg">
<path d="M11 20C11.5523 20 12 20.4477 12 21C12 21.5523 11.5523 22 11 22C10.4477 22 10 21.5523 10 21C10 20.4477 10.4477 20 11 20Z" fill="#3869FC"/>
<path d="M16 20C16.5523 20 17 20.4477 17 21C17 21.5523 16.5523 22 16 22C15.4477 22 15 21.5523 15 21C15 20.4477 15.4477 20 16 20Z" fill="#3869FC"/>
<path d="M21 20C21.5523 20 22 20.4477 22 21C22 21.5523 21.5523 22 21 22C20.4477 22 20 21.5523 20 21C20 20.4477 20.4477 20 21 20Z" fill="#3869FC"/>
<path d="M11 16C11.5523 16 12 16.4477 12 17C12 17.5523 11.5523 18 11 18C10.4477 18 10 17.5523 10 17C10 16.4477 10.4477 16 11 16Z" fill="#3869FC"/>
<path d="M16 16C16.5523 16 17 16.4477 17 17C17 17.5523 16.5523 18 16 18C15.4477 18 15 17.5523 15 17C15 16.4477 15.4477 16 16 16Z" fill="#3869FC"/>
<path d="M21 16C21.5523 16 22 16.4477 22 17C22 17.5523 21.5523 18 21 18C20.4477 18 20 17.5523 20 17C20 16.4477 20.4477 16 21 16Z" fill="#3869FC"/>
<path fill-rule="evenodd" clip-rule="evenodd" d="M21 3.875C21.3452 3.875 21.625 4.15482 21.625 4.5V5.5H23.875C24.5712 5.5 25.2392 5.77627 25.7314 6.26855C26.2237 6.76084 26.5 7.42881 26.5 8.125V16.834C26.4713 16.8553 26.4412 16.875 26.4131 16.8975L26.3994 16.8848L25.25 18.0342V11.625H6.75V23.875C6.75 24.2397 6.89448 24.5898 7.15234 24.8477C7.41021 25.1055 7.76033 25.25 8.125 25.25H18.6211V24.6641L26.3994 16.8848L26.4131 16.8975C27.5908 15.9549 29.3146 16.0309 30.4062 17.1221C31.4976 18.2138 31.5707 19.9365 30.6279 21.1143L30.6426 21.1279L22.8643 28.9062H18.6211V26.5H8.125C7.51566 26.5 6.92811 26.2882 6.46094 25.9053L6.26855 25.7314C5.77627 25.2392 5.5 24.5712 5.5 23.875V8.125C5.5 7.42881 5.77627 6.76084 6.26855 6.26855C6.76084 5.77627 7.42881 5.5 8.125 5.5H10.375V4.5C10.375 4.15482 10.6548 3.875 11 3.875C11.3452 3.875 11.625 4.15482 11.625 4.5V5.5H20.375V4.5C20.375 4.15482 20.6548 3.875 21 3.875ZM19.8711 25.1816V27.6562H22.3457L28.251 21.751L25.7764 19.2764L19.8711 25.1816ZM29.5225 18.0059C28.886 17.3699 27.879 17.3251 27.1934 17.874L27.1172 17.9355L26.6602 18.3926L29.1348 20.8672L29.5859 20.416L29.6523 20.333C30.2016 19.6467 30.1579 18.6417 29.5225 18.0059ZM8.125 6.75C7.76033 6.75 7.41021 6.89448 7.15234 7.15234C6.89448 7.41021 6.75 7.76033 6.75 8.125V10.375H25.25V8.125C25.25 7.76033 25.1055 7.41021 24.8477 7.15234C24.622 6.92668 24.3256 6.78806 24.0107 6.75684L23.875 6.75H21.625V7.5C21.625 7.84518 21.3452 8.125 21 8.125C20.6548 8.125 20.375 7.84518 20.375 7.5V6.75H11.625V7.5C11.625 7.84518 11.3452 8.125 11 8.125C10.6548 8.125 10.375 7.84518 10.375 7.5V6.75H8.125Z" fill="#222222"/>
</svg>
