<svg width="32" height="32" viewBox="0 0 32 32" fill="none" xmlns="http://www.w3.org/2000/svg">
<path d="M6.125 19C6.125 19.3452 5.84518 19.625 5.5 19.625C5.15482 19.625 4.875 19.3452 4.875 19V14H6.125V19Z" fill="#3869FC"/>
<path fill-rule="evenodd" clip-rule="evenodd" d="M15.2225 6.38409C15.7219 6.18789 16.2777 6.18789 16.7772 6.38409L26.6746 10.2728C28.4717 10.9789 28.4718 13.5217 26.6746 14.2278L23.6248 15.4261V19.7142C23.6247 20.6847 22.9526 21.9203 21.7235 22.8851C20.4649 23.8729 18.575 24.6253 15.9998 24.6253C13.4246 24.6253 11.5347 23.8729 10.2762 22.8851C9.04708 21.9203 8.37498 20.6847 8.37483 19.7142V15.4261L5.32503 14.2278C3.52798 13.5217 3.52812 10.979 5.32503 10.2728L15.2225 6.38409ZM16.7772 18.1165C16.2778 18.3126 15.7218 18.3127 15.2225 18.1165L9.62483 15.9163V19.7142C9.62501 20.1723 10.0032 21.081 11.0487 21.9017C12.0651 22.6993 13.6755 23.3753 15.9998 23.3753C18.3241 23.3753 19.9345 22.6993 20.951 21.9017C21.9965 21.081 22.3747 20.1723 22.3748 19.7142V15.9163L16.7772 18.1165ZM16.3201 7.54718C16.1145 7.46639 15.8852 7.46639 15.6795 7.54718L5.78206 11.4358C5.04228 11.7267 5.04213 12.774 5.78206 13.0648L15.6795 16.9534C15.8851 17.0342 16.1146 17.0341 16.3201 16.9534L26.2176 13.0648C26.9576 12.774 26.9576 11.7266 26.2176 11.4358L16.3201 7.54718Z" fill="#222222"/>
</svg>
