<svg width="32" height="32" viewBox="0 0 32 32" fill="none" xmlns="http://www.w3.org/2000/svg">
<path d="M15 17.375C15.3452 17.375 15.625 17.6548 15.625 18C15.625 18.3452 15.3452 18.625 15 18.625H10C9.65482 18.625 9.375 18.3452 9.375 18C9.375 17.6548 9.65482 17.375 10 17.375H15Z" fill="#3869FC"/>
<path d="M18 13.375C18.3452 13.375 18.625 13.6548 18.625 14C18.625 14.3452 18.3452 14.625 18 14.625H10C9.65482 14.625 9.375 14.3452 9.375 14C9.375 13.6548 9.65482 13.375 10 13.375H18Z" fill="#3869FC"/>
<path d="M20 9.375C20.3452 9.375 20.625 9.65482 20.625 10C20.625 10.3452 20.3452 10.625 20 10.625H10C9.65482 10.625 9.375 10.3452 9.375 10C9.375 9.65482 9.65482 9.375 10 9.375H20Z" fill="#3869FC"/>
<path fill-rule="evenodd" clip-rule="evenodd" d="M23.2041 4.01074C24.2128 4.113 25 4.96435 25 6V14.126C26.7252 14.57 28 16.1362 28 18C28 19.4283 27.2503 20.6801 26.124 21.3877C28.3892 22.2454 30 24.4343 30 27C30 27.5177 29.6067 27.9438 29.1025 27.9951L29 28H19L18.8975 27.9951C18.427 27.9472 18.0528 27.573 18.0049 27.1025L18 27C18 26.6892 18.0238 26.384 18.0693 26.0859L18.084 26H7C5.96435 26 5.113 25.2128 5.01074 24.2041L5 24V6C5 4.89543 5.89543 4 7 4H23L23.2041 4.01074ZM24 22.25C21.4605 22.25 19.3858 24.2428 19.2559 26.75H28.7441C28.6142 24.2428 26.5395 22.25 24 22.25ZM23.75 14.0068V6C23.75 5.58579 23.4142 5.25 23 5.25H7C6.58579 5.25 6.25 5.58579 6.25 6V24C6.25 24.4142 6.58579 24.75 7 24.75H18.4365C18.4288 24.769 18.4225 24.7885 18.415 24.8076C19.0327 23.2353 20.2935 21.9868 21.875 21.3877C20.7491 20.68 20 19.428 20 18C20 15.8748 21.6573 14.1359 23.75 14.0068ZM24 15.25C22.4812 15.25 21.25 16.4812 21.25 18C21.25 19.5188 22.4812 20.75 24 20.75C25.5188 20.75 26.75 19.5188 26.75 18C26.75 16.4812 25.5188 15.25 24 15.25Z" fill="#222222"/>
</svg>
