<svg width="32" height="32" viewBox="0 0 32 32" fill="none" xmlns="http://www.w3.org/2000/svg">
<path d="M20.5082 20.8921C20.7522 21.1362 21.148 21.1362 21.392 20.8921C21.6361 20.6481 21.6361 20.2523 21.392 20.0083L17.3262 15.9424L17.2281 15.8623C16.9855 15.7021 16.6559 15.7288 16.4423 15.9424C16.2287 16.156 16.202 16.4856 16.3622 16.7282L16.4423 16.8263L20.5082 20.8921Z" fill="#3869FC"/>
<path d="M16.875 9C16.5298 9 16.25 9.27982 16.25 9.625L16.25 16.375C16.25 16.7202 16.5298 17 16.875 17C17.2202 17 17.5 16.7202 17.5 16.375L17.5 9.625C17.5 9.27982 17.2202 9 16.875 9Z" fill="#3869FC"/>
<path d="M16.9997 4.375C23.42 4.375 28.6247 9.57969 28.6247 16C28.6247 22.4203 23.42 27.625 16.9997 27.625C13.3897 27.6249 10.1631 25.9789 8.03193 23.3984L8.9958 22.6016C10.8997 24.9069 13.7783 26.3749 16.9997 26.375C22.7297 26.375 27.3747 21.73 27.3747 16C27.3747 10.27 22.7297 5.625 16.9997 5.625C11.5371 5.62516 7.06354 9.84725 6.65791 15.2061L8.80732 13.0576C9.05135 12.8136 9.448 12.8137 9.69209 13.0576C9.93617 13.3017 9.93617 13.6983 9.69209 13.9424L6.69209 16.9424C6.448 17.1863 6.05135 17.1864 5.80732 16.9424L2.80732 13.9424L2.72725 13.8438C2.56744 13.6013 2.59403 13.2711 2.80732 13.0576C3.02074 12.8442 3.35091 12.8177 3.59346 12.9775L3.69209 13.0576L5.43623 14.8018C6.036 8.94453 10.9841 4.37516 16.9997 4.375Z" fill="#222222"/>
<path d="M8.11592 22.5186C8.3819 22.2989 8.77592 22.3359 8.9958 22.6016L8.03193 23.3984C7.81241 23.1325 7.85026 22.7384 8.11592 22.5186Z" fill="#222222"/>
</svg>
