<svg width="32" height="32" viewBox="0 0 32 32" fill="none" xmlns="http://www.w3.org/2000/svg">
<path d="M18.75 14C18.75 12.4812 17.5188 11.25 16 11.25C14.4812 11.25 13.25 12.4812 13.25 14C13.25 15.5188 14.4812 16.75 16 16.75V18C13.7909 18 12 16.2091 12 14C12 11.7909 13.7909 10 16 10C18.2091 10 20 11.7909 20 14C20 16.2091 18.2091 18 16 18V16.75C17.5188 16.75 18.75 15.5188 18.75 14Z" fill="#3869FC"/>
<path d="M23.75 13.625C23.75 9.6015 20.3309 6.25 16 6.25C11.6691 6.25 8.25 9.6015 8.25 13.625C8.25 15.7982 9.23702 18.3416 10.8564 20.7988C12.279 22.9573 14.1239 24.9466 16 26.4326C17.8761 24.9466 19.721 22.9573 21.1436 20.7988C22.763 18.3416 23.75 15.7982 23.75 13.625ZM25 13.625C25 18.6562 20.5 24.7656 16 28C11.5 24.7656 7 18.6562 7 13.625C7 8.86154 11.0294 5 16 5C20.9706 5 25 8.86154 25 13.625Z" fill="#222222"/>
</svg>
