<svg width="32" height="32" viewBox="0 0 32 32" fill="none" xmlns="http://www.w3.org/2000/svg">
<path d="M14.875 20.5C14.875 20.0168 14.4832 19.625 14 19.625H11C10.5168 19.625 10.125 20.0168 10.125 20.5V27H8.875V20.5C8.875 19.3264 9.82639 18.375 11 18.375H14C15.1736 18.375 16.125 19.3264 16.125 20.5V27H14.875V20.5Z" fill="#3869FC"/>
<path d="M15.5 13.375C15.8452 13.375 16.125 13.6548 16.125 14C16.125 14.3452 15.8452 14.625 15.5 14.625H9.5C9.15482 14.625 8.875 14.3452 8.875 14C8.875 13.6548 9.15482 13.375 9.5 13.375H15.5Z" fill="#222222"/>
<path d="M15.5 10.375C15.8452 10.375 16.125 10.6548 16.125 11C16.125 11.3452 15.8452 11.625 15.5 11.625H9.5C9.15482 11.625 8.875 11.3452 8.875 11C8.875 10.6548 9.15482 10.375 9.5 10.375H15.5Z" fill="#222222"/>
<path d="M24 20.375C24.3452 20.375 24.625 20.6548 24.625 21C24.625 21.3452 24.3452 21.625 24 21.625H22C21.6548 21.625 21.375 21.3452 21.375 21C21.375 20.6548 21.6548 20.375 22 20.375H24Z" fill="#222222"/>
<path fill-rule="evenodd" clip-rule="evenodd" d="M18 5C19.1046 5 20 5.89543 20 7V16H25L25.2041 16.0107C26.2128 16.113 27 16.9643 27 18V26C27 26.5177 26.6067 26.9438 26.1025 26.9951L26 27H6L5.89746 26.9951C5.39333 26.9438 5 26.5177 5 26V7C5 5.89543 5.89543 5 7 5H18ZM7 6.25C6.58579 6.25 6.25 6.58579 6.25 7V25.75H18.75V7C18.75 6.58579 18.4142 6.25 18 6.25H7ZM20 25.75H25.75V18C25.75 17.5858 25.4142 17.25 25 17.25H20V25.75Z" fill="#222222"/>
</svg>
