<svg width="18" height="18" viewBox="0 0 18 18" fill="none" xmlns="http://www.w3.org/2000/svg">
<g clip-path="url(#clip0_1284_2323)">
<path fill-rule="evenodd" clip-rule="evenodd" d="M14 8C14 11.3137 11.3137 14 8 14C4.68629 14 2 11.3137 2 8C2 4.68629 4.68629 2 8 2C11.3137 2 14 4.68629 14 8ZM12.5836 13.2907C11.3556 14.3556 9.75303 15 8 15C4.13401 15 1 11.866 1 8C1 4.13401 4.13401 1 8 1C11.866 1 15 4.13401 15 8C15 9.75304 14.3556 11.3556 13.2907 12.5836L16.8541 16.147C17.0493 16.3422 17.0493 16.6588 16.8541 16.8541C16.6588 17.0493 16.3422 17.0493 16.147 16.8541L12.5836 13.2907Z" fill="white"/>
</g>
<defs>
<clipPath id="clip0_1284_2323">
<rect width="18" height="18" fill="white"/>
</clipPath>
</defs>
</svg>
