<svg width="24" height="24" viewBox="0 0 24 24" fill="none" xmlns="http://www.w3.org/2000/svg">
<path d="M2 6.8C2 5.11984 2 4.27976 2.32698 3.63803C2.6146 3.07354 3.07354 2.6146 3.63803 2.32698C4.27976 2 5.11984 2 6.8 2H17.2C18.8802 2 19.7202 2 20.362 2.32698C20.9265 2.6146 21.3854 3.07354 21.673 3.63803C22 4.27976 22 5.11984 22 6.8V17.2C22 18.8802 22 19.7202 21.673 20.362C21.3854 20.9265 20.9265 21.3854 20.362 21.673C20.2487 21.7308 20.1292 21.7783 20 21.8174C19.3974 22 18.5835 22 17.2 22H6.8C5.41649 22 4.6026 22 4.00002 21.8174C3.87082 21.7783 3.75133 21.7308 3.63803 21.673C3.07354 21.3854 2.6146 20.9265 2.32698 20.362C2 19.7202 2 18.8802 2 17.2V6.8Z" fill="#333333"/>
<path d="M12 13C13.933 13 15.5 11.433 15.5 9.5C15.5 7.567 13.933 6 12 6C10.067 6 8.5 7.567 8.5 9.5C8.5 11.433 10.067 13 12 13Z" fill="white"/>
<path d="M15 16H8.99998C8.07067 16 7.60601 16 7.21961 16.0769C5.63285 16.3925 4.39246 17.6329 4.07684 19.2196C4.00518 19.5799 4.00033 19.0081 4 19.8174C4.60258 20 5.41647 20 6.79998 20H17.2C18.5835 20 19.3974 20 20 19.8174C19.9996 19.0081 19.9948 19.5799 19.9231 19.2196C19.6075 17.6329 18.3671 16.3925 16.7803 16.0769C16.3939 16 15.9293 16 15 16Z" fill="white"/>
</svg>
