<svg width="24" height="24" viewBox="0 0 24 24" fill="none" xmlns="http://www.w3.org/2000/svg">
<path d="M10 9.00224C10.1762 8.50136 10.524 8.079 10.9817 7.80998C11.4395 7.54095 11.9777 7.4426 12.501 7.53237C13.0243 7.62213 13.499 7.89421 13.8409 8.30041C14.1829 8.70661 14.37 9.22072 14.3692 9.75168C14.3692 11.2506 12.1209 12 12.1209 12M12.1499 15H12.1599M9.9 20.7L11.36 22.4375C11.5771 22.727 11.6857 22.8717 11.8188 22.9235C11.9353 22.9688 12.0647 22.9688 12.1812 22.9235C12.3143 22.8717 12.4229 22.727 12.64 22.4375L14.1 20.7C14.3931 20.3091 14.5397 20.1137 14.7185 19.9645C14.9569 19.7656 15.2383 19.6248 15.5405 19.5535C15.7671 19.5 16.0114 19.5 16.5 19.5C17.8978 19.5 18.5967 19.5 19.1481 19.2716C19.8831 18.9672 20.4672 18.3831 20.7716 17.6481C21 17.0967 21 16.3978 21 15V7.3C21 5.61984 21 4.77976 20.673 4.13803C20.3854 3.57354 19.9265 3.1146 19.362 2.82698C18.7202 2.5 17.8802 2.5 16.2 2.5H7.8C6.11984 2.5 5.27976 2.5 4.63803 2.82698C4.07354 3.1146 3.6146 3.57354 3.32698 4.13803C3 4.77976 3 5.61984 3 7.3V15C3 16.3978 3 17.0967 3.22836 17.6481C3.53284 18.3831 4.11687 18.9672 4.85195 19.2716C5.40326 19.5 6.10218 19.5 7.5 19.5C7.98858 19.5 8.23287 19.5 8.45951 19.5535C8.76169 19.6248 9.04312 19.7656 9.2815 19.9645C9.46028 20.1137 9.60685 20.3091 9.9 20.7Z" stroke="#BBBBBD" stroke-width="2" stroke-linecap="round" stroke-linejoin="round"/>
</svg>
