<svg width="18" height="18" viewBox="0 0 18 18" fill="none" xmlns="http://www.w3.org/2000/svg">
<path d="M9.00616 15.9378C6.88706 15.9378 4.84189 15.1616 3.25257 13.7694C2.05749 12.7345 1.05955 11.5025 0.295688 10.1226C-0.0985626 9.42033 -0.0985626 8.57023 0.295688 7.88029C1.05955 6.50041 2.05749 5.26838 3.25257 4.23347C6.54209 1.33819 11.4702 1.33819 14.7474 4.23347C15.9425 5.26838 16.9405 6.50041 17.7043 7.88029C18.0986 8.58255 18.0986 9.43265 17.7043 10.1226C16.9405 11.5025 15.9425 12.7345 14.7474 13.7694C13.1581 15.1616 11.1129 15.9378 8.99384 15.9378H9.00616ZM9.00616 5.2807C6.96099 5.2807 5.29774 6.94394 5.29774 8.98912C5.29774 11.0343 6.96099 12.6975 9.00616 12.6975C11.0513 12.6975 12.7146 11.0343 12.7146 8.98912C12.7146 6.94394 11.0513 5.29302 9.00616 5.2807Z" fill="#BBBBBD"/>
<path d="M9.0066 10.8379C10.0274 10.8379 10.855 10.0104 10.855 8.98951C10.855 7.96867 10.0274 7.14111 9.0066 7.14111C7.98576 7.14111 7.1582 7.96867 7.1582 8.98951C7.1582 10.0104 7.98576 10.8379 9.0066 10.8379Z" fill="#BBBBBD"/>
</svg>
