<svg width="40" height="40" viewBox="0 0 40 40" fill="none" xmlns="http://www.w3.org/2000/svg">
<g clip-path="url(#clip0_3824_7334)">
<path d="M38.9922 29.6996C39.6633 26.7978 39.6693 23.7818 39.0098 20.8773C38.3504 17.9728 37.0426 15.255 35.1843 12.9275C33.326 10.5999 30.9653 8.72274 28.2789 7.43652C25.5926 6.15031 22.6501 5.48834 19.6717 5.50016C16.6933 5.51197 13.7561 6.19726 11.08 7.50474C8.40395 8.81222 6.05823 10.708 4.21844 13.0503C2.37865 15.3925 1.09244 18.1206 0.45607 21.0302C-0.180301 23.9398 -0.150351 26.9557 0.543679 29.8521L12.5663 26.9713C12.3067 25.888 12.2955 24.76 12.5335 23.6717C12.7715 22.5834 13.2526 21.563 13.9407 20.6869C14.6289 19.8109 15.5062 19.1018 16.5072 18.6127C17.5081 18.1237 18.6067 17.8674 19.7207 17.863C20.8347 17.8586 21.9353 18.1062 22.9401 18.5872C23.9449 19.0683 24.8278 19.7704 25.5229 20.641C26.2179 21.5116 26.7071 22.5281 26.9538 23.6145C27.2004 24.7008 27.1981 25.8289 26.9472 26.9143L38.9922 29.6996Z" fill="#81A9FC"/>
<path d="M38.9922 29.6996C39.9299 25.6446 39.5626 21.3971 37.9427 17.5632C36.3229 13.7294 33.5333 10.5053 29.9721 8.35114C26.4109 6.197 22.2603 5.22293 18.1126 5.56799C13.9649 5.91305 10.0323 7.5596 6.876 10.2726L14.9347 19.648C16.1153 18.6333 17.5862 18.0174 19.1376 17.8883C20.6889 17.7593 22.2414 18.1236 23.5734 18.9293C24.9053 19.735 25.9487 20.941 26.5546 22.3749C27.1605 23.8089 27.2979 25.3976 26.9472 26.9143L38.9922 29.6996Z" fill="#6E95F4"/>
<path d="M38.9922 29.6996C39.8858 25.8354 39.5952 21.7917 38.1583 18.0949C36.7214 14.3981 34.2048 11.2196 30.9361 8.9732L23.9339 19.162C25.1565 20.0022 26.0978 21.1911 26.6353 22.5738C27.1727 23.9565 27.2814 25.469 26.9472 26.9143L38.9922 29.6996Z" fill="#2E59CB"/>
<path fill-rule="evenodd" clip-rule="evenodd" d="M27.6824 13.3369C27.7921 13.2089 27.9977 13.3276 27.9417 13.4866L22.3433 28.5576C22.34 28.5668 22.334 28.581 22.3257 28.5991C22.2627 28.8008 22.1766 28.9986 22.0665 29.1892C21.2621 30.5825 19.4806 31.0598 18.0874 30.2555C16.6941 29.4511 16.2168 27.6696 17.0212 26.2763C17.1315 26.0852 17.2603 25.9113 17.4039 25.7555L27.6824 13.3369ZM18.8534 28.9286C19.5862 29.3516 20.5233 29.1006 20.9464 28.3677C21.3695 27.6349 21.1184 26.6979 20.3856 26.2748C19.6528 25.8517 18.7157 26.1028 18.2926 26.8356C17.8695 27.5684 18.1206 28.5055 18.8534 28.9286Z" fill="#343434"/>
</g>
<defs>
<clipPath id="clip0_3824_7334">
<rect width="40" height="40" fill="white"/>
</clipPath>
</defs>
</svg>
