<svg width="32" height="30" viewBox="0 0 32 30" fill="none" xmlns="http://www.w3.org/2000/svg">
<path d="M27.6715 0H4.3285C1.93794 0 0 1.81682 0 4.05797V25.942C0 28.1832 1.93794 30 4.3285 30H27.6715C30.0621 30 32 28.1832 32 25.942V4.05797C32 1.81682 30.0621 0 27.6715 0Z" fill="#B3CEFB"/>
<path d="M4.3285 0H27.6715C28.8195 0 29.9205 0.421427 30.7322 1.17157C31.544 1.92172 32 2.93913 32 4V8H0V4C0 2.93913 0.456037 1.92172 1.26779 1.17157C2.07954 0.421427 3.18051 0 4.3285 0Z" fill="#659DFC"/>
<path d="M10.5 4H21.5" stroke="white" stroke-width="2" stroke-linecap="round"/>
<path d="M18 14C18 14.3956 17.8827 14.7822 17.6629 15.1111C17.4432 15.44 17.1308 15.6964 16.7654 15.8478C16.3999 15.9991 15.9978 16.0387 15.6098 15.9616C15.2219 15.8844 14.8655 15.6939 14.5858 15.4142C14.3061 15.1345 14.1156 14.7781 14.0384 14.3902C13.9613 14.0022 14.0009 13.6001 14.1522 13.2346C14.3036 12.8692 14.56 12.5568 14.8889 12.3371C15.2178 12.1173 15.6044 12 16 12C16.5304 12 17.0391 12.2107 17.4142 12.5858C17.7893 12.9609 18 13.4696 18 14Z" fill="white"/>
<path d="M9 14C9 14.3956 8.8827 14.7822 8.66294 15.1111C8.44318 15.44 8.13082 15.6964 7.76537 15.8478C7.39991 15.9991 6.99778 16.0387 6.60982 15.9616C6.22186 15.8844 5.86549 15.6939 5.58579 15.4142C5.30608 15.1345 5.1156 14.7781 5.03843 14.3902C4.96126 14.0022 5.00087 13.6001 5.15224 13.2346C5.30362 12.8692 5.55996 12.5568 5.88886 12.3371C6.21776 12.1173 6.60444 12 7 12C7.53043 12 8.03914 12.2107 8.41421 12.5858C8.78929 12.9609 9 13.4696 9 14Z" fill="#4E7AD9"/>
<path d="M27 14C27 14.3956 26.8827 14.7822 26.6629 15.1111C26.4432 15.44 26.1308 15.6964 25.7654 15.8478C25.3999 15.9991 24.9978 16.0387 24.6098 15.9616C24.2219 15.8844 23.8655 15.6939 23.5858 15.4142C23.3061 15.1345 23.1156 14.7781 23.0384 14.3902C22.9613 14.0022 23.0009 13.6001 23.1522 13.2346C23.3036 12.8692 23.56 12.5568 23.8889 12.3371C24.2178 12.1173 24.6044 12 25 12C25.5304 12 26.0391 12.2107 26.4142 12.5858C26.7893 12.9609 27 13.4696 27 14Z" fill="white"/>
<path d="M18 22C18 22.3956 17.8827 22.7822 17.6629 23.1111C17.4432 23.44 17.1308 23.6964 16.7654 23.8478C16.3999 23.9991 15.9978 24.0387 15.6098 23.9616C15.2219 23.8844 14.8655 23.6939 14.5858 23.4142C14.3061 23.1345 14.1156 22.7781 14.0384 22.3902C13.9613 22.0022 14.0009 21.6001 14.1522 21.2346C14.3036 20.8692 14.56 20.5568 14.8889 20.3371C15.2178 20.1173 15.6044 20 16 20C16.5304 20 17.0391 20.2107 17.4142 20.5858C17.7893 20.9609 18 21.4696 18 22Z" fill="#4E7AD9"/>
<path d="M9 22C9 22.3956 8.8827 22.7822 8.66294 23.1111C8.44318 23.44 8.13082 23.6964 7.76537 23.8478C7.39991 23.9991 6.99778 24.0387 6.60982 23.9616C6.22186 23.8844 5.86549 23.6939 5.58579 23.4142C5.30608 23.1345 5.1156 22.7781 5.03843 22.3902C4.96126 22.0022 5.00087 21.6001 5.15224 21.2346C5.30362 20.8692 5.55996 20.5568 5.88886 20.3371C6.21776 20.1173 6.60444 20 7 20C7.53043 20 8.03914 20.2107 8.41421 20.5858C8.78929 20.9609 9 21.4696 9 22Z" fill="white"/>
<path d="M27 22C27 22.3956 26.8827 22.7822 26.6629 23.1111C26.4432 23.44 26.1308 23.6964 25.7654 23.8478C25.3999 23.9991 24.9978 24.0387 24.6098 23.9616C24.2219 23.8844 23.8655 23.6939 23.5858 23.4142C23.3061 23.1345 23.1156 22.7781 23.0384 22.3902C22.9613 22.0022 23.0009 21.6001 23.1522 21.2346C23.3036 20.8692 23.56 20.5568 23.8889 20.3371C24.2178 20.1173 24.6044 20 25 20C25.5304 20 26.0391 20.2107 26.4142 20.5858C26.7893 20.9609 27 21.4696 27 22Z" fill="white"/>
</svg>
