<svg width="33" height="33" viewBox="0 0 33 33" fill="none" xmlns="http://www.w3.org/2000/svg">
<path d="M18.5664 23.2418V28.7028C18.5661 29.8159 18.1446 30.8834 17.3945 31.6705C16.6444 32.4577 15.6272 32.9001 14.5664 32.9004C13.5055 32.9004 12.4881 32.4582 11.738 31.671C10.9878 30.8838 10.5664 29.816 10.5664 28.7028V15.9004" fill="#B3CEFB"/>
<path d="M3.57337 7.11401H10.5671V20.9766H3.57337C2.84201 20.9766 2.14053 20.6899 1.62291 20.1795C1.10529 19.6691 0.81383 18.9766 0.8125 18.2542L0.8125 9.8414C0.8125 9.11805 1.10338 8.42433 1.62114 7.91285C2.1389 7.40136 2.84114 7.11401 3.57337 7.11401Z" fill="#4E7AD9"/>
<path d="M10.5664 20.9779L30.5701 26.4499C30.833 26.5222 31.1092 26.5335 31.3772 26.4828C31.6452 26.4321 31.8976 26.3209 32.1148 26.1577C32.332 25.9945 32.508 25.7838 32.6291 25.5422C32.7502 25.3007 32.813 25.0347 32.8127 24.7651V1.84889C32.8124 1.56957 32.7444 1.29441 32.6144 1.04637C32.4844 0.798336 32.2961 0.584615 32.0654 0.423183C31.8346 0.261751 31.5681 0.15737 31.2881 0.118549C31.0081 0.079727 30.7227 0.10767 30.4559 0.200117L10.5664 7.11529V20.9779Z" fill="#659DFC"/>
</svg>
