<svg width="36" height="36" viewBox="0 0 36 36" fill="none" xmlns="http://www.w3.org/2000/svg">
<rect width="36" height="36" rx="18" fill="#FF7494" fill-opacity="0.1"/>
<path fill-rule="evenodd" clip-rule="evenodd" d="M22.692 9.51978C22.4538 9.63197 22.1401 9.81014 21.6927 10.0647C20.1778 10.9267 18.1336 11.8763 16.413 11.8763H16.2191V19.4959H16.413C18.1336 19.4959 20.1778 20.4455 21.6927 21.3075C22.1401 21.5621 22.4538 21.7402 22.692 21.8524C22.9445 21.9713 23.0301 21.9738 23.0457 21.9718C23.1937 21.9529 23.288 21.8944 23.3747 21.7679C23.3858 21.7517 23.4233 21.6753 23.4437 21.4072C23.4632 21.1513 23.4635 20.802 23.4635 20.2998V11.0724C23.4635 10.5702 23.4632 10.2209 23.4437 9.96498C23.4233 9.69688 23.3858 9.6205 23.3747 9.60434C23.288 9.47776 23.1937 9.4193 23.0457 9.40038C23.0301 9.39839 22.9445 9.40085 22.692 9.51978ZM24.3259 11.9493V11.0519C24.3259 10.575 24.3259 10.1896 24.3034 9.89368C24.2815 9.60573 24.2344 9.31145 24.0761 9.08056C23.8489 8.74898 23.5382 8.55639 23.1505 8.50682C22.8772 8.47189 22.598 8.57643 22.3373 8.69921C22.0658 8.82706 21.7235 9.02188 21.2966 9.26478L21.2799 9.27428C19.7712 10.1328 17.8962 10.976 16.413 10.976H13.0122C10.5202 10.976 8.5 13.0848 8.5 15.6861C8.5 17.2312 9.21276 18.6026 10.3138 19.4615C10.3129 19.5011 10.317 19.5416 10.3266 19.5819L11.7594 25.5642C11.795 25.7129 11.8191 25.8135 11.8486 25.9045C12.1358 26.7897 12.8995 27.4121 13.7919 27.4883C13.8733 27.4952 13.9609 27.496 14.0825 27.4961C14.0825 27.4961 14.0826 27.4961 14.0825 27.4961C14.0953 27.4977 14.1059 27.4985 14.1114 27.4988C14.1134 27.4989 14.1154 27.499 14.1173 27.4991C14.1212 27.4993 14.1246 27.4995 14.1274 27.4996C14.1357 27.4999 14.1436 27.5 14.1499 27.5L14.1693 27.5C14.1817 27.4998 14.1947 27.4996 14.2066 27.4992C14.2175 27.4989 14.2313 27.4984 14.244 27.4976L14.2573 27.4965L14.2673 27.4956C14.2711 27.4951 14.2766 27.4945 14.2833 27.4935L14.2961 27.4915C14.301 27.4906 14.3078 27.4893 14.316 27.4874C14.3235 27.4857 14.336 27.4827 14.3512 27.4778C14.359 27.4753 14.3694 27.4717 14.3814 27.4668C14.3824 27.4664 14.3835 27.466 14.3846 27.4655C15.3602 27.2768 16.1113 26.4348 16.2086 25.3877C16.2191 25.2745 16.2191 25.1459 16.2191 24.9545L16.2191 20.3962H16.413C17.8962 20.3962 19.7712 21.2394 21.2799 22.0979L21.2966 22.1074C21.7234 22.3503 22.0658 22.5451 22.3373 22.673C22.598 22.7958 22.8772 22.9003 23.1505 22.8654C23.5382 22.8158 23.8489 22.6232 24.0761 22.2916C24.2344 22.0607 24.2815 21.7665 24.3034 21.4785C24.3259 21.1826 24.3259 20.7972 24.3259 20.3202V19.4229C26.1138 19.2004 27.5 17.6123 27.5 15.6861C27.5 13.7599 26.1138 12.1718 24.3259 11.9493ZM24.3259 12.8581V18.5141C25.6359 18.2982 26.6376 17.1142 26.6376 15.6861C26.6376 14.258 25.6359 13.074 24.3259 12.8581ZM15.3567 19.4959V11.8763H13.0122C10.9965 11.8763 9.36241 13.582 9.36241 15.6861C9.36241 17.7902 10.9965 19.4959 13.0122 19.4959H15.3567ZM15.3567 20.3962V24.9284C15.3567 25.1554 15.3562 25.2368 15.3502 25.3008C15.287 25.981 14.7758 26.5206 14.127 26.5958C13.9703 26.5958 13.9118 26.5953 13.8622 26.591C13.3126 26.5441 12.8423 26.1608 12.6654 25.6157C12.6487 25.5641 12.6334 25.5018 12.5913 25.3261L11.3296 20.0578C11.8495 20.276 12.4174 20.3962 13.0122 20.3962H15.3567Z" fill="#FF8AA5"/>
</svg>
