<svg width="18" height="19" viewBox="0 0 18 19" fill="none" xmlns="http://www.w3.org/2000/svg">
<path d="M2.01043 17.7337C2.2407 17.7337 2.45258 17.6545 2.64019 17.4981L5.63795 15H15C16.1028 15 17 14.1028 17 13V3C17 1.8972 16.1028 1 15 1H3C1.8972 1 1 1.8972 1 3V16.7299C1 17.3583 1.51375 17.7337 2.01043 17.7337ZM2.01043 18.7337C0.977364 18.7337 0 17.9219 0 16.7299V3C0 1.34314 1.34315 0 3 0H15C16.6569 0 18 1.34314 18 3V13C18 14.6568 16.6569 16 15 16H6L3.28037 18.2664C2.8934 18.5888 2.44699 18.7337 2.01043 18.7337Z" fill="#111111"/>
<path fill-rule="evenodd" clip-rule="evenodd" d="M8.1 12.5037C8.1 12.0895 8.43579 11.7537 8.85 11.7537H8.86C9.27421 11.7537 9.61 12.0895 9.61 12.5037C9.61 12.9179 9.27421 13.2537 8.86 13.2537H8.85C8.43579 13.2537 8.1 12.9179 8.1 12.5037Z" fill="#3B5DFB"/>
<path fill-rule="evenodd" clip-rule="evenodd" d="M8.82095 4.40496C8.62463 4.39432 8.42827 4.42515 8.24465 4.49545C8.06104 4.56575 7.89429 4.67393 7.75527 4.81296C7.61624 4.95198 7.50806 5.11873 7.43776 5.30234C7.36747 5.48596 7.33663 5.68232 7.34727 5.87864C7.36221 6.15438 7.15079 6.39002 6.87505 6.40496C6.59931 6.41989 6.36367 6.20847 6.34873 5.93274C6.3305 5.59618 6.38336 5.25956 6.50387 4.9448C6.62438 4.63003 6.80983 4.34418 7.04816 4.10585C7.28649 3.86752 7.57234 3.68206 7.88711 3.56156C8.19486 3.44373 8.52351 3.39058 8.85255 3.40531C9.17884 3.39662 9.50362 3.45371 9.80751 3.57325C10.1184 3.69554 10.4007 3.88055 10.6369 4.11676C10.8731 4.35297 11.0582 4.63531 11.1804 4.94618C11.3027 5.25704 11.3597 5.58977 11.3477 5.92361C11.3473 5.93305 11.3467 5.94249 11.3459 5.9519C11.307 6.37082 11.1821 6.77723 10.9792 7.14575C10.7762 7.51427 10.4994 7.83699 10.1662 8.09376C10.1444 8.11055 10.1212 8.12552 10.097 8.1385C9.84235 8.2748 9.63453 8.48442 9.50041 8.74019C9.3663 8.99597 9.31209 9.28613 9.34478 9.57308C9.37605 9.84744 9.17898 10.0952 8.90461 10.1265C8.63024 10.1577 8.38248 9.96066 8.35122 9.6863C8.29584 9.20036 8.38766 8.70898 8.61477 8.27583C8.83477 7.85624 9.17191 7.51001 9.58474 7.27893C9.79626 7.10987 9.97249 6.9007 10.1032 6.6633C10.2376 6.4194 10.3211 6.15085 10.3488 5.87388C10.3538 5.68198 10.3202 5.49098 10.2498 5.31224C10.1778 5.1292 10.0689 4.96295 9.92982 4.82387C9.79073 4.68478 9.62449 4.57584 9.44144 4.50384C9.2584 4.43184 9.06249 4.39832 8.86592 4.40537C8.85093 4.4059 8.83593 4.40577 8.82095 4.40496Z" fill="#3B5DFB"/>
</svg>
