<svg width="28" height="28" viewBox="0 0 28 28" fill="none" xmlns="http://www.w3.org/2000/svg">
<path fill-rule="evenodd" clip-rule="evenodd" d="M5.70376 5.18604H22.2957C23.5649 5.18604 24.6117 6.35513 24.6117 7.77266V18.2507C24.6117 19.6682 23.5649 20.8373 22.2957 20.8373H15.7531C15.7531 20.8373 14.3923 24.6807 13.9343 24.6807C13.4763 24.6807 12.2201 20.8373 12.2201 20.8373H5.70376C4.4345 20.8373 3.3877 19.6682 3.3877 18.2507V7.77266C3.3877 6.35513 4.4345 5.18604 5.70376 5.18604ZM8.16376 15.4449C8.71333 15.4449 9.22365 15.2695 9.55078 14.8603C9.89099 14.4511 10.048 14.0566 10.048 13.3697C10.048 12.7413 9.83865 12.1714 9.56387 11.806C9.27599 11.4407 8.80493 11.1338 8.36004 11.1484C7.83663 11.1777 7.39174 11.2799 7.05153 11.6014H7.02535V9.27787H5.78227V15.3426H7.02535V15.0503H7.03844C7.30014 15.2841 7.66652 15.4449 8.16376 15.4449ZM10.964 15.401H12.2332V11.6891C12.1285 9.27787 10.349 9.16096 10.349 9.16096V10.6662C10.349 10.6662 10.964 10.7831 10.964 11.6453V15.401ZM16.7476 14.9772C16.957 14.758 17.114 14.5242 17.2187 14.2465C17.3233 13.9689 17.3757 13.6912 17.3757 13.3843C17.3757 13.0774 17.3233 12.7998 17.2187 12.5221C17.1009 12.2445 16.957 12.0106 16.7476 11.7914C16.5513 11.5868 16.3158 11.4261 16.0541 11.3092C15.7924 11.1923 15.5176 11.1338 15.2297 11.1338C14.9549 11.1338 14.6801 11.1923 14.4184 11.3092C14.1567 11.4261 13.9343 11.5868 13.7249 11.7914C13.5156 12.0106 13.3585 12.2591 13.2539 12.5221C13.1492 12.7998 13.0968 13.0774 13.0968 13.3843C13.0968 13.6912 13.1492 13.9835 13.2539 14.2465C13.3585 14.5096 13.5156 14.758 13.7249 14.9772C13.9212 15.1818 14.1567 15.3426 14.4184 15.4595C14.6671 15.5764 14.9418 15.6348 15.2297 15.6348C15.5176 15.6348 15.7924 15.5764 16.0541 15.4595C16.3158 15.3426 16.5513 15.1818 16.7476 14.9772ZM21.6152 17.0085C22.034 16.5555 22.2172 15.9125 22.2172 14.8457H22.2302V11.1777H20.9872V11.5138H20.9741C20.6731 11.2069 20.3591 11.0754 19.8749 11.0754C19.3254 11.0754 18.8543 11.2799 18.5141 11.7184C18.187 12.1568 18.0168 12.7413 18.0168 13.4866C18.0168 14.1442 18.1608 14.6703 18.4617 15.0649C18.7627 15.4595 19.2076 15.6641 19.7179 15.6641C20.2806 15.6641 20.6862 15.5033 20.9741 15.0649H20.9872V15.3426C20.9872 16.0732 20.2937 16.4532 19.7833 16.3947V17.4908C20.3853 17.5785 21.1049 17.5492 21.6152 17.0085ZM14.6155 12.6822C14.7725 12.4922 14.9818 12.3899 15.2174 12.3899C15.466 12.3899 15.6754 12.4776 15.8324 12.6822C16.0025 12.8867 16.0941 13.106 16.0941 13.3836C16.0941 13.6613 16.0025 13.8951 15.8324 14.0851C15.6623 14.275 15.4529 14.3773 15.2174 14.3773C14.9818 14.3773 14.7856 14.275 14.6155 14.0851C14.4454 13.8805 14.3668 13.6613 14.3668 13.3836C14.3668 13.106 14.4454 12.8721 14.6155 12.6822ZM7.27498 12.6963C7.432 12.5063 7.64137 12.404 7.8769 12.404C8.12551 12.404 8.32179 12.4917 8.4919 12.6963C8.662 12.8863 8.7536 13.1201 8.7536 13.3977C8.7536 13.6754 8.662 13.9092 8.4919 14.0992C8.32179 14.2892 8.11243 14.3915 7.8769 14.3915C7.64137 14.3915 7.44509 14.2892 7.27498 14.0992C7.10488 13.8946 7.02637 13.6754 7.02637 13.3977C7.02637 13.1201 7.10488 12.8863 7.27498 12.6963ZM20.1227 12.4042C19.8871 12.4042 19.6778 12.5065 19.5208 12.6964C19.3506 12.8864 19.2721 13.1202 19.2721 13.3979C19.2721 13.6756 19.3506 13.8948 19.5208 14.0994C19.6909 14.2893 19.8871 14.3916 20.1227 14.3916C20.3582 14.3916 20.5676 14.2893 20.7377 14.0994C20.9078 13.9094 20.9994 13.6756 20.9994 13.3979C20.9994 13.1202 20.9078 12.8864 20.7377 12.6964C20.5676 12.4918 20.3582 12.4042 20.1227 12.4042Z" fill="#ACACAC"/>
</svg>
