<svg width="19" height="20" viewBox="0 0 19 20" fill="none" xmlns="http://www.w3.org/2000/svg">
<path fill-rule="evenodd" clip-rule="evenodd" d="M4.5 14.4999C4.5 13.9476 4.94772 13.4999 5.5 13.4999H8.5C9.05229 13.4999 9.5 13.9476 9.5 14.4999V18.4999C9.5 19.0522 9.05229 19.4999 8.5 19.4999H5.5C4.94772 19.4999 4.5 19.0522 4.5 18.4999V14.4999ZM8.5 14.4999H5.5V18.4999H8.5V14.4999Z" fill="#111111"/>
<path fill-rule="evenodd" clip-rule="evenodd" d="M12 8.49987C11.8674 8.49987 11.7402 8.55255 11.6464 8.64632C11.5527 8.74009 11.5 8.86726 11.5 8.99987V18.4999H17C17.1326 18.4999 17.2598 18.4472 17.3536 18.3534C17.4473 18.2597 17.5 18.1325 17.5 17.9999V8.99987C17.5 8.86726 17.4473 8.74009 17.3536 8.64632C17.2598 8.55255 17.1326 8.49987 17 8.49987H12ZM10.9393 7.93921C11.2206 7.65791 11.6022 7.49987 12 7.49987H17C17.3978 7.49987 17.7794 7.65791 18.0607 7.93921C18.342 8.22051 18.5 8.60205 18.5 8.99987V17.9999C18.5 18.3977 18.342 18.7792 18.0607 19.0605C17.7794 19.3418 17.3978 19.4999 17 19.4999H10.5V8.99987C10.5 8.60205 10.658 8.22051 10.9393 7.93921Z" fill="#111111"/>
<path fill-rule="evenodd" clip-rule="evenodd" d="M2.5 1.50488C2.23477 1.50488 1.98041 1.61024 1.79288 1.79777C1.60536 1.9853 1.5 2.23966 1.5 2.50488V17.5049C1.5 17.7701 1.60536 18.0245 1.79288 18.212C1.98041 18.3995 2.23477 18.5049 2.5 18.5049H13V19.5049H2.5C1.96958 19.5049 1.46086 19.2942 1.08578 18.9191C0.710697 18.544 0.5 18.0353 0.5 17.5049V2.50488C0.5 1.97446 0.710697 1.46574 1.08578 1.09066C1.46086 0.71558 1.96958 0.504883 2.5 0.504883H11.508C12.0384 0.504883 12.5471 0.71558 12.9222 1.09066C13.2973 1.46574 13.508 1.97446 13.508 2.50488V8.50488H12.508V2.50488C12.508 2.23966 12.4026 1.9853 12.2151 1.79777C12.0276 1.61024 11.7732 1.50488 11.508 1.50488H2.5Z" fill="#111111"/>
<path fill-rule="evenodd" clip-rule="evenodd" d="M4.5 5.99976C4.5 5.72361 4.72386 5.49976 5 5.49976H9C9.27614 5.49976 9.5 5.72361 9.5 5.99976C9.5 6.2759 9.27614 6.49976 9 6.49976H5C4.72386 6.49976 4.5 6.2759 4.5 5.99976Z" fill="#3B5DFB"/>
<path fill-rule="evenodd" clip-rule="evenodd" d="M4.5 8.99976C4.5 8.72361 4.72386 8.49976 5 8.49976H9C9.27614 8.49976 9.5 8.72361 9.5 8.99976C9.5 9.2759 9.27614 9.49976 9 9.49976H5C4.72386 9.49976 4.5 9.2759 4.5 8.99976Z" fill="#3B5DFB"/>
<path d="M15 10.4998H14C13.7239 10.4998 13.5 10.7236 13.5 10.9998V11.9998C13.5 12.2759 13.7239 12.4998 14 12.4998H15C15.2761 12.4998 15.5 12.2759 15.5 11.9998V10.9998C15.5 10.7236 15.2761 10.4998 15 10.4998Z" fill="#3B5DFB"/>
<path d="M15 13.4998H14C13.7239 13.4998 13.5 13.7236 13.5 13.9998V14.9998C13.5 15.2759 13.7239 15.4998 14 15.4998H15C15.2761 15.4998 15.5 15.2759 15.5 14.9998V13.9998C15.5 13.7236 15.2761 13.4998 15 13.4998Z" fill="#3B5DFB"/>
</svg>
