<svg width="104" height="109" viewBox="0 0 104 109" fill="none" xmlns="http://www.w3.org/2000/svg">
<rect x="13.7847" y="19.6123" width="76.5" height="57.8" fill="#FBE94E"/>
<path d="M51.854 0C23.2165 0 0 21.3249 0 47.6315C0 67.0563 8.18992 76.3324 19.4132 84.7897L19.4676 84.8129V107.613C19.4676 108.687 20.7043 109.304 21.5754 108.663L41.2374 94.1585L41.6574 94.3438C44.9551 94.9463 48.3618 95.2629 51.8462 95.2629C80.4837 95.2629 103.7 73.9381 103.7 47.6315C103.7 21.3249 80.4915 0 51.854 0ZM34.4708 59.6957C39.5574 59.6957 43.9052 56.6758 45.2118 52.003H52.7329C50.8973 60.9856 43.8507 66.8787 34.4786 66.8787C23.582 66.8787 14.941 58.8075 14.941 47.5774C14.941 36.3473 23.582 28.2761 34.4786 28.2761C43.9518 28.2761 51.0373 34.2851 52.7873 43.4221H45.2896C44.1463 38.4558 39.6508 35.3587 34.4786 35.3587C27.152 35.3587 22.2754 40.5489 22.2754 47.5851C22.2754 54.6213 27.8209 59.7112 34.4786 59.7112M84.007 66.1372H77.116V50.7055C77.116 47.1526 75.0315 45.2449 71.8271 45.2449C68.2494 45.2449 65.955 47.4152 65.955 51.8177V66.1372H59.0639V28.392H65.955V42.588C67.6116 40.0932 70.2794 38.8729 73.9115 38.8729C76.8515 38.8729 79.2548 39.8306 81.1215 41.7924C83.0426 43.7542 84.007 46.4034 84.007 49.8559V66.1372Z" fill="#231916"/>
</svg>
