<svg width="17" height="23" viewBox="0 0 17 23" fill="none" xmlns="http://www.w3.org/2000/svg">
<path opacity="0.5" d="M6.08698 23H2.00098C1.47054 23 0.961836 22.7893 0.586763 22.4142C0.21169 22.0391 0.000976563 21.5304 0.000976562 21V2C0.000976563 1.46957 0.21169 0.960859 0.586763 0.585786C0.961836 0.210714 1.47054 0 2.00098 0L15.001 0C15.5314 0 16.0401 0.210714 16.4152 0.585786C16.7903 0.960859 17.001 1.46957 17.001 2V21C17.001 21.5304 16.7903 22.0391 16.4152 22.4142C16.0401 22.7893 15.5314 23 15.001 23H10.914V18.47C10.914 18.2048 10.8086 17.9504 10.6211 17.7629C10.4335 17.5754 10.1792 17.47 9.91398 17.47H7.08698C6.82176 17.47 6.56741 17.5754 6.37987 17.7629C6.19233 17.9504 6.08698 18.2048 6.08698 18.47V23ZM10.001 10V13H13.001V10H10.001ZM4.00098 10V13H7.00098V10H4.00098ZM10.001 4V7H13.001V4H10.001ZM4.00098 4V7H7.00098V4H4.00098Z" fill="#18ADC4"/>
</svg>
