<svg width="51" height="52" viewBox="0 0 51 52" fill="none" xmlns="http://www.w3.org/2000/svg">
<path d="M38.6436 49.0601C38.6382 48.5211 38.7931 47.9927 39.0886 47.5419C39.3841 47.0912 39.8068 46.7383 40.3031 46.5282C40.7995 46.3181 41.3471 46.2602 41.8764 46.3619C42.4057 46.4635 42.8929 46.7201 43.2761 47.0991C43.6593 47.4781 43.9213 47.9624 44.0288 48.4906C44.1363 49.0187 44.0844 49.5669 43.8799 50.0655C43.6753 50.5642 43.3271 50.9908 42.8797 51.2913C42.4322 51.5917 41.9056 51.7524 41.3666 51.7531C40.6487 51.756 39.9589 51.4742 39.4485 50.9693C38.938 50.4645 38.6486 49.7779 38.6436 49.0601ZM9.39957 45.5401L4.48957 50.4031L0.55957 46.5131L5.46957 41.6471L0.55957 36.7841L4.48657 32.8921L9.39657 37.7551L14.3096 32.8921L18.2406 36.7841L13.3296 41.6471L18.2436 46.5131L16.2796 48.4601L14.3116 50.4051L9.39957 45.5401ZM31.8426 43.6691V38.2821H50.8856V43.6691H31.8426ZM38.6426 32.8911C38.6386 32.3524 38.7947 31.8247 39.091 31.3748C39.3873 30.925 39.8106 30.5732 40.307 30.3642C40.8035 30.1552 41.3509 30.0983 41.8797 30.2007C42.4086 30.3031 42.8951 30.5603 43.2777 30.9396C43.6602 31.3189 43.9215 31.8032 44.0284 32.3312C44.1353 32.8591 44.083 33.407 43.8782 33.9052C43.6734 34.4034 43.3253 34.8296 42.878 35.1298C42.4306 35.4299 41.9043 35.5904 41.3656 35.5911C41.0095 35.5928 40.6566 35.5243 40.327 35.3895C39.9974 35.2546 39.6976 35.0562 39.4448 34.8054C39.192 34.5546 38.9911 34.2565 38.8536 33.928C38.7161 33.5995 38.6437 33.2472 38.6426 32.8911ZM7.35957 19.4201V12.6821H0.55957V7.29506H7.35957V0.560059H12.7996V7.29506H19.5996V12.6821H12.7996V19.4201H7.35957ZM31.8406 12.6851V7.29506H50.8856V12.6851H31.8406Z" fill="#D6E1F9"/>
</svg>
