<svg width="14" height="14" viewBox="0 0 14 14" fill="none" xmlns="http://www.w3.org/2000/svg">
<path d="M11.9715 6.96993C12.003 6.64838 11.7381 6.38584 11.415 6.38584C11.0919 6.38584 10.8337 6.64871 10.7946 6.96943C10.702 7.73065 10.429 8.46185 9.9948 9.10071C9.45059 9.90149 8.67827 10.5202 7.77805 10.8767C6.87783 11.2331 5.89127 11.3107 4.94637 11.0995C4.00148 10.8883 3.14187 10.398 2.47909 9.69221C1.8163 8.98641 1.38093 8.09771 1.22947 7.14142C1.07801 6.18513 1.21745 5.20539 1.62969 4.32933C2.04193 3.45327 2.70795 2.72132 3.54133 2.22846C4.2062 1.83526 4.95309 1.60872 5.71862 1.56404C6.04116 1.54522 6.31973 1.30398 6.34001 0.981529C6.3603 0.65908 6.11491 0.378247 5.79202 0.389445C4.79171 0.424136 3.81261 0.708738 2.94576 1.22139C1.9105 1.83364 1.08315 2.74289 0.571042 3.83117C0.0589378 4.91945 -0.114277 6.13651 0.0738744 7.32445C0.262025 8.51239 0.802856 9.61636 1.62619 10.4931C2.44953 11.3699 3.51736 11.979 4.69114 12.2413C5.86493 12.5037 7.09047 12.4073 8.20875 11.9645C8.77838 11.739 9.30678 11.4289 9.77751 11.0474L12.0329 13.3029C12.277 13.5469 12.6727 13.5469 12.9168 13.3029C13.1609 13.0588 13.1609 12.6631 12.9168 12.419L10.6614 10.1636C10.7671 10.0331 10.8676 9.89797 10.9625 9.75834C11.5286 8.92539 11.8741 7.96609 11.9715 6.96993Z" fill="#1B1B1B"/>
<path d="M9.34222 0.25969C9.50382 -0.0865635 9.99618 -0.0865631 10.1578 0.25969L10.7149 1.45353C10.7596 1.54931 10.8366 1.6263 10.9324 1.671L12.1263 2.22817C12.4725 2.38977 12.4725 2.88213 12.1263 3.04372L10.9324 3.60089C10.8366 3.64559 10.7596 3.72258 10.7149 3.81836L10.1578 5.01221C9.99618 5.35846 9.50382 5.35846 9.34222 5.0122L8.78505 3.81836C8.74035 3.72258 8.66337 3.64559 8.56759 3.60089L7.37374 3.04372C7.02749 2.88213 7.02749 2.38977 7.37374 2.22817L8.56759 1.671C8.66337 1.6263 8.74035 1.54931 8.78505 1.45353L9.34222 0.25969Z" fill="url(#paint0_linear_13063_4798)"/>
<defs>
<linearGradient id="paint0_linear_13063_4798" x1="5.29412" y1="-0.614014" x2="14.1141" y2="-0.551821" gradientUnits="userSpaceOnUse">
<stop stop-color="#422BF5"/>
<stop offset="0.5" stop-color="#B557F6"/>
<stop offset="1" stop-color="#6EDCFF"/>
</linearGradient>
</defs>
</svg>
