<svg width="48" height="48" viewBox="0 0 48 48" fill="none" xmlns="http://www.w3.org/2000/svg">
<g clip-path="url(#clip0_12945_8937)">
<path d="M0 12C0 5.37258 5.37258 0 12 0H36C42.6274 0 48 5.37258 48 12V36C48 42.6274 42.6274 48 36 48H12C5.37258 48 0 42.6274 0 36V12Z" fill="white"/>
<g clip-path="url(#clip1_12945_8937)">
<path d="M18 11C19.6329 11 20.5988 11.6669 21.7148 13H34C35.6569 13 37 14.3431 37 16V30C37 31.6569 35.6569 33 34 33H14C13.9483 33 13.8968 32.9987 13.8457 32.9961C12.2606 32.9158 11 31.6051 11 30V13C11 11.8954 11.8954 11 13 11H18Z" fill="#D18400"/>
<path d="M35 16C36.7438 16.0002 38.1198 17.4825 37.9912 19.2217L36.9727 33L36.9688 33.1543C36.8894 34.7202 35.6097 35.968 34.0312 35.998L34.0293 36H13.9434L13.9414 35.998C12.3631 35.9678 11.0832 34.7201 11.0039 33.1543L11 33L9.98145 19.2217C9.85287 17.4825 11.2288 16.0002 12.9727 16H35Z" fill="url(#paint0_linear_12945_8937)"/>
<path d="M15 22H19" stroke="white" stroke-width="1.5" stroke-linecap="round"/>
</g>
<g clip-path="url(#clip2_12945_8937)">
<g clip-path="url(#clip3_12945_8937)">
<g clip-path="url(#clip4_12945_8937)">
<g filter="url(#filter0_di_12945_8937)">
<rect x="26" y="26" width="14" height="14" rx="7" fill="url(#paint1_linear_12945_8937)"/>
</g>
<path d="M36 33L30 33M30 33L32.25 30.5M30 33L32.25 35.5" stroke="white" stroke-width="1.5" stroke-linecap="round" stroke-linejoin="round"/>
</g>
</g>
</g>
</g>
<defs>
<filter id="filter0_di_12945_8937" x="24.5" y="25" width="16" height="16" filterUnits="userSpaceOnUse" color-interpolation-filters="sRGB">
<feFlood flood-opacity="0" result="BackgroundImageFix"/>
<feColorMatrix in="SourceAlpha" type="matrix" values="0 0 0 0 0 0 0 0 0 0 0 0 0 0 0 0 0 0 127 0" result="hardAlpha"/>
<feOffset dx="-0.5"/>
<feGaussianBlur stdDeviation="0.5"/>
<feComposite in2="hardAlpha" operator="out"/>
<feColorMatrix type="matrix" values="0 0 0 0 0.0784314 0 0 0 0 0.168627 0 0 0 0 0.313726 0 0 0 0.16 0"/>
<feBlend mode="normal" in2="BackgroundImageFix" result="effect1_dropShadow_12945_8937"/>
<feBlend mode="normal" in="SourceGraphic" in2="effect1_dropShadow_12945_8937" result="shape"/>
<feColorMatrix in="SourceAlpha" type="matrix" values="0 0 0 0 0 0 0 0 0 0 0 0 0 0 0 0 0 0 127 0" result="hardAlpha"/>
<feOffset dx="0.2" dy="0.2"/>
<feGaussianBlur stdDeviation="0.5"/>
<feComposite in2="hardAlpha" operator="arithmetic" k2="-1" k3="1"/>
<feColorMatrix type="matrix" values="0 0 0 0 1 0 0 0 0 1 0 0 0 0 1 0 0 0 0.5 0"/>
<feBlend mode="normal" in2="shape" result="effect2_innerShadow_12945_8937"/>
</filter>
<linearGradient id="paint0_linear_12945_8937" x1="16.9795" y1="17" x2="24.1749" y2="36.0464" gradientUnits="userSpaceOnUse">
<stop stop-color="#FADE68"/>
<stop offset="1" stop-color="#FBBB29"/>
</linearGradient>
<linearGradient id="paint1_linear_12945_8937" x1="29" y1="26.5" x2="37" y2="40" gradientUnits="userSpaceOnUse">
<stop stop-color="#C6CBE3"/>
<stop offset="1" stop-color="#888FC2"/>
</linearGradient>
<clipPath id="clip0_12945_8937">
<path d="M0 12C0 5.37258 5.37258 0 12 0H36C42.6274 0 48 5.37258 48 12V36C48 42.6274 42.6274 48 36 48H12C5.37258 48 0 42.6274 0 36V12Z" fill="white"/>
</clipPath>
<clipPath id="clip1_12945_8937">
<rect width="32" height="32" fill="white" transform="translate(8 8)"/>
</clipPath>
<clipPath id="clip2_12945_8937">
<rect width="16" height="16" fill="white" transform="translate(25 25)"/>
</clipPath>
<clipPath id="clip3_12945_8937">
<rect width="16" height="16" fill="white" transform="translate(25 25)"/>
</clipPath>
<clipPath id="clip4_12945_8937">
<rect width="16" height="16" fill="white" transform="translate(25 25)"/>
</clipPath>
</defs>
</svg>
