<svg width="48" height="48" viewBox="0 0 48 48" fill="none" xmlns="http://www.w3.org/2000/svg">
<g clip-path="url(#clip0_12945_6171)">
<path d="M0 12C0 5.37258 5.37258 0 12 0H36C42.6274 0 48 5.37258 48 12V36C48 42.6274 42.6274 48 36 48H12C5.37258 48 0 42.6274 0 36V12Z" fill="white"/>
<g clip-path="url(#clip1_12945_6171)">
<g clip-path="url(#clip2_12945_6171)">
<path d="M23 19H33C34.6569 19 36 20.3431 36 22V35C36 36.1046 35.1046 37 34 37H26C24.3431 37 23 35.6569 23 34V19Z" fill="url(#paint0_linear_12945_6171)"/>
<rect x="12" y="11" width="17" height="26" rx="3" fill="url(#paint1_linear_12945_6171)"/>
<g filter="url(#filter0_i_12945_6171)">
<path d="M18.5 29H22.5C22.7652 29 23.0196 29.1054 23.2071 29.2929C23.3946 29.4804 23.5 29.7348 23.5 30V37H17.5V30C17.5 29.7348 17.6054 29.4804 17.7929 29.2929C17.9804 29.1054 18.2348 29 18.5 29Z" fill="#24A4B5"/>
</g>
<path d="M31.5039 30.0029C31.3713 30.0029 31.2441 29.9503 31.1504 29.8565C31.0566 29.7627 31.0039 29.6355 31.0039 29.5029V28.5029C31.0039 28.3703 31.0566 28.2431 31.1504 28.1494C31.2441 28.0556 31.3713 28.0029 31.5039 28.0029H32.5039C32.6365 28.0029 32.7637 28.0556 32.8575 28.1494C32.9512 28.2431 33.0039 28.3703 33.0039 28.5029V29.5029C33.0039 29.6355 32.9512 29.7627 32.8575 29.8565C32.7637 29.9503 32.6365 30.0029 32.5039 30.0029H31.5039ZM31.5039 26.0029C31.3713 26.0029 31.2441 25.9503 31.1504 25.8565C31.0566 25.7627 31.0039 25.6355 31.0039 25.5029V24.5029C31.0039 24.3703 31.0566 24.2431 31.1504 24.1494C31.2441 24.0556 31.3713 24.0029 31.5039 24.0029H32.5039C32.6365 24.0029 32.7637 24.0556 32.8575 24.1494C32.9512 24.2431 33.0039 24.3703 33.0039 24.5029V25.5029C33.0039 25.6355 32.9512 25.7627 32.8575 25.8565C32.7637 25.9503 32.6365 26.0029 32.5039 26.0029H31.5039Z" fill="white" fill-opacity="0.7"/>
<path d="M17 17.75C17 17.3358 17.3358 17 17.75 17H23.25C23.6642 17 24 17.3358 24 17.75C24 18.1642 23.6642 18.5 23.25 18.5H17.75C17.3358 18.5 17 18.1642 17 17.75Z" fill="white"/>
<path d="M17 20.75C17 20.3358 17.3358 20 17.75 20H23.25C23.6642 20 24 20.3358 24 20.75C24 21.1642 23.6642 21.5 23.25 21.5H17.75C17.3358 21.5 17 21.1642 17 20.75Z" fill="white"/>
<path d="M17.75 23C17.3358 23 17 23.3358 17 23.75C17 24.1642 17.3358 24.5 17.75 24.5H23.25C23.6642 24.5 24 24.1642 24 23.75C24 23.3358 23.6642 23 23.25 23H17.75Z" fill="white"/>
</g>
</g>
<g clip-path="url(#clip3_12945_6171)">
<g filter="url(#filter1_d_12945_6171)">
<path d="M26 33C26 29.134 29.134 26 33 26C36.866 26 40 29.134 40 33C40 36.866 36.866 40 33 40C29.134 40 26 36.866 26 33Z" fill="url(#paint2_linear_12945_6171)"/>
</g>
<path d="M36.7502 30.375C37.0954 30.375 37.3752 30.6548 37.3752 31V33.5C37.3752 33.8452 37.0954 34.125 36.7502 34.125C36.405 34.125 36.1252 33.8452 36.1252 33.5V32.5059L33.7277 34.7588C33.6053 34.8737 33.4414 34.9348 33.2736 34.9277C33.1059 34.9206 32.9475 34.8465 32.8352 34.7217L31.4758 33.2109L29.4426 35.2451C29.1985 35.4892 28.8019 35.4892 28.5578 35.2451C28.314 35.0011 28.3141 34.6054 28.5578 34.3613L31.0578 31.8613L31.1564 31.7803C31.2623 31.7107 31.3882 31.6753 31.5168 31.6787C31.6881 31.6833 31.8504 31.7574 31.965 31.8848L33.3371 33.4102L35.2385 31.625H34.2502C33.905 31.625 33.6252 31.3452 33.6252 31C33.6252 30.6548 33.905 30.375 34.2502 30.375H36.7502Z" fill="white"/>
</g>
</g>
<defs>
<filter id="filter0_i_12945_6171" x="17.5" y="29" width="6.2" height="8.2" filterUnits="userSpaceOnUse" color-interpolation-filters="sRGB">
<feFlood flood-opacity="0" result="BackgroundImageFix"/>
<feBlend mode="normal" in="SourceGraphic" in2="BackgroundImageFix" result="shape"/>
<feColorMatrix in="SourceAlpha" type="matrix" values="0 0 0 0 0 0 0 0 0 0 0 0 0 0 0 0 0 0 127 0" result="hardAlpha"/>
<feOffset dx="0.2" dy="0.2"/>
<feGaussianBlur stdDeviation="0.5"/>
<feComposite in2="hardAlpha" operator="arithmetic" k2="-1" k3="1"/>
<feColorMatrix type="matrix" values="0 0 0 0 0 0 0 0 0 0 0 0 0 0 0 0 0 0 0.16 0"/>
<feBlend mode="normal" in2="shape" result="effect1_innerShadow_12945_6171"/>
</filter>
<filter id="filter1_d_12945_6171" x="26" y="26" width="14" height="14" filterUnits="userSpaceOnUse" color-interpolation-filters="sRGB">
<feFlood flood-opacity="0" result="BackgroundImageFix"/>
<feColorMatrix in="SourceAlpha" type="matrix" values="0 0 0 0 0 0 0 0 0 0 0 0 0 0 0 0 0 0 127 0" result="hardAlpha"/>
<feOffset/>
<feComposite in2="hardAlpha" operator="out"/>
<feColorMatrix type="matrix" values="0 0 0 0 1 0 0 0 0 1 0 0 0 0 1 0 0 0 1 0"/>
<feBlend mode="normal" in2="BackgroundImageFix" result="effect1_dropShadow_12945_6171"/>
<feBlend mode="normal" in="SourceGraphic" in2="effect1_dropShadow_12945_6171" result="shape"/>
</filter>
<linearGradient id="paint0_linear_12945_6171" x1="27.4687" y1="19" x2="38.6487" y2="58.6535" gradientUnits="userSpaceOnUse">
<stop stop-color="#81DAE5"/>
<stop offset="1" stop-color="#2BB0C4"/>
</linearGradient>
<linearGradient id="paint1_linear_12945_6171" x1="15.8958" y1="9.5" x2="32.1581" y2="34.6715" gradientUnits="userSpaceOnUse">
<stop stop-color="#81DAE5"/>
<stop offset="1" stop-color="#2BB0C4"/>
</linearGradient>
<linearGradient id="paint2_linear_12945_6171" x1="29" y1="26.5" x2="37" y2="40" gradientUnits="userSpaceOnUse">
<stop stop-color="#FADE68"/>
<stop offset="1" stop-color="#FBBB29"/>
</linearGradient>
<clipPath id="clip0_12945_6171">
<path d="M0 12C0 5.37258 5.37258 0 12 0H36C42.6274 0 48 5.37258 48 12V36C48 42.6274 42.6274 48 36 48H12C5.37258 48 0 42.6274 0 36V12Z" fill="white"/>
</clipPath>
<clipPath id="clip1_12945_6171">
<rect width="32" height="32" fill="white" transform="translate(8 8)"/>
</clipPath>
<clipPath id="clip2_12945_6171">
<rect width="24" height="26" fill="white" transform="translate(12 11)"/>
</clipPath>
<clipPath id="clip3_12945_6171">
<rect width="16" height="16" fill="white" transform="translate(25 25)"/>
</clipPath>
</defs>
</svg>
