<svg width="48" height="48" viewBox="0 0 48 48" fill="none" xmlns="http://www.w3.org/2000/svg">
<g clip-path="url(#clip0_12945_11940)">
<path d="M0 12C0 5.37258 5.37258 0 12 0H36C42.6274 0 48 5.37258 48 12V36C48 42.6274 42.6274 48 36 48H12C5.37258 48 0 42.6274 0 36V12Z" fill="white"/>
<g clip-path="url(#clip1_12945_11940)">
<g clip-path="url(#clip2_12945_11940)">
<path d="M11 14C11 12.3431 12.3431 11 14 11H34C35.6569 11 37 12.3431 37 14V34C37 35.6569 35.6569 37 34 37H14C12.3431 37 11 35.6569 11 34V14Z" fill="url(#paint0_linear_12945_11940)"/>
<path d="M26.5 18.5H31.5" stroke="white" stroke-width="1.5" stroke-linecap="round" stroke-linejoin="round"/>
<path d="M19 15.25C19.4142 15.25 19.75 15.5858 19.75 16V17.75H21.5C21.9142 17.75 22.25 18.0858 22.25 18.5C22.25 18.9142 21.9142 19.25 21.5 19.25H19.75V21C19.75 21.4142 19.4142 21.75 19 21.75C18.5858 21.75 18.25 21.4142 18.25 21V19.25H16.5C16.0858 19.25 15.75 18.9142 15.75 18.5C15.75 18.0858 16.0858 17.75 16.5 17.75H18.25V16C18.25 15.5858 18.5858 15.25 19 15.25Z" fill="white"/>
<path d="M20.3027 27.0254C20.5956 26.7326 21.0704 26.7327 21.3633 27.0254C21.6562 27.3183 21.6562 27.793 21.3633 28.0859L19.9492 29.499L21.3643 30.9141C21.6571 31.2069 21.6569 31.6817 21.3643 31.9746C21.0714 32.2675 20.5966 32.2675 20.3037 31.9746L18.8887 30.5596L17.4746 31.9746C17.1817 32.2675 16.707 32.2675 16.4141 31.9746C16.1214 31.6817 16.1212 31.2069 16.4141 30.9141L17.8281 29.499L16.415 28.0859C16.1221 27.793 16.1221 27.3183 16.415 27.0254C16.7079 26.7327 17.1828 26.7326 17.4756 27.0254L18.8887 28.4385L20.3027 27.0254Z" fill="white"/>
<path d="M29 31C29.5523 31 30 31.4477 30 32C30 32.5523 29.5523 33 29 33C28.4477 33 28 32.5523 28 32C28 31.4477 28.4477 31 29 31ZM31.5 28.75C31.9142 28.75 32.25 29.0858 32.25 29.5C32.25 29.9142 31.9142 30.25 31.5 30.25H26.5C26.0858 30.25 25.75 29.9142 25.75 29.5C25.75 29.0858 26.0858 28.75 26.5 28.75H31.5ZM29 26C29.5523 26 30 26.4477 30 27C30 27.5523 29.5523 28 29 28C28.4477 28 28 27.5523 28 27C28 26.4477 28.4477 26 29 26Z" fill="white"/>
</g>
</g>
</g>
<defs>
<linearGradient id="paint0_linear_12945_11940" x1="18" y1="11" x2="37" y2="42" gradientUnits="userSpaceOnUse">
<stop stop-color="#C6CBE3"/>
<stop offset="1" stop-color="#888FC2"/>
</linearGradient>
<clipPath id="clip0_12945_11940">
<path d="M0 12C0 5.37258 5.37258 0 12 0H36C42.6274 0 48 5.37258 48 12V36C48 42.6274 42.6274 48 36 48H12C5.37258 48 0 42.6274 0 36V12Z" fill="white"/>
</clipPath>
<clipPath id="clip1_12945_11940">
<rect width="32" height="32" fill="white" transform="translate(8 8)"/>
</clipPath>
<clipPath id="clip2_12945_11940">
<rect width="26" height="26" fill="white" transform="translate(11 11)"/>
</clipPath>
</defs>
</svg>
