<svg width="88" height="88" viewBox="0 0 88 88" fill="none" xmlns="http://www.w3.org/2000/svg">
<rect width="88" height="88" rx="44" fill="#F2F5FF"/>
<g filter="url(#filter0_d_12945_21808)">
<path d="M23.375 25.3125C23.375 23.1034 25.1659 21.3125 27.375 21.3125H62C64.2091 21.3125 66 23.1034 66 25.3125V64.0625C66 66.2716 64.2091 68.0625 62 68.0625H27.375C25.1659 68.0625 23.375 66.2716 23.375 64.0625V25.3125Z" fill="url(#paint0_linear_12945_21808)"/>
</g>
<path d="M50.6448 19.7707H47.9798C47.824 19.0412 47.4112 18.3858 46.8112 17.9152C46.2112 17.4445 45.4608 17.1875 44.6866 17.1875C43.9124 17.1875 43.162 17.4445 42.562 17.9152C41.962 18.3858 41.5492 19.0412 41.3934 19.7707H38.7284C37.9203 19.7906 37.1532 20.1176 36.5951 20.6803C36.037 21.243 35.7334 21.9954 35.7507 22.7729V24.0625H53.6243V22.7729C53.6416 21.9951 53.3377 21.2424 52.7792 20.6797C52.2208 20.117 51.4532 19.7901 50.6448 19.7707ZM44.6875 21.4902C44.5092 21.4984 44.3324 21.4551 44.1799 21.3658C44.0274 21.2765 43.9062 21.1453 43.8319 20.9891C43.7577 20.8329 43.7337 20.6589 43.7632 20.4895C43.7927 20.3201 43.8742 20.1631 43.9973 20.0387C44.1204 19.9143 44.2795 19.8282 44.4539 19.7916C44.6283 19.7549 44.8101 19.7694 44.9759 19.833C45.1418 19.8967 45.2839 20.0067 45.3842 20.1488C45.4844 20.291 45.5381 20.4587 45.5383 20.6305C45.5436 20.8529 45.457 21.0683 45.2975 21.2294C45.138 21.3906 44.9187 21.4843 44.6875 21.4902Z" fill="#4E7AD9"/>
<path d="M50.9385 33.6875L49.8914 36.8289L46.75 37.876V39.124L49.8914 40.1711L50.9385 43.3125H52.1865L53.2336 40.1711L56.375 39.124V37.876L53.2336 36.8289L52.1865 33.6875H50.9385Z" fill="white" fill-opacity="0.8"/>
<path d="M39.0867 45.2742L41.1156 39.1875H42.7594L44.7883 45.2742L50.875 47.3031V48.9469L44.7883 50.9758L42.7594 57.0625H41.1156L39.0867 50.9758L33 48.9469V47.3031L39.0867 45.2742Z" fill="white"/>
<defs>
<filter id="filter0_d_12945_21808" x="19.375" y="19.3125" width="50.625" height="54.75" filterUnits="userSpaceOnUse" color-interpolation-filters="sRGB">
<feFlood flood-opacity="0" result="BackgroundImageFix"/>
<feColorMatrix in="SourceAlpha" type="matrix" values="0 0 0 0 0 0 0 0 0 0 0 0 0 0 0 0 0 0 127 0" result="hardAlpha"/>
<feOffset dy="2"/>
<feGaussianBlur stdDeviation="2"/>
<feComposite in2="hardAlpha" operator="out"/>
<feColorMatrix type="matrix" values="0 0 0 0 0.162629 0 0 0 0 0.322219 0 0 0 0 0.960579 0 0 0 0.1 0"/>
<feBlend mode="normal" in2="BackgroundImageFix" result="effect1_dropShadow_12945_21808"/>
<feBlend mode="normal" in="SourceGraphic" in2="effect1_dropShadow_12945_21808" result="shape"/>
</filter>
<linearGradient id="paint0_linear_12945_21808" x1="21.377" y1="21.3125" x2="60.7802" y2="70.6362" gradientUnits="userSpaceOnUse">
<stop stop-color="#B3CBFF"/>
<stop offset="1" stop-color="#6091F9"/>
</linearGradient>
</defs>
</svg>
