<svg width="16" height="15" viewBox="0 0 16 15" fill="none" xmlns="http://www.w3.org/2000/svg">
<path fill-rule="evenodd" clip-rule="evenodd" d="M0.620709 14.1279H15.0618C15.4102 14.1279 15.6802 13.8405 15.6802 13.4921C15.6802 13.3527 15.6367 13.2221 15.5583 13.1089L8.37256 0.305243C8.31159 0.209434 8.24191 0.131045 8.1461 0.078785C7.84997 -0.0867041 7.47544 0.0178152 7.30995 0.305243L0.0894024 13.1611C-0.0238269 13.3615 -0.0325368 13.6053 0.0806925 13.8057C0.185212 14.006 0.394251 14.1279 0.620709 14.1279ZM7.83984 4.06396C8.11599 4.06396 8.33984 4.28782 8.33984 4.56396V9.06396C8.33984 9.34011 8.11599 9.56396 7.83984 9.56396C7.5637 9.56396 7.33984 9.34011 7.33984 9.06396V4.56396C7.33984 4.28782 7.5637 4.06396 7.83984 4.06396ZM7.83984 11.564C8.11599 11.564 8.33984 11.3401 8.33984 11.064C8.33984 10.7878 8.11599 10.564 7.83984 10.564C7.5637 10.564 7.33984 10.7878 7.33984 11.064C7.33984 11.3401 7.5637 11.564 7.83984 11.564Z" fill="#FEBB2B"/>
</svg>
