<svg width="18" height="18" viewBox="0 0 18 18" fill="none" xmlns="http://www.w3.org/2000/svg">
<circle cx="9" cy="9" r="7.5" stroke="#0A2B58" stroke-opacity="0.18"/>
<path d="M9.10982 5.79992C9.1117 5.95615 9.16874 6.10842 9.27373 6.23755C9.37872 6.36669 9.52696 6.46692 9.69981 6.52561C9.87266 6.58431 10.0624 6.59885 10.2451 6.5674C10.4278 6.53596 10.5953 6.45994 10.7265 6.34891C10.8577 6.23788 10.9468 6.0968 10.9825 5.94345C11.0182 5.7901 10.9989 5.63133 10.9271 5.48714C10.8553 5.34294 10.7342 5.21977 10.579 5.13313C10.4238 5.04648 10.2415 5.00025 10.055 5.00025C9.92916 4.99759 9.80405 5.01652 9.68732 5.05587C9.57059 5.09522 9.4647 5.15416 9.37617 5.22906C9.28764 5.30397 9.21833 5.39325 9.17253 5.49142C9.12672 5.5896 9.10538 5.69459 9.10982 5.79992ZM7.0084 8.56679C6.9972 8.72292 6.9972 8.87948 7.0084 9.03561L7.833 8.19394C8.00364 8.036 8.20051 7.92505 8.30194 7.95504C8.35158 7.97318 8.39134 8.0062 8.41341 8.04762C8.43549 8.08904 8.43829 8.13588 8.42128 8.17895L7.05615 12.0114C7.01611 12.1251 7.00789 12.245 7.03218 12.3618C7.05648 12.4785 7.11262 12.5891 7.19621 12.6847C7.2798 12.7803 7.38858 12.8586 7.51413 12.9132C7.63968 12.9679 7.77862 12.9976 7.92011 13C8.98096 13 9.61101 12.3912 10.2315 11.6006C10.2484 11.4397 10.2532 11.2781 10.2459 11.1168L9.42129 11.9584C9.25065 12.1174 9.03823 12.2283 8.9368 12.1973C8.89115 12.1815 8.85339 12.153 8.82991 12.1166C8.80644 12.0801 8.79868 12.0381 8.80792 11.9974L10.1826 8.14597C10.2193 8.03298 10.2254 7.91455 10.2004 7.79936C10.1754 7.68416 10.1199 7.5751 10.0382 7.48015C9.95638 7.3852 9.8503 7.30676 9.72767 7.25057C9.60504 7.19438 9.46898 7.16185 9.32941 7.15538C8.70313 7.18304 8.375 7.36161 7.98959 7.65418C7.53646 8.07589 7.21875 8.36161 7.0084 8.56679Z" fill="#888EA3"/>
</svg>
