<svg width="88" height="89" viewBox="0 0 88 89" fill="none" xmlns="http://www.w3.org/2000/svg">
<rect y="0.5" width="88" height="88" rx="44" fill="#F2F5FF"/>
<g filter="url(#filter0_d_10703_2714)">
<path d="M23.375 25.8125C23.375 23.6034 25.1659 21.8125 27.375 21.8125H62C64.2091 21.8125 66 23.6034 66 25.8125V64.5625C66 66.7716 64.2091 68.5625 62 68.5625H27.375C25.1659 68.5625 23.375 66.7716 23.375 64.5625V25.8125Z" fill="url(#paint0_linear_10703_2714)"/>
</g>
<path d="M50.6448 20.2707H47.9798C47.824 19.5412 47.4112 18.8858 46.8112 18.4152C46.2112 17.9445 45.4608 17.6875 44.6866 17.6875C43.9124 17.6875 43.162 17.9445 42.562 18.4152C41.962 18.8858 41.5492 19.5412 41.3934 20.2707H38.7284C37.9203 20.2906 37.1532 20.6176 36.5951 21.1803C36.037 21.743 35.7334 22.4954 35.7507 23.2729V24.5625H53.6243V23.2729C53.6416 22.4951 53.3377 21.7424 52.7792 21.1797C52.2208 20.617 51.4532 20.2901 50.6448 20.2707ZM44.6875 21.9902C44.5092 21.9984 44.3324 21.9551 44.1799 21.8658C44.0274 21.7765 43.9062 21.6453 43.8319 21.4891C43.7577 21.3329 43.7337 21.1589 43.7632 20.9895C43.7927 20.8201 43.8742 20.6631 43.9973 20.5387C44.1204 20.4143 44.2795 20.3282 44.4539 20.2916C44.6283 20.2549 44.8101 20.2694 44.9759 20.333C45.1418 20.3967 45.2839 20.5067 45.3842 20.6488C45.4844 20.791 45.5381 20.9587 45.5383 21.1305C45.5436 21.3529 45.457 21.5683 45.2975 21.7294C45.138 21.8906 44.9187 21.9843 44.6875 21.9902Z" fill="#4E7AD9"/>
<path d="M50.9385 34.1875L49.8914 37.3289L46.75 38.376V39.624L49.8914 40.6711L50.9385 43.8125H52.1865L53.2336 40.6711L56.375 39.624V38.376L53.2336 37.3289L52.1865 34.1875H50.9385Z" fill="white" fill-opacity="0.8"/>
<path d="M39.0867 45.7742L41.1156 39.6875H42.7594L44.7883 45.7742L50.875 47.8031V49.4469L44.7883 51.4758L42.7594 57.5625H41.1156L39.0867 51.4758L33 49.4469V47.8031L39.0867 45.7742Z" fill="white"/>
<defs>
<filter id="filter0_d_10703_2714" x="19.375" y="19.8125" width="50.625" height="54.75" filterUnits="userSpaceOnUse" color-interpolation-filters="sRGB">
<feFlood flood-opacity="0" result="BackgroundImageFix"/>
<feColorMatrix in="SourceAlpha" type="matrix" values="0 0 0 0 0 0 0 0 0 0 0 0 0 0 0 0 0 0 127 0" result="hardAlpha"/>
<feOffset dy="2"/>
<feGaussianBlur stdDeviation="2"/>
<feComposite in2="hardAlpha" operator="out"/>
<feColorMatrix type="matrix" values="0 0 0 0 0.162629 0 0 0 0 0.322219 0 0 0 0 0.960579 0 0 0 0.1 0"/>
<feBlend mode="normal" in2="BackgroundImageFix" result="effect1_dropShadow_10703_2714"/>
<feBlend mode="normal" in="SourceGraphic" in2="effect1_dropShadow_10703_2714" result="shape"/>
</filter>
<linearGradient id="paint0_linear_10703_2714" x1="21.377" y1="21.8125" x2="60.7802" y2="71.1362" gradientUnits="userSpaceOnUse">
<stop stop-color="#B3CBFF"/>
<stop offset="1" stop-color="#6091F9"/>
</linearGradient>
</defs>
</svg>
