<svg width="60" height="60" viewBox="0 0 60 60" fill="none" xmlns="http://www.w3.org/2000/svg">
<rect width="60" height="60" rx="30" fill="#F2F5FF"/>
<rect x="19" y="19" width="22" height="24" rx="3" fill="url(#paint0_linear_231_18394)"/>
<path d="M33.3334 17.5004H31.8424C31.7552 17.0761 31.5243 16.695 31.1886 16.4212C30.8529 16.1475 30.433 15.998 29.9999 15.998C29.5668 15.998 29.1469 16.1475 28.8112 16.4212C28.4755 16.695 28.2446 17.0761 28.1574 17.5004H26.6664C26.2142 17.5119 25.7851 17.7022 25.4728 18.0294C25.1606 18.3566 24.9907 18.7942 25.0004 19.2464V19.9964H35.0004V19.2464C35.0101 18.7941 34.8401 18.3563 34.5276 18.029C34.2151 17.7018 33.7857 17.5117 33.3334 17.5004ZM30.0004 18.5004C29.9006 18.5052 29.8017 18.48 29.7164 18.4281C29.6311 18.3761 29.5633 18.2998 29.5217 18.209C29.4802 18.1181 29.4668 18.0169 29.4833 17.9184C29.4998 17.8199 29.5454 17.7286 29.6143 17.6562C29.6831 17.5839 29.7721 17.5338 29.8697 17.5125C29.9673 17.4912 30.069 17.4996 30.1618 17.5366C30.2545 17.5737 30.3341 17.6376 30.3902 17.7203C30.4462 17.803 30.4763 17.9005 30.4764 18.0004C30.4793 18.1298 30.4309 18.255 30.3417 18.3488C30.2525 18.4425 30.1297 18.497 30.0004 18.5004Z" fill="#4188D0"/>
<path d="M24.75 38.998C24.5511 38.998 24.3603 38.919 24.2197 38.7783C24.079 38.6377 24 38.447 24 38.248C24 38.0491 24.079 37.8584 24.2197 37.7178C24.3603 37.5771 24.5511 37.498 24.75 37.498H35.25C35.4489 37.498 35.6397 37.5771 35.7803 37.7178C35.921 37.8584 36 38.0491 36 38.248C36 38.447 35.921 38.6377 35.7803 38.7783C35.6397 38.919 35.4489 38.998 35.25 38.998H24.75ZM24.75 35.498C24.5511 35.498 24.3603 35.419 24.2197 35.2783C24.079 35.1377 24 34.947 24 34.748C24 34.5491 24.079 34.3584 24.2197 34.2178C24.3603 34.0771 24.5511 33.998 24.75 33.998H35.25C35.4489 33.998 35.6397 34.0771 35.7803 34.2178C35.921 34.3584 36 34.5491 36 34.748C36 34.947 35.921 35.1377 35.7803 35.2783C35.6397 35.419 35.4489 35.498 35.25 35.498H24.75Z" fill="white" fill-opacity="0.5"/>
<path d="M30 32.001C28.9391 32.001 27.9217 31.5802 27.1716 30.8301C26.4214 30.0799 26 29.0618 26 28.001C26 26.9401 26.4214 25.923 27.1716 25.1729C27.9217 24.4227 28.9391 24.001 30 24.001V28.001H34C33.9981 29.0613 33.5761 30.0784 32.8264 30.8281C32.0766 31.5779 31.0603 31.9991 30 32.001Z" fill="white" fill-opacity="0.5"/>
<path d="M34.75 27.2471H30.75V23.2471C31.8103 23.2489 32.8266 23.6712 33.5764 24.4209C34.3261 25.1706 34.7481 26.1868 34.75 27.2471Z" fill="white"/>
<defs>
<linearGradient id="paint0_linear_231_18394" x1="25.4167" y1="18.0769" x2="37.4874" y2="45.7019" gradientUnits="userSpaceOnUse">
<stop stop-color="#98CAFC"/>
<stop offset="1" stop-color="#409FFF"/>
</linearGradient>
</defs>
</svg>
