<svg width="60" height="60" viewBox="0 0 60 60" fill="none" xmlns="http://www.w3.org/2000/svg">
<rect width="60" height="60" rx="30" fill="#F2F5FF"/>
<rect x="19.5" y="17" width="21" height="26" rx="3" fill="url(#paint0_linear_231_18400)"/>
<g filter="url(#filter0_i_231_18400)">
<path d="M27.5 36H32.5C32.7652 36 33.0196 36.1054 33.2071 36.2929C33.3946 36.4804 33.5 36.7348 33.5 37V43H26.5V37C26.5 36.7348 26.6054 36.4804 26.7929 36.2929C26.9804 36.1054 27.2348 36 27.5 36Z" fill="#4E7AD9"/>
</g>
<path d="M34 31C33.8674 31 33.7403 30.9473 33.6465 30.8535C33.5527 30.7597 33.5 30.6326 33.5 30.5V28.5C33.5 28.3674 33.5527 28.2403 33.6465 28.1465C33.7403 28.0527 33.8674 28 34 28H36C36.1326 28 36.2597 28.0527 36.3535 28.1465C36.4473 28.2403 36.5 28.3674 36.5 28.5V30.5C36.5 30.6326 36.4473 30.7597 36.3535 30.8535C36.2597 30.9473 36.1326 31 36 31H34ZM29 31C28.8674 31 28.7403 30.9473 28.6465 30.8535C28.5527 30.7597 28.5 30.6326 28.5 30.5V28.5C28.5 28.3674 28.5527 28.2403 28.6465 28.1465C28.7403 28.0527 28.8674 28 29 28H31C31.1326 28 31.2597 28.0527 31.3535 28.1465C31.4473 28.2403 31.5 28.3674 31.5 28.5V30.5C31.5 30.6326 31.4473 30.7597 31.3535 30.8535C31.2597 30.9473 31.1326 31 31 31H29ZM24 31C23.8674 31 23.7403 30.9473 23.6465 30.8535C23.5527 30.7597 23.5 30.6326 23.5 30.5V28.5C23.5 28.3674 23.5527 28.2403 23.6465 28.1465C23.7403 28.0527 23.8674 28 24 28H26C26.1326 28 26.2597 28.0527 26.3535 28.1465C26.4473 28.2403 26.5 28.3674 26.5 28.5V30.5C26.5 30.6326 26.4473 30.7597 26.3535 30.8535C26.2597 30.9473 26.1326 31 26 31H24ZM34 26C33.8674 26 33.7403 25.9473 33.6465 25.8535C33.5527 25.7597 33.5 25.6326 33.5 25.5V23.5C33.5 23.3674 33.5527 23.2403 33.6465 23.1465C33.7403 23.0527 33.8674 23 34 23H36C36.1326 23 36.2597 23.0527 36.3535 23.1465C36.4473 23.2403 36.5 23.3674 36.5 23.5V25.5C36.5 25.6326 36.4473 25.7597 36.3535 25.8535C36.2597 25.9473 36.1326 26 36 26H34ZM29 26C28.8674 26 28.7403 25.9473 28.6465 25.8535C28.5527 25.7597 28.5 25.6326 28.5 25.5V23.5C28.5 23.3674 28.5527 23.2403 28.6465 23.1465C28.7403 23.0527 28.8674 23 29 23H31C31.1326 23 31.2597 23.0527 31.3535 23.1465C31.4473 23.2403 31.5 23.3674 31.5 23.5V25.5C31.5 25.6326 31.4473 25.7597 31.3535 25.8535C31.2597 25.9473 31.1326 26 31 26H29ZM24 26C23.8674 26 23.7403 25.9473 23.6465 25.8535C23.5527 25.7597 23.5 25.6326 23.5 25.5V23.5C23.5 23.3674 23.5527 23.2403 23.6465 23.1465C23.7403 23.0527 23.8674 23 24 23H26C26.1326 23 26.2597 23.0527 26.3535 23.1465C26.4473 23.2403 26.5 23.3674 26.5 23.5V25.5C26.5 25.6326 26.4473 25.7597 26.3535 25.8535C26.2597 25.9473 26.1326 26 26 26H24Z" fill="white"/>
<defs>
<filter id="filter0_i_231_18400" x="26.5" y="36" width="7.2" height="7.2" filterUnits="userSpaceOnUse" color-interpolation-filters="sRGB">
<feFlood flood-opacity="0" result="BackgroundImageFix"/>
<feBlend mode="normal" in="SourceGraphic" in2="BackgroundImageFix" result="shape"/>
<feColorMatrix in="SourceAlpha" type="matrix" values="0 0 0 0 0 0 0 0 0 0 0 0 0 0 0 0 0 0 127 0" result="hardAlpha"/>
<feOffset dx="0.2" dy="0.2"/>
<feGaussianBlur stdDeviation="0.5"/>
<feComposite in2="hardAlpha" operator="arithmetic" k2="-1" k3="1"/>
<feColorMatrix type="matrix" values="0 0 0 0 0 0 0 0 0 0 0 0 0 0 0 0 0 0 0.16 0"/>
<feBlend mode="normal" in2="shape" result="effect1_innerShadow_231_18400"/>
</filter>
<linearGradient id="paint0_linear_231_18400" x1="25.625" y1="16" x2="39.8109" y2="44.6061" gradientUnits="userSpaceOnUse">
<stop stop-color="#A8C4FF"/>
<stop offset="1" stop-color="#4A81F7"/>
</linearGradient>
</defs>
</svg>
