<svg width="16" height="17" viewBox="0 0 16 17" fill="none" xmlns="http://www.w3.org/2000/svg">
<path fill-rule="evenodd" clip-rule="evenodd" d="M12.5 0.5C12.5 0.223858 12.2761 0 12 0C11.7239 0 11.5 0.223858 11.5 0.5V1H4.5V0.5C4.5 0.223858 4.27614 0 4 0C3.72386 0 3.5 0.223858 3.5 0.5V1H2C0.895431 1 0 1.89543 0 3V15C0 16.1046 0.895431 17 2 17H14C15.1046 17 16 16.1046 16 15V3C16 1.89543 15.1046 1 14 1H12.5V0.5ZM3.5 2.5V2H2C1.44772 2 1 2.44772 1 3V5.03149H15V3C15 2.44772 14.5523 2 14 2H12.5V2.5C12.5 2.77614 12.2761 3 12 3C11.7239 3 11.5 2.77614 11.5 2.5V2H4.5V2.5C4.5 2.77614 4.27614 3 4 3C3.72386 3 3.5 2.77614 3.5 2.5ZM15 6.03149H1V15C1 15.5523 1.44772 16 2 16H14C14.5523 16 15 15.5523 15 15V6.03149ZM3 10V9H5V10H3ZM3 13.0156V12.0156H5V13.0156H3ZM7 10V9H9V10H7ZM7 13.0156V12.0156H9V13.0156H7ZM11 10V9H13V10H11ZM11 13.0156V12.0156H13V13.0156H11Z" fill="#333333"/>
</svg>
