<svg width="36" height="36" viewBox="0 0 36 36" fill="none" xmlns="http://www.w3.org/2000/svg">
<rect width="36" height="36" rx="18" fill="#A788FF" fill-opacity="0.1"/>
<path fill-rule="evenodd" clip-rule="evenodd" d="M13.2839 9.25H16.6253C17.2779 9.25 17.8156 9.24999 18.2532 9.28405C18.696 9.31852 19.0878 9.39054 19.43 9.56487C19.9735 9.84184 20.4155 10.2838 20.6925 10.8274C20.8645 11.1651 20.938 11.5332 20.9731 11.9625C21.0073 12.3813 21.0073 12.8999 21.0073 13.5504V16.25H22.6757C23.3261 16.25 23.8448 16.25 24.2636 16.2842C24.6929 16.3193 25.061 16.3928 25.3987 16.5649C25.9423 16.8418 26.3842 17.2838 26.6612 17.8274C26.8333 18.1651 26.9068 18.5332 26.9419 18.9625C26.9761 19.3813 26.9761 19.8999 26.9761 20.5504V25.75H27.4927C27.7689 25.75 27.9927 25.9739 27.9927 26.25C27.9927 26.5261 27.7689 26.75 27.4927 26.75H8.50732C8.23118 26.75 8.00732 26.5261 8.00732 26.25C8.00732 25.9739 8.23118 25.75 8.50732 25.75H8.98351L8.98351 13.5504C8.9835 12.9 8.9835 12.3813 9.01771 11.9625C9.05279 11.5332 9.12629 11.1651 9.29838 10.8274C9.57534 10.2838 10.0173 9.84184 10.5609 9.56487C10.8986 9.39278 11.2667 9.31928 11.696 9.28421C12.1148 9.24999 12.6335 9.25 13.2839 9.25ZM9.98351 25.75H20.0073V13.5722C20.0073 12.895 20.0069 12.4172 19.9764 12.0439C19.9464 11.6765 19.8897 11.4546 19.8014 11.2814C19.6204 10.9259 19.3314 10.637 18.976 10.4559C18.8071 10.3698 18.5692 10.3117 18.1756 10.281C17.7813 10.2503 17.2822 10.25 16.6057 10.25H13.3057C12.6285 10.25 12.1507 10.2504 11.7774 10.2809C11.41 10.3109 11.1881 10.3676 11.0149 10.4559C10.6594 10.637 10.3705 10.9259 10.1894 11.2814C10.1011 11.4546 10.0444 11.6765 10.0144 12.0439C9.9839 12.4172 9.98351 12.895 9.98351 13.5722V25.75ZM21.0073 17.25V25.75H25.9761V20.5722C25.9761 19.895 25.9757 19.4172 25.9452 19.0439C25.9152 18.6765 25.8585 18.4546 25.7702 18.2814C25.5891 17.9259 25.3001 17.637 24.9447 17.4559C24.7715 17.3676 24.5496 17.3109 24.1822 17.2809C23.8089 17.2504 23.3311 17.25 22.6539 17.25H21.0073ZM13.1641 13.75C13.1641 13.4739 13.3879 13.25 13.6641 13.25H16.2474C16.5235 13.25 16.7474 13.4739 16.7474 13.75C16.7474 14.0261 16.5235 14.25 16.2474 14.25H13.6641C13.3879 14.25 13.1641 14.0261 13.1641 13.75ZM13.1641 17.75C13.1641 17.4739 13.3879 17.25 13.6641 17.25H16.2474C16.5235 17.25 16.7474 17.4739 16.7474 17.75C16.7474 18.0261 16.5235 18.25 16.2474 18.25H13.6641C13.3879 18.25 13.1641 18.0261 13.1641 17.75ZM13.1641 21.75C13.1641 21.4739 13.3879 21.25 13.6641 21.25H16.2474C16.5235 21.25 16.7474 21.4739 16.7474 21.75C16.7474 22.0261 16.5235 22.25 16.2474 22.25H13.6641C13.3879 22.25 13.1641 22.0261 13.1641 21.75Z" fill="#9B78FF"/>
</svg>
