<svg width="36" height="37" viewBox="0 0 36 37" fill="none" xmlns="http://www.w3.org/2000/svg">
<rect y="0.5" width="36" height="36" rx="18" fill="#46C79B" fill-opacity="0.08"/>
<path fill-rule="evenodd" clip-rule="evenodd" d="M21.9096 8.5H14.0904C13.1173 8.5 13.1211 8.5 12.2737 8.54674C11.848 8.57022 11.45 8.60595 11.1045 8.66154C10.7666 8.7159 10.4445 8.79433 10.1905 8.91909C9.43945 9.28813 8.82539 9.87869 8.4394 10.6092C8.20437 11.054 8.0999 11.5459 8.04947 12.1411C7.99999 12.725 8 13.4514 8 14.3769V18.8317C8 19.6017 8 20.2061 8.03455 20.6944C8.06973 21.1917 8.14253 21.606 8.30701 21.9889C8.71606 22.9412 9.49804 23.6922 10.4751 24.0824C10.6969 24.171 10.9825 24.2252 11.279 24.2627C11.5841 24.3012 11.9374 24.3261 12.3132 24.3424C13.0622 24.375 11.9325 24.375 12.7431 24.375H12.75C13.3432 24.375 13.5617 24.3779 13.7584 24.4227C14.0379 24.4863 14.2968 24.6115 14.5149 24.7871C14.6675 24.9099 14.7988 25.0735 15.1553 25.532L16.8707 27.7375C16.987 27.887 17.0938 28.0244 17.1921 28.1297C17.2965 28.2417 17.43 28.3613 17.613 28.4299C17.8622 28.5234 18.1378 28.5234 18.387 28.4299C18.57 28.3613 18.7035 28.2417 18.8079 28.1297C18.9062 28.0244 19.013 27.887 19.1293 27.7375L20.8447 25.532C21.2012 25.0735 21.3325 24.9099 21.4851 24.7871C21.7032 24.6115 21.9621 24.4863 22.2416 24.4227C22.4383 24.3779 22.6568 24.375 23.25 24.375H23.2569C24.0675 24.375 22.9378 24.375 23.6868 24.3424C24.0626 24.3261 24.4159 24.3012 24.721 24.2627C25.0175 24.2252 25.3031 24.171 25.5249 24.0824C26.502 23.6922 27.2839 22.9412 27.693 21.9889C27.8575 21.606 27.9303 21.1917 27.9655 20.6944C28 20.2061 28 19.6018 28 18.8318V14.3769C28 13.4514 28 12.725 27.9505 12.1411C27.9001 11.5459 27.7956 11.054 27.5606 10.6092C27.1746 9.87869 26.5605 9.28813 25.8095 8.91909C25.5555 8.79433 25.2334 8.7159 24.8955 8.66154C24.55 8.60595 24.152 8.57022 23.7263 8.54674C22.8789 8.5 22.8827 8.5 21.9096 8.5ZM10.6315 9.81661C10.7519 9.75745 10.9581 9.69794 11.2633 9.64884C11.5609 9.60097 11.9207 9.56773 12.3287 9.54522C13.1458 9.50015 13.116 9.5 14.1 9.5H21.9C22.884 9.5 22.8542 9.50015 23.6713 9.54522C24.0793 9.56773 24.4391 9.60097 24.7367 9.64884C25.0419 9.69794 25.2481 9.75745 25.3685 9.81661C25.9345 10.0947 26.3913 10.5368 26.6764 11.0764C26.8229 11.3535 26.9092 11.6951 26.9541 12.2255C26.9996 12.7623 27 13.4464 27 14.4V18.8125C27 19.6059 26.9997 20.1749 26.9679 20.6239C26.9365 21.0679 26.8761 21.3569 26.7742 21.5942C26.4728 22.2959 25.892 22.859 25.1539 23.1538C25.0541 23.1937 24.8715 23.2357 24.5958 23.2706C24.3287 23.3043 24.0056 23.3276 23.6433 23.3434C22.9182 23.3749 24.0683 23.375 23.25 23.375L23.1909 23.375C22.6776 23.3749 22.3396 23.3748 22.0196 23.4477C21.594 23.5446 21.1962 23.736 20.8581 24.008C20.6035 24.213 20.3987 24.4763 20.0918 24.8711L20.0553 24.918L18.352 27.108C18.2196 27.2782 18.1405 27.3792 18.0767 27.4476C18.0501 27.4761 18.0337 27.4904 18.0259 27.4967C18.009 27.5011 17.991 27.5011 17.9741 27.4967C17.9663 27.4904 17.9499 27.4761 17.9233 27.4476C17.8595 27.3792 17.7804 27.2782 17.648 27.108L15.9447 24.918L15.9082 24.8711C15.6013 24.4764 15.3965 24.213 15.1419 24.008C14.8038 23.736 14.406 23.5446 13.9804 23.4477C13.6604 23.3748 13.3224 23.3749 12.8091 23.375L12.75 23.375C11.9317 23.375 13.0818 23.3749 12.3567 23.3434C11.9944 23.3276 11.6713 23.3043 11.4042 23.2706C11.1285 23.2357 10.9459 23.1937 10.8461 23.1538C10.108 22.859 9.52724 22.2959 9.22583 21.5942C9.1239 21.3569 9.06348 21.0679 9.03206 20.6239C9.00029 20.1749 9 19.6059 9 18.8125V14.4C9 13.4464 9.00042 12.7623 9.0459 12.2255C9.09084 11.6951 9.1771 11.3535 9.32356 11.0764C9.60868 10.5368 10.0655 10.0947 10.6315 9.81661ZM17.0604 14.356C17.41 14.1505 17.821 14.0754 18.2206 14.144C18.6202 14.2125 18.9827 14.4203 19.2438 14.7305C19.505 15.0407 19.6479 15.4333 19.6473 15.8387L19.6473 15.8399C19.6473 16.264 19.3192 16.685 18.7478 17.066C18.4849 17.2413 18.2167 17.3759 18.0112 17.4672C17.9095 17.5124 17.8259 17.5458 17.7694 17.5674C17.7412 17.5781 17.7199 17.5858 17.7068 17.5905L17.6934 17.5952L17.9304 18.3068C17.6932 17.5953 17.6934 17.5952 17.6934 17.5952L17.6924 17.5955C17.387 17.698 17.1804 17.9845 17.1804 18.3068V18.7188C17.1804 19.133 17.5161 19.4688 17.9304 19.4688C18.3446 19.4688 18.6804 19.133 18.6804 18.7188V18.811C18.9303 18.697 19.2528 18.5321 19.5798 18.3141C20.2418 17.8728 21.147 17.0605 21.1473 15.8403C21.1482 15.0808 20.8805 14.3455 20.3914 13.7645C19.9021 13.1833 19.223 12.794 18.4742 12.6656C17.7254 12.5371 16.9554 12.6778 16.3004 13.0628C15.6454 13.4477 15.1478 14.052 14.8957 14.7687C14.7583 15.1594 14.9636 15.5876 15.3543 15.7251C15.7451 15.8625 16.1733 15.6572 16.3107 15.2664C16.4453 14.8839 16.7109 14.5614 17.0604 14.356ZM17.9622 20.8484C17.5479 20.8484 17.2122 21.1842 17.2122 21.5984C17.2122 22.0126 17.5479 22.3484 17.9622 22.3484H17.9731C18.3873 22.3484 18.7231 22.0126 18.7231 21.5984C18.7231 21.1842 18.3873 20.8484 17.9731 20.8484H17.9622Z" fill="#46C79B"/>
</svg>
