<svg width="24" height="24" viewBox="0 0 24 24" fill="none" xmlns="http://www.w3.org/2000/svg">
<g clip-path="url(#clip0_3360_12825)">
<path d="M21.125 22V19.031H24V22H21.125ZM13.864 19.612C12.5153 20.4797 10.9405 20.9301 9.337 20.907C4.4 20.906 1 17.089 1 11.953C1 6.817 4.4 3 9.337 3C14.274 3 17.675 6.818 17.675 11.953C17.7414 14.3799 16.8552 16.7364 15.206 18.518L17.263 20.884L15.921 22L13.864 19.612ZM2.864 11.953C2.864 16.195 5.658 19.187 9.339 19.187C10.5209 19.1999 11.6807 18.8661 12.675 18.227L10.506 15.7L11.849 14.584L13.992 17.107C15.2111 15.6693 15.8589 13.8334 15.812 11.949C15.812 7.707 13.018 4.716 9.336 4.716C5.654 4.716 2.862 7.711 2.862 11.953H2.864Z" fill="#3B5DFB"/>
</g>
<defs>
<clipPath id="clip0_3360_12825">
<rect width="24" height="24" fill="white"/>
</clipPath>
</defs>
</svg>
