<svg width="20" height="20" viewBox="0 0 20 20" fill="none" xmlns="http://www.w3.org/2000/svg">
<path fill-rule="evenodd" clip-rule="evenodd" d="M19 10C19 5.02944 14.9706 1 10 1C5.02944 1 1 5.02944 1 10C1 14.9706 5.02944 19 10 19C14.9706 19 19 14.9706 19 10ZM10 0C15.5228 0 20 4.47715 20 10C20 15.5228 15.5228 20 10 20C4.47715 20 0 15.5228 0 10C0 4.47715 4.47715 0 10 0Z" fill="#111111"/>
<path fill-rule="evenodd" clip-rule="evenodd" d="M9.25 14.2246C9.25 13.8104 9.58579 13.4746 10 13.4746H10.01C10.4242 13.4746 10.76 13.8104 10.76 14.2246C10.76 14.6388 10.4242 14.9746 10.01 14.9746H10C9.58579 14.9746 9.25 14.6388 9.25 14.2246Z" fill="#3B5DFB"/>
<path fill-rule="evenodd" clip-rule="evenodd" d="M9.97183 6.1251C9.77551 6.11446 9.57914 6.1453 9.39553 6.21559C9.21192 6.28589 9.04517 6.39407 8.90614 6.5331C8.76712 6.67212 8.65894 6.83887 8.58864 7.02248C8.51834 7.2061 8.48751 7.40246 8.49814 7.59878C8.51308 7.87452 8.30166 8.11016 8.02592 8.1251C7.75019 8.14004 7.51455 7.92861 7.49961 7.65288C7.48138 7.31632 7.53424 6.9797 7.65474 6.66494C7.77525 6.35017 7.96071 6.06432 8.19904 5.82599C8.43737 5.58766 8.72322 5.40221 9.03799 5.2817C9.34574 5.16387 9.67438 5.11072 10.0034 5.12545C10.3297 5.11677 10.6545 5.17385 10.9584 5.29339C11.2693 5.41568 11.5516 5.60069 11.7878 5.8369C12.024 6.07311 12.209 6.35545 12.3313 6.66632C12.4536 6.97719 12.5105 7.30991 12.4986 7.64375C12.4982 7.6532 12.4976 7.66263 12.4967 7.67204C12.4579 8.09096 12.333 8.49737 12.13 8.86589C11.9271 9.23441 11.6503 9.55713 11.317 9.81391C11.2952 9.8307 11.2721 9.84566 11.2478 9.85864C10.9932 9.99494 10.7854 10.2046 10.6513 10.4603C10.5172 10.7161 10.463 11.0063 10.4957 11.2932C10.5269 11.5676 10.3299 11.8153 10.0555 11.8466C9.78112 11.8779 9.53336 11.6808 9.50209 11.4064C9.44672 10.9205 9.53853 10.4291 9.76565 9.99597C9.98565 9.57638 10.3228 9.23015 10.7356 8.99907C10.9471 8.83001 11.1234 8.62084 11.2541 8.38344C11.3885 8.13954 11.472 7.871 11.4996 7.59403C11.5046 7.40212 11.471 7.21112 11.4007 7.03238C11.3287 6.84934 11.2198 6.6831 11.0807 6.54401C10.9416 6.40493 10.7754 6.29599 10.5923 6.22398C10.4093 6.15198 10.2134 6.11846 10.0168 6.12551C10.0018 6.12605 9.9868 6.12591 9.97183 6.1251Z" fill="#3B5DFB"/>
</svg>
