<svg width="17" height="18" viewBox="0 0 17 18" fill="none" xmlns="http://www.w3.org/2000/svg">
<path d="M8.0625 7.00977C8.06771 7.55758 8.51345 8 9.0625 8H16.0625V12.2412C16.0625 13.0462 16.0628 13.7108 16.0186 14.252C15.9726 14.814 15.8742 15.3311 15.627 15.8164C15.2435 16.5689 14.6314 17.181 13.8789 17.5645C13.3936 17.8117 12.8765 17.9101 12.3145 17.9561C11.7733 18.0003 11.1087 18 10.3037 18H5.82227C5.01731 18 4.35271 18.0003 3.81152 17.9561C3.24943 17.9101 2.7324 17.8117 2.24707 17.5645C1.49454 17.181 0.882503 16.5689 0.499023 15.8164C0.251749 15.3311 0.153351 14.814 0.107422 14.252C0.0632048 13.7108 0.0634632 13.0462 0.0634766 12.2412L0.0625 5.75879C0.0624876 4.95383 0.0622283 4.28924 0.106445 3.74805C0.152359 3.18623 0.250985 2.6697 0.498047 2.18457C0.881447 1.43211 1.4937 0.820035 2.24609 0.436523C2.7314 0.189248 3.24849 0.0898742 3.81055 0.0439453C4.35174 -0.000272014 5.01632 -1.27556e-05 5.82129 0H8.0625V7.00977ZM5 11C4.44772 11 4 11.4477 4 12C4 12.5523 4.44772 13 5 13H11C11.5523 13 12 12.5523 12 12C12 11.4477 11.5523 11 11 11H5ZM10.0625 0.198242C10.3589 0.295117 10.6437 0.426536 10.9102 0.589844C11.3157 0.838451 11.6549 1.17786 12.1035 1.62695L14.4355 3.95898C14.8846 4.40761 15.2241 4.74682 15.4727 5.15234C15.6359 5.41881 15.7674 5.70364 15.8643 6H10.0625V0.198242Z" fill="#0A2B58" fill-opacity="0.15"/>
</svg>
