<svg width="16" height="16" viewBox="0 0 16 16" fill="none" xmlns="http://www.w3.org/2000/svg">
<path d="M0.5625 14.4995C0.5625 14.4995 0.5625 14.5 1.5625 14.5V15.5H0.5625V14.4995Z" fill="#F9FAFC"/>
<path d="M11.8367 8.73643L6.91473 13.6579C5.92764 14.6449 4.52678 15.0815 3.50032 15.2869C2.96797 15.3934 2.49132 15.4464 2.14719 15.4728C1.97443 15.4861 1.83327 15.4929 1.73304 15.4964C1.68288 15.4981 1.64283 15.499 1.61405 15.4995L1.57943 15.4999L1.56871 15.5L1.56503 15.5L1.56362 15.5C1.56362 15.5 1.5625 15.5 1.5625 14.5L0.5625 14.4995L0.562503 14.4975L0.562514 14.4938L0.562579 14.4831L0.563012 14.4484C0.563484 14.4197 0.564388 14.3796 0.566118 14.3294C0.569574 14.2292 0.576348 14.088 0.589638 13.9152C0.616113 13.5709 0.668986 13.0941 0.775461 12.5617C0.980739 11.5351 1.41702 10.1339 2.40381 9.14717L7.32562 4.22567L11.8367 8.73643Z" fill="#F9FAFC"/>
<path d="M13.2509 7.32226L15.559 5.01426L15.5624 4.60492C15.5659 4.18477 15.4208 3.66091 15.2322 3.20749C15.0355 2.73445 14.7299 2.18857 14.3018 1.76055C13.8738 1.33254 13.3279 1.02694 12.8548 0.830233C12.4014 0.641688 11.8775 0.49655 11.4573 0.500062L11.048 0.503484L8.73987 2.81151L13.2509 7.32226Z" fill="#F9FAFC"/>
</svg>
