<svg width="109" height="48" viewBox="0 0 109 48" fill="none" xmlns="http://www.w3.org/2000/svg">
<path d="M83.5103 18.9826V9.82781L78.0538 18.745H74.3113L68.8414 9.82781V18.9826H64.6194V3.21875H69.0811L76.2895 14.8471L83.5114 3.21875H87.8465V18.9826H83.5114H83.5103Z" fill="#003994"/>
<path d="M57.2568 9.03956H48.7714C48.4185 9.03956 48.1037 8.91522 47.8382 8.67653C47.612 8.42784 47.4854 8.15362 47.4719 7.85275C47.4854 7.48972 47.612 7.20106 47.8382 6.97902C48.0791 6.74033 48.3681 6.61598 48.7097 6.61598H61.6591V3.21875H48.2437C46.6676 3.21875 45.4332 3.66838 44.5124 4.58097C43.5535 5.51688 43.0752 6.6293 43.0752 7.94046C43.0752 9.25161 43.5546 10.4129 44.5124 11.3754C45.4713 12.3369 46.7181 12.812 48.2437 12.812H57.156C57.548 12.812 57.8628 12.9486 58.1294 13.225C58.3904 13.4771 58.5349 13.8246 58.5304 14.1854C58.5304 14.5606 58.3927 14.8859 58.1148 15.1612C57.837 15.4355 57.4976 15.572 57.0944 15.572H43.968V18.9837H57.259C58.8206 18.9837 60.0931 18.4852 61.089 17.4849C62.0736 16.4979 62.5654 15.3111 62.5654 13.9378C62.5654 12.5645 62.0736 11.4654 61.089 10.4773C60.1323 9.51695 58.8587 9.04178 57.259 9.04178" fill="#003994"/>
<path d="M108.068 6.61709V3.21875H90.5078V18.9837H108.068V15.572H94.834V12.8076H108.068V9.39594H94.8418V6.61709H108.068Z" fill="#003994"/>
<path d="M20.4354 16.8307C21.6844 18.9023 25.0965 21.9321 29.6937 22.1852C32.2836 22.3262 34.7256 21.6734 36.6837 20.2868C39.725 18.274 41.5285 14.8845 41.3213 11.2386C41.1185 7.68036 37.9652 4.57067 34.7895 4.69501C32.9098 4.7694 31.3158 5.70308 30.4364 7.19409C31.7515 7.37727 33.5931 8.1633 34.1353 10.1439C34.6842 12.1578 33.1708 14.2539 31.4558 14.8534C31.4244 14.9134 31.4614 14.9966 31.5488 14.9866C34.0445 14.6769 36.882 12.9749 36.2995 8.50413C36.9716 10.8578 36.5101 13.9297 34.6887 15.9547C33.48 17.297 31.5868 18.2318 29.0272 18.0786C28.8771 18.0708 28.8121 18.2806 28.9992 18.3206C31.6417 18.8857 34.0031 18.0985 35.6767 16.9317C37.6101 15.585 38.6933 13.3546 38.849 11.072C39.1492 14.5392 37.6964 17.6922 33.8586 19.5929C29.5313 21.7378 23.3792 19.9426 20.6964 16.6664C20.4847 16.4088 20.2673 16.552 20.4354 16.8307Z" fill="#003994"/>
<path d="M40.169 5.3736C38.9211 3.30195 35.5079 0.27331 30.9117 0.0190729C28.3219 -0.123034 25.8787 0.530878 23.9218 1.91642C20.8816 3.92922 19.0769 7.31868 19.2842 10.9646C19.4925 14.6261 22.6156 17.6336 25.816 17.5082C27.6968 17.4349 29.2897 16.5023 30.1691 15.0102C28.8551 14.8259 27.0124 14.041 26.4713 12.0604C25.9213 10.0476 27.4358 7.94928 29.1497 7.34866C29.1811 7.29093 29.1452 7.20655 29.0567 7.21654C26.5632 7.52518 23.7235 9.22824 24.3071 13.699C23.6328 11.3443 24.0954 8.27346 25.9168 6.24844C27.1255 4.90509 29.0186 3.97141 31.5783 4.12462C31.7295 4.13239 31.7956 3.92256 31.6074 3.8837C28.9649 3.3175 26.6035 4.10463 24.9311 5.27146C22.9965 6.61925 21.9133 8.84966 21.7564 11.1311C21.4562 7.66396 22.9114 4.51097 26.748 2.60919C31.0764 0.464266 37.2262 2.26169 39.9113 5.53791C40.1208 5.79548 40.3393 5.65115 40.1701 5.37249" fill="#E60021"/>
<path d="M9.83078 10.6149L20.2407 18.9826H14.0853L4.35865 11.4665V18.9826H0V3.21875H4.35865V9.92329L13.3067 3.21875H19.2807L9.83078 10.6138V10.6149Z" fill="#003994"/>
<path d="M7.20588 45.5263C7.93231 45.5263 8.12199 44.8837 8.12199 44.2837C8.12199 43.7304 7.82604 43.2158 7.20588 43.2158C6.58572 43.2158 6.29649 43.7464 6.29649 44.2837C6.29649 44.8757 6.48751 45.5263 7.20588 45.5263ZM7.20588 42.4905C8.28342 42.4905 9.10807 43.2091 9.10807 44.3957C9.10807 45.429 8.40988 46.253 7.20588 46.253C6.00188 46.253 5.31177 45.429 5.31177 44.3957C5.31177 43.2091 6.13506 42.4905 7.20588 42.4905Z" fill="#003994"/>
<path d="M9.73779 42.5718H10.5759V43.3891H10.5907C10.6324 43.0544 11.0198 42.4878 11.5835 42.4878C11.6763 42.4878 11.9158 42.5238 12.0355 42.5878V43.4771C11.9507 43.4291 11.7516 43.3797 11.5835 43.3797C10.8167 43.3797 10.6822 44.329 10.6822 44.8463V46.1649H9.73914V42.5705L9.73779 42.5718Z" fill="#003994"/>
<path d="M14.8474 44.0197C14.8191 43.5651 14.6079 43.1758 14.0792 43.1758C13.5506 43.1758 13.2842 43.5384 13.2425 44.0197H14.8487H14.8474ZM15.481 45.9663C15.1353 46.1543 14.7411 46.253 14.234 46.253C13.0353 46.253 12.3398 45.5677 12.3398 44.389C12.3398 43.3491 12.8954 42.4905 14.0228 42.4905C15.368 42.4905 15.7487 43.4051 15.7487 44.661H13.2412C13.2842 45.2397 13.6918 45.569 14.2757 45.569C14.7344 45.569 15.1285 45.401 15.481 45.2063V45.9676V45.9663Z" fill="#003994"/>
<path d="M17.7025 45.569C17.9917 45.569 18.2164 45.4437 18.3643 45.2477C18.519 45.045 18.5608 44.7864 18.5608 44.5064H18.1531C17.7294 44.5064 17.1025 44.577 17.1025 45.1277C17.1025 45.4357 17.3635 45.5677 17.7011 45.5677M16.5967 42.7625C16.9949 42.5891 17.4227 42.4958 17.8572 42.4905C18.963 42.4905 19.4204 42.9438 19.4204 44.0051V44.4664C19.4204 44.829 19.4284 45.101 19.4338 45.3677C19.4419 45.6396 19.4567 45.8903 19.4769 46.169H18.6455C18.6105 45.9823 18.6105 45.745 18.6038 45.633H18.589C18.3711 46.029 17.8989 46.253 17.4684 46.253C16.8281 46.253 16.2012 45.869 16.2012 45.185C16.2012 44.6477 16.4621 44.333 16.82 44.1597C17.1805 43.9851 17.6446 43.9504 18.0388 43.9504H18.5594C18.5594 43.3704 18.2998 43.1758 17.7428 43.1758C17.3419 43.1758 16.9397 43.3278 16.6236 43.5664L16.5953 42.7638L16.5967 42.7625Z" fill="#003994"/>
<path d="M24.8842 42.1892C24.5681 42.0532 24.2278 41.9812 23.8834 41.9799C23.5457 41.9799 23.1085 42.1252 23.1085 42.6572C23.1085 43.5011 25.2636 43.1465 25.2636 44.7784C25.2636 45.8463 24.4121 46.2517 23.4179 46.2517C22.8825 46.2517 22.3996 46.1637 21.9893 45.9557L22.1157 45.1184C22.4305 45.3837 22.974 45.4837 23.3614 45.4837C23.7488 45.4837 24.2345 45.2957 24.2345 44.8557C24.2345 43.9278 22.0794 44.3118 22.0794 42.6998C22.0794 41.6106 22.9323 41.2119 23.7986 41.2119C24.221 41.2119 24.6165 41.2679 24.9757 41.3866L24.8842 42.1892Z" fill="#003994"/>
<path d="M26.0537 41.2947H27.6317L28.8007 44.9865H28.8155L29.9845 41.2947H31.5612V46.1664H30.6182V42.1453H30.6034L29.2796 46.1664H28.3366L27.0129 42.1453L26.9981 42.1613V46.1678H26.0551V41.296L26.0537 41.2947Z" fill="#003994"/>
<path d="M32.5977 41.2947H35.4994V42.0613H33.5837V43.2626H35.3366V44.0305H33.5837V45.3985H35.5128V46.1664H32.5977V41.2947Z" fill="#003994"/>
<path d="M38.4796 43.3278C38.1904 43.2304 37.9792 43.1744 37.6348 43.1744C37.3805 43.1744 37.0779 43.2651 37.0779 43.5718C37.0779 44.1451 38.7191 43.7811 38.7191 45.0797C38.7191 45.917 37.9657 46.253 37.1976 46.253C36.8357 46.2476 36.4765 46.1956 36.1281 46.0996L36.1846 45.3303C36.4806 45.477 36.79 45.569 37.1142 45.569C37.3536 45.569 37.7343 45.477 37.7343 45.129C37.7343 44.425 36.0918 44.9064 36.0918 43.6078C36.0918 42.8331 36.7752 42.4905 37.5137 42.4905C37.9577 42.4905 38.2469 42.5611 38.5428 42.6225L38.4783 43.3278H38.4796Z" fill="#003994"/>
<path d="M81.7131 43.3278C81.4239 43.2304 81.2127 43.1744 80.8683 43.1744C80.6141 43.1744 80.3114 43.2651 80.3114 43.5718C80.3114 44.1451 81.9539 43.7811 81.9539 45.0797C81.9539 45.917 81.1992 46.253 80.4325 46.253C80.0706 46.2476 79.7114 46.1956 79.363 46.0996L79.4195 45.3303C79.7141 45.477 80.0248 45.569 80.349 45.569C80.5885 45.569 80.9692 45.477 80.9692 45.129C80.9692 44.425 79.3267 44.9064 79.3267 43.6078C79.3267 42.8331 80.01 42.4905 80.7486 42.4905C81.1925 42.4905 81.4818 42.5611 81.7777 42.6225L81.7131 43.3278Z" fill="#003994"/>
<path d="M57.6452 42.1892C57.329 42.0532 56.9901 41.9812 56.6457 41.9799C56.308 41.9799 55.8708 42.1252 55.8708 42.6572C55.8708 43.5011 58.0246 43.1465 58.0246 44.7784C58.0246 45.8463 57.173 46.2517 56.1789 46.2517C55.6435 46.2517 55.404 46.181 54.9184 46.0637L55.0098 45.1837C55.3488 45.365 55.7349 45.4837 56.121 45.4837C56.5071 45.4837 56.9954 45.2957 56.9954 44.8557C56.9954 43.9278 54.8403 44.3118 54.8403 42.6998C54.8403 41.6106 55.6919 41.2119 56.5596 41.2119C56.982 41.2119 57.3761 41.2679 57.7353 41.3866L57.6438 42.1892H57.6452Z" fill="#003994"/>
<path d="M58.962 43.2581H58.2651V42.5741H58.962V41.8542L59.9063 41.5542V42.5728H60.7458V43.2568H59.9063V44.9327C59.9063 45.2393 59.9898 45.526 60.3503 45.526C60.5198 45.526 60.6812 45.49 60.7794 45.4273L60.809 46.1673C60.5816 46.2273 60.3462 46.2553 60.1108 46.2513C59.3709 46.2513 58.962 45.798 58.962 45.0847V43.2554V43.2581Z" fill="#003994"/>
<path d="M62.6965 45.569C62.9857 45.569 63.2117 45.4437 63.3584 45.2477C63.5131 45.045 63.5548 44.7864 63.5548 44.5064H63.1471C62.7261 44.5064 62.0979 44.577 62.0979 45.1277C62.0979 45.4357 62.3588 45.5677 62.6965 45.5677M61.5907 42.7625C61.9875 42.5891 62.4167 42.4958 62.8512 42.4905C63.957 42.4905 64.4144 42.9438 64.4144 44.0051V44.4664C64.4144 44.829 64.4225 45.101 64.4292 45.3677C64.4359 45.6396 64.4507 45.8903 64.4722 46.169H63.6409C63.6059 45.9823 63.6059 45.745 63.5978 45.633H63.583C63.3651 46.029 62.8929 46.253 62.4638 46.253C61.8234 46.253 61.1965 45.869 61.1965 45.185C61.1965 44.6477 61.4575 44.333 61.8167 44.1597C62.1772 43.9851 62.6413 43.9504 63.0355 43.9504H63.5561C63.5561 43.3704 63.2965 43.1758 62.7395 43.1758C62.3386 43.1758 61.9364 43.3278 61.6203 43.5664L61.592 42.7638L61.5907 42.7625Z" fill="#003994"/>
<path d="M42.6355 45.569C42.926 45.569 43.1507 45.4437 43.2973 45.2477C43.452 45.045 43.4937 44.7864 43.4937 44.5064H43.0861C42.6637 44.5064 42.0368 44.577 42.0368 45.1277C42.0368 45.4357 42.2978 45.5677 42.6341 45.5677M41.5297 42.7625C41.9265 42.5891 42.3556 42.4958 42.7902 42.4905C43.896 42.4905 44.3547 42.9438 44.3547 44.0051V44.4664C44.3547 44.829 44.3628 45.101 44.3681 45.3677C44.3762 45.6396 44.3897 45.8903 44.4112 46.169H43.5798C43.5449 45.9823 43.5448 45.745 43.5381 45.633H43.5233C43.3054 46.029 42.8332 46.253 42.4027 46.253C41.7624 46.253 41.1355 45.869 41.1355 45.185C41.1355 44.6477 41.3978 44.333 41.7557 44.1597C42.1162 43.9851 42.5803 43.9504 42.9745 43.9504H43.4951C43.4951 43.3704 43.2341 43.1758 42.6772 43.1758C42.2776 43.1758 41.8754 43.3278 41.5579 43.5664L41.5297 42.7638V42.7625Z" fill="#003994"/>
<path d="M65.1079 42.5718H65.9447V43.3891H65.9594C66.0012 43.0544 66.3886 42.4878 66.9522 42.4878C67.0437 42.4878 67.1419 42.4878 67.2415 42.5158V43.4024C67.154 43.3797 66.9872 43.3704 66.8191 43.3797C66.0213 43.4264 66.0509 44.329 66.0509 44.8463V46.1649H65.1079V42.5705V42.5718Z" fill="#003994"/>
<path d="M68.4017 43.2581H67.7048V42.5741H68.4017V41.8542L69.3461 41.5542V42.5728H70.1841V43.2568H69.3461V44.9327C69.3461 45.2393 69.4294 45.526 69.79 45.526C69.9581 45.526 70.1209 45.49 70.2191 45.4273L70.2474 46.1673C70.02 46.2273 69.7859 46.2553 69.5505 46.2513C68.8106 46.2513 68.403 45.798 68.403 45.0847V43.2554L68.4017 43.2581Z" fill="#003994"/>
<path d="M74.3222 46.1691H73.4276V45.6811H73.4128C73.1236 46.0291 72.7146 46.2531 72.2222 46.2531C71.3626 46.2531 70.99 45.6531 70.99 44.8425V42.5732H71.933V44.4931C71.933 44.9331 71.9411 45.5264 72.5464 45.5264C73.2298 45.5264 73.3778 44.7931 73.3778 44.3318V42.5732H74.3222V46.1677V46.1691Z" fill="#003994"/>
<path d="M76.1398 44.361C76.1398 44.8717 76.3429 45.5277 76.9698 45.5277C77.5967 45.5277 77.7662 44.857 77.7662 44.361C77.7662 43.8651 77.5981 43.2158 76.9846 43.2158C76.3712 43.2158 76.1398 43.8584 76.1398 44.361ZM75.1887 42.5731H76.0914V43.0838H76.1048C76.316 42.7345 76.6752 42.4905 77.2322 42.4905C78.3447 42.4905 78.7523 43.3704 78.7523 44.361C78.7523 45.3517 78.3447 46.253 77.2106 46.253C76.8098 46.253 76.4788 46.1543 76.1479 45.757H76.1331V47.6342H75.1887V42.5731Z" fill="#003994"/>
<path d="M51.3265 44.3711C51.3265 43.8725 51.1274 43.2299 50.514 43.2299C49.9006 43.2299 49.7351 43.8845 49.7351 44.3711C49.7351 44.8578 49.9006 45.4911 50.4992 45.4911C51.0978 45.4911 51.3265 44.8618 51.3265 44.3711ZM52.3126 46.1697H51.4099V45.6604H51.3951C51.1853 46.0084 50.8261 46.2524 50.2692 46.2524C49.1566 46.2524 48.749 45.3738 48.749 44.3831C48.749 43.3925 49.1566 42.4899 50.2907 42.4899C50.6916 42.4899 51.0225 42.5886 51.3534 42.9872H51.3669V41.1086H52.3126V46.1684V46.1697Z" fill="#003994"/>
<path d="M85.9551 42.2733H85.9403L85.2287 44.2839H86.6654L85.9538 42.2733H85.9551ZM85.4116 41.2947H86.5241L88.4546 46.1664H87.3622L86.9398 45.0505H84.9462L84.517 46.1664H83.4946L85.4116 41.2947Z" fill="#003994"/>
<path d="M91.2866 44.3317C91.2866 43.7184 91.0471 43.2158 90.4982 43.2158C89.8579 43.2158 89.6534 43.8024 89.6534 44.353C89.6534 44.8423 89.9144 45.4423 90.4565 45.4423C91.0484 45.4423 91.2866 44.9317 91.2866 44.333M92.2309 42.5731V45.8196C92.2309 46.7969 91.8368 47.7169 90.3153 47.7169C89.9413 47.7169 89.5108 47.6609 89.0615 47.4729L89.1382 46.6769C89.4274 46.8302 89.8983 46.9916 90.1956 46.9916C91.2368 46.9916 91.2866 46.2156 91.2866 45.5956H91.2718C91.0969 45.9023 90.6731 46.1676 90.1458 46.1676C89.075 46.1676 88.666 45.317 88.666 44.3517C88.666 43.4864 89.1167 42.4878 90.2023 42.4878C90.6812 42.4878 91.0538 42.6478 91.3148 43.0611H91.3283V42.5718H92.2309V42.5731Z" fill="#003994"/>
<path d="M95.3713 44.0197C95.3431 43.5651 95.1319 43.1758 94.6032 43.1758C94.0745 43.1758 93.8068 43.5384 93.7651 44.0197H95.3713ZM96.0049 45.9663C95.6605 46.1543 95.2664 46.253 94.7592 46.253C93.5606 46.253 92.8638 45.5677 92.8638 44.389C92.8638 43.3491 93.4207 42.4905 94.5467 42.4905C95.8919 42.4905 96.2726 43.4051 96.2726 44.661H93.7637C93.8068 45.2397 94.2144 45.569 94.7996 45.569C95.2583 45.569 95.6525 45.401 96.0036 45.2063V45.9676L96.0049 45.9663Z" fill="#003994"/>
<path d="M96.9077 42.5718H97.8009V43.0598H97.8158C98.1117 42.6491 98.5126 42.4878 99.0063 42.4878C99.8646 42.4878 100.239 43.0864 100.239 43.8971V46.1676H99.2955V44.2477C99.2955 43.8077 99.2875 43.2144 98.6821 43.2144C97.9987 43.2144 97.8507 43.9477 97.8507 44.4077V46.1663H96.9077V42.5718Z" fill="#003994"/>
<path d="M44.9533 42.5718H45.8465V43.0598H45.8613C46.1559 42.6491 46.5581 42.4878 47.0505 42.4878C47.9101 42.4878 48.2828 43.0864 48.2828 43.8971V46.1676H47.3397V44.2477C47.3397 43.8077 47.3317 43.2144 46.7263 43.2144C46.0429 43.2144 45.8949 43.9477 45.8949 44.4077V46.1663H44.9519V42.5718H44.9533Z" fill="#003994"/>
<path d="M103.264 43.3477C103.096 43.2704 102.913 43.2158 102.624 43.2158C102.04 43.2158 101.666 43.6771 101.666 44.353C101.666 45.029 101.984 45.5263 102.645 45.5263C102.913 45.5263 103.208 45.4276 103.371 45.3583L103.414 46.1329C103.139 46.2169 102.857 46.2516 102.469 46.2516C101.28 46.2516 100.681 45.449 100.681 44.3517C100.681 43.3118 101.302 42.4878 102.436 42.4878C102.815 42.4878 103.089 42.5291 103.35 42.6065L103.266 43.3464L103.264 43.3477Z" fill="#003994"/>
<path d="M105.636 45.1984H105.651L106.523 42.5732H107.481L106.122 46.1397C105.819 46.9357 105.601 47.7183 104.615 47.7183C104.389 47.7183 104.163 47.685 103.947 47.621L104.01 46.929C104.13 46.9703 104.264 46.993 104.497 46.993C104.876 46.993 105.109 46.7344 105.109 46.3504L103.722 42.5732H104.763L105.636 45.1984Z" fill="#003994"/>
<path d="M91.5578 30.2048H89.9704V32.6594H86.7014V33.5873H96.8002V32.6594H91.5578V30.2048Z" fill="#003994"/>
<path d="M106.637 30.2275V27.7183H105.048V35.1819H106.637V31.1568H108.25V30.2275H106.637Z" fill="#003994"/>
<path d="M44.0854 28.826H47.4377V29.4753C47.4377 30.9339 46.9951 33.1578 43.9993 34.2444V35.2883C48.1803 34.1644 49.2027 31.3072 49.2027 29.7713V27.8967H44.084V28.826H44.0854Z" fill="#003994"/>
<path d="M103.427 33.3662V32.437H100.61C100.033 32.437 99.566 31.9743 99.566 31.401V28.8238H103.428V27.8945H97.9773V31.3704C97.9773 32.4716 98.8773 33.3649 99.9884 33.3649H103.427V33.3662Z" fill="#003994"/>
<path d="M93.959 30.7699C93.959 31.1899 93.8272 31.5805 93.6025 31.9019H95.1899C95.4146 31.5805 95.5464 31.1899 95.5464 30.7699V27.8967H87.6619V28.826H93.9577V30.7712L93.959 30.7699Z" fill="#003994"/>
<path d="M100.611 36.5134V34.8535H99.0212V36.4814C99.0212 37.5827 99.9212 38.476 101.032 38.476H106.848V37.548H101.654C101.077 37.548 100.61 37.0841 100.61 36.5134" fill="#003994"/>
<path d="M91.7503 38.0946C90.7561 38.0946 89.9503 37.364 89.9503 36.4613C89.9503 35.5587 90.7561 34.8268 91.7503 34.8268C92.7444 34.8268 93.5502 35.5587 93.5502 36.4613C93.5502 37.364 92.7444 38.0946 91.7503 38.0946ZM91.7503 33.9001C89.879 33.9001 88.3616 35.0468 88.3616 36.4627C88.3616 37.8786 89.879 39.0239 91.7503 39.0239C93.6215 39.0239 95.139 37.8773 95.139 36.4627C95.139 35.0481 93.6215 33.9001 91.7503 33.9001Z" fill="#003994"/>
<path d="M17.233 33.6782H15.6443V36.4501H10.8296V37.378H22.049V36.4501H17.233V33.6782Z" fill="#003994"/>
<path d="M7.14866 36.4619C7.14866 37.3645 6.34286 38.0938 5.34872 38.0938C4.35458 38.0938 3.54877 37.3645 3.54877 36.4619C3.54877 35.5593 4.35458 34.8273 5.34872 34.8273C6.34286 34.8273 7.14866 35.5579 7.14866 36.4619ZM0 33.3127H4.55368V33.9727C3.06583 34.2433 1.96003 35.2526 1.96003 36.4619C1.96003 37.8765 3.47747 39.0231 5.34872 39.0231C7.21996 39.0231 8.73742 37.8765 8.73742 36.4619C8.73742 35.254 7.63161 34.2447 6.14377 33.9727V33.3127H10.6961V32.3848H0V33.3127Z" fill="#003994"/>
<path d="M76.0044 33.5874H86.1032V32.6594H76.0044V33.5874Z" fill="#003994"/>
<path d="M81.0525 38.0946C80.057 38.0946 79.2526 37.364 79.2526 36.4613C79.2526 35.5587 80.0584 34.8268 81.0525 34.8268C82.0466 34.8268 82.8525 35.5587 82.8525 36.4613C82.8525 37.364 82.0466 38.0946 81.0525 38.0946ZM81.0525 33.9001C79.1813 33.9001 77.6638 35.0468 77.6638 36.4627C77.6638 37.8786 79.1813 39.0239 81.0525 39.0239C82.9237 39.0239 84.4412 37.8773 84.4412 36.4627C84.4412 35.0481 82.9237 33.9001 81.0525 33.9001Z" fill="#003994"/>
<path d="M81.0522 31.4206C80.2249 31.4206 79.5563 30.8272 79.5563 30.0966C79.5563 29.366 80.2249 28.7714 81.0522 28.7714C81.8796 28.7714 82.5495 29.3647 82.5495 30.0966C82.5495 30.8286 81.8796 31.4206 81.0522 31.4206ZM77.9662 30.154C77.9662 31.3672 79.3492 32.3498 81.0522 32.3498C82.7553 32.3498 84.1383 31.3672 84.1383 30.154C84.1383 29.6793 83.9244 29.2407 83.5638 28.882H84.8916V27.9527H81.8473V27.3154H80.2572V27.9527H77.0071V28.882H78.5407C78.1801 29.2407 77.9649 29.6793 77.9649 30.154" fill="#003994"/>
<path d="M74.3908 27.7156H72.802V35.1792H74.3908V27.7156Z" fill="#003994"/>
<path d="M57.2915 32.4523C56.479 32.4523 55.8171 31.575 55.8171 30.491C55.8171 29.4071 56.479 28.5338 57.2915 28.5338C58.104 28.5338 58.7673 29.4098 58.7673 30.491C58.7673 31.5723 58.1054 32.4523 57.2915 32.4523ZM62.0335 29.6338H60.2148C59.8246 28.4605 58.6637 27.6099 57.2915 27.6099C55.6005 27.6099 54.2297 28.9031 54.2297 30.499C54.2297 32.095 55.6005 33.3909 57.2915 33.3909C58.9825 33.3909 60.317 32.1296 60.3506 30.5617H62.0335V33.5976H63.6236V27.7179H62.0335V29.6338Z" fill="#003994"/>
<path d="M68.3659 36.5134V34.8535H66.7771V36.4814C66.7771 37.5827 67.6757 38.4747 68.7869 38.476H74.6024V37.548H69.4098C68.8327 37.548 68.3659 37.0841 68.3659 36.5134Z" fill="#003994"/>
<path d="M25.5062 36.5134V34.8535H23.9175V36.4814C23.9175 37.5827 24.8161 38.4747 25.9273 38.476H31.7428V37.548H26.5488C25.9717 37.548 25.5062 37.0841 25.5062 36.5134Z" fill="#003994"/>
<path d="M58.875 37.548C58.2992 37.548 57.831 37.084 57.831 36.5134V36.3427H62.0336V37.548H58.875ZM62.0336 35.4147H57.831V34.2095H56.2437V36.48C56.2437 37.5813 57.1436 38.4733 58.2535 38.4746H63.6224V34.2095H62.0336V35.4147Z" fill="#003994"/>
<path d="M68.4005 31.2246C68.9426 32.2232 69.9206 33.2365 71.6896 33.7791V32.7498C69.4767 31.7045 69.2574 29.9193 69.2574 29.0807V28.826H71.4017V27.8967H65.4019V28.826H67.5422V29.0807C67.5449 29.9193 67.3243 31.7045 65.1113 32.7498V33.7791C66.8803 33.2365 67.8583 32.2232 68.4005 31.2246Z" fill="#003994"/>
<path d="M5.34706 29.9301C6.0291 30.7088 7.26137 31.582 9.46623 31.962V30.9194C7.16989 30.4741 6.38964 29.2702 6.13135 28.6449H9.29V27.7156H1.40682V28.6449H4.56278C4.30449 29.2702 3.52425 30.4728 1.22925 30.9194V31.962C3.43412 31.582 4.66636 30.7088 5.34706 29.9301Z" fill="#003994"/>
<path d="M51.1907 38.4724H52.7794V27.7156H51.1907V38.4724Z" fill="#003994"/>
<path d="M24.4083 32.6793C24.0289 32.6793 23.7209 32.3754 23.7209 31.998V30.8074H25.3917V32.6793H24.4083ZM26.8096 33.6086V30.8074H27.9396V35.1819H29.3575V27.7183H27.9396V29.8795H26.8096V27.8983H25.3917V29.8795H23.7209V27.8983H22.303V32.2954C22.303 33.0193 22.8949 33.6073 23.6267 33.6073H26.8082L26.8096 33.6086Z" fill="#003994"/>
<path d="M31.5312 27.7156H30.1133V35.1792H31.5312V27.7156Z" fill="#003994"/>
<path d="M40.9305 30.3021H38.8992V31.2314H40.9305V38.475H42.5179V27.7183H40.9305V30.3021Z" fill="#003994"/>
<path d="M37.181 30.3819V29.4607H39.3253V28.5314H37.181V27.5901H35.5304V28.5314H33.3228V29.4607H35.529V30.3819C35.529 31.0672 35.2788 33.2511 33.0349 34.2791V35.2897C34.66 34.8097 35.7268 33.8924 36.355 32.8618C36.9832 33.8924 38.05 34.8097 39.6751 35.2897V34.2791C37.4312 33.2525 37.1823 31.0672 37.1823 30.3819" fill="#003994"/>
<path d="M16.4391 30.9779C17.2893 32.4352 18.8403 33.5431 20.7963 34.0684V32.9191C18.5309 32.0618 17.2839 30.4859 17.2866 28.33V27.8967H15.5889V28.33C15.5942 30.4859 14.3458 32.0618 12.0818 32.9191V34.0684C14.0364 33.5431 15.5875 32.4352 16.4391 30.9779Z" fill="#003994"/>
<path d="M1.32898 41.2947H2.31506V43.3892L4.08944 41.2947H5.30016L3.27959 43.5919L5.38491 46.1678H4.09617L2.3285 43.9052H2.31371V46.1678H1.32764V41.296L1.32898 41.2947Z" fill="#003994"/>
</svg>
