<?xml version="1.0" encoding="utf-8"?>
<!-- Generator: Adobe Illustrator 27.0.0, SVG Export Plug-In . SVG Version: 6.00 Build 0)  -->
<svg version="1.1" id="Layer_1" xmlns="http://www.w3.org/2000/svg" xmlns:xlink="http://www.w3.org/1999/xlink" x="0px" y="0px"
	 viewBox="0 0 99.21 28.35" style="enable-background:new 0 0 99.21 28.35;" xml:space="preserve">
<style type="text/css">
	.st0{fill:#0046FF;}
</style>
<g>
	<path class="st0" d="M0,20.17h15.99c0.06-1.69,0.14-3.78,0.17-5.91H2.76v-3.12h13.48c0.03-1.6,0.03-3.07,0.03-4.25V6H2.9V2.9h17.32
		v2.93c0,3.78-0.25,10.47-0.47,14.34h3.73v3.09H0V20.17z"/>
	<path class="st0" d="M26.63,10.17h5.44V5.58h-5.44V2.46h9.25v10.83h-5.44v4.89h6.82v3.12H26.63V10.17z M42.62,1.16v23.95
		c-0.64,0.58-2.57,1.35-3.54,1.52V13.21h-2.38v-3.18h2.38V1.16H42.62z M47.84,1.02v24.36c-0.64,0.58-2.65,1.35-3.62,1.52V1.02H47.84
		z"/>
	<path class="st0" d="M52.07,2.63h12.35v3.12h-8.43v11.71h10.58v3.12h-14.5V2.63z M71.96,25.39c-0.64,0.58-2.9,1.35-3.87,1.52V1.02
		h3.87V25.39z"/>
	<path d="M75.73,15.83h23.48v3.09h-5.36v6.88c-0.64,0.58-3.01,1.35-3.98,1.52v-8.4H85.1v6.88c-0.64,0.58-3.01,1.35-3.98,1.52v-8.4
		h-5.39V15.83z M78.69,13.48V1.6h3.92v3.15h9.72V1.6h3.92v11.88H78.69z M92.33,10.36V7.88h-9.72v2.49H92.33z"/>
</g>
</svg>
