<svg width="24" height="24" viewBox="0 0 24 24" fill="none" xmlns="http://www.w3.org/2000/svg">
<g clip-path="url(#clip0_1184_4516)">
<path fill-rule="evenodd" clip-rule="evenodd" d="M7 3H17C17.5523 3 18 3.44772 18 4V20C18 20.5523 17.5523 21 17 21H7C6.44772 21 6 20.5523 6 20V4C6 3.44772 6.44772 3 7 3ZM5 4C5 2.89543 5.89543 2 7 2H17C18.1046 2 19 2.89543 19 4V20C19 21.1046 18.1046 22 17 22H7C5.89543 22 5 21.1046 5 20V4ZM10 18.5C9.72386 18.5 9.5 18.7239 9.5 19C9.5 19.2761 9.72386 19.5 10 19.5H14C14.2761 19.5 14.5 19.2761 14.5 19C14.5 18.7239 14.2761 18.5 14 18.5H10Z" fill="#333333"/>
<path d="M7 5C7 4.44772 7.44772 4 8 4H16C16.5523 4 17 4.44772 17 5V16C17 16.5523 16.5523 17 16 17H8C7.44772 17 7 16.5523 7 16V5Z"  fill="black" fill-opacity="0.1"/>
</g>
<defs>
<clipPath id="clip0_1184_4516">
<rect width="24" height="24" fill="white"/>
</clipPath>
</defs>
</svg>
