<svg width="24" height="24" viewBox="0 0 24 24" fill="none" xmlns="http://www.w3.org/2000/svg">
<g clip-path="url(#clip0_1184_4521)">
<path d="M3.965 4.875L3.5 6.59375L12.125 12L20.5625 6.59375L20.285 4.875" fill="black" fill-opacity="0.1"/>
<path fill-rule="evenodd" clip-rule="evenodd" d="M5 5H19C19.5523 5 20 5.44772 20 6V6.39913L12.0025 11.4085L4 6.30244V6C4 5.44772 4.44772 5 5 5ZM4 7.48866V18C4 18.5523 4.44772 19 5 19H19C19.5523 19 20 18.5523 20 18V7.5791L12.2655 12.4238C12.1019 12.5263 11.8939 12.5254 11.7311 12.4216L4 7.48866ZM21 6.83055V18C21 19.1046 20.1046 20 19 20H5C3.89543 20 3 19.1046 3 18V6C3 4.89543 3.89543 4 5 4H19C20.1046 4 21 4.89543 21 6V6.48187C21.0427 6.59626 21.041 6.72013 21 6.83055Z" fill="#333333"/>
</g>
<defs>
<clipPath id="clip0_1184_4521">
<rect width="24" height="24" fill="white"/>
</clipPath>
</defs>
</svg>
