<svg width="36" height="37" viewBox="0 0 36 37" fill="none" xmlns="http://www.w3.org/2000/svg">
<rect y="0.5" width="36" height="36" rx="18" fill="#42A1FF" fill-opacity="0.1"/>
<path fill-rule="evenodd" clip-rule="evenodd" d="M21.7722 14.0704C21.7722 16.1138 20.0347 17.8036 17.8492 17.8036C15.6637 17.8036 13.9263 16.1138 13.9263 14.0704C13.9263 12.027 15.6637 10.3372 17.8492 10.3372C20.0347 10.3372 21.7722 12.027 21.7722 14.0704ZM17.8492 18.6408C20.488 18.6408 22.6272 16.5946 22.6272 14.0704C22.6272 11.5462 20.488 9.5 17.8492 9.5C15.2104 9.5 13.0713 11.5462 13.0713 14.0704C13.0713 16.5946 15.2104 18.6408 17.8492 18.6408ZM11.2656 22.6979C12.1703 21.8325 13.3995 21.3446 14.6832 21.3446H21.3168C22.6005 21.3446 23.8297 21.8325 24.7344 22.6979C25.6388 23.563 26.145 24.7343 26.145 25.9534V27.0814C26.145 27.3126 26.3364 27.5 26.5725 27.5C26.8086 27.5 27 27.3126 27 27.0814V25.9534C27 24.5058 26.3987 23.1196 25.3319 22.0991C24.2653 21.0788 22.8209 20.5074 21.3168 20.5074H14.6832C13.1791 20.5074 11.7347 21.0788 10.6681 22.0991C9.60126 23.1196 9 24.5058 9 25.9534V27.0814C9 27.3126 9.1914 27.5 9.4275 27.5C9.6636 27.5 9.855 27.3126 9.855 27.0814V25.9534C9.855 24.7343 10.3612 23.563 11.2656 22.6979Z" fill="#42A1FF"/>
</svg>
