<svg width="36" height="36" viewBox="0 0 36 36" fill="none" xmlns="http://www.w3.org/2000/svg">
<rect width="36" height="36" rx="18" fill="#8093FD" fill-opacity="0.08"/>
<path fill-rule="evenodd" clip-rule="evenodd" d="M12 10H24C25.1046 10 26 10.8954 26 12V21C26 22.1046 25.1046 23 24 23H12C10.8954 23 10 22.1046 10 21V12C10 10.8954 10.8954 10 12 10ZM9 12C9 10.3431 10.3431 9 12 9H24C25.6569 9 27 10.3431 27 12V21C27 22.6569 25.6569 24 24 24H18.5V26H22C22.2761 26 22.5 26.2239 22.5 26.5C22.5 26.7761 22.2761 27 22 27H14C13.7239 27 13.5 26.7761 13.5 26.5C13.5 26.2239 13.7239 26 14 26H17.5V24H12C10.3431 24 9 22.6569 9 21V12ZM18.4965 13.5C18.4965 13.2239 18.2727 13 17.9965 13C17.7204 13 17.4965 13.2239 17.4965 13.5V18.7314L15.8546 17.0731C15.66 16.8772 15.3434 16.8762 15.1475 17.0709C14.9517 17.2656 14.9507 17.5821 15.1454 17.778L17.6419 20.2962C17.7357 20.3907 17.8634 20.4438 17.9965 20.4438C18.1297 20.4438 18.2573 20.3907 18.3512 20.2962L20.8477 17.778C21.0424 17.5821 21.0414 17.2656 20.8455 17.0709C20.6496 16.8762 20.3331 16.8772 20.1384 17.0731L18.4965 18.7314V13.5Z" fill="#8093FD"/>
</svg>
