<svg width="40" height="40" viewBox="0 0 40 40" fill="none" xmlns="http://www.w3.org/2000/svg">
<rect x="7.95703" y="4.20972" width="24.2857" height="27.1429" rx="2.14286" fill="#B3CEFB"/>
<rect x="5.22607" y="6.94092" width="24.2857" height="27.1429" rx="2.14286" fill="url(#paint0_linear_1111_32258)"/>
<rect x="20.3405" y="12.25" width="3.78342" height="8.63191" rx="0.47757" fill="#6B96F7" stroke="white" stroke-width="0.147059"/>
<rect x="15.0881" y="15.4821" width="3.78342" height="5.39958" rx="0.47757" fill="#88AEF9" stroke="white" stroke-width="0.147059"/>
<rect x="9.83516" y="17.4621" width="3.78342" height="3.41974" rx="0.47757" fill="#67C3FD" stroke="white" stroke-width="0.147059"/>
<rect x="10.313" y="24.4446" width="13.7374" height="1.21212" rx="0.606061" fill="#ACCBFF"/>
<rect x="10.313" y="28.0811" width="8.48485" height="1.21212" rx="0.606061" fill="#ACCBFF"/>
<path d="M29.5777 26.0846C29.5157 25.844 29.2929 25.6753 29.0374 25.6753C28.7818 25.6753 28.5591 25.844 28.4971 26.0846C28.1681 27.3616 27.6885 28.2656 27.006 28.9278C26.3234 29.5901 25.3918 30.0554 24.0757 30.3746C23.8277 30.4348 23.6538 30.6509 23.6538 30.8989C23.6538 31.1468 23.8277 31.363 24.0757 31.4231C25.3918 31.7423 26.3234 32.2076 27.006 32.8699C27.6885 33.5322 28.1681 34.4361 28.4971 35.7131C28.5591 35.9537 28.7818 36.1224 29.0374 36.1224C29.2929 36.1224 29.5157 35.9537 29.5777 35.7131C29.9067 34.4361 30.3862 33.5322 31.0688 32.8699C31.7513 32.2076 32.683 31.7423 33.9991 31.4231C34.247 31.363 34.4209 31.1468 34.4209 30.8989C34.4209 30.6509 34.247 30.4348 33.9991 30.3746C32.683 30.0554 31.7513 29.5901 31.0688 28.9278C30.3862 28.2656 29.9067 27.3616 29.5777 26.0846Z" fill="#4E7AD9"/>
<path d="M34.7758 23.2023C34.7138 22.9617 34.491 22.793 34.2355 22.793C33.9799 22.793 33.7572 22.9617 33.6952 23.2023C33.5253 23.8617 33.2844 24.3025 32.9599 24.6174C32.6354 24.9323 32.1811 25.166 31.5014 25.3308C31.2535 25.391 31.0796 25.6071 31.0796 25.8551C31.0796 26.103 31.2535 26.3192 31.5014 26.3793C32.1811 26.5442 32.6354 26.7779 32.9599 27.0927C33.2844 27.4076 33.5253 27.8484 33.6952 28.5078C33.7572 28.7484 33.9799 28.9172 34.2355 28.9172C34.491 28.9172 34.7138 28.7484 34.7758 28.5078C34.9457 27.8484 35.1865 27.4076 35.5111 27.0927C35.8356 26.7779 36.2899 26.5442 36.9695 26.3793C37.2174 26.3192 37.3914 26.103 37.3914 25.8551C37.3914 25.6071 37.2174 25.391 36.9695 25.3308C36.2899 25.166 35.8356 24.9323 35.5111 24.6174C35.1865 24.3025 34.9457 23.8617 34.7758 23.2023Z" fill="#81A9FC"/>
<path d="M34.2512 34.0536C34.1892 33.813 33.9664 33.6443 33.7109 33.6443C33.4553 33.6443 33.2326 33.813 33.1706 34.0536C33.0935 34.3528 32.9919 34.5234 32.8762 34.6356C32.7605 34.7479 32.5847 34.8465 32.2763 34.9213C32.0284 34.9814 31.8545 35.1976 31.8545 35.4455C31.8545 35.6935 32.0284 35.9096 32.2763 35.9698C32.5847 36.0445 32.7605 36.1432 32.8762 36.2554C32.9919 36.3677 33.0935 36.5383 33.1706 36.8374C33.2326 37.078 33.4553 37.2467 33.7109 37.2467C33.9664 37.2467 34.1892 37.078 34.2512 36.8374C34.3283 36.5383 34.4299 36.3677 34.5456 36.2554C34.6613 36.1432 34.8371 36.0445 35.1455 35.9698C35.3934 35.9096 35.5673 35.6935 35.5673 35.4455C35.5673 35.1976 35.3934 34.9814 35.1455 34.9213C34.8371 34.8465 34.6613 34.7479 34.5456 34.6356C34.4299 34.5234 34.3283 34.3528 34.2512 34.0536Z" fill="#B3CEFB"/>
<defs>
<linearGradient id="paint0_linear_1111_32258" x1="41" y1="-15" x2="8.96085" y2="34.6204" gradientUnits="userSpaceOnUse">
<stop stop-color="white"/>
<stop offset="1" stop-color="#D7E5FF"/>
</linearGradient>
</defs>
</svg>
