<svg width="320" height="302" viewBox="0 0 320 302" fill="none" xmlns="http://www.w3.org/2000/svg">
<g clip-path="url(#clip0_4193_12788)">
<path d="M267.153 117.568C267.409 118.027 267.662 118.487 267.912 118.949H267.913L267.682 119.075C267.931 119.535 268.177 119.997 268.42 120.46L268.653 120.337C268.897 120.802 269.137 121.268 269.375 121.736L269.142 121.855C269.379 122.322 269.614 122.791 269.846 123.262L270.08 123.145C270.312 123.616 270.542 124.088 270.768 124.562L270.532 124.676C270.758 125.148 270.979 125.622 271.198 126.098L271.436 125.987C271.656 126.464 271.871 126.943 272.085 127.423L271.847 127.528C272.06 128.007 272.271 128.488 272.478 128.97L272.717 128.866C272.924 129.348 273.128 129.831 273.329 130.316L273.089 130.417C273.289 130.9 273.487 131.385 273.681 131.871L273.923 131.774C274.118 132.262 274.31 132.75 274.498 133.24L274.255 133.335C274.443 133.824 274.628 134.315 274.81 134.807L275.055 134.716C275.237 135.207 275.415 135.7 275.591 136.194L275.345 136.283C275.52 136.776 275.692 137.27 275.861 137.766L276.109 137.681C276.278 138.178 276.445 138.676 276.608 139.176L276.358 139.258C276.52 139.756 276.68 140.257 276.836 140.758L277.087 140.679C277.243 141.178 277.397 141.679 277.546 142.182L277.293 142.258C277.442 142.759 277.589 143.262 277.732 143.766L277.985 143.693C278.128 144.198 278.269 144.704 278.405 145.212L278.152 145.281C278.288 145.787 278.421 146.295 278.551 146.804L278.806 146.739C278.936 147.246 279.062 147.754 279.185 148.264L278.93 148.325C279.053 148.834 279.173 149.344 279.289 149.854L279.544 149.796C279.661 150.308 279.775 150.821 279.885 151.335L279.629 151.391C279.739 151.903 279.846 152.416 279.949 152.931L280.206 152.879C280.309 153.392 280.409 153.906 280.506 154.421L280.249 154.47C280.346 154.984 280.439 155.499 280.53 156.016L280.785 155.971C280.876 156.488 280.963 157.007 281.047 157.526L280.789 157.568C280.873 158.085 280.953 158.603 281.03 159.122L281.287 159.084C281.364 159.602 281.438 160.12 281.508 160.64L281.249 160.675C281.319 161.193 281.386 161.712 281.449 162.232L281.707 162.201C281.771 162.723 281.831 163.245 281.888 163.769L281.629 163.797C281.686 164.317 281.739 164.839 281.789 165.361L282.048 165.336C282.098 165.856 282.144 166.378 282.188 166.9L281.928 166.922C281.971 167.443 282.011 167.966 282.048 168.489L282.308 168.471C282.345 168.995 282.378 169.521 282.408 170.047L282.148 170.062C282.178 170.584 282.205 171.107 282.228 171.631L282.489 171.619C282.512 172.141 282.531 172.665 282.548 173.188L282.287 173.197C282.304 173.72 282.317 174.243 282.327 174.768L282.587 174.763C282.597 175.288 282.604 175.815 282.608 176.342L282.347 176.344C282.349 176.607 282.35 176.87 282.35 177.134C282.35 177.397 282.349 177.66 282.347 177.923L282.608 177.924C282.604 178.451 282.597 178.977 282.587 179.503L282.327 179.499C282.317 180.024 282.304 180.547 282.287 181.07L282.548 181.077C282.531 181.601 282.512 182.125 282.489 182.647L282.228 182.637C282.205 183.161 282.178 183.684 282.148 184.206L282.408 184.22C282.378 184.746 282.345 185.271 282.308 185.795L282.048 185.778C282.011 186.301 281.971 186.824 281.928 187.345L282.188 187.365C282.144 187.888 282.098 188.41 282.048 188.931L281.789 188.906C281.739 189.428 281.686 189.95 281.629 190.47L281.889 190.497C281.832 191.021 281.771 191.544 281.707 192.065L281.449 192.034C281.386 192.555 281.319 193.074 281.249 193.593L281.508 193.627C281.438 194.147 281.364 194.665 281.287 195.183L281.03 195.145C280.953 195.664 280.873 196.182 280.789 196.699L281.047 196.74C280.963 197.26 280.876 197.778 280.785 198.296L280.53 198.251C280.439 198.767 280.346 199.283 280.249 199.797L280.506 199.845C280.409 200.36 280.309 200.874 280.206 201.387L279.949 201.336C279.846 201.851 279.739 202.365 279.629 202.877L279.885 202.931C279.775 203.445 279.661 203.959 279.544 204.471L279.289 204.413C279.173 204.924 279.053 205.433 278.93 205.941L279.185 206.003C279.062 206.512 278.936 207.02 278.806 207.527L278.551 207.463C278.421 207.972 278.288 208.479 278.152 208.985L278.405 209.055C278.269 209.562 278.128 210.068 277.985 210.572L277.732 210.502C277.589 211.006 277.442 211.509 277.293 212.01L277.546 212.085C277.397 212.587 277.243 213.088 277.087 213.587L276.836 213.51C276.68 214.011 276.52 214.511 276.358 215.01L276.608 215.091C276.445 215.59 276.278 216.088 276.109 216.585L275.861 216.501C275.692 216.997 275.52 217.492 275.345 217.984L275.591 218.071C275.415 218.566 275.237 219.059 275.055 219.551L274.81 219.46C274.628 219.952 274.442 220.443 274.254 220.933L274.498 221.026C274.31 221.517 274.118 222.005 273.923 222.492L273.681 222.396C273.487 222.882 273.289 223.367 273.089 223.85L273.329 223.95C273.128 224.435 272.924 224.919 272.717 225.4L272.478 225.298C272.271 225.78 272.06 226.26 271.847 226.738L272.085 226.844C271.871 227.324 271.655 227.802 271.435 228.279L271.198 228.17C270.979 228.645 270.757 229.119 270.531 229.591L270.768 229.703C270.542 230.178 270.312 230.65 270.08 231.121L269.846 231.006C269.614 231.476 269.379 231.945 269.142 232.412L269.375 232.53C269.137 232.998 268.896 233.464 268.653 233.929L268.42 233.808C268.177 234.271 267.931 234.733 267.682 235.192L267.912 235.317C267.662 235.779 267.409 236.24 267.153 236.698L266.923 236.57C266.667 237.028 266.409 237.484 266.148 237.938L266.375 238.068C266.113 238.523 265.849 238.977 265.581 239.428L265.355 239.294C265.088 239.744 264.818 240.193 264.545 240.64L264.769 240.776C264.495 241.225 264.218 241.671 263.939 242.116L263.717 241.977C263.438 242.42 263.157 242.862 262.872 243.302L263.092 243.443C262.807 243.884 262.519 244.323 262.229 244.76L262.011 244.616C261.721 245.052 261.428 245.487 261.133 245.919L261.349 246.065C261.052 246.499 260.753 246.931 260.451 247.36L260.238 247.211C259.936 247.64 259.632 248.067 259.325 248.491L259.537 248.644C259.23 249.069 258.92 249.493 258.608 249.914L258.398 249.759C258.086 250.179 257.772 250.598 257.454 251.015L257.661 251.174C257.343 251.591 257.023 252.007 256.699 252.42L256.493 252.26C256.171 252.672 255.846 253.083 255.518 253.491L255.722 253.655C255.393 254.064 255.062 254.471 254.729 254.876L254.526 254.71C254.192 255.114 253.857 255.516 253.519 255.916L253.719 256.085C253.38 256.486 253.038 256.885 252.694 257.281L252.495 257.109C252.152 257.505 251.806 257.898 251.457 258.289L251.653 258.463C251.303 258.855 250.952 259.245 250.598 259.632L250.405 259.456C250.051 259.843 249.695 260.227 249.337 260.609L249.528 260.787C249.168 261.17 248.807 261.55 248.443 261.929L248.255 261.748C247.892 262.126 247.525 262.501 247.157 262.874L247.343 263.057C246.974 263.43 246.603 263.801 246.23 264.17L246.046 263.984C245.673 264.352 245.299 264.719 244.921 265.082L245.102 265.27C244.724 265.634 244.343 265.995 243.96 266.354L243.781 266.164C243.399 266.522 243.016 266.879 242.629 267.232L242.805 267.425C242.418 267.779 242.028 268.13 241.636 268.479L241.462 268.285C241.071 268.633 240.678 268.979 240.282 269.322L240.454 269.521C240.058 269.865 239.659 270.207 239.258 270.546L239.089 270.346C238.689 270.684 238.286 271.019 237.882 271.353L238.049 271.556C237.644 271.889 237.237 272.22 236.828 272.549L236.664 272.345C236.256 272.673 235.845 272.998 235.432 273.32L235.593 273.526C235.18 273.85 234.764 274.17 234.347 274.488L234.188 274.281C233.771 274.599 233.353 274.914 232.932 275.226L233.087 275.435C232.666 275.747 232.242 276.057 231.817 276.364L231.664 276.152C231.24 276.459 230.813 276.763 230.384 277.064L230.533 277.278C230.104 277.58 229.672 277.879 229.239 278.176L229.092 277.96C228.66 278.255 228.225 278.548 227.788 278.838L227.933 279.056C227.496 279.346 227.057 279.634 226.616 279.919L226.475 279.699C226.035 279.984 225.593 280.265 225.15 280.544L225.289 280.766C224.845 281.045 224.398 281.322 223.949 281.596L223.813 281.372C223.366 281.645 222.917 281.916 222.467 282.183L222.601 282.408C222.15 282.676 221.696 282.94 221.241 283.202L221.111 282.975C220.657 283.236 220.201 283.494 219.743 283.75L219.871 283.979C219.413 284.236 218.952 284.489 218.489 284.739L218.365 284.509C217.906 284.758 217.444 285.004 216.981 285.247L217.102 285.479C216.637 285.723 216.171 285.964 215.703 286.202L215.585 285.969C215.118 286.206 214.649 286.441 214.179 286.673L214.294 286.907C213.823 287.139 213.351 287.369 212.876 287.595L212.764 287.359C212.292 287.584 211.818 287.806 211.343 288.025L211.452 288.262C210.976 288.482 210.497 288.698 210.017 288.912L209.911 288.674C209.433 288.887 208.952 289.097 208.47 289.305L208.573 289.544C208.092 289.751 207.608 289.955 207.123 290.156L207.023 289.916C206.54 290.116 206.055 290.314 205.569 290.508L205.665 290.75C205.178 290.945 204.69 291.137 204.199 291.325L204.106 291.082C203.616 291.27 203.125 291.455 202.633 291.637L202.724 291.882C202.232 292.064 201.739 292.242 201.244 292.418L201.157 292.172C200.665 292.347 200.17 292.519 199.674 292.688L199.758 292.936C199.261 293.105 198.763 293.272 198.264 293.435L198.183 293.185C197.684 293.347 197.184 293.507 196.683 293.663L196.76 293.914C196.261 294.07 195.76 294.224 195.258 294.373L195.183 294.12C194.682 294.269 194.179 294.416 193.675 294.559L193.745 294.812C193.241 294.955 192.735 295.096 192.228 295.232L192.158 294.979C191.652 295.115 191.145 295.248 190.636 295.378L190.7 295.633C190.194 295.762 189.685 295.888 189.176 296.012L189.114 295.757C188.606 295.88 188.097 296 187.586 296.116L187.644 296.371C187.132 296.488 186.618 296.601 186.104 296.712L186.05 296.456C185.538 296.566 185.024 296.673 184.509 296.776L184.56 297.033C184.047 297.136 183.533 297.236 183.018 297.333L182.97 297.076C182.456 297.173 181.94 297.266 181.424 297.356L181.469 297.612C180.951 297.703 180.433 297.79 179.913 297.874L179.872 297.616C179.355 297.7 178.837 297.78 178.318 297.856L178.356 298.114C177.838 298.191 177.32 298.265 176.8 298.335L176.766 298.076C176.247 298.146 175.728 298.213 175.207 298.276L175.239 298.534C174.717 298.598 174.194 298.659 173.67 298.716L173.643 298.456C173.123 298.513 172.601 298.566 172.079 298.616L172.104 298.875C171.583 298.925 171.061 298.971 170.538 299.015L170.518 298.755C169.997 298.798 169.474 298.838 168.951 298.875L168.969 299.135C168.444 299.171 167.919 299.205 167.393 299.235L167.379 298.975C166.857 299.004 166.334 299.031 165.81 299.055L165.821 299.315C165.298 299.339 164.775 299.358 164.251 299.375L164.243 299.114C163.721 299.131 163.197 299.144 162.672 299.154L162.676 299.414C162.15 299.424 161.624 299.431 161.097 299.435V299.174C160.834 299.175 160.57 299.177 160.307 299.177C160.043 299.177 159.78 299.175 159.517 299.174L159.515 299.435C158.988 299.431 158.461 299.424 157.936 299.414L157.941 299.154C157.416 299.144 156.893 299.131 156.37 299.114L156.362 299.375C155.838 299.358 155.314 299.339 154.792 299.315L154.804 299.055C154.28 299.031 153.757 299.004 153.235 298.975L153.22 299.235C152.694 299.205 152.168 299.171 151.644 299.135L151.662 298.875C151.139 298.838 150.617 298.798 150.096 298.755L150.073 299.015C149.551 298.971 149.03 298.925 148.509 298.875L148.534 298.616C148.012 298.566 147.491 298.513 146.971 298.456L146.942 298.715C146.418 298.658 145.896 298.598 145.374 298.534L145.406 298.276C144.886 298.213 144.366 298.146 143.848 298.076L143.813 298.335C143.293 298.265 142.775 298.191 142.257 298.114L142.295 297.856C141.776 297.78 141.258 297.699 140.741 297.616L140.699 297.874C140.18 297.79 139.661 297.703 139.144 297.612L139.189 297.356C138.672 297.266 138.157 297.173 137.643 297.076L137.594 297.333C137.079 297.236 136.565 297.136 136.052 297.033L136.104 296.776C135.589 296.673 135.076 296.566 134.564 296.456L134.508 296.712C133.994 296.601 133.481 296.488 132.969 296.371L133.028 296.116C132.517 296 132.007 295.88 131.498 295.757L131.437 296.012C130.927 295.888 130.419 295.762 129.912 295.633L129.977 295.378C129.468 295.248 128.96 295.115 128.454 294.979L128.385 295.232C127.877 295.096 127.371 294.955 126.866 294.812L126.939 294.559C126.435 294.416 125.932 294.269 125.431 294.12L125.355 294.373C124.852 294.223 124.351 294.07 123.852 293.914L123.931 293.663C123.43 293.507 122.929 293.347 122.431 293.185L122.349 293.435C121.849 293.272 121.351 293.105 120.854 292.936L120.939 292.688C120.443 292.519 119.949 292.347 119.456 292.172L119.367 292.418C118.873 292.242 118.38 292.064 117.889 291.882L117.98 291.637C117.488 291.455 116.997 291.269 116.508 291.081L116.413 291.325C115.923 291.137 115.435 290.945 114.947 290.75L115.044 290.508C114.558 290.314 114.073 290.116 113.59 289.916L113.489 290.156C113.005 289.955 112.521 289.751 112.039 289.544L112.143 289.305C111.661 289.097 111.18 288.887 110.701 288.674L110.596 288.912C110.116 288.698 109.637 288.482 109.16 288.263L109.271 288.025C108.795 287.806 108.321 287.583 107.849 287.358L107.736 287.595C107.261 287.369 106.789 287.139 106.318 286.907L106.435 286.673C105.964 286.441 105.495 286.206 105.029 285.969L104.908 286.202C104.441 285.964 103.974 285.723 103.51 285.479L103.633 285.247C103.17 285.004 102.708 284.758 102.248 284.509L102.122 284.739C101.66 284.489 101.2 284.236 100.741 283.979L100.87 283.75C100.413 283.494 99.9561 283.236 99.5022 282.975L99.3713 283.202C98.9164 282.94 98.4632 282.676 98.0119 282.408L98.1457 282.182C97.6955 281.915 97.2465 281.645 96.8 281.372L96.6633 281.596C96.2148 281.322 95.7682 281.045 95.3235 280.766L95.4631 280.544C95.0195 280.265 94.5776 279.983 94.1379 279.699L93.9963 279.919C93.5555 279.634 93.1168 279.346 92.6799 279.056L92.8244 278.838C92.3883 278.548 91.9539 278.255 91.5217 277.96L91.3742 278.176C90.9406 277.879 90.509 277.58 90.0793 277.278L90.2297 277.064C89.801 276.763 89.3741 276.459 88.9494 276.152L88.7961 276.364C88.3705 276.057 87.9471 275.747 87.5256 275.435L87.6819 275.225C87.261 274.913 86.8417 274.599 86.425 274.281L86.2659 274.488C85.8481 274.17 85.4322 273.85 85.0188 273.526L85.1809 273.32C84.7683 272.998 84.3577 272.673 83.9494 272.345L83.7844 272.549C83.3751 272.22 82.9676 271.889 82.5627 271.556L82.7307 271.353C82.3265 271.019 81.9244 270.684 81.5246 270.346L81.3537 270.546C80.9529 270.207 80.5548 269.865 80.1584 269.521L80.3313 269.322C79.9357 268.979 79.5417 268.633 79.1506 268.284L78.9758 268.48C78.584 268.131 78.1951 267.779 77.8078 267.425L77.9846 267.231C77.598 266.878 77.2133 266.522 76.8313 266.164L76.6516 266.354C76.2687 265.995 75.8883 265.634 75.51 265.27L75.6916 265.082C75.3142 264.719 74.9394 264.352 74.5666 263.984L74.3821 264.17C74.0086 263.801 73.6375 263.43 73.2688 263.057L73.4553 262.873C73.0874 262.5 72.7218 262.125 72.3586 261.748L72.1692 261.929C71.8053 261.551 71.4442 261.17 71.0852 260.787L71.2766 260.608C70.9183 260.226 70.5617 259.843 70.2082 259.456L70.0149 259.632C69.6606 259.244 69.3085 258.855 68.9592 258.463L69.1555 258.289C68.8071 257.898 68.4609 257.505 68.1174 257.109L67.9192 257.28C67.5751 256.884 67.2319 256.487 66.8928 256.086L67.095 255.916C66.7566 255.516 66.4205 255.113 66.0871 254.709L65.884 254.876C65.5504 254.471 65.2193 254.064 64.8909 253.655L65.0959 253.491C64.768 253.083 64.4421 252.671 64.1194 252.259L63.9133 252.421C63.5896 252.007 63.2689 251.591 62.9504 251.173L63.1594 251.015C62.8421 250.598 62.5271 250.18 62.2151 249.759L62.0041 249.913C61.6916 249.492 61.3817 249.068 61.0744 248.643L61.2873 248.491C60.9809 248.067 60.6773 247.64 60.3762 247.211L60.1614 247.36C59.8595 246.931 59.5603 246.499 59.2639 246.065L59.4807 245.919C59.1852 245.487 58.8918 245.052 58.6018 244.615L58.384 244.76C58.0936 244.323 57.8057 243.884 57.5207 243.443L57.7405 243.302C57.4562 242.862 57.1745 242.42 56.8957 241.977L56.6741 242.115C56.3948 241.671 56.1177 241.225 55.844 240.776L56.0676 240.64C55.7949 240.193 55.5251 239.744 55.258 239.294L55.0315 239.428C54.7638 238.976 54.4985 238.523 54.2366 238.068L54.4651 237.938C54.2038 237.484 53.9453 237.028 53.6897 236.57L53.4602 236.698C53.2039 236.24 52.9509 235.779 52.7004 235.316L52.9319 235.192C52.6827 234.733 52.436 234.271 52.1926 233.808L51.9602 233.929C51.7163 233.464 51.4756 232.998 51.2375 232.53L51.4709 232.412C51.2333 231.945 50.9986 231.476 50.7668 231.006L50.5315 231.121C50.2995 230.65 50.0711 230.177 49.845 229.703L50.0813 229.591C49.8563 229.119 49.6344 228.645 49.4153 228.17L49.177 228.278C48.9575 227.802 48.7411 227.324 48.5276 226.845L48.7659 226.738C48.5527 226.26 48.3432 225.779 48.136 225.297L47.8948 225.4C47.6876 224.919 47.4836 224.435 47.2825 223.95L47.5246 223.85C47.3243 223.367 47.1271 222.882 46.9328 222.396L46.6887 222.493C46.4939 222.006 46.3022 221.517 46.1135 221.026L46.3586 220.933C46.1704 220.443 45.985 219.952 45.803 219.46L45.5578 219.551C45.376 219.059 45.1964 218.566 45.0207 218.071L45.2688 217.984C45.0938 217.492 44.921 216.997 44.7522 216.501L44.5032 216.585C44.334 216.088 44.168 215.59 44.0051 215.091L44.2551 215.01C44.0925 214.511 43.9329 214.011 43.7766 213.51L43.5256 213.587C43.3698 213.087 43.2162 212.586 43.0666 212.084L43.3196 212.01C43.1704 211.509 43.024 211.006 42.8811 210.502L42.6272 210.573C42.4839 210.068 42.3442 209.562 42.2073 209.054L42.4621 208.985C42.3257 208.479 42.1918 207.972 42.0617 207.463L41.8069 207.527C41.6773 207.02 41.5512 206.512 41.428 206.003L41.6838 205.941C41.5608 205.433 41.441 204.924 41.3244 204.413L41.0676 204.471C40.9507 203.959 40.8382 203.445 40.7278 202.931L40.9836 202.877C40.8736 202.365 40.7669 201.851 40.6633 201.336L40.4065 201.387C40.3033 200.874 40.2034 200.36 40.1067 199.845L40.3645 199.797C40.268 199.283 40.1743 198.767 40.0842 198.251L39.8264 198.296C39.7361 197.778 39.6484 197.26 39.5647 196.74L39.8235 196.699C39.7402 196.182 39.66 195.664 39.5832 195.145L39.3244 195.183C39.2479 194.665 39.1748 194.147 39.1047 193.627L39.3645 193.593C39.2946 193.074 39.2276 192.555 39.1643 192.034L38.9045 192.065C38.841 191.544 38.7808 191.021 38.7239 190.497L38.9836 190.47C38.9271 189.95 38.8744 189.428 38.8244 188.906L38.5637 188.931C38.5139 188.41 38.4673 187.888 38.4241 187.365L38.6848 187.345C38.6416 186.824 38.6023 186.301 38.5657 185.778L38.3039 185.796C38.2672 185.271 38.2344 184.746 38.2043 184.22L38.4651 184.206C38.4352 183.684 38.4092 183.161 38.386 182.637L38.1242 182.647C38.1011 182.125 38.0813 181.602 38.0647 181.078L38.3264 181.07C38.3098 180.547 38.2963 180.024 38.2864 179.499L38.0246 179.503C38.0147 178.977 38.0084 178.451 38.0051 177.924H38.2659L38.2639 177.134C38.2639 176.87 38.2642 176.607 38.2659 176.344L38.0051 176.342C38.0084 175.815 38.0146 175.288 38.0246 174.763L38.2864 174.768C38.2963 174.243 38.3098 173.72 38.3264 173.197L38.0647 173.188C38.0813 172.665 38.1011 172.141 38.1242 171.619L38.386 171.631C38.4092 171.107 38.4352 170.584 38.4651 170.062L38.2043 170.047C38.2344 169.521 38.2672 168.995 38.3039 168.471L38.5657 168.489C38.6023 167.966 38.6416 167.444 38.6848 166.923L38.4241 166.9C38.4673 166.378 38.5139 165.856 38.5637 165.336L38.8244 165.361C38.8744 164.839 38.9271 164.318 38.9836 163.798L38.7239 163.769C38.7807 163.245 38.841 162.723 38.9045 162.201L39.1643 162.233C39.2276 161.713 39.2946 161.193 39.3645 160.675L39.1047 160.64C39.1748 160.12 39.2479 159.601 39.3244 159.084L39.5832 159.122C39.66 158.603 39.7402 158.085 39.8235 157.568L39.5647 157.526C39.6484 157.007 39.7361 156.488 39.8264 155.971L40.0842 156.016C40.1743 155.499 40.2679 154.984 40.3645 154.47L40.1067 154.421C40.2034 153.906 40.3033 153.392 40.4065 152.879L40.6633 152.931C40.7668 152.416 40.8737 151.903 40.9836 151.391L40.7278 151.335C40.8382 150.821 40.9508 150.308 41.0676 149.796L41.3244 149.854C41.4411 149.344 41.5608 148.834 41.6838 148.325L41.428 148.264C41.5512 147.754 41.6772 147.246 41.8069 146.739L42.0617 146.804C42.1919 146.295 42.3257 145.787 42.4621 145.281L42.2073 145.213C42.3443 144.705 42.4838 144.198 42.6272 143.692L42.6282 143.693L42.8811 143.766C43.024 143.262 43.1704 142.759 43.3196 142.258L43.0666 142.183C43.2163 141.68 43.3697 141.179 43.5256 140.679L43.7766 140.758C43.9329 140.257 44.0925 139.756 44.2551 139.258L44.0051 139.176C44.1681 138.676 44.3339 138.178 44.5032 137.681L44.7522 137.766C44.921 137.27 45.0938 136.776 45.2688 136.283L45.0207 136.194C45.1963 135.7 45.3752 135.207 45.5569 134.716L45.803 134.807C45.9849 134.315 46.1705 133.824 46.3586 133.335L46.1135 133.24C46.3022 132.75 46.4939 132.261 46.6887 131.773L46.9328 131.871C47.1271 131.385 47.3243 130.9 47.5246 130.417L47.2825 130.316C47.4837 129.831 47.6884 129.347 47.8957 128.865L48.136 128.97C48.3432 128.488 48.5526 128.007 48.7659 127.528L48.5266 127.422C48.7403 126.942 48.9573 126.464 49.177 125.987L49.4153 126.098C49.6344 125.622 49.8562 125.148 50.0813 124.676L49.845 124.563C50.0712 124.089 50.2993 123.616 50.5315 123.145L50.7668 123.262C50.9986 122.791 51.2333 122.322 51.4709 121.855L51.2375 121.735C51.4756 121.268 51.7163 120.801 51.9602 120.337L52.1926 120.46C52.436 119.997 52.6827 119.535 52.9319 119.075L52.7004 118.949C52.721 118.911 52.7413 118.873 52.7619 118.835L53.4602 117.568L53.6897 117.697C53.9453 117.24 54.2047 116.783 54.466 116.329L54.2366 116.197C54.4984 115.742 54.764 115.29 55.0315 114.839L55.258 114.973C55.5251 114.522 55.7949 114.074 56.0676 113.627L55.844 113.49C56.1178 113.042 56.3946 112.595 56.6741 112.15L56.8957 112.29C57.1745 111.846 57.4561 111.405 57.7405 110.965L57.5207 110.823C57.8057 110.382 58.0936 109.944 58.384 109.507L58.6018 109.651C58.8918 109.215 59.1852 108.781 59.4807 108.349L59.2639 108.201C59.5603 107.767 59.8595 107.336 60.1614 106.906L60.3762 107.057C60.6774 106.628 60.9808 106.201 61.2873 105.776L61.0754 105.623C61.3825 105.198 61.6917 104.774 62.0041 104.353L62.2151 104.509C62.5272 104.088 62.842 103.669 63.1594 103.252L62.9504 103.094C63.2687 102.676 63.5888 102.259 63.9123 101.846L64.1203 102.008C64.443 101.595 64.7681 101.185 65.0959 100.776L64.8909 100.611C64.9277 100.565 64.9643 100.519 65.0012 100.474L65.884 99.3896L66.0871 99.5576C66.4204 99.1533 66.7566 98.7515 67.095 98.3516L66.8938 98.1807L66.8928 98.1797C67.2012 97.8152 67.5129 97.4536 67.8254 97.0928L67.9192 96.9854L68.1174 97.1582C68.4609 96.7627 68.8071 96.3686 69.1555 95.9775L68.9592 95.8027C69.3083 95.4109 69.6608 95.0221 70.0149 94.6348L70.2082 94.8115C70.5617 94.4248 70.9182 94.0403 71.2766 93.6582L71.0852 93.4785C71.4444 93.0956 71.8061 92.7152 72.1701 92.3369L72.3586 92.5186C72.7218 92.1412 73.0874 91.7662 73.4553 91.3936L73.2688 91.209C73.6377 90.8354 74.0084 90.4636 74.3821 90.0947L74.5666 90.2822C74.9393 89.9143 75.3143 89.5487 75.6916 89.1855L75.51 88.9961C75.8883 88.6321 76.2687 88.2703 76.6516 87.9111L76.8313 88.1035C77.2134 87.7451 77.5979 87.3887 77.9846 87.0352L77.8078 86.8418C78.1953 86.4876 78.5838 86.1344 78.9758 85.7852L79.1516 85.9824C79.5426 85.6341 79.9358 85.2877 80.3313 84.9443L80.1584 84.7451C80.5546 84.4011 80.9522 84.0587 81.3528 83.7197L81.3537 83.7207L81.5246 83.9219C81.9246 83.5835 82.3264 83.2473 82.7307 82.9141L82.5627 82.71C82.9675 82.3763 83.3753 82.0463 83.7844 81.7178L83.9494 81.9229C84.3578 81.5949 84.7682 81.269 85.1809 80.9463L85.0188 80.7393C85.4324 80.4157 85.8489 80.0957 86.2668 79.7773L86.425 79.9863C86.8417 79.6689 87.261 79.3541 87.6819 79.042L87.5256 78.8311C87.9469 78.5186 88.3707 78.2095 88.7961 77.9023L88.9494 78.1143C89.3741 77.8077 89.801 77.5043 90.2297 77.2031L90.0793 76.9883C90.509 76.6864 90.9406 76.3872 91.3742 76.0908L91.5217 76.3076C91.954 76.0121 92.3882 75.7188 92.8244 75.4287L92.6799 75.2109C93.1168 74.9205 93.5555 74.6326 93.9963 74.3477L94.1379 74.5674C94.5778 74.283 95.0204 74.0015 95.4641 73.7227L95.3235 73.501C95.7682 73.2215 96.2148 72.9448 96.6633 72.6709L96.801 72.8945C97.2476 72.6219 97.6964 72.352 98.1467 72.085L98.0119 71.8584C98.4633 71.5907 98.9163 71.3255 99.3713 71.0635L99.5022 71.292C99.9561 71.0306 100.413 70.7723 100.87 70.5166L100.741 70.2871C101.2 70.031 101.66 69.7777 102.122 69.5273L102.248 69.7588C102.708 69.5096 103.17 69.2629 103.633 69.0195L103.51 68.7871C103.975 68.543 104.441 68.3018 104.909 68.0635L105.029 68.2979C105.495 68.0602 105.964 67.8255 106.435 67.5938L106.318 67.3584C106.789 67.1263 107.262 66.8981 107.737 66.6719L107.849 66.9082C108.321 66.6831 108.795 66.4614 109.271 66.2422L109.161 66.0039C109.638 65.7843 110.115 65.5671 110.595 65.3535L110.701 65.5928C111.18 65.3796 111.661 65.1701 112.143 64.9629L112.038 64.7227C112.521 64.5153 113.004 64.3107 113.489 64.1094L113.59 64.3516C114.073 64.1513 114.558 63.954 115.044 63.7598L114.947 63.5156C115.434 63.3209 115.923 63.1291 116.413 62.9404L116.508 63.1855C116.997 62.9974 117.488 62.8119 117.98 62.6299L117.889 62.3838C118.38 62.2021 118.873 62.0232 119.367 61.8477L119.456 62.0957C119.949 61.9207 120.443 61.7479 120.939 61.5791L120.854 61.3301C121.351 61.1608 121.849 60.995 122.349 60.832L122.431 61.082C122.929 60.9195 123.43 60.7598 123.931 60.6035L123.852 60.3525C124.352 60.1966 124.853 60.0432 125.356 59.8936L125.431 60.1465C125.932 59.9973 126.435 59.8509 126.939 59.708L126.866 59.4551L126.865 59.4541C127.371 59.3107 127.878 59.1712 128.386 59.0342L128.454 59.2891C128.96 59.1526 129.468 59.0188 129.977 58.8887L129.912 58.6338C130.419 58.5042 130.927 58.3781 131.437 58.2549L131.498 58.5107C132.007 58.3877 132.517 58.268 133.028 58.1514L132.969 57.8945C133.481 57.7777 133.994 57.6651 134.508 57.5547L134.564 57.8105C135.076 57.7006 135.589 57.5938 136.104 57.4902L136.052 57.2334C136.565 57.1302 137.079 57.0303 137.594 56.9336L137.643 57.1914C138.157 57.0949 138.672 57.0012 139.189 56.9111L139.144 56.6533C139.661 56.563 140.18 56.4753 140.699 56.3916L140.741 56.6504C141.258 56.5671 141.776 56.4869 142.295 56.4102L142.257 56.1514C142.775 56.0748 143.293 56.0017 143.813 55.9316L143.848 56.1914C144.366 56.1216 144.885 56.0545 145.405 55.9912L145.374 55.7314C145.896 55.668 146.418 55.6077 146.942 55.5508L146.97 55.8105C147.49 55.754 148.012 55.7013 148.534 55.6514L148.509 55.3906C149.03 55.3408 149.551 55.2943 150.073 55.251L150.095 55.5117C150.616 55.4685 151.139 55.4292 151.662 55.3926L151.644 55.1309C152.168 55.0942 152.694 55.0613 153.22 55.0312L153.235 55.292C153.757 55.2622 154.28 55.2361 154.804 55.2129L154.792 54.9512C155.314 54.928 155.838 54.9082 156.362 54.8916L156.37 55.1533C156.893 55.1368 157.416 55.1232 157.941 55.1133L157.936 54.8516C158.461 54.8416 158.988 54.8354 159.515 54.832L159.517 55.0928C159.78 55.0911 160.043 55.0908 160.307 55.0908C160.57 55.0908 160.833 55.0911 161.096 55.0928L161.097 54.832C161.624 54.8354 162.15 54.8416 162.676 54.8516L162.672 55.1133C163.197 55.1233 163.721 55.1368 164.243 55.1533L164.25 54.8916C164.775 54.9082 165.298 54.928 165.821 54.9512L165.81 55.2129C166.334 55.2361 166.857 55.2622 167.379 55.292L167.393 55.0312C167.919 55.0613 168.444 55.0942 168.968 55.1309L168.951 55.3926C169.474 55.4292 169.997 55.4685 170.518 55.5117L170.538 55.251C171.061 55.2943 171.583 55.3408 172.104 55.3906L172.079 55.6514C172.601 55.7013 173.123 55.754 173.643 55.8105L173.67 55.5508C174.194 55.6077 174.717 55.6679 175.239 55.7314L175.207 55.9912C175.728 56.0546 176.247 56.1215 176.766 56.1914L176.8 55.9316C177.32 56.0017 177.838 56.0748 178.356 56.1514L178.318 56.4102C178.837 56.4869 179.355 56.5671 179.872 56.6504L179.913 56.3916C180.433 56.4753 180.951 56.5631 181.469 56.6533L181.424 56.9111C181.94 57.0012 182.456 57.0949 182.97 57.1914L183.018 56.9336C183.533 57.0303 184.047 57.1302 184.56 57.2334L184.509 57.4902C185.024 57.5938 185.538 57.7006 186.05 57.8105L186.104 57.5547C186.618 57.6651 187.132 57.7776 187.644 57.8945L187.586 58.1514C188.097 58.268 188.606 58.3878 189.114 58.5107L189.176 58.2549C189.685 58.3781 190.194 58.5042 190.7 58.6338L190.636 58.8887C191.145 59.0188 191.652 59.1526 192.158 59.2891L192.227 59.0342C192.735 59.1711 193.241 59.3108 193.746 59.4541L193.675 59.708C194.179 59.8509 194.682 59.9973 195.183 60.1465L195.257 59.8936C195.759 60.0431 196.26 60.1967 196.76 60.3525L196.683 60.6035C197.184 60.7599 197.684 60.9194 198.183 61.082L198.264 60.832C198.763 60.9949 199.261 61.1609 199.758 61.3301L199.674 61.5791C200.17 61.748 200.665 61.9207 201.157 62.0957L201.244 61.8477C201.739 62.0233 202.232 62.2029 202.724 62.3848L202.633 62.6299C203.125 62.8119 203.616 62.9974 204.106 63.1855L204.199 62.9404C204.69 63.1291 205.179 63.3209 205.666 63.5156L205.569 63.7598C206.055 63.954 206.54 64.1513 207.023 64.3516L207.123 64.1094C207.608 64.3105 208.092 64.5145 208.573 64.7217L208.471 64.9629C208.953 65.17 209.433 65.3797 209.911 65.5928L210.018 65.3545C210.498 65.5682 210.976 65.7843 211.452 66.0039L211.343 66.2422C211.818 66.4613 212.292 66.6832 212.764 66.9082L212.876 66.6719C213.35 66.898 213.823 67.1264 214.294 67.3584L214.179 67.5938C214.649 67.8255 215.118 68.0602 215.585 68.2979L215.703 68.0645C216.171 68.3025 216.637 68.5432 217.102 68.7871L216.981 69.0195C217.444 69.263 217.906 69.5096 218.365 69.7588L218.49 69.5273C218.953 69.7777 219.413 70.031 219.871 70.2871H219.872L219.743 70.5166C220.201 70.7723 220.657 71.0316 221.111 71.293L221.242 71.0645V71.0635C221.697 71.3253 222.15 71.5909 222.601 71.8584L222.467 72.085C222.917 72.352 223.366 72.6219 223.813 72.8945L223.949 72.6709C224.398 72.9446 224.844 73.2217 225.288 73.501L225.15 73.7227C225.593 74.0014 226.035 74.2831 226.475 74.5674L226.616 74.3477C227.057 74.6326 227.496 74.9205 227.933 75.2109L227.789 75.4287C228.225 75.7187 228.66 76.0122 229.092 76.3076L229.239 76.0908C229.672 76.3872 230.104 76.6864 230.533 76.9883L230.384 77.2031C230.813 77.5043 231.24 77.8078 231.664 78.1143L231.817 77.9023C232.242 78.2095 232.666 78.5186 233.087 78.8311L232.932 79.042C233.353 79.354 233.771 79.669 234.188 79.9863L234.346 79.7773C234.764 80.0958 235.18 80.4166 235.594 80.7402L235.433 80.9473C235.845 81.2699 236.256 81.5951 236.664 81.9229L236.828 81.7178C237.237 82.0463 237.644 82.3773 238.049 82.7109H238.05L237.883 82.9141C238.287 83.2473 238.689 83.5835 239.089 83.9219L239.259 83.7197C239.66 84.059 240.058 84.4018 240.454 84.7461L240.282 84.9443C240.678 85.2877 241.071 85.634 241.462 85.9824L241.637 85.7861C242.029 86.1353 242.418 86.4877 242.805 86.8418L242.629 87.0352C243.016 87.3886 243.4 87.7452 243.782 88.1035L243.96 87.9121C244.343 88.2713 244.724 88.6331 245.102 88.9971L244.921 89.1855C245.299 89.5488 245.674 89.9142 246.047 90.2822L246.23 90.0957C246.603 90.4646 246.975 90.8354 247.344 91.209L247.157 91.3936C247.525 91.7663 247.892 92.1411 248.255 92.5186L248.443 92.3369C248.807 92.7153 249.168 93.0964 249.528 93.4795L249.337 93.6582C249.696 94.0403 250.052 94.4248 250.405 94.8115L250.598 94.6348C250.952 95.0221 251.304 95.4109 251.654 95.8027L251.458 95.9785C251.807 96.3694 252.152 96.7628 252.495 97.1582L252.694 96.9854C253.038 97.3817 253.38 97.7799 253.719 98.1807L253.519 98.3516C253.857 98.7513 254.192 99.1535 254.526 99.5576L254.729 99.3906C255.062 99.7954 255.393 100.202 255.722 100.611L255.518 100.776C255.846 101.185 256.171 101.595 256.493 102.008L256.699 101.846C257.023 102.259 257.343 102.675 257.661 103.093L257.454 103.252C257.772 103.669 258.087 104.088 258.399 104.509L258.608 104.353C258.92 104.774 259.23 105.197 259.537 105.623L259.325 105.776C259.632 106.201 259.936 106.628 260.238 107.057L260.451 106.906C260.753 107.336 261.052 107.767 261.349 108.201L261.133 108.349C261.428 108.781 261.721 109.215 262.011 109.651L262.229 109.507C262.519 109.944 262.807 110.382 263.092 110.823L262.872 110.965C263.157 111.405 263.438 111.847 263.717 112.291L263.939 112.15C264.218 112.595 264.495 113.042 264.769 113.49L264.545 113.628C264.818 114.075 265.089 114.523 265.356 114.974L265.581 114.839C265.849 115.29 266.113 115.743 266.375 116.198L266.148 116.329C266.409 116.783 266.667 117.24 266.923 117.697L267.153 117.568Z" stroke="#A5B8F5" stroke-width="0.527183" stroke-dasharray="1.58 1.58"/>
<path d="M157.539 299.1L163.074 295.904L163.074 302.296L157.539 299.1Z" fill="#A5B8F5"/>
<path d="M56.0646 113.753L56.0646 120.145L50.5292 116.949L56.0646 113.753Z" fill="#A5B8F5"/>
<path d="M267.316 118.547L261.781 115.351L267.316 112.155L267.316 118.547Z" fill="#A5B8F5"/>
<g filter="url(#filter0_d_4193_12788)">
<rect x="77.3067" y="94.1335" width="166" height="166" rx="82.7677" fill="#F8FAFF" shape-rendering="crispEdges"/>
<rect x="77.5702" y="94.3971" width="165.473" height="165.473" rx="82.5041" stroke="#DDE6FF" stroke-width="0.527183" shape-rendering="crispEdges"/>
<rect x="90.6361" y="107.463" width="139.341" height="139.341" rx="69.6705" fill="white"/>
<rect x="90.6361" y="107.463" width="139.341" height="139.341" rx="69.6705" stroke="#3869FC" stroke-width="0.658979"/>
<g clip-path="url(#clip1_4193_12788)">
<path d="M112.757 169.226H107.588V174.498H112.757V169.226Z" fill="#222222"/>
<path d="M123.093 169.226H117.925V174.498H123.093V169.226Z" fill="url(#paint0_linear_4193_12788)"/>
<path d="M112.757 174.498V185.041L117.925 179.769V169.226L112.757 174.498Z" fill="#0046FF"/>
<path d="M130.663 180.297V173.488H128.252V171.862H134.915V173.488H132.435V180.297H130.663Z" fill="#0046FF"/>
<path d="M140.645 176.959C140.66 176.508 140.598 176.089 140.455 175.7C140.313 175.311 140.11 174.972 139.847 174.687C139.583 174.401 139.271 174.179 138.909 174.019C138.547 173.858 138.152 173.778 137.728 173.778C137.27 173.778 136.847 173.86 136.457 174.025C136.068 174.19 135.731 174.422 135.447 174.724C135.164 175.025 134.943 175.381 134.786 175.791C134.628 176.201 134.55 176.655 134.55 177.153C134.55 177.788 134.69 178.35 134.97 178.84C135.25 179.33 135.643 179.716 136.151 179.997C136.659 180.279 137.251 180.419 137.929 180.419C138.213 180.419 138.5 180.383 138.792 180.311C139.082 180.238 139.366 180.132 139.642 179.992C139.917 179.852 140.169 179.677 140.399 179.468L139.595 178.323C139.336 178.54 139.091 178.693 138.863 178.781C138.635 178.87 138.383 178.914 138.106 178.914C137.705 178.914 137.356 178.835 137.06 178.679C136.765 178.523 136.537 178.304 136.375 178.022C136.283 177.863 136.221 177.685 136.181 177.491H140.634L140.646 176.961L140.645 176.959ZM136.87 175.452C137.11 175.316 137.403 175.248 137.751 175.248C137.987 175.248 138.199 175.299 138.389 175.398C138.578 175.499 138.733 175.636 138.856 175.808C138.977 175.98 139.046 176.176 139.062 176.393V176.441H136.193C136.224 176.302 136.265 176.172 136.321 176.055C136.446 175.791 136.63 175.589 136.87 175.452Z" fill="#0046FF"/>
<path d="M144.602 180.417C144.003 180.417 143.468 180.272 142.995 179.982C142.522 179.693 142.15 179.299 141.879 178.801C141.608 178.303 141.471 177.737 141.471 177.102C141.471 176.467 141.608 175.901 141.879 175.402C142.15 174.904 142.523 174.51 142.995 174.221C143.467 173.932 144.003 173.786 144.602 173.786C145.16 173.786 145.673 173.891 146.138 174.1C146.602 174.309 146.964 174.599 147.225 174.968L146.303 176.1C146.192 175.947 146.054 175.808 145.889 175.684C145.724 175.56 145.544 175.461 145.351 175.389C145.158 175.316 144.959 175.28 144.754 175.28C144.431 175.28 144.146 175.359 143.897 175.515C143.649 175.672 143.455 175.887 143.312 176.16C143.171 176.433 143.1 176.747 143.1 177.1C143.1 177.454 143.172 177.743 143.318 178.016C143.464 178.289 143.663 178.506 143.914 178.667C144.166 178.828 144.45 178.908 144.765 178.908C144.97 178.908 145.163 178.88 145.344 178.824C145.525 178.768 145.696 178.679 145.858 178.56C146.019 178.439 146.167 178.295 146.301 178.125L147.21 179.259C146.951 179.605 146.582 179.884 146.105 180.097C145.629 180.31 145.127 180.416 144.598 180.416L144.602 180.417Z" fill="#0046FF"/>
<path d="M157.574 173.597C157.574 173.444 157.598 173.317 157.645 173.217C157.692 173.116 157.764 173.039 157.863 172.988C157.962 172.936 158.085 172.909 158.236 172.909C158.323 172.909 158.419 172.931 158.525 172.975C158.632 173.02 158.737 173.074 158.838 173.138L159.334 171.873C159.16 171.72 158.951 171.597 158.708 171.505C158.464 171.412 158.203 171.366 157.928 171.366C157.519 171.366 157.162 171.458 156.859 171.643C156.556 171.827 156.318 172.081 156.145 172.402C155.971 172.723 155.886 173.081 155.886 173.475V174.078H154.952V175.524H155.886V180.296H157.575V175.524H158.921V174.078H157.575V173.596L157.574 173.597Z" fill="#0046FF"/>
<path d="M161.128 172.621C161.442 172.621 161.692 172.532 161.878 172.356C162.063 172.179 162.155 171.955 162.155 171.682C162.155 171.393 162.065 171.166 161.884 171.001C161.703 170.837 161.451 170.754 161.128 170.754C160.804 170.754 160.563 170.84 160.377 171.013C160.193 171.185 160.1 171.409 160.1 171.681C160.1 171.979 160.19 172.209 160.371 172.374C160.552 172.538 160.804 172.621 161.128 172.621ZM160.301 180.297H161.979V173.923H160.301V180.297Z" fill="#0046FF"/>
<path d="M153.788 174.953C153.626 174.563 153.386 174.272 153.067 174.079C152.749 173.886 152.353 173.79 151.88 173.79C151.534 173.79 151.203 173.863 150.887 174.007C150.572 174.152 150.302 174.343 150.078 174.579C150.028 174.631 149.985 174.685 149.941 174.739V171.381H148.287V180.297H149.966V176.465C149.966 176.297 149.999 176.141 150.066 175.995C150.132 175.851 150.223 175.722 150.337 175.61C150.452 175.498 150.589 175.411 150.751 175.35C150.913 175.29 151.088 175.261 151.277 175.261C151.513 175.253 151.713 175.293 151.874 175.381C152.036 175.47 152.155 175.61 152.235 175.803C152.313 175.997 152.353 176.237 152.353 176.526V180.297H154.031V176.393C154.031 175.823 153.95 175.343 153.789 174.953H153.788Z" fill="#0046FF"/>
<path d="M168.99 174.953C168.828 174.563 168.588 174.272 168.27 174.079C167.951 173.886 167.556 173.79 167.083 173.79C166.736 173.79 166.406 173.863 166.09 174.007C165.775 174.152 165.505 174.343 165.28 174.579C165.225 174.637 165.174 174.697 165.127 174.759L165.097 173.923H163.49V180.297H165.168V176.465C165.168 176.297 165.202 176.14 165.268 175.995C165.334 175.851 165.425 175.722 165.54 175.61C165.654 175.498 165.792 175.411 165.953 175.35C166.115 175.29 166.29 175.261 166.479 175.261C166.716 175.253 166.915 175.293 167.077 175.381C167.238 175.47 167.358 175.61 167.437 175.803C167.516 175.996 167.556 176.236 167.556 176.526V180.297H169.234V176.393C169.234 175.823 169.153 175.343 168.991 174.953H168.99Z" fill="#0046FF"/>
<path d="M189.023 173.922H187.736V172.307H186.057V173.922H184.888V175.453H186.057V180.297H187.736V175.453H189.023V173.922Z" fill="#222222"/>
<path d="M191.079 172.621C191.394 172.621 191.643 172.532 191.829 172.356C192.014 172.179 192.107 171.955 192.107 171.682C192.107 171.393 192.016 171.166 191.835 171.001C191.654 170.837 191.402 170.754 191.079 170.754C190.755 170.754 190.513 170.84 190.328 171.013C190.144 171.185 190.051 171.409 190.051 171.681C190.051 171.979 190.141 172.209 190.322 172.374C190.503 172.538 190.755 172.621 191.079 172.621ZM190.252 180.297H191.93V173.923H190.252V180.297Z" fill="#222222"/>
<path d="M210.532 180.417C209.95 180.417 209.432 180.318 208.979 180.121C208.526 179.925 208.162 179.654 207.886 179.308L208.938 178.392C209.174 178.657 209.442 178.849 209.741 178.965C210.04 179.082 210.339 179.139 210.639 179.139C210.757 179.139 210.865 179.126 210.963 179.098C211.062 179.069 211.147 179.03 211.218 178.977C211.289 178.925 211.342 178.86 211.377 178.784C211.412 178.707 211.43 178.625 211.43 178.536C211.43 178.359 211.359 178.223 211.218 178.127C211.139 178.079 211.017 178.025 210.851 177.964C210.686 177.904 210.473 177.837 210.213 177.765C209.811 177.66 209.471 177.538 209.191 177.397C208.911 177.257 208.689 177.098 208.524 176.921C208.381 176.752 208.274 176.569 208.199 176.372C208.124 176.175 208.087 175.956 208.087 175.715C208.087 175.426 208.15 175.162 208.276 174.926C208.402 174.69 208.578 174.487 208.802 174.317C209.027 174.148 209.285 174.018 209.576 173.925C209.866 173.833 210.174 173.786 210.497 173.786C210.821 173.786 211.136 173.827 211.442 173.907C211.75 173.987 212.034 174.101 212.299 174.25C212.563 174.399 212.793 174.574 212.99 174.775L212.092 175.787C211.95 175.651 211.791 175.526 211.613 175.413C211.436 175.301 211.253 175.213 211.064 175.149C210.875 175.085 210.706 175.053 210.557 175.053C210.423 175.053 210.303 175.065 210.196 175.088C210.09 175.113 210 175.151 209.93 175.203C209.859 175.256 209.806 175.317 209.771 175.39C209.736 175.462 209.718 175.542 209.718 175.631C209.718 175.72 209.74 175.803 209.783 175.885C209.827 175.965 209.887 176.033 209.967 176.089C210.053 176.137 210.181 176.193 210.35 176.257C210.519 176.321 210.75 176.394 211.042 176.474C211.419 176.579 211.74 176.695 212.004 176.823C212.269 176.953 212.478 177.1 212.636 177.269C212.77 177.413 212.868 177.578 212.932 177.762C212.995 177.947 213.026 178.152 213.026 178.376C213.026 178.77 212.918 179.12 212.702 179.425C212.484 179.73 212.188 179.971 211.81 180.147C211.432 180.324 211.007 180.412 210.534 180.412L210.532 180.417Z" fill="#222222"/>
<path d="M176.749 173.826C176.623 173.801 176.493 173.79 176.359 173.79C176.044 173.79 175.742 173.866 175.455 174.019C175.168 174.172 174.917 174.382 174.705 174.651C174.628 174.75 174.56 174.853 174.499 174.959L174.468 173.922H172.851V180.296H174.54V176.994C174.54 176.794 174.573 176.609 174.64 176.441C174.706 176.272 174.799 176.126 174.917 176.001C175.035 175.877 175.175 175.781 175.337 175.712C175.499 175.645 175.674 175.61 175.863 175.61C176.005 175.61 176.144 175.629 176.283 175.664C176.42 175.7 176.533 175.743 176.619 175.791L177.068 173.911C176.981 173.879 176.875 173.85 176.75 173.826H176.749Z" fill="#222222"/>
<path d="M182.112 173.922V174.768C181.992 174.6 181.855 174.443 181.693 174.308C181.499 174.147 181.275 174.021 181.019 173.928C180.764 173.836 180.481 173.789 180.175 173.789C179.632 173.789 179.147 173.929 178.722 174.211C178.296 174.493 177.96 174.882 177.712 175.38C177.464 175.878 177.34 176.448 177.34 177.092C177.34 177.735 177.462 178.305 177.706 178.803C177.95 179.302 178.281 179.696 178.699 179.985C179.117 180.274 179.585 180.419 180.105 180.419C180.396 180.419 180.672 180.372 180.932 180.28C181.192 180.188 181.427 180.064 181.636 179.906C181.813 179.773 181.962 179.621 182.091 179.454V180.297H183.78V173.923H182.114L182.112 173.922ZM181.941 178.061C181.811 178.338 181.627 178.554 181.392 178.706C181.156 178.859 180.881 178.935 180.565 178.935C180.248 178.935 179.988 178.859 179.755 178.706C179.522 178.554 179.34 178.338 179.206 178.061C179.072 177.785 179.006 177.461 179.006 177.092C179.006 176.723 179.072 176.412 179.206 176.139C179.34 175.866 179.523 175.651 179.755 175.494C179.987 175.338 180.257 175.259 180.565 175.259C180.872 175.259 181.156 175.338 181.392 175.494C181.629 175.651 181.812 175.866 181.941 176.139C182.071 176.412 182.136 176.73 182.136 177.092C182.136 177.454 182.071 177.785 181.941 178.061Z" fill="#222222"/>
<path d="M198.959 174.953C198.797 174.563 198.557 174.272 198.239 174.079C197.92 173.886 197.525 173.79 197.052 173.79C196.705 173.79 196.375 173.863 196.059 174.007C195.744 174.152 195.474 174.343 195.249 174.579C195.194 174.637 195.143 174.697 195.096 174.759L195.066 173.923H193.459V180.297H195.137V176.465C195.137 176.297 195.171 176.14 195.237 175.995C195.304 175.851 195.394 175.722 195.509 175.61C195.623 175.498 195.761 175.411 195.922 175.35C196.084 175.29 196.259 175.261 196.448 175.261C196.685 175.253 196.884 175.293 197.046 175.381C197.207 175.47 197.327 175.61 197.406 175.803C197.485 175.996 197.525 176.236 197.525 176.526V180.297H199.203V176.393C199.203 175.823 199.122 175.343 198.96 174.953H198.959Z" fill="#222222"/>
<path d="M205.324 173.922L205.3 174.665C205.235 174.589 205.164 174.516 205.082 174.446C204.936 174.322 204.77 174.21 204.586 174.109C204.401 174.009 204.2 173.93 203.984 173.874C203.767 173.817 203.541 173.789 203.305 173.789C202.738 173.789 202.231 173.932 201.787 174.217C201.342 174.503 200.992 174.891 200.736 175.386C200.48 175.88 200.352 176.444 200.352 177.079C200.352 177.714 200.483 178.272 200.742 178.754C201.002 179.237 201.356 179.614 201.805 179.886C202.254 180.16 202.765 180.296 203.341 180.296C203.687 180.296 204.02 180.23 204.339 180.097C204.657 179.964 204.925 179.788 205.142 179.566C205.183 179.525 205.219 179.48 205.254 179.436V179.885C205.254 180.27 205.187 180.591 205.053 180.849C204.919 181.106 204.72 181.299 204.457 181.427C204.193 181.555 203.856 181.62 203.447 181.62C203.211 181.62 202.98 181.596 202.756 181.548C202.531 181.5 202.317 181.431 202.111 181.343C201.906 181.255 201.725 181.155 201.569 181.042L200.967 182.259C201.274 182.5 201.667 182.695 202.148 182.843C202.628 182.992 203.116 183.066 203.612 183.066C204.108 183.066 204.587 182.994 205.001 182.85C205.415 182.704 205.765 182.494 206.053 182.217C206.34 181.94 206.558 181.601 206.708 181.199C206.858 180.797 206.932 180.336 206.932 179.814V173.922H205.325H205.324ZM205.1 178.055C204.966 178.328 204.775 178.541 204.527 178.694C204.278 178.847 203.989 178.923 203.658 178.923C203.328 178.923 203.051 178.847 202.808 178.694C202.564 178.541 202.372 178.326 202.234 178.049C202.097 177.772 202.028 177.452 202.028 177.092C202.028 176.731 202.097 176.424 202.234 176.145C202.372 175.869 202.564 175.651 202.808 175.494C203.051 175.338 203.335 175.259 203.658 175.259C203.981 175.259 204.278 175.336 204.527 175.488C204.775 175.641 204.966 175.856 205.1 176.133C205.234 176.41 205.301 176.73 205.301 177.09C205.301 177.451 205.234 177.782 205.1 178.054V178.055Z" fill="#222222"/>
</g>
</g>
<rect x="113" y="3.60962" width="94" height="94" rx="47" fill="#00AAFF"/>
<path d="M142.765 45.9094C145.196 45.9095 147.166 48.0132 147.166 50.6096C147.166 53.2059 145.195 55.3098 142.765 55.3098C140.334 55.3098 138.364 53.206 138.364 50.6096C138.364 48.0132 140.334 45.9094 142.765 45.9094ZM169.532 45.9094C171.962 45.9097 173.933 48.0134 173.933 50.6096C173.933 53.2058 171.962 55.3095 169.532 55.3098C167.102 55.3098 165.132 53.206 165.132 50.6096C165.132 48.0132 167.102 45.9094 169.532 45.9094ZM150.522 46.2258C150.58 46.226 150.626 46.2759 150.626 46.3372V51.0979C150.626 52.3624 151.224 52.964 152.139 52.9641C153.053 52.9641 153.651 52.3864 153.651 51.1594V47.2717C153.651 47.119 153.629 47.064 153.557 46.9661C153.557 46.9661 153.188 46.4615 153.154 46.4153C153.121 46.3692 153.114 46.3023 153.154 46.259C153.174 46.2369 153.201 46.2258 153.228 46.2258H155.855C155.914 46.226 155.96 46.2759 155.96 46.3372H155.962V51.0862C155.962 53.9162 154.451 55.1555 152.117 55.1555C149.783 55.1555 148.317 53.8911 148.317 51.1487V47.2717C148.317 47.119 148.295 47.0641 148.223 46.9661C148.223 46.9661 147.854 46.4605 147.821 46.4153C147.789 46.3701 147.781 46.3023 147.821 46.259C147.841 46.2369 147.867 46.2258 147.894 46.2258H150.522ZM164.286 46.2258C164.344 46.2258 164.39 46.2758 164.391 46.3372V47.7991C164.391 47.9521 164.368 48.0066 164.296 48.1057L160.276 52.9387H164.287C164.346 52.9387 164.392 52.9885 164.392 53.05L164.391 53.051V54.8821C164.391 54.9446 164.344 54.9934 164.286 54.9934H157.235C157.178 54.9931 157.131 54.9435 157.131 54.8821V53.4192C157.131 53.2665 157.154 53.2115 157.226 53.1135L161.248 48.2795H157.376C157.319 48.2793 157.272 48.2305 157.271 48.1692V46.3372C157.272 46.2759 157.319 46.2261 157.376 46.2258H164.286ZM132.747 46.2268C135.679 46.2268 137.379 48.0298 137.379 50.5598V50.5842C137.379 53.1142 135.655 54.9924 132.7 54.9924H129.686C129.628 54.9924 129.582 54.9427 129.582 54.8811V47.2717C129.582 47.119 129.559 47.0641 129.487 46.9661C129.487 46.9661 129.12 46.4624 129.086 46.4153C129.052 46.3682 129.045 46.3023 129.086 46.259C129.106 46.2369 129.132 46.2258 129.159 46.2258H132.746L132.747 46.2268ZM182.728 46.2258C182.786 46.2261 182.832 46.275 182.832 46.3362V54.8801C182.832 54.9425 182.786 54.9922 182.728 54.9924H181.15C180.938 54.9924 180.826 54.9747 180.727 54.8391L177.332 50.1829V54.8811C177.332 54.9436 177.286 54.9923 177.228 54.9924H175.185C175.127 54.9924 175.081 54.9427 175.081 54.8811V47.2717C175.081 47.119 175.058 47.0651 174.986 46.9661C174.986 46.9661 174.622 46.4673 174.585 46.4163C174.547 46.3645 174.545 46.3032 174.585 46.26C174.606 46.2379 174.632 46.2268 174.659 46.2268H177.058C177.171 46.2384 177.238 46.2751 177.311 46.3743L180.58 50.8596V47.3596C180.58 47.2068 180.557 47.1528 180.485 47.054C180.485 47.054 180.059 46.4682 180.019 46.4153C179.981 46.3614 179.979 46.3023 180.019 46.259C180.04 46.237 180.066 46.2259 180.093 46.2258H182.728ZM190.838 46.2258C190.895 46.226 190.942 46.2749 190.942 46.3362V48.1682C190.942 48.2296 190.895 48.2784 190.838 48.2786H186.665V49.6917H190.408C190.467 49.6919 190.513 49.7406 190.513 49.802V51.4143C190.512 51.4756 190.466 51.5254 190.408 51.5256H186.665V52.9387H190.838C190.895 52.9389 190.942 52.9886 190.942 53.05V54.8811C190.942 54.9435 190.895 54.9923 190.838 54.9924H184.495C184.437 54.9923 184.392 54.9426 184.392 54.8811V47.2717C184.392 47.1189 184.369 47.0642 184.297 46.9661C184.293 46.9609 183.936 46.4701 183.896 46.4153C183.856 46.3604 183.856 46.3023 183.896 46.259C183.916 46.237 183.943 46.2259 183.969 46.2258H190.838ZM142.765 48.2581C141.55 48.2581 140.563 49.3104 140.563 50.6086C140.564 51.9068 141.549 52.9583 142.765 52.9583C143.98 52.9582 144.966 51.9068 144.966 50.6086C144.966 49.3105 143.979 48.2581 142.765 48.2581ZM169.532 48.2581C168.317 48.2581 167.331 49.3104 167.331 50.6086C167.331 51.9068 168.317 52.9583 169.532 52.9583C170.748 52.958 171.733 51.9066 171.733 50.6086C171.733 49.3106 170.747 48.2583 169.532 48.2581ZM131.855 52.9387H132.781C134.142 52.9387 135.045 52.1003 135.045 50.6223V50.595C135.045 49.1303 134.141 48.2795 132.781 48.2795H131.855V52.9387Z" fill="white"/>
<rect x="4" y="193.396" width="94" height="94" rx="47" fill="#0046FF"/>
<path d="M31.8896 233.607C35.4977 233.607 38.5012 236.448 38.667 240.09C38.8344 243.836 35.9348 247.008 32.1933 247.177C28.4503 247.346 25.2776 244.448 25.1084 240.703C24.9394 236.957 27.8368 233.783 31.5781 233.614C31.6825 233.608 31.787 233.607 31.8896 233.607ZM31.2939 234.385C29.8337 234.257 27.9068 234.805 27.7754 237.01C27.7726 237.035 27.5811 238.817 30.2256 241.096C30.238 241.107 33.0185 243.51 33.3174 243.791C34.0267 244.462 34.6136 245.78 32.6064 246.176C32.6064 246.176 32.4356 246.205 32.3965 246.315L32.3916 246.367C32.397 246.496 32.5217 246.545 32.6045 246.545H32.6279C33.5279 246.497 34.2139 246.295 34.8349 245.865C35.6452 245.303 36.3725 243.682 34.2461 241.91C34.2288 241.894 33.5692 241.297 32.3789 240.201C31.7506 239.604 31.4375 239.327 31.4375 239.327C31.2196 239.125 31.0105 238.925 30.8125 238.738C29.2444 237.239 28.8986 235.893 30.0742 235.1C30.3893 234.886 30.806 234.839 31.2705 234.812C31.281 234.811 31.4975 234.797 31.5273 234.646C31.5595 234.502 31.4646 234.4 31.2939 234.385ZM26.6084 241.353C26.2433 241.282 26.3371 242.177 26.5566 242.944C26.7727 243.695 27.2152 244.548 27.9336 245.166C28.6158 245.757 29.3865 246.011 30.0703 246.115L30.3574 246.153C30.4761 246.165 30.5913 246.17 30.6992 246.17C31.1403 246.17 31.4758 246.075 31.4668 245.902C31.4481 245.603 30.5474 245.689 29.7969 244.985C30.2992 244.625 30.5105 244.31 30.6689 244.086C30.9857 243.64 30.7948 243.576 30.4619 243.605C29.5802 243.679 29.1748 243.814 29 243.814C28.8092 243.814 28.9258 243.038 28.8808 242.384C28.8394 241.849 28.6056 241.91 28.3896 242.09C28.0172 242.414 27.7614 242.981 27.6855 242.926C27.5199 242.8 27.3428 242.594 27.125 242.225C26.9144 241.867 26.72 241.373 26.6084 241.353ZM73.5556 241.141C74.6336 241.141 75.4617 241.315 76.0342 241.663C76.6067 242.014 76.8955 242.488 76.8955 243.086C76.8955 243.376 76.8212 243.641 76.6719 243.882C76.5243 244.122 76.3101 244.329 76.0293 244.499C75.7485 244.668 75.4009 244.799 74.9834 244.893C74.5657 244.987 74.1027 245.034 73.5537 245.034C73.0045 245.034 72.5215 244.985 72.1074 244.893C71.6934 244.799 71.3459 244.668 71.0615 244.499C70.7789 244.329 70.566 244.122 70.4238 243.882C70.3172 243.703 70.251 243.508 70.2246 243.299L70.2138 243.086C70.2138 242.488 70.4947 242.012 71.0547 241.663C71.6164 241.315 72.4775 241.141 73.5556 241.141ZM61.666 243.281C61.666 243.448 61.6989 243.553 61.7637 243.596C61.8303 243.639 61.94 243.661 62.0928 243.661H67.0176V244.711H61.8232C61.5461 244.711 61.3046 244.695 61.0976 244.661C60.8906 244.626 60.7193 244.565 60.5879 244.475C60.4546 244.385 60.3576 244.264 60.291 244.113C60.2244 243.963 60.1933 243.769 60.1933 243.535V242.663C60.1933 242.569 60.177 242.486 60.1465 242.413C60.1159 242.339 60.0674 242.261 59.999 242.18C59.9433 242.112 59.929 242.05 59.9541 241.995C59.9793 241.937 60.0243 241.91 60.0928 241.91H61.666V243.281ZM52.5918 243.102C52.5918 243.323 52.6401 243.473 52.7353 243.547C52.8308 243.621 52.988 243.659 53.2041 243.659H57.8799V244.708H52.9541C52.6462 244.708 52.3771 244.686 52.1484 244.643C51.9199 244.598 51.729 244.522 51.5742 244.411C51.4594 244.327 51.3666 244.222 51.2959 244.097L51.2304 243.965C51.1548 243.78 51.1191 243.542 51.1191 243.251V242.556C51.1191 242.463 51.1028 242.38 51.0722 242.306C51.0417 242.232 50.9931 242.155 50.9248 242.074C50.869 242.005 50.8528 241.944 50.8779 241.89C50.9031 241.834 50.9501 241.805 51.0185 241.805H52.5918V243.102ZM43.5371 243.123C43.5371 243.312 43.573 243.445 43.6445 243.523L43.6758 243.551C43.7675 243.621 43.9185 243.658 44.1289 243.658H48.8974V244.705H43.8974C43.5896 244.705 43.3204 244.682 43.0918 244.639C42.8633 244.594 42.6723 244.518 42.5176 244.407C42.363 244.295 42.2495 244.148 42.1758 243.962C42.1037 243.779 42.0664 243.542 42.0664 243.259V242.37C42.0664 242.209 42.0548 242.085 42.0332 241.995C42.0115 241.906 41.9574 241.809 41.8711 241.703C41.8138 241.636 41.799 241.575 41.8242 241.519C41.8476 241.463 41.8947 241.436 41.9629 241.436H43.5371V243.123ZM73.5566 242.18C73.2111 242.18 72.9192 242.198 72.6816 242.24C72.4425 242.281 72.2501 242.337 72.1025 242.411C71.9549 242.485 71.848 242.58 71.7832 242.694C71.7185 242.807 71.6865 242.946 71.6865 243.086C71.6865 243.227 71.7184 243.357 71.7832 243.47C71.848 243.584 71.9549 243.679 72.1025 243.756C72.2519 243.834 72.4442 243.892 72.6816 243.933C72.9192 243.973 73.2129 243.993 73.5566 243.993C73.9003 243.993 74.1922 243.973 74.4316 243.933C74.6675 243.893 74.861 243.834 75.0068 243.756C75.1505 243.679 75.2545 243.583 75.3193 243.47C75.3859 243.357 75.4189 243.234 75.4189 243.086C75.4189 242.939 75.3859 242.807 75.3193 242.694C75.2563 242.58 75.1525 242.484 75.0068 242.411C74.861 242.337 74.6675 242.281 74.4316 242.24C74.1922 242.198 73.9021 242.18 73.5566 242.18ZM57.7685 238.288H58.8232V239.334H57.7685V242.039H56.3154V237.091C56.3154 236.931 56.2973 236.803 56.2685 236.708C56.2379 236.612 56.1801 236.511 56.0937 236.407C56.0307 236.338 56.0122 236.278 56.041 236.226C56.0698 236.172 56.1172 236.147 56.1855 236.147H57.7685V238.288ZM48.7597 241.911H47.3056V237.093C47.3056 236.933 47.2891 236.803 47.2549 236.704C47.2207 236.605 47.1614 236.508 47.0752 236.409C47.0194 236.34 47.0062 236.278 47.0332 236.226C47.062 236.174 47.1094 236.147 47.1777 236.147H48.7597V241.911ZM67.9053 241.353H59.083V240.344H67.9053V241.353ZM53.4648 236.927H55.5664V237.945H54.5918C54.734 238.107 54.8478 238.285 54.9306 238.487C55.0135 238.687 55.0547 238.905 55.0547 239.139C55.0547 239.429 55.0028 239.701 54.8984 239.95C54.794 240.2 54.639 240.418 54.4355 240.604C54.2321 240.79 53.9813 240.935 53.6806 241.04C53.3818 241.144 53.0416 241.197 52.6582 241.197C52.2749 241.197 51.9348 241.144 51.6396 241.04C51.3427 240.933 51.0921 240.789 50.8887 240.604C50.6852 240.418 50.5299 240.2 50.4219 239.95C50.3139 239.701 50.2597 239.429 50.2597 239.139C50.2597 238.96 50.2809 238.791 50.3242 238.634L50.3769 238.482C50.4526 238.286 50.5646 238.105 50.7051 237.945H49.7344V236.927H51.9834V236.833C51.9834 236.673 51.9727 236.545 51.9512 236.45C51.9296 236.354 51.8753 236.253 51.789 236.149C51.7278 236.082 51.7113 236.021 51.7383 235.968C51.767 235.916 51.8137 235.889 51.8818 235.889H53.4648V236.927ZM76.8984 240.973H75.5732V239H74.9521V240.723H73.6269V237.064C73.6269 236.898 73.6103 236.776 73.5762 236.699C73.5401 236.621 73.4954 236.542 73.4414 236.462C73.384 236.382 73.3696 236.319 73.3945 236.272C73.4197 236.227 73.4632 236.204 73.5244 236.204H74.9521V237.908H75.5732V236.147H76.8984V240.973ZM44.3252 237.525C44.3252 237.828 44.3924 238.1 44.5293 238.345C44.6642 238.59 44.8385 238.804 45.0508 238.99C45.265 239.175 45.5051 239.336 45.7734 239.471C46.0415 239.61 46.3113 239.721 46.583 239.815L46.1855 240.564C46.1243 240.676 45.9799 240.708 45.7549 240.658C45.5298 240.609 45.2168 240.461 44.8154 240.214C44.5868 240.072 44.3683 239.914 44.1631 239.738C43.9561 239.561 43.7818 239.375 43.6396 239.177C43.3012 239.66 42.8813 240.067 42.3808 240.4C42.2386 240.494 42.0926 240.581 41.9414 240.666C41.7904 240.748 41.6465 240.816 41.5117 240.869C41.4433 240.895 41.38 240.916 41.3222 240.931L41.166 240.957C41.0689 240.966 41.0053 240.943 40.9746 240.887L40.5498 240.082C40.8577 239.964 41.1511 239.824 41.4248 239.66C41.7002 239.496 41.9417 239.312 42.1523 239.109C42.3612 238.905 42.5268 238.68 42.6474 238.433C42.7681 238.186 42.8271 237.914 42.8271 237.617V237.228C42.8271 237.075 42.8165 236.949 42.7949 236.853C42.7733 236.758 42.7192 236.66 42.6328 236.561C42.5772 236.493 42.5607 236.431 42.5859 236.375C42.6093 236.322 42.6563 236.293 42.7246 236.292H44.3252V237.525ZM71.6318 236.851H73.2793V237.872H72.6582C72.7626 238.012 72.8462 238.17 72.9092 238.343C72.9703 238.516 73.0009 238.7 73.001 238.898C73.001 239.193 72.9501 239.466 72.8564 239.712C72.7592 239.959 72.6203 240.17 72.4385 240.343C72.2567 240.518 72.0298 240.651 71.7617 240.747C71.4935 240.842 71.1874 240.89 70.8418 240.89C70.4961 240.89 70.1882 240.842 69.9199 240.747C69.6518 240.649 69.4269 240.516 69.2451 240.343C69.0615 240.17 68.9226 239.959 68.8271 239.712C68.7317 239.466 68.6826 239.193 68.6826 238.898C68.6826 238.749 68.7005 238.609 68.7334 238.475L68.7763 238.343C68.8339 238.17 68.9171 238.014 69.0215 237.872H68.29V236.851H70.1885V236.825C70.1885 236.657 70.1791 236.526 70.1611 236.43C70.1413 236.335 70.0893 236.237 70.0029 236.138C69.94 236.064 69.9237 236 69.956 235.944C69.9866 235.89 70.0369 235.861 70.1035 235.861H71.6318V236.851ZM52.6601 237.981C52.3325 237.981 52.0802 238.089 51.9092 238.301C51.7345 238.516 51.6504 238.779 51.6504 239.094C51.6504 239.391 51.7364 239.645 51.9092 239.858C52.082 240.07 52.3396 240.177 52.6601 240.177C52.9806 240.177 53.2288 240.072 53.4053 239.858C53.5817 239.645 53.6699 239.39 53.6699 239.094C53.6699 238.779 53.5817 238.514 53.4053 238.301C53.2288 238.089 52.9877 237.981 52.6601 237.981ZM63.501 236.055C64.0807 236.055 64.5831 236.102 65.0097 236.194C65.4346 236.288 65.7875 236.419 66.0683 236.588C66.3473 236.758 66.5583 236.961 66.6933 237.199C66.8284 237.438 66.8965 237.705 66.8965 237.983C66.8964 238.26 66.8284 238.516 66.6933 238.752C66.5583 238.986 66.3491 239.188 66.0683 239.357C65.7875 239.526 65.4347 239.66 65.0097 239.755C64.5849 239.853 64.0825 239.9 63.501 239.9C62.9194 239.9 62.4169 239.851 61.9902 239.755C61.5654 239.66 61.2146 239.526 60.9355 239.357C60.6584 239.188 60.4495 238.986 60.3144 238.752C60.1794 238.518 60.1123 238.267 60.1123 237.983C60.1123 237.698 60.1794 237.437 60.3144 237.199C60.4513 236.963 60.6584 236.759 60.9355 236.588C61.2145 236.417 61.5655 236.288 61.9902 236.194C62.4169 236.102 62.9212 236.055 63.501 236.055ZM70.8476 237.898C70.6982 237.898 70.5699 237.925 70.4619 237.981C70.3539 238.037 70.2636 238.113 70.1933 238.208C70.1215 238.304 70.0734 238.412 70.041 238.533C70.0105 238.651 69.9941 238.777 69.9941 238.907C69.9941 239.029 70.0104 239.15 70.041 239.267C70.0734 239.384 70.1214 239.491 70.1933 239.583C70.2654 239.676 70.3539 239.75 70.4619 239.806C70.5717 239.86 70.7 239.889 70.8476 239.889C70.995 239.889 71.1226 239.862 71.2304 239.806C71.3367 239.75 71.427 239.676 71.499 239.583C71.5692 239.489 71.6198 239.384 71.6504 239.267C71.6809 239.152 71.6972 239.029 71.6972 238.907C71.6972 238.777 71.6809 238.653 71.6504 238.533C71.6216 238.412 71.5691 238.304 71.499 238.208C71.4288 238.113 71.3367 238.037 71.2304 237.981C71.1226 237.925 70.9968 237.898 70.8476 237.898ZM33.5312 235.178C32.9354 235.142 32.4047 234.654 32.2373 235.038C32.1169 235.32 32.8597 235.771 32.5537 236.543C32.3269 237.12 32.1268 237.466 32.0332 238.208C31.9864 238.562 32.0008 238.842 32.0566 239.062C32.0577 239.067 32.1828 239.611 32.7627 239.797L32.8847 239.828C32.9063 239.829 32.9462 239.833 33.0019 239.833C33.353 239.833 34.2664 239.712 33.8144 238.557C33.5535 237.975 33.3497 237.349 33.6914 237.213C34.0371 237.076 34.3737 237.32 34.5088 237.797C34.777 238.752 35.4565 238.955 36.1191 238.467C36.7058 238.04 36.6873 237.212 35.8232 236.983C35.5084 236.902 35.3605 236.891 35.0527 236.548C34.7995 236.187 35.2328 236.084 35.5801 236.253C36.0499 236.482 36.4466 236.115 36.1894 235.812C35.9086 235.482 35.2746 235.302 34.7471 235.234C34.3509 235.182 34.0426 235.205 33.5312 235.178ZM63.499 237.046C62.7951 237.046 62.2961 237.133 61.999 237.302C61.7041 237.473 61.5547 237.693 61.5547 237.983C61.5547 238.273 61.7021 238.498 61.999 238.659C62.2943 238.819 62.7951 238.9 63.499 238.9C64.2028 238.9 64.7019 238.819 64.999 238.659C65.296 238.498 65.4433 238.267 65.4433 237.983C65.4433 237.698 65.2942 237.472 64.999 237.302C64.7019 237.131 64.203 237.046 63.499 237.046Z" fill="white"/>
<rect x="222" y="193.396" width="94" height="94" rx="47" fill="#003477"/>
<path d="M297.064 243.423C298.788 243.423 299.801 244.144 299.801 245.043C299.801 245.942 298.787 246.662 297.064 246.662C295.34 246.662 294.327 245.943 294.327 245.043C294.327 244.143 295.34 243.423 297.064 243.423ZM242.097 239.191C243.026 238.66 244.702 238.704 246.005 239.401C248.731 240.859 248.521 244.28 246.121 245.621C243.203 247.252 238.591 246.085 237.532 245.624V242.507H237.533C238.032 242.907 239.181 243.43 240.473 243.7C242.684 244.162 245.258 244.013 245.272 242.182V240.729H243.491V242.311C242.339 242.411 241.315 241.826 241.248 240.722C241.208 240.046 241.558 239.5 242.097 239.191ZM262.4 238.638C263.172 238.639 264.017 238.765 264.695 238.99V239.945C264.038 239.738 263.317 239.626 262.674 239.626C261.07 239.627 259.768 240.504 259.766 242.377V242.381C259.769 243.94 260.599 245.213 262.182 245.212H262.188C262.604 245.21 263.321 245.096 263.659 244.919L263.679 244.909V242.963H262.336V242.146H264.971V245.832C264.16 246.023 263.017 246.199 262.018 246.199C259.734 246.198 258.19 244.644 258.19 242.429C258.193 240.243 259.727 238.64 262.4 238.638ZM254.442 238.65C255.215 238.65 256.022 238.76 256.724 238.938V239.924C256.163 239.776 255.316 239.616 254.653 239.616C253.829 239.616 252.843 239.887 252.843 240.463C252.843 241.038 253.704 241.266 254.914 241.693L254.913 241.692C256.435 242.229 257.407 242.65 257.407 243.906C257.407 245.163 256.166 246.188 254.17 246.188C253.267 246.188 252.215 246.035 251.448 245.853V244.755C252.038 244.956 253.052 245.201 253.867 245.201C254.855 245.201 255.865 244.776 255.865 244.118C255.865 243.406 254.844 243.116 253.618 242.703C252.137 242.206 251.252 241.74 251.252 240.719C251.252 239.385 252.7 238.65 254.442 238.65ZM267.974 246.093H266.68V238.745H267.974V246.093ZM276.669 246.093H275.509V241.266H273.94V240.454L275.509 240.455V238.745H276.669V246.093ZM284.829 242.475H282.006V242.886H284.407V244.895H279.604V245.089C279.604 245.161 279.612 245.214 279.643 245.248C279.674 245.283 279.721 245.293 279.787 245.293H284.401V246.093H279.373C278.755 246.093 278.442 245.784 278.442 245.201V244.094H283.246V243.686H278.442V242.886H280.844V242.475H278.021V241.664H284.829V242.475ZM287.666 240.484H291.101V238.868H292.222V243.392H289.949V245.181H292.813V245.993H286.004V245.181H288.826V243.392H287.473C286.854 243.392 286.543 243.082 286.543 242.499V238.868H287.666V240.484ZM297.064 244.17C296.067 244.17 295.482 244.56 295.482 245.042C295.482 245.524 296.067 245.914 297.064 245.914C298.061 245.914 298.647 245.524 298.647 245.042C298.646 244.56 298.06 244.17 297.064 244.17ZM272.561 240.677C272.561 240.94 272.589 241.193 272.65 241.438C272.709 241.681 272.809 241.915 272.946 242.139C273.083 242.361 273.255 242.599 273.508 242.788C273.774 242.987 274.009 243.143 274.572 243.22V244.056C274.369 244.042 273.305 243.938 272.615 243.268C272.379 243.039 272.206 242.8 272.07 242.576L272.042 242.531L272.015 242.576C271.879 242.8 271.706 243.039 271.47 243.268C270.78 243.937 269.714 244.039 269.512 244.054V243.219C270.076 243.142 270.311 242.986 270.576 242.787C270.831 242.599 271.001 242.36 271.138 242.138L271.137 242.139C271.276 241.915 271.376 241.681 271.435 241.438C271.494 241.193 271.523 240.94 271.523 240.677V238.82H272.561V240.677ZM300.468 243.024H293.659V242.212H300.468V243.024ZM287.665 242.176C287.665 242.325 287.684 242.43 287.747 242.5C287.81 242.569 287.906 242.591 288.039 242.591H291.099V241.284H287.665V242.176ZM238.009 237.165C239.241 235.228 243.445 234.306 247.503 235.862V238.096C244.674 236.693 241.655 237.078 240.444 238.039C239.095 239.109 239.069 240.882 240.05 241.747C237.275 240.811 237.253 238.353 238.009 237.165ZM300.095 239.631H297.569L297.59 239.682C298.02 240.741 299.448 240.858 300.077 240.936V241.652H300.039C299.674 241.653 297.96 241.603 297.084 240.796L297.064 240.777L297.043 240.796C296.167 241.603 294.453 241.654 294.088 241.652H294.05V240.936C294.677 240.858 296.106 240.741 296.536 239.682L296.556 239.631H294.03V238.82H300.095V239.631ZM281.43 238.32C283.155 238.32 284.167 239.019 284.167 239.893C284.167 240.766 283.154 241.465 281.43 241.465C279.706 241.465 278.694 240.766 278.693 239.893C278.693 239.019 279.706 238.32 281.43 238.32ZM281.43 239.067C280.432 239.067 279.847 239.436 279.847 239.893C279.847 240.349 280.433 240.718 281.43 240.718C282.427 240.718 283.013 240.349 283.013 239.893C283.013 239.436 282.427 239.067 281.43 239.067ZM269.924 234.184C270.058 234.184 270.194 234.2 270.33 234.232C270.463 234.265 270.613 234.323 270.776 234.404L270.815 234.423V234.911H270.698L270.679 234.896C270.552 234.79 270.425 234.714 270.301 234.666C270.176 234.618 270.043 234.595 269.902 234.595C269.789 234.595 269.685 234.613 269.595 234.649C269.507 234.685 269.427 234.742 269.356 234.817C269.288 234.891 269.233 234.987 269.195 235.102C269.156 235.218 269.138 235.35 269.138 235.512C269.138 235.673 269.159 235.813 269.201 235.927C269.243 236.041 269.299 236.135 269.365 236.204C269.434 236.277 269.515 236.332 269.607 236.366C269.7 236.402 269.801 236.419 269.904 236.419C270.05 236.419 270.189 236.394 270.316 236.345C270.444 236.296 270.565 236.22 270.678 236.121L270.697 236.104H270.813L270.812 236.546V236.59L270.61 236.681L270.412 236.755L270.19 236.81L269.92 236.833C269.738 236.833 269.569 236.806 269.418 236.755C269.264 236.702 269.129 236.618 269.018 236.507C268.907 236.398 268.819 236.257 268.757 236.09C268.696 235.923 268.665 235.729 268.665 235.512C268.665 235.306 268.696 235.116 268.754 234.952C268.814 234.786 268.901 234.644 269.014 234.529C269.124 234.417 269.257 234.331 269.411 234.271L269.413 234.271C269.567 234.213 269.739 234.184 269.924 234.184ZM254.133 234.79C254.406 234.79 254.628 234.885 254.792 235.069C254.954 235.252 255.037 235.502 255.037 235.812C255.037 236.123 254.954 236.372 254.792 236.554C254.628 236.738 254.408 236.832 254.133 236.832C253.858 236.832 253.634 236.738 253.47 236.554C253.309 236.373 253.227 236.123 253.227 235.813C253.227 235.504 253.308 235.253 253.47 235.07V235.069C253.634 234.885 253.86 234.79 254.133 234.79ZM255.803 235.938L255.816 236.164C255.824 236.22 255.84 236.267 255.863 236.305C255.886 236.342 255.914 236.367 255.948 236.383C255.974 236.394 256.027 236.408 256.126 236.408C256.196 236.408 256.275 236.39 256.36 236.353C256.439 236.318 256.514 236.271 256.585 236.219V234.841H257.025V236.782H256.585V236.634C256.517 236.68 256.448 236.73 256.382 236.761C256.279 236.808 256.164 236.832 256.04 236.832C255.829 236.832 255.661 236.765 255.542 236.636C255.424 236.508 255.364 236.322 255.364 236.081V234.841H255.803V235.938ZM283.06 234.792C283.193 234.792 283.311 234.803 283.408 234.824C283.512 234.848 283.603 234.888 283.681 234.944C283.757 235 283.817 235.074 283.858 235.164C283.897 235.252 283.917 235.36 283.917 235.485V236.783H283.479V236.649C283.478 236.65 283.475 236.652 283.475 236.652L283.331 236.737L283.143 236.805L282.894 236.832C282.713 236.832 282.557 236.77 282.432 236.65C282.304 236.53 282.239 236.374 282.239 236.188C282.239 236.037 282.273 235.911 282.34 235.816C282.405 235.721 282.5 235.646 282.621 235.592C282.737 235.541 282.878 235.507 283.038 235.488C283.038 235.488 283.375 235.461 283.476 235.453C283.474 235.404 283.466 235.359 283.45 235.326C283.431 235.293 283.406 235.266 283.37 235.246L283.238 235.204L283.058 235.191L282.804 235.221L282.508 235.311L282.401 235.338V234.94L282.397 234.887L282.715 234.821L282.714 234.822L283.06 234.792ZM276.38 236.782H275.941V236.646C275.881 236.688 275.822 236.735 275.758 236.763C275.654 236.807 275.538 236.831 275.418 236.831C275.179 236.831 274.986 236.738 274.845 236.556C274.708 236.378 274.639 236.133 274.639 235.825C274.639 235.665 274.663 235.519 274.71 235.394C274.756 235.267 274.821 235.156 274.901 235.065C274.981 234.978 275.076 234.91 275.184 234.861C275.291 234.815 275.403 234.791 275.518 234.791C275.62 234.791 275.712 234.803 275.791 234.824C275.795 234.826 275.871 234.856 275.941 234.884V234.129H276.38V236.782ZM263.146 234.789C263.408 234.789 263.615 234.869 263.761 235.025C263.905 235.18 263.979 235.401 263.979 235.681V235.914H262.657C262.663 235.984 262.669 236.054 262.691 236.109C262.722 236.182 262.762 236.242 262.813 236.288C262.861 236.333 262.92 236.367 262.987 236.39C263.057 236.413 263.136 236.425 263.222 236.425C263.335 236.425 263.452 236.402 263.567 236.356C263.684 236.312 263.768 236.268 263.814 236.226L263.941 236.126V236.607L263.945 236.653L263.576 236.779C263.462 236.81 263.343 236.825 263.221 236.825C262.903 236.825 262.649 236.737 262.468 236.563C262.286 236.389 262.193 236.134 262.193 235.823C262.193 235.513 262.283 235.26 262.455 235.074V235.072C262.63 234.885 262.862 234.789 263.146 234.789ZM266.724 234.839H267.364V235.227H266.724V235.991L266.73 236.21C266.733 236.254 266.746 236.295 266.768 236.335C266.785 236.366 266.808 236.388 266.837 236.402C266.861 236.414 266.909 236.427 267.004 236.427L267.146 236.407L267.259 236.375L267.364 236.35V236.707L267.368 236.762L267.117 236.811L266.925 236.825C266.72 236.825 266.56 236.768 266.449 236.655C266.34 236.543 266.284 236.366 266.284 236.128V235.228H266.078V234.84H266.284V234.32H266.724V234.839ZM273.491 234.789C273.755 234.789 273.963 234.869 274.108 235.025C274.252 235.18 274.325 235.401 274.325 235.681V235.914H273.003C273.01 235.985 273.015 236.055 273.037 236.109C273.065 236.182 273.107 236.241 273.158 236.288C273.206 236.333 273.267 236.367 273.334 236.39C273.403 236.413 273.481 236.425 273.566 236.425C273.681 236.425 273.799 236.402 273.914 236.356C274.031 236.312 274.114 236.268 274.16 236.226L274.287 236.126V236.607L274.291 236.653L273.922 236.779C273.808 236.81 273.688 236.825 273.566 236.825C273.25 236.825 272.997 236.737 272.815 236.563C272.632 236.389 272.54 236.134 272.54 235.823C272.54 235.513 272.628 235.26 272.801 235.074V235.072C272.975 234.885 273.208 234.789 273.491 234.789ZM278.293 234.839H278.936V235.227H278.293V235.991L278.299 236.21C278.303 236.254 278.315 236.295 278.338 236.335C278.354 236.366 278.378 236.388 278.407 236.402C278.43 236.414 278.478 236.427 278.573 236.427L278.716 236.407L278.828 236.375L278.936 236.35V236.707L278.94 236.762L278.688 236.811L278.495 236.825C278.289 236.825 278.129 236.768 278.02 236.655C277.911 236.544 277.856 236.366 277.856 236.128V235.228H277.65V234.84H277.856V234.32H278.293V234.839ZM286.435 234.839H287.076V235.227H286.435V235.991L286.441 236.21C286.445 236.255 286.457 236.296 286.48 236.335C286.496 236.366 286.52 236.388 286.549 236.402C286.572 236.414 286.62 236.427 286.715 236.427L286.858 236.407L286.971 236.375L287.076 236.35V236.707L287.08 236.762L286.83 236.811L286.637 236.825C286.432 236.825 286.271 236.768 286.161 236.655C286.052 236.543 285.996 236.366 285.996 236.128V235.228H285.791V234.84H285.996V234.32H286.435V234.839ZM290.396 234.79C290.658 234.79 290.867 234.87 291.012 235.026C291.156 235.181 291.23 235.402 291.23 235.682V235.915H289.908C289.913 235.985 289.919 236.055 289.941 236.11C289.971 236.183 290.011 236.242 290.062 236.289C290.11 236.334 290.17 236.368 290.237 236.391C290.308 236.414 290.386 236.426 290.472 236.426C290.585 236.426 290.703 236.403 290.818 236.357C290.935 236.312 291.016 236.267 291.064 236.226L291.191 236.127V236.607L291.195 236.653L290.826 236.779C290.712 236.81 290.593 236.825 290.471 236.825C290.153 236.825 289.9 236.737 289.718 236.563C289.536 236.388 289.444 236.134 289.444 235.823C289.444 235.513 289.533 235.261 289.706 235.074V235.073C289.88 234.886 290.112 234.79 290.396 234.79ZM265.123 234.786C265.236 234.786 265.354 234.801 265.468 234.828C265.585 234.856 265.684 234.891 265.762 234.931L265.798 234.949V235.318L265.781 235.452L265.674 235.371C265.603 235.317 265.512 235.271 265.407 235.231C265.303 235.193 265.202 235.175 265.102 235.175C265.001 235.175 264.918 235.193 264.852 235.231C264.795 235.264 264.77 235.305 264.77 235.367C264.77 235.421 264.785 235.46 264.816 235.486C264.853 235.516 264.917 235.543 265.009 235.564L265.371 235.64C265.526 235.674 265.647 235.737 265.733 235.825C265.822 235.918 265.867 236.04 265.867 236.189C265.867 236.376 265.789 236.531 265.635 236.649C265.487 236.765 265.283 236.823 265.032 236.823C264.892 236.823 264.761 236.806 264.644 236.772L264.35 236.663L264.313 236.649V236.262L264.329 236.126L264.437 236.209C264.527 236.278 264.63 236.334 264.74 236.375C264.85 236.416 264.956 236.436 265.055 236.437C265.176 236.437 265.27 236.418 265.336 236.381C265.391 236.349 265.416 236.3 265.416 236.23C265.416 236.178 265.403 236.14 265.377 236.117C265.359 236.101 265.309 236.069 265.17 236.038L265.004 236.005L264.808 235.962C264.635 235.917 264.509 235.847 264.434 235.754C264.358 235.661 264.319 235.544 264.319 235.41C264.319 235.327 264.338 235.247 264.372 235.172C264.407 235.097 264.46 235.029 264.53 234.972C264.597 234.916 264.684 234.871 264.786 234.839L264.787 234.834C264.886 234.803 264.999 234.786 265.123 234.786ZM252.33 235.254C252.425 235.1 252.95 234.252 252.961 234.234H253.344V234.235H253.465C253.449 234.26 252.576 235.645 252.557 235.677V236.783H252.1V235.71C252.074 235.668 251.192 234.244 251.187 234.234H251.702C251.712 234.251 252.236 235.1 252.33 235.254ZM261.171 234.255C261.265 234.269 261.357 234.298 261.446 234.343C261.547 234.396 261.621 234.466 261.666 234.549C261.713 234.632 261.735 234.731 261.735 234.843C261.735 234.97 261.702 235.082 261.635 235.175C261.594 235.232 261.539 235.28 261.479 235.323C261.598 235.367 261.705 235.426 261.783 235.517C261.887 235.638 261.941 235.792 261.941 235.975C261.941 236.104 261.915 236.221 261.865 236.321C261.815 236.422 261.747 236.506 261.662 236.571C261.565 236.649 261.455 236.705 261.338 236.736C261.224 236.768 261.077 236.783 260.903 236.783H259.976V234.234H260.764L261.171 234.255ZM280.4 234.235H281.059C281.209 234.235 281.338 234.248 281.444 234.274C281.552 234.3 281.65 234.341 281.735 234.397C281.837 234.465 281.916 234.55 281.972 234.651C282.028 234.754 282.056 234.882 282.056 235.033C282.056 235.148 282.034 235.257 281.994 235.355C281.954 235.455 281.896 235.542 281.822 235.616C281.732 235.706 281.624 235.775 281.5 235.819C281.378 235.863 281.225 235.886 281.046 235.886H280.79V236.783H280.333V234.234H280.4V234.235ZM288.461 234.792C288.678 234.792 288.847 234.859 288.963 234.99C289.077 235.12 289.136 235.306 289.136 235.543V236.783H288.696V235.688L288.682 235.463C288.673 235.399 288.658 235.352 288.636 235.317C288.616 235.284 288.588 235.259 288.549 235.242C288.506 235.224 288.449 235.215 288.375 235.215C288.301 235.215 288.221 235.233 288.139 235.271C288.06 235.305 287.985 235.353 287.913 235.404V236.782H287.476V234.841H287.913V234.989C287.98 234.945 288.047 234.894 288.117 234.863H288.118C288.229 234.816 288.345 234.792 288.461 234.792ZM258.528 234.844L258.695 234.868V235.24L258.676 235.319L258.597 235.305L258.471 235.282L258.325 235.276C258.241 235.276 258.159 235.295 258.078 235.332C258.004 235.367 257.932 235.415 257.861 235.469V236.782H257.422V234.84H257.861V235.044C257.945 234.986 258.023 234.937 258.092 234.907V234.905C258.193 234.861 258.298 234.839 258.404 234.839L258.528 234.844ZM272.233 234.844L272.4 234.868V235.24L272.381 235.319L272.302 235.305L272.175 235.282L272.029 235.276C271.945 235.276 271.862 235.295 271.782 235.332C271.708 235.367 271.636 235.416 271.566 235.469V236.782H271.126V234.84H271.566V235.044C271.648 234.986 271.727 234.937 271.795 234.907L271.797 234.905C271.898 234.861 272.003 234.839 272.109 234.839L272.233 234.844ZM277.318 236.782H276.88V234.841H277.318V236.782ZM285.422 234.844L285.589 234.868V235.24L285.57 235.319L285.365 235.282L285.22 235.276C285.135 235.276 285.052 235.295 284.973 235.332C284.899 235.367 284.825 235.415 284.755 235.469V236.782H284.316V234.84H284.755V235.044C284.838 234.986 284.917 234.937 284.985 234.907V234.905C285.087 234.861 285.192 234.839 285.298 234.839L285.422 234.844ZM292.639 234.844L292.806 234.868V235.24L292.786 235.319L292.707 235.305L292.581 235.282L292.435 235.276C292.35 235.276 292.267 235.296 292.189 235.332C292.115 235.367 292.042 235.416 291.972 235.469V236.782H291.532V234.84H291.972V235.044C292.054 234.986 292.132 234.937 292.201 234.907V234.905C292.304 234.861 292.408 234.839 292.515 234.839L292.639 234.844ZM254.133 235.189C253.987 235.189 253.879 235.237 253.8 235.334C253.719 235.435 253.68 235.603 253.68 235.812C253.68 236.021 253.719 236.18 253.801 236.283V236.282C253.881 236.383 253.991 236.432 254.133 236.432C254.274 236.432 254.382 236.383 254.462 236.284C254.544 236.181 254.586 236.028 254.586 235.812C254.586 235.595 254.545 235.434 254.463 235.334C254.383 235.237 254.278 235.19 254.133 235.189ZM283.222 235.854L282.936 235.898C282.859 235.921 282.796 235.954 282.75 235.998C282.711 236.037 282.691 236.093 282.691 236.167C282.691 236.25 282.713 236.311 282.76 236.351L282.803 236.378C282.852 236.402 282.919 236.414 283.004 236.414C283.1 236.414 283.19 236.395 283.27 236.357C283.277 236.353 283.438 236.254 283.478 236.23V235.834C283.384 235.841 283.229 235.853 283.222 235.854ZM275.57 235.209C275.419 235.209 275.304 235.26 275.22 235.361C275.133 235.468 275.09 235.623 275.09 235.821C275.09 236.02 275.124 236.173 275.191 236.271C275.251 236.364 275.35 236.407 275.491 236.407C275.57 236.407 275.652 236.391 275.731 236.357C275.807 236.325 275.877 236.281 275.941 236.233V235.287C275.882 235.267 275.776 235.23 275.772 235.229L275.57 235.209ZM260.432 236.371H260.792L261.129 236.35C261.209 236.337 261.276 236.314 261.323 236.281C261.376 236.246 261.413 236.207 261.436 236.163C261.459 236.121 261.471 236.062 261.471 235.988C261.471 235.904 261.458 235.837 261.434 235.79C261.411 235.747 261.368 235.707 261.303 235.675C261.259 235.653 261.202 235.637 261.137 235.63L260.872 235.618H260.432V236.371ZM263.13 235.173C262.985 235.173 262.875 235.214 262.791 235.299C262.723 235.367 262.686 235.452 262.664 235.547H263.537C263.526 235.438 263.497 235.346 263.441 235.283C263.375 235.21 263.273 235.173 263.13 235.173ZM273.477 235.173C273.331 235.173 273.22 235.214 273.136 235.299C273.067 235.367 273.03 235.452 273.009 235.547H273.883C273.872 235.438 273.843 235.346 273.788 235.283C273.722 235.209 273.619 235.173 273.477 235.173ZM290.382 235.173C290.237 235.173 290.126 235.214 290.041 235.299C289.973 235.368 289.935 235.452 289.914 235.547H290.787C290.777 235.438 290.75 235.346 290.693 235.283C290.627 235.21 290.525 235.173 290.382 235.173ZM280.79 235.474H280.994C281.117 235.474 281.218 235.463 281.294 235.441C281.364 235.421 281.422 235.39 281.464 235.349C281.509 235.304 281.54 235.257 281.558 235.209C281.576 235.16 281.586 235.102 281.586 235.04C281.586 234.967 281.572 234.904 281.547 234.852C281.524 234.801 281.488 234.761 281.439 234.729C281.394 234.701 281.34 234.68 281.281 234.667L281.043 234.646H280.79V235.474ZM260.432 235.206H260.783L261.013 235.193C261.064 235.184 261.112 235.166 261.155 235.139C261.195 235.113 261.221 235.082 261.237 235.044C261.255 235.001 261.265 234.949 261.265 234.889C261.265 234.841 261.256 234.801 261.242 234.771C261.228 234.743 261.206 234.72 261.175 234.702C261.132 234.678 261.078 234.663 261.015 234.657L260.751 234.646H260.432V235.206ZM277.339 234.671H276.862V234.222H277.339V234.671Z" fill="white"/>
</g>
<defs>
<filter id="filter0_d_4193_12788" x="72.0348" y="90.9704" width="176.544" height="176.544" filterUnits="userSpaceOnUse" color-interpolation-filters="sRGB">
<feFlood flood-opacity="0" result="BackgroundImageFix"/>
<feColorMatrix in="SourceAlpha" type="matrix" values="0 0 0 0 0 0 0 0 0 0 0 0 0 0 0 0 0 0 127 0" result="hardAlpha"/>
<feOffset dy="2.10873"/>
<feGaussianBlur stdDeviation="2.63591"/>
<feComposite in2="hardAlpha" operator="out"/>
<feColorMatrix type="matrix" values="0 0 0 0 0.866667 0 0 0 0 0.901961 0 0 0 0 1 0 0 0 0.25 0"/>
<feBlend mode="normal" in2="BackgroundImageFix" result="effect1_dropShadow_4193_12788"/>
<feBlend mode="normal" in="SourceGraphic" in2="effect1_dropShadow_4193_12788" result="shape"/>
</filter>
<linearGradient id="paint0_linear_4193_12788" x1="117.925" y1="171.862" x2="123.093" y2="171.862" gradientUnits="userSpaceOnUse">
<stop stop-color="#0046FF" stop-opacity="0"/>
<stop offset="1" stop-color="#0046FF"/>
</linearGradient>
<clipPath id="clip0_4193_12788">
<rect width="320" height="302" fill="white"/>
</clipPath>
<clipPath id="clip1_4193_12788">
<rect width="105.437" height="15.8155" fill="white" transform="translate(107.588 169.226)"/>
</clipPath>
</defs>
</svg>
