<svg width="32" height="32" viewBox="0 0 32 32" fill="none" xmlns="http://www.w3.org/2000/svg">
<g clip-path="url(#clip0_5316_37899)">
<path d="M21.208 9.70703C21.9652 9.80082 22.7082 9.99451 23.416 10.2881L23.7979 10.457C24.6776 10.8738 25.4803 11.4393 26.1699 12.1299C27.7617 13.7239 28.6562 15.8864 28.6562 18.1406C28.6636 20.1032 27.9843 22.0064 26.7373 23.5205L28.4355 25.2207C28.553 25.3401 28.6323 25.4917 28.6641 25.6562C28.6958 25.821 28.6782 25.9918 28.6133 26.1465L28.5527 26.2568C28.4842 26.3615 28.3927 26.4498 28.2852 26.5156C28.1416 26.6034 27.9747 26.6467 27.8066 26.6396H20.168C17.9169 26.6396 15.7578 25.7443 14.166 24.1504C13.8016 23.7855 13.4745 23.3904 13.1855 22.9717C13.6618 22.9378 14.1322 22.8686 14.5938 22.7646C14.7375 22.9385 14.8891 23.1067 15.0498 23.2676C16.4073 24.6269 18.2489 25.3896 20.168 25.3896H26.8379L25.8525 24.4033C25.3983 23.948 25.3636 23.2221 25.7725 22.7256C26.834 21.4366 27.4126 19.8158 27.4062 18.1445V18.1406C27.4062 16.2174 26.6427 14.3731 25.2852 13.0137C24.6131 12.3407 23.8154 11.8066 22.9375 11.4424C22.5293 11.2731 22.1069 11.1436 21.6768 11.0518C21.5542 10.5918 21.3975 10.1426 21.208 9.70703Z" fill="#222222"/>
<path d="M20.75 13.5C20.75 11.3116 19.8817 9.21297 18.3369 7.66602C16.7922 6.11918 14.6975 5.25008 12.5137 5.25C11.4324 5.25 10.3614 5.46356 9.36231 5.87793C8.36312 6.29237 7.45438 6.90005 6.68946 7.66602C5.14483 9.21295 4.27638 11.3117 4.27638 13.5V13.5039C4.26918 15.406 4.92752 17.2507 6.13575 18.7178C6.54478 19.2144 6.51029 19.9412 6.05567 20.3965L4.70411 21.749H12.5137V22.999H3.97559C3.83455 23.005 3.69436 22.9795 3.56544 22.9248L3.44141 22.8604C3.32122 22.7869 3.21924 22.6882 3.14259 22.5713L3.07423 22.4482C3.00159 22.2753 2.98215 22.0847 3.01759 21.9004C3.05303 21.7162 3.1419 21.5466 3.27345 21.4131L5.17091 19.5127C3.77721 17.8205 3.01818 15.6934 3.02638 13.5C3.02638 11.1382 3.90497 8.86658 5.48048 7.12402L5.80567 6.78223C6.68654 5.90022 7.73196 5.20001 8.88282 4.72266C10.0338 4.24526 11.2679 4 12.5137 4L12.9834 4.01172C15.3283 4.12811 17.5537 5.11196 19.2217 6.78223C21.0007 8.56374 22 10.9806 22 13.5L21.9883 13.9707C21.872 16.3186 20.8895 18.5467 19.2217 20.2168L18.8809 20.542C17.1407 22.1198 14.8723 22.9989 12.5137 22.999V21.749C14.6974 21.7489 16.7922 20.8807 18.3369 19.334C19.8817 17.7871 20.7499 15.6883 20.75 13.5Z" fill="#222222"/>
<path d="M16.5 11.375C16.8452 11.375 17.125 11.6548 17.125 12C17.125 12.3452 16.8452 12.625 16.5 12.625H8.5C8.15482 12.625 7.875 12.3452 7.875 12C7.875 11.6548 8.15482 11.375 8.5 11.375H16.5Z" fill="#3869FC"/>
<path d="M13.5 15.375C13.8452 15.375 14.125 15.6548 14.125 16C14.125 16.3452 13.8452 16.625 13.5 16.625H8.5C8.15482 16.625 7.875 16.3452 7.875 16C7.875 15.6548 8.15482 15.375 8.5 15.375H13.5Z" fill="#3869FC"/>
</g>
<defs>
<clipPath id="clip0_5316_37899">
<rect width="25.6789" height="22.6404" fill="white" transform="translate(3.00037 4)"/>
</clipPath>
</defs>
</svg>
