<svg width="72" height="73" viewBox="0 0 72 73" fill="none" xmlns="http://www.w3.org/2000/svg">
<path d="M56.2163 31.8374H15.7838C15.3146 31.8374 14.8658 31.6417 14.5468 31.2974C14.2296 30.9532 14.0676 30.4908 14.1013 30.0233C14.5232 24.4023 18.6947 19.7347 24.1656 18.604C26.5213 14.3144 31.0725 11.5874 36 11.5874C40.9275 11.5874 45.4787 14.3144 47.8361 18.6057C53.307 19.7363 57.4785 24.404 57.9004 30.025C57.9358 30.4925 57.7738 30.9548 57.4549 31.2991C57.1343 31.6417 56.6871 31.8374 56.2163 31.8374Z" fill="#CFDBFF"/>
<path d="M56.2163 31.8374H15.7838C15.3146 31.8374 14.8658 31.6417 14.5468 31.2974C14.2296 30.9532 14.0676 30.4908 14.1013 30.0233C14.5232 24.4023 18.6947 19.7347 24.1656 18.604C26.5213 14.3144 31.0725 11.5874 36 11.5874C40.9275 11.5874 45.4787 14.3144 47.8361 18.6057C53.307 19.7363 57.4785 24.404 57.9004 30.025C57.9358 30.4925 57.7738 30.9548 57.4549 31.2991C57.1343 31.6417 56.6871 31.8374 56.2163 31.8374Z" fill="url(#paint0_linear_5316_41684)"/>
<path d="M49.0106 52.5767C45.6525 54.416 41.7881 55.4623 37.6875 55.4623H34.3125C30.2119 55.4623 26.3475 54.416 22.9894 52.5767C22.6856 52.8973 22.5 53.3023 22.5 53.7748V57.1498C22.5 59.9342 24.7781 62.2123 27.5625 62.2123H44.4375C47.2219 62.2123 49.5 59.9342 49.5 57.1498V53.7748C49.5 53.3023 49.3144 52.8973 49.0106 52.5767Z" fill="url(#paint1_linear_5316_41684)"/>
<path d="M37.6875 57.1499H34.3125C20.3552 57.1499 9 45.7947 9 31.8374C9 29.9761 10.5137 28.4624 12.375 28.4624H59.625C61.4863 28.4624 63 29.9761 63 31.8374C63 45.7947 51.6448 57.1499 37.6875 57.1499Z" fill="url(#paint2_linear_5316_41684)"/>
<defs>
<linearGradient id="paint0_linear_5316_41684" x1="36.0011" y1="45.3374" x2="36.0542" y2="6.52498" gradientUnits="userSpaceOnUse">
<stop stop-color="white"/>
<stop offset="1" stop-color="#C5D4FD"/>
</linearGradient>
<linearGradient id="paint1_linear_5316_41684" x1="35.9398" y1="78.5103" x2="33.9963" y2="54.3992" gradientUnits="userSpaceOnUse">
<stop stop-color="#C5D4FD"/>
<stop offset="1" stop-color="#0046FF"/>
</linearGradient>
<linearGradient id="paint2_linear_5316_41684" x1="26" y1="4.8999" x2="63.0139" y2="65.8915" gradientUnits="userSpaceOnUse">
<stop stop-color="#C5D4FD"/>
<stop offset="1" stop-color="#0046FF"/>
</linearGradient>
</defs>
</svg>
