<svg width="72" height="73" viewBox="0 0 72 73" fill="none" xmlns="http://www.w3.org/2000/svg">
<path d="M8 30.3796L33.9883 9.40698C35.454 8.22439 37.546 8.22445 39.0117 9.40698L65 30.3796L39.0117 51.3523C37.5459 52.535 35.454 52.5351 33.9883 51.3523L8 30.3796Z" fill="url(#paint0_linear_5316_41667)"/>
<rect x="12.5" y="16.3799" width="48" height="42" rx="3" fill="white"/>
<path d="M61.6992 64.2949C61.4749 64.3485 61.2417 64.3799 61.001 64.3799H11C9.34315 64.3799 8 63.0367 8 61.3799V30.3799L61.6992 64.2949Z" fill="url(#paint1_linear_5316_41667)"/>
<path d="M65 61.3799C65 63.0367 63.6569 64.3799 62 64.3799H11C10.2863 64.3799 9.63122 64.1301 9.11621 63.7139L65 30.3799V61.3799ZM8.00098 61.418C8.00082 61.4053 8 61.3926 8 61.3799V33.3799C8 33.3668 8.00081 33.3538 8.00098 33.3408V61.418Z" fill="url(#paint2_linear_5316_41667)"/>
<path d="M33.4207 26.3854C32.3791 26.3314 31.3345 26.6714 30.5656 27.4212C29.0268 28.9249 29.1877 31.4484 30.8342 33.0561L31.3601 33.569L36.1395 38.234C36.2356 38.3274 36.3657 38.3799 36.5014 38.3799C36.6371 38.3799 36.7672 38.3274 36.8633 38.234L41.6406 33.569L42.1665 33.0561C43.813 31.4484 43.9729 28.9249 42.4331 27.4222C40.8943 25.9195 38.3119 26.0795 36.6664 27.6862L36.5004 27.8481L36.3343 27.6862C35.5111 26.8813 34.4633 26.4394 33.4207 26.3854Z" fill="#2948A4"/>
<defs>
<linearGradient id="paint0_linear_5316_41667" x1="74.5" y1="54.8205" x2="50.5552" y2="-4.50277" gradientUnits="userSpaceOnUse">
<stop stop-color="#C5D4FD"/>
<stop offset="1" stop-color="#0046FF"/>
</linearGradient>
<linearGradient id="paint1_linear_5316_41667" x1="88.467" y1="94.7283" x2="66.7558" y2="-23.1259" gradientUnits="userSpaceOnUse">
<stop stop-color="#C5D4FD"/>
<stop offset="1" stop-color="#0046FF"/>
</linearGradient>
<linearGradient id="paint2_linear_5316_41667" x1="74.3303" y1="66.2298" x2="58.8889" y2="17.7289" gradientUnits="userSpaceOnUse">
<stop stop-color="#C5D4FD"/>
<stop offset="1" stop-color="#0046FF"/>
</linearGradient>
</defs>
</svg>
