<svg width="32" height="32" viewBox="0 0 32 32" fill="none" xmlns="http://www.w3.org/2000/svg">
<g clip-path="url(#clip0_5316_37913)">
<path fill-rule="evenodd" clip-rule="evenodd" d="M16 12C18.4853 12 20.5 14.0147 20.5 16.5C20.5 17.9315 19.8309 19.2061 18.7891 20.0303C21.7978 20.8936 24 23.664 24 26.9502L23.9902 27.1338C23.9043 27.9811 23.2311 28.6543 22.3838 28.7402L22.2002 28.75H9.7998C8.86784 28.7499 8.10184 28.0415 8.00977 27.1338L8 26.9502C8 23.6641 10.2015 20.8927 13.21 20.0293C12.1688 19.2051 11.5 17.931 11.5 16.5C11.5 14.0147 13.5147 12 16 12ZM15.2002 21C11.9141 21 9.25 23.6641 9.25 26.9502C9.25011 27.2538 9.4962 27.4999 9.7998 27.5H22.2002C22.5038 27.4999 22.7499 27.2538 22.75 26.9502C22.75 23.6641 20.0859 21 16.7998 21H15.2002ZM16 13.25C14.2051 13.25 12.75 14.7051 12.75 16.5C12.75 18.2949 14.2051 19.75 16 19.75C17.7949 19.75 19.25 18.2949 19.25 16.5C19.25 14.7051 17.7949 13.25 16 13.25Z" fill="#222222"/>
<path fill-rule="evenodd" clip-rule="evenodd" d="M6.23827 7.30572C6.56487 6.71581 7.43513 6.71579 7.76171 7.30572L7.82323 7.44146L8.40722 9.06256L10.1309 9.11822C10.9499 9.1444 11.2867 10.181 10.6396 10.6837L9.27734 11.7413L9.75878 13.3975C9.98652 14.1842 9.1046 14.825 8.42675 14.3653L6.99999 13.3956L5.57323 14.3653C4.89538 14.825 4.01346 14.1842 4.2412 13.3975L4.72167 11.7413L3.36034 10.6837C2.71321 10.181 3.05009 9.14438 3.86913 9.11822L5.59179 9.06256L6.17675 7.44146L6.23827 7.30572ZM6.68163 9.72662C6.56004 10.0638 6.24496 10.2931 5.88671 10.3047L4.94823 10.334L5.68945 10.9102C5.97258 11.1301 6.09287 11.5005 5.99316 11.8448L5.73144 12.7452L6.50878 12.2188L6.62402 12.1534C6.90117 12.0214 7.23175 12.0429 7.4912 12.2188L8.26757 12.7452L8.00683 11.8448C7.90711 11.5005 8.0274 11.1301 8.31054 10.9102L9.05077 10.334L8.11327 10.3047C7.75501 10.2932 7.43995 10.0638 7.31835 9.72662L6.99999 8.84283L6.68163 9.72662Z" fill="#3869FC"/>
<path fill-rule="evenodd" clip-rule="evenodd" d="M24.2383 7.30572C24.5649 6.71581 25.4351 6.71579 25.7617 7.30572L25.8232 7.44146L26.4072 9.06256L28.1309 9.11822C28.9499 9.1444 29.2867 10.181 28.6396 10.6837L27.2773 11.7413L27.7588 13.3975C27.9865 14.1842 27.1046 14.825 26.4268 14.3653L25 13.3956L23.5732 14.3653C22.8954 14.825 22.0135 14.1842 22.2412 13.3975L22.7217 11.7413L21.3603 10.6837C20.7132 10.181 21.0501 9.14438 21.8691 9.11822L23.5918 9.06256L24.1768 7.44146L24.2383 7.30572ZM24.6816 9.72662C24.56 10.0638 24.245 10.2931 23.8867 10.3047L22.9482 10.334L23.6894 10.9102C23.9726 11.1301 24.0929 11.5005 23.9932 11.8448L23.7314 12.7452L24.5088 12.2188L24.624 12.1534C24.9012 12.0214 25.2317 12.0429 25.4912 12.2188L26.2676 12.7452L26.0068 11.8448C25.9071 11.5005 26.0274 11.1301 26.3105 10.9102L27.0508 10.334L26.1133 10.3047C25.755 10.2932 25.44 10.0638 25.3184 9.72662L25 8.84283L24.6816 9.72662Z" fill="#3869FC"/>
<path fill-rule="evenodd" clip-rule="evenodd" d="M15.2383 2.30572C15.5649 1.71581 16.4351 1.71579 16.7617 2.30572L16.8232 2.44146L17.4072 4.06256L19.1309 4.11822C19.9499 4.1444 20.2867 5.18101 19.6396 5.68365L18.2773 6.74127L18.7588 8.39752C18.9865 9.18425 18.1046 9.82497 17.4268 9.36529L16 8.39557L14.5732 9.36529C13.8954 9.82497 13.0135 9.18425 13.2412 8.39752L13.7217 6.74127L12.3603 5.68365C11.7132 5.18101 12.0501 4.14438 12.8691 4.11822L14.5918 4.06256L15.1768 2.44146L15.2383 2.30572ZM15.6816 4.72662C15.56 5.06383 15.245 5.29315 14.8867 5.30475L13.9482 5.33404L14.6894 5.91021C14.9726 6.13008 15.0929 6.50047 14.9932 6.84479L14.7314 7.74518L15.5088 7.21881L15.624 7.15338C15.9012 7.0214 16.2317 7.04292 16.4912 7.21881L17.2676 7.74518L17.0068 6.84479C16.9071 6.50047 17.0274 6.13008 17.3105 5.91021L18.0508 5.33404L17.1133 5.30475C16.755 5.29316 16.44 5.06384 16.3184 4.72662L16 3.84283L15.6816 4.72662Z" fill="#3869FC"/>
</g>
<defs>
<clipPath id="clip0_5316_37913">
<rect width="25.9589" height="26.8867" fill="white" transform="translate(3.02051 1.86328)"/>
</clipPath>
</defs>
</svg>
