<svg width="72" height="73" viewBox="0 0 72 73" fill="none" xmlns="http://www.w3.org/2000/svg">
<g clip-path="url(#clip0_5316_41662)">
<path d="M19.4773 55.3779C24.7371 55.3779 29.0007 59.6425 29.0007 64.9023C29.0006 65.1651 28.7879 65.3778 28.5251 65.3779H7.47632C7.21346 65.3779 6.99991 65.1652 6.99976 64.9023C6.99976 59.6425 11.2643 55.3779 16.5242 55.3779H19.4773ZM18.0007 41.3779C21.3145 41.378 24.0007 44.0643 24.0007 47.3779C24.0007 50.6916 21.3145 53.3779 18.0007 53.3779C14.6869 53.3779 12.0007 50.6916 12.0007 47.3779C12.0007 44.0642 14.6869 41.3779 18.0007 41.3779Z" fill="url(#paint0_linear_5316_41662)"/>
<path d="M55.4763 55.3779C60.7361 55.378 64.9998 59.6426 64.9998 64.9023C64.9996 65.1651 64.7869 65.3777 64.5242 65.3779H43.4763C43.2134 65.3779 42.9999 65.1652 42.9998 64.9023C42.9998 59.6425 47.2643 55.3779 52.5242 55.3779H55.4763ZM53.9998 41.3779C57.3135 41.3779 59.9998 44.0642 59.9998 47.3779C59.9998 50.6916 57.3134 53.3779 53.9998 53.3779C50.6861 53.3779 47.9998 50.6916 47.9998 47.3779C47.9998 44.0643 50.6861 41.378 53.9998 41.3779Z" fill="url(#paint1_linear_5316_41662)"/>
<path d="M37.571 53.3779C43.8829 53.3779 48.9998 58.4948 48.9998 64.8066C48.9997 65.1222 48.744 65.3779 48.4285 65.3779H23.571C23.2557 65.3777 22.9998 65.122 22.9998 64.8066C22.9998 58.4949 28.1167 53.378 34.4285 53.3779H37.571ZM35.9998 37.3779C39.8657 37.3779 42.9998 40.5119 42.9998 44.3779C42.9998 48.2439 39.8657 51.3779 35.9998 51.3779C32.1339 51.3778 28.9998 48.2438 28.9998 44.3779C28.9998 40.512 32.1339 37.3781 35.9998 37.3779Z" fill="url(#paint2_linear_5316_41662)"/>
</g>
<path d="M51.6079 10.3887C51.2871 10.3184 50.9867 10.5693 51.0005 10.8965L51.2036 15.7148C51.2211 16.1286 51.7076 16.3428 52.0259 16.0771L53.2407 15.0615C54.7362 16.5487 55.4709 18.7654 54.9868 21.0176C54.6407 22.6277 53.7349 23.9665 52.5239 24.8721C52.3024 25.0379 52.2319 25.346 52.3804 25.5791L53.3794 27.1465C53.5275 27.3784 53.8364 27.4478 54.061 27.2881C55.8987 25.9814 57.275 24.0003 57.7876 21.6162C58.4618 18.4795 57.4866 15.3707 55.4409 13.2207L56.5474 12.2949C56.8657 12.0287 56.7385 11.5139 56.3325 11.4248L51.6079 10.3887Z" fill="#C5D4FD"/>
<path d="M20.3918 10.3884C20.7127 10.3181 21.013 10.5691 20.9993 10.8962L20.7961 15.7146C20.7787 16.1284 20.2922 16.3426 19.9739 16.0769L18.76 15.0613C17.2641 16.5484 16.5289 18.7648 17.0129 21.0173C17.3591 22.6275 18.2649 23.9662 19.4758 24.8718C19.6973 25.0376 19.7676 25.3458 19.6194 25.5789L18.6204 27.1462C18.4723 27.3784 18.1634 27.4476 17.9387 27.2878C16.101 25.9811 14.7247 24.0002 14.2122 21.616C13.5379 18.4789 14.5136 15.3705 16.5598 13.2205L15.4524 12.2947C15.1341 12.0284 15.2613 11.5136 15.6672 11.4246L20.3918 10.3884Z" fill="#C5D4FD"/>
<path d="M44.7965 9.35622C44.562 9.11622 44.2101 8.99622 43.8583 9.11622C41.278 9.71622 38.6978 9.11622 36.5867 7.55622C36.2348 7.31622 35.6484 7.31622 35.2965 7.55622C33.0681 9.11622 30.4879 9.71622 27.9077 9.11622C27.3212 8.99622 26.6175 9.47622 26.5002 10.0762C26.5002 10.1962 26.5002 10.1962 26.5002 10.3162V19.3162C26.5002 22.7962 28.1422 26.0362 30.957 28.0762L35.2965 31.1962C35.6484 31.4362 36.2348 31.4362 36.7039 31.1962L41.0435 28.0762C43.8583 26.0362 45.5002 22.7962 45.5002 19.3162V10.3162C45.2657 9.95622 45.1484 9.59622 44.7965 9.35622ZM39.4015 18.2362L35.4138 22.3162C34.9447 22.7962 34.241 22.7962 33.7718 22.3162L31.8953 20.3962C31.4262 19.9162 31.4262 19.1962 31.8953 18.7162C32.3644 18.2362 33.0681 18.2362 33.5373 18.7162L34.5928 19.7962L37.7595 16.5562C38.2286 16.0762 38.9323 16.0762 39.4015 16.5562C39.8706 17.0362 39.8706 17.7562 39.4015 18.2362Z" fill="url(#paint3_linear_5316_41662)"/>
<defs>
<linearGradient id="paint0_linear_5316_41662" x1="17.9512" y1="83.3779" x2="17.9149" y2="5.87795" gradientUnits="userSpaceOnUse">
<stop stop-color="#C5D4FD"/>
<stop offset="1" stop-color="#0046FF"/>
</linearGradient>
<linearGradient id="paint1_linear_5316_41662" x1="53.9507" y1="83.3779" x2="53.9144" y2="5.87795" gradientUnits="userSpaceOnUse">
<stop stop-color="#C5D4FD"/>
<stop offset="1" stop-color="#0046FF"/>
</linearGradient>
<linearGradient id="paint2_linear_5316_41662" x1="47.0392" y1="130.585" x2="85.6779" y2="87.5623" gradientUnits="userSpaceOnUse">
<stop stop-color="#C5D4FD"/>
<stop offset="1" stop-color="#0046FF"/>
</linearGradient>
<linearGradient id="paint3_linear_5316_41662" x1="36.1525" y1="92.3162" x2="36.0567" y2="24.7435" gradientUnits="userSpaceOnUse">
<stop stop-color="#8AA3E7"/>
<stop offset="1" stop-color="#2847A4"/>
</linearGradient>
<clipPath id="clip0_5316_41662">
<rect width="58" height="28" fill="white" transform="translate(6.99976 37.3779)"/>
</clipPath>
</defs>
</svg>
