<svg width="32" height="32" viewBox="0 0 32 32" fill="none" xmlns="http://www.w3.org/2000/svg">
<g clip-path="url(#clip0_5316_37892)">
<path d="M12 21.3754C12.3452 21.3754 12.625 21.6552 12.625 22.0004C12.625 22.3455 12.3452 22.6254 12 22.6254H8C7.65482 22.6254 7.375 22.3455 7.375 22.0004C7.375 21.6552 7.65482 21.3754 8 21.3754H12Z" fill="#222222"/>
<path fill-rule="evenodd" clip-rule="evenodd" d="M22.9043 4.00037C24.0615 4.00037 25 5.02413 25 6.2865V13.0248C26.8035 14.18 28 16.1997 28 18.5004C28 20.1347 27.3953 21.6268 26.3994 22.7689L27.4238 23.7933C27.9898 23.4959 28.7057 23.585 29.1816 24.0609L30.5967 25.475L30.6992 25.5892C31.1795 26.1783 31.1454 27.0469 30.5967 27.5961C30.0476 28.1452 29.178 28.18 28.5889 27.6996L28.4746 27.5961L27.0605 26.182C26.6814 25.8028 26.5484 25.2713 26.6602 24.7845C26.6361 24.7666 26.6117 24.7487 26.5898 24.7269L25.4912 23.6283C25.3332 23.7514 25.1692 23.8666 25 23.975V25.7142C25 26.8978 24.1749 27.8708 23.1182 27.9877L22.9043 28.0004H5.0957L4.88184 27.9877C3.89545 27.8786 3.11172 27.0237 3.01172 25.9476L3 25.7142V6.2865C3 5.02413 3.93854 4.00037 5.0957 4.00037H22.9043ZM28.4746 24.7679C28.2793 24.5728 27.9628 24.5727 27.7676 24.7679C27.5725 24.9632 27.5725 25.2797 27.7676 25.475L29.1816 26.889C29.3769 27.0843 29.6934 27.0842 29.8887 26.889C30.0839 26.6938 30.0839 26.3773 29.8887 26.182L28.4746 24.7679ZM5.0957 5.42908C4.66176 5.42908 4.30957 5.81311 4.30957 6.2865V25.7142C4.30957 26.1876 4.66177 26.5717 5.0957 26.5717H22.9043C23.3382 26.5717 23.6904 26.1876 23.6904 25.7142V24.6205C23.0059 24.8655 22.2688 25.0004 21.5 25.0004C18.1196 25.0004 15.342 22.42 15.0293 19.1215L15 19.1254H8C7.65482 19.1254 7.375 18.8455 7.375 18.5004C7.375 18.1552 7.65482 17.8754 8 17.8754H15L15.0293 17.8783C15.0919 17.2185 15.254 16.5878 15.499 16.0004H10.7139C10.3689 16.0002 10.0812 15.7554 10.0146 15.4301L10 15.2865V15.0004C10 13.4212 10.9153 12.056 12.2441 11.4056C11.9355 11.0205 11.75 10.5323 11.75 10.0004C11.75 8.75773 12.7574 7.75037 14 7.75037C15.2426 7.75037 16.25 8.75773 16.25 10.0004C16.25 10.533 16.0633 11.0212 15.7539 11.4066C16.5673 11.8045 17.2266 12.4687 17.6152 13.2875C17.4727 13.3939 17.3361 13.5077 17.2031 13.6254C18.3488 12.6148 19.8522 12.0004 21.5 12.0004C22.2716 12.0004 23.0116 12.1355 23.6982 12.3822C23.6956 12.3813 23.693 12.3802 23.6904 12.3793V6.2865C23.6904 5.81311 23.3382 5.42908 22.9043 5.42908H5.0957ZM21.5 13.2504C18.6005 13.2504 16.25 15.6009 16.25 18.5004C16.25 21.3999 18.6005 23.7504 21.5 23.7504C24.3995 23.7504 26.75 21.3999 26.75 18.5004C26.75 15.6009 24.3995 13.2504 21.5 13.2504ZM14 12.2504C12.5655 12.2504 11.3891 13.3488 11.2627 14.7504H16.1924C16.2855 14.6188 16.3819 14.4897 16.4844 14.3656L16.6279 14.1986C16.2849 13.0712 15.2396 12.2504 14 12.2504ZM14 9.00037C13.4477 9.00037 13 9.44808 13 10.0004C13 10.5527 13.4477 11.0004 14 11.0004C14.5523 11.0004 15 10.5527 15 10.0004C15 9.44808 14.5523 9.00037 14 9.00037Z" fill="#222222"/>
<path d="M24.1768 16.5643C24.4173 16.3169 24.813 16.3113 25.0606 16.5516C25.3081 16.7921 25.3137 17.1878 25.0733 17.4354L21.1915 21.4354C21.0738 21.5567 20.9113 21.6249 20.7423 21.6249C20.5735 21.6247 20.4116 21.5566 20.294 21.4354L18.1768 19.2538L18.0977 19.1542C17.9413 18.9093 17.9731 18.5803 18.1895 18.37C18.4372 18.1296 18.8329 18.1352 19.0733 18.3827L20.7423 20.1014L24.1768 16.5643Z" fill="#3869FC"/>
</g>
<defs>
<clipPath id="clip0_5316_37892">
<rect width="28.0355" height="24.0353" fill="white" transform="translate(3 4.00037)"/>
</clipPath>
</defs>
</svg>
