<svg width="32" height="32" viewBox="0 0 32 32" fill="none" xmlns="http://www.w3.org/2000/svg">
<g clip-path="url(#clip0_5316_37906)">
<path d="M12.3271 16.7881C12.5712 16.544 12.9669 16.5441 13.2109 16.7881C13.455 17.0322 13.455 17.4278 13.2109 17.6719L11.8828 18.999L13.2129 20.3291C13.457 20.5732 13.457 20.9688 13.2129 21.2129C12.9688 21.4568 12.5731 21.4569 12.3291 21.2129L10.999 19.8828L9.67578 21.208C9.43182 21.4519 9.03606 21.4517 8.79199 21.208C8.54791 20.9639 8.54791 20.5673 8.79199 20.3232L10.1152 18.999L8.79395 17.6777C8.54991 17.4337 8.55 17.038 8.79395 16.7939C9.03802 16.5499 9.43366 16.5499 9.67773 16.7939L10.999 18.1152L12.3271 16.7881Z" fill="#222222"/>
<path d="M11 7.875C11.3452 7.875 11.625 8.15482 11.625 8.5V10.375H13.5C13.8452 10.375 14.125 10.6548 14.125 11C14.125 11.3452 13.8452 11.625 13.5 11.625H11.625V13.5C11.625 13.8452 11.3452 14.125 11 14.125C10.6548 14.125 10.375 13.8452 10.375 13.5V11.625H8.5C8.15482 11.625 7.875 11.3452 7.875 11C7.875 10.6548 8.15482 10.375 8.5 10.375H10.375V8.5C10.375 8.15482 10.6548 7.875 11 7.875Z" fill="#222222"/>
<path d="M21.5 10.375C21.8452 10.375 22.125 10.6548 22.125 11C22.125 11.3452 21.8452 11.625 21.5 11.625H16.5C16.1548 11.625 15.875 11.3452 15.875 11C15.875 10.6548 16.1548 10.375 16.5 10.375H21.5Z" fill="#222222"/>
<path fill-rule="evenodd" clip-rule="evenodd" d="M24 4C25.1046 4 26 4.89543 26 6V14.6738C25.9636 14.6565 25.9264 14.6407 25.8896 14.624C28.3136 15.7243 30 18.1646 30 21C30 24.866 26.866 28 23 28C21.0931 28 19.365 27.2367 18.1025 26H6L5.7959 25.9893C4.85435 25.8938 4.1062 25.1457 4.01074 24.2041L4 24V6C4 4.89543 4.89543 4 6 4H24ZM23 15.25C19.8244 15.25 17.25 17.8244 17.25 21C17.25 24.1756 19.8244 26.75 23 26.75C26.1756 26.75 28.75 24.1756 28.75 21C28.75 17.8244 26.1756 15.25 23 15.25ZM6 5.25C5.58579 5.25 5.25 5.58579 5.25 6V24C5.25 24.4142 5.58579 24.75 6 24.75H17.0908C16.4013 23.6657 16 22.3801 16 21C16 17.134 19.134 14 23 14C23.6341 14 24.2479 14.0861 24.832 14.2441C24.8046 14.2367 24.7776 14.2278 24.75 14.2207V6C24.75 5.58579 24.4142 5.25 24 5.25H6Z" fill="#222222"/>
<path d="M25 21.875C25.3452 21.875 25.625 22.1548 25.625 22.5C25.625 22.8452 25.3452 23.125 25 23.125H21C20.6548 23.125 20.375 22.8452 20.375 22.5C20.375 22.1548 20.6548 21.875 21 21.875H25Z" fill="#3869FC"/>
<path d="M25 18.875C25.3452 18.875 25.625 19.1548 25.625 19.5C25.625 19.8452 25.3452 20.125 25 20.125H21C20.6548 20.125 20.375 19.8452 20.375 19.5C20.375 19.1548 20.6548 18.875 21 18.875H25Z" fill="#3869FC"/>
</g>
<defs>
<clipPath id="clip0_5316_37906">
<rect width="26" height="24" fill="white" transform="translate(4 4)"/>
</clipPath>
</defs>
</svg>
