<svg width="72" height="73" viewBox="0 0 72 73" fill="none" xmlns="http://www.w3.org/2000/svg">
<path d="M35.976 6.97266H54.3689C56.6947 6.97266 58.6463 8.71451 58.9136 11.0191L64.9822 63.8373C65.1693 65.5256 63.8594 66.9727 62.1751 66.9727H56.8818C55.6253 66.9727 54.5827 66.0347 54.4223 64.802L54.0748 61.9883C53.8609 60.2464 52.3906 58.9334 50.6261 58.9334H41.8842H33.4898C31.6719 58.9334 30.255 60.5412 30.4688 62.3367L30.656 63.7837C30.8698 65.472 29.5599 66.9459 27.8489 66.9459H22.6358C21.3794 66.9459 20.31 66.0079 20.1763 64.7485L14.0276 11.0727C13.7602 8.92889 15.4712 6.97266 17.7168 6.97266H35.976Z" fill="url(#paint0_linear_5316_41690)"/>
<path d="M36.0047 6.97266H17.4434C15.2565 6.97266 13.3897 8.63263 13.1497 10.8281L7.01591 64.3756C6.8559 65.7678 7.92265 66.9727 9.30942 66.9727H14.8565C16.2699 66.9727 17.4434 65.9285 17.63 64.5095L18.0034 61.484C18.1901 60.0382 19.4168 58.9405 20.8569 58.9405H30.111H39.1783C40.6184 58.9405 41.7385 60.1989 41.5518 61.6447L41.2051 64.3488C41.0451 65.7411 42.1118 66.9459 43.4986 66.9459H49.0457C50.4591 66.9459 51.6592 65.8749 51.8192 64.4559L57.9797 10.5871C58.193 8.6594 56.6996 6.97266 54.7528 6.97266H36.0047Z" fill="url(#paint1_linear_5316_41690)"/>
<rect x="20" y="42.9727" width="21" height="2" rx="1" fill="#ACBDF1"/>
<rect x="19" y="47.9727" width="17" height="2" rx="1" fill="#ACBDF1"/>
<path d="M42.2804 34.5025C47.9165 29.0982 48.4619 20.521 43.4986 15.3448C38.5353 10.1685 29.9428 10.3534 24.3066 15.7577C18.6705 21.1619 18.1251 29.7391 23.0884 34.9154C28.0518 40.0916 36.6443 39.9068 42.2804 34.5025Z" fill="#CFDBFF"/>
<path d="M42.2804 34.5025C47.9165 29.0982 48.4619 20.521 43.4986 15.3448C38.5353 10.1685 29.9428 10.3534 24.3066 15.7577C18.6705 21.1619 18.1251 29.7391 23.0884 34.9154C28.0518 40.0916 36.6443 39.9068 42.2804 34.5025Z" fill="url(#paint2_linear_5316_41690)"/>
<path d="M31.021 30.0277C34.0276 29.7169 36.1648 26.5616 35.7946 22.9802C35.4243 19.3989 32.6869 16.7475 29.6803 17.0583C26.6737 17.3691 24.5365 20.5244 24.9067 24.1058C25.2769 27.6872 28.0144 30.3385 31.021 30.0277Z" fill="url(#paint3_linear_5316_41690)"/>
<path d="M29.6824 18.2856C29.338 19.3703 29.0796 20.594 29.5389 21.5953C29.826 22.1794 30.2853 22.5131 30.8594 22.9303C31.2613 23.2362 31.6918 23.5422 32.0937 23.9594C32.5243 24.4044 32.8401 24.9885 32.9549 25.6003C33.0984 26.4625 32.8975 27.436 32.3808 28.2148C32.2372 28.4373 32.065 28.6598 31.8641 28.8266C31.8354 28.8545 31.8067 28.8823 31.778 28.9101C31.6918 28.9935 31.5483 28.9935 31.4622 28.9101C31.4335 28.8823 31.4048 28.8266 31.4048 28.7988C31.4048 28.7154 31.4048 28.6319 31.4335 28.5207C31.4909 27.9923 31.5483 27.4638 31.5196 26.9354C31.5196 26.4347 31.4909 25.9619 31.2038 25.5447C30.8307 24.9885 30.314 24.6547 29.7399 24.1819C29.137 23.6813 28.4194 22.9859 28.161 22.1515C27.874 21.3172 27.9888 20.3159 28.362 19.4815C28.5342 19.0643 28.7639 18.7027 29.0509 18.369C29.137 18.2577 29.2519 18.1465 29.3667 18.0352C29.4528 17.9518 29.5963 17.9518 29.6824 18.0352C29.6824 18.1187 29.7111 18.2021 29.6824 18.2856Z" fill="#DFE7FE"/>
<path d="M40.7834 29.6536C42.609 26.3287 42.0463 22.5118 39.5266 21.1284C37.007 19.745 33.4845 21.3189 31.659 24.6438C29.8334 27.9687 30.3961 31.7855 32.9158 33.169C35.4354 34.5524 38.9579 32.9785 40.7834 29.6536Z" fill="url(#paint4_linear_5316_41690)"/>
<path d="M38.8544 22.3499C38.0534 22.9879 37.2039 23.8119 36.9126 24.8752C36.767 25.4866 36.8641 26.0448 36.9612 26.7094C37.034 27.1613 37.1311 27.6663 37.1311 28.2511C37.1311 28.836 37.0097 29.5005 36.7427 30.0587C36.3301 30.8296 35.6748 31.4676 34.9466 31.7866C34.7282 31.8929 34.5097 31.9461 34.2913 31.9727C34.267 31.9727 34.2184 31.9727 34.1942 31.9727C34.0971 31.9727 34 31.8929 34 31.7866C34 31.7334 34.0243 31.7068 34.0485 31.6537C34.0971 31.5739 34.1456 31.5208 34.2184 31.441C34.5583 31.0689 34.8738 30.6701 35.165 30.2448C35.432 29.8461 35.699 29.4473 35.7476 28.9689C35.8204 28.3043 35.699 27.7461 35.6262 27.0549C35.5291 26.3106 35.4806 25.3271 35.7961 24.5296C36.0874 23.7056 36.7184 22.9613 37.3981 22.536C37.7379 22.3233 38.0777 22.1638 38.4418 22.0575C38.5631 22.0309 38.6845 22.0043 38.8058 21.9777C38.9029 21.9512 39 22.0309 39 22.1638C38.9757 22.2436 38.9272 22.2967 38.8544 22.3499Z" fill="#DFE7FE"/>
<defs>
<linearGradient id="paint0_linear_5316_41690" x1="82" y1="106.9" x2="13.8945" y2="26.9903" gradientUnits="userSpaceOnUse">
<stop stop-color="#8AA3E7"/>
<stop offset="1" stop-color="#2847A4"/>
</linearGradient>
<linearGradient id="paint1_linear_5316_41690" x1="-1.5" y1="-57.1016" x2="49.0938" y2="92.6979" gradientUnits="userSpaceOnUse">
<stop stop-color="#C5D4FD"/>
<stop offset="1" stop-color="#3869FC"/>
</linearGradient>
<linearGradient id="paint2_linear_5316_41690" x1="54.2629" y1="46.999" x2="19.9112" y2="10.978" gradientUnits="userSpaceOnUse">
<stop stop-color="white"/>
<stop offset="1" stop-color="#C5D4FD"/>
</linearGradient>
<linearGradient id="paint3_linear_5316_41690" x1="34.5125" y1="62.9501" x2="30.6889" y2="26.4395" gradientUnits="userSpaceOnUse">
<stop stop-color="#8AA3E7"/>
<stop offset="1" stop-color="#2847A4"/>
</linearGradient>
<linearGradient id="paint4_linear_5316_41690" x1="64.005" y1="42.2778" x2="38.3027" y2="28.1944" gradientUnits="userSpaceOnUse">
<stop stop-color="#8AA3E7"/>
<stop offset="1" stop-color="#2847A4"/>
</linearGradient>
</defs>
</svg>
