<svg width="56" height="56" viewBox="0 0 56 56" fill="none" xmlns="http://www.w3.org/2000/svg">
<path d="M28.75 34C29.3023 34 29.75 34.4477 29.75 35C29.75 35.5523 29.3023 36 28.75 36H18.25C17.6977 36 17.25 35.5523 17.25 35C17.25 34.4477 17.6977 34 18.25 34H28.75Z" fill="#3869FC"/>
<path d="M35.75 27C36.3023 27 36.75 27.4477 36.75 28C36.75 28.5523 36.3023 29 35.75 29H18.25C17.6977 29 17.25 28.5523 17.25 28C17.25 27.4477 17.6977 27 18.25 27H35.75Z" fill="#3869FC"/>
<path d="M35.75 20C36.3023 20 36.75 20.4477 36.75 21C36.75 21.5523 36.3023 22 35.75 22H18.25C17.6977 22 17.25 21.5523 17.25 21C17.25 20.4477 17.6977 20 18.25 20H35.75Z" fill="#3869FC"/>
<path d="M43.2929 40.293C43.6835 39.9024 44.3165 39.9024 44.707 40.293C45.0975 40.6835 45.0975 41.3165 44.707 41.707L42.414 44L44.707 46.293C45.0975 46.6835 45.0975 47.3165 44.707 47.707C44.3165 48.0975 43.6835 48.0975 43.2929 47.707L41 45.4141L38.707 47.707C38.3165 48.0975 37.6834 48.0975 37.2929 47.707C36.9024 47.3165 36.9025 46.6835 37.2929 46.293L39.5859 44L37.2929 41.707C36.9024 41.3165 36.9024 40.6835 37.2929 40.293C37.6835 39.9024 38.3165 39.9024 38.707 40.293L41 42.5859L43.2929 40.293Z" fill="#222222"/>
<path fill-rule="evenodd" clip-rule="evenodd" d="M41 35C45.9705 35 50 39.0294 50 44C50 48.9706 45.9705 53 41 53C36.0294 53 32 48.9706 32 44C32 39.0294 36.0294 35 41 35ZM41 37C37.134 37 34 40.134 34 44C34 47.866 37.134 51 41 51C44.866 51 48 47.866 48 44C48 40.134 44.866 37 41 37Z" fill="#222222"/>
<path d="M43.2041 7.01074C44.2128 7.11301 45 7.96435 45 9V35.9375C44.3714 35.6251 43.7014 35.3848 43 35.2256V9H11V47H32.5137C32.7654 47.7121 33.1035 48.383 33.5166 49H11C9.96435 49 9.113 48.2128 9.01074 47.2041L9 47V9C9 7.89543 9.89543 7 11 7H43L43.2041 7.01074Z" fill="#222222"/>
</svg>
