<svg width="16" height="16" viewBox="0 0 16 16" fill="none" xmlns="http://www.w3.org/2000/svg">
<g clip-path="url(#clip0_3824_16551)">
<path d="M1 0.99707C1 0.444786 1.44772 -0.00292969 2 -0.00292969H11.5801C11.8487 -0.00292969 12.106 0.10511 12.294 0.296862L13.5938 1.62207L14.6991 2.70287C14.8915 2.89102 15 3.14877 15 3.41788V14.9971C15 15.5494 14.5523 15.9971 14 15.9971H2C1.44772 15.9971 1 15.5494 1 14.9971V0.99707Z" fill="#2890D9"/>
<path d="M6.72031 13.021C6.71265 12.8685 6.75105 12.7171 6.83051 12.5866C6.90996 12.456 7.02677 12.3522 7.16602 12.2885C7.30526 12.2247 7.46057 12.204 7.61172 12.229C7.76288 12.254 7.90306 12.3237 8.01415 12.4288C8.12524 12.534 8.20219 12.6699 8.23502 12.819C8.26784 12.9682 8.25501 13.1238 8.19828 13.2657C8.14155 13.4075 8.04336 13.5292 7.91659 13.615C7.78981 13.7008 7.64024 13.7467 7.48702 13.7468C7.28882 13.7517 7.09684 13.678 6.9531 13.5419C6.80937 13.4058 6.72558 13.2185 6.72031 13.021ZM4.94355 10.4861C4.74742 10.2622 4.6005 9.99994 4.51188 9.71608C4.42327 9.43223 4.39504 9.13305 4.42906 8.83772C4.43562 8.36994 4.56557 7.91209 4.80575 7.51014C5.14346 7.00276 5.59112 6.57755 6.11597 6.26593C6.64082 5.9543 7.22925 5.76423 7.83774 5.70981C7.83774 5.70981 7.6087 5.28007 6.28045 5.28007H6.14147C5.47024 5.26028 4.80126 5.36352 4.16748 5.58471V4.71276C4.3503 4.37279 4.62956 4.09407 4.97046 3.91145C5.31136 3.72884 5.69877 3.65037 6.08415 3.68597C6.93609 3.72544 7.76946 3.94634 8.52865 4.33362C9.09968 4.68756 9.61626 5.12214 10.0621 5.62388H10.0679C10.1449 5.61523 10.2223 5.61102 10.2998 5.61141C10.4843 5.59248 10.6707 5.61049 10.8482 5.66422C11.0257 5.71795 11.1907 5.80632 11.3335 5.92433C11.4762 6.04233 11.5939 6.18762 11.6797 6.3515C11.7655 6.51539 11.8175 6.69461 11.833 6.87882L11.8246 7.39752C11.5005 7.15639 11.1291 6.98556 10.7347 6.89608C10.7006 6.89564 10.6667 6.90049 10.6341 6.91042C10.6341 6.91042 10.6341 6.91509 10.6341 6.92464C10.7057 7.39896 10.7151 7.88054 10.662 8.35726C10.6553 8.37827 10.6477 8.41171 10.6362 8.46138C10.5281 9.00373 10.2862 9.51083 9.93269 9.93702C9.14398 10.8878 8.13239 11.2557 7.01838 11.3448C6.08415 11.3448 5.53125 11.125 4.94355 10.49V10.4861ZM6.24792 8.41078C6.19818 8.59201 6.18527 8.7813 6.20979 8.9676C6.23431 9.15389 6.29568 9.33342 6.39065 9.49573C6.51113 9.63676 6.66324 9.74775 6.83448 9.81973C7.00572 9.89171 7.19139 9.92275 7.37682 9.91032H7.40373C7.71201 9.88937 8.01109 9.79731 8.2776 9.64147C8.54411 9.48563 8.77076 9.27023 8.93949 9.01225C9.10823 8.75427 9.21447 8.46078 9.24997 8.15487C9.28547 7.84896 9.24918 7.53901 9.14398 7.24945C9.11278 7.19748 9.07109 7.15242 9.02162 7.11724C8.97214 7.08207 8.9159 7.05756 8.85643 7.04508C8.85643 7.04508 8.80387 7.04508 8.71091 7.04508C8.21279 7.01726 7.71685 7.13082 7.28089 7.37257C6.84494 7.61432 6.4868 7.97428 6.24792 8.41078ZM6.72709 3.04801C6.77353 2.89591 6.85167 2.75536 6.95638 2.63541C7.06109 2.51546 7.18998 2.41887 7.33471 2.35199C7.47943 2.2851 7.63681 2.24934 7.79633 2.24718C7.95584 2.24501 8.11402 2.27647 8.26052 2.3394C8.75766 2.53919 9.20065 2.85256 9.55389 3.25437C9.90714 3.65618 10.1606 4.13518 10.2939 4.6526C10.2939 4.6526 8.32758 2.84935 6.72428 3.04801H6.72709Z" fill="white"/>
</g>
<defs>
<clipPath id="clip0_3824_16551">
<rect width="16" height="16" fill="white"/>
</clipPath>
</defs>
</svg>
