<svg width="16" height="16" viewBox="0 0 16 16" fill="none" xmlns="http://www.w3.org/2000/svg">
<g clip-path="url(#clip0_3824_16554)">
<path d="M1 0.99707C1 0.444786 1.44772 -0.00292969 2 -0.00292969H11.5801C11.8487 -0.00292969 12.106 0.10511 12.294 0.296862L13.5938 1.62207L14.6991 2.70287C14.8915 2.89102 15 3.14877 15 3.41788V14.9971C15 15.5494 14.5523 15.9971 14 15.9971H2C1.44772 15.9971 1 15.5494 1 14.9971V0.99707Z" fill="#A19893"/>
<path d="M9.50098 12.75H6.50098C6.23576 12.75 5.98148 12.6446 5.79395 12.4571C5.60641 12.2696 5.50098 12.0152 5.50098 11.75V0.75H10.501V11.75C10.501 12.0152 10.3955 12.2696 10.208 12.4571C10.0205 12.6446 9.76619 12.75 9.50098 12.75ZM8.50098 10.75V11.75H9.50098V10.75H8.50098ZM6.50098 9.75V10.75H7.50098V9.75H6.50098ZM8.50098 8.75V9.75H9.50098V8.75H8.50098ZM6.50098 7.75V8.75H7.50098V7.75H6.50098ZM8.50098 6.75V7.75H9.50098V6.75H8.50098ZM6.50098 5.75V6.75H7.50098V5.75H6.50098ZM8.50098 4.75V5.75H9.50098V4.75H8.50098ZM6.50098 3.75V4.75H7.50098V3.75H6.50098ZM8.50098 2.75V3.75H9.50098V2.75H8.50098ZM6.50098 1.75V2.75H7.50098V1.75H6.50098Z" fill="#F1EFEE"/>
<path d="M8.5 0.75H7.5V12.75H8.5V0.75Z" fill="#CBC6C4"/>
</g>
<defs>
<clipPath id="clip0_3824_16554">
<rect width="16" height="16" fill="white"/>
</clipPath>
</defs>
</svg>
