<svg width="16" height="16" viewBox="0 0 16 16" fill="none" xmlns="http://www.w3.org/2000/svg">
<g clip-path="url(#clip0_3824_16548)">
<path d="M1 0.99707C1 0.444786 1.44772 -0.00292969 2 -0.00292969H11.5801C11.8487 -0.00292969 12.106 0.10511 12.294 0.296862L13.5938 1.62207L14.6991 2.70287C14.8915 2.89102 15 3.14877 15 3.41788V14.9971C15 15.5494 14.5523 15.9971 14 15.9971H2C1.44772 15.9971 1 15.5494 1 14.9971V0.99707Z" fill="#F57654"/>
<path d="M5 12.5V4H7.74933C8.79118 4 9.47032 4.04252 9.78673 4.12756C10.2729 4.25512 10.68 4.53342 11.008 4.96248C11.336 5.38768 11.5 5.93849 11.5 6.61494C11.5 7.13677 11.4055 7.57549 11.2164 7.9311C11.0273 8.28672 10.7861 8.56696 10.4929 8.77183C10.2035 8.97283 9.90828 9.10618 9.6073 9.1719C9.19828 9.25307 8.60597 9.29366 7.83036 9.29366H6.71327V12.5H5ZM6.71327 5.43793V7.84993H7.65093C8.32621 7.84993 8.77768 7.80548 9.00534 7.71658C9.23301 7.62767 9.41051 7.48852 9.53784 7.29911C9.66904 7.10971 9.73464 6.88938 9.73464 6.63813C9.73464 6.3289 9.64396 6.07378 9.4626 5.87278C9.28124 5.67178 9.05165 5.54616 8.77382 5.49591C8.56931 5.45725 8.15836 5.43793 7.54096 5.43793H6.71327Z" fill="white"/>
</g>
<defs>
<clipPath id="clip0_3824_16548">
<rect width="16" height="16" fill="white"/>
</clipPath>
</defs>
</svg>
