<svg width="16" height="16" viewBox="0 0 16 16" fill="none" xmlns="http://www.w3.org/2000/svg">
<g clip-path="url(#clip0_3419_1611)">
<path d="M1 0.99707C1 0.444786 1.44772 -0.00292969 2 -0.00292969H11.5801C11.8487 -0.00292969 12.106 0.10511 12.294 0.296862L13.5938 1.62207L14.6991 2.70287C14.8915 2.89102 15 3.14877 15 3.41788V14.9971C15 15.5494 14.5523 15.9971 14 15.9971H2C1.44772 15.9971 1 15.5494 1 14.9971V0.99707Z" fill="#F7BC09"/>
<path opacity="0.902" d="M10.2319 4.49316C10.5286 4.49316 10.8188 4.58115 11.0654 4.74597C11.3121 4.91079 11.5044 5.14504 11.6179 5.41913C11.7315 5.69322 11.761 5.9948 11.7031 6.28577C11.6452 6.57674 11.5025 6.84405 11.2927 7.05383C11.0829 7.26361 10.8156 7.40648 10.5247 7.46436C10.2337 7.52223 9.93205 7.4925 9.65796 7.37897C9.38387 7.26544 9.14969 7.07321 8.98486 6.82654C8.82004 6.57986 8.73193 6.28984 8.73193 5.99316C8.73193 5.59534 8.89008 5.2138 9.17139 4.9325C9.45269 4.65119 9.83411 4.49316 10.2319 4.49316ZM2.73193 12.4932L5.5 8.0625L7.75 11.5092L9.75 9.50916L12.7319 12.4932H2.73193Z" fill="white"/>
</g>
<defs>
<clipPath id="clip0_3419_1611">
<rect width="16" height="16" fill="white"/>
</clipPath>
</defs>
</svg>
