<svg width="41" height="41" viewBox="0 0 41 41" fill="none" xmlns="http://www.w3.org/2000/svg">
<path d="M25.0562 7.40167H9.11177C8.16828 7.40167 7.40344 8.16651 7.40344 9.11V25.0544C7.40344 25.9979 8.16828 26.7628 9.11177 26.7628V29.61C6.59581 29.61 4.55621 27.5704 4.55621 25.0544V9.11C4.55621 6.59404 6.59581 4.55444 9.11177 4.55444H25.0562C27.5722 4.55444 29.6118 6.59404 29.6118 9.11H26.7645C26.7645 8.16651 25.9997 7.40167 25.0562 7.40167Z" fill="#353C49"/>
<path fill-rule="evenodd" clip-rule="evenodd" d="M11.3895 15.9433C11.3895 13.4274 13.4291 11.3878 15.9451 11.3878H31.8895C34.4055 11.3878 36.4451 13.4274 36.4451 15.9433V31.8878C36.4451 34.4037 34.4055 36.4433 31.8895 36.4433H15.9451C13.4291 36.4433 11.3895 34.4037 11.3895 31.8878V15.9433ZM15.9451 14.235H31.8895C32.833 14.235 33.5979 14.9998 33.5979 15.9433V31.8878C33.5979 32.8313 32.833 33.5961 31.8895 33.5961H15.9451C15.0016 33.5961 14.2368 32.8313 14.2368 31.8878V15.9433C14.2368 14.9998 15.0016 14.235 15.9451 14.235Z" fill="#353C49"/>
</svg>
