<svg width="41" height="41" viewBox="0 0 41 41" fill="none" xmlns="http://www.w3.org/2000/svg">
<path d="M35.6999 16.5062L19.5499 31.9496L3.3999 16.5062L17.5885 6.48537C18.7643 5.65496 20.3355 5.65496 21.5113 6.48537L35.6999 16.5062Z" fill="#4E7AD9"/>
<path d="M19.601 16.6416V16.7425L19.5001 16.6416H19.601Z" fill="#EBEBEB"/>
<path d="M28.5818 8.16138H10.4688C7.65218 8.16138 5.36884 10.4447 5.36884 13.2614V22.5423C5.36884 25.359 7.65218 27.6423 10.4688 27.6423H28.5818C31.3985 27.6423 33.6818 25.359 33.6818 22.5423V13.2614C33.6818 10.4447 31.3985 8.16138 28.5818 8.16138Z" fill="url(#paint0_linear_2268_20664)"/>
<path d="M24.6475 14.7737C24.3447 13.7643 23.5372 12.9568 22.4774 12.8559C21.9727 12.8054 21.468 12.9063 20.9633 13.1082C20.8119 13.1587 19.7016 13.8148 19.5502 13.9662C19.3988 13.8148 18.238 13.1587 18.1371 13.1082C17.6828 12.9063 17.1277 12.8054 16.623 12.8559C15.5632 12.9568 14.7557 13.7643 14.4528 14.7737C14.3014 15.3793 14.3014 16.0354 14.4024 16.6915C14.8061 18.9121 16.5221 20.729 18.5913 21.5365C18.9446 21.6879 19.1969 21.7384 19.4997 21.7384C19.8025 21.7384 20.0549 21.6879 20.4082 21.5365C22.4774 20.729 24.1933 18.8617 24.5971 16.6915C24.7989 16.0354 24.7989 15.3793 24.6475 14.7737Z" fill="#0066FF"/>
<path d="M35.6999 16.5054V33.6966C35.6999 35.5744 34.1777 37.0966 32.2999 37.0966H6.7999C4.92213 37.0966 3.3999 35.5744 3.3999 33.6966V16.5054L19.5499 26.801L35.6999 16.5054Z" fill="#B3CEFB"/>
<path d="M19.5503 26.8013L34.4487 36.3296C33.863 36.8082 33.1157 37.0961 32.3003 37.0962H6.80029C4.92258 37.0962 3.39999 35.5745 3.3999 33.6968V16.5054L19.5503 26.8013Z" fill="#9DBEFF"/>
<defs>
<linearGradient id="paint0_linear_2268_20664" x1="21.6072" y1="12.838" x2="21.5925" y2="38.0868" gradientUnits="userSpaceOnUse">
<stop stop-color="#EEF4FF"/>
<stop offset="1" stop-color="#D7E5FF"/>
</linearGradient>
</defs>
</svg>
