<svg width="31" height="31" viewBox="0 0 31 31" fill="none" xmlns="http://www.w3.org/2000/svg">
<g clip-path="url(#clip0_2268_18090)">
<path fill-rule="evenodd" clip-rule="evenodd" d="M11.8999 5.52502H6.7999C6.09574 5.52502 5.5249 6.09586 5.5249 6.80002V23.8C5.5249 24.5042 6.09574 25.075 6.7999 25.075H23.7999C24.5041 25.075 25.0749 24.5042 25.0749 23.8V18.7C25.0972 18.1329 25.5648 17.6801 26.1374 17.6801C26.71 17.6801 27.1767 18.1329 27.1991 18.7L27.1999 18.7426V23.8C27.1999 25.6778 25.6777 27.2 23.7999 27.2H6.7999C4.92213 27.2 3.3999 25.6778 3.3999 23.8V6.80002C3.3999 4.92225 4.92213 3.40002 6.7999 3.40002H11.8999C11.9139 3.39947 11.9281 3.40002 11.9422 3.40002C12.529 3.40002 13.0047 3.87572 13.0047 4.46252C13.0047 5.04932 12.529 5.52502 11.9422 5.52502C11.9281 5.52502 11.9139 5.52557 11.8999 5.52502Z" fill="white"/>
<path fill-rule="evenodd" clip-rule="evenodd" d="M19.0831 3.27871C19.4673 3.10838 19.9157 3.18047 20.2272 3.46262L27.0633 9.65617C27.2856 9.85758 27.4124 10.1436 27.4124 10.4436C27.4124 10.7435 27.2856 11.0295 27.0633 11.231L20.2271 17.4245C19.9157 17.7067 19.4673 17.7788 19.0831 17.6084C18.6989 17.4381 18.4513 17.0573 18.4513 16.6371L18.4513 13.8598C16.697 14.1495 15.1938 15.116 14.0376 16.1414C13.3548 16.747 12.8192 17.3504 12.4542 17.7949C12.2757 18.0123 12.1391 18.1903 12.0419 18.317L12.0294 18.3333C11.9879 18.3874 11.9391 18.4509 11.9009 18.497C11.9007 18.4972 11.9013 18.4964 11.9009 18.497C11.8917 18.5082 11.8261 18.5888 11.7402 18.6608C11.7139 18.6829 11.6499 18.7351 11.5581 18.7846L11.5557 18.7859C11.5024 18.8148 11.2229 18.966 10.8483 18.8932C10.6195 18.8487 10.4047 18.7286 10.2445 18.5422C10.0982 18.372 10.039 18.1953 10.0137 18.0834C9.99161 17.9858 9.98636 17.8971 9.98762 17.8267C9.99293 15.1216 11.1373 12.4718 12.8497 10.4991C14.3214 8.80375 16.2941 7.52044 18.4513 7.19536L18.4513 4.25002C18.4513 3.82979 18.699 3.44904 19.0831 3.27871ZM20.5763 6.64636L20.5763 8.17764C20.5763 8.76444 20.1006 9.24013 19.5138 9.24013C17.7344 9.24013 15.8894 10.2391 14.4545 11.8921C13.8295 12.6121 13.3032 13.4336 12.9088 14.3084C14.469 12.993 16.7302 11.647 19.5139 11.647C19.7957 11.647 20.0659 11.7589 20.2652 11.9582C20.4645 12.1575 20.5764 12.4277 20.5764 12.7095L20.5763 14.2407L24.7674 10.4436L20.5763 6.64636ZM12.0987 18.0168C12.1041 17.9837 12.108 17.9504 12.1102 17.917C12.1071 17.9657 12.1013 18.0009 12.0987 18.0168Z" fill="white"/>
</g>
<defs>
<clipPath id="clip0_2268_18090">
<rect width="30.6" height="30.6" fill="white"/>
</clipPath>
</defs>
</svg>
