<svg width="40" height="40" viewBox="0 0 40 40" fill="none" xmlns="http://www.w3.org/2000/svg">
<path d="M18.4656 2.88236C18.9468 2.04081 20.0395 1.75369 20.8816 2.22892C21.1522 2.38733 21.3828 2.60515 21.5432 2.88236L39.7682 34.3862C40.2494 35.2278 39.9587 36.2971 39.1066 36.7723C38.8359 36.9208 38.5352 37 38.2244 37H1.77438C0.791956 37 0 36.2179 0 35.2476C0 34.9407 0.0801981 34.6436 0.230569 34.3862L18.4656 2.88236Z" fill="#FEBB2B" fill-opacity="0.2"/>
<path fill-rule="evenodd" clip-rule="evenodd" d="M20 14C21.1046 14 22 14.9234 22 16.0625V24.1607C22 25.2998 21.1046 26.2232 20 26.2232C18.8954 26.2232 18 25.2998 18 24.1607V16.0625C18 14.9234 18.8954 14 20 14ZM20 33C21.1046 33 22 32.0766 22 30.9375C22 29.7984 21.1046 28.875 20 28.875C18.8954 28.875 18 29.7984 18 30.9375C18 32.0766 18.8954 33 20 33Z" fill="#FEBB2B"/>
</svg>
