<svg width="40" height="40" viewBox="0 0 40 40" fill="none" xmlns="http://www.w3.org/2000/svg">
<path d="M20 40C31.0457 40 40 31.0457 40 20C40 8.9543 31.0457 0 20 0C8.9543 0 0 8.9543 0 20C0 31.0457 8.9543 40 20 40Z" fill="#FC5356" fill-opacity="0.1"/>
<path fill-rule="evenodd" clip-rule="evenodd" d="M20 11C21.1046 11 22 11.9234 22 13.0625V22.1607C22 23.2998 21.1046 24.2232 20 24.2232C18.8954 24.2232 18 23.2998 18 22.1607V13.0625C18 11.9234 18.8954 11 20 11ZM20 31C21.1046 31 22 30.0766 22 28.9375C22 27.7984 21.1046 26.875 20 26.875C18.8954 26.875 18 27.7984 18 28.9375C18 30.0766 18.8954 31 20 31Z" fill="#F05559"/>
</svg>
