<svg width="24" height="24" viewBox="0 0 24 24" fill="none" xmlns="http://www.w3.org/2000/svg">
<g clip-path="url(#clip0_2_2396)">
<path d="M9 18H15V19C15 20.6569 13.6569 22 12 22C10.3431 22 9 20.6569 9 19V18Z" fill="black" fill-opacity="0.1"/>
<path fill-rule="evenodd" clip-rule="evenodd" d="M12.5 2.5C12.5 2.22386 12.2761 2 12 2C11.7239 2 11.5 2.22386 11.5 2.5V3.01758C7.86736 3.27396 5 6.30212 5 10V18H4C3.72386 18 3.5 18.2239 3.5 18.5C3.5 18.7761 3.72386 19 4 19H5H9C9 20.6569 10.3431 22 12 22C13.6569 22 15 20.6569 15 19H19H20C20.2761 19 20.5 18.7761 20.5 18.5C20.5 18.2239 20.2761 18 20 18H19V10C19 6.30212 16.1326 3.27396 12.5 3.01758V2.5ZM12 4C8.68629 4 6 6.68629 6 10V18H9H15H18V10C18 6.68629 15.3137 4 12 4ZM12 21C10.8954 21 10 20.1046 10 19H14C14 20.1046 13.1046 21 12 21Z" fill="#333333"/>
</g>
<defs>
<clipPath id="clip0_2_2396">
<rect width="24" height="24" fill="white"/>
</clipPath>
</defs>
</svg>
