<svg width="24" height="24" viewBox="0 0 24 24" fill="none" xmlns="http://www.w3.org/2000/svg">
<path d="M14.667 4.33268H5.33366C4.78137 4.33268 4.33366 4.7804 4.33366 5.33268V14.666C4.33366 15.2183 4.78137 15.666 5.33366 15.666V17.3327C3.8609 17.3327 2.66699 16.1388 2.66699 14.666V5.33268C2.66699 3.85992 3.8609 2.66602 5.33366 2.66602H14.667C16.1398 2.66602 17.3337 3.85992 17.3337 5.33268H15.667C15.667 4.7804 15.2193 4.33268 14.667 4.33268Z" fill="#353C49"/>
<path fill-rule="evenodd" clip-rule="evenodd" d="M6.66699 9.33268C6.66699 7.85992 7.8609 6.66602 9.33366 6.66602H18.667C20.1397 6.66602 21.3337 7.85992 21.3337 9.33268V18.666C21.3337 20.1388 20.1397 21.3327 18.667 21.3327H9.33366C7.8609 21.3327 6.66699 20.1388 6.66699 18.666V9.33268ZM9.33366 8.33268H18.667C19.2193 8.33268 19.667 8.7804 19.667 9.33268V18.666C19.667 19.2183 19.2193 19.666 18.667 19.666H9.33366C8.78137 19.666 8.33366 19.2183 8.33366 18.666V9.33268C8.33366 8.7804 8.78137 8.33268 9.33366 8.33268Z" fill="#353C49"/>
</svg>
