<svg width="24" height="24" viewBox="0 0 24 24" fill="none" xmlns="http://www.w3.org/2000/svg">
<path d="M21 9.70945L11.5 18.7938L2 9.70945L10.3462 3.81486C11.0379 3.32639 11.9621 3.32639 12.6538 3.81486L21 9.70945Z" fill="#4E7AD9"/>
<path d="M11.5301 9.78906V9.84844L11.4707 9.78906H11.5301Z" fill="#EBEBEB"/>
<path d="M16.8129 4.80078H6.1582C4.50135 4.80078 3.1582 6.14393 3.1582 7.80078V13.2602C3.1582 14.917 4.50135 16.2602 6.1582 16.2602H16.8129C18.4697 16.2602 19.8129 14.917 19.8129 13.2602V7.80078C19.8129 6.14393 18.4697 4.80078 16.8129 4.80078Z" fill="url(#paint0_linear_2268_14099)"/>
<path d="M14.4986 8.69038C14.3205 8.09663 13.8455 7.62163 13.222 7.56225C12.9252 7.53257 12.6283 7.59194 12.3314 7.71069C12.2424 7.74038 11.5892 8.12632 11.5002 8.21538C11.4111 8.12632 10.7283 7.74038 10.6689 7.71069C10.4017 7.59194 10.0752 7.53257 9.7783 7.56225C9.15486 7.62163 8.67986 8.09663 8.50173 8.69038C8.41267 9.04663 8.41267 9.43257 8.47204 9.8185C8.70954 11.1248 9.71892 12.1935 10.9361 12.6685C11.1439 12.7576 11.2924 12.7873 11.4705 12.7873C11.6486 12.7873 11.797 12.7576 12.0049 12.6685C13.222 12.1935 14.2314 11.0951 14.4689 9.8185C14.5877 9.43257 14.5877 9.04663 14.4986 8.69038Z" fill="#0066FF"/>
<path d="M21 9.70898V19.8215C21 20.9261 20.1046 21.8215 19 21.8215H4C2.89543 21.8215 2 20.9261 2 19.8215V9.70898L11.5 15.7652L21 9.70898Z" fill="#B3CEFB"/>
<path d="M11.5 15.7656L20.2637 21.3711C19.9192 21.6524 19.4794 21.8213 19 21.8213H4C2.89543 21.8213 2 20.9259 2 19.8213V9.70898L11.5 15.7656Z" fill="#9DBEFF"/>
<defs>
<linearGradient id="paint0_linear_2268_14099" x1="12.7102" y1="7.55173" x2="12.7016" y2="22.404" gradientUnits="userSpaceOnUse">
<stop stop-color="#EEF4FF"/>
<stop offset="1" stop-color="#D7E5FF"/>
</linearGradient>
</defs>
</svg>
