<svg width="24" height="24" viewBox="0 0 24 24" fill="none" xmlns="http://www.w3.org/2000/svg">
<g clip-path="url(#clip0_961_77090)">
<path d="M6.38696 4.50098H10.1799L13.1799 7.50098H19.387C19.7848 7.50098 20.1662 7.65913 20.4475 7.94043C20.7288 8.22173 20.887 8.60315 20.887 9.00098V17.001C20.887 17.664 20.6234 18.2997 20.1545 18.7686C19.6857 19.2374 19.05 19.501 18.387 19.501H6.38696C5.72392 19.501 5.08822 19.2374 4.61938 18.7686C4.15054 18.2997 3.88696 17.664 3.88696 17.001V7.00098C3.88696 6.33793 4.15054 5.70224 4.61938 5.2334C5.08822 4.76456 5.72392 4.50098 6.38696 4.50098Z" stroke="#353C49"/>
<path d="M6.38599 4.5H10.1799L13.1809 7.50098H19.387C20.2151 7.501 20.887 8.17147 20.887 9.00098V17.001C20.887 18.3803 19.7694 19.501 18.387 19.501H6.38599C5.00778 19.501 3.88892 18.3805 3.88892 17.001V7.00098C3.88892 5.6177 5.00757 4.5 6.38599 4.5ZM6.38599 5C5.28314 5 4.38892 5.89845 4.38892 7.00098V17.001C4.38892 18.1033 5.28345 19.001 6.38599 19.001H18.387C19.4902 19.001 20.387 18.1042 20.387 17.001V9.00098C20.387 8.44914 19.9388 8.001 19.387 8.00098H12.9739L9.9729 5H6.38599Z" fill="white" stroke="#353C49"/>
</g>
<defs>
<clipPath id="clip0_961_77090">
<rect width="24" height="24" fill="white"/>
</clipPath>
</defs>
</svg>
