<svg width="19" height="16" viewBox="0 0 19 16" fill="none" xmlns="http://www.w3.org/2000/svg">
<path fill-rule="evenodd" clip-rule="evenodd" d="M2 1H16C16.5523 1 17 1.44772 17 2V2.39913L9.00253 7.40853L1 2.30244V2C1 1.44772 1.44772 1 2 1ZM1 3.48866V14C1 14.5523 1.44772 15 2 15H16C16.5523 15 17 14.5523 17 14V3.5791L9.26548 8.4238C9.10187 8.52629 8.89387 8.52542 8.73112 8.42157L1 3.48866ZM18 2.83055V14C18 15.1046 17.1046 16 16 16H2C0.89543 16 0 15.1046 0 14V2C0 0.895431 0.895431 0 2 0H16C17.1046 0 18 0.895431 18 2V2.48187C18.0427 2.59626 18.041 2.72013 18 2.83055Z" fill="#333333"/>
</svg>
