<svg width="47" height="24" viewBox="0 0 47 24" fill="none" xmlns="http://www.w3.org/2000/svg">
<path d="M12 0.5H35C41.3513 0.5 46.5 5.64873 46.5 12C46.5 18.3513 41.3513 23.5 35 23.5H12C5.64873 23.5 0.5 18.3513 0.5 12C0.5 5.64873 5.64873 0.5 12 0.5Z" fill="white" fill-opacity="0.4"/>
<path d="M12 0.5H35C41.3513 0.5 46.5 5.64873 46.5 12C46.5 18.3513 41.3513 23.5 35 23.5H12C5.64873 23.5 0.5 18.3513 0.5 12C0.5 5.64873 5.64873 0.5 12 0.5Z" stroke="url(#paint0_linear_255_6962)"/>
<path d="M15.2925 11.9043C15.2925 14.875 13.4897 16.627 11.0776 16.627C8.66553 16.627 6.86279 14.8623 6.86279 11.9043C6.86279 8.93359 8.66553 7.18164 11.0776 7.18164C13.4897 7.18164 15.2925 8.93359 15.2925 11.9043ZM13.6294 11.9043C13.6294 9.80957 12.5757 8.66699 11.0776 8.66699C9.57959 8.66699 8.52588 9.80957 8.52588 11.9043C8.52588 13.999 9.57959 15.1416 11.0776 15.1416C12.5757 15.1416 13.6294 13.999 13.6294 11.9043ZM16.7651 16.5V7.30859H20.2183C22.3257 7.30859 23.4556 8.59082 23.4556 10.3555C23.4556 12.1201 22.313 13.3896 20.1929 13.3896H18.4155V16.5H16.7651ZM18.4155 12.0312H19.9644C21.2085 12.0312 21.7671 11.333 21.7671 10.3555C21.7671 9.36523 21.2085 8.69238 19.9644 8.69238H18.4155V12.0312ZM24.7886 16.5V7.30859H30.7681V8.69238H26.439V11.2061H30.4507V12.5898H26.439V15.1035H30.7935V16.5H24.7886ZM39.9087 7.30859V16.5H38.436L34.0815 10.2158H34.0054V16.5H32.355V7.30859H33.853L38.1821 13.5928H38.271V7.30859H39.9087Z" fill="url(#paint1_linear_255_6962)"/>
<defs>
<linearGradient id="paint0_linear_255_6962" x1="7.097" y1="3.84" x2="20.783" y2="31.1687" gradientUnits="userSpaceOnUse">
<stop stop-color="#28AFFF"/>
<stop offset="0.69" stop-color="#8C2FFF"/>
<stop offset="1" stop-color="#F632FF"/>
</linearGradient>
<linearGradient id="paint1_linear_255_6962" x1="-7.125" y1="-3" x2="34.9715" y2="27.7523" gradientUnits="userSpaceOnUse">
<stop stop-color="#22D6FF"/>
<stop offset="0.59" stop-color="#225EFF"/>
<stop offset="1" stop-color="#8C2FFF"/>
</linearGradient>
</defs>
</svg>
