<svg width="14" height="14" viewBox="0 0 14 14" fill="none" xmlns="http://www.w3.org/2000/svg">
<path d="M6.5 10.5C6.22386 10.5 6 10.7239 6 11C6 11.2761 6.22386 11.5 6.5 11.5H7.5C7.77614 11.5 8 11.2761 8 11C8 10.7239 7.77614 10.5 7.5 10.5H6.5Z" fill="#7E8996"/>
<path fill-rule="evenodd" clip-rule="evenodd" d="M2.5 3V11C2.5 12.1046 3.39543 13 4.5 13H9.5C10.6046 13 11.5 12.1046 11.5 11V3C11.5 1.89543 10.6046 1 9.5 1H4.5C3.39543 1 2.5 1.89543 2.5 3ZM9.5 2H4.5C3.94772 2 3.5 2.44772 3.5 3V9H10.5V3C10.5 2.44772 10.0523 2 9.5 2ZM9.5 12C10.0523 12 10.5 11.5523 10.5 11V10H3.5V11C3.5 11.5523 3.94772 12 4.5 12H9.5Z" fill="#7E8996"/>
</svg>
