<svg width="24" height="24" viewBox="0 0 24 24" fill="none" xmlns="http://www.w3.org/2000/svg">
<path d="M16 18.5H14C13.7239 18.5 13.5 18.7239 13.5 19V21C13.5 21.2761 13.7239 21.5 14 21.5H16C16.2761 21.5 16.5 21.2761 16.5 21V19C16.5 18.7239 16.2761 18.5 16 18.5Z" stroke="#353C49"/>
<path d="M15.5 21.5059H5C4.60218 21.5059 4.22064 21.3478 3.93933 21.0665C3.65803 20.7852 3.5 20.4037 3.5 20.0059V5.00586C3.5 4.60803 3.65803 4.22649 3.93933 3.94519C4.22064 3.66389 4.60218 3.50586 5 3.50586H14.008C14.4058 3.50586 14.7874 3.66389 15.0687 3.94519C15.35 4.22649 15.508 4.60803 15.508 5.00586V12.0059" stroke="#353C49"/>
<path d="M20 15.3909V20.3524C20.0008 20.5027 19.9734 20.6517 19.9194 20.7909C19.8653 20.93 19.7856 21.0566 19.6849 21.1632C19.5842 21.2699 19.4644 21.3545 19.3325 21.4123C19.2005 21.4701 19.059 21.4999 18.9161 21.5C17.8021 21.4944 15.5632 21.4844 11.0844 21.4838C10.7961 21.4823 10.5201 21.3607 10.3169 21.1456C10.1136 20.9305 9.99968 20.6394 10 20.3362V15.4227C9.99988 15.2544 10.0348 15.0881 10.1022 14.9355C10.1697 14.7829 10.2681 14.6477 10.3905 14.5394L14.6252 11.7213C14.7916 11.5737 15.0034 11.4951 15.221 11.5002C15.4386 11.5054 15.6469 11.594 15.8068 11.7493L19.6444 14.5425C19.7564 14.6502 19.8458 14.7813 19.907 14.9274C19.9682 15.0734 19.9999 15.2313 20 15.3909Z" stroke="#353C49"/>
<path d="M11.5 8.5H7.5" stroke="#353C49" stroke-linecap="round"/>
<path d="M11.5 11.5H7.5" stroke="#353C49" stroke-linecap="round"/>
</svg>
