<svg width="24" height="24" viewBox="0 0 24 24" fill="none" xmlns="http://www.w3.org/2000/svg">
<g clip-path="url(#clip0_961_77065)">
<path d="M20.5 6V18C20.5 19.3807 19.3807 20.5 18 20.5H6C4.61929 20.5 3.5 19.3807 3.5 18V6C3.5 4.61929 4.61929 3.5 6 3.5L18 3.5C19.3807 3.5 20.5 4.61929 20.5 6Z" stroke="#353C49"/>
<path d="M20.25 18V6C20.25 4.75736 19.2426 3.75 18 3.75L6 3.75C4.75736 3.75 3.75 4.75736 3.75 6V18C3.75 19.2426 4.75736 20.25 6 20.25H18C19.2426 20.25 20.25 19.2426 20.25 18Z" stroke="#353C49" stroke-width="1.5"/>
<path d="M16.999 7.5C17.2752 7.5 17.499 7.72386 17.499 8C17.499 8.27614 17.2752 8.5 16.999 8.5C16.7229 8.5 16.499 8.27614 16.499 8C16.499 7.72386 16.7229 7.5 16.999 7.5Z" stroke="#353C49"/>
<path d="M16.999 8.25C17.1371 8.25 17.249 8.13807 17.249 8C17.249 7.86193 17.1371 7.75 16.999 7.75C16.861 7.75 16.749 7.86193 16.749 8C16.749 8.13807 16.861 8.25 16.999 8.25Z" stroke="#353C49" stroke-width="1.5"/>
<path d="M3.48682 16.3672L9.44385 10.5L13.9204 14.9375L16.0688 13.0547L20.5259 17.4785" stroke="#353C49" stroke-width="1.5" stroke-linejoin="round"/>
</g>
<defs>
<clipPath id="clip0_961_77065">
<rect width="24" height="24" fill="white"/>
</clipPath>
</defs>
</svg>
