<svg width="18" height="18" viewBox="0 0 18 18" fill="none" xmlns="http://www.w3.org/2000/svg">
<path d="M14.5715 11.6428C16.1889 11.6429 17.5002 12.9542 17.5002 14.5715C17.5002 16.1888 16.1888 17.5002 14.5715 17.5002C12.9542 17.5002 11.6429 16.1889 11.6428 14.5715C11.6428 12.9541 12.9541 11.6428 14.5715 11.6428Z" stroke="#222222"/>
<path d="M14.5715 0.5C16.1889 0.500075 17.5002 1.81135 17.5002 3.42871C17.5002 5.04601 16.1888 6.35735 14.5715 6.35742C12.9542 6.35742 11.6429 5.04605 11.6428 3.42871C11.6428 1.81131 12.9541 0.5 14.5715 0.5Z" stroke="#222222"/>
<path d="M3.42871 6.5C5.04605 6.50008 6.35742 7.81135 6.35742 9.42871C6.35735 11.046 5.04601 12.3573 3.42871 12.3574C1.81135 12.3574 0.500075 11.0461 0.5 9.42871C0.5 7.81131 1.81131 6.5 3.42871 6.5Z" stroke="#222222"/>
<path d="M6 10.2858L12 13.7143" stroke="#222222"/>
<path d="M6 7.71423L12 4.28566" stroke="#222222"/>
</svg>
