<svg width="57" height="56" viewBox="0 0 57 56" fill="none" xmlns="http://www.w3.org/2000/svg">
<rect x="12.1172" y="7" width="34" height="38" rx="3" fill="#B3CEFB"/>
<rect x="9.11719" y="10" width="34" height="38" rx="3" fill="url(#paint0_linear_1596_25109)"/>
<path d="M37.454 30.2349C37.8384 28.5726 37.8418 26.8448 37.4641 25.181C37.0863 23.5171 36.3371 21.9603 35.2726 20.6269C34.2081 19.2935 32.8557 18.2182 31.3169 17.4814C29.778 16.7446 28.0923 16.3654 26.3862 16.3722C24.68 16.3789 22.9974 16.7715 21.4644 17.5205C19.9314 18.2695 18.5877 19.3555 17.5337 20.6973C16.4798 22.039 15.743 23.6018 15.3784 25.2686C15.0139 26.9354 15.0311 28.663 15.4286 30.3223L22.3158 28.672C22.1671 28.0514 22.1607 27.4052 22.297 26.7818C22.4334 26.1583 22.709 25.5738 23.1032 25.072C23.4974 24.5701 24 24.1639 24.5734 23.8837C25.1468 23.6036 25.7761 23.4568 26.4142 23.4542C27.0524 23.4517 27.6829 23.5935 28.2585 23.8691C28.8341 24.1447 29.3399 24.5469 29.738 25.0456C30.1362 25.5444 30.4164 26.1267 30.5577 26.749C30.699 27.3713 30.6977 28.0176 30.5539 28.6393L37.454 30.2349Z" fill="#7AD5E1"/>
<path d="M37.454 30.2349C37.9912 27.912 37.7807 25.4787 36.8528 23.2825C35.9249 21.0863 34.3268 19.2394 32.2868 18.0054C30.2468 16.7713 27.869 16.2134 25.493 16.411C23.117 16.6087 20.8642 17.5519 19.0561 19.1061L23.6726 24.4768C24.3489 23.8955 25.1915 23.5427 26.0802 23.4688C26.9689 23.3948 27.8582 23.6035 28.6213 24.0651C29.3843 24.5267 29.982 25.2175 30.3291 26.0389C30.6762 26.8604 30.7549 27.7705 30.5539 28.6393L37.454 30.2349Z" fill="#49BAEF"/>
<path d="M37.454 30.2349C37.9659 28.0213 37.7994 25.7048 36.9763 23.5871C36.1532 21.4694 34.7115 19.6486 32.839 18.3617L28.8278 24.1984C29.5282 24.6797 30.0674 25.3607 30.3753 26.1528C30.6831 26.9449 30.7454 27.8113 30.5539 28.6393L37.454 30.2349Z" fill="#9C78F4"/>
<rect x="16.1172" y="35" width="21.0005" height="2" rx="1" fill="#ACCBFF"/>
<rect x="16.1172" y="40" width="21.0005" height="2" rx="1" fill="#ACCBFF"/>
<g filter="url(#filter0_d_1596_25109)">
<path d="M45.0527 43.0859L51.1777 49.2109" stroke="#81A9FC" stroke-width="3" stroke-linecap="round" stroke-linejoin="round"/>
<circle cx="40.0547" cy="36.8799" r="7.5" stroke="#4E7AD9" stroke-width="3" stroke-linecap="round" stroke-linejoin="round"/>
</g>
<defs>
<filter id="filter0_d_1596_25109" x="28.0547" y="26.8799" width="27.623" height="28.8311" filterUnits="userSpaceOnUse" color-interpolation-filters="sRGB">
<feFlood flood-opacity="0" result="BackgroundImageFix"/>
<feColorMatrix in="SourceAlpha" type="matrix" values="0 0 0 0 0 0 0 0 0 0 0 0 0 0 0 0 0 0 127 0" result="hardAlpha"/>
<feOffset dy="2"/>
<feGaussianBlur stdDeviation="1.5"/>
<feComposite in2="hardAlpha" operator="out"/>
<feColorMatrix type="matrix" values="0 0 0 0 0.113725 0 0 0 0 0.313726 0 0 0 0 0.631373 0 0 0 0.25 0"/>
<feBlend mode="normal" in2="BackgroundImageFix" result="effect1_dropShadow_1596_25109"/>
<feBlend mode="normal" in="SourceGraphic" in2="effect1_dropShadow_1596_25109" result="shape"/>
</filter>
<linearGradient id="paint0_linear_1596_25109" x1="28.6172" y1="19.1223" x2="28.5709" y2="68.3732" gradientUnits="userSpaceOnUse">
<stop stop-color="#EEF4FF"/>
<stop offset="1" stop-color="#D7E5FF"/>
</linearGradient>
</defs>
</svg>
