<svg width="77" height="68" viewBox="0 0 77 68" fill="none" xmlns="http://www.w3.org/2000/svg">
<g opacity="0.995">
<path d="M29 4C29 1.79086 30.7909 0 33 0H73C75.2091 0 77 1.79086 77 4V66C77 67.1046 76.1046 68 75 68H31C29.8954 68 29 67.1046 29 66V4Z" fill="#B2BDFF"/>
<path d="M63.8997 27.7311C63.5565 27.7311 63.2274 27.5919 62.9847 27.3444C62.742 27.0969 62.6056 26.7614 62.6056 26.4114V23.7719C62.6056 23.4219 62.742 23.0864 62.9847 22.8389C63.2274 22.5914 63.5565 22.4522 63.8997 22.4522H69.0893C69.4325 22.4522 69.7616 22.5914 70.0043 22.8389C70.247 23.0864 70.3834 23.4219 70.3834 23.7719V26.4114C70.3834 26.7614 70.247 27.0969 70.0043 27.3444C69.7616 27.5919 69.4325 27.7311 69.0893 27.7311H63.8997ZM63.8997 16.1734C63.5565 16.1734 63.2274 16.0342 62.9847 15.7867C62.742 15.5392 62.6056 15.2037 62.6056 14.8537V12.2142C62.6056 11.8642 62.742 11.5287 62.9847 11.2812C63.2274 11.0337 63.5565 10.8945 63.8997 10.8945H69.0893C69.4325 10.8945 69.7616 11.0337 70.0043 11.2812C70.247 11.5287 70.3834 11.8642 70.3834 12.2142V14.8537C70.3834 15.2037 70.247 15.5392 70.0043 15.7867C69.7616 16.0342 69.4325 16.1734 69.0893 16.1734H63.8997ZM50.9582 16.1734C50.615 16.1734 50.2859 16.0342 50.0432 15.7867C49.8005 15.5392 49.6641 15.2037 49.6641 14.8537V12.2142C49.6641 11.8642 49.8005 11.5287 50.0432 11.2812C50.2859 11.0337 50.615 10.8945 50.9582 10.8945H56.1348C56.478 10.8945 56.8071 11.0337 57.0498 11.2812C57.2925 11.5287 57.429 11.8642 57.429 12.2142V14.8537C57.429 15.2037 57.2925 15.5392 57.0498 15.7867C56.8071 16.0342 56.478 16.1734 56.1348 16.1734H50.9582Z" fill="white" fill-opacity="0.8"/>
<path d="M50.0432 26.7867C50.2859 27.0342 50.615 27.1734 50.9582 27.1734H56.1348C56.478 27.1734 56.8071 27.0342 57.0498 26.7867C57.2925 26.5392 57.429 26.2037 57.429 25.8537V23.2142C57.429 22.8642 57.2925 22.5287 57.0498 22.2812C56.8071 22.0337 56.478 21.8945 56.1348 21.8945H50.9582C50.615 21.8945 50.2859 22.0337 50.0432 22.2812C49.8005 22.5287 49.6641 22.8642 49.6641 23.2142V25.8537C49.6641 26.2037 49.8005 26.5392 50.0432 26.7867Z" fill="white" fill-opacity="0.8"/>
<path d="M37.0432 15.7867C37.2859 16.0342 37.615 16.1734 37.9582 16.1734H43.1348C43.478 16.1734 43.8071 16.0342 44.0498 15.7867C44.2925 15.5392 44.429 15.2037 44.429 14.8537V12.2142C44.429 11.8642 44.2925 11.5287 44.0498 11.2812C43.8071 11.0337 43.478 10.8945 43.1348 10.8945H37.9582C37.615 10.8945 37.2859 11.0337 37.0432 11.2812C36.8005 11.5287 36.6641 11.8642 36.6641 12.2142V14.8537C36.6641 15.2037 36.8005 15.5392 37.0432 15.7867Z" fill="white" fill-opacity="0.8"/>
<path d="M63.8997 51.7311C63.5565 51.7311 63.2274 51.5919 62.9847 51.3444C62.742 51.0969 62.6056 50.7614 62.6056 50.4114V47.7719C62.6056 47.4219 62.742 47.0864 62.9847 46.8389C63.2274 46.5914 63.5565 46.4522 63.8997 46.4522H69.0893C69.4325 46.4522 69.7616 46.5914 70.0043 46.8389C70.247 47.0864 70.3834 47.4219 70.3834 47.7719V50.4114C70.3834 50.7614 70.247 51.0969 70.0043 51.3444C69.7616 51.5919 69.4325 51.7311 69.0893 51.7311H63.8997ZM63.8997 40.1734C63.5565 40.1734 63.2274 40.0342 62.9847 39.7867C62.742 39.5392 62.6056 39.2037 62.6056 38.8537V36.2142C62.6056 35.8642 62.742 35.5287 62.9847 35.2812C63.2274 35.0337 63.5565 34.8945 63.8997 34.8945H69.0893C69.4325 34.8945 69.7616 35.0337 70.0043 35.2812C70.247 35.5287 70.3834 35.8642 70.3834 36.2142V38.8537C70.3834 39.2037 70.247 39.5392 70.0043 39.7867C69.7616 40.0342 69.4325 40.1734 69.0893 40.1734H63.8997Z" fill="white" fill-opacity="0.8"/>
<path d="M0.666599 39.7029V62.6842C0.662446 63.3805 0.794865 64.0708 1.05624 64.7154C1.31762 65.3599 1.70279 65.9461 2.18963 66.4401C2.67647 66.9341 3.25536 67.3262 3.89303 67.5939C4.5307 67.8616 5.21457 67.9996 5.90533 68C11.2901 67.974 22.1113 67.9278 43.7594 67.9249C45.1529 67.918 46.4869 67.3547 47.4693 66.3584C48.4517 65.3621 49.0025 64.0139 49.001 62.6091V39.8502C49.0015 39.0707 48.8329 38.3005 48.5068 37.5937C48.1807 36.8868 47.7051 36.2605 47.1134 35.7587L26.6454 18.4946C25.8412 17.811 24.8171 17.4469 23.7654 17.4708C22.7137 17.4948 21.7069 17.905 20.9341 18.6246L2.38515 35.7731C1.84413 36.2723 1.41198 36.8794 1.11613 37.5559C0.820276 38.2325 0.667194 38.9636 0.666599 39.7029Z" fill="url(#paint0_linear_1978_3602)"/>
<path d="M15.8726 53.5C15.8726 52.3954 16.768 51.5 17.8726 51.5H31.676C32.7805 51.5 33.676 52.3954 33.676 53.5V68.0001H15.8726V53.5Z" fill="#5B68D3"/>
<rect x="15.8726" y="39.3506" width="17.5757" height="4.39393" rx="2.19697" fill="white"/>
</g>
<defs>
<linearGradient id="paint0_linear_1978_3602" x1="11" y1="26" x2="34.3288" y2="80.3032" gradientUnits="userSpaceOnUse">
<stop stop-color="#B4BDFF"/>
<stop offset="1" stop-color="#576AF8"/>
</linearGradient>
</defs>
</svg>
