<svg width="49" height="48" viewBox="0 0 49 48" fill="none" xmlns="http://www.w3.org/2000/svg">
<path d="M35.3334 27L38.3334 34.6197C38.2943 35.0191 38.0997 35.3871 37.7916 35.6443C37.4835 35.9016 37.0865 36.0275 36.6864 35.9949H11.9804C11.5802 36.0275 11.1833 35.9016 10.8752 35.6443C10.567 35.3871 10.3725 35.0191 10.3334 34.6197L13.3334 27H35.3334Z" fill="url(#paint0_linear_1849_31097)"/>
<path d="M36.6733 35.999H12.0995C10.9917 35.999 10.3304 35.4991 10.3304 34.6611L10.3995 34.498H38.2646L38.3304 34.6611C38.3344 35.5231 37.7451 35.999 36.6733 35.999Z" fill="#4E7AD9"/>
<path d="M13.3334 14C13.3334 12.8954 14.2288 12 15.3334 12H33.3334C34.4379 12 35.3334 12.8954 35.3334 14V27H13.3334V14Z" fill="url(#paint1_linear_1849_31097)"/>
<path d="M17.0834 30H31.5834C31.7823 30 31.973 30.0791 32.1136 30.2197C32.2543 30.3604 32.3334 30.5511 32.3334 30.75C32.3334 30.9489 32.2543 31.1396 32.1136 31.2803C31.973 31.4209 31.7823 31.5 31.5834 31.5H17.0834C16.8845 31.5 16.6935 31.4209 16.5529 31.2803C16.4122 31.1396 16.3334 30.9489 16.3334 30.75C16.3334 30.5511 16.4122 30.3604 16.5529 30.2197C16.6935 30.0791 16.8845 30 17.0834 30Z" fill="white" fill-opacity="0.5"/>
<path d="M17.0814 24C16.8825 24 16.6918 23.9209 16.5511 23.7803C16.4105 23.6396 16.3314 23.4489 16.3314 23.25C16.3314 23.0511 16.4105 22.8604 16.5511 22.7197C16.6918 22.5791 16.8825 22.5 17.0814 22.5H30.5814C30.7803 22.5 30.9713 22.5791 31.1119 22.7197C31.2526 22.8604 31.3314 23.0511 31.3314 23.25C31.3314 23.4489 31.2526 23.6396 31.1119 23.7803C30.9713 23.9209 30.7803 24 30.5814 24H17.0814ZM23.0814 20.5C22.8825 20.5 22.6918 20.4209 22.5511 20.2803C22.4105 20.1396 22.3314 19.9489 22.3314 19.75C22.3314 19.5511 22.4105 19.3604 22.5511 19.2197C22.6918 19.0791 22.8825 19 23.0814 19H27.2054C27.4044 19 27.5951 19.0791 27.7357 19.2197C27.8764 19.3604 27.9554 19.5511 27.9554 19.75C27.9554 19.9489 27.8764 20.1396 27.7357 20.2803C27.5951 20.4209 27.4044 20.5 27.2054 20.5H23.0814ZM23.0814 17.5C22.8825 17.5 22.6918 17.4209 22.5511 17.2803C22.4105 17.1396 22.3314 16.9489 22.3314 16.75C22.3314 16.5511 22.4105 16.3604 22.5511 16.2197C22.6918 16.0791 22.8825 16 23.0814 16H31.5814C31.7803 16 31.9713 16.0791 32.1119 16.2197C32.2526 16.3604 32.3314 16.5511 32.3314 16.75C32.3314 16.9489 32.2526 17.1396 32.1119 17.2803C31.9713 17.4209 31.7803 17.5 31.5814 17.5H23.0814Z" fill="white" fill-opacity="0.3"/>
<path d="M20.3334 16H17.3334C16.7811 16 16.3334 16.4477 16.3334 17V20C16.3334 20.5523 16.7811 21 17.3334 21H20.3334C20.8857 21 21.3334 20.5523 21.3334 20V17C21.3334 16.4477 20.8857 16 20.3334 16Z" fill="white" fill-opacity="0.7"/>
<g filter="url(#filter0_di_1849_31097)">
<rect x="26.3334" y="26" width="14" height="14" rx="7" fill="url(#paint2_linear_1849_31097)"/>
</g>
<path fill-rule="evenodd" clip-rule="evenodd" d="M33.4041 29.8952C33.0976 30.1738 33.075 30.6481 33.3536 30.9547L34.5693 32.2921H30.3835C29.9692 32.2921 29.6335 32.6279 29.6335 33.0421C29.6335 33.4564 29.9692 33.7921 30.3835 33.7921H34.5711L33.3536 35.1316C33.075 35.4381 33.0977 35.9125 33.4042 36.1911C33.7107 36.4697 34.185 36.447 34.4636 36.1405L36.8152 33.5533C36.9712 33.3856 37.0369 33.1617 37.0092 32.9466C36.9896 32.7946 36.9235 32.6479 36.8121 32.5296L34.4636 29.9457C34.185 29.6392 33.7107 29.6166 33.4041 29.8952Z" fill="white"/>
<defs>
<filter id="filter0_di_1849_31097" x="24.8334" y="25" width="16" height="16" filterUnits="userSpaceOnUse" color-interpolation-filters="sRGB">
<feFlood flood-opacity="0" result="BackgroundImageFix"/>
<feColorMatrix in="SourceAlpha" type="matrix" values="0 0 0 0 0 0 0 0 0 0 0 0 0 0 0 0 0 0 127 0" result="hardAlpha"/>
<feOffset dx="-0.5"/>
<feGaussianBlur stdDeviation="0.5"/>
<feComposite in2="hardAlpha" operator="out"/>
<feColorMatrix type="matrix" values="0 0 0 0 0.0784314 0 0 0 0 0.168627 0 0 0 0 0.313726 0 0 0 0.16 0"/>
<feBlend mode="normal" in2="BackgroundImageFix" result="effect1_dropShadow_1849_31097"/>
<feBlend mode="normal" in="SourceGraphic" in2="effect1_dropShadow_1849_31097" result="shape"/>
<feColorMatrix in="SourceAlpha" type="matrix" values="0 0 0 0 0 0 0 0 0 0 0 0 0 0 0 0 0 0 127 0" result="hardAlpha"/>
<feOffset dx="0.2" dy="0.2"/>
<feGaussianBlur stdDeviation="0.5"/>
<feComposite in2="hardAlpha" operator="arithmetic" k2="-1" k3="1"/>
<feColorMatrix type="matrix" values="0 0 0 0 1 0 0 0 0 1 0 0 0 0 1 0 0 0 0.5 0"/>
<feBlend mode="normal" in2="shape" result="effect2_innerShadow_1849_31097"/>
</filter>
<linearGradient id="paint0_linear_1849_31097" x1="20.5641" y1="25.7143" x2="24.2587" y2="38.8238" gradientUnits="userSpaceOnUse">
<stop stop-color="#A8C4FF"/>
<stop offset="1" stop-color="#4A81F7"/>
</linearGradient>
<linearGradient id="paint1_linear_1849_31097" x1="21.3718" y1="9.85723" x2="31.7588" y2="27.2323" gradientUnits="userSpaceOnUse">
<stop stop-color="#A8C4FF"/>
<stop offset="1" stop-color="#4A81F7"/>
</linearGradient>
<linearGradient id="paint2_linear_1849_31097" x1="29.3334" y1="26.5" x2="37.3334" y2="40" gradientUnits="userSpaceOnUse">
<stop stop-color="#81DAE5"/>
<stop offset="1" stop-color="#2BB0C4"/>
</linearGradient>
</defs>
</svg>
