<?xml version="1.0" encoding="utf-8"?>
<!-- Generator: Adobe Illustrator 21.0.2, SVG Export Plug-In . SVG Version: 6.00 Build 0)  -->
<svg version="1.1" id="Layer_1" xmlns="http://www.w3.org/2000/svg" xmlns:xlink="http://www.w3.org/1999/xlink" x="0px" y="0px"
	 viewBox="0 0 376 72.4" style="enable-background:new 0 0 376 72.4;" xml:space="preserve">
<style type="text/css">
	.st0{fill:url(#SVGID_1_);}
</style>
<path d="M77,8.8v5.4h40.3V8.8H77z M77,38.3h40.3v-5.4H77V38.3z M77,62.4h40.3v-5.4H77V62.4z"/>
<path d="M168.5,62.4V38.3h-29.6v24.2h-5.4V8.8h5.4v24.2h29.6V8.8h5.4v53.7L168.5,62.4L168.5,62.4z"/>
<polygon points="57.9,8.8 46.8,52.6 35.7,8.8 28.7,8.8 17.6,52.6 6.5,8.8 1,8.8 14.6,62.5 20.7,62.5 32.2,16.8 43.8,62.5 49.8,62.5 
	63.4,8.8 "/>
<path d="M210.2,8.2h-1.4l-24.2,54.2h5.9l6-13.4h26.1l6,13.4h5.9L210.2,8.2z M198.8,43.6l10.6-23.8l10.6,23.8H198.8z"/>
<path d="M290.7,32.9h-23.6v5.4h18.2V48c-4,5.8-10.6,9.6-18.2,9.6c-12.2,0-22-9.9-22-22c0-12.2,9.9-22,22-22c6.1,0,11.6,2.5,15.6,6.4
	l3.8-3.8c-5-5-11.8-8-19.4-8c-15.1,0-27.4,12.3-27.4,27.4c0,15.1,12.3,27.4,27.4,27.4c7,0,13.4-2.6,18.2-7v6.4h5.4V32.9z"/>
<radialGradient id="SVGID_1_" cx="364.0531" cy="586.1642" r="69.5806" gradientTransform="matrix(1 0 0 -1 0 597.3889)" gradientUnits="userSpaceOnUse">
	<stop  offset="0" style="stop-color:#38E0FA"/>
	<stop  offset="1" style="stop-color:#1C90FC"/>
</radialGradient>
<path class="st0" d="M339.2,0.7c-19.3,0-34.9,15.6-34.9,34.9c0,19.3,15.6,34.9,34.9,34.9c19.3,0,34.9-15.6,34.9-34.9
	C374.1,16.3,358.5,0.7,339.2,0.7z M339.2,53c-9.6,0-17.4-7.8-17.4-17.4c0-9.6,7.8-17.5,17.4-17.5c9.6,0,17.4,7.8,17.4,17.5
	C356.7,45.2,348.9,53,339.2,53z"/>
</svg>
