<svg width="248" height="137" viewBox="0 0 248 137" fill="none" xmlns="http://www.w3.org/2000/svg">
<line x1="0.5" y1="0.5" x2="247.5" y2="0.5" stroke="#E8E8EB" stroke-linecap="round"/>
<line x1="0.5" y1="38.5" x2="247.5" y2="38.5" stroke="#E8E8EB" stroke-linecap="round"/>
<line x1="0.5" y1="76.5" x2="247.5" y2="76.5" stroke="#E8E8EB" stroke-linecap="round"/>
<line x1="0.5" y1="114.5" x2="247.5" y2="114.5" stroke="#D4D4D9" stroke-linecap="round"/>
<path d="M41.4648 58L124.003 77" stroke="#3B5DFB" stroke-width="2"/>
<path d="M206.273 39L123.993 77" stroke="#3B5DFB" stroke-width="2"/>
<path d="M20.4561 131V129.906L23.8877 126.447C24.9678 125.312 25.5147 124.684 25.5147 123.822C25.5147 122.852 24.7217 122.223 23.6827 122.223C22.5889 122.223 21.878 122.92 21.878 123.973H20.4561C20.4424 122.168 21.8233 120.965 23.71 120.965C25.6241 120.965 26.9366 122.168 26.9502 123.781C26.9366 124.889 26.417 125.764 24.5577 127.596L22.5479 129.633V129.715H27.1143V131H20.4561ZM32.0876 131.137C29.7907 131.137 28.4509 129.291 28.4509 126.051C28.4509 122.838 29.8181 120.965 32.0876 120.965C34.3571 120.965 35.7243 122.838 35.7243 126.051C35.7243 129.291 34.3708 131.137 32.0876 131.137ZM32.0876 129.838C33.4274 129.838 34.2204 128.525 34.2204 126.051C34.2204 123.59 33.4138 122.236 32.0876 122.236C30.7614 122.236 29.9548 123.59 29.9548 126.051C29.9548 128.525 30.7477 129.838 32.0876 129.838ZM40.9027 121.102V131H39.3851V122.605H39.3304L36.9652 124.15V122.715L39.4261 121.102H40.9027ZM46.6826 120.965C48.5009 120.979 50.415 122.072 50.415 125.695C50.415 129.168 48.9248 131.137 46.5459 131.137C44.7275 131.137 43.4424 130.016 43.2099 128.402H44.7002C44.9052 129.236 45.5478 129.824 46.5459 129.824C48.0771 129.824 48.9658 128.484 48.9795 126.229H48.8564C48.3232 127.062 47.3935 127.568 46.3271 127.568C44.5498 127.568 43.1279 126.215 43.1279 124.314C43.1279 122.428 44.5361 120.951 46.6826 120.965ZM46.6826 122.223C45.4795 122.223 44.5908 123.152 44.5908 124.287C44.5908 125.436 45.4521 126.338 46.6552 126.338C47.8447 126.338 48.7744 125.367 48.7744 124.273C48.7744 123.207 47.8994 122.223 46.6826 122.223ZM61.65 119.926V128.977H60.3512V124.807H56.9879V123.768H60.3512V122.482H56.9879V121.443H60.3512V119.926H61.65ZM61.9645 130.85V131.902H53.6656V128.184H54.9781V130.85H61.9645ZM53.4469 120.773V126.133C55.0738 126.133 56.6188 126.03 58.3688 125.709L58.5055 126.775C56.5641 127.145 54.9098 127.213 53.1051 127.227H52.1617V120.773H53.4469Z" fill="#4F4F55"/>
<path d="M102.295 131V129.906L105.727 126.447C106.807 125.312 107.354 124.684 107.354 123.822C107.354 122.852 106.561 122.223 105.522 122.223C104.428 122.223 103.717 122.92 103.717 123.973H102.295C102.282 122.168 103.663 120.965 105.549 120.965C107.463 120.965 108.776 122.168 108.79 123.781C108.776 124.889 108.256 125.764 106.397 127.596L104.387 129.633V129.715H108.954V131H102.295ZM113.927 131.137C111.63 131.137 110.29 129.291 110.29 126.051C110.29 122.838 111.657 120.965 113.927 120.965C116.196 120.965 117.564 122.838 117.564 126.051C117.564 129.291 116.21 131.137 113.927 131.137ZM113.927 129.838C115.267 129.838 116.06 128.525 116.06 126.051C116.06 123.59 115.253 122.236 113.927 122.236C112.601 122.236 111.794 123.59 111.794 126.051C111.794 128.525 112.587 129.838 113.927 129.838ZM118.982 131V129.906L122.414 126.447C123.494 125.312 124.041 124.684 124.041 123.822C124.041 122.852 123.248 122.223 122.209 122.223C121.115 122.223 120.404 122.92 120.404 123.973H118.982C118.969 122.168 120.349 120.965 122.236 120.965C124.15 120.965 125.463 122.168 125.476 123.781C125.463 124.889 124.943 125.764 123.084 127.596L121.074 129.633V129.715H125.64V131H118.982ZM127.168 131V129.906L130.6 126.447C131.68 125.312 132.227 124.684 132.227 123.822C132.227 122.852 131.434 122.223 130.395 122.223C129.301 122.223 128.59 122.92 128.59 123.973H127.168C127.155 122.168 128.536 120.965 130.422 120.965C132.336 120.965 133.649 122.168 133.663 123.781C133.649 124.889 133.129 125.764 131.27 127.596L129.26 129.633V129.715H133.827V131H127.168ZM145.144 119.926V128.977H143.845V124.807H140.482V123.768H143.845V122.482H140.482V121.443H143.845V119.926H145.144ZM145.458 130.85V131.902H137.159V128.184H138.472V130.85H145.458ZM136.941 120.773V126.133C138.567 126.133 140.112 126.03 141.862 125.709L141.999 126.775C140.058 127.145 138.403 127.213 136.599 127.227H135.655V120.773H136.941Z" fill="#4F4F55"/>
<path d="M184.88 131V129.906L188.312 126.447C189.392 125.312 189.939 124.684 189.939 123.822C189.939 122.852 189.146 122.223 188.107 122.223C187.013 122.223 186.302 122.92 186.302 123.973H184.88C184.867 122.168 186.248 120.965 188.134 120.965C190.048 120.965 191.361 122.168 191.375 123.781C191.361 124.889 190.841 125.764 188.982 127.596L186.972 129.633V129.715H191.539V131H184.88ZM196.512 131.137C194.215 131.137 192.875 129.291 192.875 126.051C192.875 122.838 194.242 120.965 196.512 120.965C198.781 120.965 200.149 122.838 200.149 126.051C200.149 129.291 198.795 131.137 196.512 131.137ZM196.512 129.838C197.852 129.838 198.645 128.525 198.645 126.051C198.645 123.59 197.838 122.236 196.512 122.236C195.186 122.236 194.379 123.59 194.379 126.051C194.379 128.525 195.172 129.838 196.512 129.838ZM201.567 131V129.906L204.999 126.447C206.079 125.312 206.626 124.684 206.626 123.822C206.626 122.852 205.833 122.223 204.794 122.223C203.7 122.223 202.989 122.92 202.989 123.973H201.567C201.554 122.168 202.934 120.965 204.821 120.965C206.735 120.965 208.048 122.168 208.061 123.781C208.048 124.889 207.528 125.764 205.669 127.596L203.659 129.633V129.715H208.225V131H201.567ZM213.117 131.137C211.244 131.137 209.835 129.988 209.767 128.416H211.23C211.312 129.264 212.119 129.879 213.117 129.879C214.32 129.879 215.181 129.004 215.181 127.828C215.181 126.625 214.292 125.75 213.048 125.736C212.255 125.736 211.654 125.996 211.312 126.611H209.89L210.533 121.102H216.138V122.387H211.777L211.449 125.162H211.544C211.955 124.766 212.652 124.492 213.404 124.492C215.263 124.492 216.644 125.873 216.644 127.787C216.644 129.742 215.181 131.137 213.117 131.137ZM227.893 119.926V128.977H226.594V124.807H223.231V123.768H226.594V122.482H223.231V121.443H226.594V119.926H227.893ZM228.207 130.85V131.902H219.908V128.184H221.221V130.85H228.207ZM219.69 120.773V126.133C221.317 126.133 222.861 126.03 224.611 125.709L224.748 126.775C222.807 127.145 221.152 127.213 219.348 127.227H218.404V120.773H219.69Z" fill="#4F4F55"/>
<circle cx="41.3335" cy="58" r="4" fill="white" stroke="#3B5DFB" stroke-width="2"/>
<path d="M31.0792 47.1367C28.7823 47.1367 27.4425 45.291 27.4425 42.0508C27.4425 38.8379 28.8096 36.9648 31.0792 36.9648C33.3487 36.9648 34.7159 38.8379 34.7159 42.0508C34.7159 45.291 33.3624 47.1367 31.0792 47.1367ZM31.0792 45.8379C32.419 45.8379 33.212 44.5254 33.212 42.0508C33.212 39.5898 32.4053 38.2363 31.0792 38.2363C29.753 38.2363 28.9464 39.5898 28.9464 42.0508C28.9464 44.5254 29.7393 45.8379 31.0792 45.8379ZM36.736 47.0957C36.2028 47.0957 35.7517 46.6582 35.7653 46.125C35.7517 45.5918 36.2028 45.1543 36.736 45.1543C37.2556 45.1543 37.7067 45.5918 37.7067 46.125C37.7067 46.6582 37.2556 47.0957 36.736 47.0957ZM39.098 45.0723V43.8555L43.473 37.1016H45.3324V43.8008H46.6859V45.0723H45.3324V47H43.9105V45.0723H39.098ZM40.6839 43.8008H43.9105V38.8926H43.8011L40.6839 43.7188V43.8008ZM51.6455 47.1367C49.8135 47.123 47.8994 46.043 47.8994 42.3789C47.8994 38.9336 49.3896 36.9648 51.7685 36.9648C53.5869 36.9648 54.8584 38.0996 55.0908 39.6719H53.6006C53.4092 38.8652 52.7666 38.2773 51.7685 38.2773C50.2373 38.2773 49.3486 39.6172 49.3486 41.8457H49.458C49.9912 41.0117 50.9209 40.5059 52.001 40.5059C53.7646 40.5059 55.1865 41.8594 55.1865 43.7598C55.1865 45.6738 53.7783 47.1504 51.6455 47.1367ZM51.6318 45.8789C52.835 45.8789 53.7236 44.9492 53.7236 43.7871C53.7236 42.6523 52.8623 41.7363 51.6728 41.7363C50.456 41.7363 49.54 42.6934 49.5264 43.8008C49.54 44.8945 50.415 45.8789 51.6318 45.8789Z" fill="#4F4F55"/>
<circle cx="124" cy="76.5" r="4" fill="white" stroke="#3B5DFB" stroke-width="2"/>
<path d="M114.026 65.1367C111.729 65.1367 110.389 63.291 110.389 60.0508C110.389 56.8379 111.756 54.9648 114.026 54.9648C116.295 54.9648 117.663 56.8379 117.663 60.0508C117.663 63.291 116.309 65.1367 114.026 65.1367ZM114.026 63.8379C115.366 63.8379 116.159 62.5254 116.159 60.0508C116.159 57.5898 115.352 56.2363 114.026 56.2363C112.7 56.2363 111.893 57.5898 111.893 60.0508C111.893 62.5254 112.686 63.8379 114.026 63.8379ZM119.683 65.0957C119.15 65.0957 118.698 64.6582 118.712 64.125C118.698 63.5918 119.15 63.1543 119.683 63.1543C120.202 63.1543 120.654 63.5918 120.654 64.125C120.654 64.6582 120.202 65.0957 119.683 65.0957ZM122.264 65V63.9062L125.695 60.4473C126.775 59.3125 127.322 58.6836 127.322 57.8223C127.322 56.8516 126.529 56.2227 125.49 56.2227C124.396 56.2227 123.685 56.9199 123.685 57.9727H122.264C122.25 56.168 123.631 54.9648 125.517 54.9648C127.431 54.9648 128.744 56.168 128.758 57.7812C128.744 58.8887 128.224 59.7637 126.365 61.5957L124.355 63.6328V63.7148H128.922V65H122.264ZM134.032 65.1367C132.2 65.123 130.286 64.043 130.286 60.3789C130.286 56.9336 131.776 54.9648 134.155 54.9648C135.973 54.9648 137.245 56.0996 137.477 57.6719H135.987C135.795 56.8652 135.153 56.2773 134.155 56.2773C132.624 56.2773 131.735 57.6172 131.735 59.8457H131.844C132.377 59.0117 133.307 58.5059 134.387 58.5059C136.151 58.5059 137.573 59.8594 137.573 61.7598C137.573 63.6738 136.165 65.1504 134.032 65.1367ZM134.018 63.8789C135.221 63.8789 136.11 62.9492 136.11 61.7871C136.11 60.6523 135.249 59.7363 134.059 59.7363C132.842 59.7363 131.926 60.6934 131.913 61.8008C131.926 62.8945 132.801 63.8789 134.018 63.8789Z" fill="#4F4F55"/>
<circle cx="206.667" cy="38.5" r="4" fill="white" stroke="#3B5DFB" stroke-width="2"/>
<path d="M196.255 27.1367C193.781 27.1367 192.277 25.291 192.277 22.0508C192.277 18.8105 193.781 16.9648 196.255 16.9648C198.73 16.9648 200.234 18.8242 200.234 22.0508C200.234 25.3047 198.73 27.1367 196.255 27.1367ZM196.255 25.4414C197.404 25.4414 198.142 24.334 198.128 22.0508C198.128 19.7949 197.404 18.6465 196.255 18.6465C195.107 18.6465 194.382 19.7949 194.382 22.0508C194.369 24.334 195.107 25.4414 196.255 25.4414ZM202.309 27.123C201.666 27.123 201.147 26.6035 201.16 25.9746C201.147 25.3457 201.666 24.8398 202.309 24.8398C202.91 24.8398 203.444 25.3457 203.444 25.9746C203.444 26.6035 202.91 27.123 202.309 27.123ZM208.472 27.1367C206.407 27.1367 204.903 25.9199 204.862 24.2109H206.858C206.899 24.9902 207.61 25.5098 208.472 25.5098C209.497 25.5098 210.222 24.7852 210.222 23.7598C210.222 22.707 209.483 21.9824 208.444 21.9688C207.706 21.9688 207.186 22.2422 206.886 22.8027H205.026L205.559 17.1016H211.657V18.7832H207.255L206.981 21.2852H207.063C207.432 20.793 208.171 20.4512 209.046 20.4512C210.864 20.4512 212.218 21.8047 212.218 23.7051C212.218 25.7012 210.7 27.1367 208.472 27.1367ZM217.191 27.1367C214.935 27.1367 213.308 25.9473 213.308 24.334C213.308 23.0898 214.265 22.0781 215.496 21.8867V21.8184C214.429 21.6133 213.691 20.7109 213.691 19.6309C213.691 18.0859 215.167 16.9648 217.191 16.9648C219.214 16.9648 220.691 18.0859 220.705 19.6309C220.691 20.7246 219.939 21.6133 218.9 21.8184V21.8867C220.103 22.0781 221.074 23.0898 221.074 24.334C221.074 25.9473 219.447 27.1367 217.191 27.1367ZM217.191 25.5645C218.23 25.5645 218.927 24.9766 218.927 24.1289C218.927 23.2676 218.203 22.6387 217.191 22.6387C216.179 22.6387 215.441 23.2676 215.455 24.1289C215.441 24.9766 216.138 25.5645 217.191 25.5645ZM217.191 21.1895C218.066 21.1895 218.695 20.6289 218.695 19.8359C218.695 19.0703 218.08 18.5234 217.191 18.5234C216.302 18.5234 215.701 19.0566 215.701 19.8359C215.701 20.6289 216.316 21.1895 217.191 21.1895Z" fill="#3B5DFB"/>
</svg>
