<svg width="52" height="52" viewBox="0 0 52 52" fill="none" xmlns="http://www.w3.org/2000/svg">
<rect width="52" height="52" rx="16" fill="url(#paint0_linear_2051_633)"/>
<rect x="0.5" y="0.5" width="51" height="51" rx="15.5" stroke="black" stroke-opacity="0.08"/>
<path d="M18.5 37.875C16.0838 37.875 14.125 35.9163 14.125 33.5C14.125 31.0838 16.0838 29.125 18.5 29.125C20.4815 29.125 22.1553 30.4424 22.6935 32.249L29.75 32.2493V29.75L32.25 29.7493V22.5543L29.4462 19.7493H22.25V22.2501H14.75V14.7501H22.25V17.2493H29.4462L33.5 13.1968L38.8032 18.5001L34.75 22.5518V29.7493L37.25 29.75V37.25H29.75V34.7493L22.6937 34.7504C22.1558 36.5574 20.4818 37.875 18.5 37.875ZM18.5 31.625C17.4645 31.625 16.625 32.4645 16.625 33.5C16.625 34.5357 17.4645 35.375 18.5 35.375C19.5355 35.375 20.375 34.5357 20.375 33.5C20.375 32.4645 19.5355 31.625 18.5 31.625ZM34.75 32.25H32.25V34.75H34.75V32.25ZM33.5 16.7323L31.7323 18.5001L33.5 20.2678L35.2677 18.5001L33.5 16.7323ZM19.75 17.2501H17.25V19.7501H19.75V17.2501Z" fill="white"/>
<defs>
<linearGradient id="paint0_linear_2051_633" x1="11.9659" y1="0.904348" x2="28.0987" y2="56.9704" gradientUnits="userSpaceOnUse">
<stop stop-color="#346AFF"/>
<stop offset="1" stop-color="#97B3FF"/>
</linearGradient>
</defs>
</svg>
