<svg width="48" height="48" viewBox="0 0 48 48" fill="none" xmlns="http://www.w3.org/2000/svg">
<path d="M30.9978 34.9966V18.9966H33.9978V34.9966H30.9978ZM21.9978 34.9966V18.9966H25.9978V34.9966H21.9978ZM13.9978 34.9966V18.9966H16.9978V34.9966H13.9978Z" fill="#CDD2ED"/>
<path d="M24 10C26.9174 10 29.7153 11.1589 31.7782 13.2218C33.8411 15.2847 35 18.0826 35 21H13C13 18.0826 14.1589 15.2847 16.2218 13.2218C18.2847 11.1589 21.0826 10 24 10Z" fill="#CDD2ED"/>
<path d="M12 36.0005C11.7348 36.0005 11.4803 35.8951 11.2927 35.7075C11.1052 35.52 11 35.2657 11 35.0005V34.0005C11 33.7353 11.1052 33.481 11.2927 33.2935C11.4803 33.1059 11.7348 33.0005 12 33.0005H36C36.2652 33.0005 36.5195 33.1059 36.707 33.2935C36.8946 33.481 37 33.7353 37 34.0005V35.0005C37 35.2657 36.8946 35.52 36.707 35.7075C36.5195 35.8951 36.2652 36.0005 36 36.0005H12ZM11.5 22.0005C11.3674 22.0005 11.24 21.9478 11.1462 21.854C11.0525 21.7602 11 21.6331 11 21.5005V20.5005C11 20.1027 11.1579 19.7212 11.4392 19.4399C11.7205 19.1586 12.1022 19.0005 12.5 19.0005H35.5C35.8978 19.0005 36.2792 19.1586 36.5605 19.4399C36.8419 19.7212 37 20.1027 37 20.5005V21.5005C37 21.6331 36.9473 21.7602 36.8535 21.854C36.7597 21.9478 36.6326 22.0005 36.5 22.0005H11.5Z" fill="url(#paint0_linear_1849_31654)"/>
<g filter="url(#filter0_di_1849_31654)">
<rect x="27" y="27" width="14" height="14" rx="7" fill="white"/>
</g>
<g clip-path="url(#clip0_1849_31654)">
<path d="M37.4886 33.6806C36.3082 32.8535 34.797 33.1907 34.0043 34.4339C33.3413 35.4723 32.3424 35.6008 31.9548 35.6008C30.6929 35.6008 29.8286 34.6859 29.5731 33.7391C29.5706 33.7302 29.5681 33.7226 29.5657 33.7124C29.5632 33.7022 29.5607 33.6921 29.557 33.6806C29.457 33.2861 29.4311 33.0965 29.4311 32.6779C29.4311 30.4141 31.6856 27.8933 34.9316 27.8933C38.1775 27.8933 40.1579 30.5019 40.6481 31.9513C40.6395 31.9258 40.6321 31.9004 40.6234 31.8737C39.6801 29.0385 37.0713 27 34.0006 27C30.1348 27 27 30.2296 27 34.2138C27 37.7755 29.4928 40.8244 32.9499 40.8244C35.7069 40.8244 37.5602 39.2312 38.4109 37.0349C38.8776 35.8337 38.5467 34.4225 37.4886 33.6806Z" fill="#003863"/>
<path d="M40.6914 32.091C40.2827 30.6773 38.3665 27.8931 34.9316 27.8931C31.6857 27.8931 29.4312 30.4139 29.4312 32.6777C29.4312 33.0976 29.4558 33.2859 29.5571 33.6804C29.5151 33.5073 29.4929 33.3343 29.4929 33.1663C29.4929 30.8084 31.7832 29.1745 34.139 29.1745C37.3269 29.1745 39.9111 31.8378 39.9111 35.1221C39.9111 37.6976 38.4739 39.9258 36.3836 40.9972C39.0764 39.9945 41.0001 37.335 41.0001 34.2136C41.0001 33.4742 40.9038 32.824 40.6914 32.091Z" fill="#E4032E"/>
</g>
<defs>
<filter id="filter0_di_1849_31654" x="25.5" y="26" width="16" height="16" filterUnits="userSpaceOnUse" color-interpolation-filters="sRGB">
<feFlood flood-opacity="0" result="BackgroundImageFix"/>
<feColorMatrix in="SourceAlpha" type="matrix" values="0 0 0 0 0 0 0 0 0 0 0 0 0 0 0 0 0 0 127 0" result="hardAlpha"/>
<feOffset dx="-0.5"/>
<feGaussianBlur stdDeviation="0.5"/>
<feComposite in2="hardAlpha" operator="out"/>
<feColorMatrix type="matrix" values="0 0 0 0 0.0784314 0 0 0 0 0.168627 0 0 0 0 0.313726 0 0 0 0.16 0"/>
<feBlend mode="normal" in2="BackgroundImageFix" result="effect1_dropShadow_1849_31654"/>
<feBlend mode="normal" in="SourceGraphic" in2="effect1_dropShadow_1849_31654" result="shape"/>
<feColorMatrix in="SourceAlpha" type="matrix" values="0 0 0 0 0 0 0 0 0 0 0 0 0 0 0 0 0 0 127 0" result="hardAlpha"/>
<feOffset dx="0.2" dy="0.2"/>
<feGaussianBlur stdDeviation="0.5"/>
<feComposite in2="hardAlpha" operator="arithmetic" k2="-1" k3="1"/>
<feColorMatrix type="matrix" values="0 0 0 0 1 0 0 0 0 1 0 0 0 0 1 0 0 0 0.5 0"/>
<feBlend mode="normal" in2="shape" result="effect2_innerShadow_1849_31654"/>
</filter>
<linearGradient id="paint0_linear_1849_31654" x1="11" y1="15" x2="37" y2="39.5" gradientUnits="userSpaceOnUse">
<stop stop-color="#C6CBE3"/>
<stop offset="1" stop-color="#888FC2"/>
</linearGradient>
<clipPath id="clip0_1849_31654">
<rect width="14" height="14" fill="white" transform="translate(27 27)"/>
</clipPath>
</defs>
</svg>
