<svg width="61" height="61" viewBox="0 0 61 61" fill="none" xmlns="http://www.w3.org/2000/svg">
<rect x="0.5" y="0.5" width="60" height="60" rx="30" fill="#F2F5FF"/>
<rect x="20" y="17.5" width="21" height="26" rx="3" fill="url(#paint0_linear_1596_25997)"/>
<g filter="url(#filter0_i_1596_25997)">
<path d="M28 36.5H33C33.2652 36.5 33.5196 36.6054 33.7071 36.7929C33.8946 36.9804 34 37.2348 34 37.5V43.5H27V37.5C27 37.2348 27.1054 36.9804 27.2929 36.7929C27.4804 36.6054 27.7348 36.5 28 36.5Z" fill="#4E7AD9"/>
</g>
<path d="M34.5 31.5C34.3674 31.5 34.2403 31.4473 34.1465 31.3535C34.0527 31.2597 34 31.1326 34 31V29C34 28.8674 34.0527 28.7403 34.1465 28.6465C34.2403 28.5527 34.3674 28.5 34.5 28.5H36.5C36.6326 28.5 36.7597 28.5527 36.8535 28.6465C36.9473 28.7403 37 28.8674 37 29V31C37 31.1326 36.9473 31.2597 36.8535 31.3535C36.7597 31.4473 36.6326 31.5 36.5 31.5H34.5ZM29.5 31.5C29.3674 31.5 29.2403 31.4473 29.1465 31.3535C29.0527 31.2597 29 31.1326 29 31V29C29 28.8674 29.0527 28.7403 29.1465 28.6465C29.2403 28.5527 29.3674 28.5 29.5 28.5H31.5C31.6326 28.5 31.7597 28.5527 31.8535 28.6465C31.9473 28.7403 32 28.8674 32 29V31C32 31.1326 31.9473 31.2597 31.8535 31.3535C31.7597 31.4473 31.6326 31.5 31.5 31.5H29.5ZM24.5 31.5C24.3674 31.5 24.2403 31.4473 24.1465 31.3535C24.0527 31.2597 24 31.1326 24 31V29C24 28.8674 24.0527 28.7403 24.1465 28.6465C24.2403 28.5527 24.3674 28.5 24.5 28.5H26.5C26.6326 28.5 26.7597 28.5527 26.8535 28.6465C26.9473 28.7403 27 28.8674 27 29V31C27 31.1326 26.9473 31.2597 26.8535 31.3535C26.7597 31.4473 26.6326 31.5 26.5 31.5H24.5ZM34.5 26.5C34.3674 26.5 34.2403 26.4473 34.1465 26.3535C34.0527 26.2597 34 26.1326 34 26V24C34 23.8674 34.0527 23.7403 34.1465 23.6465C34.2403 23.5527 34.3674 23.5 34.5 23.5H36.5C36.6326 23.5 36.7597 23.5527 36.8535 23.6465C36.9473 23.7403 37 23.8674 37 24V26C37 26.1326 36.9473 26.2597 36.8535 26.3535C36.7597 26.4473 36.6326 26.5 36.5 26.5H34.5ZM29.5 26.5C29.3674 26.5 29.2403 26.4473 29.1465 26.3535C29.0527 26.2597 29 26.1326 29 26V24C29 23.8674 29.0527 23.7403 29.1465 23.6465C29.2403 23.5527 29.3674 23.5 29.5 23.5H31.5C31.6326 23.5 31.7597 23.5527 31.8535 23.6465C31.9473 23.7403 32 23.8674 32 24V26C32 26.1326 31.9473 26.2597 31.8535 26.3535C31.7597 26.4473 31.6326 26.5 31.5 26.5H29.5ZM24.5 26.5C24.3674 26.5 24.2403 26.4473 24.1465 26.3535C24.0527 26.2597 24 26.1326 24 26V24C24 23.8674 24.0527 23.7403 24.1465 23.6465C24.2403 23.5527 24.3674 23.5 24.5 23.5H26.5C26.6326 23.5 26.7597 23.5527 26.8535 23.6465C26.9473 23.7403 27 23.8674 27 24V26C27 26.1326 26.9473 26.2597 26.8535 26.3535C26.7597 26.4473 26.6326 26.5 26.5 26.5H24.5Z" fill="white"/>
<defs>
<filter id="filter0_i_1596_25997" x="27" y="36.5" width="7.2" height="7.2" filterUnits="userSpaceOnUse" color-interpolation-filters="sRGB">
<feFlood flood-opacity="0" result="BackgroundImageFix"/>
<feBlend mode="normal" in="SourceGraphic" in2="BackgroundImageFix" result="shape"/>
<feColorMatrix in="SourceAlpha" type="matrix" values="0 0 0 0 0 0 0 0 0 0 0 0 0 0 0 0 0 0 127 0" result="hardAlpha"/>
<feOffset dx="0.2" dy="0.2"/>
<feGaussianBlur stdDeviation="0.5"/>
<feComposite in2="hardAlpha" operator="arithmetic" k2="-1" k3="1"/>
<feColorMatrix type="matrix" values="0 0 0 0 0 0 0 0 0 0 0 0 0 0 0 0 0 0 0.16 0"/>
<feBlend mode="normal" in2="shape" result="effect1_innerShadow_1596_25997"/>
</filter>
<linearGradient id="paint0_linear_1596_25997" x1="26.125" y1="16.5" x2="40.3109" y2="45.1061" gradientUnits="userSpaceOnUse">
<stop stop-color="#A8C4FF"/>
<stop offset="1" stop-color="#4A81F7"/>
</linearGradient>
</defs>
</svg>
