<svg width="80" height="80" viewBox="0 0 80 80" fill="none" xmlns="http://www.w3.org/2000/svg">
<rect width="80" height="80" rx="16" fill="#F2F5FF"/>
<path d="M59.9375 45L65.5089 58.9695C65.4363 59.7016 65.075 60.3763 64.5028 60.848C63.9306 61.3196 63.1934 61.5505 62.4502 61.4907H17.0587C16.3156 61.5505 15.5784 61.3196 15.0062 60.848C14.434 60.3763 14.0726 59.7016 14 58.9695L19.9375 45H59.9375Z" fill="url(#paint0_linear_1596_25837)"/>
<path d="M62.4602 61.7518H17.2544C15.2165 61.7518 14 60.8353 14 59.299L14.127 59H65.3876L65.5088 59.299C65.5161 60.8793 64.432 61.7518 62.4602 61.7518Z" fill="#4E7AD9"/>
<path d="M20 20C20 18.8954 20.8954 18 22 18H58C59.1046 18 60 18.8954 60 20V45H20V20Z" fill="url(#paint1_linear_1596_25837)"/>
<path d="M24.5397 51H51.4655C51.8348 51 52.189 51.145 52.4502 51.4028C52.7113 51.6607 52.8582 52.0103 52.8582 52.375C52.8582 52.7397 52.7113 53.0893 52.4502 53.3472C52.189 53.605 51.8348 53.75 51.4655 53.75H24.5397C24.1703 53.75 23.8157 53.605 23.5545 53.3472C23.2934 53.0893 23.147 52.7397 23.147 52.375C23.147 52.0103 23.2934 51.6607 23.5545 51.4028C23.8157 51.145 24.1703 51 24.5397 51Z" fill="white" fill-opacity="0.5"/>
<path d="M43.0397 25.25H52.9655C53.3348 25.25 53.689 25.395 53.9502 25.6528C54.2113 25.9107 54.3582 26.2603 54.3582 26.625C54.3582 26.9897 54.2113 27.3393 53.9502 27.5972C53.689 27.855 53.3348 28 52.9655 28H43.0397C42.6703 28 42.3157 27.855 42.0545 27.5972C41.7934 27.3393 41.647 26.9897 41.647 26.625C41.647 26.2603 41.7934 25.9107 42.0545 25.6528C42.3157 25.395 42.6703 25.25 43.0397 25.25Z" fill="white" fill-opacity="0.5"/>
<path d="M28.0397 37.25H52.9655C53.3348 37.25 53.689 37.395 53.9502 37.6528C54.2113 37.9107 54.3582 38.2603 54.3582 38.625C54.3582 38.9897 54.2113 39.3393 53.9502 39.5972C53.689 39.855 53.3348 40 52.9655 40H28.0397C27.6703 40 27.3157 39.855 27.0545 39.5972C26.7934 39.3393 26.647 38.9897 26.647 38.625C26.647 38.2603 26.7934 37.9107 27.0545 37.6528C27.3157 37.395 27.6703 37.25 28.0397 37.25Z" fill="white" fill-opacity="0.5"/>
<path d="M43.0397 31.25H52.9655C53.3348 31.25 53.689 31.395 53.9502 31.6528C54.2113 31.9107 54.3582 32.2603 54.3582 32.625C54.3582 32.9897 54.2113 33.3393 53.9502 33.5972C53.689 33.855 53.3348 34 52.9655 34H43.0397C42.6703 34 42.3157 33.855 42.0545 33.5972C41.7934 33.3393 41.647 32.9897 41.647 32.625C41.647 32.2603 41.7934 31.9107 42.0545 31.6528C42.3157 31.395 42.6703 31.25 43.0397 31.25Z" fill="white" fill-opacity="0.5"/>
<path d="M35.5042 24.3335H27.5451C26.7729 24.3335 26.147 24.8936 26.147 25.5845V32.749C26.147 33.4399 26.7729 34 27.5451 34H35.5042C36.2764 34 36.9024 33.4399 36.9024 32.749V25.5845C36.9024 24.8936 36.2764 24.3335 35.5042 24.3335Z" fill="white" fill-opacity="0.7"/>
<g filter="url(#filter0_d_1596_25837)">
<circle cx="60" cy="55" r="10" fill="url(#paint2_linear_1596_25837)"/>
</g>
<path fill-rule="evenodd" clip-rule="evenodd" d="M64.8274 54.6656C64.3993 54.1947 63.6706 54.1599 63.1996 54.5879L61.1447 56.4557L61.1447 50.0247C61.1447 49.3883 60.6288 48.8724 59.9924 48.8724C59.356 48.8724 58.8401 49.3883 58.8401 50.0247L58.8401 56.4585L56.7822 54.588C56.3112 54.16 55.5825 54.1947 55.1544 54.6657C54.7264 55.1366 54.7612 55.8654 55.2321 56.2934L59.207 59.9063C59.4648 60.146 59.8088 60.247 60.1392 60.2044C60.3727 60.1742 60.5981 60.0727 60.7799 59.9015L64.7497 56.2933C65.2206 55.8653 65.2554 55.1365 64.8274 54.6656Z" fill="white"/>
<defs>
<filter id="filter0_d_1596_25837" x="46" y="45" width="28" height="28" filterUnits="userSpaceOnUse" color-interpolation-filters="sRGB">
<feFlood flood-opacity="0" result="BackgroundImageFix"/>
<feColorMatrix in="SourceAlpha" type="matrix" values="0 0 0 0 0 0 0 0 0 0 0 0 0 0 0 0 0 0 127 0" result="hardAlpha"/>
<feOffset dy="4"/>
<feGaussianBlur stdDeviation="2"/>
<feComposite in2="hardAlpha" operator="out"/>
<feColorMatrix type="matrix" values="0 0 0 0 0.068138 0 0 0 0 0.324803 0 0 0 0 0.59917 0 0 0 0.13 0"/>
<feBlend mode="normal" in2="BackgroundImageFix" result="effect1_dropShadow_1596_25837"/>
<feBlend mode="normal" in="SourceGraphic" in2="effect1_dropShadow_1596_25837" result="shape"/>
</filter>
<linearGradient id="paint0_linear_1596_25837" x1="32.8206" y1="42.643" x2="39.5742" y2="66.6891" gradientUnits="userSpaceOnUse">
<stop stop-color="#A8C4FF"/>
<stop offset="1" stop-color="#4A81F7"/>
</linearGradient>
<linearGradient id="paint1_linear_1596_25837" x1="34.6154" y1="14.143" x2="53.2225" y2="45.5829" gradientUnits="userSpaceOnUse">
<stop stop-color="#A8C4FF"/>
<stop offset="1" stop-color="#4A81F7"/>
</linearGradient>
<linearGradient id="paint2_linear_1596_25837" x1="54.75" y1="47.5" x2="64.25" y2="63.75" gradientUnits="userSpaceOnUse">
<stop stop-color="#88D9FF"/>
<stop offset="1" stop-color="#4AC1F9"/>
</linearGradient>
</defs>
</svg>
