<svg width="72" height="72" viewBox="0 0 72 72" fill="none" xmlns="http://www.w3.org/2000/svg">
<rect width="72" height="72" rx="8" fill="#EEF1F8"/>
<g filter="url(#filter0_d_1596_25347)">
<rect x="15" y="13" width="42" height="46" rx="4" fill="#FDFDFD"/>
</g>
<mask id="path-3-outside-1_1596_25347" maskUnits="userSpaceOnUse" x="20.0942" y="18.0684" width="32" height="21" fill="black">
<rect fill="white" x="20.0942" y="18.0684" width="32" height="21"/>
<path d="M48.5744 36.8821C49.1125 37.0065 49.6533 36.6714 49.7388 36.1258C50.0106 34.3898 49.9515 32.6149 49.5611 30.8955C49.0968 28.8505 48.176 26.9369 46.8675 25.298C45.5591 23.6592 43.8969 22.3375 42.0055 21.4319C40.114 20.5262 38.0422 20.0602 35.9451 20.0685C33.848 20.0768 31.7799 20.5593 29.8957 21.4799C28.0115 22.4005 26.3598 23.7353 25.0644 25.3845C23.769 27.0337 22.8634 28.9545 22.4154 31.0032C22.0386 32.7256 21.9936 34.5009 22.2792 36.2347C22.3689 36.7796 22.9124 37.1104 23.4495 36.9817L27.8816 35.9197C28.4187 35.791 28.7424 35.251 28.6878 34.7014C28.6117 33.9355 28.6561 33.1602 28.8214 32.4043C29.0582 31.3217 29.5368 30.3066 30.2213 29.4351C30.9059 28.5637 31.7787 27.8583 32.7744 27.3718C33.7701 26.8853 34.8629 26.6303 35.9711 26.6259C37.0793 26.6215 38.1741 26.8678 39.1736 27.3464C40.1732 27.825 41.0515 28.5234 41.7429 29.3894C42.4344 30.2555 42.921 31.2667 43.1663 32.3474C43.3377 33.102 43.3883 33.8769 43.3182 34.6434C43.2679 35.1933 43.596 35.7308 44.1341 35.8553L48.5744 36.8821Z"/>
</mask>
<path d="M48.5744 36.8821C49.1125 37.0065 49.6533 36.6714 49.7388 36.1258C50.0106 34.3898 49.9515 32.6149 49.5611 30.8955C49.0968 28.8505 48.176 26.9369 46.8675 25.298C45.5591 23.6592 43.8969 22.3375 42.0055 21.4319C40.114 20.5262 38.0422 20.0602 35.9451 20.0685C33.848 20.0768 31.7799 20.5593 29.8957 21.4799C28.0115 22.4005 26.3598 23.7353 25.0644 25.3845C23.769 27.0337 22.8634 28.9545 22.4154 31.0032C22.0386 32.7256 21.9936 34.5009 22.2792 36.2347C22.3689 36.7796 22.9124 37.1104 23.4495 36.9817L27.8816 35.9197C28.4187 35.791 28.7424 35.251 28.6878 34.7014C28.6117 33.9355 28.6561 33.1602 28.8214 32.4043C29.0582 31.3217 29.5368 30.3066 30.2213 29.4351C30.9059 28.5637 31.7787 27.8583 32.7744 27.3718C33.7701 26.8853 34.8629 26.6303 35.9711 26.6259C37.0793 26.6215 38.1741 26.8678 39.1736 27.3464C40.1732 27.825 41.0515 28.5234 41.7429 29.3894C42.4344 30.2555 42.921 31.2667 43.1663 32.3474C43.3377 33.102 43.3883 33.8769 43.3182 34.6434C43.2679 35.1933 43.596 35.7308 44.1341 35.8553L48.5744 36.8821Z" fill="url(#paint0_linear_1596_25347)"/>
<path d="M48.5744 36.8821C49.1125 37.0065 49.6533 36.6714 49.7388 36.1258C50.0106 34.3898 49.9515 32.6149 49.5611 30.8955C49.0968 28.8505 48.176 26.9369 46.8675 25.298C45.5591 23.6592 43.8969 22.3375 42.0055 21.4319C40.114 20.5262 38.0422 20.0602 35.9451 20.0685C33.848 20.0768 31.7799 20.5593 29.8957 21.4799C28.0115 22.4005 26.3598 23.7353 25.0644 25.3845C23.769 27.0337 22.8634 28.9545 22.4154 31.0032C22.0386 32.7256 21.9936 34.5009 22.2792 36.2347C22.3689 36.7796 22.9124 37.1104 23.4495 36.9817L27.8816 35.9197C28.4187 35.791 28.7424 35.251 28.6878 34.7014C28.6117 33.9355 28.6561 33.1602 28.8214 32.4043C29.0582 31.3217 29.5368 30.3066 30.2213 29.4351C30.9059 28.5637 31.7787 27.8583 32.7744 27.3718C33.7701 26.8853 34.8629 26.6303 35.9711 26.6259C37.0793 26.6215 38.1741 26.8678 39.1736 27.3464C40.1732 27.825 41.0515 28.5234 41.7429 29.3894C42.4344 30.2555 42.921 31.2667 43.1663 32.3474C43.3377 33.102 43.3883 33.8769 43.3182 34.6434C43.2679 35.1933 43.596 35.7308 44.1341 35.8553L48.5744 36.8821Z" stroke="white" stroke-width="4" mask="url(#path-3-outside-1_1596_25347)"/>
<g filter="url(#filter1_d_1596_25347)">
<circle cx="36.3039" cy="33.9936" r="2.68048" transform="rotate(30 36.3039 33.9936)" fill="white"/>
</g>
<path fill-rule="evenodd" clip-rule="evenodd" d="M40.8176 26.0075C40.879 25.9359 40.9941 26.0023 40.9627 26.0914L37.8285 34.5287C37.8267 34.5338 37.8234 34.5418 37.8187 34.5519C37.7834 34.6648 37.7352 34.7756 37.6736 34.8823C37.2233 35.6623 36.2259 35.9295 35.4459 35.4792C34.666 35.0289 34.3987 34.0315 34.849 33.2515C34.9108 33.1445 34.9829 33.0471 35.0633 32.96L40.8176 26.0075ZM35.8748 34.7363C36.2851 34.9732 36.8097 34.8326 37.0465 34.4224C37.2834 34.0121 37.1428 33.4875 36.7326 33.2507C36.3223 33.0138 35.7977 33.1544 35.5608 33.5646C35.324 33.9749 35.4645 34.4995 35.8748 34.7363Z" fill="#343434"/>
<rect x="22" y="42.8804" width="27.3027" height="2" rx="1" fill="#D6DEEC"/>
<rect x="22" y="48.2646" width="27.3027" height="2" rx="1" fill="#D6DEEC"/>
<defs>
<filter id="filter0_d_1596_25347" x="11" y="11" width="50" height="54" filterUnits="userSpaceOnUse" color-interpolation-filters="sRGB">
<feFlood flood-opacity="0" result="BackgroundImageFix"/>
<feColorMatrix in="SourceAlpha" type="matrix" values="0 0 0 0 0 0 0 0 0 0 0 0 0 0 0 0 0 0 127 0" result="hardAlpha"/>
<feOffset dy="2"/>
<feGaussianBlur stdDeviation="2"/>
<feComposite in2="hardAlpha" operator="out"/>
<feColorMatrix type="matrix" values="0 0 0 0 0 0 0 0 0 0 0 0 0 0 0 0 0 0 0.1 0"/>
<feBlend mode="normal" in2="BackgroundImageFix" result="effect1_dropShadow_1596_25347"/>
<feBlend mode="normal" in="SourceGraphic" in2="effect1_dropShadow_1596_25347" result="shape"/>
</filter>
<filter id="filter1_d_1596_25347" x="21.623" y="22.3125" width="29.3618" height="29.3618" filterUnits="userSpaceOnUse" color-interpolation-filters="sRGB">
<feFlood flood-opacity="0" result="BackgroundImageFix"/>
<feColorMatrix in="SourceAlpha" type="matrix" values="0 0 0 0 0 0 0 0 0 0 0 0 0 0 0 0 0 0 127 0" result="hardAlpha"/>
<feOffset dy="3"/>
<feGaussianBlur stdDeviation="6"/>
<feComposite in2="hardAlpha" operator="out"/>
<feColorMatrix type="matrix" values="0 0 0 0 0.215686 0 0 0 0 0.113725 0 0 0 0 0.431373 0 0 0 0.07 0"/>
<feBlend mode="normal" in2="BackgroundImageFix" result="effect1_dropShadow_1596_25347"/>
<feBlend mode="normal" in="SourceGraphic" in2="effect1_dropShadow_1596_25347" result="shape"/>
</filter>
<linearGradient id="paint0_linear_1596_25347" x1="22.0942" y1="33.9744" x2="47" y2="35.5002" gradientUnits="userSpaceOnUse">
<stop stop-color="#0ACFA0"/>
<stop offset="0.5" stop-color="#1794FA"/>
<stop offset="1" stop-color="#8D62F2"/>
</linearGradient>
</defs>
</svg>
