<svg width="80" height="80" viewBox="0 0 80 80" fill="none" xmlns="http://www.w3.org/2000/svg">
<rect width="80" height="80" rx="24" fill="#EDF7FD"/>
<g filter="url(#filter0_d_13877_3942)">
<rect x="23" y="23" width="34" height="37" rx="4" fill="url(#paint0_linear_13877_3942)"/>
<path d="M50.0361 41C50.2917 41.0001 50.537 41.1055 50.7178 41.293C50.8985 41.4805 51 41.7348 51 42C51 42.2652 50.8985 42.5195 50.7178 42.707C50.537 42.8945 50.2917 42.9999 50.0361 43H45.9639C45.7083 42.9999 45.463 42.8945 45.2822 42.707C45.1015 42.5195 45 42.2652 45 42C45 41.7348 45.1015 41.4805 45.2822 41.293C45.463 41.1055 45.7083 41.0001 45.9639 41H50.0361ZM50.0361 37C50.2917 37.0001 50.537 37.1055 50.7178 37.293C50.8985 37.4805 51 37.7348 51 38C51 38.2652 50.8985 38.5195 50.7178 38.707C50.537 38.8945 50.2917 38.9999 50.0361 39H45.9639C45.7083 38.9999 45.463 38.8945 45.2822 38.707C45.1015 38.5195 45 38.2652 45 38C45 37.7348 45.1015 37.4805 45.2822 37.293C45.463 37.1055 45.7083 37.0001 45.9639 37H50.0361ZM50.0361 33C50.2917 33.0001 50.537 33.1055 50.7178 33.293C50.8985 33.4805 51 33.7348 51 34C51 34.2652 50.8985 34.5195 50.7178 34.707C50.537 34.8945 50.2917 34.9999 50.0361 35H45.9639C45.7083 34.9999 45.463 34.8945 45.2822 34.707C45.1015 34.5195 45 34.2652 45 34C45 33.7348 45.1015 33.4805 45.2822 33.293C45.463 33.1055 45.7083 33.0001 45.9639 33H50.0361Z" fill="white" fill-opacity="0.5"/>
<path d="M29.08 50C28.7936 50 28.5189 49.8946 28.3164 49.707C28.1139 49.5195 28 49.2652 28 49C28 48.7348 28.1139 48.4805 28.3164 48.293C28.5189 48.1054 28.7936 48 29.08 48H50.92C51.2064 48 51.4811 48.1054 51.6836 48.293C51.8861 48.4805 52 48.7348 52 49C52 49.2652 51.8861 49.5195 51.6836 49.707C51.4811 49.8946 51.2064 50 50.92 50H29.08Z" fill="white" fill-opacity="0.5"/>
<path d="M29.08 55C28.7936 55 28.5189 54.8946 28.3164 54.707C28.1139 54.5195 28 54.2652 28 54C28 53.7348 28.1139 53.4805 28.3164 53.293C28.5189 53.1054 28.7936 53 29.08 53H50.92C51.2064 53 51.4811 53.1054 51.6836 53.293C51.8861 53.4805 52 53.7348 52 54C52 54.2652 51.8861 54.5195 51.6836 54.707C51.4811 54.8946 51.2064 55 50.92 55H29.08Z" fill="white" fill-opacity="0.5"/>
<path d="M34.3839 43.9526C32.6907 43.9526 31.0668 43.282 29.8695 42.0864C28.6721 40.8908 27.9995 39.2682 27.9995 37.5774C27.9995 35.8866 28.6721 34.2655 29.8695 33.0699C31.0668 31.8743 32.6907 31.2021 34.3839 31.2021V37.5774H40.7683C40.7653 39.2673 40.0917 40.8884 38.8951 42.0833C37.6984 43.2783 36.0762 43.9497 34.3839 43.9526Z" fill="white" fill-opacity="0.5"/>
<path d="M41.9654 36.3752H35.5811V30C37.2734 30.0029 38.8956 30.6759 40.0922 31.8709C41.2889 33.0658 41.9625 34.6853 41.9654 36.3752Z" fill="white"/>
<path d="M45.3324 21.2545H42.947C42.8075 20.6178 42.438 20.0458 41.901 19.635C41.3639 19.2243 40.6922 19 39.9992 19C39.3062 19 38.6345 19.2243 38.0974 19.635C37.5604 20.0458 37.1909 20.6178 37.0514 21.2545H34.666C33.9426 21.2718 33.256 21.5572 32.7565 22.0483C32.2569 22.5393 31.9852 23.196 32.0006 23.8745V25H47.9994V23.8745C48.0148 23.1957 47.7429 22.5388 47.243 22.0477C46.7431 21.5566 46.056 21.2714 45.3324 21.2545ZM40 22.7551C39.8404 22.7623 39.6821 22.7245 39.5456 22.6465C39.4091 22.5686 39.3006 22.454 39.2342 22.3177C39.1677 22.1814 39.1463 22.0296 39.1726 21.8817C39.199 21.7339 39.272 21.5969 39.3822 21.4883C39.4924 21.3797 39.6348 21.3046 39.7909 21.2726C39.947 21.2406 40.1098 21.2533 40.2582 21.3088C40.4066 21.3644 40.5339 21.4604 40.6236 21.5844C40.7133 21.7085 40.7614 21.8549 40.7615 22.0048C40.7663 22.1989 40.6888 22.3869 40.546 22.5275C40.4033 22.6681 40.2069 22.75 40 22.7551Z" fill="#4188D0"/>
</g>
<defs>
<filter id="filter0_d_13877_3942" x="19" y="16" width="42" height="49" filterUnits="userSpaceOnUse" color-interpolation-filters="sRGB">
<feFlood flood-opacity="0" result="BackgroundImageFix"/>
<feColorMatrix in="SourceAlpha" type="matrix" values="0 0 0 0 0 0 0 0 0 0 0 0 0 0 0 0 0 0 127 0" result="hardAlpha"/>
<feOffset dy="1"/>
<feGaussianBlur stdDeviation="2"/>
<feComposite in2="hardAlpha" operator="out"/>
<feColorMatrix type="matrix" values="0 0 0 0 0.254902 0 0 0 0 0.533333 0 0 0 0 0.815686 0 0 0 0.2 0"/>
<feBlend mode="normal" in2="BackgroundImageFix" result="effect1_dropShadow_13877_3942"/>
<feBlend mode="normal" in="SourceGraphic" in2="effect1_dropShadow_13877_3942" result="shape"/>
</filter>
<linearGradient id="paint0_linear_13877_3942" x1="27.0652" y1="23" x2="42.227" y2="63.5859" gradientUnits="userSpaceOnUse">
<stop stop-color="#95C9FD"/>
<stop offset="1" stop-color="#4EA6FF"/>
</linearGradient>
</defs>
</svg>
