<svg width="48" height="48" viewBox="0 0 48 48" fill="none" xmlns="http://www.w3.org/2000/svg">
<rect x="10" y="13" width="28" height="22" rx="3" fill="url(#paint0_linear_1849_31091)"/>
<path d="M38 18H10V21H38V18Z" fill="white" fill-opacity="0.5"/>
<path d="M20.5 31C21.8807 31 23 29.8807 23 28.5C23 27.1193 21.8807 26 20.5 26C19.1193 26 18 27.1193 18 28.5C18 29.8807 19.1193 31 20.5 31Z" fill="white" fill-opacity="0.5"/>
<path d="M16.5 31C17.8807 31 19 29.8807 19 28.5C19 27.1193 17.8807 26 16.5 26C15.1193 26 14 27.1193 14 28.5C14 29.8807 15.1193 31 16.5 31Z" fill="white"/>
<defs>
<linearGradient id="paint0_linear_1849_31091" x1="16" y1="10.5" x2="42.4307" y2="24.0265" gradientUnits="userSpaceOnUse">
<stop stop-color="#ADB7FF"/>
<stop offset="1" stop-color="#5266F7"/>
</linearGradient>
</defs>
</svg>
