<svg width="88" height="89" viewBox="0 0 88 89" fill="none" xmlns="http://www.w3.org/2000/svg">
<g clip-path="url(#clip0_9796_839)">
<circle cx="44" cy="44.5" r="44" fill="url(#paint0_linear_9796_839)"/>
<mask id="mask0_9796_839" style="mask-type:alpha" maskUnits="userSpaceOnUse" x="0" y="0" width="88" height="89">
<circle cx="44" cy="44.5" r="44" fill="black"/>
</mask>
<g mask="url(#mask0_9796_839)">
<path d="M22.9664 29.6194V28.5492C22.9664 28.4115 23.0211 28.2795 23.1185 28.1821C23.2158 28.0847 23.3479 28.03 23.4856 28.03C23.6233 28.03 23.7554 28.0847 23.8528 28.1821C23.9502 28.2795 24.0049 28.4115 24.0049 28.5492V29.6204C24.0049 29.7581 23.9502 29.8902 23.8528 29.9876C23.7554 30.085 23.6233 30.1396 23.4856 30.1396C23.3479 30.1396 23.2158 30.085 23.1185 29.9876C23.0211 29.8902 22.9664 29.7571 22.9664 29.6194ZM25.9455 29.0996L25.4099 28.1721C25.3438 28.0529 25.3271 27.9125 25.3635 27.7812C25.3999 27.6498 25.4865 27.538 25.6045 27.4699C25.7225 27.4017 25.8626 27.3827 25.9945 27.4168C26.1265 27.4509 26.2398 27.5355 26.31 27.6523L26.8456 28.5798C26.9072 28.6986 26.9207 28.8365 26.8832 28.9649C26.8458 29.0933 26.7602 29.2024 26.6444 29.2693C26.5286 29.3363 26.3914 29.356 26.2615 29.3244C26.1315 29.2928 26.0177 29.2123 25.9455 29.0996ZM20.3169 29.2898C20.1979 29.2208 20.111 29.1075 20.0753 28.9747C20.0397 28.8418 20.0582 28.7002 20.1267 28.5809L20.6624 27.6534C20.7311 27.5341 20.8445 27.4472 20.9774 27.4115C21.1103 27.3758 21.252 27.3944 21.3712 27.4632C21.4904 27.532 21.5774 27.6453 21.6131 27.7783C21.6487 27.9112 21.6302 28.0529 21.5614 28.1721L21.0258 29.0996C20.9917 29.1587 20.9464 29.2105 20.8923 29.252C20.8383 29.2935 20.7766 29.3239 20.7108 29.3416C20.6449 29.3593 20.5763 29.3638 20.5087 29.3549C20.4411 29.346 20.376 29.3239 20.3169 29.2898ZM28.2664 27.16L27.3389 26.6244C27.2766 26.592 27.2214 26.5474 27.1768 26.4931C27.1322 26.4389 27.0991 26.3762 27.0794 26.3087C27.0598 26.2413 27.0539 26.1706 27.0624 26.1008C27.0708 26.0311 27.0932 25.9638 27.1284 25.903C27.1635 25.8422 27.2107 25.7891 27.2669 25.7471C27.3232 25.705 27.3874 25.6747 27.4556 25.6581C27.5239 25.6415 27.5947 25.6389 27.664 25.6505C27.7333 25.662 27.7995 25.6876 27.8587 25.7255L28.7862 26.261C28.8452 26.2951 28.897 26.3404 28.9385 26.3945C28.98 26.4485 29.0105 26.5102 29.0281 26.5761C29.0458 26.6419 29.0503 26.7106 29.0414 26.7781C29.0325 26.8457 29.0104 26.9109 28.9763 26.9699C28.9423 27.0289 28.8969 27.0807 28.8429 27.1222C28.7888 27.1637 28.7271 27.1941 28.6613 27.2117C28.5955 27.2294 28.5269 27.234 28.4593 27.2251C28.3917 27.2162 28.3266 27.1941 28.2675 27.16H28.2664ZM17.997 26.9699C17.9284 26.8506 17.91 26.7091 17.9456 26.5762C17.9813 26.4433 18.0681 26.3299 18.1871 26.261L19.1147 25.7255C19.234 25.6567 19.3756 25.638 19.5085 25.6737C19.6414 25.7093 19.7548 25.7964 19.8235 25.9156C19.8923 26.0348 19.911 26.1764 19.8753 26.3094C19.8397 26.4423 19.7526 26.5556 19.6334 26.6244L18.7059 27.16C18.5865 27.2289 18.4447 27.2476 18.3115 27.2119C18.1784 27.1763 18.0659 27.0892 17.997 26.9699ZM28.2348 24.3193C28.0971 24.3193 27.965 24.2646 27.8676 24.1673C27.7703 24.0699 27.7155 23.9378 27.7155 23.8001C27.7155 23.6624 27.7703 23.5304 27.8676 23.433C27.965 23.3356 28.0971 23.2809 28.2348 23.2809H29.306C29.4437 23.2809 29.5757 23.3356 29.6731 23.433C29.7705 23.5304 29.8252 23.6624 29.8252 23.8001C29.8252 23.9378 29.7705 24.0699 29.6731 24.1673C29.5757 24.2646 29.4437 24.3193 29.306 24.3193H28.2348ZM17.6706 24.3193C17.5329 24.3193 17.4008 24.2646 17.3035 24.1673C17.2061 24.0699 17.1514 23.9378 17.1514 23.8001C17.1514 23.6624 17.2061 23.5304 17.3035 23.433C17.4008 23.3356 17.5329 23.2809 17.6706 23.2809H18.7418C18.8795 23.2809 19.0116 23.3356 19.1089 23.433C19.2063 23.5304 19.261 23.6624 19.261 23.8001C19.261 23.9378 19.2063 24.0699 19.1089 24.1673C19.0116 24.2646 18.8795 24.3193 18.7418 24.3193H17.6706ZM27.1477 21.6825C27.1136 21.6235 27.0915 21.5583 27.0826 21.4908C27.0737 21.4232 27.0782 21.3545 27.0959 21.2887C27.1135 21.2229 27.144 21.1612 27.1855 21.1071C27.227 21.0531 27.2788 21.0077 27.3379 20.9736L28.2654 20.4381C28.3244 20.404 28.3896 20.3819 28.4572 20.373C28.5247 20.3642 28.5933 20.3687 28.6592 20.3863C28.725 20.404 28.7867 20.4344 28.8408 20.4759C28.8949 20.5174 28.9402 20.5692 28.9742 20.6282C29.0083 20.6873 29.0304 20.7524 29.0393 20.82C29.0481 20.8876 29.0436 20.9562 29.026 21.022C29.0083 21.0878 28.9779 21.1496 28.9364 21.2036C28.8949 21.2577 28.8431 21.303 28.7841 21.337L27.8565 21.8727C27.7975 21.9068 27.7324 21.9289 27.6648 21.9378C27.5972 21.9467 27.5285 21.9422 27.4627 21.9245C27.3969 21.9068 27.3352 21.8764 27.2811 21.8349C27.2271 21.7934 27.1818 21.7416 27.1477 21.6825ZM19.1189 21.8727L18.1914 21.337C18.1324 21.3029 18.0806 21.2575 18.0392 21.2034C17.9977 21.1493 17.9673 21.0876 17.9497 21.0217C17.9321 20.9558 17.9276 20.8871 17.9365 20.8195C17.9455 20.7519 17.9676 20.6867 18.0018 20.6277C18.0359 20.5687 18.0813 20.517 18.1354 20.4755C18.1896 20.434 18.2513 20.4036 18.3172 20.386C18.3831 20.3684 18.4517 20.3639 18.5193 20.3728C18.5869 20.3818 18.6521 20.404 18.7112 20.4381L19.6387 20.9736C19.7579 21.0424 19.845 21.1557 19.8806 21.2887C19.9163 21.4216 19.8976 21.5633 19.8288 21.6825C19.7601 21.8017 19.6467 21.8887 19.5138 21.9244C19.3809 21.96 19.2392 21.9415 19.12 21.8727H19.1189ZM20.9825 20.1824C20.9163 20.165 20.8542 20.1346 20.7998 20.0931C20.7454 20.0516 20.6998 19.9997 20.6655 19.9405L20.13 19.013C20.0683 18.8943 20.0548 18.7563 20.0923 18.6279C20.1298 18.4995 20.2153 18.3905 20.3311 18.3235C20.4469 18.2566 20.5841 18.2368 20.7141 18.2684C20.844 18.3001 20.9568 18.3806 21.0289 18.4932L21.5645 19.4207C21.6162 19.5096 21.6403 19.6117 21.6338 19.7143C21.6273 19.8169 21.5905 19.9153 21.528 19.9969C21.4656 20.0785 21.3802 20.1397 21.2829 20.1727C21.1856 20.2057 21.0806 20.2091 20.9814 20.1824H20.9825ZM25.6043 20.1307C25.5452 20.0966 25.4935 20.0513 25.4519 19.9972C25.4104 19.9432 25.38 19.8814 25.3623 19.8156C25.3447 19.7498 25.3401 19.6811 25.349 19.6135C25.3579 19.546 25.38 19.4808 25.4141 19.4218L25.9497 18.4943C26.0219 18.3816 26.1346 18.3011 26.2646 18.2695C26.3946 18.2379 26.5318 18.2576 26.6476 18.3245C26.7634 18.3915 26.8489 18.5005 26.8864 18.6289C26.9239 18.7574 26.9104 18.8953 26.8487 19.014L26.3131 19.9415C26.2442 20.0609 26.1307 20.148 25.9976 20.1837C25.8644 20.2193 25.7226 20.2006 25.6032 20.1317L25.6043 20.1307ZM23.1228 19.4123C23.0746 19.364 23.0365 19.3066 23.0105 19.2436C22.9846 19.1805 22.9714 19.1129 22.9717 19.0446V17.9851C22.9717 17.8474 23.0264 17.7153 23.1238 17.6179C23.2211 17.5206 23.3532 17.4658 23.4909 17.4658C23.6286 17.4658 23.7607 17.5206 23.858 17.6179C23.9554 17.7153 24.0101 17.8474 24.0101 17.9851V19.0562C24.01 19.1589 23.9794 19.2592 23.9224 19.3445C23.8653 19.4298 23.7843 19.4962 23.6896 19.5355C23.5948 19.5748 23.4905 19.5852 23.3898 19.5654C23.2891 19.5455 23.1966 19.4963 23.1238 19.4239L23.1228 19.4123Z" fill="#D3E1FE"/>
<g filter="url(#filter0_d_9796_839)">
<rect x="23.3252" y="22.604" width="40" height="45" rx="4" fill="url(#paint1_linear_9796_839)"/>
</g>
<path d="M30.0291 45.604L33.1522 36.4126H36.0213L39.1317 45.604H36.8084L36.1864 43.6362H32.9871L32.3651 45.604H30.0291ZM35.6659 41.9858L34.6248 38.6851H34.5487L33.5077 41.9858H35.6659ZM38.7676 45.604L41.8906 36.4126H44.7598L47.8701 45.604H45.5469L44.9248 43.6362H41.7256L41.1035 45.604H38.7676ZM44.4043 41.9858L43.3633 38.6851H43.2871L42.2461 41.9858H44.4043ZM47.506 45.604L50.6291 36.4126H53.4982L56.6086 45.604H54.2853L53.6632 43.6362H50.464L49.842 45.604H47.506ZM53.1427 41.9858L52.1017 38.6851H52.0255L50.9845 41.9858H53.1427Z" fill="white"/>
<path d="M49.3241 21.3094H46.6405C46.4836 20.5454 46.068 19.8589 45.4638 19.3661C44.8596 18.8732 44.1039 18.604 43.3243 18.604C42.5447 18.604 41.789 18.8732 41.1848 19.3661C40.5806 19.8589 40.165 20.5454 40.0081 21.3094H37.3245C36.5107 21.3301 35.7382 21.6727 35.1762 22.2619C34.6142 22.8512 34.3085 23.6392 34.3259 24.4535V25.804H52.3245V24.4535C52.3419 23.6389 52.0359 22.8506 51.4735 22.2613C50.9112 21.672 50.1382 21.3297 49.3241 21.3094ZM43.3252 23.1101C43.1456 23.1187 42.9676 23.0734 42.814 22.9798C42.6605 22.8863 42.5384 22.7489 42.4636 22.5853C42.3888 22.4217 42.3647 22.2395 42.3944 22.0621C42.4241 21.8847 42.5062 21.7202 42.6302 21.59C42.7542 21.4597 42.9143 21.3695 43.0899 21.3312C43.2656 21.2928 43.4487 21.3079 43.6157 21.3746C43.7826 21.4413 43.9258 21.5565 44.0267 21.7053C44.1277 21.8542 44.1817 22.0299 44.1819 22.2097C44.1872 22.4427 44.1001 22.6682 43.9395 22.837C43.7789 23.0058 43.558 23.104 43.3252 23.1101Z" fill="#4E7AD9"/>
<path d="M31.7363 52.9277H45.8252" stroke="white" stroke-opacity="0.6" stroke-width="2" stroke-linecap="round"/>
<path d="M31.7363 59.1777H45.8252" stroke="white" stroke-opacity="0.6" stroke-width="2" stroke-linecap="round"/>
<g filter="url(#filter1_d_9796_839)">
<circle cx="60.3252" cy="60.604" r="10" fill="url(#paint2_linear_9796_839)"/>
</g>
<path d="M57.4969 63.4324L63.1537 57.7756M57.4969 57.7756L63.1537 63.4324L57.4969 57.7756Z" stroke="white" stroke-width="2" stroke-linecap="round" stroke-linejoin="round"/>
</g>
<g opacity="0.2" filter="url(#filter2_i_9796_839)">
<path d="M76 27.75C76.8284 27.75 77.5 27.0784 77.5 26.25C77.5 25.4216 76.8284 24.75 76 24.75C75.1716 24.75 74.5 25.4216 74.5 26.25C74.5 27.0784 75.1716 27.75 76 27.75Z" fill="#6695FA"/>
</g>
<g opacity="0.2" filter="url(#filter3_i_9796_839)">
<path d="M81.5 10C83.7091 10 85.5 8.20914 85.5 6C85.5 3.79086 83.7091 2 81.5 2C79.2909 2 77.5 3.79086 77.5 6C77.5 8.20914 79.2909 10 81.5 10Z" fill="#6695FA"/>
</g>
<path opacity="0.5" d="M5.16309 83.5C6.5438 83.5 7.66309 82.3807 7.66309 81C7.66309 79.6193 6.5438 78.5 5.16309 78.5C3.78237 78.5 2.66309 79.6193 2.66309 81C2.66309 82.3807 3.78237 83.5 5.16309 83.5Z" fill="#D1DBFA"/>
</g>
<defs>
<filter id="filter0_d_9796_839" x="-16.6748" y="6.604" width="120" height="125" filterUnits="userSpaceOnUse" color-interpolation-filters="sRGB">
<feFlood flood-opacity="0" result="BackgroundImageFix"/>
<feColorMatrix in="SourceAlpha" type="matrix" values="0 0 0 0 0 0 0 0 0 0 0 0 0 0 0 0 0 0 127 0" result="hardAlpha"/>
<feOffset dy="24"/>
<feGaussianBlur stdDeviation="20"/>
<feComposite in2="hardAlpha" operator="out"/>
<feColorMatrix type="matrix" values="0 0 0 0 0.162629 0 0 0 0 0.322219 0 0 0 0 0.960579 0 0 0 0.2 0"/>
<feBlend mode="normal" in2="BackgroundImageFix" result="effect1_dropShadow_9796_839"/>
<feBlend mode="normal" in="SourceGraphic" in2="effect1_dropShadow_9796_839" result="shape"/>
</filter>
<filter id="filter1_d_9796_839" x="46.3252" y="50.604" width="28" height="28" filterUnits="userSpaceOnUse" color-interpolation-filters="sRGB">
<feFlood flood-opacity="0" result="BackgroundImageFix"/>
<feColorMatrix in="SourceAlpha" type="matrix" values="0 0 0 0 0 0 0 0 0 0 0 0 0 0 0 0 0 0 127 0" result="hardAlpha"/>
<feOffset dy="4"/>
<feGaussianBlur stdDeviation="2"/>
<feComposite in2="hardAlpha" operator="out"/>
<feColorMatrix type="matrix" values="0 0 0 0 0.289401 0 0 0 0 0.068138 0 0 0 0 0.59917 0 0 0 0.15 0"/>
<feBlend mode="normal" in2="BackgroundImageFix" result="effect1_dropShadow_9796_839"/>
<feBlend mode="normal" in="SourceGraphic" in2="effect1_dropShadow_9796_839" result="shape"/>
</filter>
<filter id="filter2_i_9796_839" x="74.5" y="23.75" width="3" height="4" filterUnits="userSpaceOnUse" color-interpolation-filters="sRGB">
<feFlood flood-opacity="0" result="BackgroundImageFix"/>
<feBlend mode="normal" in="SourceGraphic" in2="BackgroundImageFix" result="shape"/>
<feColorMatrix in="SourceAlpha" type="matrix" values="0 0 0 0 0 0 0 0 0 0 0 0 0 0 0 0 0 0 127 0" result="hardAlpha"/>
<feOffset dy="-1"/>
<feGaussianBlur stdDeviation="2"/>
<feComposite in2="hardAlpha" operator="arithmetic" k2="-1" k3="1"/>
<feColorMatrix type="matrix" values="0 0 0 0 0.340564 0 0 0 0 0.123427 0 0 0 0 0.774837 0 0 0 0.25 0"/>
<feBlend mode="normal" in2="shape" result="effect1_innerShadow_9796_839"/>
</filter>
<filter id="filter3_i_9796_839" x="77.5" y="1" width="8" height="9" filterUnits="userSpaceOnUse" color-interpolation-filters="sRGB">
<feFlood flood-opacity="0" result="BackgroundImageFix"/>
<feBlend mode="normal" in="SourceGraphic" in2="BackgroundImageFix" result="shape"/>
<feColorMatrix in="SourceAlpha" type="matrix" values="0 0 0 0 0 0 0 0 0 0 0 0 0 0 0 0 0 0 127 0" result="hardAlpha"/>
<feOffset dy="-1"/>
<feGaussianBlur stdDeviation="2"/>
<feComposite in2="hardAlpha" operator="arithmetic" k2="-1" k3="1"/>
<feColorMatrix type="matrix" values="0 0 0 0 0.340564 0 0 0 0 0.123427 0 0 0 0 0.774837 0 0 0 0.25 0"/>
<feBlend mode="normal" in2="shape" result="effect1_innerShadow_9796_839"/>
</filter>
<linearGradient id="paint0_linear_9796_839" x1="72" y1="88.5" x2="22.5" y2="13.498" gradientUnits="userSpaceOnUse">
<stop stop-color="#F1F5FC"/>
<stop offset="1" stop-color="#F4F6FA"/>
</linearGradient>
<linearGradient id="paint1_linear_9796_839" x1="35.0752" y1="20.0527" x2="62.5116" y2="53.7625" gradientUnits="userSpaceOnUse">
<stop stop-color="#B3CBFF"/>
<stop offset="1" stop-color="#6091F9"/>
</linearGradient>
<linearGradient id="paint2_linear_9796_839" x1="55.1252" y1="48.8393" x2="72.7027" y2="67.8751" gradientUnits="userSpaceOnUse">
<stop stop-color="#D0B8FF"/>
<stop offset="1" stop-color="#9B7AFF"/>
</linearGradient>
<clipPath id="clip0_9796_839">
<rect width="88" height="88" fill="white" transform="translate(0 0.5)"/>
</clipPath>
</defs>
</svg>
