<svg width="80" height="80" viewBox="0 0 80 80" fill="none" xmlns="http://www.w3.org/2000/svg">
<rect width="80" height="80" rx="24" fill="#ECEFFF"/>
<g filter="url(#filter0_d_13877_3022)">
<path d="M36 24C36 21.7909 37.7909 20 40 20H58C60.2091 20 62 21.7909 62 24V57C62 59.2091 60.2091 61 58 61H40C37.7909 61 36 59.2091 36 57V24Z" fill="#B2BDFF"/>
<path opacity="0.9" d="M57.334 50C57.5104 50 57.6799 50.0792 57.8047 50.2197C57.9295 50.3604 58 50.5511 58 50.75V52.25C58 52.4489 57.9295 52.6396 57.8047 52.7803C57.6799 52.9208 57.5104 53 57.334 53H54.666C54.4896 53 54.3201 52.9208 54.1953 52.7803C54.0705 52.6396 54 52.4489 54 52.25V50.75C54 50.5511 54.0705 50.3604 54.1953 50.2197C54.3201 50.0792 54.4896 50 54.666 50H57.334ZM57.334 44C57.5104 44 57.6799 44.0792 57.8047 44.2197C57.9295 44.3604 58 44.5511 58 44.75V46.25C58 46.4489 57.9295 46.6396 57.8047 46.7803C57.6799 46.9208 57.5104 47 57.334 47H54.666C54.4896 47 54.3201 46.9208 54.1953 46.7803C54.0705 46.6396 54 46.4489 54 46.25V44.75C54 44.5511 54.0705 44.3604 54.1953 44.2197C54.3201 44.0792 54.4896 44 54.666 44H57.334ZM50.334 38C50.5104 38 50.6799 38.0792 50.8047 38.2197C50.9295 38.3604 51 38.5511 51 38.75V40.25C51 40.4489 50.9295 40.6396 50.8047 40.7803C50.6799 40.9208 50.5104 41 50.334 41H47.666C47.4896 41 47.3201 40.9208 47.1953 40.7803C47.0705 40.6396 47 40.4489 47 40.25V38.75C47 38.5511 47.0705 38.3604 47.1953 38.2197C47.3201 38.0792 47.4896 38 47.666 38H50.334ZM57.334 38C57.5104 38 57.6799 38.0792 57.8047 38.2197C57.9295 38.3604 58 38.5511 58 38.75V40.25C58 40.4489 57.9295 40.6396 57.8047 40.7803C57.6799 40.9208 57.5104 41 57.334 41H54.666C54.4896 41 54.3201 40.9208 54.1953 40.7803C54.0705 40.6396 54 40.4489 54 40.25V38.75C54 38.5511 54.0705 38.3604 54.1953 38.2197C54.3201 38.0792 54.4896 38 54.666 38H57.334ZM43.334 32C43.5104 32 43.6799 32.0792 43.8047 32.2197C43.9295 32.3604 44 32.5511 44 32.75V34.25C44 34.4489 43.9295 34.6396 43.8047 34.7803C43.6799 34.9208 43.5104 35 43.334 35H40.666C40.4896 35 40.3201 34.9208 40.1953 34.7803C40.0705 34.6396 40 34.4489 40 34.25V32.75C40 32.5511 40.0705 32.3604 40.1953 32.2197C40.3201 32.0792 40.4896 32 40.666 32H43.334ZM50.334 32C50.5104 32 50.6799 32.0792 50.8047 32.2197C50.9295 32.3604 51 32.5511 51 32.75V34.25C51 34.4489 50.9295 34.6396 50.8047 34.7803C50.6799 34.9208 50.5104 35 50.334 35H47.666C47.4896 35 47.3201 34.9208 47.1953 34.7803C47.0705 34.6396 47 34.4489 47 34.25V32.75C47 32.5511 47.0705 32.3604 47.1953 32.2197C47.3201 32.0792 47.4896 32 47.666 32H50.334ZM57.334 32C57.5104 32 57.6799 32.0792 57.8047 32.2197C57.9295 32.3604 58 32.5511 58 32.75V34.25C58 34.4489 57.9295 34.6396 57.8047 34.7803C57.6799 34.9208 57.5104 35 57.334 35H54.666C54.4896 35 54.3201 34.9208 54.1953 34.7803C54.0705 34.6396 54 34.4489 54 34.25V32.75C54 32.5511 54.0705 32.3604 54.1953 32.2197C54.3201 32.0792 54.4896 32 54.666 32H57.334ZM43.334 26C43.5104 26 43.6799 26.0792 43.8047 26.2197C43.9295 26.3604 44 26.5511 44 26.75V28.25C44 28.4489 43.9295 28.6396 43.8047 28.7803C43.6799 28.9208 43.5104 29 43.334 29H40.666C40.4896 29 40.3201 28.9208 40.1953 28.7803C40.0705 28.6396 40 28.4489 40 28.25V26.75C40 26.5511 40.0705 26.3604 40.1953 26.2197C40.3201 26.0792 40.4896 26 40.666 26H43.334ZM50.334 26C50.5104 26 50.6799 26.0792 50.8047 26.2197C50.9295 26.3604 51 26.5511 51 26.75V28.25C51 28.4489 50.9295 28.6396 50.8047 28.7803C50.6799 28.9208 50.5104 29 50.334 29H47.666C47.4896 29 47.3201 28.9208 47.1953 28.7803C47.0705 28.6396 47 28.4489 47 28.25V26.75C47 26.5511 47.0705 26.3604 47.1953 26.2197C47.3201 26.0792 47.4896 26 47.666 26H50.334ZM57.334 26C57.5104 26 57.6799 26.0792 57.8047 26.2197C57.9295 26.3604 58 26.5511 58 26.75V28.25C58 28.4489 57.9295 28.6396 57.8047 28.7803C57.6799 28.9208 57.5104 29 57.334 29H54.666C54.4896 29 54.3201 28.9208 54.1953 28.7803C54.0705 28.6396 54 28.4489 54 28.25V26.75C54 26.5511 54.0705 26.3604 54.1953 26.2197C54.3201 26.0792 54.4896 26 54.666 26H57.334Z" fill="white" fill-opacity="0.8"/>
<path d="M18.0001 44.2001V57.8441C17.9976 58.2575 18.0744 58.6674 18.2258 59.05C18.3772 59.4327 18.6003 59.7807 18.8823 60.074C19.1644 60.3673 19.4997 60.6001 19.8691 60.759C20.2385 60.918 20.6347 60.9999 21.0348 61.0001C24.1542 60.9847 30.4593 61.0018 43 61.0001C43.8073 60.996 44.5436 60.6171 45.1127 60.0255C45.6818 59.434 46.0009 58.6336 46 57.7995V44.2875C46.0003 43.8247 45.9026 43.3674 45.7137 42.9478C45.5248 42.5281 45.2493 42.1563 44.9065 41.8584L33.6684 31.608C33.2025 31.2021 32.6092 30.986 32 31.0002C31.3908 31.0144 30.8075 31.258 30.3598 31.6851L18.9956 41.8669C18.6822 42.1633 18.4319 42.5237 18.2605 42.9254C18.0891 43.327 18.0004 43.7611 18.0001 44.2001Z" fill="url(#paint0_linear_13877_3022)"/>
<path d="M27 53C27 51.8954 27.8954 51 29 51H35C36.1046 51 37 51.8954 37 53V61H27V53Z" fill="#5B68D3"/>
<rect x="27" y="44" width="10" height="2" rx="1" fill="white"/>
</g>
<defs>
<filter id="filter0_d_13877_3022" x="14" y="17" width="52" height="49.0005" filterUnits="userSpaceOnUse" color-interpolation-filters="sRGB">
<feFlood flood-opacity="0" result="BackgroundImageFix"/>
<feColorMatrix in="SourceAlpha" type="matrix" values="0 0 0 0 0 0 0 0 0 0 0 0 0 0 0 0 0 0 127 0" result="hardAlpha"/>
<feOffset dy="1"/>
<feGaussianBlur stdDeviation="2"/>
<feComposite in2="hardAlpha" operator="out"/>
<feColorMatrix type="matrix" values="0 0 0 0 0.356863 0 0 0 0 0.407843 0 0 0 0 0.827451 0 0 0 0.2 0"/>
<feBlend mode="normal" in2="BackgroundImageFix" result="effect1_dropShadow_13877_3022"/>
<feBlend mode="normal" in="SourceGraphic" in2="effect1_dropShadow_13877_3022" result="shape"/>
</filter>
<linearGradient id="paint0_linear_13877_3022" x1="23.9862" y1="36.0649" x2="38.0706" y2="68.054" gradientUnits="userSpaceOnUse">
<stop stop-color="#B4BDFF"/>
<stop offset="1" stop-color="#576AF8"/>
</linearGradient>
</defs>
</svg>
