<svg width="80" height="80" viewBox="0 0 80 80" fill="none" xmlns="http://www.w3.org/2000/svg">
<rect width="80" height="80" rx="24" fill="#F4F7FD"/>
<path d="M26.5558 59.3686C25.7423 59.3689 24.9435 59.1481 24.2451 58.7268C23.5468 58.3055 22.975 57.6994 22.5899 56.976L22.0575 57.532V25.1272C21.9983 23.8421 22.4449 22.588 23.3003 21.6344C24.1558 20.6809 25.3506 20.1078 26.6232 20.0404L58.0005 20.0049L55.0504 23.0865V54.8318C55.0504 56.0366 54.576 57.1917 53.7321 58.0436C52.8882 58.8955 51.744 59.3745 50.5506 59.3745L26.5558 59.3686Z" fill="url(#paint0_linear_13877_3217)"/>
<path d="M54.998 23.6341C54.998 21.6142 55.931 20 57.9979 20C60.0649 20 60.9978 21.6142 60.9978 23.6341V25.4512C61.0012 25.5316 60.988 25.6119 60.9591 25.687C60.9301 25.762 60.8861 25.8301 60.8297 25.8871C60.7733 25.944 60.7057 25.9885 60.6314 26.0177C60.5571 26.047 60.4776 26.0603 60.3979 26.0569H54.998V23.6341Z" fill="#4E7AD9"/>
<path d="M50.4989 59.3699H25.3628C20.9304 59.3699 19 58.5613 19 55.2058V54.2594C19 53.6083 19.2835 53.313 19.9089 53.313H44.1361C44.3792 53.3147 44.6195 53.3653 44.843 53.4618C45.0665 53.5582 45.2688 53.6986 45.438 53.8748C45.6072 54.051 45.74 54.2594 45.8286 54.4879C45.9172 54.7164 45.9598 54.9604 45.954 55.2058C46.218 58.216 47.3685 59.3699 50.4989 59.3699Z" fill="url(#paint1_linear_13877_3217)"/>
<path d="M29.1245 43.4699C28.8261 43.4699 28.5401 43.3502 28.3291 43.1372C28.1181 42.9242 27.9995 42.6354 27.9995 42.3342C27.9995 42.033 28.1181 41.7443 28.3291 41.5313C28.5401 41.3183 28.8261 41.1986 29.1245 41.1986H46.3742C46.6725 41.1986 46.9586 41.3183 47.1696 41.5313C47.3805 41.7443 47.4991 42.033 47.4991 42.3342C47.4991 42.6354 47.3805 42.9242 47.1696 43.1372C46.9586 43.3502 46.6725 43.4699 46.3742 43.4699H29.1245ZM29.1245 34.3846C28.8261 34.3846 28.5401 34.2649 28.3291 34.0519C28.1181 33.8389 27.9995 33.5501 27.9995 33.2489C27.9995 32.9477 28.1181 32.659 28.3291 32.446C28.5401 32.233 28.8261 32.1133 29.1245 32.1133H46.3742C46.6725 32.1133 46.9586 32.233 47.1696 32.446C47.3805 32.659 47.4991 32.9477 47.4991 33.2489C47.4991 33.5501 47.3805 33.8389 47.1696 34.0519C46.9586 34.2649 46.6725 34.3846 46.3742 34.3846H29.1245Z" fill="white"/>
<g filter="url(#filter0_d_13877_3217)">
<circle cx="50.9375" cy="54.164" r="8.74995" fill="url(#paint2_linear_13877_3217)"/>
</g>
<path d="M50.9375 50.6641V57.664M47.4375 54.164H54.4375" stroke="white" stroke-width="1.74999" stroke-linecap="round" stroke-linejoin="round"/>
<defs>
<filter id="filter0_d_13877_3217" x="38.6875" y="45.4141" width="24.5" height="24.5" filterUnits="userSpaceOnUse" color-interpolation-filters="sRGB">
<feFlood flood-opacity="0" result="BackgroundImageFix"/>
<feColorMatrix in="SourceAlpha" type="matrix" values="0 0 0 0 0 0 0 0 0 0 0 0 0 0 0 0 0 0 127 0" result="hardAlpha"/>
<feOffset dy="3.49998"/>
<feGaussianBlur stdDeviation="1.74999"/>
<feComposite in2="hardAlpha" operator="out"/>
<feColorMatrix type="matrix" values="0 0 0 0 0.289401 0 0 0 0 0.068138 0 0 0 0 0.59917 0 0 0 0.15 0"/>
<feBlend mode="normal" in2="BackgroundImageFix" result="effect1_dropShadow_13877_3217"/>
<feBlend mode="normal" in="SourceGraphic" in2="effect1_dropShadow_13877_3217" result="shape"/>
</filter>
<linearGradient id="paint0_linear_13877_3217" x1="29.0625" y1="20.0049" x2="49.9354" y2="42.5735" gradientUnits="userSpaceOnUse">
<stop stop-color="#B3CBFF"/>
<stop offset="1" stop-color="#6091F9"/>
</linearGradient>
<linearGradient id="paint1_linear_13877_3217" x1="30.5092" y1="52.4478" x2="31.1113" y2="69.7815" gradientUnits="userSpaceOnUse">
<stop stop-color="#A8C4FF"/>
<stop offset="1" stop-color="#4A81F7"/>
</linearGradient>
<linearGradient id="paint2_linear_13877_3217" x1="46.3875" y1="43.87" x2="61.7677" y2="60.5262" gradientUnits="userSpaceOnUse">
<stop stop-color="#D0B8FF"/>
<stop offset="1" stop-color="#9B7AFF"/>
</linearGradient>
</defs>
</svg>
