<svg width="456" height="140" viewBox="0 0 456 140" fill="none" xmlns="http://www.w3.org/2000/svg">
<path d="M202.99 110.671C201.591 110.672 200.218 110.292 199.018 109.568C197.817 108.844 196.834 107.802 196.172 106.559L195.257 107.514V51.8136C195.155 49.6045 195.923 47.4489 197.394 45.8098C198.864 44.1708 200.918 43.1857 203.105 43.0698L257.04 43.0088L251.969 48.3059V102.873C251.969 104.944 251.154 106.929 249.703 108.394C248.252 109.858 246.286 110.681 244.234 110.681L202.99 110.671Z" fill="url(#paint0_linear_24_6)"/>
<path d="M206.494 72L210.338 60.6875H213.869L217.698 72H214.838L214.073 69.5781H210.135L209.369 72H206.494ZM213.432 67.5469L212.151 63.4844H212.057L210.776 67.5469H213.432ZM217.249 72L221.093 60.6875H224.624L228.453 72H225.593L224.828 69.5781H220.89L220.124 72H217.249ZM224.187 67.5469L222.906 63.4844H222.812L221.531 67.5469H224.187ZM228.004 72L231.848 60.6875H235.379L239.208 72H236.348L235.583 69.5781H231.645L230.879 72H228.004ZM234.942 67.5469L233.661 63.4844H233.567L232.286 67.5469H234.942Z" fill="white"/>
<path d="M251.876 49.2467C251.876 45.7746 253.48 43 257.033 43C260.586 43 262.189 45.7746 262.189 49.2467V52.3701C262.195 52.5084 262.173 52.6464 262.123 52.7753C262.073 52.9043 261.997 53.0215 261.9 53.1193C261.803 53.2172 261.687 53.2937 261.56 53.3439C261.432 53.3942 261.295 53.4171 261.158 53.4112H251.876V49.2467Z" fill="#4E7AD9"/>
<path d="M244.144 110.673H200.937C193.318 110.673 190 109.283 190 103.515V101.888C190 100.769 190.487 100.261 191.562 100.261H233.207C233.624 100.264 234.037 100.351 234.422 100.517C234.806 100.683 235.154 100.924 235.444 101.227C235.735 101.53 235.963 101.888 236.116 102.281C236.268 102.674 236.341 103.093 236.331 103.515C236.785 108.689 238.763 110.673 244.144 110.673Z" fill="url(#paint1_linear_24_6)"/>
<path d="M204.321 81.7449H241.986" stroke="white" stroke-opacity="0.6" stroke-width="2" stroke-linecap="round"/>
<path d="M204.321 89.9839H241.986" stroke="white" stroke-opacity="0.6" stroke-width="2" stroke-linecap="round"/>
<g filter="url(#filter0_d_24_6)">
<circle cx="250.306" cy="99.9951" r="15.6936" fill="url(#paint2_linear_24_6)"/>
</g>
<path fill-rule="evenodd" clip-rule="evenodd" d="M257.786 94.9007C258.407 95.5212 258.407 96.5273 257.786 97.1479L249.311 105.622C248.691 106.243 247.685 106.243 247.064 105.622L242.827 101.385C242.206 100.765 242.206 99.7585 242.827 99.138C243.448 98.5174 244.454 98.5174 245.074 99.138L248.188 102.252L255.539 94.9007C256.159 94.2802 257.165 94.2802 257.786 94.9007Z" fill="white"/>
<defs>
<filter id="filter0_d_24_6" x="230.612" y="84.3015" width="39.3872" height="39.3872" filterUnits="userSpaceOnUse" color-interpolation-filters="sRGB">
<feFlood flood-opacity="0" result="BackgroundImageFix"/>
<feColorMatrix in="SourceAlpha" type="matrix" values="0 0 0 0 0 0 0 0 0 0 0 0 0 0 0 0 0 0 127 0" result="hardAlpha"/>
<feOffset dy="4"/>
<feGaussianBlur stdDeviation="2"/>
<feComposite in2="hardAlpha" operator="out"/>
<feColorMatrix type="matrix" values="0 0 0 0 0.068138 0 0 0 0 0.59917 0 0 0 0 0.492964 0 0 0 0.15 0"/>
<feBlend mode="normal" in2="BackgroundImageFix" result="effect1_dropShadow_24_6"/>
<feBlend mode="normal" in="SourceGraphic" in2="effect1_dropShadow_24_6" result="shape"/>
</filter>
<linearGradient id="paint0_linear_24_6" x1="207.298" y1="43.0088" x2="243.177" y2="81.8021" gradientUnits="userSpaceOnUse">
<stop stop-color="#B3CBFF"/>
<stop offset="1" stop-color="#6091F9"/>
</linearGradient>
<linearGradient id="paint1_linear_24_6" x1="209.783" y1="98.7742" x2="210.818" y2="128.569" gradientUnits="userSpaceOnUse">
<stop stop-color="#A8C4FF"/>
<stop offset="1" stop-color="#4A81F7"/>
</linearGradient>
<linearGradient id="paint2_linear_24_6" x1="240.61" y1="78.0175" x2="270.669" y2="110.526" gradientUnits="userSpaceOnUse">
<stop stop-color="#83EBF8"/>
<stop offset="1" stop-color="#33ACBD"/>
</linearGradient>
</defs>
</svg>
