<svg width="16" height="16" viewBox="0 0 16 16" fill="none" xmlns="http://www.w3.org/2000/svg">
<g clip-path="url(#clip0_3824_16555)">
<path d="M1 0.99707C1 0.444786 1.44772 -0.00292969 2 -0.00292969H11.5801C11.8487 -0.00292969 12.106 0.10511 12.294 0.296862L13.5938 1.62207L14.6991 2.70287C14.8915 2.89102 15 3.14877 15 3.41788V14.9971C15 15.5494 14.5523 15.9971 14 15.9971H2C1.44772 15.9971 1 15.5494 1 14.9971V0.99707Z" fill="#53C9C9"/>
<path opacity="0.902" d="M6.81201 12L8.31201 5H9.18311L7.66895 12H6.81201ZM9.56299 9.81201L11.7429 8.539L9.56299 7.27899V5.979L12.9971 7.987V9.09998L9.56299 11.121V9.81201ZM3 9.09998V7.98199L6.42993 5.97498V7.28998L4.25391 8.52698L6.42993 9.80902V11.115L3 9.09998Z" fill="white"/>
</g>
<defs>
<clipPath id="clip0_3824_16555">
<rect width="16" height="16" fill="white"/>
</clipPath>
</defs>
</svg>
