<svg width="16" height="16" viewBox="0 0 16 16" fill="none" xmlns="http://www.w3.org/2000/svg">
<g clip-path="url(#clip0_3824_16563)">
<path d="M1 0.99707C1 0.444786 1.44772 -0.00292969 2 -0.00292969H11.5801C11.8487 -0.00292969 12.106 0.10511 12.294 0.296862L13.5938 1.62207L14.6991 2.70287C14.8915 2.89102 15 3.14877 15 3.41788V14.9971C15 15.5494 14.5523 15.9971 14 15.9971H2C1.44772 15.9971 1 15.5494 1 14.9971V0.99707Z" fill="#AF6CC5"/>
<path d="M8.38478 5.02825L6.51386 8.11527L8.50951 11.3894C8.52264 11.412 8.52708 11.4386 8.52198 11.4642C8.51574 11.4892 8.4908 11.4704 8.45338 11.4767H7.02525C6.92546 11.4767 6.85686 11.4704 6.81321 11.4081C6.68224 11.1462 6.54504 10.8905 6.41408 10.6285C6.28311 10.3666 6.13968 10.1109 5.99 9.84275C5.84033 9.57458 5.69066 9.30642 5.54098 9.03201H5.52851C5.39755 9.30018 5.25411 9.56835 5.11067 9.83651C4.96723 10.1047 4.8238 10.3728 4.6866 10.6348C4.5494 10.8967 4.39972 11.1649 4.25629 11.4206C4.23134 11.4829 4.18145 11.4892 4.11285 11.4892H2.74084C2.7159 11.4892 2.69719 11.5016 2.69719 11.4704C2.6944 11.4588 2.69408 11.4466 2.69622 11.4348C2.69837 11.423 2.70295 11.4118 2.70966 11.4018L4.64918 8.22128L2.75955 5.02201C2.74084 4.99707 2.73461 4.97212 2.74708 4.95965C2.75468 4.95076 2.76433 4.94385 2.77519 4.9395C2.78605 4.93516 2.79781 4.93351 2.80944 4.9347H4.2251C4.2546 4.93535 4.28392 4.93953 4.31241 4.94718C4.3374 4.96062 4.35879 4.97987 4.37478 5.0033C4.49327 5.27147 4.63047 5.53963 4.77391 5.8078C4.91734 6.07596 5.06702 6.33789 5.22293 6.59982C5.37884 6.86175 5.5098 7.12368 5.64077 7.39184H5.65324C5.7842 7.11744 5.9214 6.84928 6.0586 6.58735C6.1958 6.32542 6.33924 6.06349 6.48268 5.80156C6.62612 5.53963 6.76332 5.27147 6.90052 5.01578C6.90525 4.99123 6.9185 4.96914 6.93794 4.95341C6.96263 4.93979 6.99136 4.93537 7.01901 4.94094H8.33489C8.34226 4.93929 8.34989 4.9391 8.35733 4.9404C8.36477 4.9417 8.37188 4.94446 8.37826 4.94852C8.38463 4.95257 8.39014 4.95785 8.39447 4.96404C8.3988 4.97023 8.40187 4.97722 8.40349 4.9846C8.40972 4.99083 8.39725 5.01578 8.38478 5.02825Z" fill="white"/>
<path d="M11.2664 11.6079C10.8041 11.6154 10.346 11.5196 9.92556 11.3272C9.5344 11.1443 9.20657 10.849 8.98387 10.4791C8.75312 10.0987 8.64087 9.62469 8.64087 9.05718C8.63454 8.59566 8.75306 8.14101 8.98387 7.7413C9.22053 7.33506 9.56331 7.0009 9.97545 6.77466C10.412 6.53144 10.9359 6.41294 11.5533 6.41294C11.597 6.41245 11.6407 6.41453 11.6842 6.41918C11.7404 6.42542 11.8027 6.42542 11.8776 6.43165V4.46095C11.8776 4.4173 11.8963 4.39235 11.9399 4.39235H13.2059C13.2199 4.39046 13.2341 4.3939 13.2456 4.40199C13.2572 4.41008 13.2653 4.42223 13.2683 4.43601V10.3855C13.2683 10.4978 13.2745 10.6225 13.2807 10.7597C13.287 10.8969 13.2995 11.0154 13.3057 11.1214C13.307 11.1425 13.3017 11.1634 13.2905 11.1813C13.2793 11.1992 13.2628 11.2132 13.2433 11.2212C12.9167 11.3585 12.5757 11.4589 12.2268 11.5206C11.9098 11.5777 11.5885 11.6069 11.2664 11.6079ZM11.8776 10.3606V7.61657C11.822 7.60317 11.7658 7.59276 11.7092 7.58539C11.6406 7.57915 11.572 7.57291 11.5034 7.57291C11.2589 7.57016 11.0173 7.62575 10.7987 7.73506C10.5855 7.84125 10.4031 8.0001 10.2686 8.19655C10.1314 8.39612 10.0628 8.66428 10.0628 8.98858C10.0573 9.20746 10.0933 9.4254 10.1688 9.63092C10.2291 9.79713 10.3249 9.94822 10.4494 10.0737C10.5697 10.1884 10.7148 10.2738 10.8735 10.3232C11.0405 10.3779 11.2153 10.4053 11.3911 10.4042C11.4847 10.4042 11.572 10.398 11.653 10.3918C11.7292 10.3972 11.8057 10.3866 11.8776 10.3606Z" fill="white"/>
</g>
<defs>
<clipPath id="clip0_3824_16563">
<rect width="16" height="16" fill="white"/>
</clipPath>
</defs>
</svg>
