<svg width="16" height="16" viewBox="0 0 16 16" fill="none" xmlns="http://www.w3.org/2000/svg">
<g clip-path="url(#clip0_3824_16553)">
<path d="M1 0.99707C1 0.444786 1.44772 -0.00292969 2 -0.00292969H11.5801C11.8487 -0.00292969 12.106 0.10511 12.294 0.296862L13.5938 1.62207L14.6991 2.70287C14.8915 2.89102 15 3.14877 15 3.41788V14.9971C15 15.5494 14.5523 15.9971 14 15.9971H2C1.44772 15.9971 1 15.5494 1 14.9971V0.99707Z" fill="#785FB3"/>
<path opacity="0.902" d="M8.00095 12C7.20983 12 6.43658 11.7654 5.77879 11.3259C5.12099 10.8863 4.60815 10.2617 4.3054 9.53077C4.00265 8.79986 3.92352 7.9956 4.07786 7.21967C4.2322 6.44375 4.61318 5.73099 5.17259 5.17158C5.732 4.61217 6.44476 4.23119 7.22068 4.07685C7.99661 3.92251 8.80081 4.00176 9.53172 4.30451C10.2626 4.60726 10.8874 5.11992 11.3269 5.77772C11.7664 6.43551 12.001 7.20888 12.001 8.00001C11.9996 9.06047 11.5777 10.0771 10.8279 10.827C10.078 11.5768 9.06141 11.9987 8.00095 12ZM6.68504 5.73701V10.263L9.93797 8.00001L6.68504 5.73701Z" fill="white"/>
</g>
<defs>
<clipPath id="clip0_3824_16553">
<rect width="16" height="16" fill="white"/>
</clipPath>
</defs>
</svg>
