<svg width="16" height="16" viewBox="0 0 16 16" fill="none" xmlns="http://www.w3.org/2000/svg">
<path d="M1 1C1 0.447715 1.44772 0 2 0H11.5801C11.8487 0 12.106 0.108015 12.294 0.299726L13.5938 1.6247L14.6991 2.70524C14.8915 2.89339 15 3.15117 15 3.42032V14.9971C15 15.5494 14.5523 15.9971 14 15.9971H2C1.44772 15.9971 1 15.5494 1 14.9971V1Z" fill="#E6287C"/>
<path d="M5.58023 4.58764V11.8896C5.58023 11.9679 5.54465 12.0035 5.4806 12.0035H4.08568C4.02163 12.0035 3.99316 11.9679 3.99316 11.8896V4.58764C3.99316 4.52359 4.02875 4.49512 4.0928 4.49512H5.4806C5.49139 4.49342 5.50241 4.49394 5.51299 4.49663C5.52358 4.49933 5.5335 4.50416 5.54216 4.51082C5.55081 4.51748 5.55802 4.52583 5.56335 4.53537C5.56867 4.54491 5.57199 4.55543 5.57312 4.56629C5.57581 4.5691 5.57784 4.57248 5.57907 4.57617C5.5803 4.57986 5.5807 4.58378 5.58023 4.58764Z" fill="#FEFEFE"/>
<path d="M9.6796 12.1172C9.15206 12.1258 8.62925 12.0164 8.14946 11.7969C7.70307 11.5882 7.32895 11.2512 7.07481 10.829C6.81148 10.3949 6.68338 9.85399 6.68338 9.20635C6.67617 8.67967 6.81141 8.16083 7.07481 7.70468C7.34489 7.24108 7.73607 6.85975 8.2064 6.60156C8.70458 6.324 9.3024 6.18878 10.007 6.18878C10.0569 6.18822 10.1068 6.19059 10.1564 6.1959C10.2205 6.20302 10.2917 6.20301 10.3771 6.21013V3.96119C10.3771 3.91137 10.3984 3.8829 10.4482 3.8829H11.893C11.9089 3.88074 11.9251 3.88467 11.9383 3.8939C11.9515 3.90313 11.9607 3.91699 11.9641 3.93272V10.7222C11.9641 10.8504 11.9712 10.9927 11.9784 11.1493C11.9855 11.3058 11.9997 11.4411 12.0068 11.562C12.0083 11.5861 12.0023 11.61 11.9895 11.6304C11.9768 11.6508 11.9579 11.6667 11.9357 11.6759C11.5629 11.8326 11.1738 11.9472 10.7756 12.0175C10.4139 12.0831 10.0472 12.1164 9.6796 12.1172ZM10.3771 10.6938V7.56234C10.3137 7.54705 10.2495 7.53517 10.1849 7.52676C10.1066 7.51964 10.0283 7.51253 9.95004 7.51253C9.67107 7.50938 9.39537 7.57282 9.14583 7.69757C8.90263 7.81874 8.69441 8.00002 8.54089 8.22422C8.38432 8.45196 8.30603 8.75798 8.30603 9.12806C8.29983 9.37785 8.34088 9.62656 8.42702 9.8611C8.49585 10.0508 8.60513 10.2232 8.74728 10.3664C8.88449 10.4973 9.05012 10.5948 9.23123 10.6511C9.42187 10.7135 9.62134 10.7448 9.82194 10.7436C9.92869 10.7436 10.0283 10.7365 10.1208 10.7294C10.2078 10.7361 10.2952 10.7239 10.3771 10.6938Z" fill="#FEFEFE"/>
</svg>
