<svg width="57" height="20" viewBox="0 0 57 20" fill="none" xmlns="http://www.w3.org/2000/svg">
<g clip-path="url(#clip0_1279_36869)">
<path d="M13.6937 4.95417C13.6937 5.55135 13.2095 6.0356 12.6104 6.0356H10.4437C9.8446 6.0356 9.36035 5.55135 9.36035 4.95417V2.79131C9.36035 2.19222 9.8446 1.70605 10.4437 1.70605H12.6104C13.2095 1.70605 13.6937 2.19222 13.6937 2.79131V4.95417Z" fill="#D70051"/>
<path d="M8.15375 8.09472C8.15375 8.09472 5.97367 8.09472 5.96601 8.09472C5.3784 8.08132 4.90755 7.60473 4.90755 7.01329V4.84852C4.90564 4.25325 4.41947 3.76709 3.82229 3.76709H1.65561C1.05652 3.76709 0.572266 4.25325 0.572266 4.84852V7.01138C0.572266 7.60856 1.05652 8.09089 1.65561 8.09089C1.65561 8.09089 3.82421 8.09089 3.82612 8.09089C4.42139 8.09281 4.90181 8.57514 4.90564 9.16849V11.339C4.90564 11.9362 5.38989 12.4223 5.98898 12.4223H8.15567C8.75284 12.4223 9.23901 11.9362 9.23901 11.339V9.17423C9.23901 8.57706 8.75284 8.09281 8.15567 8.09281" fill="#D70051"/>
<path d="M23.3003 7.89992C23.3003 7.67597 23.1127 7.49414 22.883 7.49414L21.2197 7.58984V7.99562H21.4284C21.4743 7.99945 21.6772 8.02433 21.6829 8.24444L21.7021 10.1642H20.1211V11.3949H21.7117L21.7423 14.5646H23.0323C23.1797 14.5646 23.2984 14.4478 23.2984 14.3062V7.898L23.3003 7.89992Z" fill="#231815"/>
<path d="M17.7782 16.0229C17.6308 16.0229 17.5122 15.9081 17.5122 15.7645L17.6059 14.3941C17.6059 14.1701 17.4184 13.9883 17.1887 13.9883L15.4297 14.0361V14.4419H15.6843C15.7321 14.4457 15.9331 14.4725 15.9407 14.6907L15.8469 16.3483H15.8489C15.8508 16.7962 16.2221 17.1579 16.6796 17.1579H23.5471V15.9731L17.7763 16.021L17.7782 16.0229Z" fill="#231815"/>
<path d="M17.9752 9.38506H19.6576C19.8031 9.38506 19.9217 9.2683 19.9217 9.12858V9.08456V8.2041H14.5567V9.38697H16.3081C16.3865 11.5632 13.8906 12.6868 13.8906 12.6868L14.5625 13.5462L14.5739 13.5596C14.6141 13.6074 14.6754 13.638 14.7424 13.638C14.7787 13.638 14.8113 13.6304 14.84 13.6151C15.1788 13.4371 16.2621 12.6829 16.9607 11.7336C17.0009 11.68 17.066 11.6436 17.1407 11.6436C17.2153 11.6436 17.2804 11.6781 17.3206 11.7317C17.9943 12.6408 18.936 13.4792 19.3188 13.6859C19.3494 13.7031 19.3858 13.7146 19.4241 13.7146C19.5026 13.7146 19.5696 13.6763 19.6078 13.617L20.2816 12.7155C20.2816 12.7155 17.8297 11.5116 17.9675 9.38506" fill="#231815"/>
<path d="M44.9097 7.90968C44.9097 7.68574 44.724 7.50391 44.4944 7.50391L42.8311 7.55176V7.95753H43.0397C43.0856 7.96136 43.2885 7.98816 43.2943 8.20636L43.3574 14.5648H44.6456C44.7929 14.5648 44.9097 14.448 44.9097 14.3064V7.90968Z" fill="#231815"/>
<path d="M39.4638 16.0229C39.3183 16.0229 39.1997 15.9081 39.1997 15.7645L39.2934 14.2754C39.2934 14.0515 39.1059 13.8696 38.8762 13.8696L37.1172 13.9175V14.3252H37.3737C37.4215 14.3271 37.6225 14.3539 37.6301 14.574L37.5364 16.3483H37.5383C37.5383 16.7962 37.9096 17.1579 38.369 17.1579H45.1504V15.9732L39.4638 16.021V16.0229Z" fill="#231815"/>
<path d="M41.4378 13.305C41.4378 13.305 41.4474 13.2935 41.4531 13.2878L42.2168 12.4552C42.2168 12.4552 39.7401 10.7517 39.8855 8.98885L39.8798 8.27109C39.8932 8.04906 39.7152 7.86914 39.4836 7.86914L37.8011 7.91891L37.7763 8.32277H37.9868C38.0327 8.32468 38.293 8.38976 38.2854 8.60796L38.2605 9.01947C38.1993 11.167 35.5713 12.459 35.5713 12.459L36.2508 13.3835C36.2891 13.4313 36.3503 13.4639 36.4211 13.4619C36.4613 13.4619 36.5015 13.4505 36.536 13.4332C36.9436 13.217 38.1782 12.2599 38.8711 11.3335C38.9132 11.2761 38.984 11.2378 39.0625 11.2378C39.1295 11.2378 39.1869 11.2665 39.2252 11.3087C39.2271 11.3144 39.2328 11.3221 39.2367 11.3259V11.3297H39.2405C39.8568 12.2561 40.7679 13.1404 41.1411 13.3567H41.143C41.1756 13.3739 41.2119 13.3854 41.2521 13.3854C41.3249 13.3854 41.388 13.3528 41.434 13.3031L41.4378 13.305Z" fill="#231815"/>
<path d="M53.8861 10.681H49.7346C49.5968 10.6733 49.4877 10.5642 49.4838 10.4302L49.5298 9.2933H53.8861V10.681ZM55.5532 8.37457C55.5532 8.23101 55.4346 8.11426 55.2891 8.11426C55.2834 8.11426 47.4014 8.11426 47.4014 8.11426V8.52003H47.61C47.6578 8.52386 47.8588 8.55066 47.8646 8.76886C47.8646 8.76886 47.8167 11.0312 47.8167 11.037C47.8167 11.4868 48.1919 11.8524 48.6512 11.8524C48.6512 11.8524 55.2834 11.8524 55.2853 11.8524C55.4307 11.8524 55.5475 11.7394 55.5513 11.5959V11.772C55.5513 10.836 55.5513 8.37648 55.5513 8.37265" fill="#231815"/>
<path d="M49.9394 16.0228C49.7939 16.0228 49.6752 15.908 49.6752 15.7645L49.7212 14.9433C49.7212 14.7175 49.5336 14.5356 49.3039 14.5356L47.5449 14.5835V14.9912H47.7995C47.8473 14.9931 48.0483 15.0199 48.056 15.24L48.0081 16.3463H48.01C48.0119 16.7942 48.3833 17.156 48.8407 17.156H55.7906V15.9712L49.9355 16.019L49.9394 16.0228Z" fill="#231815"/>
<path d="M56.4322 12.6333H46.8984V13.8162H51.138V15.2172H52.4434C52.5889 15.2172 52.7094 15.1024 52.7094 14.9589V13.8162H56.4322V12.6333Z" fill="#231815"/>
<path d="M35.1635 11.1348H33.5825V7.90968C33.5825 7.68574 33.3968 7.50391 33.1652 7.50391L31.502 7.55176V7.95753H31.7106C31.7584 7.96136 31.9594 7.98816 31.9652 8.20636L32.0532 17.4014H33.3165C33.4638 17.4014 33.5806 17.2846 33.5806 17.1411V12.3636H35.1616V11.1329L35.1635 11.1348Z" fill="#231815"/>
<path d="M28.8338 10.2199V9.40647H30.566C30.7115 9.40647 30.8321 9.29162 30.8321 9.14807V9.21889V8.57195V8.67722V8.22168H25.2355V9.40455H27.1361V10.218C27.1571 11.0717 27.0021 12.7809 24.667 14.3274L25.4441 15.1964H25.4479C25.4881 15.2404 25.5474 15.2692 25.6125 15.2692C25.668 15.2692 25.7178 15.2481 25.7561 15.2156C26.1733 14.9055 27.2356 14.0308 27.8539 12.9436C27.8921 12.8804 27.963 12.8383 28.0433 12.8383C28.1237 12.8383 28.1946 12.8804 28.2348 12.9455C28.2348 12.9455 28.2348 12.9455 28.2348 12.9474C28.9027 14.0442 29.8177 14.871 30.2273 15.1754C30.2636 15.2041 30.3115 15.2213 30.3612 15.2213C30.4244 15.2213 30.4818 15.1945 30.522 15.1524L31.3049 14.3274C29.0597 12.6948 28.8319 11.0544 28.8338 10.218" fill="#231815"/>
</g>
<defs>
<clipPath id="clip0_1279_36869">
<rect width="56.8702" height="19.3359" fill="white" transform="translate(0.129883)"/>
</clipPath>
</defs>
</svg>
