<svg width="16" height="16" viewBox="0 0 16 16" fill="none" xmlns="http://www.w3.org/2000/svg">
<path fill-rule="evenodd" clip-rule="evenodd" d="M14.1847 5.99992H10.5C10.2239 5.99992 10 5.77606 10 5.49992C10 5.22378 10.2239 4.99992 10.5 4.99992H13.4067C12.0703 2.56624 9.22594 1.32011 6.46428 2.02832C5.38017 2.30721 4.39241 2.87594 3.60695 3.67351C2.82144 4.47113 2.26787 5.46752 2.0056 6.55584C1.74334 7.64415 1.78227 8.78333 2.11823 9.8512C2.4542 10.9191 3.07451 11.8753 3.91264 12.6175C4.75078 13.3596 5.77512 13.8595 6.87581 14.0637C7.97649 14.2679 9.11201 14.1687 10.1606 13.7766C11.2091 13.3845 12.1312 12.7143 12.8278 11.838C13.5244 10.9617 13.9694 9.91233 14.115 8.80236C14.1509 8.52857 14.4019 8.33572 14.6757 8.37162C14.9495 8.40753 15.1424 8.65859 15.1065 8.93239C14.9373 10.2224 14.4202 11.4419 13.6106 12.4603C12.801 13.4787 11.7294 14.2575 10.5108 14.7132C9.29223 15.1689 7.97258 15.2843 6.6934 15.047C5.41422 14.8097 4.22377 14.2286 3.24972 13.3661C2.27567 12.5037 1.55477 11.3923 1.16433 10.1513C0.773888 8.91027 0.728638 7.58636 1.03343 6.32156C1.33823 5.05676 1.98157 3.89879 2.89445 2.97183C3.80734 2.04488 4.95534 1.38391 6.21533 1.05981L6.21567 1.05972C9.33877 0.25872 12.5661 1.61391 14.1667 4.31401V1.33325C14.1667 1.05711 14.3905 0.833252 14.6667 0.833252C14.9428 0.833252 15.1667 1.05711 15.1667 1.33325V5.49992C15.1667 5.77606 14.9428 5.99992 14.6667 5.99992H14.2037C14.1974 6.00004 14.191 6.00004 14.1847 5.99992Z" fill="#333333"/>
</svg>
